<?xml version="1.0" encoding="UTF-8"?>
<svg xmlns="http://www.w3.org/2000/svg" xmlns:xlink="http://www.w3.org/1999/xlink" width="328pt" height="229pt" viewBox="0 0 328 229" version="1.1">
<defs>
<clipPath id="clip1">
  <path d="M 106 9 L 109 9 L 109 182.25 L 106 182.25 Z M 106 9 "/>
</clipPath>
<clipPath id="clip2">
  <path d="M 156 9 L 159 9 L 159 182.25 L 156 182.25 Z M 156 9 "/>
</clipPath>
<clipPath id="clip3">
  <path d="M 206 9 L 208 9 L 208 182.25 L 206 182.25 Z M 206 9 "/>
</clipPath>
<clipPath id="clip4">
  <path d="M 256 9 L 258 9 L 258 182.25 L 256 182.25 Z M 256 9 "/>
</clipPath>
<clipPath id="clip5">
  <path d="M 306 9 L 306.804688 9 L 306.804688 182.25 L 306 182.25 Z M 306 9 "/>
</clipPath>
<clipPath id="clip6">
  <path d="M 62.679688 155 L 306.804688 155 L 306.804688 157 L 62.679688 157 Z M 62.679688 155 "/>
</clipPath>
<clipPath id="clip7">
  <path d="M 62.679688 124 L 306.804688 124 L 306.804688 126 L 62.679688 126 Z M 62.679688 124 "/>
</clipPath>
<clipPath id="clip8">
  <path d="M 62.679688 92 L 306.804688 92 L 306.804688 95 L 62.679688 95 Z M 62.679688 92 "/>
</clipPath>
<clipPath id="clip9">
  <path d="M 62.679688 61 L 306.804688 61 L 306.804688 63 L 62.679688 63 Z M 62.679688 61 "/>
</clipPath>
<clipPath id="clip10">
  <path d="M 62.679688 30 L 306.804688 30 L 306.804688 32 L 62.679688 32 Z M 62.679688 30 "/>
</clipPath>
<clipPath id="clip11">
  <path d="M 62.679688 15 L 306.804688 15 L 306.804688 176 L 62.679688 176 Z M 62.679688 15 "/>
</clipPath>
<filter id="alpha" filterUnits="objectBoundingBox" x="0%" y="0%" width="100%" height="100%">
  <feColorMatrix type="matrix" in="SourceGraphic" values="0 0 0 0 1 0 0 0 0 1 0 0 0 0 1 0 0 0 1 0"/>
</filter>
<mask id="mask0">
  <g filter="url(#alpha)">
<rect x="0" y="0" width="328" height="229" style="fill:rgb(0%,0%,0%);fill-opacity:0.8;stroke:none;"/>
  </g>
</mask>
<clipPath id="clip12">
  <rect x="0" y="0" width="328" height="229"/>
</clipPath>
<g id="surface5" clip-path="url(#clip12)">
<path style="fill-rule:nonzero;fill:rgb(100%,100%,100%);fill-opacity:1;stroke-width:1;stroke-linecap:butt;stroke-linejoin:miter;stroke:rgb(80%,80%,80%);stroke-opacity:1;stroke-miterlimit:4;" d="M 183.16875 29.878125 L 238.44375 29.878125 C 239.778125 29.878125 240.44375 29.2125 240.44375 27.878125 L 240.44375 14.2 C 240.44375 12.865625 239.778125 12.2 238.44375 12.2 L 183.16875 12.2 C 181.834375 12.2 181.16875 12.865625 181.16875 14.2 L 181.16875 27.878125 C 181.16875 29.2125 181.834375 29.878125 183.16875 29.878125 Z M 183.16875 29.878125 " transform="matrix(1.25,0,0,1.25,0,0)"/>
</g>
</defs>
<g id="surface1">
<path style=" stroke:none;fill-rule:nonzero;fill:rgb(100%,100%,100%);fill-opacity:1;" d="M 0 229.195312 L 327.734375 229.195312 L 327.734375 0 L 0 0 Z M 0 229.195312 "/>
<path style=" stroke:none;fill-rule:nonzero;fill:rgb(100%,100%,100%);fill-opacity:1;" d="M 62.679688 182.25 L 306.804688 182.25 L 306.804688 9 L 62.679688 9 Z M 62.679688 182.25 "/>
<g clip-path="url(#clip1)" clip-rule="nonzero">
<path style="fill:none;stroke-width:0.8;stroke-linecap:square;stroke-linejoin:round;stroke:rgb(69.019608%,69.019608%,69.019608%);stroke-opacity:1;stroke-miterlimit:4;" d="M 86.015625 145.8 L 86.015625 7.2 " transform="matrix(1.25,0,0,1.25,0,0)"/>
</g>
<path style="fill:none;stroke-width:0.8;stroke-linecap:butt;stroke-linejoin:round;stroke:rgb(0%,0%,0%);stroke-opacity:1;stroke-miterlimit:4;" d="M 0.000446 0 L 0.000446 3.5 " transform="matrix(1.25,0,0,1.25,107.518974,182.25)"/>
<path style=" stroke:none;fill-rule:nonzero;fill:rgb(0%,0%,0%);fill-opacity:1;" d="M 97.140625 199.460938 L 99.152344 199.460938 L 99.152344 192.507812 L 96.960938 192.949219 L 96.960938 191.824219 L 99.140625 191.386719 L 100.375 191.386719 L 100.375 199.460938 L 102.386719 199.460938 L 102.386719 200.5 L 97.140625 200.5 Z M 97.140625 199.460938 "/>
<path style=" stroke:none;fill-rule:nonzero;fill:rgb(0%,0%,0%);fill-opacity:1;" d="M 107.515625 192.199219 C 106.878906 192.199219 106.402344 192.511719 106.082031 193.136719 C 105.765625 193.757812 105.605469 194.699219 105.605469 195.953125 C 105.605469 197.199219 105.765625 198.136719 106.082031 198.761719 C 106.402344 199.386719 106.878906 199.699219 107.515625 199.699219 C 108.152344 199.699219 108.632812 199.386719 108.953125 198.761719 C 109.273438 198.136719 109.433594 197.199219 109.433594 195.953125 C 109.433594 194.699219 109.273438 193.757812 108.953125 193.136719 C 108.632812 192.511719 108.152344 192.199219 107.515625 192.199219 Z M 107.515625 191.222656 C 108.535156 191.222656 109.316406 191.625 109.855469 192.433594 C 110.394531 193.242188 110.664062 194.414062 110.664062 195.953125 C 110.664062 197.484375 110.394531 198.65625 109.855469 199.464844 C 109.316406 200.273438 108.535156 200.675781 107.515625 200.675781 C 106.492188 200.675781 105.714844 200.273438 105.175781 199.464844 C 104.636719 198.65625 104.367188 197.484375 104.367188 195.953125 C 104.367188 194.414062 104.636719 193.242188 105.175781 192.433594 C 105.714844 191.625 106.492188 191.222656 107.515625 191.222656 Z M 107.515625 191.222656 "/>
<path style=" stroke:none;fill-rule:nonzero;fill:rgb(0%,0%,0%);fill-opacity:1;" d="M 115.46875 192.199219 C 114.832031 192.199219 114.355469 192.511719 114.035156 193.136719 C 113.71875 193.757812 113.558594 194.699219 113.558594 195.953125 C 113.558594 197.199219 113.71875 198.136719 114.035156 198.761719 C 114.355469 199.386719 114.832031 199.699219 115.46875 199.699219 C 116.105469 199.699219 116.585938 199.386719 116.90625 198.761719 C 117.226562 198.136719 117.386719 197.199219 117.386719 195.953125 C 117.386719 194.699219 117.226562 193.757812 116.90625 193.136719 C 116.585938 192.511719 116.105469 192.199219 115.46875 192.199219 Z M 115.46875 191.222656 C 116.488281 191.222656 117.269531 191.625 117.808594 192.433594 C 118.347656 193.242188 118.617188 194.414062 118.617188 195.953125 C 118.617188 197.484375 118.347656 198.65625 117.808594 199.464844 C 117.269531 200.273438 116.488281 200.675781 115.46875 200.675781 C 114.445312 200.675781 113.667969 200.273438 113.128906 199.464844 C 112.589844 198.65625 112.320312 197.484375 112.320312 195.953125 C 112.320312 194.414062 112.589844 193.242188 113.128906 192.433594 C 113.667969 191.625 114.445312 191.222656 115.46875 191.222656 Z M 115.46875 191.222656 "/>
<g clip-path="url(#clip2)" clip-rule="nonzero">
<path style="fill:none;stroke-width:0.8;stroke-linecap:square;stroke-linejoin:round;stroke:rgb(69.019608%,69.019608%,69.019608%);stroke-opacity:1;stroke-miterlimit:4;" d="M 125.871875 145.8 L 125.871875 7.2 " transform="matrix(1.25,0,0,1.25,0,0)"/>
</g>
<path style="fill:none;stroke-width:0.8;stroke-linecap:butt;stroke-linejoin:round;stroke:rgb(0%,0%,0%);stroke-opacity:1;stroke-miterlimit:4;" d="M -0.000446 0 L -0.000446 3.5 " transform="matrix(1.25,0,0,1.25,157.340401,182.25)"/>
<path style=" stroke:none;fill-rule:nonzero;fill:rgb(0%,0%,0%);fill-opacity:1;" d="M 147.808594 199.460938 L 152.113281 199.460938 L 152.113281 200.5 L 146.328125 200.5 L 146.328125 199.460938 C 146.792969 198.976562 147.429688 198.328125 148.238281 197.511719 C 149.046875 196.695312 149.554688 196.167969 149.761719 195.933594 C 150.15625 195.488281 150.433594 195.113281 150.589844 194.808594 C 150.746094 194.5 150.824219 194.199219 150.824219 193.902344 C 150.824219 193.417969 150.65625 193.023438 150.316406 192.71875 C 149.976562 192.410156 149.53125 192.257812 148.988281 192.257812 C 148.601562 192.257812 148.191406 192.324219 147.761719 192.460938 C 147.332031 192.59375 146.875 192.796875 146.386719 193.070312 L 146.386719 191.824219 C 146.882812 191.625 147.347656 191.476562 147.777344 191.375 C 148.210938 191.273438 148.605469 191.222656 148.964844 191.222656 C 149.90625 191.222656 150.660156 191.457031 151.222656 191.929688 C 151.78125 192.402344 152.0625 193.03125 152.0625 193.820312 C 152.0625 194.195312 151.992188 194.550781 151.851562 194.886719 C 151.710938 195.222656 151.457031 195.617188 151.085938 196.074219 C 150.984375 196.191406 150.660156 196.53125 150.117188 197.097656 C 149.570312 197.660156 148.800781 198.449219 147.808594 199.460938 Z M 147.808594 199.460938 "/>
<path style=" stroke:none;fill-rule:nonzero;fill:rgb(0%,0%,0%);fill-opacity:1;" d="M 157.335938 192.199219 C 156.703125 192.199219 156.226562 192.511719 155.90625 193.136719 C 155.585938 193.757812 155.425781 194.699219 155.425781 195.953125 C 155.425781 197.199219 155.585938 198.136719 155.90625 198.761719 C 156.226562 199.386719 156.703125 199.699219 157.335938 199.699219 C 157.976562 199.699219 158.453125 199.386719 158.773438 198.761719 C 159.09375 198.136719 159.253906 197.199219 159.253906 195.953125 C 159.253906 194.699219 159.09375 193.757812 158.773438 193.136719 C 158.453125 192.511719 157.976562 192.199219 157.335938 192.199219 Z M 157.335938 191.222656 C 158.359375 191.222656 159.140625 191.625 159.679688 192.433594 C 160.21875 193.242188 160.488281 194.414062 160.488281 195.953125 C 160.488281 197.484375 160.21875 198.65625 159.679688 199.464844 C 159.140625 200.273438 158.359375 200.675781 157.335938 200.675781 C 156.316406 200.675781 155.535156 200.273438 154.996094 199.464844 C 154.457031 198.65625 154.1875 197.484375 154.1875 195.953125 C 154.1875 194.414062 154.457031 193.242188 154.996094 192.433594 C 155.535156 191.625 156.316406 191.222656 157.335938 191.222656 Z M 157.335938 191.222656 "/>
<path style=" stroke:none;fill-rule:nonzero;fill:rgb(0%,0%,0%);fill-opacity:1;" d="M 165.289062 192.199219 C 164.65625 192.199219 164.179688 192.511719 163.859375 193.136719 C 163.539062 193.757812 163.378906 194.699219 163.378906 195.953125 C 163.378906 197.199219 163.539062 198.136719 163.859375 198.761719 C 164.179688 199.386719 164.65625 199.699219 165.289062 199.699219 C 165.929688 199.699219 166.40625 199.386719 166.726562 198.761719 C 167.046875 198.136719 167.207031 197.199219 167.207031 195.953125 C 167.207031 194.699219 167.046875 193.757812 166.726562 193.136719 C 166.40625 192.511719 165.929688 192.199219 165.289062 192.199219 Z M 165.289062 191.222656 C 166.3125 191.222656 167.09375 191.625 167.632812 192.433594 C 168.171875 193.242188 168.441406 194.414062 168.441406 195.953125 C 168.441406 197.484375 168.171875 198.65625 167.632812 199.464844 C 167.09375 200.273438 166.3125 200.675781 165.289062 200.675781 C 164.269531 200.675781 163.488281 200.273438 162.949219 199.464844 C 162.410156 198.65625 162.140625 197.484375 162.140625 195.953125 C 162.140625 194.414062 162.410156 193.242188 162.949219 192.433594 C 163.488281 191.625 164.269531 191.222656 165.289062 191.222656 Z M 165.289062 191.222656 "/>
<g clip-path="url(#clip3)" clip-rule="nonzero">
<path style="fill:none;stroke-width:0.8;stroke-linecap:square;stroke-linejoin:round;stroke:rgb(69.019608%,69.019608%,69.019608%);stroke-opacity:1;stroke-miterlimit:4;" d="M 165.728125 145.8 L 165.728125 7.2 " transform="matrix(1.25,0,0,1.25,0,0)"/>
</g>
<path style="fill:none;stroke-width:0.8;stroke-linecap:butt;stroke-linejoin:round;stroke:rgb(0%,0%,0%);stroke-opacity:1;stroke-miterlimit:4;" d="M -0.001339 0 L -0.001339 3.5 " transform="matrix(1.25,0,0,1.25,207.16183,182.25)"/>
<path style=" stroke:none;fill-rule:nonzero;fill:rgb(0%,0%,0%);fill-opacity:1;" d="M 200.304688 195.585938 C 200.894531 195.710938 201.355469 195.972656 201.683594 196.375 C 202.015625 196.773438 202.183594 197.265625 202.183594 197.851562 C 202.183594 198.75 201.875 199.445312 201.253906 199.9375 C 200.636719 200.429688 199.757812 200.675781 198.617188 200.675781 C 198.238281 200.675781 197.84375 200.636719 197.4375 200.5625 C 197.035156 200.488281 196.617188 200.375 196.183594 200.222656 L 196.183594 199.035156 C 196.527344 199.234375 196.898438 199.382812 197.304688 199.484375 C 197.714844 199.585938 198.140625 199.636719 198.582031 199.636719 C 199.355469 199.636719 199.945312 199.484375 200.347656 199.179688 C 200.753906 198.875 200.957031 198.433594 200.957031 197.851562 C 200.957031 197.3125 200.769531 196.890625 200.390625 196.589844 C 200.015625 196.285156 199.492188 196.136719 198.820312 196.136719 L 197.757812 196.136719 L 197.757812 195.121094 L 198.871094 195.121094 C 199.476562 195.121094 199.941406 195 200.261719 194.757812 C 200.582031 194.515625 200.742188 194.167969 200.742188 193.710938 C 200.742188 193.242188 200.578125 192.886719 200.246094 192.636719 C 199.914062 192.382812 199.441406 192.257812 198.820312 192.257812 C 198.484375 192.257812 198.121094 192.296875 197.734375 192.371094 C 197.347656 192.441406 196.921875 192.554688 196.457031 192.710938 L 196.457031 191.613281 C 196.925781 191.480469 197.367188 191.382812 197.773438 191.320312 C 198.183594 191.253906 198.570312 191.222656 198.929688 191.222656 C 199.867188 191.222656 200.609375 191.433594 201.152344 191.859375 C 201.699219 192.285156 201.96875 192.859375 201.96875 193.582031 C 201.96875 194.085938 201.824219 194.515625 201.535156 194.863281 C 201.246094 195.210938 200.835938 195.449219 200.304688 195.585938 Z M 200.304688 195.585938 "/>
<path style=" stroke:none;fill-rule:nonzero;fill:rgb(0%,0%,0%);fill-opacity:1;" d="M 207.15625 192.199219 C 206.523438 192.199219 206.046875 192.511719 205.726562 193.136719 C 205.40625 193.757812 205.246094 194.699219 205.246094 195.953125 C 205.246094 197.199219 205.40625 198.136719 205.726562 198.761719 C 206.046875 199.386719 206.523438 199.699219 207.15625 199.699219 C 207.796875 199.699219 208.277344 199.386719 208.59375 198.761719 C 208.914062 198.136719 209.074219 197.199219 209.074219 195.953125 C 209.074219 194.699219 208.914062 193.757812 208.59375 193.136719 C 208.277344 192.511719 207.796875 192.199219 207.15625 192.199219 Z M 207.15625 191.222656 C 208.179688 191.222656 208.960938 191.625 209.5 192.433594 C 210.039062 193.242188 210.308594 194.414062 210.308594 195.953125 C 210.308594 197.484375 210.039062 198.65625 209.5 199.464844 C 208.960938 200.273438 208.179688 200.675781 207.15625 200.675781 C 206.136719 200.675781 205.355469 200.273438 204.816406 199.464844 C 204.277344 198.65625 204.007812 197.484375 204.007812 195.953125 C 204.007812 194.414062 204.277344 193.242188 204.816406 192.433594 C 205.355469 191.625 206.136719 191.222656 207.15625 191.222656 Z M 207.15625 191.222656 "/>
<path style=" stroke:none;fill-rule:nonzero;fill:rgb(0%,0%,0%);fill-opacity:1;" d="M 215.109375 192.199219 C 214.476562 192.199219 214 192.511719 213.679688 193.136719 C 213.359375 193.757812 213.199219 194.699219 213.199219 195.953125 C 213.199219 197.199219 213.359375 198.136719 213.679688 198.761719 C 214 199.386719 214.476562 199.699219 215.109375 199.699219 C 215.75 199.699219 216.230469 199.386719 216.546875 198.761719 C 216.867188 198.136719 217.027344 197.199219 217.027344 195.953125 C 217.027344 194.699219 216.867188 193.757812 216.546875 193.136719 C 216.230469 192.511719 215.75 192.199219 215.109375 192.199219 Z M 215.109375 191.222656 C 216.132812 191.222656 216.914062 191.625 217.453125 192.433594 C 217.992188 193.242188 218.261719 194.414062 218.261719 195.953125 C 218.261719 197.484375 217.992188 198.65625 217.453125 199.464844 C 216.914062 200.273438 216.132812 200.675781 215.109375 200.675781 C 214.089844 200.675781 213.308594 200.273438 212.769531 199.464844 C 212.230469 198.65625 211.960938 197.484375 211.960938 195.953125 C 211.960938 194.414062 212.230469 193.242188 212.769531 192.433594 C 213.308594 191.625 214.089844 191.222656 215.109375 191.222656 Z M 215.109375 191.222656 "/>
<g clip-path="url(#clip4)" clip-rule="nonzero">
<path style="fill:none;stroke-width:0.8;stroke-linecap:square;stroke-linejoin:round;stroke:rgb(69.019608%,69.019608%,69.019608%);stroke-opacity:1;stroke-miterlimit:4;" d="M 205.5875 145.8 L 205.5875 7.2 " transform="matrix(1.25,0,0,1.25,0,0)"/>
</g>
<path style="fill:none;stroke-width:0.8;stroke-linecap:butt;stroke-linejoin:round;stroke:rgb(0%,0%,0%);stroke-opacity:1;stroke-miterlimit:4;" d="M 0.000893 0 L 0.000893 3.5 " transform="matrix(1.25,0,0,1.25,256.983259,182.25)"/>
<path style=" stroke:none;fill-rule:nonzero;fill:rgb(0%,0%,0%);fill-opacity:1;" d="M 249.777344 192.460938 L 246.664062 197.324219 L 249.777344 197.324219 Z M 249.453125 191.386719 L 251.003906 191.386719 L 251.003906 197.324219 L 252.304688 197.324219 L 252.304688 198.351562 L 251.003906 198.351562 L 251.003906 200.5 L 249.777344 200.5 L 249.777344 198.351562 L 245.664062 198.351562 L 245.664062 197.160156 Z M 249.453125 191.386719 "/>
<path style=" stroke:none;fill-rule:nonzero;fill:rgb(0%,0%,0%);fill-opacity:1;" d="M 256.980469 192.199219 C 256.34375 192.199219 255.867188 192.511719 255.546875 193.136719 C 255.226562 193.757812 255.070312 194.699219 255.070312 195.953125 C 255.070312 197.199219 255.226562 198.136719 255.546875 198.761719 C 255.867188 199.386719 256.34375 199.699219 256.980469 199.699219 C 257.617188 199.699219 258.097656 199.386719 258.417969 198.761719 C 258.738281 198.136719 258.898438 197.199219 258.898438 195.953125 C 258.898438 194.699219 258.738281 193.757812 258.417969 193.136719 C 258.097656 192.511719 257.617188 192.199219 256.980469 192.199219 Z M 256.980469 191.222656 C 258 191.222656 258.78125 191.625 259.320312 192.433594 C 259.859375 193.242188 260.128906 194.414062 260.128906 195.953125 C 260.128906 197.484375 259.859375 198.65625 259.320312 199.464844 C 258.78125 200.273438 258 200.675781 256.980469 200.675781 C 255.957031 200.675781 255.179688 200.273438 254.640625 199.464844 C 254.101562 198.65625 253.832031 197.484375 253.832031 195.953125 C 253.832031 194.414062 254.101562 193.242188 254.640625 192.433594 C 255.179688 191.625 255.957031 191.222656 256.980469 191.222656 Z M 256.980469 191.222656 "/>
<path style=" stroke:none;fill-rule:nonzero;fill:rgb(0%,0%,0%);fill-opacity:1;" d="M 264.933594 192.199219 C 264.296875 192.199219 263.820312 192.511719 263.5 193.136719 C 263.179688 193.757812 263.023438 194.699219 263.023438 195.953125 C 263.023438 197.199219 263.179688 198.136719 263.5 198.761719 C 263.820312 199.386719 264.296875 199.699219 264.933594 199.699219 C 265.570312 199.699219 266.050781 199.386719 266.371094 198.761719 C 266.691406 198.136719 266.851562 197.199219 266.851562 195.953125 C 266.851562 194.699219 266.691406 193.757812 266.371094 193.136719 C 266.050781 192.511719 265.570312 192.199219 264.933594 192.199219 Z M 264.933594 191.222656 C 265.953125 191.222656 266.734375 191.625 267.273438 192.433594 C 267.8125 193.242188 268.082031 194.414062 268.082031 195.953125 C 268.082031 197.484375 267.8125 198.65625 267.273438 199.464844 C 266.734375 200.273438 265.953125 200.675781 264.933594 200.675781 C 263.910156 200.675781 263.132812 200.273438 262.59375 199.464844 C 262.054688 198.65625 261.785156 197.484375 261.785156 195.953125 C 261.785156 194.414062 262.054688 193.242188 262.59375 192.433594 C 263.132812 191.625 263.910156 191.222656 264.933594 191.222656 Z M 264.933594 191.222656 "/>
<g clip-path="url(#clip5)" clip-rule="nonzero">
<path style="fill:none;stroke-width:0.8;stroke-linecap:square;stroke-linejoin:round;stroke:rgb(69.019608%,69.019608%,69.019608%);stroke-opacity:1;stroke-miterlimit:4;" d="M 245.44375 145.8 L 245.44375 7.2 " transform="matrix(1.25,0,0,1.25,0,0)"/>
</g>
<path style="fill:none;stroke-width:0.8;stroke-linecap:butt;stroke-linejoin:round;stroke:rgb(0%,0%,0%);stroke-opacity:1;stroke-miterlimit:4;" d="M 0 0 L 0 3.5 " transform="matrix(1.25,0,0,1.25,306.804688,182.25)"/>
<path style=" stroke:none;fill-rule:nonzero;fill:rgb(0%,0%,0%);fill-opacity:1;" d="M 296.226562 191.386719 L 301.0625 191.386719 L 301.0625 192.425781 L 297.351562 192.425781 L 297.351562 194.65625 C 297.53125 194.59375 297.710938 194.550781 297.890625 194.519531 C 298.070312 194.488281 298.25 194.476562 298.429688 194.476562 C 299.445312 194.476562 300.25 194.753906 300.84375 195.3125 C 301.4375 195.867188 301.734375 196.621094 301.734375 197.574219 C 301.734375 198.554688 301.429688 199.316406 300.820312 199.863281 C 300.210938 200.40625 299.347656 200.675781 298.238281 200.675781 C 297.855469 200.675781 297.464844 200.644531 297.070312 200.578125 C 296.671875 200.511719 296.261719 200.414062 295.839844 200.285156 L 295.839844 199.046875 C 296.207031 199.246094 296.585938 199.394531 296.976562 199.492188 C 297.367188 199.589844 297.777344 199.636719 298.210938 199.636719 C 298.917969 199.636719 299.476562 199.453125 299.882812 199.082031 C 300.296875 198.710938 300.5 198.210938 300.5 197.574219 C 300.5 196.941406 300.296875 196.4375 299.882812 196.070312 C 299.476562 195.699219 298.917969 195.511719 298.210938 195.511719 C 297.882812 195.511719 297.554688 195.546875 297.226562 195.621094 C 296.898438 195.695312 296.566406 195.808594 296.226562 195.964844 Z M 296.226562 191.386719 "/>
<path style=" stroke:none;fill-rule:nonzero;fill:rgb(0%,0%,0%);fill-opacity:1;" d="M 306.800781 192.199219 C 306.167969 192.199219 305.6875 192.511719 305.367188 193.136719 C 305.050781 193.757812 304.890625 194.699219 304.890625 195.953125 C 304.890625 197.199219 305.050781 198.136719 305.367188 198.761719 C 305.6875 199.386719 306.167969 199.699219 306.800781 199.699219 C 307.441406 199.699219 307.917969 199.386719 308.238281 198.761719 C 308.558594 198.136719 308.71875 197.199219 308.71875 195.953125 C 308.71875 194.699219 308.558594 193.757812 308.238281 193.136719 C 307.917969 192.511719 307.441406 192.199219 306.800781 192.199219 Z M 306.800781 191.222656 C 307.824219 191.222656 308.601562 191.625 309.140625 192.433594 C 309.679688 193.242188 309.949219 194.414062 309.949219 195.953125 C 309.949219 197.484375 309.679688 198.65625 309.140625 199.464844 C 308.601562 200.273438 307.824219 200.675781 306.800781 200.675781 C 305.78125 200.675781 305 200.273438 304.460938 199.464844 C 303.921875 198.65625 303.652344 197.484375 303.652344 195.953125 C 303.652344 194.414062 303.921875 193.242188 304.460938 192.433594 C 305 191.625 305.78125 191.222656 306.800781 191.222656 Z M 306.800781 191.222656 "/>
<path style=" stroke:none;fill-rule:nonzero;fill:rgb(0%,0%,0%);fill-opacity:1;" d="M 314.753906 192.199219 C 314.121094 192.199219 313.640625 192.511719 313.320312 193.136719 C 313.003906 193.757812 312.84375 194.699219 312.84375 195.953125 C 312.84375 197.199219 313.003906 198.136719 313.320312 198.761719 C 313.640625 199.386719 314.121094 199.699219 314.753906 199.699219 C 315.394531 199.699219 315.871094 199.386719 316.191406 198.761719 C 316.511719 198.136719 316.671875 197.199219 316.671875 195.953125 C 316.671875 194.699219 316.511719 193.757812 316.191406 193.136719 C 315.871094 192.511719 315.394531 192.199219 314.753906 192.199219 Z M 314.753906 191.222656 C 315.777344 191.222656 316.554688 191.625 317.09375 192.433594 C 317.632812 193.242188 317.902344 194.414062 317.902344 195.953125 C 317.902344 197.484375 317.632812 198.65625 317.09375 199.464844 C 316.554688 200.273438 315.777344 200.675781 314.753906 200.675781 C 313.734375 200.675781 312.953125 200.273438 312.414062 199.464844 C 311.875 198.65625 311.605469 197.484375 311.605469 195.953125 C 311.605469 194.414062 311.875 193.242188 312.414062 192.433594 C 312.953125 191.625 313.734375 191.222656 314.753906 191.222656 Z M 314.753906 191.222656 "/>
<path style=" stroke:none;fill-rule:nonzero;fill:rgb(0%,0%,0%);fill-opacity:1;" d="M 172.734375 213.898438 L 172.734375 214.445312 L 167.570312 214.445312 C 167.617188 215.21875 167.851562 215.808594 168.265625 216.214844 C 168.683594 216.617188 169.265625 216.820312 170.007812 216.820312 C 170.441406 216.820312 170.859375 216.769531 171.265625 216.664062 C 171.667969 216.558594 172.070312 216.398438 172.46875 216.1875 L 172.46875 217.25 C 172.066406 217.417969 171.652344 217.550781 171.230469 217.640625 C 170.808594 217.730469 170.378906 217.773438 169.945312 217.773438 C 168.851562 217.773438 167.988281 217.457031 167.351562 216.824219 C 166.714844 216.1875 166.398438 215.328125 166.398438 214.246094 C 166.398438 213.125 166.699219 212.238281 167.304688 211.582031 C 167.90625 210.925781 168.722656 210.597656 169.75 210.597656 C 170.667969 210.597656 171.394531 210.890625 171.929688 211.484375 C 172.464844 212.074219 172.734375 212.878906 172.734375 213.898438 Z M 171.609375 213.566406 C 171.601562 212.953125 171.429688 212.464844 171.09375 212.097656 C 170.757812 211.730469 170.3125 211.546875 169.757812 211.546875 C 169.132812 211.546875 168.632812 211.722656 168.257812 212.078125 C 167.878906 212.433594 167.664062 212.929688 167.605469 213.574219 Z M 171.609375 213.566406 "/>
<path style=" stroke:none;fill-rule:nonzero;fill:rgb(0%,0%,0%);fill-opacity:1;" d="M 175.660156 216.570312 L 175.660156 220.195312 L 174.53125 220.195312 L 174.53125 210.761719 L 175.660156 210.761719 L 175.660156 211.796875 C 175.898438 211.390625 176.195312 211.089844 176.554688 210.894531 C 176.917969 210.695312 177.347656 210.597656 177.847656 210.597656 C 178.675781 210.597656 179.351562 210.925781 179.871094 211.585938 C 180.390625 212.242188 180.648438 213.109375 180.648438 214.183594 C 180.648438 215.257812 180.390625 216.125 179.871094 216.785156 C 179.351562 217.445312 178.675781 217.773438 177.847656 217.773438 C 177.347656 217.773438 176.917969 217.675781 176.554688 217.476562 C 176.195312 217.277344 175.898438 216.976562 175.660156 216.570312 Z M 179.484375 214.183594 C 179.484375 213.359375 179.3125 212.710938 178.972656 212.242188 C 178.632812 211.769531 178.167969 211.535156 177.574219 211.535156 C 176.976562 211.535156 176.511719 211.769531 176.171875 212.242188 C 175.832031 212.710938 175.660156 213.359375 175.660156 214.183594 C 175.660156 215.007812 175.832031 215.65625 176.171875 216.128906 C 176.511719 216.597656 176.976562 216.832031 177.574219 216.832031 C 178.167969 216.832031 178.632812 216.597656 178.972656 216.128906 C 179.3125 215.65625 179.484375 215.007812 179.484375 214.183594 Z M 179.484375 214.183594 "/>
<path style=" stroke:none;fill-rule:nonzero;fill:rgb(0%,0%,0%);fill-opacity:1;" d="M 185.15625 211.546875 C 184.554688 211.546875 184.082031 211.78125 183.730469 212.253906 C 183.378906 212.722656 183.203125 213.367188 183.203125 214.183594 C 183.203125 215 183.378906 215.644531 183.726562 216.117188 C 184.074219 216.585938 184.554688 216.820312 185.15625 216.820312 C 185.757812 216.820312 186.230469 216.585938 186.578125 216.113281 C 186.929688 215.640625 187.105469 214.996094 187.105469 214.183594 C 187.105469 213.375 186.929688 212.730469 186.578125 212.257812 C 186.230469 211.785156 185.757812 211.546875 185.15625 211.546875 Z M 185.15625 210.597656 C 186.132812 210.597656 186.902344 210.914062 187.460938 211.550781 C 188.015625 212.183594 188.296875 213.0625 188.296875 214.183594 C 188.296875 215.300781 188.015625 216.179688 187.460938 216.820312 C 186.902344 217.457031 186.132812 217.773438 185.15625 217.773438 C 184.179688 217.773438 183.410156 217.457031 182.851562 216.820312 C 182.296875 216.179688 182.023438 215.300781 182.023438 214.183594 C 182.023438 213.0625 182.296875 212.183594 182.851562 211.550781 C 183.410156 210.914062 184.179688 210.597656 185.15625 210.597656 Z M 185.15625 210.597656 "/>
<path style=" stroke:none;fill-rule:nonzero;fill:rgb(0%,0%,0%);fill-opacity:1;" d="M 195.078125 211.023438 L 195.078125 212.074219 C 194.757812 211.898438 194.441406 211.765625 194.121094 211.679688 C 193.804688 211.589844 193.480469 211.546875 193.15625 211.546875 C 192.425781 211.546875 191.859375 211.777344 191.457031 212.242188 C 191.054688 212.703125 190.851562 213.347656 190.851562 214.183594 C 190.851562 215.019531 191.054688 215.667969 191.457031 216.128906 C 191.859375 216.589844 192.425781 216.820312 193.15625 216.820312 C 193.480469 216.820312 193.804688 216.777344 194.121094 216.691406 C 194.441406 216.601562 194.757812 216.472656 195.078125 216.296875 L 195.078125 217.335938 C 194.761719 217.480469 194.4375 217.589844 194.101562 217.664062 C 193.769531 217.738281 193.410156 217.773438 193.03125 217.773438 C 192.003906 217.773438 191.183594 217.449219 190.578125 216.804688 C 189.972656 216.15625 189.667969 215.28125 189.667969 214.183594 C 189.667969 213.070312 189.976562 212.191406 190.585938 211.554688 C 191.199219 210.914062 192.039062 210.597656 193.105469 210.597656 C 193.453125 210.597656 193.789062 210.632812 194.117188 210.703125 C 194.449219 210.773438 194.765625 210.878906 195.078125 211.023438 Z M 195.078125 211.023438 "/>
<path style=" stroke:none;fill-rule:nonzero;fill:rgb(0%,0%,0%);fill-opacity:1;" d="M 202.714844 213.46875 L 202.714844 217.597656 L 201.589844 217.597656 L 201.589844 213.507812 C 201.589844 212.859375 201.464844 212.375 201.210938 212.054688 C 200.960938 211.734375 200.582031 211.574219 200.078125 211.574219 C 199.46875 211.574219 198.992188 211.765625 198.640625 212.152344 C 198.292969 212.539062 198.117188 213.066406 198.117188 213.734375 L 198.117188 217.597656 L 196.988281 217.597656 L 196.988281 208.097656 L 198.117188 208.097656 L 198.117188 211.824219 C 198.386719 211.410156 198.703125 211.105469 199.066406 210.902344 C 199.429688 210.699219 199.851562 210.597656 200.328125 210.597656 C 201.113281 210.597656 201.707031 210.839844 202.109375 211.324219 C 202.511719 211.808594 202.714844 212.523438 202.714844 213.46875 Z M 202.714844 213.46875 "/>
<g clip-path="url(#clip6)" clip-rule="nonzero">
<path style="fill:none;stroke-width:0.8;stroke-linecap:square;stroke-linejoin:round;stroke:rgb(69.019608%,69.019608%,69.019608%);stroke-opacity:1;stroke-miterlimit:4;" d="M 50.14375 124.759375 L 245.44375 124.759375 " transform="matrix(1.25,0,0,1.25,0,0)"/>
</g>
<path style="fill:none;stroke-width:0.8;stroke-linecap:butt;stroke-linejoin:round;stroke:rgb(0%,0%,0%);stroke-opacity:1;stroke-miterlimit:4;" d="M 0 0.000781 L -3.5 0.000781 " transform="matrix(1.25,0,0,1.25,62.679688,155.948242)"/>
<path style=" stroke:none;fill-rule:nonzero;fill:rgb(0%,0%,0%);fill-opacity:1;" d="M 36.449219 159.660156 L 40.75 159.660156 L 40.75 160.695312 L 34.96875 160.695312 L 34.96875 159.660156 C 35.433594 159.175781 36.070312 158.527344 36.878906 157.710938 C 37.6875 156.894531 38.195312 156.367188 38.402344 156.128906 C 38.796875 155.6875 39.070312 155.3125 39.226562 155.003906 C 39.386719 154.699219 39.464844 154.394531 39.464844 154.097656 C 39.464844 153.613281 39.296875 153.21875 38.953125 152.914062 C 38.617188 152.609375 38.171875 152.457031 37.625 152.457031 C 37.242188 152.457031 36.832031 152.523438 36.402344 152.65625 C 35.972656 152.792969 35.515625 152.996094 35.027344 153.269531 L 35.027344 152.023438 C 35.523438 151.824219 35.988281 151.671875 36.417969 151.570312 C 36.851562 151.46875 37.246094 151.417969 37.601562 151.417969 C 38.546875 151.417969 39.300781 151.65625 39.859375 152.128906 C 40.421875 152.601562 40.703125 153.230469 40.703125 154.019531 C 40.703125 154.394531 40.632812 154.75 40.492188 155.085938 C 40.351562 155.421875 40.097656 155.816406 39.726562 156.269531 C 39.625 156.390625 39.300781 156.730469 38.757812 157.292969 C 38.210938 157.859375 37.441406 158.648438 36.449219 159.660156 Z M 36.449219 159.660156 "/>
<path style=" stroke:none;fill-rule:nonzero;fill:rgb(0%,0%,0%);fill-opacity:1;" d="M 43.339844 159.144531 L 44.628906 159.144531 L 44.628906 160.695312 L 43.339844 160.695312 Z M 43.339844 159.144531 "/>
<path style=" stroke:none;fill-rule:nonzero;fill:rgb(0%,0%,0%);fill-opacity:1;" d="M 47.328125 151.582031 L 52.167969 151.582031 L 52.167969 152.621094 L 48.457031 152.621094 L 48.457031 154.855469 C 48.632812 154.792969 48.8125 154.75 48.992188 154.71875 C 49.171875 154.6875 49.351562 154.671875 49.53125 154.671875 C 50.546875 154.671875 51.351562 154.953125 51.945312 155.507812 C 52.539062 156.066406 52.839844 156.820312 52.839844 157.773438 C 52.839844 158.753906 52.53125 159.515625 51.921875 160.058594 C 51.3125 160.601562 50.449219 160.875 49.339844 160.875 C 48.957031 160.875 48.566406 160.84375 48.171875 160.777344 C 47.773438 160.710938 47.363281 160.613281 46.941406 160.484375 L 46.941406 159.242188 C 47.308594 159.441406 47.6875 159.589844 48.078125 159.6875 C 48.46875 159.785156 48.878906 159.835938 49.316406 159.835938 C 50.019531 159.835938 50.578125 159.652344 50.988281 159.28125 C 51.398438 158.910156 51.605469 158.410156 51.605469 157.773438 C 51.605469 157.140625 51.398438 156.636719 50.988281 156.265625 C 50.578125 155.894531 50.019531 155.710938 49.316406 155.710938 C 48.984375 155.710938 48.65625 155.746094 48.328125 155.820312 C 48 155.894531 47.667969 156.007812 47.328125 156.160156 Z M 47.328125 151.582031 "/>
<g clip-path="url(#clip7)" clip-rule="nonzero">
<path style="fill:none;stroke-width:0.8;stroke-linecap:square;stroke-linejoin:round;stroke:rgb(69.019608%,69.019608%,69.019608%);stroke-opacity:1;stroke-miterlimit:4;" d="M 50.14375 99.778125 L 245.44375 99.778125 " transform="matrix(1.25,0,0,1.25,0,0)"/>
</g>
<path style="fill:none;stroke-width:0.8;stroke-linecap:butt;stroke-linejoin:round;stroke:rgb(0%,0%,0%);stroke-opacity:1;stroke-miterlimit:4;" d="M 0 -0.001455 L -3.5 -0.001455 " transform="matrix(1.25,0,0,1.25,62.679688,124.724475)"/>
<path style=" stroke:none;fill-rule:nonzero;fill:rgb(0%,0%,0%);fill-opacity:1;" d="M 35.398438 120.359375 L 40.242188 120.359375 L 40.242188 121.398438 L 36.53125 121.398438 L 36.53125 123.632812 C 36.707031 123.570312 36.886719 123.523438 37.0625 123.496094 C 37.242188 123.464844 37.421875 123.449219 37.601562 123.449219 C 38.621094 123.449219 39.425781 123.730469 40.019531 124.285156 C 40.613281 124.84375 40.914062 125.597656 40.914062 126.550781 C 40.914062 127.53125 40.605469 128.292969 39.996094 128.835938 C 39.386719 129.378906 38.523438 129.652344 37.414062 129.652344 C 37.03125 129.652344 36.640625 129.617188 36.242188 129.554688 C 35.847656 129.488281 35.4375 129.390625 35.015625 129.261719 L 35.015625 128.019531 C 35.382812 128.21875 35.757812 128.367188 36.148438 128.464844 C 36.539062 128.5625 36.953125 128.613281 37.390625 128.613281 C 38.09375 128.613281 38.648438 128.425781 39.0625 128.058594 C 39.472656 127.6875 39.679688 127.183594 39.679688 126.550781 C 39.679688 125.914062 39.472656 125.414062 39.0625 125.042969 C 38.648438 124.671875 38.09375 124.488281 37.390625 124.488281 C 37.058594 124.488281 36.730469 124.523438 36.402344 124.597656 C 36.074219 124.667969 35.742188 124.785156 35.398438 124.9375 Z M 35.398438 120.359375 "/>
<path style=" stroke:none;fill-rule:nonzero;fill:rgb(0%,0%,0%);fill-opacity:1;" d="M 43.339844 127.921875 L 44.628906 127.921875 L 44.628906 129.472656 L 43.339844 129.472656 Z M 43.339844 127.921875 "/>
<path style=" stroke:none;fill-rule:nonzero;fill:rgb(0%,0%,0%);fill-opacity:1;" d="M 49.949219 121.171875 C 49.316406 121.171875 48.839844 121.484375 48.519531 122.109375 C 48.199219 122.734375 48.039062 123.671875 48.039062 124.925781 C 48.039062 126.175781 48.199219 127.113281 48.519531 127.738281 C 48.839844 128.363281 49.316406 128.675781 49.949219 128.675781 C 50.589844 128.675781 51.066406 128.363281 51.386719 127.738281 C 51.707031 127.113281 51.867188 126.175781 51.867188 124.925781 C 51.867188 123.671875 51.707031 122.734375 51.386719 122.109375 C 51.066406 121.484375 50.589844 121.171875 49.949219 121.171875 Z M 49.949219 120.195312 C 50.972656 120.195312 51.753906 120.601562 52.292969 121.410156 C 52.832031 122.214844 53.101562 123.390625 53.101562 124.925781 C 53.101562 126.460938 52.832031 127.632812 52.292969 128.441406 C 51.753906 129.246094 50.972656 129.652344 49.949219 129.652344 C 48.929688 129.652344 48.148438 129.246094 47.609375 128.441406 C 47.070312 127.632812 46.800781 126.460938 46.800781 124.925781 C 46.800781 123.390625 47.070312 122.214844 47.609375 121.410156 C 48.148438 120.601562 48.929688 120.195312 49.949219 120.195312 Z M 49.949219 120.195312 "/>
<g clip-path="url(#clip8)" clip-rule="nonzero">
<path style="fill:none;stroke-width:0.8;stroke-linecap:square;stroke-linejoin:round;stroke:rgb(69.019608%,69.019608%,69.019608%);stroke-opacity:1;stroke-miterlimit:4;" d="M 50.14375 74.8 L 245.44375 74.8 " transform="matrix(1.25,0,0,1.25,0,0)"/>
</g>
<path style="fill:none;stroke-width:0.8;stroke-linecap:butt;stroke-linejoin:round;stroke:rgb(0%,0%,0%);stroke-opacity:1;stroke-miterlimit:4;" d="M 0 -0.000566 L -3.5 -0.000566 " transform="matrix(1.25,0,0,1.25,62.679688,93.500708)"/>
<path style=" stroke:none;fill-rule:nonzero;fill:rgb(0%,0%,0%);fill-opacity:1;" d="M 35.078125 89.136719 L 40.9375 89.136719 L 40.9375 89.660156 L 37.625 98.25 L 36.339844 98.25 L 39.453125 90.175781 L 35.078125 90.175781 Z M 35.078125 89.136719 "/>
<path style=" stroke:none;fill-rule:nonzero;fill:rgb(0%,0%,0%);fill-opacity:1;" d="M 43.339844 96.699219 L 44.628906 96.699219 L 44.628906 98.25 L 43.339844 98.25 Z M 43.339844 96.699219 "/>
<path style=" stroke:none;fill-rule:nonzero;fill:rgb(0%,0%,0%);fill-opacity:1;" d="M 47.328125 89.136719 L 52.167969 89.136719 L 52.167969 90.175781 L 48.457031 90.175781 L 48.457031 92.40625 C 48.632812 92.347656 48.8125 92.300781 48.992188 92.269531 C 49.171875 92.242188 49.351562 92.226562 49.53125 92.226562 C 50.546875 92.226562 51.351562 92.503906 51.945312 93.0625 C 52.539062 93.621094 52.839844 94.375 52.839844 95.324219 C 52.839844 96.304688 52.53125 97.070312 51.921875 97.613281 C 51.3125 98.15625 50.449219 98.425781 49.339844 98.425781 C 48.957031 98.425781 48.566406 98.394531 48.171875 98.328125 C 47.773438 98.265625 47.363281 98.167969 46.941406 98.035156 L 46.941406 96.796875 C 47.308594 96.996094 47.6875 97.144531 48.078125 97.242188 C 48.46875 97.339844 48.878906 97.386719 49.316406 97.386719 C 50.019531 97.386719 50.578125 97.203125 50.988281 96.832031 C 51.398438 96.464844 51.605469 95.960938 51.605469 95.324219 C 51.605469 94.691406 51.398438 94.191406 50.988281 93.820312 C 50.578125 93.449219 50.019531 93.261719 49.316406 93.261719 C 48.984375 93.261719 48.65625 93.300781 48.328125 93.371094 C 48 93.445312 47.667969 93.558594 47.328125 93.714844 Z M 47.328125 89.136719 "/>
<g clip-path="url(#clip9)" clip-rule="nonzero">
<path style="fill:none;stroke-width:0.8;stroke-linecap:square;stroke-linejoin:round;stroke:rgb(69.019608%,69.019608%,69.019608%);stroke-opacity:1;stroke-miterlimit:4;" d="M 50.14375 49.821875 L 245.44375 49.821875 " transform="matrix(1.25,0,0,1.25,0,0)"/>
</g>
<path style="fill:none;stroke-width:0.8;stroke-linecap:butt;stroke-linejoin:round;stroke:rgb(0%,0%,0%);stroke-opacity:1;stroke-miterlimit:4;" d="M 0 0.000323 L -3.5 0.000323 " transform="matrix(1.25,0,0,1.25,62.679688,62.27694)"/>
<path style=" stroke:none;fill-rule:nonzero;fill:rgb(0%,0%,0%);fill-opacity:1;" d="M 27.648438 65.988281 L 29.664062 65.988281 L 29.664062 59.035156 L 27.46875 59.476562 L 27.46875 58.351562 L 29.648438 57.914062 L 30.882812 57.914062 L 30.882812 65.988281 L 32.898438 65.988281 L 32.898438 67.027344 L 27.648438 67.027344 Z M 27.648438 65.988281 "/>
<path style=" stroke:none;fill-rule:nonzero;fill:rgb(0%,0%,0%);fill-opacity:1;" d="M 38.023438 58.726562 C 37.390625 58.726562 36.910156 59.039062 36.589844 59.664062 C 36.273438 60.285156 36.113281 61.226562 36.113281 62.480469 C 36.113281 63.726562 36.273438 64.664062 36.589844 65.289062 C 36.910156 65.914062 37.390625 66.226562 38.023438 66.226562 C 38.664062 66.226562 39.140625 65.914062 39.460938 65.289062 C 39.78125 64.664062 39.941406 63.726562 39.941406 62.480469 C 39.941406 61.226562 39.78125 60.285156 39.460938 59.664062 C 39.140625 59.039062 38.664062 58.726562 38.023438 58.726562 Z M 38.023438 57.75 C 39.046875 57.75 39.824219 58.152344 40.363281 58.960938 C 40.902344 59.769531 41.171875 60.941406 41.171875 62.480469 C 41.171875 64.011719 40.902344 65.183594 40.363281 65.992188 C 39.824219 66.800781 39.046875 67.203125 38.023438 67.203125 C 37.003906 67.203125 36.222656 66.800781 35.683594 65.992188 C 35.144531 65.183594 34.875 64.011719 34.875 62.480469 C 34.875 60.941406 35.144531 59.769531 35.683594 58.960938 C 36.222656 58.152344 37.003906 57.75 38.023438 57.75 Z M 38.023438 57.75 "/>
<path style=" stroke:none;fill-rule:nonzero;fill:rgb(0%,0%,0%);fill-opacity:1;" d="M 43.339844 65.476562 L 44.628906 65.476562 L 44.628906 67.027344 L 43.339844 67.027344 Z M 43.339844 65.476562 "/>
<path style=" stroke:none;fill-rule:nonzero;fill:rgb(0%,0%,0%);fill-opacity:1;" d="M 49.949219 58.726562 C 49.316406 58.726562 48.839844 59.039062 48.519531 59.664062 C 48.199219 60.285156 48.039062 61.226562 48.039062 62.480469 C 48.039062 63.726562 48.199219 64.664062 48.519531 65.289062 C 48.839844 65.914062 49.316406 66.226562 49.949219 66.226562 C 50.589844 66.226562 51.066406 65.914062 51.386719 65.289062 C 51.707031 64.664062 51.867188 63.726562 51.867188 62.480469 C 51.867188 61.226562 51.707031 60.285156 51.386719 59.664062 C 51.066406 59.039062 50.589844 58.726562 49.949219 58.726562 Z M 49.949219 57.75 C 50.972656 57.75 51.753906 58.152344 52.292969 58.960938 C 52.832031 59.769531 53.101562 60.941406 53.101562 62.480469 C 53.101562 64.011719 52.832031 65.183594 52.292969 65.992188 C 51.753906 66.800781 50.972656 67.203125 49.949219 67.203125 C 48.929688 67.203125 48.148438 66.800781 47.609375 65.992188 C 47.070312 65.183594 46.800781 64.011719 46.800781 62.480469 C 46.800781 60.941406 47.070312 59.769531 47.609375 58.960938 C 48.148438 58.152344 48.929688 57.75 49.949219 57.75 Z M 49.949219 57.75 "/>
<g clip-path="url(#clip10)" clip-rule="nonzero">
<path style="fill:none;stroke-width:0.8;stroke-linecap:square;stroke-linejoin:round;stroke:rgb(69.019608%,69.019608%,69.019608%);stroke-opacity:1;stroke-miterlimit:4;" d="M 50.14375 24.84375 L 245.44375 24.84375 " transform="matrix(1.25,0,0,1.25,0,0)"/>
</g>
<path style="fill:none;stroke-width:0.8;stroke-linecap:butt;stroke-linejoin:round;stroke:rgb(0%,0%,0%);stroke-opacity:1;stroke-miterlimit:4;" d="M 0 0.001212 L -3.5 0.001212 " transform="matrix(1.25,0,0,1.25,62.679688,31.053173)"/>
<path style=" stroke:none;fill-rule:nonzero;fill:rgb(0%,0%,0%);fill-opacity:1;" d="M 27.648438 34.765625 L 29.664062 34.765625 L 29.664062 27.8125 L 27.46875 28.25 L 27.46875 27.128906 L 29.648438 26.6875 L 30.882812 26.6875 L 30.882812 34.765625 L 32.898438 34.765625 L 32.898438 35.800781 L 27.648438 35.800781 Z M 27.648438 34.765625 "/>
<path style=" stroke:none;fill-rule:nonzero;fill:rgb(0%,0%,0%);fill-opacity:1;" d="M 36.449219 34.765625 L 40.75 34.765625 L 40.75 35.800781 L 34.964844 35.800781 L 34.964844 34.765625 C 35.433594 34.28125 36.070312 33.632812 36.878906 32.816406 C 37.6875 32 38.195312 31.472656 38.402344 31.234375 C 38.796875 30.792969 39.070312 30.417969 39.226562 30.109375 C 39.386719 29.804688 39.464844 29.5 39.464844 29.203125 C 39.464844 28.71875 39.292969 28.324219 38.953125 28.019531 C 38.613281 27.714844 38.171875 27.5625 37.625 27.5625 C 37.238281 27.5625 36.832031 27.628906 36.402344 27.761719 C 35.972656 27.898438 35.515625 28.101562 35.027344 28.375 L 35.027344 27.128906 C 35.523438 26.929688 35.988281 26.777344 36.417969 26.675781 C 36.851562 26.574219 37.246094 26.523438 37.601562 26.523438 C 38.546875 26.523438 39.300781 26.761719 39.859375 27.234375 C 40.421875 27.707031 40.703125 28.335938 40.703125 29.125 C 40.703125 29.5 40.632812 29.855469 40.492188 30.191406 C 40.351562 30.527344 40.097656 30.921875 39.726562 31.375 C 39.625 31.496094 39.300781 31.835938 38.753906 32.398438 C 38.210938 32.964844 37.441406 33.753906 36.449219 34.765625 Z M 36.449219 34.765625 "/>
<path style=" stroke:none;fill-rule:nonzero;fill:rgb(0%,0%,0%);fill-opacity:1;" d="M 43.339844 34.25 L 44.628906 34.25 L 44.628906 35.800781 L 43.339844 35.800781 Z M 43.339844 34.25 "/>
<path style=" stroke:none;fill-rule:nonzero;fill:rgb(0%,0%,0%);fill-opacity:1;" d="M 47.328125 26.6875 L 52.167969 26.6875 L 52.167969 27.726562 L 48.457031 27.726562 L 48.457031 29.960938 C 48.632812 29.898438 48.8125 29.855469 48.992188 29.824219 C 49.171875 29.792969 49.351562 29.777344 49.53125 29.777344 C 50.546875 29.777344 51.351562 30.058594 51.945312 30.613281 C 52.539062 31.171875 52.839844 31.925781 52.839844 32.878906 C 52.839844 33.859375 52.53125 34.621094 51.921875 35.164062 C 51.3125 35.707031 50.449219 35.980469 49.339844 35.980469 C 48.957031 35.980469 48.566406 35.949219 48.171875 35.882812 C 47.773438 35.816406 47.363281 35.71875 46.941406 35.589844 L 46.941406 34.347656 C 47.308594 34.546875 47.6875 34.695312 48.078125 34.792969 C 48.46875 34.890625 48.878906 34.941406 49.316406 34.941406 C 50.019531 34.941406 50.578125 34.757812 50.988281 34.386719 C 51.398438 34.015625 51.605469 33.515625 51.605469 32.878906 C 51.605469 32.246094 51.398438 31.742188 50.988281 31.371094 C 50.578125 31 50.019531 30.816406 49.316406 30.816406 C 48.984375 30.816406 48.65625 30.851562 48.328125 30.925781 C 48 31 47.667969 31.113281 47.328125 31.265625 Z M 47.328125 26.6875 "/>
<path style=" stroke:none;fill-rule:nonzero;fill:rgb(0%,0%,0%);fill-opacity:1;" d="M 17.472656 124.769531 L 21.097656 124.769531 L 21.097656 125.898438 L 11.660156 125.898438 L 11.660156 124.769531 L 12.699219 124.769531 C 12.292969 124.53125 11.992188 124.234375 11.792969 123.875 C 11.597656 123.515625 11.496094 123.085938 11.496094 122.585938 C 11.496094 121.753906 11.828125 121.078125 12.484375 120.5625 C 13.144531 120.042969 14.011719 119.78125 15.085938 119.78125 C 16.160156 119.78125 17.027344 120.042969 17.6875 120.5625 C 18.347656 121.078125 18.675781 121.753906 18.675781 122.585938 C 18.675781 123.085938 18.578125 123.515625 18.378906 123.875 C 18.179688 124.234375 17.878906 124.53125 17.472656 124.769531 Z M 15.085938 120.949219 C 14.261719 120.949219 13.613281 121.117188 13.140625 121.457031 C 12.671875 121.796875 12.4375 122.265625 12.4375 122.859375 C 12.4375 123.453125 12.671875 123.921875 13.140625 124.261719 C 13.613281 124.601562 14.261719 124.769531 15.085938 124.769531 C 15.910156 124.769531 16.558594 124.601562 17.027344 124.261719 C 17.5 123.921875 17.734375 123.453125 17.734375 122.859375 C 17.734375 122.265625 17.5 121.796875 17.027344 121.457031 C 16.558594 121.117188 15.910156 120.949219 15.085938 120.949219 Z M 15.085938 120.949219 "/>
<path style=" stroke:none;fill-rule:nonzero;fill:rgb(0%,0%,0%);fill-opacity:1;" d="M 14.796875 112.074219 L 15.347656 112.074219 L 15.347656 117.238281 C 16.121094 117.1875 16.710938 116.953125 17.113281 116.539062 C 17.519531 116.121094 17.722656 115.539062 17.722656 114.796875 C 17.722656 114.363281 17.667969 113.945312 17.5625 113.542969 C 17.457031 113.136719 17.300781 112.734375 17.085938 112.335938 L 18.148438 112.335938 C 18.320312 112.738281 18.449219 113.152344 18.539062 113.574219 C 18.628906 114 18.675781 114.425781 18.675781 114.863281 C 18.675781 115.953125 18.359375 116.816406 17.722656 117.453125 C 17.089844 118.089844 16.230469 118.410156 15.144531 118.410156 C 14.027344 118.410156 13.140625 118.105469 12.484375 117.503906 C 11.828125 116.898438 11.496094 116.082031 11.496094 115.058594 C 11.496094 114.136719 11.792969 113.410156 12.386719 112.875 C 12.976562 112.339844 13.78125 112.074219 14.796875 112.074219 Z M 14.46875 113.195312 C 13.855469 113.203125 13.367188 113.375 13 113.710938 C 12.632812 114.046875 12.449219 114.492188 12.449219 115.046875 C 12.449219 115.671875 12.625 116.171875 12.980469 116.550781 C 13.335938 116.925781 13.832031 117.144531 14.476562 117.199219 Z M 14.46875 113.195312 "/>
<path style=" stroke:none;fill-rule:nonzero;fill:rgb(0%,0%,0%);fill-opacity:1;" d="M 12.710938 106.269531 C 12.636719 106.394531 12.585938 106.535156 12.550781 106.683594 C 12.515625 106.832031 12.496094 106.992188 12.496094 107.171875 C 12.496094 107.808594 12.703125 108.296875 13.117188 108.636719 C 13.53125 108.976562 14.121094 109.144531 14.894531 109.144531 L 18.496094 109.144531 L 18.496094 110.273438 L 11.660156 110.273438 L 11.660156 109.144531 L 12.722656 109.144531 C 12.308594 108.90625 12 108.601562 11.800781 108.222656 C 11.597656 107.84375 11.496094 107.382812 11.496094 106.84375 C 11.496094 106.765625 11.503906 106.679688 11.511719 106.585938 C 11.523438 106.492188 11.539062 106.390625 11.558594 106.277344 Z M 12.710938 106.269531 "/>
<path style=" stroke:none;fill-rule:nonzero;fill:rgb(0%,0%,0%);fill-opacity:1;" d="M 17.472656 104.003906 L 21.097656 104.003906 L 21.097656 105.132812 L 11.660156 105.132812 L 11.660156 104.003906 L 12.699219 104.003906 C 12.292969 103.769531 11.992188 103.46875 11.792969 103.109375 C 11.597656 102.75 11.496094 102.320312 11.496094 101.820312 C 11.496094 100.988281 11.828125 100.316406 12.484375 99.796875 C 13.144531 99.277344 14.011719 99.015625 15.085938 99.015625 C 16.160156 99.015625 17.027344 99.277344 17.6875 99.796875 C 18.347656 100.316406 18.675781 100.988281 18.675781 101.820312 C 18.675781 102.320312 18.578125 102.75 18.378906 103.109375 C 18.179688 103.46875 17.878906 103.769531 17.472656 104.003906 Z M 15.085938 100.183594 C 14.261719 100.183594 13.613281 100.351562 13.140625 100.691406 C 12.671875 101.03125 12.4375 101.5 12.4375 102.09375 C 12.4375 102.6875 12.671875 103.15625 13.140625 103.496094 C 13.613281 103.835938 14.261719 104.003906 15.085938 104.003906 C 15.910156 104.003906 16.558594 103.835938 17.027344 103.496094 C 17.5 103.15625 17.734375 102.6875 17.734375 102.09375 C 17.734375 101.5 17.5 101.03125 17.027344 100.691406 C 16.558594 100.351562 15.910156 100.183594 15.085938 100.183594 Z M 15.085938 100.183594 "/>
<path style=" stroke:none;fill-rule:nonzero;fill:rgb(0%,0%,0%);fill-opacity:1;" d="M 9 97.15625 L 9 96.035156 L 18.496094 96.035156 L 18.496094 97.15625 Z M 9 97.15625 "/>
<path style=" stroke:none;fill-rule:nonzero;fill:rgb(0%,0%,0%);fill-opacity:1;" d="M 14.796875 87.835938 L 15.347656 87.835938 L 15.347656 93 C 16.121094 92.949219 16.710938 92.71875 17.113281 92.300781 C 17.519531 91.882812 17.722656 91.304688 17.722656 90.558594 C 17.722656 90.128906 17.667969 89.710938 17.5625 89.304688 C 17.457031 88.898438 17.300781 88.496094 17.085938 88.097656 L 18.148438 88.097656 C 18.320312 88.5 18.449219 88.914062 18.539062 89.339844 C 18.628906 89.761719 18.675781 90.191406 18.675781 90.625 C 18.675781 91.714844 18.359375 92.582031 17.722656 93.21875 C 17.089844 93.855469 16.230469 94.171875 15.144531 94.171875 C 14.027344 94.171875 13.140625 93.871094 12.484375 93.265625 C 11.828125 92.660156 11.496094 91.847656 11.496094 90.820312 C 11.496094 89.902344 11.792969 89.175781 12.386719 88.640625 C 12.976562 88.105469 13.78125 87.835938 14.796875 87.835938 Z M 14.46875 88.960938 C 13.855469 88.96875 13.367188 89.140625 13 89.476562 C 12.632812 89.8125 12.449219 90.253906 12.449219 90.808594 C 12.449219 91.433594 12.625 91.9375 12.980469 92.3125 C 13.335938 92.6875 13.832031 92.90625 14.476562 92.964844 Z M 14.46875 88.960938 "/>
<path style=" stroke:none;fill-rule:nonzero;fill:rgb(0%,0%,0%);fill-opacity:1;" d="M 11.660156 80.527344 L 14.988281 83 L 18.496094 80.402344 L 18.496094 81.726562 L 15.8125 83.714844 L 18.496094 85.703125 L 18.496094 87.03125 L 14.921875 84.375 L 11.660156 86.804688 L 11.660156 85.480469 L 14.097656 83.667969 L 11.660156 81.855469 Z M 11.660156 80.527344 "/>
<path style=" stroke:none;fill-rule:nonzero;fill:rgb(0%,0%,0%);fill-opacity:1;" d="M 11.660156 78.816406 L 11.660156 77.691406 L 18.496094 77.691406 L 18.496094 78.816406 Z M 9 78.816406 L 9 77.691406 L 10.421875 77.691406 L 10.421875 78.816406 Z M 9 78.816406 "/>
<path style=" stroke:none;fill-rule:nonzero;fill:rgb(0%,0%,0%);fill-opacity:1;" d="M 9.71875 74.230469 L 11.660156 74.230469 L 11.660156 71.917969 L 12.535156 71.917969 L 12.535156 74.230469 L 16.246094 74.230469 C 16.804688 74.230469 17.160156 74.15625 17.320312 74.003906 C 17.480469 73.851562 17.558594 73.539062 17.558594 73.070312 L 17.558594 71.917969 L 18.496094 71.917969 L 18.496094 73.070312 C 18.496094 73.9375 18.335938 74.535156 18.011719 74.867188 C 17.6875 75.195312 17.101562 75.359375 16.246094 75.359375 L 12.535156 75.359375 L 12.535156 76.183594 L 11.660156 76.183594 L 11.660156 75.359375 L 9.71875 75.359375 Z M 9.71875 74.230469 "/>
<path style=" stroke:none;fill-rule:nonzero;fill:rgb(0%,0%,0%);fill-opacity:1;" d="M 19.132812 67.597656 C 19.945312 67.914062 20.476562 68.222656 20.722656 68.523438 C 20.972656 68.824219 21.097656 69.226562 21.097656 69.730469 L 21.097656 70.628906 L 20.15625 70.628906 L 20.15625 69.96875 C 20.15625 69.660156 20.085938 69.421875 19.9375 69.25 C 19.792969 69.078125 19.445312 68.890625 18.898438 68.683594 L 18.386719 68.480469 L 11.660156 71.246094 L 11.660156 70.054688 L 17.007812 67.917969 L 11.660156 65.78125 L 11.660156 64.59375 Z M 19.132812 67.597656 "/>
<g clip-path="url(#clip11)" clip-rule="nonzero">
<path style="fill:none;stroke-width:1.5;stroke-linecap:square;stroke-linejoin:round;stroke:rgb(12.156863%,46.666667%,70.588235%);stroke-opacity:1;stroke-miterlimit:4;" d="M 50.14375 13.5 L 54.128125 43.959375 L 58.115625 54.0125 L 62.1 60.35625 L 66.0875 64.003125 L 70.071875 67.953125 L 74.059375 70.378125 L 78.04375 71.7375 L 82.028125 75.778125 L 86.015625 74.1625 L 90 79.325 L 93.9875 81.43125 L 97.971875 84.88125 L 101.959375 87.9 L 105.94375 91.0625 L 109.928125 95.346875 L 113.915625 103 L 117.9 108.275 L 121.8875 113.98125 L 125.871875 120.80625 L 129.859375 124.409375 L 133.84375 127.853125 L 137.828125 129.915625 L 141.815625 132.553125 L 145.8 133.984375 L 149.7875 135.2125 L 153.771875 135.959375 L 157.759375 136.584375 L 161.74375 136.228125 L 165.728125 136.8625 L 169.715625 137.93125 L 173.7 138.35 L 177.6875 139.0625 L 181.671875 138.934375 L 185.659375 138.940625 L 189.64375 139.14375 L 193.628125 139.23125 L 197.615625 139.346875 L 201.6 137.921875 L 205.5875 138.05625 L 209.571875 138.7125 L 213.559375 139.209375 L 217.54375 139.153125 L 221.528125 138.884375 L 225.515625 139.375 L 229.5 139.41875 L 233.4875 139.5 L 237.471875 139.25 L 241.459375 139.36875 L 245.44375 139.334375 " transform="matrix(1.25,0,0,1.25,0,0)"/>
</g>
<path style="fill:none;stroke-width:0.8;stroke-linecap:square;stroke-linejoin:miter;stroke:rgb(0%,0%,0%);stroke-opacity:1;stroke-miterlimit:4;" d="M 50.14375 145.8 L 50.14375 7.2 " transform="matrix(1.25,0,0,1.25,0,0)"/>
<path style="fill:none;stroke-width:0.8;stroke-linecap:square;stroke-linejoin:miter;stroke:rgb(0%,0%,0%);stroke-opacity:1;stroke-miterlimit:4;" d="M 245.44375 145.8 L 245.44375 7.2 " transform="matrix(1.25,0,0,1.25,0,0)"/>
<path style="fill:none;stroke-width:0.8;stroke-linecap:square;stroke-linejoin:miter;stroke:rgb(0%,0%,0%);stroke-opacity:1;stroke-miterlimit:4;" d="M 50.14375 145.8 L 245.44375 145.8 " transform="matrix(1.25,0,0,1.25,0,0)"/>
<path style="fill:none;stroke-width:0.8;stroke-linecap:square;stroke-linejoin:miter;stroke:rgb(0%,0%,0%);stroke-opacity:1;stroke-miterlimit:4;" d="M 50.14375 7.2 L 245.44375 7.2 " transform="matrix(1.25,0,0,1.25,0,0)"/>
<use xlink:href="#surface5" mask="url(#mask0)"/>
<path style="fill:none;stroke-width:1.5;stroke-linecap:square;stroke-linejoin:round;stroke:rgb(12.156863%,46.666667%,70.588235%);stroke-opacity:1;stroke-miterlimit:4;" d="M 185.16875 20.3 L 205.16875 20.3 " transform="matrix(1.25,0,0,1.25,0,0)"/>
<path style=" stroke:none;fill-rule:nonzero;fill:rgb(0%,0%,0%);fill-opacity:1;" d="M 268.75 20.972656 L 268.75 22.914062 L 271.0625 22.914062 L 271.0625 23.785156 L 268.75 23.785156 L 268.75 27.496094 C 268.75 28.054688 268.828125 28.410156 268.976562 28.570312 C 269.132812 28.730469 269.441406 28.808594 269.910156 28.808594 L 271.0625 28.808594 L 271.0625 29.75 L 269.910156 29.75 C 269.042969 29.75 268.445312 29.585938 268.117188 29.265625 C 267.785156 28.941406 267.621094 28.351562 267.621094 27.496094 L 267.621094 23.785156 L 266.796875 23.785156 L 266.796875 22.914062 L 267.621094 22.914062 L 267.621094 20.972656 Z M 268.75 20.972656 "/>
<path style=" stroke:none;fill-rule:nonzero;fill:rgb(0%,0%,0%);fill-opacity:1;" d="M 276.5 23.960938 C 276.375 23.886719 276.238281 23.835938 276.089844 23.800781 C 275.941406 23.765625 275.777344 23.75 275.597656 23.75 C 274.964844 23.75 274.476562 23.953125 274.136719 24.367188 C 273.796875 24.78125 273.625 25.375 273.625 26.148438 L 273.625 29.75 L 272.496094 29.75 L 272.496094 22.914062 L 273.625 22.914062 L 273.625 23.976562 C 273.863281 23.558594 274.171875 23.25 274.546875 23.050781 C 274.925781 22.847656 275.386719 22.75 275.929688 22.75 C 276.003906 22.75 276.089844 22.753906 276.183594 22.765625 C 276.277344 22.773438 276.382812 22.789062 276.496094 22.808594 Z M 276.5 23.960938 "/>
<path style=" stroke:none;fill-rule:nonzero;fill:rgb(0%,0%,0%);fill-opacity:1;" d="M 280.785156 26.3125 C 279.878906 26.3125 279.25 26.417969 278.898438 26.625 C 278.550781 26.832031 278.375 27.183594 278.375 27.6875 C 278.375 28.085938 278.503906 28.402344 278.769531 28.636719 C 279.03125 28.867188 279.386719 28.984375 279.839844 28.984375 C 280.460938 28.984375 280.960938 28.765625 281.339844 28.324219 C 281.714844 27.882812 281.902344 27.292969 281.902344 26.5625 L 281.902344 26.3125 Z M 283.027344 25.847656 L 283.027344 29.75 L 281.902344 29.75 L 281.902344 28.710938 C 281.648438 29.125 281.328125 29.429688 280.945312 29.628906 C 280.5625 29.828125 280.09375 29.925781 279.539062 29.925781 C 278.839844 29.925781 278.285156 29.730469 277.871094 29.335938 C 277.457031 28.941406 277.25 28.417969 277.25 27.757812 C 277.25 26.988281 277.507812 26.410156 278.023438 26.019531 C 278.539062 25.628906 279.304688 25.433594 280.328125 25.433594 L 281.902344 25.433594 L 281.902344 25.324219 C 281.902344 24.804688 281.734375 24.40625 281.394531 24.125 C 281.054688 23.839844 280.578125 23.699219 279.960938 23.699219 C 279.570312 23.699219 279.191406 23.746094 278.820312 23.839844 C 278.449219 23.933594 278.09375 24.074219 277.753906 24.261719 L 277.753906 23.222656 C 278.164062 23.0625 278.5625 22.945312 278.949219 22.867188 C 279.335938 22.789062 279.710938 22.75 280.078125 22.75 C 281.066406 22.75 281.804688 23.003906 282.292969 23.519531 C 282.78125 24.03125 283.027344 24.804688 283.027344 25.847656 Z M 283.027344 25.847656 "/>
<path style=" stroke:none;fill-rule:nonzero;fill:rgb(0%,0%,0%);fill-opacity:1;" d="M 285.339844 22.914062 L 286.460938 22.914062 L 286.460938 29.75 L 285.339844 29.75 Z M 285.339844 20.25 L 286.460938 20.25 L 286.460938 21.675781 L 285.339844 21.675781 Z M 285.339844 20.25 "/>
<path style=" stroke:none;fill-rule:nonzero;fill:rgb(0%,0%,0%);fill-opacity:1;" d="M 294.496094 25.621094 L 294.496094 29.75 L 293.371094 29.75 L 293.371094 25.660156 C 293.371094 25.011719 293.246094 24.527344 292.992188 24.207031 C 292.742188 23.886719 292.363281 23.726562 291.859375 23.726562 C 291.25 23.726562 290.773438 23.917969 290.421875 24.304688 C 290.074219 24.691406 289.898438 25.21875 289.898438 25.886719 L 289.898438 29.75 L 288.769531 29.75 L 288.769531 22.914062 L 289.898438 22.914062 L 289.898438 23.976562 C 290.167969 23.5625 290.484375 23.257812 290.847656 23.054688 C 291.210938 22.851562 291.632812 22.75 292.109375 22.75 C 292.894531 22.75 293.488281 22.992188 293.890625 23.476562 C 294.292969 23.960938 294.496094 24.675781 294.496094 25.621094 Z M 294.496094 25.621094 "/>
</g>
</svg>
