<?xml version="1.0" encoding="UTF-8"?>
<svg xmlns="http://www.w3.org/2000/svg" xmlns:xlink="http://www.w3.org/1999/xlink" width="320pt" height="229pt" viewBox="0 0 320 229" version="1.1">
<defs>
<clipPath id="clip1">
  <path d="M 62.679688 9 L 64 9 L 64 182.25 L 62.679688 182.25 Z M 62.679688 9 "/>
</clipPath>
<clipPath id="clip2">
  <path d="M 123 9 L 125 9 L 125 182.25 L 123 182.25 Z M 123 9 "/>
</clipPath>
<clipPath id="clip3">
  <path d="M 184 9 L 186 9 L 186 182.25 L 184 182.25 Z M 184 9 "/>
</clipPath>
<clipPath id="clip4">
  <path d="M 245 9 L 247 9 L 247 182.25 L 245 182.25 Z M 245 9 "/>
</clipPath>
<clipPath id="clip5">
  <path d="M 306 9 L 306.804688 9 L 306.804688 182.25 L 306 182.25 Z M 306 9 "/>
</clipPath>
<clipPath id="clip6">
  <path d="M 62.679688 142 L 306.804688 142 L 306.804688 145 L 62.679688 145 Z M 62.679688 142 "/>
</clipPath>
<clipPath id="clip7">
  <path d="M 62.679688 103 L 306.804688 103 L 306.804688 106 L 62.679688 106 Z M 62.679688 103 "/>
</clipPath>
<clipPath id="clip8">
  <path d="M 62.679688 65 L 306.804688 65 L 306.804688 67 L 62.679688 67 Z M 62.679688 65 "/>
</clipPath>
<clipPath id="clip9">
  <path d="M 62.679688 26 L 306.804688 26 L 306.804688 28 L 62.679688 28 Z M 62.679688 26 "/>
</clipPath>
<clipPath id="clip10">
  <path d="M 62.679688 15 L 306.804688 15 L 306.804688 176 L 62.679688 176 Z M 62.679688 15 "/>
</clipPath>
</defs>
<g id="surface1">
<path style=" stroke:none;fill-rule:nonzero;fill:rgb(100%,100%,100%);fill-opacity:1;" d="M 0 229.195312 L 319.78125 229.195312 L 319.78125 0 L 0 0 Z M 0 229.195312 "/>
<path style=" stroke:none;fill-rule:nonzero;fill:rgb(100%,100%,100%);fill-opacity:1;" d="M 62.679688 182.25 L 306.804688 182.25 L 306.804688 9 L 62.679688 9 Z M 62.679688 182.25 "/>
<g clip-path="url(#clip1)" clip-rule="nonzero">
<path style="fill:none;stroke-width:0.8;stroke-linecap:square;stroke-linejoin:round;stroke:rgb(69.019608%,69.019608%,69.019608%);stroke-opacity:1;stroke-miterlimit:4;" d="M 50.14375 145.8 L 50.14375 7.2 " transform="matrix(1.25,0,0,1.25,0,0)"/>
</g>
<path style="fill:none;stroke-width:0.8;stroke-linecap:butt;stroke-linejoin:round;stroke:rgb(0%,0%,0%);stroke-opacity:1;stroke-miterlimit:4;" d="M 0.000000000000014211 0 L 0.000000000000014211 3.5 " transform="matrix(1.25,0,0,1.25,62.679687,182.25)"/>
<path style=" stroke:none;fill-rule:nonzero;fill:rgb(0%,0%,0%);fill-opacity:1;" d="M 60.253906 199.460938 L 62.265625 199.460938 L 62.265625 192.507812 L 60.074219 192.949219 L 60.074219 191.824219 L 62.253906 191.386719 L 63.488281 191.386719 L 63.488281 199.460938 L 65.5 199.460938 L 65.5 200.5 L 60.253906 200.5 Z M 60.253906 199.460938 "/>
<g clip-path="url(#clip2)" clip-rule="nonzero">
<path style="fill:none;stroke-width:0.8;stroke-linecap:square;stroke-linejoin:round;stroke:rgb(69.019608%,69.019608%,69.019608%);stroke-opacity:1;stroke-miterlimit:4;" d="M 98.96875 145.8 L 98.96875 7.2 " transform="matrix(1.25,0,0,1.25,0,0)"/>
</g>
<path style="fill:none;stroke-width:0.8;stroke-linecap:butt;stroke-linejoin:round;stroke:rgb(0%,0%,0%);stroke-opacity:1;stroke-miterlimit:4;" d="M 0.000000000000014211 0 L 0.000000000000014211 3.5 " transform="matrix(1.25,0,0,1.25,123.710937,182.25)"/>
<path style=" stroke:none;fill-rule:nonzero;fill:rgb(0%,0%,0%);fill-opacity:1;" d="M 122.132812 199.460938 L 126.433594 199.460938 L 126.433594 200.5 L 120.648438 200.5 L 120.648438 199.460938 C 121.117188 198.976562 121.753906 198.328125 122.5625 197.511719 C 123.371094 196.695312 123.878906 196.167969 124.085938 195.933594 C 124.480469 195.488281 124.753906 195.113281 124.910156 194.808594 C 125.070312 194.5 125.148438 194.199219 125.148438 193.902344 C 125.148438 193.417969 124.976562 193.023438 124.636719 192.71875 C 124.296875 192.410156 123.855469 192.257812 123.308594 192.257812 C 122.921875 192.257812 122.515625 192.324219 122.085938 192.460938 C 121.65625 192.59375 121.199219 192.796875 120.710938 193.070312 L 120.710938 191.824219 C 121.207031 191.625 121.671875 191.476562 122.101562 191.375 C 122.535156 191.273438 122.929688 191.222656 123.285156 191.222656 C 124.230469 191.222656 124.984375 191.457031 125.542969 191.929688 C 126.105469 192.402344 126.386719 193.03125 126.386719 193.820312 C 126.386719 194.195312 126.316406 194.550781 126.175781 194.886719 C 126.035156 195.222656 125.78125 195.617188 125.410156 196.074219 C 125.308594 196.191406 124.984375 196.53125 124.4375 197.097656 C 123.894531 197.660156 123.125 198.449219 122.132812 199.460938 Z M 122.132812 199.460938 "/>
<g clip-path="url(#clip3)" clip-rule="nonzero">
<path style="fill:none;stroke-width:0.8;stroke-linecap:square;stroke-linejoin:round;stroke:rgb(69.019608%,69.019608%,69.019608%);stroke-opacity:1;stroke-miterlimit:4;" d="M 147.79375 145.8 L 147.79375 7.2 " transform="matrix(1.25,0,0,1.25,0,0)"/>
</g>
<path style="fill:none;stroke-width:0.8;stroke-linecap:butt;stroke-linejoin:round;stroke:rgb(0%,0%,0%);stroke-opacity:1;stroke-miterlimit:4;" d="M 0.000000000000028422 0 L 0.000000000000028422 3.5 " transform="matrix(1.25,0,0,1.25,184.742187,182.25)"/>
<path style=" stroke:none;fill-rule:nonzero;fill:rgb(0%,0%,0%);fill-opacity:1;" d="M 185.835938 195.585938 C 186.425781 195.710938 186.886719 195.972656 187.21875 196.375 C 187.550781 196.773438 187.714844 197.265625 187.714844 197.851562 C 187.714844 198.75 187.40625 199.445312 186.789062 199.9375 C 186.171875 200.429688 185.292969 200.675781 184.152344 200.675781 C 183.769531 200.675781 183.378906 200.636719 182.972656 200.5625 C 182.566406 200.488281 182.148438 200.375 181.71875 200.222656 L 181.71875 199.035156 C 182.058594 199.234375 182.433594 199.382812 182.839844 199.484375 C 183.246094 199.585938 183.671875 199.636719 184.117188 199.636719 C 184.890625 199.636719 185.476562 199.484375 185.882812 199.179688 C 186.289062 198.875 186.488281 198.433594 186.488281 197.851562 C 186.488281 197.3125 186.300781 196.890625 185.925781 196.589844 C 185.550781 196.285156 185.027344 196.136719 184.355469 196.136719 L 183.292969 196.136719 L 183.292969 195.121094 L 184.402344 195.121094 C 185.007812 195.121094 185.472656 195 185.792969 194.757812 C 186.117188 194.515625 186.277344 194.167969 186.277344 193.710938 C 186.277344 193.242188 186.109375 192.886719 185.777344 192.636719 C 185.449219 192.382812 184.972656 192.257812 184.355469 192.257812 C 184.015625 192.257812 183.652344 192.296875 183.265625 192.371094 C 182.878906 192.441406 182.457031 192.554688 181.992188 192.710938 L 181.992188 191.613281 C 182.460938 191.480469 182.898438 191.382812 183.308594 191.320312 C 183.71875 191.253906 184.101562 191.222656 184.464844 191.222656 C 185.402344 191.222656 186.140625 191.433594 186.683594 191.859375 C 187.230469 192.285156 187.503906 192.859375 187.503906 193.582031 C 187.503906 194.085938 187.359375 194.515625 187.070312 194.863281 C 186.78125 195.210938 186.371094 195.449219 185.835938 195.585938 Z M 185.835938 195.585938 "/>
<g clip-path="url(#clip4)" clip-rule="nonzero">
<path style="fill:none;stroke-width:0.8;stroke-linecap:square;stroke-linejoin:round;stroke:rgb(69.019608%,69.019608%,69.019608%);stroke-opacity:1;stroke-miterlimit:4;" d="M 196.61875 145.8 L 196.61875 7.2 " transform="matrix(1.25,0,0,1.25,0,0)"/>
</g>
<path style="fill:none;stroke-width:0.8;stroke-linecap:butt;stroke-linejoin:round;stroke:rgb(0%,0%,0%);stroke-opacity:1;stroke-miterlimit:4;" d="M 0.000000000000028422 0 L 0.000000000000028422 3.5 " transform="matrix(1.25,0,0,1.25,245.773437,182.25)"/>
<path style=" stroke:none;fill-rule:nonzero;fill:rgb(0%,0%,0%);fill-opacity:1;" d="M 246.519531 192.460938 L 243.40625 197.324219 L 246.519531 197.324219 Z M 246.195312 191.386719 L 247.746094 191.386719 L 247.746094 197.324219 L 249.046875 197.324219 L 249.046875 198.351562 L 247.746094 198.351562 L 247.746094 200.5 L 246.519531 200.5 L 246.519531 198.351562 L 242.40625 198.351562 L 242.40625 197.160156 Z M 246.195312 191.386719 "/>
<g clip-path="url(#clip5)" clip-rule="nonzero">
<path style="fill:none;stroke-width:0.8;stroke-linecap:square;stroke-linejoin:round;stroke:rgb(69.019608%,69.019608%,69.019608%);stroke-opacity:1;stroke-miterlimit:4;" d="M 245.44375 145.8 L 245.44375 7.2 " transform="matrix(1.25,0,0,1.25,0,0)"/>
</g>
<path style="fill:none;stroke-width:0.8;stroke-linecap:butt;stroke-linejoin:round;stroke:rgb(0%,0%,0%);stroke-opacity:1;stroke-miterlimit:4;" d="M 0.000000000000056843 0 L 0.000000000000056843 3.5 " transform="matrix(1.25,0,0,1.25,306.804687,182.25)"/>
<path style=" stroke:none;fill-rule:nonzero;fill:rgb(0%,0%,0%);fill-opacity:1;" d="M 304.175781 191.386719 L 309.015625 191.386719 L 309.015625 192.425781 L 305.304688 192.425781 L 305.304688 194.65625 C 305.484375 194.59375 305.664062 194.550781 305.839844 194.519531 C 306.019531 194.488281 306.199219 194.476562 306.378906 194.476562 C 307.398438 194.476562 308.203125 194.753906 308.796875 195.3125 C 309.390625 195.867188 309.6875 196.621094 309.6875 197.574219 C 309.6875 198.554688 309.382812 199.316406 308.773438 199.863281 C 308.164062 200.40625 307.300781 200.675781 306.191406 200.675781 C 305.808594 200.675781 305.417969 200.644531 305.019531 200.578125 C 304.625 200.511719 304.214844 200.414062 303.792969 200.285156 L 303.792969 199.046875 C 304.160156 199.246094 304.535156 199.394531 304.925781 199.492188 C 305.316406 199.589844 305.730469 199.636719 306.164062 199.636719 C 306.871094 199.636719 307.425781 199.453125 307.835938 199.082031 C 308.25 198.710938 308.453125 198.210938 308.453125 197.574219 C 308.453125 196.941406 308.25 196.4375 307.835938 196.070312 C 307.425781 195.699219 306.871094 195.511719 306.164062 195.511719 C 305.835938 195.511719 305.507812 195.546875 305.179688 195.621094 C 304.851562 195.695312 304.519531 195.808594 304.175781 195.964844 Z M 304.175781 191.386719 "/>
<path style=" stroke:none;fill-rule:nonzero;fill:rgb(0%,0%,0%);fill-opacity:1;" d="M 172.730469 213.898438 L 172.730469 214.445312 L 167.566406 214.445312 C 167.617188 215.21875 167.851562 215.808594 168.265625 216.214844 C 168.683594 216.617188 169.265625 216.820312 170.007812 216.820312 C 170.441406 216.820312 170.859375 216.769531 171.261719 216.664062 C 171.667969 216.558594 172.070312 216.398438 172.46875 216.1875 L 172.46875 217.25 C 172.066406 217.417969 171.652344 217.550781 171.230469 217.640625 C 170.808594 217.730469 170.378906 217.773438 169.941406 217.773438 C 168.851562 217.773438 167.988281 217.457031 167.351562 216.824219 C 166.714844 216.1875 166.394531 215.328125 166.394531 214.246094 C 166.394531 213.125 166.699219 212.238281 167.300781 211.582031 C 167.90625 210.925781 168.722656 210.597656 169.746094 210.597656 C 170.667969 210.597656 171.394531 210.890625 171.929688 211.484375 C 172.464844 212.074219 172.730469 212.878906 172.730469 213.898438 Z M 171.609375 213.566406 C 171.601562 212.953125 171.429688 212.464844 171.09375 212.097656 C 170.757812 211.730469 170.3125 211.546875 169.757812 211.546875 C 169.132812 211.546875 168.632812 211.722656 168.253906 212.078125 C 167.878906 212.433594 167.664062 212.929688 167.605469 213.574219 Z M 171.609375 213.566406 "/>
<path style=" stroke:none;fill-rule:nonzero;fill:rgb(0%,0%,0%);fill-opacity:1;" d="M 175.660156 216.570312 L 175.660156 220.195312 L 174.53125 220.195312 L 174.53125 210.761719 L 175.660156 210.761719 L 175.660156 211.796875 C 175.898438 211.390625 176.195312 211.089844 176.554688 210.894531 C 176.917969 210.695312 177.347656 210.597656 177.847656 210.597656 C 178.675781 210.597656 179.351562 210.925781 179.871094 211.585938 C 180.390625 212.242188 180.648438 213.109375 180.648438 214.183594 C 180.648438 215.257812 180.390625 216.125 179.871094 216.785156 C 179.351562 217.445312 178.675781 217.773438 177.847656 217.773438 C 177.347656 217.773438 176.917969 217.675781 176.554688 217.476562 C 176.195312 217.277344 175.898438 216.976562 175.660156 216.570312 Z M 179.484375 214.183594 C 179.484375 213.359375 179.3125 212.710938 178.972656 212.242188 C 178.632812 211.769531 178.167969 211.535156 177.574219 211.535156 C 176.976562 211.535156 176.511719 211.769531 176.171875 212.242188 C 175.832031 212.710938 175.660156 213.359375 175.660156 214.183594 C 175.660156 215.007812 175.832031 215.65625 176.171875 216.128906 C 176.511719 216.597656 176.976562 216.832031 177.574219 216.832031 C 178.167969 216.832031 178.632812 216.597656 178.972656 216.128906 C 179.3125 215.65625 179.484375 215.007812 179.484375 214.183594 Z M 179.484375 214.183594 "/>
<path style=" stroke:none;fill-rule:nonzero;fill:rgb(0%,0%,0%);fill-opacity:1;" d="M 185.15625 211.546875 C 184.554688 211.546875 184.082031 211.78125 183.730469 212.253906 C 183.378906 212.722656 183.203125 213.367188 183.203125 214.183594 C 183.203125 215 183.378906 215.644531 183.726562 216.117188 C 184.074219 216.585938 184.550781 216.820312 185.15625 216.820312 C 185.757812 216.820312 186.230469 216.585938 186.578125 216.113281 C 186.929688 215.640625 187.105469 214.996094 187.105469 214.183594 C 187.105469 213.375 186.929688 212.730469 186.578125 212.257812 C 186.230469 211.785156 185.757812 211.546875 185.15625 211.546875 Z M 185.15625 210.597656 C 186.132812 210.597656 186.902344 210.914062 187.457031 211.550781 C 188.015625 212.183594 188.296875 213.0625 188.296875 214.183594 C 188.296875 215.300781 188.015625 216.179688 187.457031 216.820312 C 186.902344 217.457031 186.132812 217.773438 185.15625 217.773438 C 184.175781 217.773438 183.410156 217.457031 182.851562 216.820312 C 182.296875 216.179688 182.019531 215.300781 182.019531 214.183594 C 182.019531 213.0625 182.296875 212.183594 182.851562 211.550781 C 183.410156 210.914062 184.175781 210.597656 185.15625 210.597656 Z M 185.15625 210.597656 "/>
<path style=" stroke:none;fill-rule:nonzero;fill:rgb(0%,0%,0%);fill-opacity:1;" d="M 195.078125 211.023438 L 195.078125 212.074219 C 194.757812 211.898438 194.441406 211.765625 194.121094 211.679688 C 193.804688 211.589844 193.480469 211.546875 193.15625 211.546875 C 192.425781 211.546875 191.859375 211.777344 191.457031 212.242188 C 191.054688 212.703125 190.851562 213.347656 190.851562 214.183594 C 190.851562 215.019531 191.054688 215.667969 191.457031 216.128906 C 191.859375 216.589844 192.425781 216.820312 193.15625 216.820312 C 193.480469 216.820312 193.804688 216.777344 194.121094 216.691406 C 194.441406 216.601562 194.757812 216.472656 195.078125 216.296875 L 195.078125 217.335938 C 194.761719 217.480469 194.4375 217.589844 194.101562 217.664062 C 193.769531 217.738281 193.410156 217.773438 193.03125 217.773438 C 192.003906 217.773438 191.183594 217.449219 190.578125 216.804688 C 189.972656 216.15625 189.667969 215.28125 189.667969 214.183594 C 189.667969 213.070312 189.976562 212.191406 190.585938 211.554688 C 191.199219 210.914062 192.039062 210.597656 193.105469 210.597656 C 193.453125 210.597656 193.789062 210.632812 194.117188 210.703125 C 194.449219 210.773438 194.765625 210.878906 195.078125 211.023438 Z M 195.078125 211.023438 "/>
<path style=" stroke:none;fill-rule:nonzero;fill:rgb(0%,0%,0%);fill-opacity:1;" d="M 202.714844 213.46875 L 202.714844 217.597656 L 201.589844 217.597656 L 201.589844 213.507812 C 201.589844 212.859375 201.464844 212.375 201.210938 212.054688 C 200.960938 211.734375 200.582031 211.574219 200.078125 211.574219 C 199.46875 211.574219 198.992188 211.765625 198.640625 212.152344 C 198.292969 212.539062 198.117188 213.066406 198.117188 213.734375 L 198.117188 217.597656 L 196.988281 217.597656 L 196.988281 208.097656 L 198.117188 208.097656 L 198.117188 211.824219 C 198.386719 211.410156 198.703125 211.105469 199.066406 210.902344 C 199.429688 210.699219 199.851562 210.597656 200.328125 210.597656 C 201.113281 210.597656 201.707031 210.839844 202.109375 211.324219 C 202.511719 211.808594 202.714844 212.523438 202.714844 213.46875 Z M 202.714844 213.46875 "/>
<g clip-path="url(#clip6)" clip-rule="nonzero">
<path style="fill:none;stroke-width:0.8;stroke-linecap:square;stroke-linejoin:round;stroke:rgb(69.019608%,69.019608%,69.019608%);stroke-opacity:1;stroke-miterlimit:4;" d="M 50.14375 114.775 L 245.44375 114.775 " transform="matrix(1.25,0,0,1.25,0,0)"/>
</g>
<path style="fill:none;stroke-width:0.8;stroke-linecap:butt;stroke-linejoin:round;stroke:rgb(0%,0%,0%);stroke-opacity:1;stroke-miterlimit:4;" d="M 0.000000000000014211 -0.000996 L -3.5 -0.000996 " transform="matrix(1.25,0,0,1.25,62.679687,143.469995)"/>
<path style=" stroke:none;fill-rule:nonzero;fill:rgb(0%,0%,0%);fill-opacity:1;" d="M 30.070312 139.917969 C 29.4375 139.917969 28.957031 140.230469 28.636719 140.855469 C 28.320312 141.480469 28.160156 142.417969 28.160156 143.671875 C 28.160156 144.921875 28.320312 145.859375 28.636719 146.484375 C 28.957031 147.109375 29.4375 147.421875 30.070312 147.421875 C 30.710938 147.421875 31.1875 147.109375 31.507812 146.484375 C 31.828125 145.859375 31.988281 144.921875 31.988281 143.671875 C 31.988281 142.417969 31.828125 141.480469 31.507812 140.855469 C 31.1875 140.230469 30.710938 139.917969 30.070312 139.917969 Z M 30.070312 138.941406 C 31.09375 138.941406 31.871094 139.347656 32.410156 140.15625 C 32.949219 140.960938 33.21875 142.132812 33.21875 143.671875 C 33.21875 145.207031 32.949219 146.378906 32.410156 147.1875 C 31.871094 147.992188 31.09375 148.398438 30.070312 148.398438 C 29.050781 148.398438 28.269531 147.992188 27.730469 147.1875 C 27.191406 146.378906 26.921875 145.207031 26.921875 143.671875 C 26.921875 142.132812 27.191406 140.960938 27.730469 140.15625 C 28.269531 139.347656 29.050781 138.941406 30.070312 138.941406 Z M 30.070312 138.941406 "/>
<path style=" stroke:none;fill-rule:nonzero;fill:rgb(0%,0%,0%);fill-opacity:1;" d="M 35.386719 146.667969 L 36.675781 146.667969 L 36.675781 148.21875 L 35.386719 148.21875 Z M 35.386719 146.667969 "/>
<path style=" stroke:none;fill-rule:nonzero;fill:rgb(0%,0%,0%);fill-opacity:1;" d="M 42.75 140.179688 L 39.636719 145.046875 L 42.75 145.046875 Z M 42.425781 139.105469 L 43.976562 139.105469 L 43.976562 145.046875 L 45.277344 145.046875 L 45.277344 146.070312 L 43.976562 146.070312 L 43.976562 148.21875 L 42.75 148.21875 L 42.75 146.070312 L 38.636719 146.070312 L 38.636719 144.882812 Z M 42.425781 139.105469 "/>
<path style=" stroke:none;fill-rule:nonzero;fill:rgb(0%,0%,0%);fill-opacity:1;" d="M 47.328125 139.105469 L 52.167969 139.105469 L 52.167969 140.144531 L 48.457031 140.144531 L 48.457031 142.378906 C 48.632812 142.316406 48.8125 142.269531 48.992188 142.242188 C 49.171875 142.210938 49.351562 142.195312 49.53125 142.195312 C 50.546875 142.195312 51.351562 142.472656 51.945312 143.03125 C 52.539062 143.589844 52.839844 144.34375 52.839844 145.296875 C 52.839844 146.277344 52.53125 147.039062 51.921875 147.582031 C 51.3125 148.125 50.449219 148.398438 49.339844 148.398438 C 48.957031 148.398438 48.566406 148.363281 48.171875 148.300781 C 47.773438 148.234375 47.363281 148.136719 46.941406 148.007812 L 46.941406 146.765625 C 47.308594 146.964844 47.6875 147.113281 48.078125 147.210938 C 48.46875 147.308594 48.878906 147.359375 49.316406 147.359375 C 50.019531 147.359375 50.578125 147.171875 50.988281 146.804688 C 51.398438 146.433594 51.605469 145.929688 51.605469 145.296875 C 51.605469 144.660156 51.398438 144.160156 50.988281 143.789062 C 50.578125 143.417969 50.019531 143.234375 49.316406 143.234375 C 48.984375 143.234375 48.65625 143.269531 48.328125 143.34375 C 48 143.414062 47.667969 143.527344 47.328125 143.683594 Z M 47.328125 139.105469 "/>
<g clip-path="url(#clip7)" clip-rule="nonzero">
<path style="fill:none;stroke-width:0.8;stroke-linecap:square;stroke-linejoin:round;stroke:rgb(69.019608%,69.019608%,69.019608%);stroke-opacity:1;stroke-miterlimit:4;" d="M 50.14375 83.73125 L 245.44375 83.73125 " transform="matrix(1.25,0,0,1.25,0,0)"/>
</g>
<path style="fill:none;stroke-width:0.8;stroke-linecap:butt;stroke-linejoin:round;stroke:rgb(0%,0%,0%);stroke-opacity:1;stroke-miterlimit:4;" d="M 0.000000000000014211 0.000867 L -3.5 0.000867 " transform="matrix(1.25,0,0,1.25,62.679687,104.662979)"/>
<path style=" stroke:none;fill-rule:nonzero;fill:rgb(0%,0%,0%);fill-opacity:1;" d="M 30.070312 101.109375 C 29.4375 101.109375 28.957031 101.421875 28.636719 102.046875 C 28.320312 102.671875 28.160156 103.609375 28.160156 104.863281 C 28.160156 106.113281 28.320312 107.050781 28.636719 107.675781 C 28.957031 108.300781 29.4375 108.613281 30.070312 108.613281 C 30.710938 108.613281 31.1875 108.300781 31.507812 107.675781 C 31.828125 107.050781 31.988281 106.113281 31.988281 104.863281 C 31.988281 103.609375 31.828125 102.671875 31.507812 102.046875 C 31.1875 101.421875 30.710938 101.109375 30.070312 101.109375 Z M 30.070312 100.132812 C 31.09375 100.132812 31.871094 100.539062 32.410156 101.347656 C 32.949219 102.15625 33.21875 103.328125 33.21875 104.863281 C 33.21875 106.398438 32.949219 107.570312 32.410156 108.378906 C 31.871094 109.1875 31.09375 109.589844 30.070312 109.589844 C 29.050781 109.589844 28.269531 109.1875 27.730469 108.378906 C 27.191406 107.570312 26.921875 106.398438 26.921875 104.863281 C 26.921875 103.328125 27.191406 102.15625 27.730469 101.347656 C 28.269531 100.539062 29.050781 100.132812 30.070312 100.132812 Z M 30.070312 100.132812 "/>
<path style=" stroke:none;fill-rule:nonzero;fill:rgb(0%,0%,0%);fill-opacity:1;" d="M 35.386719 107.859375 L 36.675781 107.859375 L 36.675781 109.410156 L 35.386719 109.410156 Z M 35.386719 107.859375 "/>
<path style=" stroke:none;fill-rule:nonzero;fill:rgb(0%,0%,0%);fill-opacity:1;" d="M 39.375 100.296875 L 44.214844 100.296875 L 44.214844 101.335938 L 40.503906 101.335938 L 40.503906 103.570312 C 40.679688 103.507812 40.859375 103.464844 41.039062 103.433594 C 41.21875 103.402344 41.398438 103.386719 41.578125 103.386719 C 42.59375 103.386719 43.398438 103.667969 43.992188 104.222656 C 44.585938 104.78125 44.886719 105.535156 44.886719 106.488281 C 44.886719 107.46875 44.578125 108.230469 43.96875 108.773438 C 43.359375 109.316406 42.496094 109.589844 41.386719 109.589844 C 41.003906 109.589844 40.613281 109.558594 40.21875 109.492188 C 39.820312 109.425781 39.410156 109.328125 38.988281 109.199219 L 38.988281 107.957031 C 39.355469 108.15625 39.734375 108.304688 40.125 108.402344 C 40.515625 108.5 40.925781 108.550781 41.363281 108.550781 C 42.066406 108.550781 42.625 108.367188 43.035156 107.996094 C 43.445312 107.625 43.652344 107.125 43.652344 106.488281 C 43.652344 105.855469 43.445312 105.351562 43.035156 104.980469 C 42.625 104.609375 42.066406 104.425781 41.363281 104.425781 C 41.03125 104.425781 40.703125 104.460938 40.375 104.535156 C 40.046875 104.609375 39.714844 104.722656 39.375 104.875 Z M 39.375 100.296875 "/>
<path style=" stroke:none;fill-rule:nonzero;fill:rgb(0%,0%,0%);fill-opacity:1;" d="M 49.949219 101.109375 C 49.316406 101.109375 48.839844 101.421875 48.519531 102.046875 C 48.199219 102.671875 48.039062 103.609375 48.039062 104.863281 C 48.039062 106.113281 48.199219 107.050781 48.519531 107.675781 C 48.839844 108.300781 49.316406 108.613281 49.949219 108.613281 C 50.589844 108.613281 51.066406 108.300781 51.386719 107.675781 C 51.707031 107.050781 51.867188 106.113281 51.867188 104.863281 C 51.867188 103.609375 51.707031 102.671875 51.386719 102.046875 C 51.066406 101.421875 50.589844 101.109375 49.949219 101.109375 Z M 49.949219 100.132812 C 50.972656 100.132812 51.753906 100.539062 52.292969 101.347656 C 52.832031 102.15625 53.101562 103.328125 53.101562 104.863281 C 53.101562 106.398438 52.832031 107.570312 52.292969 108.378906 C 51.753906 109.1875 50.972656 109.589844 49.949219 109.589844 C 48.929688 109.589844 48.148438 109.1875 47.609375 108.378906 C 47.070312 107.570312 46.800781 106.398438 46.800781 104.863281 C 46.800781 103.328125 47.070312 102.15625 47.609375 101.347656 C 48.148438 100.539062 48.929688 100.132812 49.949219 100.132812 Z M 49.949219 100.132812 "/>
<g clip-path="url(#clip8)" clip-rule="nonzero">
<path style="fill:none;stroke-width:0.8;stroke-linecap:square;stroke-linejoin:round;stroke:rgb(69.019608%,69.019608%,69.019608%);stroke-opacity:1;stroke-miterlimit:4;" d="M 50.14375 52.684375 L 245.44375 52.684375 " transform="matrix(1.25,0,0,1.25,0,0)"/>
</g>
<path style="fill:none;stroke-width:0.8;stroke-linecap:butt;stroke-linejoin:round;stroke:rgb(0%,0%,0%);stroke-opacity:1;stroke-miterlimit:4;" d="M 0.000000000000014211 -0.000396 L -3.5 -0.000396 " transform="matrix(1.25,0,0,1.25,62.679687,65.855964)"/>
<path style=" stroke:none;fill-rule:nonzero;fill:rgb(0%,0%,0%);fill-opacity:1;" d="M 30.070312 62.304688 C 29.4375 62.304688 28.957031 62.617188 28.636719 63.242188 C 28.320312 63.867188 28.160156 64.804688 28.160156 66.058594 C 28.160156 67.308594 28.320312 68.242188 28.636719 68.867188 C 28.957031 69.492188 29.4375 69.804688 30.070312 69.804688 C 30.710938 69.804688 31.1875 69.492188 31.507812 68.867188 C 31.828125 68.242188 31.988281 67.308594 31.988281 66.058594 C 31.988281 64.804688 31.828125 63.867188 31.507812 63.242188 C 31.1875 62.617188 30.710938 62.304688 30.070312 62.304688 Z M 30.070312 61.328125 C 31.09375 61.328125 31.871094 61.730469 32.410156 62.539062 C 32.949219 63.347656 33.21875 64.519531 33.21875 66.058594 C 33.21875 67.59375 32.949219 68.761719 32.410156 69.570312 C 31.871094 70.378906 31.09375 70.78125 30.070312 70.78125 C 29.050781 70.78125 28.269531 70.378906 27.730469 69.570312 C 27.191406 68.761719 26.921875 67.59375 26.921875 66.058594 C 26.921875 64.519531 27.191406 63.347656 27.730469 62.539062 C 28.269531 61.730469 29.050781 61.328125 30.070312 61.328125 Z M 30.070312 61.328125 "/>
<path style=" stroke:none;fill-rule:nonzero;fill:rgb(0%,0%,0%);fill-opacity:1;" d="M 35.386719 69.054688 L 36.675781 69.054688 L 36.675781 70.605469 L 35.386719 70.605469 Z M 35.386719 69.054688 "/>
<path style=" stroke:none;fill-rule:nonzero;fill:rgb(0%,0%,0%);fill-opacity:1;" d="M 39.375 61.492188 L 44.214844 61.492188 L 44.214844 62.53125 L 40.503906 62.53125 L 40.503906 64.761719 C 40.679688 64.703125 40.859375 64.65625 41.039062 64.625 C 41.21875 64.597656 41.398438 64.582031 41.578125 64.582031 C 42.59375 64.582031 43.398438 64.859375 43.992188 65.417969 C 44.585938 65.976562 44.886719 66.730469 44.886719 67.679688 C 44.886719 68.660156 44.578125 69.425781 43.96875 69.96875 C 43.359375 70.511719 42.496094 70.78125 41.386719 70.78125 C 41.003906 70.78125 40.613281 70.75 40.21875 70.683594 C 39.820312 70.621094 39.410156 70.523438 38.988281 70.390625 L 38.988281 69.152344 C 39.355469 69.351562 39.734375 69.5 40.125 69.597656 C 40.515625 69.695312 40.925781 69.742188 41.363281 69.742188 C 42.066406 69.742188 42.625 69.558594 43.035156 69.1875 C 43.445312 68.820312 43.652344 68.316406 43.652344 67.679688 C 43.652344 67.046875 43.445312 66.546875 43.035156 66.175781 C 42.625 65.804688 42.066406 65.617188 41.363281 65.617188 C 41.03125 65.617188 40.703125 65.65625 40.375 65.726562 C 40.046875 65.800781 39.714844 65.914062 39.375 66.070312 Z M 39.375 61.492188 "/>
<path style=" stroke:none;fill-rule:nonzero;fill:rgb(0%,0%,0%);fill-opacity:1;" d="M 47.328125 61.492188 L 52.167969 61.492188 L 52.167969 62.53125 L 48.457031 62.53125 L 48.457031 64.761719 C 48.632812 64.703125 48.8125 64.65625 48.992188 64.625 C 49.171875 64.597656 49.351562 64.582031 49.53125 64.582031 C 50.546875 64.582031 51.351562 64.859375 51.945312 65.417969 C 52.539062 65.976562 52.839844 66.730469 52.839844 67.679688 C 52.839844 68.660156 52.53125 69.425781 51.921875 69.96875 C 51.3125 70.511719 50.449219 70.78125 49.339844 70.78125 C 48.957031 70.78125 48.566406 70.75 48.171875 70.683594 C 47.773438 70.621094 47.363281 70.523438 46.941406 70.390625 L 46.941406 69.152344 C 47.308594 69.351562 47.6875 69.5 48.078125 69.597656 C 48.46875 69.695312 48.878906 69.742188 49.316406 69.742188 C 50.019531 69.742188 50.578125 69.558594 50.988281 69.1875 C 51.398438 68.820312 51.605469 68.316406 51.605469 67.679688 C 51.605469 67.046875 51.398438 66.546875 50.988281 66.175781 C 50.578125 65.804688 50.019531 65.617188 49.316406 65.617188 C 48.984375 65.617188 48.65625 65.65625 48.328125 65.726562 C 48 65.800781 47.667969 65.914062 47.328125 66.070312 Z M 47.328125 61.492188 "/>
<g clip-path="url(#clip9)" clip-rule="nonzero">
<path style="fill:none;stroke-width:0.8;stroke-linecap:square;stroke-linejoin:round;stroke:rgb(69.019608%,69.019608%,69.019608%);stroke-opacity:1;stroke-miterlimit:4;" d="M 50.14375 21.640625 L 245.44375 21.640625 " transform="matrix(1.25,0,0,1.25,0,0)"/>
</g>
<path style="fill:none;stroke-width:0.8;stroke-linecap:butt;stroke-linejoin:round;stroke:rgb(0%,0%,0%);stroke-opacity:1;stroke-miterlimit:4;" d="M 0.000000000000014211 0.001467 L -3.5 0.001467 " transform="matrix(1.25,0,0,1.25,62.679687,27.048947)"/>
<path style=" stroke:none;fill-rule:nonzero;fill:rgb(0%,0%,0%);fill-opacity:1;" d="M 30.070312 23.496094 C 29.4375 23.496094 28.957031 23.808594 28.636719 24.433594 C 28.320312 25.058594 28.160156 25.996094 28.160156 27.25 C 28.160156 28.5 28.320312 29.4375 28.636719 30.0625 C 28.957031 30.6875 29.4375 31 30.070312 31 C 30.710938 31 31.1875 30.6875 31.507812 30.0625 C 31.828125 29.4375 31.988281 28.5 31.988281 27.25 C 31.988281 25.996094 31.828125 25.058594 31.507812 24.433594 C 31.1875 23.808594 30.710938 23.496094 30.070312 23.496094 Z M 30.070312 22.519531 C 31.09375 22.519531 31.871094 22.925781 32.410156 23.734375 C 32.949219 24.539062 33.21875 25.714844 33.21875 27.25 C 33.21875 28.785156 32.949219 29.957031 32.410156 30.765625 C 31.871094 31.570312 31.09375 31.976562 30.070312 31.976562 C 29.050781 31.976562 28.269531 31.570312 27.730469 30.765625 C 27.191406 29.957031 26.921875 28.785156 26.921875 27.25 C 26.921875 25.714844 27.191406 24.539062 27.730469 23.734375 C 28.269531 22.925781 29.050781 22.519531 30.070312 22.519531 Z M 30.070312 22.519531 "/>
<path style=" stroke:none;fill-rule:nonzero;fill:rgb(0%,0%,0%);fill-opacity:1;" d="M 35.386719 30.246094 L 36.675781 30.246094 L 36.675781 31.796875 L 35.386719 31.796875 Z M 35.386719 30.246094 "/>
<path style=" stroke:none;fill-rule:nonzero;fill:rgb(0%,0%,0%);fill-opacity:1;" d="M 42.152344 26.75 C 41.597656 26.75 41.160156 26.941406 40.835938 27.320312 C 40.511719 27.695312 40.351562 28.214844 40.351562 28.875 C 40.351562 29.527344 40.511719 30.046875 40.835938 30.429688 C 41.160156 30.808594 41.597656 31 42.152344 31 C 42.703125 31 43.140625 30.808594 43.464844 30.429688 C 43.789062 30.046875 43.949219 29.527344 43.949219 28.875 C 43.949219 28.214844 43.789062 27.695312 43.464844 27.320312 C 43.140625 26.941406 42.703125 26.75 42.152344 26.75 Z M 44.597656 22.886719 L 44.597656 24.007812 C 44.289062 23.863281 43.976562 23.75 43.660156 23.675781 C 43.34375 23.597656 43.03125 23.558594 42.722656 23.558594 C 41.910156 23.558594 41.289062 23.832031 40.859375 24.382812 C 40.429688 24.929688 40.183594 25.761719 40.125 26.871094 C 40.363281 26.519531 40.664062 26.246094 41.027344 26.058594 C 41.390625 25.867188 41.789062 25.773438 42.222656 25.773438 C 43.136719 25.773438 43.863281 26.050781 44.394531 26.609375 C 44.925781 27.164062 45.191406 27.917969 45.191406 28.875 C 45.191406 29.808594 44.914062 30.5625 44.359375 31.128906 C 43.804688 31.691406 43.070312 31.976562 42.152344 31.976562 C 41.097656 31.976562 40.289062 31.570312 39.734375 30.765625 C 39.175781 29.957031 38.898438 28.785156 38.898438 27.25 C 38.898438 25.8125 39.238281 24.664062 39.921875 23.804688 C 40.605469 22.949219 41.523438 22.519531 42.675781 22.519531 C 42.984375 22.519531 43.296875 22.550781 43.613281 22.613281 C 43.925781 22.671875 44.253906 22.765625 44.597656 22.886719 Z M 44.597656 22.886719 "/>
<path style=" stroke:none;fill-rule:nonzero;fill:rgb(0%,0%,0%);fill-opacity:1;" d="M 49.949219 23.496094 C 49.316406 23.496094 48.839844 23.808594 48.519531 24.433594 C 48.199219 25.058594 48.039062 25.996094 48.039062 27.25 C 48.039062 28.5 48.199219 29.4375 48.519531 30.0625 C 48.839844 30.6875 49.316406 31 49.949219 31 C 50.589844 31 51.066406 30.6875 51.386719 30.0625 C 51.707031 29.4375 51.867188 28.5 51.867188 27.25 C 51.867188 25.996094 51.707031 25.058594 51.386719 24.433594 C 51.066406 23.808594 50.589844 23.496094 49.949219 23.496094 Z M 49.949219 22.519531 C 50.972656 22.519531 51.753906 22.925781 52.292969 23.734375 C 52.832031 24.539062 53.101562 25.714844 53.101562 27.25 C 53.101562 28.785156 52.832031 29.957031 52.292969 30.765625 C 51.753906 31.570312 50.972656 31.976562 49.949219 31.976562 C 48.929688 31.976562 48.148438 31.570312 47.609375 30.765625 C 47.070312 29.957031 46.800781 28.785156 46.800781 27.25 C 46.800781 25.714844 47.070312 24.539062 47.609375 23.734375 C 48.148438 22.925781 48.929688 22.519531 49.949219 22.519531 Z M 49.949219 22.519531 "/>
<path style=" stroke:none;fill-rule:nonzero;fill:rgb(0%,0%,0%);fill-opacity:1;" d="M 9 106.519531 L 9 105.398438 L 18.496094 105.398438 L 18.496094 106.519531 Z M 9 106.519531 "/>
<path style=" stroke:none;fill-rule:nonzero;fill:rgb(0%,0%,0%);fill-opacity:1;" d="M 12.449219 100.398438 C 12.449219 101 12.683594 101.476562 13.152344 101.824219 C 13.625 102.175781 14.269531 102.351562 15.085938 102.351562 C 15.902344 102.351562 16.546875 102.175781 17.015625 101.828125 C 17.488281 101.480469 17.722656 101.003906 17.722656 100.398438 C 17.722656 99.800781 17.488281 99.324219 17.015625 98.976562 C 16.542969 98.625 15.898438 98.449219 15.085938 98.449219 C 14.277344 98.449219 13.632812 98.625 13.160156 98.976562 C 12.6875 99.324219 12.449219 99.800781 12.449219 100.398438 Z M 11.496094 100.398438 C 11.496094 99.421875 11.816406 98.65625 12.449219 98.097656 C 13.085938 97.539062 13.964844 97.257812 15.085938 97.257812 C 16.203125 97.257812 17.082031 97.539062 17.71875 98.097656 C 18.355469 98.65625 18.675781 99.421875 18.675781 100.398438 C 18.675781 101.378906 18.355469 102.148438 17.71875 102.703125 C 17.082031 103.257812 16.203125 103.535156 15.085938 103.535156 C 13.964844 103.535156 13.085938 103.257812 12.449219 102.703125 C 11.816406 102.148438 11.496094 101.378906 11.496094 100.398438 Z M 11.496094 100.398438 "/>
<path style=" stroke:none;fill-rule:nonzero;fill:rgb(0%,0%,0%);fill-opacity:1;" d="M 11.863281 91.042969 L 12.925781 91.042969 C 12.761719 91.359375 12.640625 91.6875 12.558594 92.03125 C 12.476562 92.371094 12.4375 92.726562 12.4375 93.09375 C 12.4375 93.648438 12.523438 94.066406 12.691406 94.347656 C 12.863281 94.625 13.121094 94.765625 13.460938 94.765625 C 13.722656 94.765625 13.925781 94.664062 14.074219 94.464844 C 14.222656 94.265625 14.367188 93.863281 14.5 93.261719 L 14.585938 92.878906 C 14.757812 92.082031 14.996094 91.515625 15.308594 91.179688 C 15.621094 90.84375 16.054688 90.675781 16.609375 90.675781 C 17.246094 90.675781 17.75 90.925781 18.121094 91.429688 C 18.492188 91.929688 18.675781 92.621094 18.675781 93.5 C 18.675781 93.867188 18.640625 94.246094 18.566406 94.644531 C 18.496094 95.042969 18.390625 95.460938 18.246094 95.898438 L 17.085938 95.898438 C 17.304688 95.484375 17.464844 95.074219 17.574219 94.671875 C 17.679688 94.269531 17.734375 93.871094 17.734375 93.476562 C 17.734375 92.945312 17.644531 92.539062 17.460938 92.257812 C 17.28125 91.972656 17.027344 91.828125 16.695312 91.828125 C 16.390625 91.828125 16.160156 91.929688 15.996094 92.136719 C 15.832031 92.339844 15.675781 92.792969 15.523438 93.488281 L 15.433594 93.878906 C 15.289062 94.574219 15.0625 95.078125 14.757812 95.386719 C 14.457031 95.695312 14.039062 95.851562 13.511719 95.851562 C 12.867188 95.851562 12.371094 95.621094 12.023438 95.167969 C 11.671875 94.710938 11.496094 94.0625 11.496094 93.226562 C 11.496094 92.8125 11.527344 92.421875 11.589844 92.054688 C 11.648438 91.6875 11.742188 91.351562 11.863281 91.042969 Z M 11.863281 91.042969 "/>
<path style=" stroke:none;fill-rule:nonzero;fill:rgb(0%,0%,0%);fill-opacity:1;" d="M 11.863281 84.527344 L 12.925781 84.527344 C 12.761719 84.84375 12.640625 85.175781 12.558594 85.515625 C 12.476562 85.859375 12.4375 86.210938 12.4375 86.578125 C 12.4375 87.136719 12.523438 87.554688 12.691406 87.832031 C 12.863281 88.113281 13.121094 88.25 13.460938 88.25 C 13.722656 88.25 13.925781 88.152344 14.074219 87.953125 C 14.222656 87.753906 14.367188 87.351562 14.5 86.75 L 14.585938 86.363281 C 14.757812 85.566406 14.996094 85 15.308594 84.664062 C 15.621094 84.328125 16.054688 84.160156 16.609375 84.160156 C 17.246094 84.160156 17.75 84.414062 18.121094 84.914062 C 18.492188 85.417969 18.675781 86.109375 18.675781 86.988281 C 18.675781 87.355469 18.640625 87.734375 18.566406 88.132812 C 18.496094 88.53125 18.390625 88.949219 18.246094 89.386719 L 17.085938 89.386719 C 17.304688 88.972656 17.464844 88.5625 17.574219 88.160156 C 17.679688 87.757812 17.734375 87.359375 17.734375 86.960938 C 17.734375 86.433594 17.644531 86.027344 17.460938 85.742188 C 17.28125 85.457031 17.027344 85.316406 16.695312 85.316406 C 16.390625 85.316406 16.160156 85.417969 15.996094 85.625 C 15.832031 85.828125 15.675781 86.28125 15.523438 86.976562 L 15.433594 87.367188 C 15.289062 88.0625 15.0625 88.566406 14.757812 88.875 C 14.457031 89.183594 14.039062 89.335938 13.511719 89.335938 C 12.867188 89.335938 12.371094 89.109375 12.023438 88.652344 C 11.671875 88.199219 11.496094 87.550781 11.496094 86.710938 C 11.496094 86.296875 11.527344 85.910156 11.589844 85.542969 C 11.648438 85.175781 11.742188 84.835938 11.863281 84.527344 Z M 11.863281 84.527344 "/>
<g clip-path="url(#clip10)" clip-rule="nonzero">
<path style="fill:none;stroke-width:1.5;stroke-linecap:square;stroke-linejoin:round;stroke:rgb(12.156863%,46.666667%,70.588235%);stroke-opacity:1;stroke-miterlimit:4;" d="M 11.06875 13.5 L 20.81875 60.50625 L 30.56875 79.384375 L 40.321875 89.44375 L 50.071875 95.859375 L 50.14375 95.8625 L 59.89375 100.721875 L 69.64375 104.484375 L 79.39375 107.5875 L 89.146875 110.228125 L 98.896875 112.534375 L 98.96875 112.5375 L 108.71875 115.021875 L 118.46875 117.228125 L 128.21875 119.259375 L 137.971875 121.1 L 147.721875 122.809375 L 147.79375 122.8125 L 157.54375 124.93125 L 167.29375 126.846875 L 177.04375 128.596875 L 186.796875 130.184375 L 196.546875 131.646875 L 196.61875 131.65 L 206.36875 133.559375 L 216.11875 135.275 L 225.86875 136.815625 L 235.621875 138.225 L 245.371875 139.5 L 245.44375 139.5 " transform="matrix(1.25,0,0,1.25,0,0)"/>
</g>
<path style="fill:none;stroke-width:0.8;stroke-linecap:square;stroke-linejoin:miter;stroke:rgb(0%,0%,0%);stroke-opacity:1;stroke-miterlimit:4;" d="M 50.14375 145.8 L 50.14375 7.2 " transform="matrix(1.25,0,0,1.25,0,0)"/>
<path style="fill:none;stroke-width:0.8;stroke-linecap:square;stroke-linejoin:miter;stroke:rgb(0%,0%,0%);stroke-opacity:1;stroke-miterlimit:4;" d="M 245.44375 145.8 L 245.44375 7.2 " transform="matrix(1.25,0,0,1.25,0,0)"/>
<path style="fill:none;stroke-width:0.8;stroke-linecap:square;stroke-linejoin:miter;stroke:rgb(0%,0%,0%);stroke-opacity:1;stroke-miterlimit:4;" d="M 50.14375 145.8 L 245.44375 145.8 " transform="matrix(1.25,0,0,1.25,0,0)"/>
<path style="fill:none;stroke-width:0.8;stroke-linecap:square;stroke-linejoin:miter;stroke:rgb(0%,0%,0%);stroke-opacity:1;stroke-miterlimit:4;" d="M 50.14375 7.2 L 245.44375 7.2 " transform="matrix(1.25,0,0,1.25,0,0)"/>
</g>
</svg>
