<?xml version="1.0" encoding="UTF-8"?>
<svg xmlns="http://www.w3.org/2000/svg" xmlns:xlink="http://www.w3.org/1999/xlink" width="328pt" height="229pt" viewBox="0 0 328 229" version="1.1">
<defs>
<clipPath id="clip1">
  <path d="M 106 9 L 109 9 L 109 182.25 L 106 182.25 Z M 106 9 "/>
</clipPath>
<clipPath id="clip2">
  <path d="M 156 9 L 159 9 L 159 182.25 L 156 182.25 Z M 156 9 "/>
</clipPath>
<clipPath id="clip3">
  <path d="M 206 9 L 208 9 L 208 182.25 L 206 182.25 Z M 206 9 "/>
</clipPath>
<clipPath id="clip4">
  <path d="M 256 9 L 258 9 L 258 182.25 L 256 182.25 Z M 256 9 "/>
</clipPath>
<clipPath id="clip5">
  <path d="M 306 9 L 306.804688 9 L 306.804688 182.25 L 306 182.25 Z M 306 9 "/>
</clipPath>
<clipPath id="clip6">
  <path d="M 62.679688 159 L 306.804688 159 L 306.804688 161 L 62.679688 161 Z M 62.679688 159 "/>
</clipPath>
<clipPath id="clip7">
  <path d="M 62.679688 127 L 306.804688 127 L 306.804688 130 L 62.679688 130 Z M 62.679688 127 "/>
</clipPath>
<clipPath id="clip8">
  <path d="M 62.679688 95 L 306.804688 95 L 306.804688 98 L 62.679688 98 Z M 62.679688 95 "/>
</clipPath>
<clipPath id="clip9">
  <path d="M 62.679688 63 L 306.804688 63 L 306.804688 66 L 62.679688 66 Z M 62.679688 63 "/>
</clipPath>
<clipPath id="clip10">
  <path d="M 62.679688 32 L 306.804688 32 L 306.804688 34 L 62.679688 34 Z M 62.679688 32 "/>
</clipPath>
<clipPath id="clip11">
  <path d="M 62.679688 15 L 306.804688 15 L 306.804688 176 L 62.679688 176 Z M 62.679688 15 "/>
</clipPath>
<filter id="alpha" filterUnits="objectBoundingBox" x="0%" y="0%" width="100%" height="100%">
  <feColorMatrix type="matrix" in="SourceGraphic" values="0 0 0 0 1 0 0 0 0 1 0 0 0 0 1 0 0 0 1 0"/>
</filter>
<mask id="mask0">
  <g filter="url(#alpha)">
<rect x="0" y="0" width="328" height="229" style="fill:rgb(0%,0%,0%);fill-opacity:0.8;stroke:none;"/>
  </g>
</mask>
<clipPath id="clip12">
  <rect x="0" y="0" width="328" height="229"/>
</clipPath>
<g id="surface5" clip-path="url(#clip12)">
<path style="fill-rule:nonzero;fill:rgb(100%,100%,100%);fill-opacity:1;stroke-width:1;stroke-linecap:butt;stroke-linejoin:miter;stroke:rgb(80%,80%,80%);stroke-opacity:1;stroke-miterlimit:4;" d="M 183.16875 29.878125 L 238.44375 29.878125 C 239.778125 29.878125 240.44375 29.2125 240.44375 27.878125 L 240.44375 14.2 C 240.44375 12.865625 239.778125 12.2 238.44375 12.2 L 183.16875 12.2 C 181.834375 12.2 181.16875 12.865625 181.16875 14.2 L 181.16875 27.878125 C 181.16875 29.2125 181.834375 29.878125 183.16875 29.878125 Z M 183.16875 29.878125 " transform="matrix(1.25,0,0,1.25,0,0)"/>
</g>
</defs>
<g id="surface1">
<path style=" stroke:none;fill-rule:nonzero;fill:rgb(100%,100%,100%);fill-opacity:1;" d="M 0 229.195312 L 327.734375 229.195312 L 327.734375 0 L 0 0 Z M 0 229.195312 "/>
<path style=" stroke:none;fill-rule:nonzero;fill:rgb(100%,100%,100%);fill-opacity:1;" d="M 62.679688 182.25 L 306.804688 182.25 L 306.804688 9 L 62.679688 9 Z M 62.679688 182.25 "/>
<g clip-path="url(#clip1)" clip-rule="nonzero">
<path style="fill:none;stroke-width:0.8;stroke-linecap:square;stroke-linejoin:round;stroke:rgb(69.019608%,69.019608%,69.019608%);stroke-opacity:1;stroke-miterlimit:4;" d="M 86.015625 145.8 L 86.015625 7.2 " transform="matrix(1.25,0,0,1.25,0,0)"/>
</g>
<path style="fill:none;stroke-width:0.8;stroke-linecap:butt;stroke-linejoin:round;stroke:rgb(0%,0%,0%);stroke-opacity:1;stroke-miterlimit:4;" d="M 0.000446 0 L 0.000446 3.5 " transform="matrix(1.25,0,0,1.25,107.518974,182.25)"/>
<path style=" stroke:none;fill-rule:nonzero;fill:rgb(0%,0%,0%);fill-opacity:1;" d="M 97.140625 199.460938 L 99.152344 199.460938 L 99.152344 192.507812 L 96.960938 192.949219 L 96.960938 191.824219 L 99.140625 191.386719 L 100.375 191.386719 L 100.375 199.460938 L 102.386719 199.460938 L 102.386719 200.5 L 97.140625 200.5 Z M 97.140625 199.460938 "/>
<path style=" stroke:none;fill-rule:nonzero;fill:rgb(0%,0%,0%);fill-opacity:1;" d="M 107.515625 192.199219 C 106.878906 192.199219 106.402344 192.511719 106.082031 193.136719 C 105.765625 193.757812 105.605469 194.699219 105.605469 195.953125 C 105.605469 197.199219 105.765625 198.136719 106.082031 198.761719 C 106.402344 199.386719 106.878906 199.699219 107.515625 199.699219 C 108.152344 199.699219 108.632812 199.386719 108.953125 198.761719 C 109.273438 198.136719 109.433594 197.199219 109.433594 195.953125 C 109.433594 194.699219 109.273438 193.757812 108.953125 193.136719 C 108.632812 192.511719 108.152344 192.199219 107.515625 192.199219 Z M 107.515625 191.222656 C 108.535156 191.222656 109.316406 191.625 109.855469 192.433594 C 110.394531 193.242188 110.664062 194.414062 110.664062 195.953125 C 110.664062 197.484375 110.394531 198.65625 109.855469 199.464844 C 109.316406 200.273438 108.535156 200.675781 107.515625 200.675781 C 106.492188 200.675781 105.714844 200.273438 105.175781 199.464844 C 104.636719 198.65625 104.367188 197.484375 104.367188 195.953125 C 104.367188 194.414062 104.636719 193.242188 105.175781 192.433594 C 105.714844 191.625 106.492188 191.222656 107.515625 191.222656 Z M 107.515625 191.222656 "/>
<path style=" stroke:none;fill-rule:nonzero;fill:rgb(0%,0%,0%);fill-opacity:1;" d="M 115.46875 192.199219 C 114.832031 192.199219 114.355469 192.511719 114.035156 193.136719 C 113.71875 193.757812 113.558594 194.699219 113.558594 195.953125 C 113.558594 197.199219 113.71875 198.136719 114.035156 198.761719 C 114.355469 199.386719 114.832031 199.699219 115.46875 199.699219 C 116.105469 199.699219 116.585938 199.386719 116.90625 198.761719 C 117.226562 198.136719 117.386719 197.199219 117.386719 195.953125 C 117.386719 194.699219 117.226562 193.757812 116.90625 193.136719 C 116.585938 192.511719 116.105469 192.199219 115.46875 192.199219 Z M 115.46875 191.222656 C 116.488281 191.222656 117.269531 191.625 117.808594 192.433594 C 118.347656 193.242188 118.617188 194.414062 118.617188 195.953125 C 118.617188 197.484375 118.347656 198.65625 117.808594 199.464844 C 117.269531 200.273438 116.488281 200.675781 115.46875 200.675781 C 114.445312 200.675781 113.667969 200.273438 113.128906 199.464844 C 112.589844 198.65625 112.320312 197.484375 112.320312 195.953125 C 112.320312 194.414062 112.589844 193.242188 113.128906 192.433594 C 113.667969 191.625 114.445312 191.222656 115.46875 191.222656 Z M 115.46875 191.222656 "/>
<g clip-path="url(#clip2)" clip-rule="nonzero">
<path style="fill:none;stroke-width:0.8;stroke-linecap:square;stroke-linejoin:round;stroke:rgb(69.019608%,69.019608%,69.019608%);stroke-opacity:1;stroke-miterlimit:4;" d="M 125.871875 145.8 L 125.871875 7.2 " transform="matrix(1.25,0,0,1.25,0,0)"/>
</g>
<path style="fill:none;stroke-width:0.8;stroke-linecap:butt;stroke-linejoin:round;stroke:rgb(0%,0%,0%);stroke-opacity:1;stroke-miterlimit:4;" d="M -0.000446 0 L -0.000446 3.5 " transform="matrix(1.25,0,0,1.25,157.340401,182.25)"/>
<path style=" stroke:none;fill-rule:nonzero;fill:rgb(0%,0%,0%);fill-opacity:1;" d="M 147.808594 199.460938 L 152.113281 199.460938 L 152.113281 200.5 L 146.328125 200.5 L 146.328125 199.460938 C 146.792969 198.976562 147.429688 198.328125 148.238281 197.511719 C 149.046875 196.695312 149.554688 196.167969 149.761719 195.933594 C 150.15625 195.488281 150.433594 195.113281 150.589844 194.808594 C 150.746094 194.5 150.824219 194.199219 150.824219 193.902344 C 150.824219 193.417969 150.65625 193.023438 150.316406 192.71875 C 149.976562 192.410156 149.53125 192.257812 148.988281 192.257812 C 148.601562 192.257812 148.191406 192.324219 147.761719 192.460938 C 147.332031 192.59375 146.875 192.796875 146.386719 193.070312 L 146.386719 191.824219 C 146.882812 191.625 147.347656 191.476562 147.777344 191.375 C 148.210938 191.273438 148.605469 191.222656 148.964844 191.222656 C 149.90625 191.222656 150.660156 191.457031 151.222656 191.929688 C 151.78125 192.402344 152.0625 193.03125 152.0625 193.820312 C 152.0625 194.195312 151.992188 194.550781 151.851562 194.886719 C 151.710938 195.222656 151.457031 195.617188 151.085938 196.074219 C 150.984375 196.191406 150.660156 196.53125 150.117188 197.097656 C 149.570312 197.660156 148.800781 198.449219 147.808594 199.460938 Z M 147.808594 199.460938 "/>
<path style=" stroke:none;fill-rule:nonzero;fill:rgb(0%,0%,0%);fill-opacity:1;" d="M 157.335938 192.199219 C 156.703125 192.199219 156.226562 192.511719 155.90625 193.136719 C 155.585938 193.757812 155.425781 194.699219 155.425781 195.953125 C 155.425781 197.199219 155.585938 198.136719 155.90625 198.761719 C 156.226562 199.386719 156.703125 199.699219 157.335938 199.699219 C 157.976562 199.699219 158.453125 199.386719 158.773438 198.761719 C 159.09375 198.136719 159.253906 197.199219 159.253906 195.953125 C 159.253906 194.699219 159.09375 193.757812 158.773438 193.136719 C 158.453125 192.511719 157.976562 192.199219 157.335938 192.199219 Z M 157.335938 191.222656 C 158.359375 191.222656 159.140625 191.625 159.679688 192.433594 C 160.21875 193.242188 160.488281 194.414062 160.488281 195.953125 C 160.488281 197.484375 160.21875 198.65625 159.679688 199.464844 C 159.140625 200.273438 158.359375 200.675781 157.335938 200.675781 C 156.316406 200.675781 155.535156 200.273438 154.996094 199.464844 C 154.457031 198.65625 154.1875 197.484375 154.1875 195.953125 C 154.1875 194.414062 154.457031 193.242188 154.996094 192.433594 C 155.535156 191.625 156.316406 191.222656 157.335938 191.222656 Z M 157.335938 191.222656 "/>
<path style=" stroke:none;fill-rule:nonzero;fill:rgb(0%,0%,0%);fill-opacity:1;" d="M 165.289062 192.199219 C 164.65625 192.199219 164.179688 192.511719 163.859375 193.136719 C 163.539062 193.757812 163.378906 194.699219 163.378906 195.953125 C 163.378906 197.199219 163.539062 198.136719 163.859375 198.761719 C 164.179688 199.386719 164.65625 199.699219 165.289062 199.699219 C 165.929688 199.699219 166.40625 199.386719 166.726562 198.761719 C 167.046875 198.136719 167.207031 197.199219 167.207031 195.953125 C 167.207031 194.699219 167.046875 193.757812 166.726562 193.136719 C 166.40625 192.511719 165.929688 192.199219 165.289062 192.199219 Z M 165.289062 191.222656 C 166.3125 191.222656 167.09375 191.625 167.632812 192.433594 C 168.171875 193.242188 168.441406 194.414062 168.441406 195.953125 C 168.441406 197.484375 168.171875 198.65625 167.632812 199.464844 C 167.09375 200.273438 166.3125 200.675781 165.289062 200.675781 C 164.269531 200.675781 163.488281 200.273438 162.949219 199.464844 C 162.410156 198.65625 162.140625 197.484375 162.140625 195.953125 C 162.140625 194.414062 162.410156 193.242188 162.949219 192.433594 C 163.488281 191.625 164.269531 191.222656 165.289062 191.222656 Z M 165.289062 191.222656 "/>
<g clip-path="url(#clip3)" clip-rule="nonzero">
<path style="fill:none;stroke-width:0.8;stroke-linecap:square;stroke-linejoin:round;stroke:rgb(69.019608%,69.019608%,69.019608%);stroke-opacity:1;stroke-miterlimit:4;" d="M 165.728125 145.8 L 165.728125 7.2 " transform="matrix(1.25,0,0,1.25,0,0)"/>
</g>
<path style="fill:none;stroke-width:0.8;stroke-linecap:butt;stroke-linejoin:round;stroke:rgb(0%,0%,0%);stroke-opacity:1;stroke-miterlimit:4;" d="M -0.001339 0 L -0.001339 3.5 " transform="matrix(1.25,0,0,1.25,207.16183,182.25)"/>
<path style=" stroke:none;fill-rule:nonzero;fill:rgb(0%,0%,0%);fill-opacity:1;" d="M 200.304688 195.585938 C 200.894531 195.710938 201.355469 195.972656 201.683594 196.375 C 202.015625 196.773438 202.183594 197.265625 202.183594 197.851562 C 202.183594 198.75 201.875 199.445312 201.253906 199.9375 C 200.636719 200.429688 199.757812 200.675781 198.617188 200.675781 C 198.238281 200.675781 197.84375 200.636719 197.4375 200.5625 C 197.035156 200.488281 196.617188 200.375 196.183594 200.222656 L 196.183594 199.035156 C 196.527344 199.234375 196.898438 199.382812 197.304688 199.484375 C 197.714844 199.585938 198.140625 199.636719 198.582031 199.636719 C 199.355469 199.636719 199.945312 199.484375 200.347656 199.179688 C 200.753906 198.875 200.957031 198.433594 200.957031 197.851562 C 200.957031 197.3125 200.769531 196.890625 200.390625 196.589844 C 200.015625 196.285156 199.492188 196.136719 198.820312 196.136719 L 197.757812 196.136719 L 197.757812 195.121094 L 198.871094 195.121094 C 199.476562 195.121094 199.941406 195 200.261719 194.757812 C 200.582031 194.515625 200.742188 194.167969 200.742188 193.710938 C 200.742188 193.242188 200.578125 192.886719 200.246094 192.636719 C 199.914062 192.382812 199.441406 192.257812 198.820312 192.257812 C 198.484375 192.257812 198.121094 192.296875 197.734375 192.371094 C 197.347656 192.441406 196.921875 192.554688 196.457031 192.710938 L 196.457031 191.613281 C 196.925781 191.480469 197.367188 191.382812 197.773438 191.320312 C 198.183594 191.253906 198.570312 191.222656 198.929688 191.222656 C 199.867188 191.222656 200.609375 191.433594 201.152344 191.859375 C 201.699219 192.285156 201.96875 192.859375 201.96875 193.582031 C 201.96875 194.085938 201.824219 194.515625 201.535156 194.863281 C 201.246094 195.210938 200.835938 195.449219 200.304688 195.585938 Z M 200.304688 195.585938 "/>
<path style=" stroke:none;fill-rule:nonzero;fill:rgb(0%,0%,0%);fill-opacity:1;" d="M 207.15625 192.199219 C 206.523438 192.199219 206.046875 192.511719 205.726562 193.136719 C 205.40625 193.757812 205.246094 194.699219 205.246094 195.953125 C 205.246094 197.199219 205.40625 198.136719 205.726562 198.761719 C 206.046875 199.386719 206.523438 199.699219 207.15625 199.699219 C 207.796875 199.699219 208.277344 199.386719 208.59375 198.761719 C 208.914062 198.136719 209.074219 197.199219 209.074219 195.953125 C 209.074219 194.699219 208.914062 193.757812 208.59375 193.136719 C 208.277344 192.511719 207.796875 192.199219 207.15625 192.199219 Z M 207.15625 191.222656 C 208.179688 191.222656 208.960938 191.625 209.5 192.433594 C 210.039062 193.242188 210.308594 194.414062 210.308594 195.953125 C 210.308594 197.484375 210.039062 198.65625 209.5 199.464844 C 208.960938 200.273438 208.179688 200.675781 207.15625 200.675781 C 206.136719 200.675781 205.355469 200.273438 204.816406 199.464844 C 204.277344 198.65625 204.007812 197.484375 204.007812 195.953125 C 204.007812 194.414062 204.277344 193.242188 204.816406 192.433594 C 205.355469 191.625 206.136719 191.222656 207.15625 191.222656 Z M 207.15625 191.222656 "/>
<path style=" stroke:none;fill-rule:nonzero;fill:rgb(0%,0%,0%);fill-opacity:1;" d="M 215.109375 192.199219 C 214.476562 192.199219 214 192.511719 213.679688 193.136719 C 213.359375 193.757812 213.199219 194.699219 213.199219 195.953125 C 213.199219 197.199219 213.359375 198.136719 213.679688 198.761719 C 214 199.386719 214.476562 199.699219 215.109375 199.699219 C 215.75 199.699219 216.230469 199.386719 216.546875 198.761719 C 216.867188 198.136719 217.027344 197.199219 217.027344 195.953125 C 217.027344 194.699219 216.867188 193.757812 216.546875 193.136719 C 216.230469 192.511719 215.75 192.199219 215.109375 192.199219 Z M 215.109375 191.222656 C 216.132812 191.222656 216.914062 191.625 217.453125 192.433594 C 217.992188 193.242188 218.261719 194.414062 218.261719 195.953125 C 218.261719 197.484375 217.992188 198.65625 217.453125 199.464844 C 216.914062 200.273438 216.132812 200.675781 215.109375 200.675781 C 214.089844 200.675781 213.308594 200.273438 212.769531 199.464844 C 212.230469 198.65625 211.960938 197.484375 211.960938 195.953125 C 211.960938 194.414062 212.230469 193.242188 212.769531 192.433594 C 213.308594 191.625 214.089844 191.222656 215.109375 191.222656 Z M 215.109375 191.222656 "/>
<g clip-path="url(#clip4)" clip-rule="nonzero">
<path style="fill:none;stroke-width:0.8;stroke-linecap:square;stroke-linejoin:round;stroke:rgb(69.019608%,69.019608%,69.019608%);stroke-opacity:1;stroke-miterlimit:4;" d="M 205.5875 145.8 L 205.5875 7.2 " transform="matrix(1.25,0,0,1.25,0,0)"/>
</g>
<path style="fill:none;stroke-width:0.8;stroke-linecap:butt;stroke-linejoin:round;stroke:rgb(0%,0%,0%);stroke-opacity:1;stroke-miterlimit:4;" d="M 0.000893 0 L 0.000893 3.5 " transform="matrix(1.25,0,0,1.25,256.983259,182.25)"/>
<path style=" stroke:none;fill-rule:nonzero;fill:rgb(0%,0%,0%);fill-opacity:1;" d="M 249.777344 192.460938 L 246.664062 197.324219 L 249.777344 197.324219 Z M 249.453125 191.386719 L 251.003906 191.386719 L 251.003906 197.324219 L 252.304688 197.324219 L 252.304688 198.351562 L 251.003906 198.351562 L 251.003906 200.5 L 249.777344 200.5 L 249.777344 198.351562 L 245.664062 198.351562 L 245.664062 197.160156 Z M 249.453125 191.386719 "/>
<path style=" stroke:none;fill-rule:nonzero;fill:rgb(0%,0%,0%);fill-opacity:1;" d="M 256.980469 192.199219 C 256.34375 192.199219 255.867188 192.511719 255.546875 193.136719 C 255.226562 193.757812 255.070312 194.699219 255.070312 195.953125 C 255.070312 197.199219 255.226562 198.136719 255.546875 198.761719 C 255.867188 199.386719 256.34375 199.699219 256.980469 199.699219 C 257.617188 199.699219 258.097656 199.386719 258.417969 198.761719 C 258.738281 198.136719 258.898438 197.199219 258.898438 195.953125 C 258.898438 194.699219 258.738281 193.757812 258.417969 193.136719 C 258.097656 192.511719 257.617188 192.199219 256.980469 192.199219 Z M 256.980469 191.222656 C 258 191.222656 258.78125 191.625 259.320312 192.433594 C 259.859375 193.242188 260.128906 194.414062 260.128906 195.953125 C 260.128906 197.484375 259.859375 198.65625 259.320312 199.464844 C 258.78125 200.273438 258 200.675781 256.980469 200.675781 C 255.957031 200.675781 255.179688 200.273438 254.640625 199.464844 C 254.101562 198.65625 253.832031 197.484375 253.832031 195.953125 C 253.832031 194.414062 254.101562 193.242188 254.640625 192.433594 C 255.179688 191.625 255.957031 191.222656 256.980469 191.222656 Z M 256.980469 191.222656 "/>
<path style=" stroke:none;fill-rule:nonzero;fill:rgb(0%,0%,0%);fill-opacity:1;" d="M 264.933594 192.199219 C 264.296875 192.199219 263.820312 192.511719 263.5 193.136719 C 263.179688 193.757812 263.023438 194.699219 263.023438 195.953125 C 263.023438 197.199219 263.179688 198.136719 263.5 198.761719 C 263.820312 199.386719 264.296875 199.699219 264.933594 199.699219 C 265.570312 199.699219 266.050781 199.386719 266.371094 198.761719 C 266.691406 198.136719 266.851562 197.199219 266.851562 195.953125 C 266.851562 194.699219 266.691406 193.757812 266.371094 193.136719 C 266.050781 192.511719 265.570312 192.199219 264.933594 192.199219 Z M 264.933594 191.222656 C 265.953125 191.222656 266.734375 191.625 267.273438 192.433594 C 267.8125 193.242188 268.082031 194.414062 268.082031 195.953125 C 268.082031 197.484375 267.8125 198.65625 267.273438 199.464844 C 266.734375 200.273438 265.953125 200.675781 264.933594 200.675781 C 263.910156 200.675781 263.132812 200.273438 262.59375 199.464844 C 262.054688 198.65625 261.785156 197.484375 261.785156 195.953125 C 261.785156 194.414062 262.054688 193.242188 262.59375 192.433594 C 263.132812 191.625 263.910156 191.222656 264.933594 191.222656 Z M 264.933594 191.222656 "/>
<g clip-path="url(#clip5)" clip-rule="nonzero">
<path style="fill:none;stroke-width:0.8;stroke-linecap:square;stroke-linejoin:round;stroke:rgb(69.019608%,69.019608%,69.019608%);stroke-opacity:1;stroke-miterlimit:4;" d="M 245.44375 145.8 L 245.44375 7.2 " transform="matrix(1.25,0,0,1.25,0,0)"/>
</g>
<path style="fill:none;stroke-width:0.8;stroke-linecap:butt;stroke-linejoin:round;stroke:rgb(0%,0%,0%);stroke-opacity:1;stroke-miterlimit:4;" d="M 0 0 L 0 3.5 " transform="matrix(1.25,0,0,1.25,306.804688,182.25)"/>
<path style=" stroke:none;fill-rule:nonzero;fill:rgb(0%,0%,0%);fill-opacity:1;" d="M 296.226562 191.386719 L 301.0625 191.386719 L 301.0625 192.425781 L 297.351562 192.425781 L 297.351562 194.65625 C 297.53125 194.59375 297.710938 194.550781 297.890625 194.519531 C 298.070312 194.488281 298.25 194.476562 298.429688 194.476562 C 299.445312 194.476562 300.25 194.753906 300.84375 195.3125 C 301.4375 195.867188 301.734375 196.621094 301.734375 197.574219 C 301.734375 198.554688 301.429688 199.316406 300.820312 199.863281 C 300.210938 200.40625 299.347656 200.675781 298.238281 200.675781 C 297.855469 200.675781 297.464844 200.644531 297.070312 200.578125 C 296.671875 200.511719 296.261719 200.414062 295.839844 200.285156 L 295.839844 199.046875 C 296.207031 199.246094 296.585938 199.394531 296.976562 199.492188 C 297.367188 199.589844 297.777344 199.636719 298.210938 199.636719 C 298.917969 199.636719 299.476562 199.453125 299.882812 199.082031 C 300.296875 198.710938 300.5 198.210938 300.5 197.574219 C 300.5 196.941406 300.296875 196.4375 299.882812 196.070312 C 299.476562 195.699219 298.917969 195.511719 298.210938 195.511719 C 297.882812 195.511719 297.554688 195.546875 297.226562 195.621094 C 296.898438 195.695312 296.566406 195.808594 296.226562 195.964844 Z M 296.226562 191.386719 "/>
<path style=" stroke:none;fill-rule:nonzero;fill:rgb(0%,0%,0%);fill-opacity:1;" d="M 306.800781 192.199219 C 306.167969 192.199219 305.6875 192.511719 305.367188 193.136719 C 305.050781 193.757812 304.890625 194.699219 304.890625 195.953125 C 304.890625 197.199219 305.050781 198.136719 305.367188 198.761719 C 305.6875 199.386719 306.167969 199.699219 306.800781 199.699219 C 307.441406 199.699219 307.917969 199.386719 308.238281 198.761719 C 308.558594 198.136719 308.71875 197.199219 308.71875 195.953125 C 308.71875 194.699219 308.558594 193.757812 308.238281 193.136719 C 307.917969 192.511719 307.441406 192.199219 306.800781 192.199219 Z M 306.800781 191.222656 C 307.824219 191.222656 308.601562 191.625 309.140625 192.433594 C 309.679688 193.242188 309.949219 194.414062 309.949219 195.953125 C 309.949219 197.484375 309.679688 198.65625 309.140625 199.464844 C 308.601562 200.273438 307.824219 200.675781 306.800781 200.675781 C 305.78125 200.675781 305 200.273438 304.460938 199.464844 C 303.921875 198.65625 303.652344 197.484375 303.652344 195.953125 C 303.652344 194.414062 303.921875 193.242188 304.460938 192.433594 C 305 191.625 305.78125 191.222656 306.800781 191.222656 Z M 306.800781 191.222656 "/>
<path style=" stroke:none;fill-rule:nonzero;fill:rgb(0%,0%,0%);fill-opacity:1;" d="M 314.753906 192.199219 C 314.121094 192.199219 313.640625 192.511719 313.320312 193.136719 C 313.003906 193.757812 312.84375 194.699219 312.84375 195.953125 C 312.84375 197.199219 313.003906 198.136719 313.320312 198.761719 C 313.640625 199.386719 314.121094 199.699219 314.753906 199.699219 C 315.394531 199.699219 315.871094 199.386719 316.191406 198.761719 C 316.511719 198.136719 316.671875 197.199219 316.671875 195.953125 C 316.671875 194.699219 316.511719 193.757812 316.191406 193.136719 C 315.871094 192.511719 315.394531 192.199219 314.753906 192.199219 Z M 314.753906 191.222656 C 315.777344 191.222656 316.554688 191.625 317.09375 192.433594 C 317.632812 193.242188 317.902344 194.414062 317.902344 195.953125 C 317.902344 197.484375 317.632812 198.65625 317.09375 199.464844 C 316.554688 200.273438 315.777344 200.675781 314.753906 200.675781 C 313.734375 200.675781 312.953125 200.273438 312.414062 199.464844 C 311.875 198.65625 311.605469 197.484375 311.605469 195.953125 C 311.605469 194.414062 311.875 193.242188 312.414062 192.433594 C 312.953125 191.625 313.734375 191.222656 314.753906 191.222656 Z M 314.753906 191.222656 "/>
<path style=" stroke:none;fill-rule:nonzero;fill:rgb(0%,0%,0%);fill-opacity:1;" d="M 172.734375 213.898438 L 172.734375 214.445312 L 167.570312 214.445312 C 167.617188 215.21875 167.851562 215.808594 168.265625 216.214844 C 168.683594 216.617188 169.265625 216.820312 170.007812 216.820312 C 170.441406 216.820312 170.859375 216.769531 171.265625 216.664062 C 171.667969 216.558594 172.070312 216.398438 172.46875 216.1875 L 172.46875 217.25 C 172.066406 217.417969 171.652344 217.550781 171.230469 217.640625 C 170.808594 217.730469 170.378906 217.773438 169.945312 217.773438 C 168.851562 217.773438 167.988281 217.457031 167.351562 216.824219 C 166.714844 216.1875 166.398438 215.328125 166.398438 214.246094 C 166.398438 213.125 166.699219 212.238281 167.304688 211.582031 C 167.90625 210.925781 168.722656 210.597656 169.75 210.597656 C 170.667969 210.597656 171.394531 210.890625 171.929688 211.484375 C 172.464844 212.074219 172.734375 212.878906 172.734375 213.898438 Z M 171.609375 213.566406 C 171.601562 212.953125 171.429688 212.464844 171.09375 212.097656 C 170.757812 211.730469 170.3125 211.546875 169.757812 211.546875 C 169.132812 211.546875 168.632812 211.722656 168.257812 212.078125 C 167.878906 212.433594 167.664062 212.929688 167.605469 213.574219 Z M 171.609375 213.566406 "/>
<path style=" stroke:none;fill-rule:nonzero;fill:rgb(0%,0%,0%);fill-opacity:1;" d="M 175.660156 216.570312 L 175.660156 220.195312 L 174.53125 220.195312 L 174.53125 210.761719 L 175.660156 210.761719 L 175.660156 211.796875 C 175.898438 211.390625 176.195312 211.089844 176.554688 210.894531 C 176.917969 210.695312 177.347656 210.597656 177.847656 210.597656 C 178.675781 210.597656 179.351562 210.925781 179.871094 211.585938 C 180.390625 212.242188 180.648438 213.109375 180.648438 214.183594 C 180.648438 215.257812 180.390625 216.125 179.871094 216.785156 C 179.351562 217.445312 178.675781 217.773438 177.847656 217.773438 C 177.347656 217.773438 176.917969 217.675781 176.554688 217.476562 C 176.195312 217.277344 175.898438 216.976562 175.660156 216.570312 Z M 179.484375 214.183594 C 179.484375 213.359375 179.3125 212.710938 178.972656 212.242188 C 178.632812 211.769531 178.167969 211.535156 177.574219 211.535156 C 176.976562 211.535156 176.511719 211.769531 176.171875 212.242188 C 175.832031 212.710938 175.660156 213.359375 175.660156 214.183594 C 175.660156 215.007812 175.832031 215.65625 176.171875 216.128906 C 176.511719 216.597656 176.976562 216.832031 177.574219 216.832031 C 178.167969 216.832031 178.632812 216.597656 178.972656 216.128906 C 179.3125 215.65625 179.484375 215.007812 179.484375 214.183594 Z M 179.484375 214.183594 "/>
<path style=" stroke:none;fill-rule:nonzero;fill:rgb(0%,0%,0%);fill-opacity:1;" d="M 185.15625 211.546875 C 184.554688 211.546875 184.082031 211.78125 183.730469 212.253906 C 183.378906 212.722656 183.203125 213.367188 183.203125 214.183594 C 183.203125 215 183.378906 215.644531 183.726562 216.117188 C 184.074219 216.585938 184.554688 216.820312 185.15625 216.820312 C 185.757812 216.820312 186.230469 216.585938 186.578125 216.113281 C 186.929688 215.640625 187.105469 214.996094 187.105469 214.183594 C 187.105469 213.375 186.929688 212.730469 186.578125 212.257812 C 186.230469 211.785156 185.757812 211.546875 185.15625 211.546875 Z M 185.15625 210.597656 C 186.132812 210.597656 186.902344 210.914062 187.460938 211.550781 C 188.015625 212.183594 188.296875 213.0625 188.296875 214.183594 C 188.296875 215.300781 188.015625 216.179688 187.460938 216.820312 C 186.902344 217.457031 186.132812 217.773438 185.15625 217.773438 C 184.179688 217.773438 183.410156 217.457031 182.851562 216.820312 C 182.296875 216.179688 182.023438 215.300781 182.023438 214.183594 C 182.023438 213.0625 182.296875 212.183594 182.851562 211.550781 C 183.410156 210.914062 184.179688 210.597656 185.15625 210.597656 Z M 185.15625 210.597656 "/>
<path style=" stroke:none;fill-rule:nonzero;fill:rgb(0%,0%,0%);fill-opacity:1;" d="M 195.078125 211.023438 L 195.078125 212.074219 C 194.757812 211.898438 194.441406 211.765625 194.121094 211.679688 C 193.804688 211.589844 193.480469 211.546875 193.15625 211.546875 C 192.425781 211.546875 191.859375 211.777344 191.457031 212.242188 C 191.054688 212.703125 190.851562 213.347656 190.851562 214.183594 C 190.851562 215.019531 191.054688 215.667969 191.457031 216.128906 C 191.859375 216.589844 192.425781 216.820312 193.15625 216.820312 C 193.480469 216.820312 193.804688 216.777344 194.121094 216.691406 C 194.441406 216.601562 194.757812 216.472656 195.078125 216.296875 L 195.078125 217.335938 C 194.761719 217.480469 194.4375 217.589844 194.101562 217.664062 C 193.769531 217.738281 193.410156 217.773438 193.03125 217.773438 C 192.003906 217.773438 191.183594 217.449219 190.578125 216.804688 C 189.972656 216.15625 189.667969 215.28125 189.667969 214.183594 C 189.667969 213.070312 189.976562 212.191406 190.585938 211.554688 C 191.199219 210.914062 192.039062 210.597656 193.105469 210.597656 C 193.453125 210.597656 193.789062 210.632812 194.117188 210.703125 C 194.449219 210.773438 194.765625 210.878906 195.078125 211.023438 Z M 195.078125 211.023438 "/>
<path style=" stroke:none;fill-rule:nonzero;fill:rgb(0%,0%,0%);fill-opacity:1;" d="M 202.714844 213.46875 L 202.714844 217.597656 L 201.589844 217.597656 L 201.589844 213.507812 C 201.589844 212.859375 201.464844 212.375 201.210938 212.054688 C 200.960938 211.734375 200.582031 211.574219 200.078125 211.574219 C 199.46875 211.574219 198.992188 211.765625 198.640625 212.152344 C 198.292969 212.539062 198.117188 213.066406 198.117188 213.734375 L 198.117188 217.597656 L 196.988281 217.597656 L 196.988281 208.097656 L 198.117188 208.097656 L 198.117188 211.824219 C 198.386719 211.410156 198.703125 211.105469 199.066406 210.902344 C 199.429688 210.699219 199.851562 210.597656 200.328125 210.597656 C 201.113281 210.597656 201.707031 210.839844 202.109375 211.324219 C 202.511719 211.808594 202.714844 212.523438 202.714844 213.46875 Z M 202.714844 213.46875 "/>
<g clip-path="url(#clip6)" clip-rule="nonzero">
<path style="fill:none;stroke-width:0.8;stroke-linecap:square;stroke-linejoin:round;stroke:rgb(69.019608%,69.019608%,69.019608%);stroke-opacity:1;stroke-miterlimit:4;" d="M 50.14375 128.221875 L 245.44375 128.221875 " transform="matrix(1.25,0,0,1.25,0,0)"/>
</g>
<path style="fill:none;stroke-width:0.8;stroke-linecap:butt;stroke-linejoin:round;stroke:rgb(0%,0%,0%);stroke-opacity:1;stroke-miterlimit:4;" d="M 0 -0.0007 L -3.5 -0.0007 " transform="matrix(1.25,0,0,1.25,62.679688,160.278219)"/>
<path style=" stroke:none;fill-rule:nonzero;fill:rgb(0%,0%,0%);fill-opacity:1;" d="M 36.449219 163.988281 L 40.75 163.988281 L 40.75 165.027344 L 34.96875 165.027344 L 34.96875 163.988281 C 35.433594 163.503906 36.070312 162.855469 36.878906 162.039062 C 37.6875 161.222656 38.195312 160.699219 38.402344 160.460938 C 38.796875 160.019531 39.070312 159.644531 39.226562 159.335938 C 39.386719 159.027344 39.464844 158.726562 39.464844 158.429688 C 39.464844 157.945312 39.296875 157.550781 38.953125 157.246094 C 38.617188 156.941406 38.171875 156.785156 37.625 156.785156 C 37.242188 156.785156 36.832031 156.855469 36.402344 156.988281 C 35.972656 157.121094 35.515625 157.324219 35.027344 157.597656 L 35.027344 156.351562 C 35.523438 156.152344 35.988281 156.003906 36.417969 155.902344 C 36.851562 155.800781 37.246094 155.75 37.601562 155.75 C 38.546875 155.75 39.300781 155.984375 39.859375 156.457031 C 40.421875 156.929688 40.703125 157.558594 40.703125 158.347656 C 40.703125 158.722656 40.632812 159.078125 40.492188 159.414062 C 40.351562 159.75 40.097656 160.144531 39.726562 160.601562 C 39.625 160.71875 39.300781 161.0625 38.757812 161.625 C 38.210938 162.1875 37.441406 162.976562 36.449219 163.988281 Z M 36.449219 163.988281 "/>
<path style=" stroke:none;fill-rule:nonzero;fill:rgb(0%,0%,0%);fill-opacity:1;" d="M 43.339844 163.476562 L 44.628906 163.476562 L 44.628906 165.027344 L 43.339844 165.027344 Z M 43.339844 163.476562 "/>
<path style=" stroke:none;fill-rule:nonzero;fill:rgb(0%,0%,0%);fill-opacity:1;" d="M 47.328125 155.914062 L 52.167969 155.914062 L 52.167969 156.953125 L 48.457031 156.953125 L 48.457031 159.183594 C 48.632812 159.125 48.8125 159.078125 48.992188 159.046875 C 49.171875 159.019531 49.351562 159.003906 49.53125 159.003906 C 50.546875 159.003906 51.351562 159.28125 51.945312 159.839844 C 52.539062 160.398438 52.839844 161.152344 52.839844 162.101562 C 52.839844 163.082031 52.53125 163.847656 51.921875 164.390625 C 51.3125 164.933594 50.449219 165.203125 49.339844 165.203125 C 48.957031 165.203125 48.566406 165.171875 48.171875 165.105469 C 47.773438 165.042969 47.363281 164.945312 46.941406 164.8125 L 46.941406 163.574219 C 47.308594 163.773438 47.6875 163.921875 48.078125 164.019531 C 48.46875 164.117188 48.878906 164.164062 49.316406 164.164062 C 50.019531 164.164062 50.578125 163.980469 50.988281 163.609375 C 51.398438 163.242188 51.605469 162.738281 51.605469 162.101562 C 51.605469 161.46875 51.398438 160.96875 50.988281 160.597656 C 50.578125 160.226562 50.019531 160.039062 49.316406 160.039062 C 48.984375 160.039062 48.65625 160.078125 48.328125 160.148438 C 48 160.222656 47.667969 160.335938 47.328125 160.492188 Z M 47.328125 155.914062 "/>
<g clip-path="url(#clip7)" clip-rule="nonzero">
<path style="fill:none;stroke-width:0.8;stroke-linecap:square;stroke-linejoin:round;stroke:rgb(69.019608%,69.019608%,69.019608%);stroke-opacity:1;stroke-miterlimit:4;" d="M 50.14375 102.71875 L 245.44375 102.71875 " transform="matrix(1.25,0,0,1.25,0,0)"/>
</g>
<path style="fill:none;stroke-width:0.8;stroke-linecap:butt;stroke-linejoin:round;stroke:rgb(0%,0%,0%);stroke-opacity:1;stroke-miterlimit:4;" d="M 0 0.001018 L -3.5 0.001018 " transform="matrix(1.25,0,0,1.25,62.679688,128.397165)"/>
<path style=" stroke:none;fill-rule:nonzero;fill:rgb(0%,0%,0%);fill-opacity:1;" d="M 35.398438 124.03125 L 40.242188 124.03125 L 40.242188 125.070312 L 36.53125 125.070312 L 36.53125 127.304688 C 36.707031 127.242188 36.886719 127.199219 37.0625 127.167969 C 37.242188 127.136719 37.421875 127.121094 37.601562 127.121094 C 38.621094 127.121094 39.425781 127.402344 40.019531 127.957031 C 40.613281 128.515625 40.914062 129.269531 40.914062 130.222656 C 40.914062 131.203125 40.605469 131.964844 39.996094 132.507812 C 39.386719 133.050781 38.523438 133.324219 37.414062 133.324219 C 37.03125 133.324219 36.640625 133.292969 36.242188 133.226562 C 35.847656 133.160156 35.4375 133.0625 35.015625 132.933594 L 35.015625 131.691406 C 35.382812 131.890625 35.757812 132.039062 36.148438 132.136719 C 36.539062 132.234375 36.953125 132.285156 37.390625 132.285156 C 38.09375 132.285156 38.648438 132.101562 39.0625 131.730469 C 39.472656 131.359375 39.679688 130.859375 39.679688 130.222656 C 39.679688 129.589844 39.472656 129.085938 39.0625 128.714844 C 38.648438 128.34375 38.09375 128.160156 37.390625 128.160156 C 37.058594 128.160156 36.730469 128.195312 36.402344 128.269531 C 36.074219 128.34375 35.742188 128.457031 35.398438 128.609375 Z M 35.398438 124.03125 "/>
<path style=" stroke:none;fill-rule:nonzero;fill:rgb(0%,0%,0%);fill-opacity:1;" d="M 43.339844 131.59375 L 44.628906 131.59375 L 44.628906 133.144531 L 43.339844 133.144531 Z M 43.339844 131.59375 "/>
<path style=" stroke:none;fill-rule:nonzero;fill:rgb(0%,0%,0%);fill-opacity:1;" d="M 49.949219 124.84375 C 49.316406 124.84375 48.839844 125.15625 48.519531 125.78125 C 48.199219 126.40625 48.039062 127.34375 48.039062 128.597656 C 48.039062 129.847656 48.199219 130.785156 48.519531 131.410156 C 48.839844 132.035156 49.316406 132.347656 49.949219 132.347656 C 50.589844 132.347656 51.066406 132.035156 51.386719 131.410156 C 51.707031 130.785156 51.867188 129.847656 51.867188 128.597656 C 51.867188 127.34375 51.707031 126.40625 51.386719 125.78125 C 51.066406 125.15625 50.589844 124.84375 49.949219 124.84375 Z M 49.949219 123.867188 C 50.972656 123.867188 51.753906 124.273438 52.292969 125.082031 C 52.832031 125.890625 53.101562 127.0625 53.101562 128.597656 C 53.101562 130.132812 52.832031 131.304688 52.292969 132.113281 C 51.753906 132.921875 50.972656 133.324219 49.949219 133.324219 C 48.929688 133.324219 48.148438 132.921875 47.609375 132.113281 C 47.070312 131.304688 46.800781 130.132812 46.800781 128.597656 C 46.800781 127.0625 47.070312 125.890625 47.609375 125.082031 C 48.148438 124.273438 48.929688 123.867188 49.949219 123.867188 Z M 49.949219 123.867188 "/>
<g clip-path="url(#clip8)" clip-rule="nonzero">
<path style="fill:none;stroke-width:0.8;stroke-linecap:square;stroke-linejoin:round;stroke:rgb(69.019608%,69.019608%,69.019608%);stroke-opacity:1;stroke-miterlimit:4;" d="M 50.14375 77.2125 L 245.44375 77.2125 " transform="matrix(1.25,0,0,1.25,0,0)"/>
</g>
<path style="fill:none;stroke-width:0.8;stroke-linecap:butt;stroke-linejoin:round;stroke:rgb(0%,0%,0%);stroke-opacity:1;stroke-miterlimit:4;" d="M 0 -0.000389 L -3.5 -0.000389 " transform="matrix(1.25,0,0,1.25,62.679688,96.516111)"/>
<path style=" stroke:none;fill-rule:nonzero;fill:rgb(0%,0%,0%);fill-opacity:1;" d="M 35.078125 92.152344 L 40.9375 92.152344 L 40.9375 92.675781 L 37.625 101.265625 L 36.339844 101.265625 L 39.453125 93.191406 L 35.078125 93.191406 Z M 35.078125 92.152344 "/>
<path style=" stroke:none;fill-rule:nonzero;fill:rgb(0%,0%,0%);fill-opacity:1;" d="M 43.339844 99.714844 L 44.628906 99.714844 L 44.628906 101.265625 L 43.339844 101.265625 Z M 43.339844 99.714844 "/>
<path style=" stroke:none;fill-rule:nonzero;fill:rgb(0%,0%,0%);fill-opacity:1;" d="M 47.328125 92.152344 L 52.167969 92.152344 L 52.167969 93.191406 L 48.457031 93.191406 L 48.457031 95.421875 C 48.632812 95.363281 48.8125 95.316406 48.992188 95.285156 C 49.171875 95.257812 49.351562 95.242188 49.53125 95.242188 C 50.546875 95.242188 51.351562 95.519531 51.945312 96.078125 C 52.539062 96.636719 52.839844 97.390625 52.839844 98.339844 C 52.839844 99.320312 52.53125 100.085938 51.921875 100.628906 C 51.3125 101.171875 50.449219 101.441406 49.339844 101.441406 C 48.957031 101.441406 48.566406 101.410156 48.171875 101.34375 C 47.773438 101.28125 47.363281 101.183594 46.941406 101.050781 L 46.941406 99.8125 C 47.308594 100.011719 47.6875 100.160156 48.078125 100.257812 C 48.46875 100.355469 48.878906 100.402344 49.316406 100.402344 C 50.019531 100.402344 50.578125 100.21875 50.988281 99.847656 C 51.398438 99.480469 51.605469 98.976562 51.605469 98.339844 C 51.605469 97.707031 51.398438 97.207031 50.988281 96.835938 C 50.578125 96.464844 50.019531 96.277344 49.316406 96.277344 C 48.984375 96.277344 48.65625 96.316406 48.328125 96.386719 C 48 96.460938 47.667969 96.574219 47.328125 96.730469 Z M 47.328125 92.152344 "/>
<g clip-path="url(#clip9)" clip-rule="nonzero">
<path style="fill:none;stroke-width:0.8;stroke-linecap:square;stroke-linejoin:round;stroke:rgb(69.019608%,69.019608%,69.019608%);stroke-opacity:1;stroke-miterlimit:4;" d="M 50.14375 51.709375 L 245.44375 51.709375 " transform="matrix(1.25,0,0,1.25,0,0)"/>
</g>
<path style="fill:none;stroke-width:0.8;stroke-linecap:butt;stroke-linejoin:round;stroke:rgb(0%,0%,0%);stroke-opacity:1;stroke-miterlimit:4;" d="M 0 0.001329 L -3.5 0.001329 " transform="matrix(1.25,0,0,1.25,62.679688,64.635058)"/>
<path style=" stroke:none;fill-rule:nonzero;fill:rgb(0%,0%,0%);fill-opacity:1;" d="M 27.648438 68.347656 L 29.664062 68.347656 L 29.664062 61.394531 L 27.46875 61.832031 L 27.46875 60.710938 L 29.648438 60.269531 L 30.882812 60.269531 L 30.882812 68.347656 L 32.898438 68.347656 L 32.898438 69.382812 L 27.648438 69.382812 Z M 27.648438 68.347656 "/>
<path style=" stroke:none;fill-rule:nonzero;fill:rgb(0%,0%,0%);fill-opacity:1;" d="M 38.023438 61.082031 C 37.390625 61.082031 36.910156 61.394531 36.589844 62.019531 C 36.273438 62.644531 36.113281 63.582031 36.113281 64.835938 C 36.113281 66.085938 36.273438 67.023438 36.589844 67.648438 C 36.910156 68.273438 37.390625 68.585938 38.023438 68.585938 C 38.664062 68.585938 39.140625 68.273438 39.460938 67.648438 C 39.78125 67.023438 39.941406 66.085938 39.941406 64.835938 C 39.941406 63.582031 39.78125 62.644531 39.460938 62.019531 C 39.140625 61.394531 38.664062 61.082031 38.023438 61.082031 Z M 38.023438 60.105469 C 39.046875 60.105469 39.824219 60.511719 40.363281 61.320312 C 40.902344 62.125 41.171875 63.300781 41.171875 64.835938 C 41.171875 66.371094 40.902344 67.542969 40.363281 68.351562 C 39.824219 69.15625 39.046875 69.5625 38.023438 69.5625 C 37.003906 69.5625 36.222656 69.15625 35.683594 68.351562 C 35.144531 67.542969 34.875 66.371094 34.875 64.835938 C 34.875 63.300781 35.144531 62.125 35.683594 61.320312 C 36.222656 60.511719 37.003906 60.105469 38.023438 60.105469 Z M 38.023438 60.105469 "/>
<path style=" stroke:none;fill-rule:nonzero;fill:rgb(0%,0%,0%);fill-opacity:1;" d="M 43.339844 67.832031 L 44.628906 67.832031 L 44.628906 69.382812 L 43.339844 69.382812 Z M 43.339844 67.832031 "/>
<path style=" stroke:none;fill-rule:nonzero;fill:rgb(0%,0%,0%);fill-opacity:1;" d="M 49.949219 61.082031 C 49.316406 61.082031 48.839844 61.394531 48.519531 62.019531 C 48.199219 62.644531 48.039062 63.582031 48.039062 64.835938 C 48.039062 66.085938 48.199219 67.023438 48.519531 67.648438 C 48.839844 68.273438 49.316406 68.585938 49.949219 68.585938 C 50.589844 68.585938 51.066406 68.273438 51.386719 67.648438 C 51.707031 67.023438 51.867188 66.085938 51.867188 64.835938 C 51.867188 63.582031 51.707031 62.644531 51.386719 62.019531 C 51.066406 61.394531 50.589844 61.082031 49.949219 61.082031 Z M 49.949219 60.105469 C 50.972656 60.105469 51.753906 60.511719 52.292969 61.320312 C 52.832031 62.125 53.101562 63.300781 53.101562 64.835938 C 53.101562 66.371094 52.832031 67.542969 52.292969 68.351562 C 51.753906 69.15625 50.972656 69.5625 49.949219 69.5625 C 48.929688 69.5625 48.148438 69.15625 47.609375 68.351562 C 47.070312 67.542969 46.800781 66.371094 46.800781 64.835938 C 46.800781 63.300781 47.070312 62.125 47.609375 61.320312 C 48.148438 60.511719 48.929688 60.105469 49.949219 60.105469 Z M 49.949219 60.105469 "/>
<g clip-path="url(#clip10)" clip-rule="nonzero">
<path style="fill:none;stroke-width:0.8;stroke-linecap:square;stroke-linejoin:round;stroke:rgb(69.019608%,69.019608%,69.019608%);stroke-opacity:1;stroke-miterlimit:4;" d="M 50.14375 26.203125 L 245.44375 26.203125 " transform="matrix(1.25,0,0,1.25,0,0)"/>
</g>
<path style="fill:none;stroke-width:0.8;stroke-linecap:butt;stroke-linejoin:round;stroke:rgb(0%,0%,0%);stroke-opacity:1;stroke-miterlimit:4;" d="M 0 -0.000078 L -3.5 -0.000078 " transform="matrix(1.25,0,0,1.25,62.679688,32.754004)"/>
<path style=" stroke:none;fill-rule:nonzero;fill:rgb(0%,0%,0%);fill-opacity:1;" d="M 27.648438 36.464844 L 29.664062 36.464844 L 29.664062 29.511719 L 27.46875 29.953125 L 27.46875 28.828125 L 29.648438 28.390625 L 30.882812 28.390625 L 30.882812 36.464844 L 32.898438 36.464844 L 32.898438 37.503906 L 27.648438 37.503906 Z M 27.648438 36.464844 "/>
<path style=" stroke:none;fill-rule:nonzero;fill:rgb(0%,0%,0%);fill-opacity:1;" d="M 36.449219 36.464844 L 40.75 36.464844 L 40.75 37.503906 L 34.964844 37.503906 L 34.964844 36.464844 C 35.433594 35.980469 36.070312 35.332031 36.878906 34.515625 C 37.6875 33.699219 38.195312 33.171875 38.402344 32.9375 C 38.796875 32.492188 39.070312 32.117188 39.226562 31.8125 C 39.386719 31.503906 39.464844 31.203125 39.464844 30.90625 C 39.464844 30.421875 39.292969 30.027344 38.953125 29.722656 C 38.613281 29.414062 38.171875 29.261719 37.625 29.261719 C 37.238281 29.261719 36.832031 29.328125 36.402344 29.464844 C 35.972656 29.597656 35.515625 29.800781 35.027344 30.074219 L 35.027344 28.828125 C 35.523438 28.628906 35.988281 28.480469 36.417969 28.378906 C 36.851562 28.277344 37.246094 28.226562 37.601562 28.226562 C 38.546875 28.226562 39.300781 28.460938 39.859375 28.933594 C 40.421875 29.40625 40.703125 30.035156 40.703125 30.824219 C 40.703125 31.199219 40.632812 31.554688 40.492188 31.890625 C 40.351562 32.226562 40.097656 32.621094 39.726562 33.078125 C 39.625 33.195312 39.300781 33.535156 38.753906 34.101562 C 38.210938 34.664062 37.441406 35.453125 36.449219 36.464844 Z M 36.449219 36.464844 "/>
<path style=" stroke:none;fill-rule:nonzero;fill:rgb(0%,0%,0%);fill-opacity:1;" d="M 43.339844 35.953125 L 44.628906 35.953125 L 44.628906 37.503906 L 43.339844 37.503906 Z M 43.339844 35.953125 "/>
<path style=" stroke:none;fill-rule:nonzero;fill:rgb(0%,0%,0%);fill-opacity:1;" d="M 47.328125 28.390625 L 52.167969 28.390625 L 52.167969 29.429688 L 48.457031 29.429688 L 48.457031 31.660156 C 48.632812 31.601562 48.8125 31.554688 48.992188 31.523438 C 49.171875 31.496094 49.351562 31.480469 49.53125 31.480469 C 50.546875 31.480469 51.351562 31.757812 51.945312 32.316406 C 52.539062 32.871094 52.839844 33.628906 52.839844 34.578125 C 52.839844 35.558594 52.53125 36.320312 51.921875 36.867188 C 51.3125 37.410156 50.449219 37.679688 49.339844 37.679688 C 48.957031 37.679688 48.566406 37.648438 48.171875 37.582031 C 47.773438 37.519531 47.363281 37.421875 46.941406 37.289062 L 46.941406 36.050781 C 47.308594 36.25 47.6875 36.398438 48.078125 36.496094 C 48.46875 36.59375 48.878906 36.640625 49.316406 36.640625 C 50.019531 36.640625 50.578125 36.457031 50.988281 36.085938 C 51.398438 35.71875 51.605469 35.214844 51.605469 34.578125 C 51.605469 33.945312 51.398438 33.441406 50.988281 33.074219 C 50.578125 32.703125 50.019531 32.515625 49.316406 32.515625 C 48.984375 32.515625 48.65625 32.554688 48.328125 32.625 C 48 32.699219 47.667969 32.8125 47.328125 32.96875 Z M 47.328125 28.390625 "/>
<path style=" stroke:none;fill-rule:nonzero;fill:rgb(0%,0%,0%);fill-opacity:1;" d="M 17.472656 124.769531 L 21.097656 124.769531 L 21.097656 125.898438 L 11.660156 125.898438 L 11.660156 124.769531 L 12.699219 124.769531 C 12.292969 124.53125 11.992188 124.234375 11.792969 123.875 C 11.597656 123.515625 11.496094 123.085938 11.496094 122.585938 C 11.496094 121.753906 11.828125 121.078125 12.484375 120.5625 C 13.144531 120.042969 14.011719 119.78125 15.085938 119.78125 C 16.160156 119.78125 17.027344 120.042969 17.6875 120.5625 C 18.347656 121.078125 18.675781 121.753906 18.675781 122.585938 C 18.675781 123.085938 18.578125 123.515625 18.378906 123.875 C 18.179688 124.234375 17.878906 124.53125 17.472656 124.769531 Z M 15.085938 120.949219 C 14.261719 120.949219 13.613281 121.117188 13.140625 121.457031 C 12.671875 121.796875 12.4375 122.265625 12.4375 122.859375 C 12.4375 123.453125 12.671875 123.921875 13.140625 124.261719 C 13.613281 124.601562 14.261719 124.769531 15.085938 124.769531 C 15.910156 124.769531 16.558594 124.601562 17.027344 124.261719 C 17.5 123.921875 17.734375 123.453125 17.734375 122.859375 C 17.734375 122.265625 17.5 121.796875 17.027344 121.457031 C 16.558594 121.117188 15.910156 120.949219 15.085938 120.949219 Z M 15.085938 120.949219 "/>
<path style=" stroke:none;fill-rule:nonzero;fill:rgb(0%,0%,0%);fill-opacity:1;" d="M 14.796875 112.074219 L 15.347656 112.074219 L 15.347656 117.238281 C 16.121094 117.1875 16.710938 116.953125 17.113281 116.539062 C 17.519531 116.121094 17.722656 115.539062 17.722656 114.796875 C 17.722656 114.363281 17.667969 113.945312 17.5625 113.542969 C 17.457031 113.136719 17.300781 112.734375 17.085938 112.335938 L 18.148438 112.335938 C 18.320312 112.738281 18.449219 113.152344 18.539062 113.574219 C 18.628906 114 18.675781 114.425781 18.675781 114.863281 C 18.675781 115.953125 18.359375 116.816406 17.722656 117.453125 C 17.089844 118.089844 16.230469 118.410156 15.144531 118.410156 C 14.027344 118.410156 13.140625 118.105469 12.484375 117.503906 C 11.828125 116.898438 11.496094 116.082031 11.496094 115.058594 C 11.496094 114.136719 11.792969 113.410156 12.386719 112.875 C 12.976562 112.339844 13.78125 112.074219 14.796875 112.074219 Z M 14.46875 113.195312 C 13.855469 113.203125 13.367188 113.375 13 113.710938 C 12.632812 114.046875 12.449219 114.492188 12.449219 115.046875 C 12.449219 115.671875 12.625 116.171875 12.980469 116.550781 C 13.335938 116.925781 13.832031 117.144531 14.476562 117.199219 Z M 14.46875 113.195312 "/>
<path style=" stroke:none;fill-rule:nonzero;fill:rgb(0%,0%,0%);fill-opacity:1;" d="M 12.710938 106.269531 C 12.636719 106.394531 12.585938 106.535156 12.550781 106.683594 C 12.515625 106.832031 12.496094 106.992188 12.496094 107.171875 C 12.496094 107.808594 12.703125 108.296875 13.117188 108.636719 C 13.53125 108.976562 14.121094 109.144531 14.894531 109.144531 L 18.496094 109.144531 L 18.496094 110.273438 L 11.660156 110.273438 L 11.660156 109.144531 L 12.722656 109.144531 C 12.308594 108.90625 12 108.601562 11.800781 108.222656 C 11.597656 107.84375 11.496094 107.382812 11.496094 106.84375 C 11.496094 106.765625 11.503906 106.679688 11.511719 106.585938 C 11.523438 106.492188 11.539062 106.390625 11.558594 106.277344 Z M 12.710938 106.269531 "/>
<path style=" stroke:none;fill-rule:nonzero;fill:rgb(0%,0%,0%);fill-opacity:1;" d="M 17.472656 104.003906 L 21.097656 104.003906 L 21.097656 105.132812 L 11.660156 105.132812 L 11.660156 104.003906 L 12.699219 104.003906 C 12.292969 103.769531 11.992188 103.46875 11.792969 103.109375 C 11.597656 102.75 11.496094 102.320312 11.496094 101.820312 C 11.496094 100.988281 11.828125 100.316406 12.484375 99.796875 C 13.144531 99.277344 14.011719 99.015625 15.085938 99.015625 C 16.160156 99.015625 17.027344 99.277344 17.6875 99.796875 C 18.347656 100.316406 18.675781 100.988281 18.675781 101.820312 C 18.675781 102.320312 18.578125 102.75 18.378906 103.109375 C 18.179688 103.46875 17.878906 103.769531 17.472656 104.003906 Z M 15.085938 100.183594 C 14.261719 100.183594 13.613281 100.351562 13.140625 100.691406 C 12.671875 101.03125 12.4375 101.5 12.4375 102.09375 C 12.4375 102.6875 12.671875 103.15625 13.140625 103.496094 C 13.613281 103.835938 14.261719 104.003906 15.085938 104.003906 C 15.910156 104.003906 16.558594 103.835938 17.027344 103.496094 C 17.5 103.15625 17.734375 102.6875 17.734375 102.09375 C 17.734375 101.5 17.5 101.03125 17.027344 100.691406 C 16.558594 100.351562 15.910156 100.183594 15.085938 100.183594 Z M 15.085938 100.183594 "/>
<path style=" stroke:none;fill-rule:nonzero;fill:rgb(0%,0%,0%);fill-opacity:1;" d="M 9 97.15625 L 9 96.035156 L 18.496094 96.035156 L 18.496094 97.15625 Z M 9 97.15625 "/>
<path style=" stroke:none;fill-rule:nonzero;fill:rgb(0%,0%,0%);fill-opacity:1;" d="M 14.796875 87.835938 L 15.347656 87.835938 L 15.347656 93 C 16.121094 92.949219 16.710938 92.71875 17.113281 92.300781 C 17.519531 91.882812 17.722656 91.304688 17.722656 90.558594 C 17.722656 90.128906 17.667969 89.710938 17.5625 89.304688 C 17.457031 88.898438 17.300781 88.496094 17.085938 88.097656 L 18.148438 88.097656 C 18.320312 88.5 18.449219 88.914062 18.539062 89.339844 C 18.628906 89.761719 18.675781 90.191406 18.675781 90.625 C 18.675781 91.714844 18.359375 92.582031 17.722656 93.21875 C 17.089844 93.855469 16.230469 94.171875 15.144531 94.171875 C 14.027344 94.171875 13.140625 93.871094 12.484375 93.265625 C 11.828125 92.660156 11.496094 91.847656 11.496094 90.820312 C 11.496094 89.902344 11.792969 89.175781 12.386719 88.640625 C 12.976562 88.105469 13.78125 87.835938 14.796875 87.835938 Z M 14.46875 88.960938 C 13.855469 88.96875 13.367188 89.140625 13 89.476562 C 12.632812 89.8125 12.449219 90.253906 12.449219 90.808594 C 12.449219 91.433594 12.625 91.9375 12.980469 92.3125 C 13.335938 92.6875 13.832031 92.90625 14.476562 92.964844 Z M 14.46875 88.960938 "/>
<path style=" stroke:none;fill-rule:nonzero;fill:rgb(0%,0%,0%);fill-opacity:1;" d="M 11.660156 80.527344 L 14.988281 83 L 18.496094 80.402344 L 18.496094 81.726562 L 15.8125 83.714844 L 18.496094 85.703125 L 18.496094 87.03125 L 14.921875 84.375 L 11.660156 86.804688 L 11.660156 85.480469 L 14.097656 83.667969 L 11.660156 81.855469 Z M 11.660156 80.527344 "/>
<path style=" stroke:none;fill-rule:nonzero;fill:rgb(0%,0%,0%);fill-opacity:1;" d="M 11.660156 78.816406 L 11.660156 77.691406 L 18.496094 77.691406 L 18.496094 78.816406 Z M 9 78.816406 L 9 77.691406 L 10.421875 77.691406 L 10.421875 78.816406 Z M 9 78.816406 "/>
<path style=" stroke:none;fill-rule:nonzero;fill:rgb(0%,0%,0%);fill-opacity:1;" d="M 9.71875 74.230469 L 11.660156 74.230469 L 11.660156 71.917969 L 12.535156 71.917969 L 12.535156 74.230469 L 16.246094 74.230469 C 16.804688 74.230469 17.160156 74.15625 17.320312 74.003906 C 17.480469 73.851562 17.558594 73.539062 17.558594 73.070312 L 17.558594 71.917969 L 18.496094 71.917969 L 18.496094 73.070312 C 18.496094 73.9375 18.335938 74.535156 18.011719 74.867188 C 17.6875 75.195312 17.101562 75.359375 16.246094 75.359375 L 12.535156 75.359375 L 12.535156 76.183594 L 11.660156 76.183594 L 11.660156 75.359375 L 9.71875 75.359375 Z M 9.71875 74.230469 "/>
<path style=" stroke:none;fill-rule:nonzero;fill:rgb(0%,0%,0%);fill-opacity:1;" d="M 19.132812 67.597656 C 19.945312 67.914062 20.476562 68.222656 20.722656 68.523438 C 20.972656 68.824219 21.097656 69.226562 21.097656 69.730469 L 21.097656 70.628906 L 20.15625 70.628906 L 20.15625 69.96875 C 20.15625 69.660156 20.085938 69.421875 19.9375 69.25 C 19.792969 69.078125 19.445312 68.890625 18.898438 68.683594 L 18.386719 68.480469 L 11.660156 71.246094 L 11.660156 70.054688 L 17.007812 67.917969 L 11.660156 65.78125 L 11.660156 64.59375 Z M 19.132812 67.597656 "/>
<g clip-path="url(#clip11)" clip-rule="nonzero">
<path style="fill:none;stroke-width:1.5;stroke-linecap:square;stroke-linejoin:round;stroke:rgb(12.156863%,46.666667%,70.588235%);stroke-opacity:1;stroke-miterlimit:4;" d="M 50.14375 13.5 L 54.128125 44.865625 L 58.115625 54.828125 L 62.1 61.215625 L 66.0875 66.390625 L 70.071875 68.1375 L 74.059375 70.228125 L 78.04375 71.796875 L 82.028125 75.021875 L 86.015625 76.303125 L 90 79.74375 L 93.9875 82.71875 L 97.971875 83.5875 L 101.959375 87.8125 L 105.94375 88.875 L 109.928125 91.18125 L 113.915625 96.36875 L 117.9 101.0375 L 121.8875 104.00625 L 125.871875 111.109375 L 129.859375 114.546875 L 133.84375 118.8375 L 137.828125 122.4875 L 141.815625 125.59375 L 145.8 126.609375 L 149.7875 131.528125 L 153.771875 131.178125 L 157.759375 132.703125 L 161.74375 134.3875 L 165.728125 133.56875 L 169.715625 135.0125 L 173.7 134.690625 L 177.6875 135.575 L 181.671875 135.446875 L 185.659375 136.053125 L 189.64375 136.65625 L 193.628125 136.88125 L 197.615625 137.734375 L 201.6 137.634375 L 205.5875 137.44375 L 209.571875 136.671875 L 213.559375 138.728125 L 217.54375 138.971875 L 221.528125 138.2375 L 225.515625 139.21875 L 229.5 138.7625 L 233.4875 139.321875 L 237.471875 138.99375 L 241.459375 138.609375 L 245.44375 139.5 " transform="matrix(1.25,0,0,1.25,0,0)"/>
</g>
<path style="fill:none;stroke-width:0.8;stroke-linecap:square;stroke-linejoin:miter;stroke:rgb(0%,0%,0%);stroke-opacity:1;stroke-miterlimit:4;" d="M 50.14375 145.8 L 50.14375 7.2 " transform="matrix(1.25,0,0,1.25,0,0)"/>
<path style="fill:none;stroke-width:0.8;stroke-linecap:square;stroke-linejoin:miter;stroke:rgb(0%,0%,0%);stroke-opacity:1;stroke-miterlimit:4;" d="M 245.44375 145.8 L 245.44375 7.2 " transform="matrix(1.25,0,0,1.25,0,0)"/>
<path style="fill:none;stroke-width:0.8;stroke-linecap:square;stroke-linejoin:miter;stroke:rgb(0%,0%,0%);stroke-opacity:1;stroke-miterlimit:4;" d="M 50.14375 145.8 L 245.44375 145.8 " transform="matrix(1.25,0,0,1.25,0,0)"/>
<path style="fill:none;stroke-width:0.8;stroke-linecap:square;stroke-linejoin:miter;stroke:rgb(0%,0%,0%);stroke-opacity:1;stroke-miterlimit:4;" d="M 50.14375 7.2 L 245.44375 7.2 " transform="matrix(1.25,0,0,1.25,0,0)"/>
<use xlink:href="#surface5" mask="url(#mask0)"/>
<path style="fill:none;stroke-width:1.5;stroke-linecap:square;stroke-linejoin:round;stroke:rgb(12.156863%,46.666667%,70.588235%);stroke-opacity:1;stroke-miterlimit:4;" d="M 185.16875 20.3 L 205.16875 20.3 " transform="matrix(1.25,0,0,1.25,0,0)"/>
<path style=" stroke:none;fill-rule:nonzero;fill:rgb(0%,0%,0%);fill-opacity:1;" d="M 268.75 20.972656 L 268.75 22.914062 L 271.0625 22.914062 L 271.0625 23.785156 L 268.75 23.785156 L 268.75 27.496094 C 268.75 28.054688 268.828125 28.410156 268.976562 28.570312 C 269.132812 28.730469 269.441406 28.808594 269.910156 28.808594 L 271.0625 28.808594 L 271.0625 29.75 L 269.910156 29.75 C 269.042969 29.75 268.445312 29.585938 268.117188 29.265625 C 267.785156 28.941406 267.621094 28.351562 267.621094 27.496094 L 267.621094 23.785156 L 266.796875 23.785156 L 266.796875 22.914062 L 267.621094 22.914062 L 267.621094 20.972656 Z M 268.75 20.972656 "/>
<path style=" stroke:none;fill-rule:nonzero;fill:rgb(0%,0%,0%);fill-opacity:1;" d="M 276.5 23.960938 C 276.375 23.886719 276.238281 23.835938 276.089844 23.800781 C 275.941406 23.765625 275.777344 23.75 275.597656 23.75 C 274.964844 23.75 274.476562 23.953125 274.136719 24.367188 C 273.796875 24.78125 273.625 25.375 273.625 26.148438 L 273.625 29.75 L 272.496094 29.75 L 272.496094 22.914062 L 273.625 22.914062 L 273.625 23.976562 C 273.863281 23.558594 274.171875 23.25 274.546875 23.050781 C 274.925781 22.847656 275.386719 22.75 275.929688 22.75 C 276.003906 22.75 276.089844 22.753906 276.183594 22.765625 C 276.277344 22.773438 276.382812 22.789062 276.496094 22.808594 Z M 276.5 23.960938 "/>
<path style=" stroke:none;fill-rule:nonzero;fill:rgb(0%,0%,0%);fill-opacity:1;" d="M 280.785156 26.3125 C 279.878906 26.3125 279.25 26.417969 278.898438 26.625 C 278.550781 26.832031 278.375 27.183594 278.375 27.6875 C 278.375 28.085938 278.503906 28.402344 278.769531 28.636719 C 279.03125 28.867188 279.386719 28.984375 279.839844 28.984375 C 280.460938 28.984375 280.960938 28.765625 281.339844 28.324219 C 281.714844 27.882812 281.902344 27.292969 281.902344 26.5625 L 281.902344 26.3125 Z M 283.027344 25.847656 L 283.027344 29.75 L 281.902344 29.75 L 281.902344 28.710938 C 281.648438 29.125 281.328125 29.429688 280.945312 29.628906 C 280.5625 29.828125 280.09375 29.925781 279.539062 29.925781 C 278.839844 29.925781 278.285156 29.730469 277.871094 29.335938 C 277.457031 28.941406 277.25 28.417969 277.25 27.757812 C 277.25 26.988281 277.507812 26.410156 278.023438 26.019531 C 278.539062 25.628906 279.304688 25.433594 280.328125 25.433594 L 281.902344 25.433594 L 281.902344 25.324219 C 281.902344 24.804688 281.734375 24.40625 281.394531 24.125 C 281.054688 23.839844 280.578125 23.699219 279.960938 23.699219 C 279.570312 23.699219 279.191406 23.746094 278.820312 23.839844 C 278.449219 23.933594 278.09375 24.074219 277.753906 24.261719 L 277.753906 23.222656 C 278.164062 23.0625 278.5625 22.945312 278.949219 22.867188 C 279.335938 22.789062 279.710938 22.75 280.078125 22.75 C 281.066406 22.75 281.804688 23.003906 282.292969 23.519531 C 282.78125 24.03125 283.027344 24.804688 283.027344 25.847656 Z M 283.027344 25.847656 "/>
<path style=" stroke:none;fill-rule:nonzero;fill:rgb(0%,0%,0%);fill-opacity:1;" d="M 285.339844 22.914062 L 286.460938 22.914062 L 286.460938 29.75 L 285.339844 29.75 Z M 285.339844 20.25 L 286.460938 20.25 L 286.460938 21.675781 L 285.339844 21.675781 Z M 285.339844 20.25 "/>
<path style=" stroke:none;fill-rule:nonzero;fill:rgb(0%,0%,0%);fill-opacity:1;" d="M 294.496094 25.621094 L 294.496094 29.75 L 293.371094 29.75 L 293.371094 25.660156 C 293.371094 25.011719 293.246094 24.527344 292.992188 24.207031 C 292.742188 23.886719 292.363281 23.726562 291.859375 23.726562 C 291.25 23.726562 290.773438 23.917969 290.421875 24.304688 C 290.074219 24.691406 289.898438 25.21875 289.898438 25.886719 L 289.898438 29.75 L 288.769531 29.75 L 288.769531 22.914062 L 289.898438 22.914062 L 289.898438 23.976562 C 290.167969 23.5625 290.484375 23.257812 290.847656 23.054688 C 291.210938 22.851562 291.632812 22.75 292.109375 22.75 C 292.894531 22.75 293.488281 22.992188 293.890625 23.476562 C 294.292969 23.960938 294.496094 24.675781 294.496094 25.621094 Z M 294.496094 25.621094 "/>
</g>
</svg>
