<?xml version="1.0" encoding="UTF-8"?>
<svg xmlns="http://www.w3.org/2000/svg" xmlns:xlink="http://www.w3.org/1999/xlink" width="312pt" height="229pt" viewBox="0 0 312 229" version="1.1">
<defs>
<clipPath id="clip1">
  <path d="M 94 9 L 97 9 L 97 182.25 L 94 182.25 Z M 94 9 "/>
</clipPath>
<clipPath id="clip2">
  <path d="M 144 9 L 147 9 L 147 182.25 L 144 182.25 Z M 144 9 "/>
</clipPath>
<clipPath id="clip3">
  <path d="M 194 9 L 196 9 L 196 182.25 L 194 182.25 Z M 194 9 "/>
</clipPath>
<clipPath id="clip4">
  <path d="M 244 9 L 246 9 L 246 182.25 L 244 182.25 Z M 244 9 "/>
</clipPath>
<clipPath id="clip5">
  <path d="M 294 9 L 294.878906 9 L 294.878906 182.25 L 294 182.25 Z M 294 9 "/>
</clipPath>
<clipPath id="clip6">
  <path d="M 50.753906 152 L 294.878906 152 L 294.878906 155 L 50.753906 155 Z M 50.753906 152 "/>
</clipPath>
<clipPath id="clip7">
  <path d="M 50.753906 119 L 294.878906 119 L 294.878906 122 L 50.753906 122 Z M 50.753906 119 "/>
</clipPath>
<clipPath id="clip8">
  <path d="M 50.753906 86 L 294.878906 86 L 294.878906 89 L 50.753906 89 Z M 50.753906 86 "/>
</clipPath>
<clipPath id="clip9">
  <path d="M 50.753906 53 L 294.878906 53 L 294.878906 56 L 50.753906 56 Z M 50.753906 53 "/>
</clipPath>
<clipPath id="clip10">
  <path d="M 50.753906 20 L 294.878906 20 L 294.878906 23 L 50.753906 23 Z M 50.753906 20 "/>
</clipPath>
<clipPath id="clip11">
  <path d="M 50.753906 15 L 294.878906 15 L 294.878906 98 L 50.753906 98 Z M 50.753906 15 "/>
</clipPath>
<clipPath id="clip12">
  <path d="M 50.753906 163 L 294.878906 163 L 294.878906 176 L 50.753906 176 Z M 50.753906 163 "/>
</clipPath>
<filter id="alpha" filterUnits="objectBoundingBox" x="0%" y="0%" width="100%" height="100%">
  <feColorMatrix type="matrix" in="SourceGraphic" values="0 0 0 0 1 0 0 0 0 1 0 0 0 0 1 0 0 0 1 0"/>
</filter>
<mask id="mask0">
  <g filter="url(#alpha)">
<rect x="0" y="0" width="312" height="229" style="fill:rgb(0%,0%,0%);fill-opacity:0.8;stroke:none;"/>
  </g>
</mask>
<clipPath id="clip13">
  <rect x="0" y="0" width="312" height="229"/>
</clipPath>
<g id="surface5" clip-path="url(#clip13)">
<path style="fill-rule:nonzero;fill:rgb(100%,100%,100%);fill-opacity:1;stroke-width:1;stroke-linecap:butt;stroke-linejoin:miter;stroke:rgb(80%,80%,80%);stroke-opacity:1;stroke-miterlimit:4;" d="M 174.64375 44.55625 L 228.903125 44.55625 C 230.2375 44.55625 230.903125 43.890625 230.903125 42.55625 L 230.903125 14.2 C 230.903125 12.865625 230.2375 12.2 228.903125 12.2 L 174.64375 12.2 C 173.309375 12.2 172.64375 12.865625 172.64375 14.2 L 172.64375 42.55625 C 172.64375 43.890625 173.309375 44.55625 174.64375 44.55625 Z M 174.64375 44.55625 " transform="matrix(1.25,0,0,1.25,0.000000000000028422,0)"/>
</g>
</defs>
<g id="surface1">
<path style=" stroke:none;fill-rule:nonzero;fill:rgb(100%,100%,100%);fill-opacity:1;" d="M 0 229.195312 L 311.832031 229.195312 L 311.832031 0 L 0 0 Z M 0 229.195312 "/>
<path style=" stroke:none;fill-rule:nonzero;fill:rgb(100%,100%,100%);fill-opacity:1;" d="M 50.753906 182.25 L 294.878906 182.25 L 294.878906 9 L 50.753906 9 Z M 50.753906 182.25 "/>
<g clip-path="url(#clip1)" clip-rule="nonzero">
<path style="fill:none;stroke-width:0.8;stroke-linecap:square;stroke-linejoin:round;stroke:rgb(69.019608%,69.019608%,69.019608%);stroke-opacity:1;stroke-miterlimit:4;" d="M 76.475 145.8 L 76.475 7.2 " transform="matrix(1.25,0,0,1.25,0.000000000000028422,0)"/>
</g>
<path style="fill:none;stroke-width:0.8;stroke-linecap:butt;stroke-linejoin:round;stroke:rgb(0%,0%,0%);stroke-opacity:1;stroke-miterlimit:4;" d="M 0.000446 0 L 0.000446 3.5 " transform="matrix(1.25,0,0,1.25,95.593193,182.25)"/>
<path style=" stroke:none;fill-rule:nonzero;fill:rgb(0%,0%,0%);fill-opacity:1;" d="M 89.191406 199.460938 L 91.203125 199.460938 L 91.203125 192.507812 L 89.011719 192.949219 L 89.011719 191.824219 L 91.191406 191.386719 L 92.425781 191.386719 L 92.425781 199.460938 L 94.4375 199.460938 L 94.4375 200.5 L 89.191406 200.5 Z M 89.191406 199.460938 "/>
<path style=" stroke:none;fill-rule:nonzero;fill:rgb(0%,0%,0%);fill-opacity:1;" d="M 99.566406 192.199219 C 98.929688 192.199219 98.453125 192.511719 98.132812 193.136719 C 97.816406 193.757812 97.65625 194.699219 97.65625 195.953125 C 97.65625 197.199219 97.816406 198.136719 98.132812 198.761719 C 98.453125 199.386719 98.929688 199.699219 99.566406 199.699219 C 100.203125 199.699219 100.683594 199.386719 101.003906 198.761719 C 101.324219 198.136719 101.484375 197.199219 101.484375 195.953125 C 101.484375 194.699219 101.324219 193.757812 101.003906 193.136719 C 100.683594 192.511719 100.203125 192.199219 99.566406 192.199219 Z M 99.566406 191.222656 C 100.585938 191.222656 101.367188 191.625 101.90625 192.433594 C 102.445312 193.242188 102.714844 194.414062 102.714844 195.953125 C 102.714844 197.484375 102.445312 198.65625 101.90625 199.464844 C 101.367188 200.273438 100.585938 200.675781 99.566406 200.675781 C 98.542969 200.675781 97.765625 200.273438 97.226562 199.464844 C 96.6875 198.65625 96.417969 197.484375 96.417969 195.953125 C 96.417969 194.414062 96.6875 193.242188 97.226562 192.433594 C 97.765625 191.625 98.542969 191.222656 99.566406 191.222656 Z M 99.566406 191.222656 "/>
<g clip-path="url(#clip2)" clip-rule="nonzero">
<path style="fill:none;stroke-width:0.8;stroke-linecap:square;stroke-linejoin:round;stroke:rgb(69.019608%,69.019608%,69.019608%);stroke-opacity:1;stroke-miterlimit:4;" d="M 116.33125 145.8 L 116.33125 7.2 " transform="matrix(1.25,0,0,1.25,0.000000000000028422,0)"/>
</g>
<path style="fill:none;stroke-width:0.8;stroke-linecap:butt;stroke-linejoin:round;stroke:rgb(0%,0%,0%);stroke-opacity:1;stroke-miterlimit:4;" d="M -0.000446 0 L -0.000446 3.5 " transform="matrix(1.25,0,0,1.25,145.41462,182.25)"/>
<path style=" stroke:none;fill-rule:nonzero;fill:rgb(0%,0%,0%);fill-opacity:1;" d="M 139.859375 199.460938 L 144.164062 199.460938 L 144.164062 200.5 L 138.378906 200.5 L 138.378906 199.460938 C 138.84375 198.976562 139.480469 198.328125 140.289062 197.511719 C 141.097656 196.695312 141.605469 196.167969 141.8125 195.933594 C 142.207031 195.488281 142.484375 195.113281 142.640625 194.808594 C 142.796875 194.5 142.875 194.199219 142.875 193.902344 C 142.875 193.417969 142.707031 193.023438 142.367188 192.71875 C 142.027344 192.410156 141.582031 192.257812 141.039062 192.257812 C 140.652344 192.257812 140.242188 192.324219 139.8125 192.460938 C 139.382812 192.59375 138.925781 192.796875 138.4375 193.070312 L 138.4375 191.824219 C 138.933594 191.625 139.398438 191.476562 139.828125 191.375 C 140.261719 191.273438 140.65625 191.222656 141.015625 191.222656 C 141.957031 191.222656 142.710938 191.457031 143.273438 191.929688 C 143.832031 192.402344 144.113281 193.03125 144.113281 193.820312 C 144.113281 194.195312 144.042969 194.550781 143.902344 194.886719 C 143.761719 195.222656 143.507812 195.617188 143.136719 196.074219 C 143.035156 196.191406 142.710938 196.53125 142.167969 197.097656 C 141.621094 197.660156 140.851562 198.449219 139.859375 199.460938 Z M 139.859375 199.460938 "/>
<path style=" stroke:none;fill-rule:nonzero;fill:rgb(0%,0%,0%);fill-opacity:1;" d="M 149.386719 192.199219 C 148.753906 192.199219 148.277344 192.511719 147.957031 193.136719 C 147.636719 193.757812 147.476562 194.699219 147.476562 195.953125 C 147.476562 197.199219 147.636719 198.136719 147.957031 198.761719 C 148.277344 199.386719 148.753906 199.699219 149.386719 199.699219 C 150.027344 199.699219 150.503906 199.386719 150.824219 198.761719 C 151.144531 198.136719 151.304688 197.199219 151.304688 195.953125 C 151.304688 194.699219 151.144531 193.757812 150.824219 193.136719 C 150.503906 192.511719 150.027344 192.199219 149.386719 192.199219 Z M 149.386719 191.222656 C 150.410156 191.222656 151.191406 191.625 151.730469 192.433594 C 152.269531 193.242188 152.539062 194.414062 152.539062 195.953125 C 152.539062 197.484375 152.269531 198.65625 151.730469 199.464844 C 151.191406 200.273438 150.410156 200.675781 149.386719 200.675781 C 148.367188 200.675781 147.585938 200.273438 147.046875 199.464844 C 146.507812 198.65625 146.238281 197.484375 146.238281 195.953125 C 146.238281 194.414062 146.507812 193.242188 147.046875 192.433594 C 147.585938 191.625 148.367188 191.222656 149.386719 191.222656 Z M 149.386719 191.222656 "/>
<g clip-path="url(#clip3)" clip-rule="nonzero">
<path style="fill:none;stroke-width:0.8;stroke-linecap:square;stroke-linejoin:round;stroke:rgb(69.019608%,69.019608%,69.019608%);stroke-opacity:1;stroke-miterlimit:4;" d="M 156.1875 145.8 L 156.1875 7.2 " transform="matrix(1.25,0,0,1.25,0.000000000000028422,0)"/>
</g>
<path style="fill:none;stroke-width:0.8;stroke-linecap:butt;stroke-linejoin:round;stroke:rgb(0%,0%,0%);stroke-opacity:1;stroke-miterlimit:4;" d="M -0.001339 0 L -0.001339 3.5 " transform="matrix(1.25,0,0,1.25,195.236049,182.25)"/>
<path style=" stroke:none;fill-rule:nonzero;fill:rgb(0%,0%,0%);fill-opacity:1;" d="M 192.355469 195.585938 C 192.945312 195.710938 193.40625 195.972656 193.734375 196.375 C 194.066406 196.773438 194.234375 197.265625 194.234375 197.851562 C 194.234375 198.75 193.925781 199.445312 193.304688 199.9375 C 192.6875 200.429688 191.808594 200.675781 190.667969 200.675781 C 190.289062 200.675781 189.894531 200.636719 189.488281 200.5625 C 189.085938 200.488281 188.667969 200.375 188.234375 200.222656 L 188.234375 199.035156 C 188.578125 199.234375 188.949219 199.382812 189.355469 199.484375 C 189.765625 199.585938 190.191406 199.636719 190.632812 199.636719 C 191.40625 199.636719 191.996094 199.484375 192.398438 199.179688 C 192.804688 198.875 193.007812 198.433594 193.007812 197.851562 C 193.007812 197.3125 192.820312 196.890625 192.441406 196.589844 C 192.066406 196.285156 191.542969 196.136719 190.871094 196.136719 L 189.808594 196.136719 L 189.808594 195.121094 L 190.921875 195.121094 C 191.527344 195.121094 191.992188 195 192.3125 194.757812 C 192.632812 194.515625 192.792969 194.167969 192.792969 193.710938 C 192.792969 193.242188 192.628906 192.886719 192.296875 192.636719 C 191.964844 192.382812 191.492188 192.257812 190.871094 192.257812 C 190.535156 192.257812 190.171875 192.296875 189.785156 192.371094 C 189.398438 192.441406 188.972656 192.554688 188.507812 192.710938 L 188.507812 191.613281 C 188.976562 191.480469 189.417969 191.382812 189.824219 191.320312 C 190.234375 191.253906 190.621094 191.222656 190.980469 191.222656 C 191.917969 191.222656 192.660156 191.433594 193.203125 191.859375 C 193.75 192.285156 194.019531 192.859375 194.019531 193.582031 C 194.019531 194.085938 193.875 194.515625 193.585938 194.863281 C 193.296875 195.210938 192.886719 195.449219 192.355469 195.585938 Z M 192.355469 195.585938 "/>
<path style=" stroke:none;fill-rule:nonzero;fill:rgb(0%,0%,0%);fill-opacity:1;" d="M 199.207031 192.199219 C 198.574219 192.199219 198.097656 192.511719 197.777344 193.136719 C 197.457031 193.757812 197.296875 194.699219 197.296875 195.953125 C 197.296875 197.199219 197.457031 198.136719 197.777344 198.761719 C 198.097656 199.386719 198.574219 199.699219 199.207031 199.699219 C 199.847656 199.699219 200.328125 199.386719 200.644531 198.761719 C 200.964844 198.136719 201.125 197.199219 201.125 195.953125 C 201.125 194.699219 200.964844 193.757812 200.644531 193.136719 C 200.328125 192.511719 199.847656 192.199219 199.207031 192.199219 Z M 199.207031 191.222656 C 200.230469 191.222656 201.011719 191.625 201.550781 192.433594 C 202.089844 193.242188 202.359375 194.414062 202.359375 195.953125 C 202.359375 197.484375 202.089844 198.65625 201.550781 199.464844 C 201.011719 200.273438 200.230469 200.675781 199.207031 200.675781 C 198.1875 200.675781 197.40625 200.273438 196.867188 199.464844 C 196.328125 198.65625 196.058594 197.484375 196.058594 195.953125 C 196.058594 194.414062 196.328125 193.242188 196.867188 192.433594 C 197.40625 191.625 198.1875 191.222656 199.207031 191.222656 Z M 199.207031 191.222656 "/>
<g clip-path="url(#clip4)" clip-rule="nonzero">
<path style="fill:none;stroke-width:0.8;stroke-linecap:square;stroke-linejoin:round;stroke:rgb(69.019608%,69.019608%,69.019608%);stroke-opacity:1;stroke-miterlimit:4;" d="M 196.046875 145.8 L 196.046875 7.2 " transform="matrix(1.25,0,0,1.25,0.000000000000028422,0)"/>
</g>
<path style="fill:none;stroke-width:0.8;stroke-linecap:butt;stroke-linejoin:round;stroke:rgb(0%,0%,0%);stroke-opacity:1;stroke-miterlimit:4;" d="M 0.000893 0 L 0.000893 3.5 " transform="matrix(1.25,0,0,1.25,245.057478,182.25)"/>
<path style=" stroke:none;fill-rule:nonzero;fill:rgb(0%,0%,0%);fill-opacity:1;" d="M 241.828125 192.460938 L 238.714844 197.324219 L 241.828125 197.324219 Z M 241.503906 191.386719 L 243.054688 191.386719 L 243.054688 197.324219 L 244.355469 197.324219 L 244.355469 198.351562 L 243.054688 198.351562 L 243.054688 200.5 L 241.828125 200.5 L 241.828125 198.351562 L 237.714844 198.351562 L 237.714844 197.160156 Z M 241.503906 191.386719 "/>
<path style=" stroke:none;fill-rule:nonzero;fill:rgb(0%,0%,0%);fill-opacity:1;" d="M 249.03125 192.199219 C 248.394531 192.199219 247.917969 192.511719 247.597656 193.136719 C 247.277344 193.757812 247.121094 194.699219 247.121094 195.953125 C 247.121094 197.199219 247.277344 198.136719 247.597656 198.761719 C 247.917969 199.386719 248.394531 199.699219 249.03125 199.699219 C 249.667969 199.699219 250.148438 199.386719 250.46875 198.761719 C 250.789062 198.136719 250.949219 197.199219 250.949219 195.953125 C 250.949219 194.699219 250.789062 193.757812 250.46875 193.136719 C 250.148438 192.511719 249.667969 192.199219 249.03125 192.199219 Z M 249.03125 191.222656 C 250.050781 191.222656 250.832031 191.625 251.371094 192.433594 C 251.910156 193.242188 252.179688 194.414062 252.179688 195.953125 C 252.179688 197.484375 251.910156 198.65625 251.371094 199.464844 C 250.832031 200.273438 250.050781 200.675781 249.03125 200.675781 C 248.007812 200.675781 247.230469 200.273438 246.691406 199.464844 C 246.152344 198.65625 245.882812 197.484375 245.882812 195.953125 C 245.882812 194.414062 246.152344 193.242188 246.691406 192.433594 C 247.230469 191.625 248.007812 191.222656 249.03125 191.222656 Z M 249.03125 191.222656 "/>
<g clip-path="url(#clip5)" clip-rule="nonzero">
<path style="fill:none;stroke-width:0.8;stroke-linecap:square;stroke-linejoin:round;stroke:rgb(69.019608%,69.019608%,69.019608%);stroke-opacity:1;stroke-miterlimit:4;" d="M 235.903125 145.8 L 235.903125 7.2 " transform="matrix(1.25,0,0,1.25,0.000000000000028422,0)"/>
</g>
<path style="fill:none;stroke-width:0.8;stroke-linecap:butt;stroke-linejoin:round;stroke:rgb(0%,0%,0%);stroke-opacity:1;stroke-miterlimit:4;" d="M 0 0 L 0 3.5 " transform="matrix(1.25,0,0,1.25,294.878906,182.25)"/>
<path style=" stroke:none;fill-rule:nonzero;fill:rgb(0%,0%,0%);fill-opacity:1;" d="M 288.273438 191.386719 L 293.117188 191.386719 L 293.117188 192.425781 L 289.40625 192.425781 L 289.40625 194.65625 C 289.582031 194.59375 289.761719 194.550781 289.9375 194.519531 C 290.117188 194.488281 290.296875 194.476562 290.476562 194.476562 C 291.496094 194.476562 292.300781 194.753906 292.894531 195.3125 C 293.488281 195.867188 293.789062 196.621094 293.789062 197.574219 C 293.789062 198.554688 293.480469 199.316406 292.871094 199.863281 C 292.261719 200.40625 291.398438 200.675781 290.289062 200.675781 C 289.90625 200.675781 289.515625 200.644531 289.117188 200.578125 C 288.722656 200.511719 288.3125 200.414062 287.890625 200.285156 L 287.890625 199.046875 C 288.257812 199.246094 288.632812 199.394531 289.023438 199.492188 C 289.414062 199.589844 289.828125 199.636719 290.265625 199.636719 C 290.96875 199.636719 291.523438 199.453125 291.9375 199.082031 C 292.347656 198.710938 292.554688 198.210938 292.554688 197.574219 C 292.554688 196.941406 292.347656 196.4375 291.9375 196.070312 C 291.523438 195.699219 290.96875 195.511719 290.265625 195.511719 C 289.933594 195.511719 289.605469 195.546875 289.277344 195.621094 C 288.949219 195.695312 288.617188 195.808594 288.273438 195.964844 Z M 288.273438 191.386719 "/>
<path style=" stroke:none;fill-rule:nonzero;fill:rgb(0%,0%,0%);fill-opacity:1;" d="M 298.851562 192.199219 C 298.21875 192.199219 297.738281 192.511719 297.417969 193.136719 C 297.101562 193.757812 296.941406 194.699219 296.941406 195.953125 C 296.941406 197.199219 297.101562 198.136719 297.417969 198.761719 C 297.738281 199.386719 298.21875 199.699219 298.851562 199.699219 C 299.492188 199.699219 299.96875 199.386719 300.289062 198.761719 C 300.609375 198.136719 300.769531 197.199219 300.769531 195.953125 C 300.769531 194.699219 300.609375 193.757812 300.289062 193.136719 C 299.96875 192.511719 299.492188 192.199219 298.851562 192.199219 Z M 298.851562 191.222656 C 299.875 191.222656 300.652344 191.625 301.191406 192.433594 C 301.730469 193.242188 302 194.414062 302 195.953125 C 302 197.484375 301.730469 198.65625 301.191406 199.464844 C 300.652344 200.273438 299.875 200.675781 298.851562 200.675781 C 297.832031 200.675781 297.050781 200.273438 296.511719 199.464844 C 295.972656 198.65625 295.703125 197.484375 295.703125 195.953125 C 295.703125 194.414062 295.972656 193.242188 296.511719 192.433594 C 297.050781 191.625 297.832031 191.222656 298.851562 191.222656 Z M 298.851562 191.222656 "/>
<path style=" stroke:none;fill-rule:nonzero;fill:rgb(0%,0%,0%);fill-opacity:1;" d="M 164.832031 210.960938 L 164.832031 212.023438 C 164.515625 211.859375 164.1875 211.738281 163.84375 211.660156 C 163.503906 211.578125 163.148438 211.535156 162.78125 211.535156 C 162.222656 211.535156 161.804688 211.621094 161.527344 211.792969 C 161.25 211.960938 161.109375 212.21875 161.109375 212.5625 C 161.109375 212.820312 161.210938 213.027344 161.40625 213.175781 C 161.609375 213.324219 162.007812 213.464844 162.609375 213.597656 L 162.996094 213.683594 C 163.792969 213.855469 164.359375 214.09375 164.695312 214.40625 C 165.03125 214.71875 165.199219 215.152344 165.199219 215.710938 C 165.199219 216.34375 164.949219 216.847656 164.445312 217.21875 C 163.941406 217.589844 163.25 217.773438 162.375 217.773438 C 162.007812 217.773438 161.625 217.738281 161.226562 217.667969 C 160.832031 217.59375 160.414062 217.488281 159.976562 217.347656 L 159.976562 216.1875 C 160.390625 216.402344 160.796875 216.5625 161.203125 216.671875 C 161.601562 216.777344 162.003906 216.832031 162.398438 216.832031 C 162.925781 216.832031 163.332031 216.742188 163.617188 216.5625 C 163.902344 216.378906 164.046875 216.125 164.046875 215.796875 C 164.046875 215.492188 163.941406 215.257812 163.734375 215.09375 C 163.53125 214.929688 163.082031 214.773438 162.382812 214.625 L 161.992188 214.53125 C 161.296875 214.386719 160.796875 214.160156 160.484375 213.859375 C 160.179688 213.554688 160.023438 213.136719 160.023438 212.609375 C 160.023438 211.964844 160.25 211.46875 160.707031 211.121094 C 161.164062 210.769531 161.808594 210.597656 162.648438 210.597656 C 163.0625 210.597656 163.453125 210.625 163.820312 210.6875 C 164.1875 210.746094 164.523438 210.839844 164.832031 210.960938 Z M 164.832031 210.960938 "/>
<path style=" stroke:none;fill-rule:nonzero;fill:rgb(0%,0%,0%);fill-opacity:1;" d="M 168.097656 208.820312 L 168.097656 210.761719 L 170.410156 210.761719 L 170.410156 211.632812 L 168.097656 211.632812 L 168.097656 215.34375 C 168.097656 215.902344 168.175781 216.257812 168.328125 216.417969 C 168.480469 216.578125 168.789062 216.65625 169.257812 216.65625 L 170.410156 216.65625 L 170.410156 217.597656 L 169.257812 217.597656 C 168.390625 217.597656 167.792969 217.433594 167.464844 217.113281 C 167.132812 216.789062 166.96875 216.199219 166.96875 215.34375 L 166.96875 211.632812 L 166.144531 211.632812 L 166.144531 210.761719 L 166.96875 210.761719 L 166.96875 208.820312 Z M 168.097656 208.820312 "/>
<path style=" stroke:none;fill-rule:nonzero;fill:rgb(0%,0%,0%);fill-opacity:1;" d="M 177.734375 213.898438 L 177.734375 214.445312 L 172.570312 214.445312 C 172.621094 215.21875 172.855469 215.808594 173.269531 216.214844 C 173.6875 216.617188 174.269531 216.820312 175.011719 216.820312 C 175.445312 216.820312 175.863281 216.769531 176.265625 216.664062 C 176.671875 216.558594 177.074219 216.398438 177.472656 216.1875 L 177.472656 217.25 C 177.070312 217.417969 176.65625 217.550781 176.234375 217.640625 C 175.8125 217.730469 175.382812 217.773438 174.945312 217.773438 C 173.855469 217.773438 172.992188 217.457031 172.355469 216.824219 C 171.71875 216.1875 171.398438 215.328125 171.398438 214.246094 C 171.398438 213.125 171.703125 212.238281 172.304688 211.582031 C 172.910156 210.925781 173.726562 210.597656 174.75 210.597656 C 175.671875 210.597656 176.398438 210.890625 176.933594 211.484375 C 177.46875 212.074219 177.734375 212.878906 177.734375 213.898438 Z M 176.613281 213.566406 C 176.605469 212.953125 176.433594 212.464844 176.097656 212.097656 C 175.761719 211.730469 175.316406 211.546875 174.761719 211.546875 C 174.136719 211.546875 173.636719 211.722656 173.257812 212.078125 C 172.882812 212.433594 172.667969 212.929688 172.609375 213.574219 Z M 176.613281 213.566406 "/>
<path style=" stroke:none;fill-rule:nonzero;fill:rgb(0%,0%,0%);fill-opacity:1;" d="M 180.664062 216.570312 L 180.664062 220.195312 L 179.535156 220.195312 L 179.535156 210.761719 L 180.664062 210.761719 L 180.664062 211.796875 C 180.902344 211.390625 181.199219 211.089844 181.558594 210.894531 C 181.917969 210.695312 182.351562 210.597656 182.851562 210.597656 C 183.679688 210.597656 184.355469 210.925781 184.875 211.585938 C 185.394531 212.242188 185.652344 213.109375 185.652344 214.183594 C 185.652344 215.257812 185.394531 216.125 184.875 216.785156 C 184.355469 217.445312 183.679688 217.773438 182.851562 217.773438 C 182.351562 217.773438 181.917969 217.675781 181.558594 217.476562 C 181.199219 217.277344 180.902344 216.976562 180.664062 216.570312 Z M 184.488281 214.183594 C 184.488281 213.359375 184.316406 212.710938 183.976562 212.242188 C 183.636719 211.769531 183.171875 211.535156 182.578125 211.535156 C 181.980469 211.535156 181.515625 211.769531 181.175781 212.242188 C 180.835938 212.710938 180.664062 213.359375 180.664062 214.183594 C 180.664062 215.007812 180.835938 215.65625 181.175781 216.128906 C 181.515625 216.597656 181.980469 216.832031 182.578125 216.832031 C 183.171875 216.832031 183.636719 216.597656 183.976562 216.128906 C 184.316406 215.65625 184.488281 215.007812 184.488281 214.183594 Z M 184.488281 214.183594 "/>
<g clip-path="url(#clip6)" clip-rule="nonzero">
<path style="fill:none;stroke-width:0.8;stroke-linecap:square;stroke-linejoin:round;stroke:rgb(69.019608%,69.019608%,69.019608%);stroke-opacity:1;stroke-miterlimit:4;" d="M 40.603125 122.878125 L 235.903125 122.878125 " transform="matrix(1.25,0,0,1.25,0.000000000000028422,0)"/>
</g>
<path style="fill:none;stroke-width:0.8;stroke-linecap:butt;stroke-linejoin:round;stroke:rgb(0%,0%,0%);stroke-opacity:1;stroke-miterlimit:4;" d="M -0.000000000000014211 0.000118 L -3.5 0.000118 " transform="matrix(1.25,0,0,1.25,50.753906,153.597509)"/>
<path style=" stroke:none;fill-rule:nonzero;fill:rgb(0%,0%,0%);fill-opacity:1;" d="M 36.449219 157.308594 L 40.753906 157.308594 L 40.753906 158.347656 L 34.96875 158.347656 L 34.96875 157.308594 C 35.433594 156.824219 36.070312 156.175781 36.878906 155.359375 C 37.6875 154.542969 38.195312 154.015625 38.402344 153.78125 C 38.796875 153.335938 39.074219 152.960938 39.230469 152.65625 C 39.386719 152.347656 39.464844 152.046875 39.464844 151.75 C 39.464844 151.265625 39.296875 150.871094 38.957031 150.566406 C 38.617188 150.257812 38.171875 150.105469 37.628906 150.105469 C 37.242188 150.105469 36.832031 150.171875 36.402344 150.308594 C 35.972656 150.441406 35.515625 150.644531 35.027344 150.917969 L 35.027344 149.671875 C 35.523438 149.472656 35.988281 149.324219 36.417969 149.222656 C 36.851562 149.121094 37.246094 149.070312 37.605469 149.070312 C 38.546875 149.070312 39.300781 149.304688 39.863281 149.777344 C 40.421875 150.25 40.703125 150.878906 40.703125 151.667969 C 40.703125 152.042969 40.632812 152.398438 40.492188 152.734375 C 40.351562 153.070312 40.097656 153.464844 39.726562 153.921875 C 39.625 154.039062 39.300781 154.378906 38.757812 154.945312 C 38.210938 155.507812 37.441406 156.296875 36.449219 157.308594 Z M 36.449219 157.308594 "/>
<g clip-path="url(#clip7)" clip-rule="nonzero">
<path style="fill:none;stroke-width:0.8;stroke-linecap:square;stroke-linejoin:round;stroke:rgb(69.019608%,69.019608%,69.019608%);stroke-opacity:1;stroke-miterlimit:4;" d="M 40.603125 96.4375 L 235.903125 96.4375 " transform="matrix(1.25,0,0,1.25,0.000000000000028422,0)"/>
</g>
<path style="fill:none;stroke-width:0.8;stroke-linecap:butt;stroke-linejoin:round;stroke:rgb(0%,0%,0%);stroke-opacity:1;stroke-miterlimit:4;" d="M -0.000000000000014211 -0.000986 L -3.5 -0.000986 " transform="matrix(1.25,0,0,1.25,50.753906,120.548108)"/>
<path style=" stroke:none;fill-rule:nonzero;fill:rgb(0%,0%,0%);fill-opacity:1;" d="M 38.777344 117.257812 L 35.664062 122.125 L 38.777344 122.125 Z M 38.453125 116.183594 L 40.003906 116.183594 L 40.003906 122.125 L 41.304688 122.125 L 41.304688 123.148438 L 40.003906 123.148438 L 40.003906 125.296875 L 38.777344 125.296875 L 38.777344 123.148438 L 34.664062 123.148438 L 34.664062 121.960938 Z M 38.453125 116.183594 "/>
<g clip-path="url(#clip8)" clip-rule="nonzero">
<path style="fill:none;stroke-width:0.8;stroke-linecap:square;stroke-linejoin:round;stroke:rgb(69.019608%,69.019608%,69.019608%);stroke-opacity:1;stroke-miterlimit:4;" d="M 40.603125 70 L 235.903125 70 " transform="matrix(1.25,0,0,1.25,0.000000000000028422,0)"/>
</g>
<path style="fill:none;stroke-width:0.8;stroke-linecap:butt;stroke-linejoin:round;stroke:rgb(0%,0%,0%);stroke-opacity:1;stroke-miterlimit:4;" d="M -0.000000000000014211 0.001036 L -3.5 0.001036 " transform="matrix(1.25,0,0,1.25,50.753906,87.498705)"/>
<path style=" stroke:none;fill-rule:nonzero;fill:rgb(0%,0%,0%);fill-opacity:1;" d="M 38.179688 87.199219 C 37.625 87.199219 37.1875 87.390625 36.863281 87.769531 C 36.539062 88.148438 36.378906 88.664062 36.378906 89.324219 C 36.378906 89.980469 36.539062 90.496094 36.863281 90.878906 C 37.1875 91.257812 37.625 91.449219 38.179688 91.449219 C 38.730469 91.449219 39.167969 91.257812 39.492188 90.878906 C 39.816406 90.496094 39.976562 89.980469 39.976562 89.324219 C 39.976562 88.664062 39.816406 88.148438 39.492188 87.769531 C 39.167969 87.390625 38.730469 87.199219 38.179688 87.199219 Z M 40.625 83.335938 L 40.625 84.457031 C 40.316406 84.3125 40.003906 84.203125 39.6875 84.125 C 39.371094 84.046875 39.058594 84.007812 38.75 84.007812 C 37.9375 84.007812 37.316406 84.28125 36.886719 84.832031 C 36.457031 85.382812 36.210938 86.210938 36.152344 87.320312 C 36.390625 86.96875 36.691406 86.695312 37.054688 86.507812 C 37.417969 86.320312 37.816406 86.222656 38.25 86.222656 C 39.164062 86.222656 39.890625 86.503906 40.421875 87.058594 C 40.953125 87.613281 41.21875 88.367188 41.21875 89.324219 C 41.21875 90.261719 40.941406 91.011719 40.386719 91.578125 C 39.832031 92.144531 39.097656 92.425781 38.179688 92.425781 C 37.125 92.425781 36.316406 92.023438 35.761719 91.214844 C 35.203125 90.40625 34.925781 89.234375 34.925781 87.699219 C 34.925781 86.261719 35.265625 85.113281 35.949219 84.253906 C 36.632812 83.398438 37.550781 82.96875 38.703125 82.96875 C 39.011719 82.96875 39.324219 83 39.640625 83.0625 C 39.953125 83.125 40.28125 83.214844 40.625 83.335938 Z M 40.625 83.335938 "/>
<g clip-path="url(#clip9)" clip-rule="nonzero">
<path style="fill:none;stroke-width:0.8;stroke-linecap:square;stroke-linejoin:round;stroke:rgb(69.019608%,69.019608%,69.019608%);stroke-opacity:1;stroke-miterlimit:4;" d="M 40.603125 43.559375 L 235.903125 43.559375 " transform="matrix(1.25,0,0,1.25,0.000000000000028422,0)"/>
</g>
<path style="fill:none;stroke-width:0.8;stroke-linecap:butt;stroke-linejoin:round;stroke:rgb(0%,0%,0%);stroke-opacity:1;stroke-miterlimit:4;" d="M -0.000000000000014211 -0.000068 L -3.5 -0.000068 " transform="matrix(1.25,0,0,1.25,50.753906,54.449304)"/>
<path style=" stroke:none;fill-rule:nonzero;fill:rgb(0%,0%,0%);fill-opacity:1;" d="M 38.023438 54.871094 C 37.4375 54.871094 36.976562 55.027344 36.640625 55.339844 C 36.304688 55.65625 36.140625 56.085938 36.140625 56.632812 C 36.140625 57.183594 36.304688 57.613281 36.640625 57.929688 C 36.976562 58.242188 37.4375 58.398438 38.023438 58.398438 C 38.609375 58.398438 39.070312 58.242188 39.410156 57.925781 C 39.746094 57.609375 39.917969 57.179688 39.917969 56.632812 C 39.917969 56.085938 39.75 55.65625 39.414062 55.339844 C 39.078125 55.027344 38.613281 54.871094 38.023438 54.871094 Z M 36.792969 54.347656 C 36.261719 54.214844 35.851562 53.96875 35.554688 53.609375 C 35.261719 53.246094 35.113281 52.804688 35.113281 52.28125 C 35.113281 51.554688 35.371094 50.980469 35.890625 50.554688 C 36.410156 50.132812 37.121094 49.921875 38.023438 49.921875 C 38.929688 49.921875 39.644531 50.132812 40.160156 50.554688 C 40.675781 50.980469 40.9375 51.554688 40.9375 52.28125 C 40.9375 52.804688 40.789062 53.246094 40.492188 53.609375 C 40.199219 53.96875 39.789062 54.214844 39.265625 54.347656 C 39.859375 54.484375 40.320312 54.753906 40.652344 55.160156 C 40.984375 55.5625 41.148438 56.054688 41.148438 56.632812 C 41.148438 57.519531 40.878906 58.195312 40.339844 58.667969 C 39.800781 59.140625 39.027344 59.375 38.023438 59.375 C 37.019531 59.375 36.246094 59.140625 35.707031 58.667969 C 35.167969 58.195312 34.898438 57.519531 34.898438 56.632812 C 34.898438 56.054688 35.066406 55.5625 35.398438 55.160156 C 35.734375 54.753906 36.199219 54.484375 36.792969 54.347656 Z M 36.339844 52.398438 C 36.339844 52.871094 36.488281 53.238281 36.78125 53.503906 C 37.078125 53.765625 37.492188 53.898438 38.023438 53.898438 C 38.554688 53.898438 38.96875 53.765625 39.265625 53.503906 C 39.566406 53.238281 39.714844 52.871094 39.714844 52.398438 C 39.714844 51.925781 39.566406 51.558594 39.265625 51.292969 C 38.96875 51.03125 38.554688 50.898438 38.023438 50.898438 C 37.492188 50.898438 37.078125 51.03125 36.78125 51.292969 C 36.488281 51.558594 36.339844 51.925781 36.339844 52.398438 Z M 36.339844 52.398438 "/>
<g clip-path="url(#clip10)" clip-rule="nonzero">
<path style="fill:none;stroke-width:0.8;stroke-linecap:square;stroke-linejoin:round;stroke:rgb(69.019608%,69.019608%,69.019608%);stroke-opacity:1;stroke-miterlimit:4;" d="M 40.603125 17.11875 L 235.903125 17.11875 " transform="matrix(1.25,0,0,1.25,0.000000000000028422,0)"/>
</g>
<path style="fill:none;stroke-width:0.8;stroke-linecap:butt;stroke-linejoin:round;stroke:rgb(0%,0%,0%);stroke-opacity:1;stroke-miterlimit:4;" d="M -0.000000000000014211 -0.001172 L -3.5 -0.001172 " transform="matrix(1.25,0,0,1.25,50.753906,21.399902)"/>
<path style=" stroke:none;fill-rule:nonzero;fill:rgb(0%,0%,0%);fill-opacity:1;" d="M 27.648438 25.113281 L 29.664062 25.113281 L 29.664062 18.160156 L 27.472656 18.597656 L 27.472656 17.476562 L 29.652344 17.035156 L 30.882812 17.035156 L 30.882812 25.113281 L 32.898438 25.113281 L 32.898438 26.148438 L 27.648438 26.148438 Z M 27.648438 25.113281 "/>
<path style=" stroke:none;fill-rule:nonzero;fill:rgb(0%,0%,0%);fill-opacity:1;" d="M 38.023438 17.847656 C 37.390625 17.847656 36.910156 18.160156 36.589844 18.785156 C 36.273438 19.410156 36.113281 20.347656 36.113281 21.601562 C 36.113281 22.851562 36.273438 23.789062 36.589844 24.414062 C 36.910156 25.039062 37.390625 25.351562 38.023438 25.351562 C 38.664062 25.351562 39.140625 25.039062 39.460938 24.414062 C 39.78125 23.789062 39.941406 22.851562 39.941406 21.601562 C 39.941406 20.347656 39.78125 19.410156 39.460938 18.785156 C 39.140625 18.160156 38.664062 17.847656 38.023438 17.847656 Z M 38.023438 16.871094 C 39.046875 16.871094 39.824219 17.277344 40.363281 18.085938 C 40.902344 18.890625 41.171875 20.0625 41.171875 21.601562 C 41.171875 23.136719 40.902344 24.308594 40.363281 25.117188 C 39.824219 25.921875 39.046875 26.328125 38.023438 26.328125 C 37.003906 26.328125 36.222656 25.921875 35.683594 25.117188 C 35.144531 24.308594 34.875 23.136719 34.875 21.601562 C 34.875 20.0625 35.144531 18.890625 35.683594 18.085938 C 36.222656 17.277344 37.003906 16.871094 38.023438 16.871094 Z M 38.023438 16.871094 "/>
<path style=" stroke:none;fill-rule:nonzero;fill:rgb(0%,0%,0%);fill-opacity:1;" d="M 9 106.519531 L 9 105.398438 L 18.496094 105.398438 L 18.496094 106.519531 Z M 9 106.519531 "/>
<path style=" stroke:none;fill-rule:nonzero;fill:rgb(0%,0%,0%);fill-opacity:1;" d="M 12.449219 100.398438 C 12.449219 101 12.683594 101.476562 13.152344 101.824219 C 13.625 102.175781 14.269531 102.351562 15.085938 102.351562 C 15.902344 102.351562 16.546875 102.175781 17.015625 101.828125 C 17.488281 101.480469 17.722656 101.003906 17.722656 100.398438 C 17.722656 99.800781 17.488281 99.324219 17.015625 98.976562 C 16.542969 98.625 15.898438 98.449219 15.085938 98.449219 C 14.277344 98.449219 13.632812 98.625 13.160156 98.976562 C 12.6875 99.324219 12.449219 99.800781 12.449219 100.398438 Z M 11.496094 100.398438 C 11.496094 99.421875 11.816406 98.65625 12.449219 98.097656 C 13.085938 97.539062 13.964844 97.257812 15.085938 97.257812 C 16.203125 97.257812 17.082031 97.539062 17.71875 98.097656 C 18.355469 98.65625 18.675781 99.421875 18.675781 100.398438 C 18.675781 101.378906 18.355469 102.148438 17.71875 102.703125 C 17.082031 103.257812 16.203125 103.535156 15.085938 103.535156 C 13.964844 103.535156 13.085938 103.257812 12.449219 102.703125 C 11.816406 102.148438 11.496094 101.378906 11.496094 100.398438 Z M 11.496094 100.398438 "/>
<path style=" stroke:none;fill-rule:nonzero;fill:rgb(0%,0%,0%);fill-opacity:1;" d="M 11.863281 91.042969 L 12.925781 91.042969 C 12.761719 91.359375 12.640625 91.6875 12.558594 92.03125 C 12.476562 92.371094 12.4375 92.726562 12.4375 93.09375 C 12.4375 93.648438 12.523438 94.066406 12.691406 94.347656 C 12.863281 94.625 13.121094 94.765625 13.460938 94.765625 C 13.722656 94.765625 13.925781 94.664062 14.074219 94.464844 C 14.222656 94.265625 14.367188 93.863281 14.5 93.261719 L 14.585938 92.878906 C 14.757812 92.082031 14.996094 91.515625 15.308594 91.179688 C 15.621094 90.84375 16.054688 90.675781 16.609375 90.675781 C 17.246094 90.675781 17.75 90.925781 18.121094 91.429688 C 18.492188 91.929688 18.675781 92.621094 18.675781 93.5 C 18.675781 93.867188 18.640625 94.246094 18.566406 94.644531 C 18.496094 95.042969 18.390625 95.460938 18.246094 95.898438 L 17.085938 95.898438 C 17.304688 95.484375 17.464844 95.074219 17.574219 94.671875 C 17.679688 94.269531 17.734375 93.871094 17.734375 93.476562 C 17.734375 92.945312 17.644531 92.539062 17.460938 92.257812 C 17.28125 91.972656 17.027344 91.828125 16.695312 91.828125 C 16.390625 91.828125 16.160156 91.929688 15.996094 92.136719 C 15.832031 92.339844 15.675781 92.792969 15.523438 93.488281 L 15.433594 93.878906 C 15.289062 94.574219 15.0625 95.078125 14.757812 95.386719 C 14.457031 95.695312 14.039062 95.851562 13.511719 95.851562 C 12.867188 95.851562 12.371094 95.621094 12.023438 95.167969 C 11.671875 94.710938 11.496094 94.0625 11.496094 93.226562 C 11.496094 92.8125 11.527344 92.421875 11.589844 92.054688 C 11.648438 91.6875 11.742188 91.351562 11.863281 91.042969 Z M 11.863281 91.042969 "/>
<path style=" stroke:none;fill-rule:nonzero;fill:rgb(0%,0%,0%);fill-opacity:1;" d="M 11.863281 84.527344 L 12.925781 84.527344 C 12.761719 84.84375 12.640625 85.175781 12.558594 85.515625 C 12.476562 85.859375 12.4375 86.210938 12.4375 86.578125 C 12.4375 87.136719 12.523438 87.554688 12.691406 87.832031 C 12.863281 88.113281 13.121094 88.25 13.460938 88.25 C 13.722656 88.25 13.925781 88.152344 14.074219 87.953125 C 14.222656 87.753906 14.367188 87.351562 14.5 86.75 L 14.585938 86.363281 C 14.757812 85.566406 14.996094 85 15.308594 84.664062 C 15.621094 84.328125 16.054688 84.160156 16.609375 84.160156 C 17.246094 84.160156 17.75 84.414062 18.121094 84.914062 C 18.492188 85.417969 18.675781 86.109375 18.675781 86.988281 C 18.675781 87.355469 18.640625 87.734375 18.566406 88.132812 C 18.496094 88.53125 18.390625 88.949219 18.246094 89.386719 L 17.085938 89.386719 C 17.304688 88.972656 17.464844 88.5625 17.574219 88.160156 C 17.679688 87.757812 17.734375 87.359375 17.734375 86.960938 C 17.734375 86.433594 17.644531 86.027344 17.460938 85.742188 C 17.28125 85.457031 17.027344 85.316406 16.695312 85.316406 C 16.390625 85.316406 16.160156 85.417969 15.996094 85.625 C 15.832031 85.828125 15.675781 86.28125 15.523438 86.976562 L 15.433594 87.367188 C 15.289062 88.0625 15.0625 88.566406 14.757812 88.875 C 14.457031 89.183594 14.039062 89.335938 13.511719 89.335938 C 12.867188 89.335938 12.371094 89.109375 12.023438 88.652344 C 11.671875 88.199219 11.496094 87.550781 11.496094 86.710938 C 11.496094 86.296875 11.527344 85.910156 11.589844 85.542969 C 11.648438 85.175781 11.742188 84.835938 11.863281 84.527344 Z M 11.863281 84.527344 "/>
<g clip-path="url(#clip11)" clip-rule="nonzero">
<path style="fill:none;stroke-width:1.5;stroke-linecap:square;stroke-linejoin:round;stroke:rgb(12.156863%,46.666667%,70.588235%);stroke-opacity:1;stroke-miterlimit:4;" d="M 40.603125 13.5 L 44.5875 24.390625 L 48.575 32.2 L 52.559375 39.675 L 56.546875 46.05625 L 60.53125 50.865625 L 64.51875 54.29375 L 68.503125 56.71875 L 72.4875 58.63125 L 76.475 60.13125 L 80.459375 61.3125 L 84.446875 62.259375 L 88.43125 63.225 L 92.41875 64.121875 L 96.403125 64.98125 L 100.3875 65.69375 L 104.375 66.4 L 108.359375 67.075 L 112.346875 67.784375 L 116.33125 68.240625 L 120.31875 68.871875 L 124.303125 69.475 L 128.2875 70.021875 L 132.275 70.48125 L 136.259375 70.953125 L 140.246875 71.38125 L 144.23125 71.8 L 148.21875 72.2 L 152.203125 72.571875 L 156.1875 72.9625 L 160.175 73.275 L 164.159375 73.603125 L 168.146875 73.896875 L 172.13125 74.1875 L 176.11875 74.440625 L 180.103125 74.6875 L 184.0875 74.921875 L 188.075 75.1625 L 192.059375 75.375 L 196.046875 75.578125 L 200.03125 75.784375 L 204.01875 75.98125 L 208.003125 76.15 L 211.9875 76.315625 L 215.975 76.515625 L 219.959375 76.665625 L 223.946875 76.809375 L 227.93125 76.971875 L 231.91875 77.115625 L 235.903125 77.259375 " transform="matrix(1.25,0,0,1.25,0.000000000000028422,0)"/>
</g>
<g clip-path="url(#clip12)" clip-rule="nonzero">
<path style="fill:none;stroke-width:1.5;stroke-linecap:butt;stroke-linejoin:round;stroke:rgb(74.901961%,0%,74.901961%);stroke-opacity:1;stroke-dasharray:5.55,2.4;stroke-miterlimit:4;" d="M 40.603125 139.5 L 44.5875 135.790625 L 48.575 131.34375 L 52.559375 131.978125 L 56.546875 133.253125 L 60.53125 134.16875 L 64.51875 134.990625 L 68.503125 135.6375 L 72.4875 136.128125 L 76.475 136.525 L 80.459375 136.840625 L 84.446875 137.103125 L 88.43125 137.315625 L 92.41875 137.396875 L 96.403125 137.5625 L 100.3875 137.721875 L 104.375 137.85 L 108.359375 137.978125 L 112.346875 138.090625 L 116.33125 138.196875 L 120.31875 138.2875 L 124.303125 138.36875 L 128.2875 138.43125 L 132.275 138.5 L 136.259375 138.559375 L 140.246875 138.621875 L 144.23125 138.675 L 148.21875 138.725 L 152.203125 138.771875 L 156.1875 138.815625 L 160.175 138.853125 L 164.159375 138.8875 L 168.146875 138.928125 L 172.13125 138.965625 L 176.11875 138.990625 L 180.103125 139.021875 L 184.0875 139.046875 L 188.075 139.075 L 192.059375 139.103125 L 196.046875 139.128125 L 200.03125 139.153125 L 204.01875 139.171875 L 211.9875 139.215625 L 215.975 139.234375 L 219.959375 139.253125 L 223.946875 139.275 L 227.93125 139.290625 L 231.91875 139.309375 L 235.903125 139.325 " transform="matrix(1.25,0,0,1.25,0.000000000000028422,0)"/>
</g>
<path style="fill:none;stroke-width:0.8;stroke-linecap:square;stroke-linejoin:miter;stroke:rgb(0%,0%,0%);stroke-opacity:1;stroke-miterlimit:4;" d="M 40.603125 145.8 L 40.603125 7.2 " transform="matrix(1.25,0,0,1.25,0.000000000000028422,0)"/>
<path style="fill:none;stroke-width:0.8;stroke-linecap:square;stroke-linejoin:miter;stroke:rgb(0%,0%,0%);stroke-opacity:1;stroke-miterlimit:4;" d="M 235.903125 145.8 L 235.903125 7.2 " transform="matrix(1.25,0,0,1.25,0.000000000000028422,0)"/>
<path style="fill:none;stroke-width:0.8;stroke-linecap:square;stroke-linejoin:miter;stroke:rgb(0%,0%,0%);stroke-opacity:1;stroke-miterlimit:4;" d="M 40.603125 145.8 L 235.903125 145.8 " transform="matrix(1.25,0,0,1.25,0.000000000000028422,0)"/>
<path style="fill:none;stroke-width:0.8;stroke-linecap:square;stroke-linejoin:miter;stroke:rgb(0%,0%,0%);stroke-opacity:1;stroke-miterlimit:4;" d="M 40.603125 7.2 L 235.903125 7.2 " transform="matrix(1.25,0,0,1.25,0.000000000000028422,0)"/>
<use xlink:href="#surface5" mask="url(#mask0)"/>
<path style="fill:none;stroke-width:1.5;stroke-linecap:square;stroke-linejoin:round;stroke:rgb(12.156863%,46.666667%,70.588235%);stroke-opacity:1;stroke-miterlimit:4;" d="M 176.64375 20.3 L 196.64375 20.3 " transform="matrix(1.25,0,0,1.25,0.000000000000028422,0)"/>
<path style=" stroke:none;fill-rule:nonzero;fill:rgb(0%,0%,0%);fill-opacity:1;" d="M 262.304688 24.226562 C 262.585938 23.71875 262.921875 23.347656 263.3125 23.109375 C 263.703125 22.867188 264.164062 22.75 264.691406 22.75 C 265.402344 22.75 265.953125 22.996094 266.339844 23.496094 C 266.726562 23.992188 266.921875 24.703125 266.921875 25.621094 L 266.921875 29.75 L 265.789062 29.75 L 265.789062 25.660156 C 265.789062 25.003906 265.675781 24.519531 265.441406 24.203125 C 265.210938 23.882812 264.855469 23.726562 264.382812 23.726562 C 263.796875 23.726562 263.339844 23.917969 263 24.304688 C 262.664062 24.691406 262.492188 25.21875 262.492188 25.886719 L 262.492188 29.75 L 261.367188 29.75 L 261.367188 25.660156 C 261.367188 25 261.25 24.511719 261.015625 24.199219 C 260.785156 23.882812 260.429688 23.726562 259.945312 23.726562 C 259.367188 23.726562 258.914062 23.917969 258.574219 24.308594 C 258.238281 24.695312 258.070312 25.222656 258.070312 25.886719 L 258.070312 29.75 L 256.9375 29.75 L 256.9375 22.914062 L 258.070312 22.914062 L 258.070312 23.976562 C 258.324219 23.554688 258.632812 23.246094 258.992188 23.046875 C 259.347656 22.847656 259.773438 22.75 260.265625 22.75 C 260.761719 22.75 261.1875 22.875 261.53125 23.128906 C 261.882812 23.378906 262.136719 23.746094 262.304688 24.226562 Z M 262.304688 24.226562 "/>
<path style=" stroke:none;fill-rule:nonzero;fill:rgb(0%,0%,0%);fill-opacity:1;" d="M 269.160156 20.25 L 270.28125 20.25 L 270.28125 29.75 L 269.160156 29.75 Z M 269.160156 20.25 "/>
<path style=" stroke:none;fill-rule:nonzero;fill:rgb(0%,0%,0%);fill-opacity:1;" d="M 277.953125 24.226562 C 278.234375 23.71875 278.570312 23.347656 278.960938 23.109375 C 279.351562 22.867188 279.8125 22.75 280.339844 22.75 C 281.054688 22.75 281.601562 22.996094 281.988281 23.496094 C 282.375 23.992188 282.570312 24.703125 282.570312 25.621094 L 282.570312 29.75 L 281.441406 29.75 L 281.441406 25.660156 C 281.441406 25.003906 281.324219 24.519531 281.089844 24.203125 C 280.859375 23.882812 280.503906 23.726562 280.03125 23.726562 C 279.449219 23.726562 278.988281 23.917969 278.648438 24.304688 C 278.3125 24.691406 278.144531 25.21875 278.144531 25.886719 L 278.144531 29.75 L 277.015625 29.75 L 277.015625 25.660156 C 277.015625 25 276.898438 24.511719 276.667969 24.199219 C 276.433594 23.882812 276.078125 23.726562 275.59375 23.726562 C 275.019531 23.726562 274.5625 23.917969 274.222656 24.308594 C 273.886719 24.695312 273.71875 25.222656 273.71875 25.886719 L 273.71875 29.75 L 272.589844 29.75 L 272.589844 22.914062 L 273.71875 22.914062 L 273.71875 23.976562 C 273.972656 23.554688 274.28125 23.246094 274.640625 23.046875 C 274.996094 22.847656 275.421875 22.75 275.914062 22.75 C 276.414062 22.75 276.835938 22.875 277.183594 23.128906 C 277.53125 23.378906 277.789062 23.746094 277.953125 24.226562 Z M 277.953125 24.226562 "/>
<path style="fill:none;stroke-width:1.5;stroke-linecap:butt;stroke-linejoin:round;stroke:rgb(74.901961%,0%,74.901961%);stroke-opacity:1;stroke-dasharray:5.55,2.4;stroke-miterlimit:4;" d="M 176.64375 34.975 L 196.64375 34.975 " transform="matrix(1.25,0,0,1.25,0.000000000000028422,0)"/>
<path style=" stroke:none;fill-rule:nonzero;fill:rgb(0%,0%,0%);fill-opacity:1;" d="M 262.664062 43.96875 L 262.664062 48.09375 L 261.542969 48.09375 L 261.542969 44.003906 C 261.542969 43.359375 261.417969 42.875 261.164062 42.554688 C 260.910156 42.234375 260.53125 42.070312 260.03125 42.070312 C 259.421875 42.070312 258.945312 42.265625 258.59375 42.652344 C 258.242188 43.039062 258.070312 43.5625 258.070312 44.230469 L 258.070312 48.09375 L 256.9375 48.09375 L 256.9375 41.257812 L 258.070312 41.257812 L 258.070312 42.320312 C 258.335938 41.910156 258.65625 41.601562 259.015625 41.398438 C 259.382812 41.195312 259.804688 41.09375 260.28125 41.09375 C 261.0625 41.09375 261.65625 41.339844 262.0625 41.824219 C 262.464844 42.308594 262.664062 43.023438 262.664062 43.96875 Z M 262.664062 43.96875 "/>
<path style=" stroke:none;fill-rule:nonzero;fill:rgb(0%,0%,0%);fill-opacity:1;" d="M 269.261719 41.460938 L 269.261719 42.523438 C 268.945312 42.359375 268.617188 42.238281 268.273438 42.15625 C 267.933594 42.074219 267.578125 42.035156 267.210938 42.035156 C 266.652344 42.035156 266.234375 42.121094 265.957031 42.289062 C 265.679688 42.460938 265.539062 42.71875 265.539062 43.058594 C 265.539062 43.320312 265.640625 43.523438 265.839844 43.671875 C 266.039062 43.820312 266.4375 43.964844 267.042969 44.097656 L 267.425781 44.183594 C 268.222656 44.355469 268.789062 44.59375 269.125 44.90625 C 269.460938 45.21875 269.628906 45.652344 269.628906 46.207031 C 269.628906 46.84375 269.378906 47.347656 268.875 47.71875 C 268.371094 48.089844 267.683594 48.273438 266.804688 48.273438 C 266.4375 48.273438 266.054688 48.238281 265.660156 48.164062 C 265.261719 48.09375 264.84375 47.988281 264.40625 47.84375 L 264.40625 46.683594 C 264.820312 46.902344 265.230469 47.0625 265.632812 47.171875 C 266.035156 47.277344 266.433594 47.332031 266.828125 47.332031 C 267.355469 47.332031 267.761719 47.242188 268.046875 47.058594 C 268.332031 46.878906 268.476562 46.625 268.476562 46.292969 C 268.476562 45.988281 268.371094 45.757812 268.167969 45.59375 C 267.960938 45.429688 267.511719 45.273438 266.816406 45.121094 L 266.425781 45.03125 C 265.730469 44.886719 265.226562 44.660156 264.917969 44.355469 C 264.609375 44.054688 264.453125 43.636719 264.453125 43.109375 C 264.453125 42.464844 264.679688 41.96875 265.136719 41.621094 C 265.59375 41.269531 266.238281 41.09375 267.078125 41.09375 C 267.492188 41.09375 267.882812 41.125 268.25 41.1875 C 268.617188 41.246094 268.953125 41.339844 269.261719 41.460938 Z M 269.261719 41.460938 "/>
<path style=" stroke:none;fill-rule:nonzero;fill:rgb(0%,0%,0%);fill-opacity:1;" d="M 272.503906 47.070312 L 272.503906 50.695312 L 271.375 50.695312 L 271.375 41.257812 L 272.503906 41.257812 L 272.503906 42.296875 C 272.738281 41.890625 273.039062 41.589844 273.398438 41.390625 C 273.757812 41.195312 274.1875 41.09375 274.6875 41.09375 C 275.519531 41.09375 276.195312 41.425781 276.710938 42.082031 C 277.230469 42.742188 277.492188 43.609375 277.492188 44.683594 C 277.492188 45.757812 277.230469 46.625 276.710938 47.285156 C 276.195312 47.945312 275.519531 48.273438 274.6875 48.273438 C 274.1875 48.273438 273.757812 48.175781 273.398438 47.976562 C 273.039062 47.777344 272.738281 47.476562 272.503906 47.070312 Z M 276.324219 44.683594 C 276.324219 43.859375 276.15625 43.210938 275.816406 42.738281 C 275.476562 42.269531 275.007812 42.035156 274.414062 42.035156 C 273.820312 42.035156 273.351562 42.269531 273.011719 42.738281 C 272.671875 43.210938 272.503906 43.859375 272.503906 44.683594 C 272.503906 45.507812 272.671875 46.15625 273.011719 46.625 C 273.351562 47.097656 273.820312 47.332031 274.414062 47.332031 C 275.007812 47.332031 275.476562 47.097656 275.816406 46.625 C 276.15625 46.15625 276.324219 45.507812 276.324219 44.683594 Z M 276.324219 44.683594 "/>
</g>
</svg>
