<?xml version="1.0" encoding="UTF-8"?>
<svg xmlns="http://www.w3.org/2000/svg" xmlns:xlink="http://www.w3.org/1999/xlink" width="308pt" height="229pt" viewBox="0 0 308 229" version="1.1">
<defs>
<clipPath id="clip1">
  <path d="M 50.753906 9 L 52 9 L 52 182.25 L 50.753906 182.25 Z M 50.753906 9 "/>
</clipPath>
<clipPath id="clip2">
  <path d="M 111 9 L 113 9 L 113 182.25 L 111 182.25 Z M 111 9 "/>
</clipPath>
<clipPath id="clip3">
  <path d="M 172 9 L 174 9 L 174 182.25 L 172 182.25 Z M 172 9 "/>
</clipPath>
<clipPath id="clip4">
  <path d="M 233 9 L 235 9 L 235 182.25 L 233 182.25 Z M 233 9 "/>
</clipPath>
<clipPath id="clip5">
  <path d="M 294 9 L 294.878906 9 L 294.878906 182.25 L 294 182.25 Z M 294 9 "/>
</clipPath>
<clipPath id="clip6">
  <path d="M 50.753906 157 L 294.878906 157 L 294.878906 159 L 50.753906 159 Z M 50.753906 157 "/>
</clipPath>
<clipPath id="clip7">
  <path d="M 50.753906 124 L 294.878906 124 L 294.878906 126 L 50.753906 126 Z M 50.753906 124 "/>
</clipPath>
<clipPath id="clip8">
  <path d="M 50.753906 91 L 294.878906 91 L 294.878906 94 L 50.753906 94 Z M 50.753906 91 "/>
</clipPath>
<clipPath id="clip9">
  <path d="M 50.753906 59 L 294.878906 59 L 294.878906 61 L 50.753906 61 Z M 50.753906 59 "/>
</clipPath>
<clipPath id="clip10">
  <path d="M 50.753906 26 L 294.878906 26 L 294.878906 29 L 50.753906 29 Z M 50.753906 26 "/>
</clipPath>
<clipPath id="clip11">
  <path d="M 50.753906 15 L 294.878906 15 L 294.878906 176 L 50.753906 176 Z M 50.753906 15 "/>
</clipPath>
</defs>
<g id="surface1">
<path style=" stroke:none;fill-rule:nonzero;fill:rgb(100%,100%,100%);fill-opacity:1;" d="M 0 229.195312 L 307.855469 229.195312 L 307.855469 0 L 0 0 Z M 0 229.195312 "/>
<path style=" stroke:none;fill-rule:nonzero;fill:rgb(100%,100%,100%);fill-opacity:1;" d="M 50.753906 182.25 L 294.878906 182.25 L 294.878906 9 L 50.753906 9 Z M 50.753906 182.25 "/>
<g clip-path="url(#clip1)" clip-rule="nonzero">
<path style="fill:none;stroke-width:0.8;stroke-linecap:square;stroke-linejoin:round;stroke:rgb(69.019608%,69.019608%,69.019608%);stroke-opacity:1;stroke-miterlimit:4;" d="M 40.603125 145.8 L 40.603125 7.2 " transform="matrix(1.25,0,0,1.25,0,0)"/>
</g>
<path style="fill:none;stroke-width:0.8;stroke-linecap:butt;stroke-linejoin:round;stroke:rgb(0%,0%,0%);stroke-opacity:1;stroke-miterlimit:4;" d="M 0 0 L 0 3.5 " transform="matrix(1.25,0,0,1.25,50.753906,182.25)"/>
<path style=" stroke:none;fill-rule:nonzero;fill:rgb(0%,0%,0%);fill-opacity:1;" d="M 48.328125 199.460938 L 50.34375 199.460938 L 50.34375 192.507812 L 48.148438 192.949219 L 48.148438 191.824219 L 50.328125 191.386719 L 51.5625 191.386719 L 51.5625 199.460938 L 53.578125 199.460938 L 53.578125 200.5 L 48.328125 200.5 Z M 48.328125 199.460938 "/>
<g clip-path="url(#clip2)" clip-rule="nonzero">
<path style="fill:none;stroke-width:0.8;stroke-linecap:square;stroke-linejoin:round;stroke:rgb(69.019608%,69.019608%,69.019608%);stroke-opacity:1;stroke-miterlimit:4;" d="M 89.428125 145.8 L 89.428125 7.2 " transform="matrix(1.25,0,0,1.25,0,0)"/>
</g>
<path style="fill:none;stroke-width:0.8;stroke-linecap:butt;stroke-linejoin:round;stroke:rgb(0%,0%,0%);stroke-opacity:1;stroke-miterlimit:4;" d="M 0 0 L 0 3.5 " transform="matrix(1.25,0,0,1.25,111.785156,182.25)"/>
<path style=" stroke:none;fill-rule:nonzero;fill:rgb(0%,0%,0%);fill-opacity:1;" d="M 110.207031 199.460938 L 114.507812 199.460938 L 114.507812 200.5 L 108.726562 200.5 L 108.726562 199.460938 C 109.191406 198.976562 109.828125 198.328125 110.636719 197.511719 C 111.445312 196.695312 111.953125 196.167969 112.160156 195.933594 C 112.554688 195.488281 112.828125 195.113281 112.984375 194.808594 C 113.144531 194.5 113.222656 194.199219 113.222656 193.902344 C 113.222656 193.417969 113.054688 193.023438 112.710938 192.71875 C 112.375 192.410156 111.929688 192.257812 111.382812 192.257812 C 111 192.257812 110.589844 192.324219 110.160156 192.460938 C 109.730469 192.59375 109.273438 192.796875 108.785156 193.070312 L 108.785156 191.824219 C 109.28125 191.625 109.746094 191.476562 110.175781 191.375 C 110.609375 191.273438 111.003906 191.222656 111.359375 191.222656 C 112.304688 191.222656 113.058594 191.457031 113.617188 191.929688 C 114.179688 192.402344 114.460938 193.03125 114.460938 193.820312 C 114.460938 194.195312 114.390625 194.550781 114.25 194.886719 C 114.109375 195.222656 113.855469 195.617188 113.484375 196.074219 C 113.382812 196.191406 113.058594 196.53125 112.515625 197.097656 C 111.96875 197.660156 111.199219 198.449219 110.207031 199.460938 Z M 110.207031 199.460938 "/>
<g clip-path="url(#clip3)" clip-rule="nonzero">
<path style="fill:none;stroke-width:0.8;stroke-linecap:square;stroke-linejoin:round;stroke:rgb(69.019608%,69.019608%,69.019608%);stroke-opacity:1;stroke-miterlimit:4;" d="M 138.253125 145.8 L 138.253125 7.2 " transform="matrix(1.25,0,0,1.25,0,0)"/>
</g>
<path style="fill:none;stroke-width:0.8;stroke-linecap:butt;stroke-linejoin:round;stroke:rgb(0%,0%,0%);stroke-opacity:1;stroke-miterlimit:4;" d="M 0 0 L 0 3.5 " transform="matrix(1.25,0,0,1.25,172.816406,182.25)"/>
<path style=" stroke:none;fill-rule:nonzero;fill:rgb(0%,0%,0%);fill-opacity:1;" d="M 173.914062 195.585938 C 174.5 195.710938 174.960938 195.972656 175.292969 196.375 C 175.625 196.773438 175.789062 197.265625 175.789062 197.851562 C 175.789062 198.75 175.480469 199.445312 174.863281 199.9375 C 174.246094 200.429688 173.367188 200.675781 172.226562 200.675781 C 171.84375 200.675781 171.453125 200.636719 171.046875 200.5625 C 170.640625 200.488281 170.222656 200.375 169.792969 200.222656 L 169.792969 199.035156 C 170.132812 199.234375 170.507812 199.382812 170.914062 199.484375 C 171.320312 199.585938 171.746094 199.636719 172.191406 199.636719 C 172.964844 199.636719 173.550781 199.484375 173.957031 199.179688 C 174.363281 198.875 174.5625 198.433594 174.5625 197.851562 C 174.5625 197.3125 174.375 196.890625 174 196.589844 C 173.625 196.285156 173.101562 196.136719 172.429688 196.136719 L 171.367188 196.136719 L 171.367188 195.121094 L 172.476562 195.121094 C 173.085938 195.121094 173.546875 195 173.867188 194.757812 C 174.191406 194.515625 174.351562 194.167969 174.351562 193.710938 C 174.351562 193.242188 174.1875 192.886719 173.851562 192.636719 C 173.523438 192.382812 173.046875 192.257812 172.429688 192.257812 C 172.089844 192.257812 171.726562 192.296875 171.34375 192.371094 C 170.953125 192.441406 170.53125 192.554688 170.066406 192.710938 L 170.066406 191.613281 C 170.535156 191.480469 170.972656 191.382812 171.382812 191.320312 C 171.792969 191.253906 172.175781 191.222656 172.539062 191.222656 C 173.476562 191.222656 174.214844 191.433594 174.757812 191.859375 C 175.304688 192.285156 175.578125 192.859375 175.578125 193.582031 C 175.578125 194.085938 175.433594 194.515625 175.144531 194.863281 C 174.855469 195.210938 174.445312 195.449219 173.914062 195.585938 Z M 173.914062 195.585938 "/>
<g clip-path="url(#clip4)" clip-rule="nonzero">
<path style="fill:none;stroke-width:0.8;stroke-linecap:square;stroke-linejoin:round;stroke:rgb(69.019608%,69.019608%,69.019608%);stroke-opacity:1;stroke-miterlimit:4;" d="M 187.078125 145.8 L 187.078125 7.2 " transform="matrix(1.25,0,0,1.25,0,0)"/>
</g>
<path style="fill:none;stroke-width:0.8;stroke-linecap:butt;stroke-linejoin:round;stroke:rgb(0%,0%,0%);stroke-opacity:1;stroke-miterlimit:4;" d="M 0 0 L 0 3.5 " transform="matrix(1.25,0,0,1.25,233.847656,182.25)"/>
<path style=" stroke:none;fill-rule:nonzero;fill:rgb(0%,0%,0%);fill-opacity:1;" d="M 234.59375 192.460938 L 231.484375 197.324219 L 234.59375 197.324219 Z M 234.273438 191.386719 L 235.820312 191.386719 L 235.820312 197.324219 L 237.125 197.324219 L 237.125 198.351562 L 235.820312 198.351562 L 235.820312 200.5 L 234.59375 200.5 L 234.59375 198.351562 L 230.484375 198.351562 L 230.484375 197.160156 Z M 234.273438 191.386719 "/>
<g clip-path="url(#clip5)" clip-rule="nonzero">
<path style="fill:none;stroke-width:0.8;stroke-linecap:square;stroke-linejoin:round;stroke:rgb(69.019608%,69.019608%,69.019608%);stroke-opacity:1;stroke-miterlimit:4;" d="M 235.903125 145.8 L 235.903125 7.2 " transform="matrix(1.25,0,0,1.25,0,0)"/>
</g>
<path style="fill:none;stroke-width:0.8;stroke-linecap:butt;stroke-linejoin:round;stroke:rgb(0%,0%,0%);stroke-opacity:1;stroke-miterlimit:4;" d="M 0 0 L 0 3.5 " transform="matrix(1.25,0,0,1.25,294.878906,182.25)"/>
<path style=" stroke:none;fill-rule:nonzero;fill:rgb(0%,0%,0%);fill-opacity:1;" d="M 292.25 191.386719 L 297.09375 191.386719 L 297.09375 192.425781 L 293.382812 192.425781 L 293.382812 194.65625 C 293.558594 194.59375 293.738281 194.550781 293.914062 194.519531 C 294.09375 194.488281 294.273438 194.476562 294.453125 194.476562 C 295.472656 194.476562 296.277344 194.753906 296.871094 195.3125 C 297.464844 195.867188 297.765625 196.621094 297.765625 197.574219 C 297.765625 198.554688 297.457031 199.316406 296.847656 199.863281 C 296.238281 200.40625 295.375 200.675781 294.265625 200.675781 C 293.882812 200.675781 293.492188 200.644531 293.09375 200.578125 C 292.699219 200.511719 292.289062 200.414062 291.867188 200.285156 L 291.867188 199.046875 C 292.234375 199.246094 292.609375 199.394531 293 199.492188 C 293.390625 199.589844 293.804688 199.636719 294.242188 199.636719 C 294.945312 199.636719 295.5 199.453125 295.914062 199.082031 C 296.324219 198.710938 296.53125 198.210938 296.53125 197.574219 C 296.53125 196.941406 296.324219 196.4375 295.914062 196.070312 C 295.5 195.699219 294.945312 195.511719 294.242188 195.511719 C 293.910156 195.511719 293.582031 195.546875 293.253906 195.621094 C 292.925781 195.695312 292.59375 195.808594 292.25 195.964844 Z M 292.25 191.386719 "/>
<path style=" stroke:none;fill-rule:nonzero;fill:rgb(0%,0%,0%);fill-opacity:1;" d="M 160.804688 213.898438 L 160.804688 214.445312 L 155.640625 214.445312 C 155.691406 215.21875 155.925781 215.808594 156.34375 216.214844 C 156.757812 216.617188 157.339844 216.820312 158.085938 216.820312 C 158.515625 216.820312 158.933594 216.769531 159.335938 216.664062 C 159.742188 216.558594 160.144531 216.398438 160.546875 216.1875 L 160.546875 217.25 C 160.140625 217.417969 159.726562 217.550781 159.304688 217.640625 C 158.882812 217.730469 158.453125 217.773438 158.015625 217.773438 C 156.925781 217.773438 156.0625 217.457031 155.425781 216.824219 C 154.789062 216.1875 154.46875 215.328125 154.46875 214.246094 C 154.46875 213.125 154.773438 212.238281 155.375 211.582031 C 155.980469 210.925781 156.796875 210.597656 157.820312 210.597656 C 158.742188 210.597656 159.46875 210.890625 160.003906 211.484375 C 160.539062 212.074219 160.804688 212.878906 160.804688 213.898438 Z M 159.683594 213.566406 C 159.675781 212.953125 159.503906 212.464844 159.167969 212.097656 C 158.832031 211.730469 158.386719 211.546875 157.835938 211.546875 C 157.207031 211.546875 156.707031 211.722656 156.328125 212.078125 C 155.953125 212.433594 155.738281 212.929688 155.679688 213.574219 Z M 159.683594 213.566406 "/>
<path style=" stroke:none;fill-rule:nonzero;fill:rgb(0%,0%,0%);fill-opacity:1;" d="M 163.734375 216.570312 L 163.734375 220.195312 L 162.605469 220.195312 L 162.605469 210.761719 L 163.734375 210.761719 L 163.734375 211.796875 C 163.972656 211.390625 164.269531 211.089844 164.628906 210.894531 C 164.992188 210.695312 165.421875 210.597656 165.921875 210.597656 C 166.75 210.597656 167.425781 210.925781 167.945312 211.585938 C 168.464844 212.242188 168.722656 213.109375 168.722656 214.183594 C 168.722656 215.257812 168.464844 216.125 167.945312 216.785156 C 167.425781 217.445312 166.75 217.773438 165.921875 217.773438 C 165.421875 217.773438 164.992188 217.675781 164.628906 217.476562 C 164.269531 217.277344 163.972656 216.976562 163.734375 216.570312 Z M 167.558594 214.183594 C 167.558594 213.359375 167.386719 212.710938 167.046875 212.242188 C 166.707031 211.769531 166.242188 211.535156 165.648438 211.535156 C 165.050781 211.535156 164.585938 211.769531 164.246094 212.242188 C 163.90625 212.710938 163.734375 213.359375 163.734375 214.183594 C 163.734375 215.007812 163.90625 215.65625 164.246094 216.128906 C 164.585938 216.597656 165.050781 216.832031 165.648438 216.832031 C 166.242188 216.832031 166.707031 216.597656 167.046875 216.128906 C 167.386719 215.65625 167.558594 215.007812 167.558594 214.183594 Z M 167.558594 214.183594 "/>
<path style=" stroke:none;fill-rule:nonzero;fill:rgb(0%,0%,0%);fill-opacity:1;" d="M 173.234375 211.546875 C 172.632812 211.546875 172.15625 211.78125 171.804688 212.253906 C 171.453125 212.722656 171.28125 213.367188 171.28125 214.183594 C 171.28125 215 171.453125 215.644531 171.800781 216.117188 C 172.148438 216.585938 172.625 216.820312 173.234375 216.820312 C 173.832031 216.820312 174.304688 216.585938 174.65625 216.113281 C 175.003906 215.640625 175.179688 214.996094 175.179688 214.183594 C 175.179688 213.375 175.003906 212.730469 174.65625 212.257812 C 174.304688 211.785156 173.832031 211.546875 173.234375 211.546875 Z M 173.234375 210.597656 C 174.210938 210.597656 174.976562 210.914062 175.53125 211.550781 C 176.09375 212.183594 176.371094 213.0625 176.371094 214.183594 C 176.371094 215.300781 176.09375 216.179688 175.53125 216.820312 C 174.976562 217.457031 174.210938 217.773438 173.234375 217.773438 C 172.25 217.773438 171.484375 217.457031 170.929688 216.820312 C 170.375 216.179688 170.09375 215.300781 170.09375 214.183594 C 170.09375 213.0625 170.375 212.183594 170.929688 211.550781 C 171.484375 210.914062 172.25 210.597656 173.234375 210.597656 Z M 173.234375 210.597656 "/>
<path style=" stroke:none;fill-rule:nonzero;fill:rgb(0%,0%,0%);fill-opacity:1;" d="M 183.152344 211.023438 L 183.152344 212.074219 C 182.832031 211.898438 182.515625 211.765625 182.195312 211.679688 C 181.878906 211.589844 181.554688 211.546875 181.230469 211.546875 C 180.5 211.546875 179.933594 211.777344 179.53125 212.242188 C 179.128906 212.703125 178.925781 213.347656 178.925781 214.183594 C 178.925781 215.019531 179.128906 215.667969 179.53125 216.128906 C 179.933594 216.589844 180.5 216.820312 181.230469 216.820312 C 181.554688 216.820312 181.878906 216.777344 182.195312 216.691406 C 182.515625 216.601562 182.832031 216.472656 183.152344 216.296875 L 183.152344 217.335938 C 182.835938 217.480469 182.511719 217.589844 182.175781 217.664062 C 181.84375 217.738281 181.484375 217.773438 181.105469 217.773438 C 180.078125 217.773438 179.257812 217.449219 178.652344 216.804688 C 178.046875 216.15625 177.742188 215.28125 177.742188 214.183594 C 177.742188 213.070312 178.050781 212.191406 178.660156 211.554688 C 179.273438 210.914062 180.113281 210.597656 181.179688 210.597656 C 181.527344 210.597656 181.863281 210.632812 182.191406 210.703125 C 182.523438 210.773438 182.839844 210.878906 183.152344 211.023438 Z M 183.152344 211.023438 "/>
<path style=" stroke:none;fill-rule:nonzero;fill:rgb(0%,0%,0%);fill-opacity:1;" d="M 190.789062 213.46875 L 190.789062 217.597656 L 189.664062 217.597656 L 189.664062 213.507812 C 189.664062 212.859375 189.539062 212.375 189.285156 212.054688 C 189.035156 211.734375 188.65625 211.574219 188.152344 211.574219 C 187.542969 211.574219 187.066406 211.765625 186.714844 212.152344 C 186.367188 212.539062 186.191406 213.066406 186.191406 213.734375 L 186.191406 217.597656 L 185.0625 217.597656 L 185.0625 208.097656 L 186.191406 208.097656 L 186.191406 211.824219 C 186.460938 211.410156 186.777344 211.105469 187.140625 210.902344 C 187.503906 210.699219 187.925781 210.597656 188.402344 210.597656 C 189.1875 210.597656 189.78125 210.839844 190.183594 211.324219 C 190.585938 211.808594 190.789062 212.523438 190.789062 213.46875 Z M 190.789062 213.46875 "/>
<g clip-path="url(#clip6)" clip-rule="nonzero">
<path style="fill:none;stroke-width:0.8;stroke-linecap:square;stroke-linejoin:round;stroke:rgb(69.019608%,69.019608%,69.019608%);stroke-opacity:1;stroke-miterlimit:4;" d="M 40.603125 126.16875 L 235.903125 126.16875 " transform="matrix(1.25,0,0,1.25,0,0)"/>
</g>
<path style="fill:none;stroke-width:0.8;stroke-linecap:butt;stroke-linejoin:round;stroke:rgb(0%,0%,0%);stroke-opacity:1;stroke-miterlimit:4;" d="M 0 -0.000641 L -3.5 -0.000641 " transform="matrix(1.25,0,0,1.25,50.753906,157.711739)"/>
<path style=" stroke:none;fill-rule:nonzero;fill:rgb(0%,0%,0%);fill-opacity:1;" d="M 31.171875 157.546875 C 31.757812 157.671875 32.21875 157.9375 32.550781 158.335938 C 32.882812 158.734375 33.046875 159.226562 33.046875 159.8125 C 33.046875 160.710938 32.738281 161.40625 32.121094 161.898438 C 31.503906 162.390625 30.625 162.636719 29.484375 162.636719 C 29.101562 162.636719 28.710938 162.601562 28.304688 162.523438 C 27.898438 162.449219 27.480469 162.335938 27.050781 162.183594 L 27.050781 160.996094 C 27.390625 161.195312 27.765625 161.34375 28.171875 161.445312 C 28.578125 161.546875 29.003906 161.597656 29.449219 161.597656 C 30.222656 161.597656 30.808594 161.445312 31.214844 161.140625 C 31.621094 160.835938 31.820312 160.394531 31.820312 159.8125 C 31.820312 159.273438 31.632812 158.855469 31.257812 158.550781 C 30.882812 158.25 30.359375 158.097656 29.6875 158.097656 L 28.625 158.097656 L 28.625 157.082031 L 29.734375 157.082031 C 30.34375 157.082031 30.804688 156.960938 31.125 156.71875 C 31.449219 156.476562 31.609375 156.128906 31.609375 155.671875 C 31.609375 155.207031 31.445312 154.847656 31.109375 154.597656 C 30.78125 154.347656 30.304688 154.21875 29.6875 154.21875 C 29.347656 154.21875 28.984375 154.257812 28.601562 154.332031 C 28.210938 154.40625 27.789062 154.519531 27.324219 154.671875 L 27.324219 153.574219 C 27.792969 153.445312 28.230469 153.347656 28.640625 153.28125 C 29.050781 153.214844 29.433594 153.183594 29.796875 153.183594 C 30.734375 153.183594 31.472656 153.394531 32.015625 153.820312 C 32.5625 154.246094 32.835938 154.820312 32.835938 155.542969 C 32.835938 156.050781 32.691406 156.476562 32.402344 156.824219 C 32.113281 157.171875 31.703125 157.414062 31.171875 157.546875 Z M 31.171875 157.546875 "/>
<path style=" stroke:none;fill-rule:nonzero;fill:rgb(0%,0%,0%);fill-opacity:1;" d="M 38.023438 158.132812 C 37.4375 158.132812 36.976562 158.289062 36.640625 158.601562 C 36.304688 158.917969 36.136719 159.347656 36.136719 159.894531 C 36.136719 160.445312 36.304688 160.878906 36.640625 161.191406 C 36.976562 161.503906 37.4375 161.660156 38.023438 161.660156 C 38.609375 161.660156 39.070312 161.503906 39.40625 161.1875 C 39.746094 160.871094 39.914062 160.441406 39.914062 159.894531 C 39.914062 159.347656 39.746094 158.917969 39.410156 158.601562 C 39.078125 158.289062 38.613281 158.132812 38.023438 158.132812 Z M 36.789062 157.609375 C 36.261719 157.480469 35.851562 157.234375 35.554688 156.871094 C 35.261719 156.507812 35.113281 156.066406 35.113281 155.542969 C 35.113281 154.816406 35.371094 154.242188 35.890625 153.816406 C 36.410156 153.394531 37.121094 153.183594 38.023438 153.183594 C 38.929688 153.183594 39.644531 153.394531 40.160156 153.816406 C 40.675781 154.242188 40.933594 154.816406 40.933594 155.542969 C 40.933594 156.066406 40.789062 156.507812 40.492188 156.871094 C 40.199219 157.234375 39.789062 157.480469 39.261719 157.609375 C 39.855469 157.746094 40.320312 158.019531 40.648438 158.421875 C 40.980469 158.824219 41.148438 159.316406 41.148438 159.894531 C 41.148438 160.78125 40.878906 161.457031 40.339844 161.929688 C 39.800781 162.402344 39.027344 162.636719 38.023438 162.636719 C 37.019531 162.636719 36.246094 162.402344 35.707031 161.929688 C 35.167969 161.457031 34.898438 160.78125 34.898438 159.894531 C 34.898438 159.316406 35.066406 158.824219 35.398438 158.421875 C 35.734375 158.019531 36.195312 157.746094 36.789062 157.609375 Z M 36.339844 155.660156 C 36.339844 156.132812 36.488281 156.5 36.78125 156.765625 C 37.078125 157.03125 37.492188 157.160156 38.023438 157.160156 C 38.554688 157.160156 38.96875 157.03125 39.265625 156.765625 C 39.566406 156.5 39.714844 156.132812 39.714844 155.660156 C 39.714844 155.1875 39.566406 154.820312 39.265625 154.554688 C 38.96875 154.292969 38.554688 154.160156 38.023438 154.160156 C 37.492188 154.160156 37.078125 154.292969 36.78125 154.554688 C 36.488281 154.820312 36.339844 155.1875 36.339844 155.660156 Z M 36.339844 155.660156 "/>
<g clip-path="url(#clip7)" clip-rule="nonzero">
<path style="fill:none;stroke-width:0.8;stroke-linecap:square;stroke-linejoin:round;stroke:rgb(69.019608%,69.019608%,69.019608%);stroke-opacity:1;stroke-miterlimit:4;" d="M 40.603125 100.0875 L 235.903125 100.0875 " transform="matrix(1.25,0,0,1.25,0,0)"/>
</g>
<path style="fill:none;stroke-width:0.8;stroke-linecap:butt;stroke-linejoin:round;stroke:rgb(0%,0%,0%);stroke-opacity:1;stroke-miterlimit:4;" d="M 0 -0.000517 L -3.5 -0.000517 " transform="matrix(1.25,0,0,1.25,50.753906,125.110021)"/>
<path style=" stroke:none;fill-rule:nonzero;fill:rgb(0%,0%,0%);fill-opacity:1;" d="M 30.820312 121.820312 L 27.710938 126.683594 L 30.820312 126.683594 Z M 30.5 120.746094 L 32.046875 120.746094 L 32.046875 126.683594 L 33.351562 126.683594 L 33.351562 127.710938 L 32.046875 127.710938 L 32.046875 129.859375 L 30.820312 129.859375 L 30.820312 127.710938 L 26.710938 127.710938 L 26.710938 126.519531 Z M 30.5 120.746094 "/>
<path style=" stroke:none;fill-rule:nonzero;fill:rgb(0%,0%,0%);fill-opacity:1;" d="M 38.023438 121.558594 C 37.390625 121.558594 36.910156 121.871094 36.589844 122.496094 C 36.273438 123.121094 36.113281 124.058594 36.113281 125.3125 C 36.113281 126.5625 36.273438 127.496094 36.589844 128.121094 C 36.910156 128.746094 37.390625 129.058594 38.023438 129.058594 C 38.664062 129.058594 39.140625 128.746094 39.460938 128.121094 C 39.78125 127.496094 39.941406 126.5625 39.941406 125.3125 C 39.941406 124.058594 39.78125 123.121094 39.460938 122.496094 C 39.140625 121.871094 38.664062 121.558594 38.023438 121.558594 Z M 38.023438 120.582031 C 39.046875 120.582031 39.824219 120.984375 40.363281 121.792969 C 40.902344 122.601562 41.171875 123.773438 41.171875 125.3125 C 41.171875 126.847656 40.902344 128.015625 40.363281 128.824219 C 39.824219 129.632812 39.046875 130.035156 38.023438 130.035156 C 37.003906 130.035156 36.222656 129.632812 35.683594 128.824219 C 35.144531 128.015625 34.875 126.847656 34.875 125.3125 C 34.875 123.773438 35.144531 122.601562 35.683594 121.792969 C 36.222656 120.984375 37.003906 120.582031 38.023438 120.582031 Z M 38.023438 120.582031 "/>
<g clip-path="url(#clip8)" clip-rule="nonzero">
<path style="fill:none;stroke-width:0.8;stroke-linecap:square;stroke-linejoin:round;stroke:rgb(69.019608%,69.019608%,69.019608%);stroke-opacity:1;stroke-miterlimit:4;" d="M 40.603125 74.00625 L 235.903125 74.00625 " transform="matrix(1.25,0,0,1.25,0,0)"/>
</g>
<path style="fill:none;stroke-width:0.8;stroke-linecap:butt;stroke-linejoin:round;stroke:rgb(0%,0%,0%);stroke-opacity:1;stroke-miterlimit:4;" d="M 0 -0.000392 L -3.5 -0.000392 " transform="matrix(1.25,0,0,1.25,50.753906,92.508302)"/>
<path style=" stroke:none;fill-rule:nonzero;fill:rgb(0%,0%,0%);fill-opacity:1;" d="M 30.820312 89.21875 L 27.710938 94.082031 L 30.820312 94.082031 Z M 30.5 88.144531 L 32.046875 88.144531 L 32.046875 94.082031 L 33.351562 94.082031 L 33.351562 95.109375 L 32.046875 95.109375 L 32.046875 97.257812 L 30.820312 97.257812 L 30.820312 95.109375 L 26.710938 95.109375 L 26.710938 93.917969 Z M 30.5 88.144531 "/>
<path style=" stroke:none;fill-rule:nonzero;fill:rgb(0%,0%,0%);fill-opacity:1;" d="M 36.449219 96.21875 L 40.75 96.21875 L 40.75 97.257812 L 34.964844 97.257812 L 34.964844 96.21875 C 35.433594 95.734375 36.070312 95.085938 36.878906 94.269531 C 37.6875 93.453125 38.195312 92.929688 38.402344 92.691406 C 38.796875 92.25 39.070312 91.875 39.226562 91.566406 C 39.386719 91.257812 39.464844 90.957031 39.464844 90.660156 C 39.464844 90.175781 39.292969 89.78125 38.953125 89.476562 C 38.613281 89.171875 38.171875 89.015625 37.625 89.015625 C 37.238281 89.015625 36.832031 89.085938 36.402344 89.21875 C 35.972656 89.351562 35.515625 89.554688 35.027344 89.828125 L 35.027344 88.582031 C 35.523438 88.382812 35.988281 88.234375 36.417969 88.132812 C 36.851562 88.03125 37.246094 87.980469 37.601562 87.980469 C 38.546875 87.980469 39.300781 88.214844 39.859375 88.6875 C 40.421875 89.160156 40.703125 89.789062 40.703125 90.578125 C 40.703125 90.953125 40.632812 91.308594 40.492188 91.644531 C 40.351562 91.980469 40.097656 92.375 39.726562 92.832031 C 39.625 92.949219 39.300781 93.292969 38.753906 93.855469 C 38.210938 94.417969 37.441406 95.207031 36.449219 96.21875 Z M 36.449219 96.21875 "/>
<g clip-path="url(#clip9)" clip-rule="nonzero">
<path style="fill:none;stroke-width:0.8;stroke-linecap:square;stroke-linejoin:round;stroke:rgb(69.019608%,69.019608%,69.019608%);stroke-opacity:1;stroke-miterlimit:4;" d="M 40.603125 47.925 L 235.903125 47.925 " transform="matrix(1.25,0,0,1.25,0,0)"/>
</g>
<path style="fill:none;stroke-width:0.8;stroke-linecap:butt;stroke-linejoin:round;stroke:rgb(0%,0%,0%);stroke-opacity:1;stroke-miterlimit:4;" d="M 0 -0.000267 L -3.5 -0.000267 " transform="matrix(1.25,0,0,1.25,50.753906,59.906584)"/>
<path style=" stroke:none;fill-rule:nonzero;fill:rgb(0%,0%,0%);fill-opacity:1;" d="M 30.820312 56.617188 L 27.710938 61.480469 L 30.820312 61.480469 Z M 30.5 55.542969 L 32.046875 55.542969 L 32.046875 61.480469 L 33.351562 61.480469 L 33.351562 62.507812 L 32.046875 62.507812 L 32.046875 64.65625 L 30.820312 64.65625 L 30.820312 62.507812 L 26.710938 62.507812 L 26.710938 61.316406 Z M 30.5 55.542969 "/>
<path style=" stroke:none;fill-rule:nonzero;fill:rgb(0%,0%,0%);fill-opacity:1;" d="M 38.773438 56.617188 L 35.660156 61.480469 L 38.773438 61.480469 Z M 38.449219 55.542969 L 40 55.542969 L 40 61.480469 L 41.300781 61.480469 L 41.300781 62.507812 L 40 62.507812 L 40 64.65625 L 38.773438 64.65625 L 38.773438 62.507812 L 34.660156 62.507812 L 34.660156 61.316406 Z M 38.449219 55.542969 "/>
<g clip-path="url(#clip10)" clip-rule="nonzero">
<path style="fill:none;stroke-width:0.8;stroke-linecap:square;stroke-linejoin:round;stroke:rgb(69.019608%,69.019608%,69.019608%);stroke-opacity:1;stroke-miterlimit:4;" d="M 40.603125 21.84375 L 235.903125 21.84375 " transform="matrix(1.25,0,0,1.25,0,0)"/>
</g>
<path style="fill:none;stroke-width:0.8;stroke-linecap:butt;stroke-linejoin:round;stroke:rgb(0%,0%,0%);stroke-opacity:1;stroke-miterlimit:4;" d="M 0 -0.000143 L -3.5 -0.000143 " transform="matrix(1.25,0,0,1.25,50.753906,27.304866)"/>
<path style=" stroke:none;fill-rule:nonzero;fill:rgb(0%,0%,0%);fill-opacity:1;" d="M 30.820312 24.015625 L 27.710938 28.878906 L 30.820312 28.878906 Z M 30.5 22.941406 L 32.046875 22.941406 L 32.046875 28.878906 L 33.351562 28.878906 L 33.351562 29.90625 L 32.046875 29.90625 L 32.046875 32.054688 L 30.820312 32.054688 L 30.820312 29.90625 L 26.710938 29.90625 L 26.710938 28.714844 Z M 30.5 22.941406 "/>
<path style=" stroke:none;fill-rule:nonzero;fill:rgb(0%,0%,0%);fill-opacity:1;" d="M 38.175781 27.007812 C 37.625 27.007812 37.183594 27.195312 36.859375 27.574219 C 36.539062 27.953125 36.375 28.472656 36.375 29.128906 C 36.375 29.785156 36.539062 30.304688 36.859375 30.683594 C 37.183594 31.066406 37.625 31.253906 38.175781 31.253906 C 38.730469 31.253906 39.167969 31.066406 39.492188 30.683594 C 39.816406 30.304688 39.976562 29.785156 39.976562 29.128906 C 39.976562 28.472656 39.816406 27.953125 39.492188 27.574219 C 39.167969 27.195312 38.730469 27.007812 38.175781 27.007812 Z M 40.625 23.140625 L 40.625 24.265625 C 40.316406 24.117188 40.003906 24.007812 39.6875 23.929688 C 39.371094 23.851562 39.058594 23.8125 38.75 23.8125 C 37.9375 23.8125 37.3125 24.089844 36.882812 24.636719 C 36.457031 25.1875 36.210938 26.015625 36.148438 27.128906 C 36.390625 26.773438 36.691406 26.503906 37.050781 26.3125 C 37.414062 26.125 37.816406 26.03125 38.25 26.03125 C 39.164062 26.03125 39.886719 26.308594 40.417969 26.863281 C 40.949219 27.417969 41.214844 28.175781 41.214844 29.128906 C 41.214844 30.066406 40.941406 30.816406 40.386719 31.382812 C 39.832031 31.949219 39.097656 32.230469 38.175781 32.230469 C 37.121094 32.230469 36.316406 31.828125 35.757812 31.019531 C 35.203125 30.210938 34.921875 29.039062 34.921875 27.507812 C 34.921875 26.066406 35.265625 24.917969 35.949219 24.0625 C 36.632812 23.203125 37.550781 22.777344 38.699219 22.777344 C 39.011719 22.777344 39.324219 22.808594 39.636719 22.867188 C 39.953125 22.929688 40.28125 23.019531 40.625 23.140625 Z M 40.625 23.140625 "/>
<path style=" stroke:none;fill-rule:nonzero;fill:rgb(0%,0%,0%);fill-opacity:1;" d="M 9 106.519531 L 9 105.398438 L 18.496094 105.398438 L 18.496094 106.519531 Z M 9 106.519531 "/>
<path style=" stroke:none;fill-rule:nonzero;fill:rgb(0%,0%,0%);fill-opacity:1;" d="M 12.449219 100.398438 C 12.449219 101 12.683594 101.476562 13.152344 101.824219 C 13.625 102.175781 14.269531 102.351562 15.085938 102.351562 C 15.902344 102.351562 16.546875 102.175781 17.015625 101.828125 C 17.488281 101.480469 17.722656 101.003906 17.722656 100.398438 C 17.722656 99.800781 17.488281 99.324219 17.015625 98.976562 C 16.542969 98.625 15.898438 98.449219 15.085938 98.449219 C 14.277344 98.449219 13.632812 98.625 13.160156 98.976562 C 12.6875 99.324219 12.449219 99.800781 12.449219 100.398438 Z M 11.496094 100.398438 C 11.496094 99.421875 11.816406 98.65625 12.449219 98.097656 C 13.085938 97.539062 13.964844 97.257812 15.085938 97.257812 C 16.203125 97.257812 17.082031 97.539062 17.71875 98.097656 C 18.355469 98.65625 18.675781 99.421875 18.675781 100.398438 C 18.675781 101.378906 18.355469 102.148438 17.71875 102.703125 C 17.082031 103.257812 16.203125 103.535156 15.085938 103.535156 C 13.964844 103.535156 13.085938 103.257812 12.449219 102.703125 C 11.816406 102.148438 11.496094 101.378906 11.496094 100.398438 Z M 11.496094 100.398438 "/>
<path style=" stroke:none;fill-rule:nonzero;fill:rgb(0%,0%,0%);fill-opacity:1;" d="M 11.863281 91.042969 L 12.925781 91.042969 C 12.761719 91.359375 12.640625 91.6875 12.558594 92.03125 C 12.476562 92.371094 12.4375 92.726562 12.4375 93.09375 C 12.4375 93.648438 12.523438 94.066406 12.691406 94.347656 C 12.863281 94.625 13.121094 94.765625 13.460938 94.765625 C 13.722656 94.765625 13.925781 94.664062 14.074219 94.464844 C 14.222656 94.265625 14.367188 93.863281 14.5 93.261719 L 14.585938 92.878906 C 14.757812 92.082031 14.996094 91.515625 15.308594 91.179688 C 15.621094 90.84375 16.054688 90.675781 16.609375 90.675781 C 17.246094 90.675781 17.75 90.925781 18.121094 91.429688 C 18.492188 91.929688 18.675781 92.621094 18.675781 93.5 C 18.675781 93.867188 18.640625 94.246094 18.566406 94.644531 C 18.496094 95.042969 18.390625 95.460938 18.246094 95.898438 L 17.085938 95.898438 C 17.304688 95.484375 17.464844 95.074219 17.574219 94.671875 C 17.679688 94.269531 17.734375 93.871094 17.734375 93.476562 C 17.734375 92.945312 17.644531 92.539062 17.460938 92.257812 C 17.28125 91.972656 17.027344 91.828125 16.695312 91.828125 C 16.390625 91.828125 16.160156 91.929688 15.996094 92.136719 C 15.832031 92.339844 15.675781 92.792969 15.523438 93.488281 L 15.433594 93.878906 C 15.289062 94.574219 15.0625 95.078125 14.757812 95.386719 C 14.457031 95.695312 14.039062 95.851562 13.511719 95.851562 C 12.867188 95.851562 12.371094 95.621094 12.023438 95.167969 C 11.671875 94.710938 11.496094 94.0625 11.496094 93.226562 C 11.496094 92.8125 11.527344 92.421875 11.589844 92.054688 C 11.648438 91.6875 11.742188 91.351562 11.863281 91.042969 Z M 11.863281 91.042969 "/>
<path style=" stroke:none;fill-rule:nonzero;fill:rgb(0%,0%,0%);fill-opacity:1;" d="M 11.863281 84.527344 L 12.925781 84.527344 C 12.761719 84.84375 12.640625 85.175781 12.558594 85.515625 C 12.476562 85.859375 12.4375 86.210938 12.4375 86.578125 C 12.4375 87.136719 12.523438 87.554688 12.691406 87.832031 C 12.863281 88.113281 13.121094 88.25 13.460938 88.25 C 13.722656 88.25 13.925781 88.152344 14.074219 87.953125 C 14.222656 87.753906 14.367188 87.351562 14.5 86.75 L 14.585938 86.363281 C 14.757812 85.566406 14.996094 85 15.308594 84.664062 C 15.621094 84.328125 16.054688 84.160156 16.609375 84.160156 C 17.246094 84.160156 17.75 84.414062 18.121094 84.914062 C 18.492188 85.417969 18.675781 86.109375 18.675781 86.988281 C 18.675781 87.355469 18.640625 87.734375 18.566406 88.132812 C 18.496094 88.53125 18.390625 88.949219 18.246094 89.386719 L 17.085938 89.386719 C 17.304688 88.972656 17.464844 88.5625 17.574219 88.160156 C 17.679688 87.757812 17.734375 87.359375 17.734375 86.960938 C 17.734375 86.433594 17.644531 86.027344 17.460938 85.742188 C 17.28125 85.457031 17.027344 85.316406 16.695312 85.316406 C 16.390625 85.316406 16.160156 85.417969 15.996094 85.625 C 15.832031 85.828125 15.675781 86.28125 15.523438 86.976562 L 15.433594 87.367188 C 15.289062 88.0625 15.0625 88.566406 14.757812 88.875 C 14.457031 89.183594 14.039062 89.335938 13.511719 89.335938 C 12.867188 89.335938 12.371094 89.109375 12.023438 88.652344 C 11.671875 88.199219 11.496094 87.550781 11.496094 86.710938 C 11.496094 86.296875 11.527344 85.910156 11.589844 85.542969 C 11.648438 85.175781 11.742188 84.835938 11.863281 84.527344 Z M 11.863281 84.527344 "/>
<g clip-path="url(#clip11)" clip-rule="nonzero">
<path style="fill:none;stroke-width:1.5;stroke-linecap:square;stroke-linejoin:round;stroke:rgb(12.156863%,46.666667%,70.588235%);stroke-opacity:1;stroke-miterlimit:4;" d="M 40.603125 13.5 L 89.428125 138.45625 L 138.253125 138.784375 L 187.078125 139.13125 L 235.903125 139.5 " transform="matrix(1.25,0,0,1.25,0,0)"/>
</g>
<path style="fill:none;stroke-width:0.8;stroke-linecap:square;stroke-linejoin:miter;stroke:rgb(0%,0%,0%);stroke-opacity:1;stroke-miterlimit:4;" d="M 40.603125 145.8 L 40.603125 7.2 " transform="matrix(1.25,0,0,1.25,0,0)"/>
<path style="fill:none;stroke-width:0.8;stroke-linecap:square;stroke-linejoin:miter;stroke:rgb(0%,0%,0%);stroke-opacity:1;stroke-miterlimit:4;" d="M 235.903125 145.8 L 235.903125 7.2 " transform="matrix(1.25,0,0,1.25,0,0)"/>
<path style="fill:none;stroke-width:0.8;stroke-linecap:square;stroke-linejoin:miter;stroke:rgb(0%,0%,0%);stroke-opacity:1;stroke-miterlimit:4;" d="M 40.603125 145.8 L 235.903125 145.8 " transform="matrix(1.25,0,0,1.25,0,0)"/>
<path style="fill:none;stroke-width:0.8;stroke-linecap:square;stroke-linejoin:miter;stroke:rgb(0%,0%,0%);stroke-opacity:1;stroke-miterlimit:4;" d="M 40.603125 7.2 L 235.903125 7.2 " transform="matrix(1.25,0,0,1.25,0,0)"/>
</g>
</svg>
