<?xml version="1.0" encoding="UTF-8"?>
<svg xmlns="http://www.w3.org/2000/svg" xmlns:xlink="http://www.w3.org/1999/xlink" width="476pt" height="229pt" viewBox="0 0 476 229" version="1.1">
<defs>
<clipPath id="clip1">
  <path d="M 66 9 L 68 9 L 68 182.25 L 66 182.25 Z M 66 9 "/>
</clipPath>
<clipPath id="clip2">
  <path d="M 130 9 L 133 9 L 133 182.25 L 130 182.25 Z M 130 9 "/>
</clipPath>
<clipPath id="clip3">
  <path d="M 195 9 L 197 9 L 197 182.25 L 195 182.25 Z M 195 9 "/>
</clipPath>
<clipPath id="clip4">
  <path d="M 259 9 L 262 9 L 262 182.25 L 259 182.25 Z M 259 9 "/>
</clipPath>
<clipPath id="clip5">
  <path d="M 324 9 L 326 9 L 326 182.25 L 324 182.25 Z M 324 9 "/>
</clipPath>
<clipPath id="clip6">
  <path d="M 388 9 L 391 9 L 391 182.25 L 388 182.25 Z M 388 9 "/>
</clipPath>
<clipPath id="clip7">
  <path d="M 453 9 L 455 9 L 455 182.25 L 453 182.25 Z M 453 9 "/>
</clipPath>
<clipPath id="clip8">
  <path d="M 48.105469 173 L 466.605469 173 L 466.605469 176 L 48.105469 176 Z M 48.105469 173 "/>
</clipPath>
<clipPath id="clip9">
  <path d="M 48.105469 134 L 466.605469 134 L 466.605469 136 L 48.105469 136 Z M 48.105469 134 "/>
</clipPath>
<clipPath id="clip10">
  <path d="M 48.105469 94 L 466.605469 94 L 466.605469 97 L 48.105469 97 Z M 48.105469 94 "/>
</clipPath>
<clipPath id="clip11">
  <path d="M 48.105469 55 L 466.605469 55 L 466.605469 57 L 48.105469 57 Z M 48.105469 55 "/>
</clipPath>
<clipPath id="clip12">
  <path d="M 48.105469 16 L 466.605469 16 L 466.605469 18 L 48.105469 18 Z M 48.105469 16 "/>
</clipPath>
<filter id="alpha" filterUnits="objectBoundingBox" x="0%" y="0%" width="100%" height="100%">
  <feColorMatrix type="matrix" in="SourceGraphic" values="0 0 0 0 1 0 0 0 0 1 0 0 0 0 1 0 0 0 1 0"/>
</filter>
<mask id="mask0">
  <g filter="url(#alpha)">
<rect x="0" y="0" width="476" height="229" style="fill:rgb(0%,0%,0%);fill-opacity:0.8;stroke:none;"/>
  </g>
</mask>
<clipPath id="clip13">
  <rect x="0" y="0" width="476" height="229"/>
</clipPath>
<g id="surface5" clip-path="url(#clip13)">
<path style="fill-rule:nonzero;fill:rgb(100%,100%,100%);fill-opacity:1;stroke-width:1;stroke-linecap:butt;stroke-linejoin:miter;stroke:rgb(80%,80%,80%);stroke-opacity:1;stroke-miterlimit:4;" d="M 45.484375 140.8 L 102.903125 140.8 C 104.2375 140.8 104.903125 140.134375 104.903125 138.8 L 104.903125 81.0875 C 104.903125 79.753125 104.2375 79.0875 102.903125 79.0875 L 45.484375 79.0875 C 44.15 79.0875 43.484375 79.753125 43.484375 81.0875 L 43.484375 138.8 C 43.484375 140.134375 44.15 140.8 45.484375 140.8 Z M 45.484375 140.8 " transform="matrix(1.25,0,0,1.25,0,0)"/>
</g>
</defs>
<g id="surface1">
<path style=" stroke:none;fill-rule:nonzero;fill:rgb(100%,100%,100%);fill-opacity:1;" d="M 0 229.195312 L 475.601562 229.195312 L 475.601562 0 L 0 0 Z M 0 229.195312 "/>
<path style=" stroke:none;fill-rule:nonzero;fill:rgb(100%,100%,100%);fill-opacity:1;" d="M 48.105469 182.25 L 466.605469 182.25 L 466.605469 9 L 48.105469 9 Z M 48.105469 182.25 "/>
<g clip-path="url(#clip1)" clip-rule="nonzero">
<path style="fill:none;stroke-width:0.8;stroke-linecap:square;stroke-linejoin:round;stroke:rgb(69.019608%,69.019608%,69.019608%);stroke-opacity:1;stroke-miterlimit:4;" d="M 53.7 145.8 L 53.7 7.2 " transform="matrix(1.25,0,0,1.25,0,0)"/>
</g>
<path style="fill:none;stroke-width:0.8;stroke-linecap:butt;stroke-linejoin:round;stroke:rgb(0%,0%,0%);stroke-opacity:1;stroke-miterlimit:4;" d="M -0.000994 0 L -0.000994 3.5 " transform="matrix(1.25,0,0,1.25,67.126243,182.25)"/>
<path style=" stroke:none;fill-rule:nonzero;fill:rgb(0%,0%,0%);fill-opacity:1;" d="M 67.121094 192.199219 C 66.488281 192.199219 66.011719 192.511719 65.691406 193.136719 C 65.371094 193.757812 65.210938 194.699219 65.210938 195.953125 C 65.210938 197.199219 65.371094 198.136719 65.691406 198.761719 C 66.011719 199.386719 66.488281 199.699219 67.121094 199.699219 C 67.761719 199.699219 68.242188 199.386719 68.558594 198.761719 C 68.878906 198.136719 69.039062 197.199219 69.039062 195.953125 C 69.039062 194.699219 68.878906 193.757812 68.558594 193.136719 C 68.242188 192.511719 67.761719 192.199219 67.121094 192.199219 Z M 67.121094 191.222656 C 68.144531 191.222656 68.925781 191.625 69.464844 192.433594 C 70.003906 193.242188 70.273438 194.414062 70.273438 195.953125 C 70.273438 197.484375 70.003906 198.65625 69.464844 199.464844 C 68.925781 200.273438 68.144531 200.675781 67.121094 200.675781 C 66.101562 200.675781 65.320312 200.273438 64.78125 199.464844 C 64.242188 198.65625 63.972656 197.484375 63.972656 195.953125 C 63.972656 194.414062 64.242188 193.242188 64.78125 192.433594 C 65.320312 191.625 66.101562 191.222656 67.121094 191.222656 Z M 67.121094 191.222656 "/>
<g clip-path="url(#clip2)" clip-rule="nonzero">
<path style="fill:none;stroke-width:0.8;stroke-linecap:square;stroke-linejoin:round;stroke:rgb(69.019608%,69.019608%,69.019608%);stroke-opacity:1;stroke-miterlimit:4;" d="M 105.2875 145.8 L 105.2875 7.2 " transform="matrix(1.25,0,0,1.25,0,0)"/>
</g>
<path style="fill:none;stroke-width:0.8;stroke-linecap:butt;stroke-linejoin:round;stroke:rgb(0%,0%,0%);stroke-opacity:1;stroke-miterlimit:4;" d="M -0.000551 0 L -0.000551 3.5 " transform="matrix(1.25,0,0,1.25,131.610064,182.25)"/>
<path style=" stroke:none;fill-rule:nonzero;fill:rgb(0%,0%,0%);fill-opacity:1;" d="M 125.207031 199.460938 L 127.222656 199.460938 L 127.222656 192.507812 L 125.03125 192.949219 L 125.03125 191.824219 L 127.210938 191.386719 L 128.441406 191.386719 L 128.441406 199.460938 L 130.457031 199.460938 L 130.457031 200.5 L 125.207031 200.5 Z M 125.207031 199.460938 "/>
<path style=" stroke:none;fill-rule:nonzero;fill:rgb(0%,0%,0%);fill-opacity:1;" d="M 135.582031 192.199219 C 134.949219 192.199219 134.472656 192.511719 134.152344 193.136719 C 133.832031 193.757812 133.671875 194.699219 133.671875 195.953125 C 133.671875 197.199219 133.832031 198.136719 134.152344 198.761719 C 134.472656 199.386719 134.949219 199.699219 135.582031 199.699219 C 136.222656 199.699219 136.699219 199.386719 137.019531 198.761719 C 137.339844 198.136719 137.5 197.199219 137.5 195.953125 C 137.5 194.699219 137.339844 193.757812 137.019531 193.136719 C 136.699219 192.511719 136.222656 192.199219 135.582031 192.199219 Z M 135.582031 191.222656 C 136.605469 191.222656 137.386719 191.625 137.925781 192.433594 C 138.464844 193.242188 138.734375 194.414062 138.734375 195.953125 C 138.734375 197.484375 138.464844 198.65625 137.925781 199.464844 C 137.386719 200.273438 136.605469 200.675781 135.582031 200.675781 C 134.5625 200.675781 133.78125 200.273438 133.242188 199.464844 C 132.703125 198.65625 132.433594 197.484375 132.433594 195.953125 C 132.433594 194.414062 132.703125 193.242188 133.242188 192.433594 C 133.78125 191.625 134.5625 191.222656 135.582031 191.222656 Z M 135.582031 191.222656 "/>
<g clip-path="url(#clip3)" clip-rule="nonzero">
<path style="fill:none;stroke-width:0.8;stroke-linecap:square;stroke-linejoin:round;stroke:rgb(69.019608%,69.019608%,69.019608%);stroke-opacity:1;stroke-miterlimit:4;" d="M 156.875 145.8 L 156.875 7.2 " transform="matrix(1.25,0,0,1.25,0,0)"/>
</g>
<path style="fill:none;stroke-width:0.8;stroke-linecap:butt;stroke-linejoin:round;stroke:rgb(0%,0%,0%);stroke-opacity:1;stroke-miterlimit:4;" d="M -0.000108 0 L -0.000108 3.5 " transform="matrix(1.25,0,0,1.25,196.093885,182.25)"/>
<path style=" stroke:none;fill-rule:nonzero;fill:rgb(0%,0%,0%);fill-opacity:1;" d="M 190.539062 199.460938 L 194.84375 199.460938 L 194.84375 200.5 L 189.058594 200.5 L 189.058594 199.460938 C 189.523438 198.976562 190.160156 198.328125 190.96875 197.511719 C 191.777344 196.695312 192.285156 196.167969 192.492188 195.933594 C 192.886719 195.488281 193.164062 195.113281 193.320312 194.808594 C 193.476562 194.5 193.554688 194.199219 193.554688 193.902344 C 193.554688 193.417969 193.386719 193.023438 193.046875 192.71875 C 192.707031 192.410156 192.261719 192.257812 191.71875 192.257812 C 191.332031 192.257812 190.921875 192.324219 190.492188 192.460938 C 190.0625 192.59375 189.605469 192.796875 189.117188 193.070312 L 189.117188 191.824219 C 189.613281 191.625 190.078125 191.476562 190.507812 191.375 C 190.941406 191.273438 191.335938 191.222656 191.695312 191.222656 C 192.636719 191.222656 193.390625 191.457031 193.953125 191.929688 C 194.511719 192.402344 194.792969 193.03125 194.792969 193.820312 C 194.792969 194.195312 194.722656 194.550781 194.582031 194.886719 C 194.441406 195.222656 194.1875 195.617188 193.816406 196.074219 C 193.714844 196.191406 193.390625 196.53125 192.847656 197.097656 C 192.300781 197.660156 191.53125 198.449219 190.539062 199.460938 Z M 190.539062 199.460938 "/>
<path style=" stroke:none;fill-rule:nonzero;fill:rgb(0%,0%,0%);fill-opacity:1;" d="M 200.066406 192.199219 C 199.433594 192.199219 198.953125 192.511719 198.632812 193.136719 C 198.316406 193.757812 198.15625 194.699219 198.15625 195.953125 C 198.15625 197.199219 198.316406 198.136719 198.632812 198.761719 C 198.953125 199.386719 199.433594 199.699219 200.066406 199.699219 C 200.707031 199.699219 201.183594 199.386719 201.503906 198.761719 C 201.824219 198.136719 201.984375 197.199219 201.984375 195.953125 C 201.984375 194.699219 201.824219 193.757812 201.503906 193.136719 C 201.183594 192.511719 200.707031 192.199219 200.066406 192.199219 Z M 200.066406 191.222656 C 201.089844 191.222656 201.867188 191.625 202.40625 192.433594 C 202.945312 193.242188 203.214844 194.414062 203.214844 195.953125 C 203.214844 197.484375 202.945312 198.65625 202.40625 199.464844 C 201.867188 200.273438 201.089844 200.675781 200.066406 200.675781 C 199.046875 200.675781 198.265625 200.273438 197.726562 199.464844 C 197.1875 198.65625 196.917969 197.484375 196.917969 195.953125 C 196.917969 194.414062 197.1875 193.242188 197.726562 192.433594 C 198.265625 191.625 199.046875 191.222656 200.066406 191.222656 Z M 200.066406 191.222656 "/>
<g clip-path="url(#clip4)" clip-rule="nonzero">
<path style="fill:none;stroke-width:0.8;stroke-linecap:square;stroke-linejoin:round;stroke:rgb(69.019608%,69.019608%,69.019608%);stroke-opacity:1;stroke-miterlimit:4;" d="M 208.4625 145.8 L 208.4625 7.2 " transform="matrix(1.25,0,0,1.25,0,0)"/>
</g>
<path style="fill:none;stroke-width:0.8;stroke-linecap:butt;stroke-linejoin:round;stroke:rgb(0%,0%,0%);stroke-opacity:1;stroke-miterlimit:4;" d="M 0.000335 0 L 0.000335 3.5 " transform="matrix(1.25,0,0,1.25,260.577706,182.25)"/>
<path style=" stroke:none;fill-rule:nonzero;fill:rgb(0%,0%,0%);fill-opacity:1;" d="M 257.695312 195.585938 C 258.285156 195.710938 258.746094 195.972656 259.078125 196.375 C 259.410156 196.773438 259.574219 197.265625 259.574219 197.851562 C 259.574219 198.75 259.265625 199.445312 258.648438 199.9375 C 258.03125 200.429688 257.152344 200.675781 256.011719 200.675781 C 255.628906 200.675781 255.238281 200.636719 254.832031 200.5625 C 254.425781 200.488281 254.007812 200.375 253.578125 200.222656 L 253.578125 199.035156 C 253.917969 199.234375 254.292969 199.382812 254.699219 199.484375 C 255.105469 199.585938 255.53125 199.636719 255.976562 199.636719 C 256.75 199.636719 257.335938 199.484375 257.742188 199.179688 C 258.148438 198.875 258.347656 198.433594 258.347656 197.851562 C 258.347656 197.3125 258.160156 196.890625 257.785156 196.589844 C 257.410156 196.285156 256.886719 196.136719 256.214844 196.136719 L 255.152344 196.136719 L 255.152344 195.121094 L 256.261719 195.121094 C 256.867188 195.121094 257.332031 195 257.652344 194.757812 C 257.976562 194.515625 258.136719 194.167969 258.136719 193.710938 C 258.136719 193.242188 257.96875 192.886719 257.636719 192.636719 C 257.308594 192.382812 256.832031 192.257812 256.214844 192.257812 C 255.875 192.257812 255.511719 192.296875 255.125 192.371094 C 254.738281 192.441406 254.316406 192.554688 253.851562 192.710938 L 253.851562 191.613281 C 254.320312 191.480469 254.757812 191.382812 255.167969 191.320312 C 255.578125 191.253906 255.960938 191.222656 256.324219 191.222656 C 257.261719 191.222656 258 191.433594 258.542969 191.859375 C 259.089844 192.285156 259.363281 192.859375 259.363281 193.582031 C 259.363281 194.085938 259.21875 194.515625 258.929688 194.863281 C 258.640625 195.210938 258.230469 195.449219 257.695312 195.585938 Z M 257.695312 195.585938 "/>
<path style=" stroke:none;fill-rule:nonzero;fill:rgb(0%,0%,0%);fill-opacity:1;" d="M 264.550781 192.199219 C 263.914062 192.199219 263.4375 192.511719 263.117188 193.136719 C 262.800781 193.757812 262.640625 194.699219 262.640625 195.953125 C 262.640625 197.199219 262.800781 198.136719 263.117188 198.761719 C 263.4375 199.386719 263.914062 199.699219 264.550781 199.699219 C 265.1875 199.699219 265.667969 199.386719 265.988281 198.761719 C 266.308594 198.136719 266.46875 197.199219 266.46875 195.953125 C 266.46875 194.699219 266.308594 193.757812 265.988281 193.136719 C 265.667969 192.511719 265.1875 192.199219 264.550781 192.199219 Z M 264.550781 191.222656 C 265.570312 191.222656 266.351562 191.625 266.890625 192.433594 C 267.429688 193.242188 267.699219 194.414062 267.699219 195.953125 C 267.699219 197.484375 267.429688 198.65625 266.890625 199.464844 C 266.351562 200.273438 265.570312 200.675781 264.550781 200.675781 C 263.527344 200.675781 262.75 200.273438 262.210938 199.464844 C 261.671875 198.65625 261.402344 197.484375 261.402344 195.953125 C 261.402344 194.414062 261.671875 193.242188 262.210938 192.433594 C 262.75 191.625 263.527344 191.222656 264.550781 191.222656 Z M 264.550781 191.222656 "/>
<g clip-path="url(#clip5)" clip-rule="nonzero">
<path style="fill:none;stroke-width:0.8;stroke-linecap:square;stroke-linejoin:round;stroke:rgb(69.019608%,69.019608%,69.019608%);stroke-opacity:1;stroke-miterlimit:4;" d="M 260.05 145.8 L 260.05 7.2 " transform="matrix(1.25,0,0,1.25,0,0)"/>
</g>
<path style="fill:none;stroke-width:0.8;stroke-linecap:butt;stroke-linejoin:round;stroke:rgb(0%,0%,0%);stroke-opacity:1;stroke-miterlimit:4;" d="M 0.000778 0 L 0.000778 3.5 " transform="matrix(1.25,0,0,1.25,325.061528,182.25)"/>
<path style=" stroke:none;fill-rule:nonzero;fill:rgb(0%,0%,0%);fill-opacity:1;" d="M 321.832031 192.460938 L 318.71875 197.324219 L 321.832031 197.324219 Z M 321.507812 191.386719 L 323.058594 191.386719 L 323.058594 197.324219 L 324.359375 197.324219 L 324.359375 198.351562 L 323.058594 198.351562 L 323.058594 200.5 L 321.832031 200.5 L 321.832031 198.351562 L 317.71875 198.351562 L 317.71875 197.160156 Z M 321.507812 191.386719 "/>
<path style=" stroke:none;fill-rule:nonzero;fill:rgb(0%,0%,0%);fill-opacity:1;" d="M 329.035156 192.199219 C 328.398438 192.199219 327.921875 192.511719 327.601562 193.136719 C 327.285156 193.757812 327.125 194.699219 327.125 195.953125 C 327.125 197.199219 327.285156 198.136719 327.601562 198.761719 C 327.921875 199.386719 328.398438 199.699219 329.035156 199.699219 C 329.671875 199.699219 330.152344 199.386719 330.472656 198.761719 C 330.792969 198.136719 330.953125 197.199219 330.953125 195.953125 C 330.953125 194.699219 330.792969 193.757812 330.472656 193.136719 C 330.152344 192.511719 329.671875 192.199219 329.035156 192.199219 Z M 329.035156 191.222656 C 330.054688 191.222656 330.835938 191.625 331.375 192.433594 C 331.914062 193.242188 332.183594 194.414062 332.183594 195.953125 C 332.183594 197.484375 331.914062 198.65625 331.375 199.464844 C 330.835938 200.273438 330.054688 200.675781 329.035156 200.675781 C 328.011719 200.675781 327.234375 200.273438 326.695312 199.464844 C 326.15625 198.65625 325.886719 197.484375 325.886719 195.953125 C 325.886719 194.414062 326.15625 193.242188 326.695312 192.433594 C 327.234375 191.625 328.011719 191.222656 329.035156 191.222656 Z M 329.035156 191.222656 "/>
<g clip-path="url(#clip6)" clip-rule="nonzero">
<path style="fill:none;stroke-width:0.8;stroke-linecap:square;stroke-linejoin:round;stroke:rgb(69.019608%,69.019608%,69.019608%);stroke-opacity:1;stroke-miterlimit:4;" d="M 311.6375 145.8 L 311.6375 7.2 " transform="matrix(1.25,0,0,1.25,0,0)"/>
</g>
<path style="fill:none;stroke-width:0.8;stroke-linecap:butt;stroke-linejoin:round;stroke:rgb(0%,0%,0%);stroke-opacity:1;stroke-miterlimit:4;" d="M 0.001221 0 L 0.001221 3.5 " transform="matrix(1.25,0,0,1.25,389.545349,182.25)"/>
<path style=" stroke:none;fill-rule:nonzero;fill:rgb(0%,0%,0%);fill-opacity:1;" d="M 382.941406 191.386719 L 387.78125 191.386719 L 387.78125 192.425781 L 384.070312 192.425781 L 384.070312 194.65625 C 384.25 194.59375 384.425781 194.550781 384.605469 194.519531 C 384.785156 194.488281 384.964844 194.476562 385.144531 194.476562 C 386.160156 194.476562 386.96875 194.753906 387.5625 195.3125 C 388.15625 195.867188 388.453125 196.621094 388.453125 197.574219 C 388.453125 198.554688 388.148438 199.316406 387.539062 199.863281 C 386.925781 200.40625 386.066406 200.675781 384.957031 200.675781 C 384.574219 200.675781 384.183594 200.644531 383.785156 200.578125 C 383.390625 200.511719 382.980469 200.414062 382.558594 200.285156 L 382.558594 199.046875 C 382.921875 199.246094 383.300781 199.394531 383.691406 199.492188 C 384.082031 199.589844 384.496094 199.636719 384.929688 199.636719 C 385.632812 199.636719 386.191406 199.453125 386.601562 199.082031 C 387.011719 198.710938 387.21875 198.210938 387.21875 197.574219 C 387.21875 196.941406 387.011719 196.4375 386.601562 196.070312 C 386.191406 195.699219 385.632812 195.511719 384.929688 195.511719 C 384.601562 195.511719 384.273438 195.546875 383.945312 195.621094 C 383.617188 195.695312 383.28125 195.808594 382.941406 195.964844 Z M 382.941406 191.386719 "/>
<path style=" stroke:none;fill-rule:nonzero;fill:rgb(0%,0%,0%);fill-opacity:1;" d="M 393.519531 192.199219 C 392.882812 192.199219 392.40625 192.511719 392.085938 193.136719 C 391.765625 193.757812 391.609375 194.699219 391.609375 195.953125 C 391.609375 197.199219 391.765625 198.136719 392.085938 198.761719 C 392.40625 199.386719 392.882812 199.699219 393.519531 199.699219 C 394.15625 199.699219 394.636719 199.386719 394.957031 198.761719 C 395.277344 198.136719 395.4375 197.199219 395.4375 195.953125 C 395.4375 194.699219 395.277344 193.757812 394.957031 193.136719 C 394.636719 192.511719 394.15625 192.199219 393.519531 192.199219 Z M 393.519531 191.222656 C 394.539062 191.222656 395.320312 191.625 395.859375 192.433594 C 396.398438 193.242188 396.667969 194.414062 396.667969 195.953125 C 396.667969 197.484375 396.398438 198.65625 395.859375 199.464844 C 395.320312 200.273438 394.539062 200.675781 393.519531 200.675781 C 392.496094 200.675781 391.71875 200.273438 391.179688 199.464844 C 390.640625 198.65625 390.371094 197.484375 390.371094 195.953125 C 390.371094 194.414062 390.640625 193.242188 391.179688 192.433594 C 391.71875 191.625 392.496094 191.222656 393.519531 191.222656 Z M 393.519531 191.222656 "/>
<g clip-path="url(#clip7)" clip-rule="nonzero">
<path style="fill:none;stroke-width:0.8;stroke-linecap:square;stroke-linejoin:round;stroke:rgb(69.019608%,69.019608%,69.019608%);stroke-opacity:1;stroke-miterlimit:4;" d="M 363.221875 145.8 L 363.221875 7.2 " transform="matrix(1.25,0,0,1.25,0,0)"/>
</g>
<path style="fill:none;stroke-width:0.8;stroke-linecap:butt;stroke-linejoin:round;stroke:rgb(0%,0%,0%);stroke-opacity:1;stroke-miterlimit:4;" d="M -0.001461 0 L -0.001461 3.5 " transform="matrix(1.25,0,0,1.25,454.02917,182.25)"/>
<path style=" stroke:none;fill-rule:nonzero;fill:rgb(0%,0%,0%);fill-opacity:1;" d="M 450.203125 195.453125 C 449.648438 195.453125 449.210938 195.640625 448.886719 196.019531 C 448.5625 196.398438 448.402344 196.914062 448.402344 197.574219 C 448.402344 198.230469 448.5625 198.746094 448.886719 199.128906 C 449.210938 199.507812 449.648438 199.699219 450.203125 199.699219 C 450.757812 199.699219 451.195312 199.507812 451.515625 199.128906 C 451.839844 198.746094 452 198.230469 452 197.574219 C 452 196.914062 451.839844 196.398438 451.515625 196.019531 C 451.195312 195.640625 450.757812 195.453125 450.203125 195.453125 Z M 452.648438 191.585938 L 452.648438 192.710938 C 452.339844 192.5625 452.027344 192.453125 451.710938 192.375 C 451.398438 192.296875 451.085938 192.257812 450.773438 192.257812 C 449.960938 192.257812 449.339844 192.53125 448.910156 193.082031 C 448.480469 193.632812 448.238281 194.460938 448.175781 195.574219 C 448.414062 195.21875 448.714844 194.945312 449.078125 194.757812 C 449.441406 194.570312 449.839844 194.476562 450.273438 194.476562 C 451.191406 194.476562 451.914062 194.753906 452.445312 195.308594 C 452.976562 195.863281 453.242188 196.617188 453.242188 197.574219 C 453.242188 198.511719 452.964844 199.261719 452.410156 199.828125 C 451.859375 200.394531 451.121094 200.675781 450.203125 200.675781 C 449.148438 200.675781 448.34375 200.273438 447.785156 199.464844 C 447.226562 198.65625 446.949219 197.484375 446.949219 195.953125 C 446.949219 194.511719 447.289062 193.363281 447.972656 192.507812 C 448.65625 191.648438 449.574219 191.222656 450.726562 191.222656 C 451.035156 191.222656 451.347656 191.25 451.664062 191.3125 C 451.980469 191.375 452.308594 191.464844 452.648438 191.585938 Z M 452.648438 191.585938 "/>
<path style=" stroke:none;fill-rule:nonzero;fill:rgb(0%,0%,0%);fill-opacity:1;" d="M 458 192.199219 C 457.367188 192.199219 456.890625 192.511719 456.570312 193.136719 C 456.25 193.757812 456.089844 194.699219 456.089844 195.953125 C 456.089844 197.199219 456.25 198.136719 456.570312 198.761719 C 456.890625 199.386719 457.367188 199.699219 458 199.699219 C 458.640625 199.699219 459.121094 199.386719 459.4375 198.761719 C 459.757812 198.136719 459.917969 197.199219 459.917969 195.953125 C 459.917969 194.699219 459.757812 193.757812 459.4375 193.136719 C 459.121094 192.511719 458.640625 192.199219 458 192.199219 Z M 458 191.222656 C 459.023438 191.222656 459.804688 191.625 460.34375 192.433594 C 460.882812 193.242188 461.152344 194.414062 461.152344 195.953125 C 461.152344 197.484375 460.882812 198.65625 460.34375 199.464844 C 459.804688 200.273438 459.023438 200.675781 458 200.675781 C 456.980469 200.675781 456.199219 200.273438 455.660156 199.464844 C 455.121094 198.65625 454.851562 197.484375 454.851562 195.953125 C 454.851562 194.414062 455.121094 193.242188 455.660156 192.433594 C 456.199219 191.625 456.980469 191.222656 458 191.222656 Z M 458 191.222656 "/>
<path style=" stroke:none;fill-rule:nonzero;fill:rgb(0%,0%,0%);fill-opacity:1;" d="M 218.285156 213.324219 C 218.550781 213.414062 218.808594 213.605469 219.058594 213.898438 C 219.308594 214.191406 219.558594 214.59375 219.8125 215.105469 L 221.0625 217.597656 L 219.738281 217.597656 L 218.574219 215.257812 C 218.269531 214.648438 217.980469 214.242188 217.695312 214.042969 C 217.414062 213.84375 217.027344 213.746094 216.539062 213.746094 L 215.195312 213.746094 L 215.195312 217.597656 L 213.964844 217.597656 L 213.964844 208.484375 L 216.746094 208.484375 C 217.789062 208.484375 218.566406 208.699219 219.078125 209.136719 C 219.59375 209.570312 219.847656 210.230469 219.847656 211.109375 C 219.847656 211.683594 219.714844 212.160156 219.449219 212.539062 C 219.179688 212.914062 218.792969 213.175781 218.285156 213.324219 Z M 215.195312 209.496094 L 215.195312 212.730469 L 216.746094 212.730469 C 217.339844 212.730469 217.789062 212.59375 218.09375 212.320312 C 218.394531 212.042969 218.546875 211.640625 218.546875 211.109375 C 218.546875 210.574219 218.394531 210.171875 218.09375 209.902344 C 217.789062 209.632812 217.339844 209.496094 216.746094 209.496094 Z M 215.195312 209.496094 "/>
<path style=" stroke:none;fill-rule:nonzero;fill:rgb(0%,0%,0%);fill-opacity:1;" d="M 224.6875 211.546875 C 224.085938 211.546875 223.609375 211.78125 223.257812 212.253906 C 222.910156 212.722656 222.734375 213.367188 222.734375 214.183594 C 222.734375 215 222.90625 215.644531 223.253906 216.117188 C 223.605469 216.585938 224.082031 216.820312 224.6875 216.820312 C 225.285156 216.820312 225.757812 216.585938 226.109375 216.113281 C 226.457031 215.640625 226.632812 214.996094 226.632812 214.183594 C 226.632812 213.375 226.457031 212.730469 226.109375 212.257812 C 225.757812 211.785156 225.285156 211.546875 224.6875 211.546875 Z M 224.6875 210.597656 C 225.664062 210.597656 226.429688 210.914062 226.988281 211.550781 C 227.546875 212.183594 227.824219 213.0625 227.824219 214.183594 C 227.824219 215.300781 227.546875 216.179688 226.988281 216.820312 C 226.429688 217.457031 225.664062 217.773438 224.6875 217.773438 C 223.707031 217.773438 222.9375 217.457031 222.382812 216.820312 C 221.828125 216.179688 221.550781 215.300781 221.550781 214.183594 C 221.550781 213.0625 221.828125 212.183594 222.382812 211.550781 C 222.9375 210.914062 223.707031 210.597656 224.6875 210.597656 Z M 224.6875 210.597656 "/>
<path style=" stroke:none;fill-rule:nonzero;fill:rgb(0%,0%,0%);fill-opacity:1;" d="M 229.035156 210.761719 L 230.15625 210.761719 L 231.5625 216.09375 L 232.957031 210.761719 L 234.28125 210.761719 L 235.6875 216.09375 L 237.085938 210.761719 L 238.207031 210.761719 L 236.417969 217.597656 L 235.09375 217.597656 L 233.625 211.992188 L 232.148438 217.597656 L 230.820312 217.597656 Z M 229.035156 210.761719 "/>
<path style=" stroke:none;fill-rule:nonzero;fill:rgb(0%,0%,0%);fill-opacity:1;" d="M 246.578125 208.113281 C 246.035156 209.046875 245.628906 209.972656 245.363281 210.890625 C 245.101562 211.804688 244.96875 212.730469 244.96875 213.671875 C 244.96875 214.609375 245.101562 215.542969 245.367188 216.464844 C 245.636719 217.386719 246.039062 218.3125 246.578125 219.246094 L 245.601562 219.246094 C 244.992188 218.289062 244.539062 217.347656 244.234375 216.425781 C 243.929688 215.5 243.777344 214.582031 243.777344 213.671875 C 243.777344 212.765625 243.929688 211.851562 244.230469 210.933594 C 244.53125 210.011719 244.988281 209.070312 245.601562 208.113281 Z M 246.578125 208.113281 "/>
<path style=" stroke:none;fill-rule:nonzero;fill:rgb(0%,0%,0%);fill-opacity:1;" d="M 249.84375 216.570312 L 249.84375 220.195312 L 248.714844 220.195312 L 248.714844 210.761719 L 249.84375 210.761719 L 249.84375 211.796875 C 250.082031 211.390625 250.378906 211.089844 250.738281 210.894531 C 251.101562 210.695312 251.53125 210.597656 252.03125 210.597656 C 252.859375 210.597656 253.535156 210.925781 254.054688 211.585938 C 254.574219 212.242188 254.832031 213.109375 254.832031 214.183594 C 254.832031 215.257812 254.574219 216.125 254.054688 216.785156 C 253.535156 217.445312 252.859375 217.773438 252.03125 217.773438 C 251.53125 217.773438 251.101562 217.675781 250.738281 217.476562 C 250.378906 217.277344 250.082031 216.976562 249.84375 216.570312 Z M 253.667969 214.183594 C 253.667969 213.359375 253.496094 212.710938 253.15625 212.242188 C 252.816406 211.769531 252.351562 211.535156 251.757812 211.535156 C 251.160156 211.535156 250.695312 211.769531 250.355469 212.242188 C 250.015625 212.710938 249.84375 213.359375 249.84375 214.183594 C 249.84375 215.007812 250.015625 215.65625 250.355469 216.128906 C 250.695312 216.597656 251.160156 216.832031 251.757812 216.832031 C 252.351562 216.832031 252.816406 216.597656 253.15625 216.128906 C 253.496094 215.65625 253.667969 215.007812 253.667969 214.183594 Z M 253.667969 214.183594 "/>
<path style=" stroke:none;fill-rule:nonzero;fill:rgb(0%,0%,0%);fill-opacity:1;" d="M 259.34375 211.546875 C 258.742188 211.546875 258.265625 211.78125 257.914062 212.253906 C 257.5625 212.722656 257.390625 213.367188 257.390625 214.183594 C 257.390625 215 257.5625 215.644531 257.910156 216.117188 C 258.257812 216.585938 258.738281 216.820312 259.34375 216.820312 C 259.941406 216.820312 260.414062 216.585938 260.765625 216.113281 C 261.113281 215.640625 261.289062 214.996094 261.289062 214.183594 C 261.289062 213.375 261.113281 212.730469 260.765625 212.257812 C 260.414062 211.785156 259.941406 211.546875 259.34375 211.546875 Z M 259.34375 210.597656 C 260.320312 210.597656 261.085938 210.914062 261.644531 211.550781 C 262.203125 212.183594 262.480469 213.0625 262.480469 214.183594 C 262.480469 215.300781 262.203125 216.179688 261.644531 216.820312 C 261.085938 217.457031 260.320312 217.773438 259.34375 217.773438 C 258.363281 217.773438 257.59375 217.457031 257.039062 216.820312 C 256.484375 216.179688 256.207031 215.300781 256.207031 214.183594 C 256.207031 213.0625 256.484375 212.183594 257.039062 211.550781 C 257.59375 210.914062 258.363281 210.597656 259.34375 210.597656 Z M 259.34375 210.597656 "/>
<path style=" stroke:none;fill-rule:nonzero;fill:rgb(0%,0%,0%);fill-opacity:1;" d="M 268.699219 210.960938 L 268.699219 212.023438 C 268.382812 211.859375 268.054688 211.738281 267.710938 211.660156 C 267.371094 211.578125 267.015625 211.535156 266.648438 211.535156 C 266.089844 211.535156 265.671875 211.621094 265.394531 211.792969 C 265.117188 211.960938 264.976562 212.21875 264.976562 212.5625 C 264.976562 212.820312 265.074219 213.027344 265.273438 213.175781 C 265.472656 213.324219 265.875 213.464844 266.476562 213.597656 L 266.863281 213.683594 C 267.660156 213.855469 268.226562 214.09375 268.5625 214.40625 C 268.898438 214.71875 269.066406 215.152344 269.066406 215.710938 C 269.066406 216.34375 268.816406 216.847656 268.3125 217.21875 C 267.808594 217.589844 267.117188 217.773438 266.238281 217.773438 C 265.875 217.773438 265.492188 217.738281 265.09375 217.667969 C 264.699219 217.59375 264.28125 217.488281 263.839844 217.347656 L 263.839844 216.1875 C 264.257812 216.402344 264.664062 216.5625 265.066406 216.671875 C 265.46875 216.777344 265.871094 216.832031 266.265625 216.832031 C 266.792969 216.832031 267.199219 216.742188 267.484375 216.5625 C 267.769531 216.378906 267.910156 216.125 267.910156 215.796875 C 267.910156 215.492188 267.808594 215.257812 267.601562 215.09375 C 267.398438 214.929688 266.949219 214.773438 266.25 214.625 L 265.859375 214.53125 C 265.164062 214.386719 264.664062 214.160156 264.351562 213.859375 C 264.042969 213.554688 263.890625 213.136719 263.890625 212.609375 C 263.890625 211.964844 264.117188 211.46875 264.574219 211.121094 C 265.03125 210.769531 265.675781 210.597656 266.515625 210.597656 C 266.929688 210.597656 267.320312 210.625 267.683594 210.6875 C 268.050781 210.746094 268.390625 210.839844 268.699219 210.960938 Z M 268.699219 210.960938 "/>
<path style=" stroke:none;fill-rule:nonzero;fill:rgb(0%,0%,0%);fill-opacity:1;" d="M 270.855469 210.761719 L 271.976562 210.761719 L 271.976562 217.597656 L 270.855469 217.597656 Z M 270.855469 208.097656 L 271.976562 208.097656 L 271.976562 209.523438 L 270.855469 209.523438 Z M 270.855469 208.097656 "/>
<path style=" stroke:none;fill-rule:nonzero;fill:rgb(0%,0%,0%);fill-opacity:1;" d="M 275.4375 208.820312 L 275.4375 210.761719 L 277.75 210.761719 L 277.75 211.632812 L 275.4375 211.632812 L 275.4375 215.34375 C 275.4375 215.902344 275.515625 216.257812 275.667969 216.417969 C 275.820312 216.578125 276.128906 216.65625 276.597656 216.65625 L 277.75 216.65625 L 277.75 217.597656 L 276.597656 217.597656 C 275.730469 217.597656 275.132812 217.433594 274.804688 217.113281 C 274.472656 216.789062 274.308594 216.199219 274.308594 215.34375 L 274.308594 211.632812 L 273.484375 211.632812 L 273.484375 210.761719 L 274.308594 210.761719 L 274.308594 208.820312 Z M 275.4375 208.820312 "/>
<path style=" stroke:none;fill-rule:nonzero;fill:rgb(0%,0%,0%);fill-opacity:1;" d="M 279.226562 210.761719 L 280.351562 210.761719 L 280.351562 217.597656 L 279.226562 217.597656 Z M 279.226562 208.097656 L 280.351562 208.097656 L 280.351562 209.523438 L 279.226562 209.523438 Z M 279.226562 208.097656 "/>
<path style=" stroke:none;fill-rule:nonzero;fill:rgb(0%,0%,0%);fill-opacity:1;" d="M 285.347656 211.546875 C 284.746094 211.546875 284.273438 211.78125 283.921875 212.253906 C 283.570312 212.722656 283.394531 213.367188 283.394531 214.183594 C 283.394531 215 283.570312 215.644531 283.917969 216.117188 C 284.265625 216.585938 284.742188 216.820312 285.347656 216.820312 C 285.949219 216.820312 286.421875 216.585938 286.769531 216.113281 C 287.121094 215.640625 287.296875 214.996094 287.296875 214.183594 C 287.296875 213.375 287.121094 212.730469 286.769531 212.257812 C 286.421875 211.785156 285.949219 211.546875 285.347656 211.546875 Z M 285.347656 210.597656 C 286.324219 210.597656 287.09375 210.914062 287.648438 211.550781 C 288.207031 212.183594 288.488281 213.0625 288.488281 214.183594 C 288.488281 215.300781 288.207031 216.179688 287.648438 216.820312 C 287.09375 217.457031 286.324219 217.773438 285.347656 217.773438 C 284.367188 217.773438 283.601562 217.457031 283.042969 216.820312 C 282.488281 216.179688 282.210938 215.300781 282.210938 214.183594 C 282.210938 213.0625 282.488281 212.183594 283.042969 211.550781 C 283.601562 210.914062 284.367188 210.597656 285.347656 210.597656 Z M 285.347656 210.597656 "/>
<path style=" stroke:none;fill-rule:nonzero;fill:rgb(0%,0%,0%);fill-opacity:1;" d="M 296.03125 213.46875 L 296.03125 217.597656 L 294.910156 217.597656 L 294.910156 213.507812 C 294.910156 212.859375 294.78125 212.375 294.53125 212.054688 C 294.277344 211.734375 293.898438 211.574219 293.394531 211.574219 C 292.789062 211.574219 292.308594 211.765625 291.960938 212.152344 C 291.609375 212.539062 291.433594 213.066406 291.433594 213.734375 L 291.433594 217.597656 L 290.304688 217.597656 L 290.304688 210.761719 L 291.433594 210.761719 L 291.433594 211.824219 C 291.703125 211.410156 292.019531 211.105469 292.382812 210.902344 C 292.75 210.699219 293.167969 210.597656 293.644531 210.597656 C 294.429688 210.597656 295.023438 210.839844 295.425781 211.324219 C 295.832031 211.808594 296.03125 212.523438 296.03125 213.46875 Z M 296.03125 213.46875 "/>
<path style=" stroke:none;fill-rule:nonzero;fill:rgb(0%,0%,0%);fill-opacity:1;" d="M 298.09375 208.113281 L 299.070312 208.113281 C 299.679688 209.070312 300.136719 210.011719 300.441406 210.933594 C 300.742188 211.851562 300.894531 212.765625 300.894531 213.671875 C 300.894531 214.582031 300.742188 215.5 300.441406 216.425781 C 300.136719 217.347656 299.679688 218.289062 299.070312 219.246094 L 298.09375 219.246094 C 298.636719 218.3125 299.039062 217.386719 299.304688 216.464844 C 299.574219 215.542969 299.707031 214.609375 299.707031 213.671875 C 299.707031 212.730469 299.574219 211.804688 299.304688 210.890625 C 299.039062 209.972656 298.636719 209.046875 298.09375 208.113281 Z M 298.09375 208.113281 "/>
<g clip-path="url(#clip8)" clip-rule="nonzero">
<path style="fill:none;stroke-width:0.8;stroke-linecap:square;stroke-linejoin:round;stroke:rgb(69.019608%,69.019608%,69.019608%);stroke-opacity:1;stroke-miterlimit:4;" d="M 38.484375 139.5 L 373.284375 139.5 " transform="matrix(1.25,0,0,1.25,0,0)"/>
</g>
<path style="fill:none;stroke-width:0.8;stroke-linecap:butt;stroke-linejoin:round;stroke:rgb(0%,0%,0%);stroke-opacity:1;stroke-miterlimit:4;" d="M 0.001562 0 L -3.498438 0 " transform="matrix(1.25,0,0,1.25,48.103516,174.375)"/>
<path style=" stroke:none;fill-rule:nonzero;fill:rgb(0%,0%,0%);fill-opacity:1;" d="M 10.324219 174.6875 L 18.148438 174.6875 L 18.148438 175.722656 L 10.324219 175.722656 Z M 10.324219 174.6875 "/>
<path style=" stroke:none;fill-rule:nonzero;fill:rgb(0%,0%,0%);fill-opacity:1;" d="M 21.023438 178.085938 L 23.039062 178.085938 L 23.039062 171.132812 L 20.847656 171.574219 L 20.847656 170.449219 L 23.027344 170.011719 L 24.257812 170.011719 L 24.257812 178.085938 L 26.273438 178.085938 L 26.273438 179.125 L 21.023438 179.125 Z M 21.023438 178.085938 "/>
<path style=" stroke:none;fill-rule:nonzero;fill:rgb(0%,0%,0%);fill-opacity:1;" d="M 28.761719 177.574219 L 30.050781 177.574219 L 30.050781 179.125 L 28.761719 179.125 Z M 28.761719 177.574219 "/>
<path style=" stroke:none;fill-rule:nonzero;fill:rgb(0%,0%,0%);fill-opacity:1;" d="M 35.371094 170.824219 C 34.738281 170.824219 34.261719 171.136719 33.941406 171.761719 C 33.621094 172.382812 33.460938 173.324219 33.460938 174.578125 C 33.460938 175.824219 33.621094 176.761719 33.941406 177.386719 C 34.261719 178.011719 34.738281 178.324219 35.371094 178.324219 C 36.011719 178.324219 36.492188 178.011719 36.808594 177.386719 C 37.128906 176.761719 37.289062 175.824219 37.289062 174.578125 C 37.289062 173.324219 37.128906 172.382812 36.808594 171.761719 C 36.492188 171.136719 36.011719 170.824219 35.371094 170.824219 Z M 35.371094 169.847656 C 36.394531 169.847656 37.175781 170.25 37.714844 171.058594 C 38.253906 171.867188 38.523438 173.039062 38.523438 174.578125 C 38.523438 176.109375 38.253906 177.28125 37.714844 178.089844 C 37.175781 178.898438 36.394531 179.300781 35.371094 179.300781 C 34.351562 179.300781 33.570312 178.898438 33.03125 178.089844 C 32.492188 177.28125 32.222656 176.109375 32.222656 174.578125 C 32.222656 173.039062 32.492188 171.867188 33.03125 171.058594 C 33.570312 170.25 34.351562 169.847656 35.371094 169.847656 Z M 35.371094 169.847656 "/>
<g clip-path="url(#clip9)" clip-rule="nonzero">
<path style="fill:none;stroke-width:0.8;stroke-linecap:square;stroke-linejoin:round;stroke:rgb(69.019608%,69.019608%,69.019608%);stroke-opacity:1;stroke-miterlimit:4;" d="M 38.484375 108 L 373.284375 108 " transform="matrix(1.25,0,0,1.25,0,0)"/>
</g>
<path style="fill:none;stroke-width:0.8;stroke-linecap:butt;stroke-linejoin:round;stroke:rgb(0%,0%,0%);stroke-opacity:1;stroke-miterlimit:4;" d="M 0.001562 0 L -3.498438 0 " transform="matrix(1.25,0,0,1.25,48.103516,135)"/>
<path style=" stroke:none;fill-rule:nonzero;fill:rgb(0%,0%,0%);fill-opacity:1;" d="M 10.324219 135.3125 L 18.148438 135.3125 L 18.148438 136.347656 L 10.324219 136.347656 Z M 10.324219 135.3125 "/>
<path style=" stroke:none;fill-rule:nonzero;fill:rgb(0%,0%,0%);fill-opacity:1;" d="M 23.445312 131.449219 C 22.8125 131.449219 22.335938 131.761719 22.015625 132.386719 C 21.695312 133.007812 21.535156 133.949219 21.535156 135.203125 C 21.535156 136.449219 21.695312 137.386719 22.015625 138.011719 C 22.335938 138.636719 22.8125 138.949219 23.445312 138.949219 C 24.085938 138.949219 24.566406 138.636719 24.882812 138.011719 C 25.203125 137.386719 25.363281 136.449219 25.363281 135.203125 C 25.363281 133.949219 25.203125 133.007812 24.882812 132.386719 C 24.566406 131.761719 24.085938 131.449219 23.445312 131.449219 Z M 23.445312 130.472656 C 24.46875 130.472656 25.25 130.875 25.789062 131.683594 C 26.328125 132.492188 26.597656 133.664062 26.597656 135.203125 C 26.597656 136.734375 26.328125 137.90625 25.789062 138.714844 C 25.25 139.523438 24.46875 139.925781 23.445312 139.925781 C 22.425781 139.925781 21.644531 139.523438 21.105469 138.714844 C 20.566406 137.90625 20.296875 136.734375 20.296875 135.203125 C 20.296875 133.664062 20.566406 132.492188 21.105469 131.683594 C 21.644531 130.875 22.425781 130.472656 23.445312 130.472656 Z M 23.445312 130.472656 "/>
<path style=" stroke:none;fill-rule:nonzero;fill:rgb(0%,0%,0%);fill-opacity:1;" d="M 28.761719 138.199219 L 30.050781 138.199219 L 30.050781 139.75 L 28.761719 139.75 Z M 28.761719 138.199219 "/>
<path style=" stroke:none;fill-rule:nonzero;fill:rgb(0%,0%,0%);fill-opacity:1;" d="M 32.75 130.636719 L 37.589844 130.636719 L 37.589844 131.675781 L 33.878906 131.675781 L 33.878906 133.90625 C 34.058594 133.847656 34.234375 133.800781 34.414062 133.769531 C 34.59375 133.742188 34.773438 133.726562 34.953125 133.726562 C 35.96875 133.726562 36.773438 134.003906 37.367188 134.5625 C 37.964844 135.117188 38.261719 135.875 38.261719 136.824219 C 38.261719 137.804688 37.957031 138.566406 37.34375 139.113281 C 36.734375 139.65625 35.875 139.925781 34.761719 139.925781 C 34.378906 139.925781 33.992188 139.894531 33.59375 139.828125 C 33.199219 139.765625 32.789062 139.667969 32.363281 139.535156 L 32.363281 138.296875 C 32.730469 138.496094 33.109375 138.644531 33.5 138.742188 C 33.890625 138.839844 34.304688 138.886719 34.738281 138.886719 C 35.441406 138.886719 36 138.703125 36.410156 138.332031 C 36.820312 137.964844 37.027344 137.460938 37.027344 136.824219 C 37.027344 136.191406 36.820312 135.6875 36.410156 135.320312 C 36 134.949219 35.441406 134.761719 34.738281 134.761719 C 34.410156 134.761719 34.078125 134.800781 33.75 134.871094 C 33.425781 134.945312 33.089844 135.058594 32.75 135.214844 Z M 32.75 130.636719 "/>
<g clip-path="url(#clip10)" clip-rule="nonzero">
<path style="fill:none;stroke-width:0.8;stroke-linecap:square;stroke-linejoin:round;stroke:rgb(69.019608%,69.019608%,69.019608%);stroke-opacity:1;stroke-miterlimit:4;" d="M 38.484375 76.5 L 373.284375 76.5 " transform="matrix(1.25,0,0,1.25,0,0)"/>
</g>
<path style="fill:none;stroke-width:0.8;stroke-linecap:butt;stroke-linejoin:round;stroke:rgb(0%,0%,0%);stroke-opacity:1;stroke-miterlimit:4;" d="M 0.001562 0 L -3.498438 0 " transform="matrix(1.25,0,0,1.25,48.103516,95.625)"/>
<path style=" stroke:none;fill-rule:nonzero;fill:rgb(0%,0%,0%);fill-opacity:1;" d="M 23.449219 92.074219 C 22.8125 92.074219 22.335938 92.386719 22.015625 93.011719 C 21.695312 93.632812 21.539062 94.574219 21.539062 95.828125 C 21.539062 97.074219 21.695312 98.011719 22.015625 98.636719 C 22.335938 99.261719 22.8125 99.574219 23.449219 99.574219 C 24.085938 99.574219 24.566406 99.261719 24.886719 98.636719 C 25.207031 98.011719 25.367188 97.074219 25.367188 95.828125 C 25.367188 94.574219 25.207031 93.632812 24.886719 93.011719 C 24.566406 92.386719 24.085938 92.074219 23.449219 92.074219 Z M 23.449219 91.097656 C 24.46875 91.097656 25.25 91.5 25.789062 92.308594 C 26.328125 93.117188 26.597656 94.289062 26.597656 95.828125 C 26.597656 97.359375 26.328125 98.53125 25.789062 99.339844 C 25.25 100.148438 24.46875 100.550781 23.449219 100.550781 C 22.425781 100.550781 21.648438 100.148438 21.109375 99.339844 C 20.570312 98.53125 20.300781 97.359375 20.300781 95.828125 C 20.300781 94.289062 20.570312 93.117188 21.109375 92.308594 C 21.648438 91.5 22.425781 91.097656 23.449219 91.097656 Z M 23.449219 91.097656 "/>
<path style=" stroke:none;fill-rule:nonzero;fill:rgb(0%,0%,0%);fill-opacity:1;" d="M 28.761719 98.824219 L 30.050781 98.824219 L 30.050781 100.375 L 28.761719 100.375 Z M 28.761719 98.824219 "/>
<path style=" stroke:none;fill-rule:nonzero;fill:rgb(0%,0%,0%);fill-opacity:1;" d="M 35.375 92.074219 C 34.738281 92.074219 34.261719 92.386719 33.941406 93.011719 C 33.621094 93.632812 33.464844 94.574219 33.464844 95.828125 C 33.464844 97.074219 33.621094 98.011719 33.941406 98.636719 C 34.261719 99.261719 34.738281 99.574219 35.375 99.574219 C 36.011719 99.574219 36.492188 99.261719 36.8125 98.636719 C 37.132812 98.011719 37.292969 97.074219 37.292969 95.828125 C 37.292969 94.574219 37.132812 93.632812 36.8125 93.011719 C 36.492188 92.386719 36.011719 92.074219 35.375 92.074219 Z M 35.375 91.097656 C 36.394531 91.097656 37.175781 91.5 37.714844 92.308594 C 38.253906 93.117188 38.523438 94.289062 38.523438 95.828125 C 38.523438 97.359375 38.253906 98.53125 37.714844 99.339844 C 37.175781 100.148438 36.394531 100.550781 35.375 100.550781 C 34.351562 100.550781 33.574219 100.148438 33.035156 99.339844 C 32.496094 98.53125 32.226562 97.359375 32.226562 95.828125 C 32.226562 94.289062 32.496094 93.117188 33.035156 92.308594 C 33.574219 91.5 34.351562 91.097656 35.375 91.097656 Z M 35.375 91.097656 "/>
<g clip-path="url(#clip11)" clip-rule="nonzero">
<path style="fill:none;stroke-width:0.8;stroke-linecap:square;stroke-linejoin:round;stroke:rgb(69.019608%,69.019608%,69.019608%);stroke-opacity:1;stroke-miterlimit:4;" d="M 38.484375 45 L 373.284375 45 " transform="matrix(1.25,0,0,1.25,0,0)"/>
</g>
<path style="fill:none;stroke-width:0.8;stroke-linecap:butt;stroke-linejoin:round;stroke:rgb(0%,0%,0%);stroke-opacity:1;stroke-miterlimit:4;" d="M 0.001562 0 L -3.498438 0 " transform="matrix(1.25,0,0,1.25,48.103516,56.25)"/>
<path style=" stroke:none;fill-rule:nonzero;fill:rgb(0%,0%,0%);fill-opacity:1;" d="M 23.449219 52.699219 C 22.8125 52.699219 22.335938 53.011719 22.015625 53.636719 C 21.695312 54.257812 21.539062 55.199219 21.539062 56.453125 C 21.539062 57.699219 21.695312 58.636719 22.015625 59.261719 C 22.335938 59.886719 22.8125 60.199219 23.449219 60.199219 C 24.085938 60.199219 24.566406 59.886719 24.886719 59.261719 C 25.207031 58.636719 25.367188 57.699219 25.367188 56.453125 C 25.367188 55.199219 25.207031 54.257812 24.886719 53.636719 C 24.566406 53.011719 24.085938 52.699219 23.449219 52.699219 Z M 23.449219 51.722656 C 24.46875 51.722656 25.25 52.125 25.789062 52.933594 C 26.328125 53.742188 26.597656 54.914062 26.597656 56.453125 C 26.597656 57.984375 26.328125 59.15625 25.789062 59.964844 C 25.25 60.773438 24.46875 61.175781 23.449219 61.175781 C 22.425781 61.175781 21.648438 60.773438 21.109375 59.964844 C 20.570312 59.15625 20.300781 57.984375 20.300781 56.453125 C 20.300781 54.914062 20.570312 53.742188 21.109375 52.933594 C 21.648438 52.125 22.425781 51.722656 23.449219 51.722656 Z M 23.449219 51.722656 "/>
<path style=" stroke:none;fill-rule:nonzero;fill:rgb(0%,0%,0%);fill-opacity:1;" d="M 28.761719 59.449219 L 30.050781 59.449219 L 30.050781 61 L 28.761719 61 Z M 28.761719 59.449219 "/>
<path style=" stroke:none;fill-rule:nonzero;fill:rgb(0%,0%,0%);fill-opacity:1;" d="M 32.75 51.886719 L 37.589844 51.886719 L 37.589844 52.925781 L 33.878906 52.925781 L 33.878906 55.15625 C 34.058594 55.097656 34.234375 55.050781 34.414062 55.019531 C 34.59375 54.992188 34.773438 54.976562 34.953125 54.976562 C 35.96875 54.976562 36.777344 55.253906 37.371094 55.8125 C 37.964844 56.367188 38.261719 57.125 38.261719 58.074219 C 38.261719 59.054688 37.957031 59.816406 37.347656 60.363281 C 36.734375 60.90625 35.875 61.175781 34.765625 61.175781 C 34.382812 61.175781 33.992188 61.144531 33.59375 61.078125 C 33.199219 61.015625 32.789062 60.917969 32.367188 60.785156 L 32.367188 59.546875 C 32.730469 59.746094 33.109375 59.894531 33.5 59.992188 C 33.890625 60.089844 34.304688 60.136719 34.738281 60.136719 C 35.441406 60.136719 36 59.953125 36.410156 59.582031 C 36.820312 59.214844 37.027344 58.710938 37.027344 58.074219 C 37.027344 57.441406 36.820312 56.9375 36.410156 56.570312 C 36 56.199219 35.441406 56.011719 34.738281 56.011719 C 34.410156 56.011719 34.082031 56.050781 33.753906 56.121094 C 33.425781 56.195312 33.089844 56.308594 32.75 56.464844 Z M 32.75 51.886719 "/>
<g clip-path="url(#clip12)" clip-rule="nonzero">
<path style="fill:none;stroke-width:0.8;stroke-linecap:square;stroke-linejoin:round;stroke:rgb(69.019608%,69.019608%,69.019608%);stroke-opacity:1;stroke-miterlimit:4;" d="M 38.484375 13.5 L 373.284375 13.5 " transform="matrix(1.25,0,0,1.25,0,0)"/>
</g>
<path style="fill:none;stroke-width:0.8;stroke-linecap:butt;stroke-linejoin:round;stroke:rgb(0%,0%,0%);stroke-opacity:1;stroke-miterlimit:4;" d="M 0.001562 0 L -3.498438 0 " transform="matrix(1.25,0,0,1.25,48.103516,16.875)"/>
<path style=" stroke:none;fill-rule:nonzero;fill:rgb(0%,0%,0%);fill-opacity:1;" d="M 21.027344 20.585938 L 23.039062 20.585938 L 23.039062 13.632812 L 20.847656 14.074219 L 20.847656 12.949219 L 23.027344 12.511719 L 24.261719 12.511719 L 24.261719 20.585938 L 26.273438 20.585938 L 26.273438 21.625 L 21.027344 21.625 Z M 21.027344 20.585938 "/>
<path style=" stroke:none;fill-rule:nonzero;fill:rgb(0%,0%,0%);fill-opacity:1;" d="M 28.761719 20.074219 L 30.050781 20.074219 L 30.050781 21.625 L 28.761719 21.625 Z M 28.761719 20.074219 "/>
<path style=" stroke:none;fill-rule:nonzero;fill:rgb(0%,0%,0%);fill-opacity:1;" d="M 35.375 13.324219 C 34.738281 13.324219 34.261719 13.636719 33.941406 14.261719 C 33.621094 14.882812 33.464844 15.824219 33.464844 17.078125 C 33.464844 18.324219 33.621094 19.261719 33.941406 19.886719 C 34.261719 20.511719 34.738281 20.824219 35.375 20.824219 C 36.011719 20.824219 36.492188 20.511719 36.8125 19.886719 C 37.132812 19.261719 37.292969 18.324219 37.292969 17.078125 C 37.292969 15.824219 37.132812 14.882812 36.8125 14.261719 C 36.492188 13.636719 36.011719 13.324219 35.375 13.324219 Z M 35.375 12.347656 C 36.394531 12.347656 37.175781 12.75 37.714844 13.558594 C 38.253906 14.367188 38.523438 15.539062 38.523438 17.078125 C 38.523438 18.609375 38.253906 19.78125 37.714844 20.589844 C 37.175781 21.398438 36.394531 21.800781 35.375 21.800781 C 34.351562 21.800781 33.574219 21.398438 33.035156 20.589844 C 32.496094 19.78125 32.226562 18.609375 32.226562 17.078125 C 32.226562 15.539062 32.496094 14.367188 33.035156 13.558594 C 33.574219 12.75 34.351562 12.347656 35.375 12.347656 Z M 35.375 12.347656 "/>
<path style="fill:none;stroke-width:1.5;stroke-linecap:square;stroke-linejoin:round;stroke:rgb(12.156863%,46.666667%,70.588235%);stroke-opacity:1;stroke-miterlimit:4;" d="M 53.7 76.5 L 58.859375 65.35625 L 64.01875 54.5625 L 69.178125 44.4625 L 74.334375 35.371875 L 79.49375 27.578125 L 84.653125 21.328125 L 89.8125 16.81875 L 94.971875 14.190625 L 100.128125 13.528125 L 105.2875 14.85 L 110.446875 18.11875 L 115.60625 23.228125 L 120.765625 30.01875 L 125.921875 38.271875 L 131.08125 47.734375 L 136.240625 58.103125 L 141.4 69.05 L 146.55625 80.234375 L 151.715625 91.3 L 156.875 101.9 L 162.034375 111.696875 L 167.19375 120.384375 L 172.35 127.6875 L 177.509375 133.378125 L 182.66875 137.271875 L 187.828125 139.25 L 192.9875 139.25 L 198.14375 137.271875 L 203.303125 133.375 L 208.4625 127.684375 L 213.621875 120.38125 L 218.778125 111.690625 L 223.9375 101.89375 L 229.096875 91.29375 L 234.25625 80.228125 L 239.415625 69.04375 L 244.571875 58.096875 L 249.73125 47.728125 L 254.890625 38.26875 L 260.05 30.0125 L 265.209375 23.225 L 270.365625 18.115625 L 275.525 14.85 L 280.684375 13.528125 L 285.84375 14.190625 L 291 16.81875 L 296.159375 21.33125 L 301.31875 27.58125 L 306.478125 35.378125 L 311.6375 44.46875 L 316.79375 54.56875 L 321.953125 65.3625 L 332.271875 87.65 L 337.43125 98.44375 L 342.5875 108.54375 L 347.746875 117.634375 L 352.90625 125.425 L 358.065625 131.675 " transform="matrix(1.25,0,0,1.25,0,0)"/>
<path style="fill:none;stroke-width:1.5;stroke-linecap:butt;stroke-linejoin:round;stroke:rgb(74.901961%,0%,74.901961%);stroke-opacity:1;stroke-dasharray:5.55,2.4;stroke-miterlimit:4;" d="M 53.7 13.5 L 58.859375 14.49375 L 64.01875 17.44375 L 69.178125 22.253125 L 74.334375 28.778125 L 79.49375 36.80625 L 84.653125 46.084375 L 89.8125 56.325 L 94.971875 67.2 L 100.128125 78.36875 L 105.2875 89.478125 L 110.446875 100.178125 L 115.60625 110.13125 L 120.765625 119.025 L 125.921875 126.578125 L 131.08125 132.55 L 136.240625 136.753125 L 141.4 139.059375 L 146.55625 139.390625 L 151.715625 137.7375 L 156.875 134.153125 L 162.034375 128.75 L 167.19375 121.7 L 172.35 113.225 L 177.509375 103.590625 L 182.66875 93.103125 L 187.828125 82.090625 L 192.9875 70.903125 L 198.14375 59.890625 L 203.303125 49.403125 L 208.4625 39.76875 L 213.621875 31.29375 L 218.778125 24.24375 L 223.9375 18.84375 L 229.096875 15.2625 L 234.25625 13.609375 L 239.415625 13.94375 L 244.571875 16.246875 L 249.73125 20.453125 L 254.890625 26.428125 L 260.05 33.978125 L 265.209375 42.871875 L 270.365625 52.828125 L 275.525 63.528125 L 280.684375 74.6375 L 285.84375 85.80625 L 291 96.68125 L 296.159375 106.921875 L 301.31875 116.2 L 306.478125 124.228125 L 311.6375 130.75 L 316.79375 135.559375 L 321.953125 138.50625 L 327.1125 139.5 L 332.271875 138.50625 L 337.43125 135.55625 L 342.5875 130.74375 L 347.746875 124.21875 L 352.90625 116.190625 L 358.065625 106.909375 " transform="matrix(1.25,0,0,1.25,0,0)"/>
<path style="fill:none;stroke-width:1.5;stroke-linecap:butt;stroke-linejoin:round;stroke:rgb(0%,50.196078%,0%);stroke-opacity:1;stroke-dasharray:9.6,2.4,1.5,2.4;stroke-miterlimit:4;" d="M 53.7 76.5 L 58.859375 70.209375 L 64.01875 63.984375 L 69.178125 57.88125 L 74.334375 51.965625 L 79.49375 46.296875 L 84.653125 40.928125 L 89.8125 35.915625 L 94.971875 31.30625 L 100.128125 27.15 L 105.2875 23.4875 L 110.446875 20.353125 L 115.60625 17.78125 L 120.765625 15.796875 L 125.921875 14.415625 L 131.08125 13.659375 L 136.240625 13.528125 L 141.4 14.025 L 146.55625 15.146875 L 151.715625 16.884375 L 156.875 19.215625 L 162.034375 22.11875 L 167.19375 25.565625 L 172.35 29.521875 L 177.509375 33.946875 L 182.66875 38.796875 L 187.828125 44.021875 L 192.9875 49.575 L 198.14375 55.396875 L 203.303125 61.428125 L 208.4625 67.609375 L 213.621875 73.88125 L 218.778125 80.178125 L 223.9375 86.4375 L 229.096875 92.6 L 234.25625 98.6 L 239.415625 104.378125 L 244.571875 109.878125 L 249.73125 115.046875 L 254.890625 119.828125 L 260.05 124.178125 L 265.209375 128.05 L 270.365625 131.409375 L 275.525 134.21875 L 280.684375 136.45 L 285.84375 138.084375 L 291 139.103125 L 296.159375 139.49375 L 301.31875 139.259375 L 306.478125 138.39375 L 311.6375 136.9125 L 316.79375 134.825 L 321.953125 132.15625 L 327.1125 128.934375 L 332.271875 125.184375 L 337.43125 120.95 L 342.5875 116.26875 L 347.746875 111.19375 L 352.90625 105.76875 L 358.065625 100.053125 " transform="matrix(1.25,0,0,1.25,0,0)"/>
<path style="fill:none;stroke-width:1.5;stroke-linecap:butt;stroke-linejoin:round;stroke:rgb(100%,0%,0%);stroke-opacity:1;stroke-dasharray:1.5,2.475;stroke-miterlimit:4;" d="M 53.7 13.5 L 58.859375 13.815625 L 64.01875 14.75625 L 69.178125 16.3125 L 74.334375 18.471875 L 79.49375 21.2125 L 84.653125 24.503125 L 89.8125 28.315625 L 94.971875 32.60625 L 100.128125 37.3375 L 105.2875 42.4625 L 110.446875 47.925 L 115.60625 53.671875 L 120.765625 59.646875 L 125.921875 65.790625 L 131.08125 72.04375 L 136.240625 78.340625 L 141.4 84.61875 L 146.55625 90.8125 L 151.715625 96.86875 L 156.875 102.71875 L 162.034375 108.30625 L 167.19375 113.575 L 172.35 118.475 L 177.509375 122.95625 L 182.66875 126.971875 L 187.828125 130.484375 L 192.9875 133.45625 L 198.14375 135.859375 L 203.303125 137.671875 L 208.4625 138.86875 L 213.621875 139.446875 L 218.778125 139.39375 L 223.9375 138.7125 L 229.096875 137.409375 L 234.25625 135.496875 L 239.415625 132.996875 L 244.571875 129.93125 L 249.73125 126.33125 L 254.890625 122.234375 L 260.05 117.678125 L 265.209375 112.7125 L 270.365625 107.3875 L 275.525 101.75 L 280.684375 95.8625 L 285.84375 89.78125 L 291 83.565625 L 296.159375 77.28125 L 301.31875 70.9875 L 306.478125 64.75 L 311.6375 58.628125 L 316.79375 52.6875 L 321.953125 46.984375 L 327.1125 41.575 L 332.271875 36.515625 L 337.43125 31.853125 L 342.5875 27.640625 L 347.746875 23.9125 L 352.90625 20.7125 L 358.065625 18.06875 " transform="matrix(1.25,0,0,1.25,0,0)"/>
<path style="fill:none;stroke-width:0.8;stroke-linecap:square;stroke-linejoin:miter;stroke:rgb(0%,0%,0%);stroke-opacity:1;stroke-miterlimit:4;" d="M 38.484375 145.8 L 38.484375 7.2 " transform="matrix(1.25,0,0,1.25,0,0)"/>
<path style="fill:none;stroke-width:0.8;stroke-linecap:square;stroke-linejoin:miter;stroke:rgb(0%,0%,0%);stroke-opacity:1;stroke-miterlimit:4;" d="M 373.284375 145.8 L 373.284375 7.2 " transform="matrix(1.25,0,0,1.25,0,0)"/>
<path style="fill:none;stroke-width:0.8;stroke-linecap:square;stroke-linejoin:miter;stroke:rgb(0%,0%,0%);stroke-opacity:1;stroke-miterlimit:4;" d="M 38.484375 145.8 L 373.28125 145.8 " transform="matrix(1.25,0,0,1.25,0,0)"/>
<path style="fill:none;stroke-width:0.8;stroke-linecap:square;stroke-linejoin:miter;stroke:rgb(0%,0%,0%);stroke-opacity:1;stroke-miterlimit:4;" d="M 38.484375 7.2 L 373.28125 7.2 " transform="matrix(1.25,0,0,1.25,0,0)"/>
<use xlink:href="#surface5" mask="url(#mask0)"/>
<path style="fill:none;stroke-width:1.5;stroke-linecap:square;stroke-linejoin:round;stroke:rgb(12.156863%,46.666667%,70.588235%);stroke-opacity:1;stroke-miterlimit:4;" d="M 47.484375 87.1875 L 67.48125 87.1875 " transform="matrix(1.25,0,0,1.25,0,0)"/>
<path style=" stroke:none;fill-rule:nonzero;fill:rgb(0%,0%,0%);fill-opacity:1;" d="M 102.402344 104.949219 L 102.402344 106.246094 C 101.988281 105.859375 101.546875 105.570312 101.074219 105.382812 C 100.605469 105.191406 100.105469 105.09375 99.578125 105.09375 C 98.535156 105.09375 97.738281 105.414062 97.183594 106.050781 C 96.632812 106.6875 96.355469 107.605469 96.355469 108.8125 C 96.355469 110.011719 96.632812 110.929688 97.183594 111.566406 C 97.738281 112.203125 98.535156 112.523438 99.578125 112.523438 C 100.105469 112.523438 100.605469 112.425781 101.074219 112.234375 C 101.546875 112.042969 101.988281 111.753906 102.402344 111.367188 L 102.402344 112.65625 C 101.972656 112.949219 101.515625 113.167969 101.03125 113.316406 C 100.550781 113.460938 100.042969 113.535156 99.503906 113.535156 C 98.125 113.535156 97.039062 113.113281 96.242188 112.269531 C 95.449219 111.425781 95.054688 110.273438 95.054688 108.8125 C 95.054688 107.347656 95.449219 106.191406 96.242188 105.347656 C 97.039062 104.503906 98.125 104.082031 99.503906 104.082031 C 100.050781 104.082031 100.5625 104.152344 101.042969 104.296875 C 101.527344 104.441406 101.980469 104.660156 102.402344 104.949219 Z M 102.402344 104.949219 "/>
<path style=" stroke:none;fill-rule:nonzero;fill:rgb(0%,0%,0%);fill-opacity:1;" d="M 106.90625 107.308594 C 106.304688 107.308594 105.832031 107.542969 105.480469 108.015625 C 105.128906 108.484375 104.953125 109.128906 104.953125 109.945312 C 104.953125 110.761719 105.128906 111.40625 105.476562 111.878906 C 105.824219 112.347656 106.300781 112.582031 106.90625 112.582031 C 107.507812 112.582031 107.980469 112.347656 108.328125 111.875 C 108.679688 111.402344 108.855469 110.757812 108.855469 109.945312 C 108.855469 109.136719 108.679688 108.492188 108.328125 108.019531 C 107.980469 107.546875 107.507812 107.308594 106.90625 107.308594 Z M 106.90625 106.359375 C 107.882812 106.359375 108.652344 106.675781 109.207031 107.3125 C 109.765625 107.945312 110.046875 108.824219 110.046875 109.945312 C 110.046875 111.0625 109.765625 111.941406 109.207031 112.582031 C 108.652344 113.21875 107.882812 113.535156 106.90625 113.535156 C 105.925781 113.535156 105.160156 113.21875 104.601562 112.582031 C 104.046875 111.941406 103.769531 111.0625 103.769531 109.945312 C 103.769531 108.824219 104.046875 107.945312 104.601562 107.3125 C 105.160156 106.675781 105.925781 106.359375 106.90625 106.359375 Z M 106.90625 106.359375 "/>
<path style=" stroke:none;fill-rule:nonzero;fill:rgb(0%,0%,0%);fill-opacity:1;" d="M 111.90625 103.859375 L 113.03125 103.859375 L 113.03125 113.359375 L 111.90625 113.359375 Z M 111.90625 103.859375 "/>
<path style=" stroke:none;fill-rule:nonzero;fill:rgb(0%,0%,0%);fill-opacity:1;" d="M 122.300781 108.3125 C 121.75 108.3125 121.308594 108.5 120.984375 108.878906 C 120.664062 109.257812 120.5 109.773438 120.5 110.433594 C 120.5 111.089844 120.664062 111.605469 120.984375 111.988281 C 121.308594 112.367188 121.75 112.558594 122.300781 112.558594 C 122.855469 112.558594 123.292969 112.367188 123.617188 111.988281 C 123.941406 111.605469 124.101562 111.089844 124.101562 110.433594 C 124.101562 109.773438 123.941406 109.257812 123.617188 108.878906 C 123.292969 108.5 122.855469 108.3125 122.300781 108.3125 Z M 124.75 104.445312 L 124.75 105.570312 C 124.441406 105.421875 124.128906 105.3125 123.8125 105.234375 C 123.496094 105.15625 123.183594 105.117188 122.875 105.117188 C 122.0625 105.117188 121.4375 105.390625 121.007812 105.941406 C 120.582031 106.492188 120.335938 107.320312 120.273438 108.433594 C 120.515625 108.078125 120.816406 107.804688 121.175781 107.617188 C 121.539062 107.429688 121.941406 107.335938 122.375 107.335938 C 123.289062 107.335938 124.011719 107.613281 124.542969 108.167969 C 125.074219 108.722656 125.339844 109.476562 125.339844 110.433594 C 125.339844 111.371094 125.066406 112.121094 124.511719 112.6875 C 123.957031 113.253906 123.222656 113.535156 122.300781 113.535156 C 121.246094 113.535156 120.441406 113.132812 119.882812 112.324219 C 119.328125 111.515625 119.046875 110.34375 119.046875 108.8125 C 119.046875 107.371094 119.390625 106.222656 120.074219 105.367188 C 120.757812 104.507812 121.675781 104.082031 122.824219 104.082031 C 123.136719 104.082031 123.449219 104.109375 123.761719 104.171875 C 124.078125 104.234375 124.40625 104.324219 124.75 104.445312 Z M 124.75 104.445312 "/>
<path style="fill:none;stroke-width:1.5;stroke-linecap:butt;stroke-linejoin:round;stroke:rgb(74.901961%,0%,74.901961%);stroke-opacity:1;stroke-dasharray:5.55,2.4;stroke-miterlimit:4;" d="M 47.484375 101.865625 L 67.48125 101.865625 " transform="matrix(1.25,0,0,1.25,0,0)"/>
<path style=" stroke:none;fill-rule:nonzero;fill:rgb(0%,0%,0%);fill-opacity:1;" d="M 102.402344 123.296875 L 102.402344 124.59375 C 101.988281 124.207031 101.546875 123.917969 101.074219 123.730469 C 100.605469 123.539062 100.105469 123.441406 99.578125 123.441406 C 98.535156 123.441406 97.738281 123.761719 97.183594 124.398438 C 96.632812 125.035156 96.355469 125.953125 96.355469 127.160156 C 96.355469 128.359375 96.632812 129.277344 97.183594 129.914062 C 97.738281 130.550781 98.535156 130.871094 99.578125 130.871094 C 100.105469 130.871094 100.605469 130.773438 101.074219 130.582031 C 101.546875 130.390625 101.988281 130.101562 102.402344 129.714844 L 102.402344 131.003906 C 101.972656 131.296875 101.515625 131.515625 101.03125 131.664062 C 100.550781 131.808594 100.042969 131.882812 99.503906 131.882812 C 98.125 131.882812 97.039062 131.460938 96.242188 130.617188 C 95.449219 129.773438 95.054688 128.621094 95.054688 127.160156 C 95.054688 125.695312 95.449219 124.539062 96.242188 123.695312 C 97.039062 122.851562 98.125 122.429688 99.503906 122.429688 C 100.050781 122.429688 100.5625 122.5 101.042969 122.644531 C 101.527344 122.789062 101.980469 123.007812 102.402344 123.296875 Z M 102.402344 123.296875 "/>
<path style=" stroke:none;fill-rule:nonzero;fill:rgb(0%,0%,0%);fill-opacity:1;" d="M 106.90625 125.65625 C 106.304688 125.65625 105.832031 125.890625 105.480469 126.363281 C 105.128906 126.832031 104.953125 127.476562 104.953125 128.292969 C 104.953125 129.109375 105.128906 129.753906 105.476562 130.226562 C 105.824219 130.695312 106.300781 130.929688 106.90625 130.929688 C 107.507812 130.929688 107.980469 130.695312 108.328125 130.222656 C 108.679688 129.75 108.855469 129.105469 108.855469 128.292969 C 108.855469 127.484375 108.679688 126.839844 108.328125 126.367188 C 107.980469 125.894531 107.507812 125.65625 106.90625 125.65625 Z M 106.90625 124.707031 C 107.882812 124.707031 108.652344 125.023438 109.207031 125.660156 C 109.765625 126.292969 110.046875 127.171875 110.046875 128.292969 C 110.046875 129.410156 109.765625 130.289062 109.207031 130.929688 C 108.652344 131.566406 107.882812 131.882812 106.90625 131.882812 C 105.925781 131.882812 105.160156 131.566406 104.601562 130.929688 C 104.046875 130.289062 103.769531 129.410156 103.769531 128.292969 C 103.769531 127.171875 104.046875 126.292969 104.601562 125.660156 C 105.160156 125.023438 105.925781 124.707031 106.90625 124.707031 Z M 106.90625 124.707031 "/>
<path style=" stroke:none;fill-rule:nonzero;fill:rgb(0%,0%,0%);fill-opacity:1;" d="M 111.90625 122.207031 L 113.03125 122.207031 L 113.03125 131.707031 L 111.90625 131.707031 Z M 111.90625 122.207031 "/>
<path style=" stroke:none;fill-rule:nonzero;fill:rgb(0%,0%,0%);fill-opacity:1;" d="M 119.199219 122.59375 L 125.058594 122.59375 L 125.058594 123.117188 L 121.75 131.707031 L 120.464844 131.707031 L 123.578125 123.632812 L 119.199219 123.632812 Z M 119.199219 122.59375 "/>
<path style="fill:none;stroke-width:1.5;stroke-linecap:butt;stroke-linejoin:round;stroke:rgb(0%,50.196078%,0%);stroke-opacity:1;stroke-dasharray:9.6,2.4,1.5,2.4;stroke-miterlimit:4;" d="M 47.484375 116.54375 L 67.48125 116.54375 " transform="matrix(1.25,0,0,1.25,0,0)"/>
<path style=" stroke:none;fill-rule:nonzero;fill:rgb(0%,0%,0%);fill-opacity:1;" d="M 102.402344 141.644531 L 102.402344 142.941406 C 101.988281 142.554688 101.546875 142.265625 101.074219 142.078125 C 100.605469 141.886719 100.105469 141.789062 99.578125 141.789062 C 98.535156 141.789062 97.738281 142.109375 97.183594 142.746094 C 96.632812 143.382812 96.355469 144.300781 96.355469 145.507812 C 96.355469 146.707031 96.632812 147.625 97.183594 148.261719 C 97.738281 148.898438 98.535156 149.21875 99.578125 149.21875 C 100.105469 149.21875 100.605469 149.121094 101.074219 148.929688 C 101.546875 148.738281 101.988281 148.449219 102.402344 148.0625 L 102.402344 149.351562 C 101.972656 149.644531 101.515625 149.863281 101.03125 150.011719 C 100.550781 150.15625 100.042969 150.230469 99.503906 150.230469 C 98.125 150.230469 97.039062 149.808594 96.242188 148.964844 C 95.449219 148.121094 95.054688 146.96875 95.054688 145.507812 C 95.054688 144.042969 95.449219 142.886719 96.242188 142.042969 C 97.039062 141.199219 98.125 140.777344 99.503906 140.777344 C 100.050781 140.777344 100.5625 140.847656 101.042969 140.992188 C 101.527344 141.136719 101.980469 141.355469 102.402344 141.644531 Z M 102.402344 141.644531 "/>
<path style=" stroke:none;fill-rule:nonzero;fill:rgb(0%,0%,0%);fill-opacity:1;" d="M 106.90625 144.003906 C 106.304688 144.003906 105.832031 144.238281 105.480469 144.710938 C 105.128906 145.179688 104.953125 145.824219 104.953125 146.640625 C 104.953125 147.457031 105.128906 148.101562 105.476562 148.574219 C 105.824219 149.042969 106.300781 149.277344 106.90625 149.277344 C 107.507812 149.277344 107.980469 149.042969 108.328125 148.570312 C 108.679688 148.097656 108.855469 147.453125 108.855469 146.640625 C 108.855469 145.832031 108.679688 145.1875 108.328125 144.714844 C 107.980469 144.242188 107.507812 144.003906 106.90625 144.003906 Z M 106.90625 143.054688 C 107.882812 143.054688 108.652344 143.371094 109.207031 144.007812 C 109.765625 144.640625 110.046875 145.519531 110.046875 146.640625 C 110.046875 147.757812 109.765625 148.636719 109.207031 149.277344 C 108.652344 149.914062 107.882812 150.230469 106.90625 150.230469 C 105.925781 150.230469 105.160156 149.914062 104.601562 149.277344 C 104.046875 148.636719 103.769531 147.757812 103.769531 146.640625 C 103.769531 145.519531 104.046875 144.640625 104.601562 144.007812 C 105.160156 143.371094 105.925781 143.054688 106.90625 143.054688 Z M 106.90625 143.054688 "/>
<path style=" stroke:none;fill-rule:nonzero;fill:rgb(0%,0%,0%);fill-opacity:1;" d="M 111.90625 140.554688 L 113.03125 140.554688 L 113.03125 150.054688 L 111.90625 150.054688 Z M 111.90625 140.554688 "/>
<path style=" stroke:none;fill-rule:nonzero;fill:rgb(0%,0%,0%);fill-opacity:1;" d="M 122.148438 145.726562 C 121.5625 145.726562 121.101562 145.882812 120.765625 146.195312 C 120.429688 146.507812 120.261719 146.941406 120.261719 147.488281 C 120.261719 148.039062 120.429688 148.46875 120.765625 148.785156 C 121.101562 149.097656 121.5625 149.253906 122.148438 149.253906 C 122.734375 149.253906 123.195312 149.097656 123.53125 148.78125 C 123.871094 148.464844 124.039062 148.035156 124.039062 147.488281 C 124.039062 146.941406 123.871094 146.507812 123.535156 146.195312 C 123.203125 145.882812 122.738281 145.726562 122.148438 145.726562 Z M 120.914062 145.203125 C 120.386719 145.070312 119.976562 144.824219 119.679688 144.464844 C 119.386719 144.101562 119.238281 143.65625 119.238281 143.136719 C 119.238281 142.410156 119.496094 141.832031 120.015625 141.410156 C 120.535156 140.988281 121.246094 140.777344 122.148438 140.777344 C 123.054688 140.777344 123.769531 140.988281 124.285156 141.410156 C 124.800781 141.832031 125.058594 142.410156 125.058594 143.136719 C 125.058594 143.65625 124.914062 144.101562 124.617188 144.464844 C 124.324219 144.824219 123.914062 145.070312 123.386719 145.203125 C 123.980469 145.339844 124.445312 145.609375 124.773438 146.015625 C 125.105469 146.417969 125.273438 146.90625 125.273438 147.488281 C 125.273438 148.371094 125.003906 149.050781 124.464844 149.523438 C 123.925781 149.996094 123.152344 150.230469 122.148438 150.230469 C 121.144531 150.230469 120.371094 149.996094 119.832031 149.523438 C 119.292969 149.050781 119.023438 148.371094 119.023438 147.488281 C 119.023438 146.90625 119.191406 146.417969 119.523438 146.015625 C 119.859375 145.609375 120.320312 145.339844 120.914062 145.203125 Z M 120.464844 143.253906 C 120.464844 143.726562 120.613281 144.09375 120.90625 144.359375 C 121.203125 144.621094 121.617188 144.753906 122.148438 144.753906 C 122.679688 144.753906 123.09375 144.621094 123.390625 144.359375 C 123.691406 144.09375 123.839844 143.726562 123.839844 143.253906 C 123.839844 142.78125 123.691406 142.414062 123.390625 142.148438 C 123.09375 141.882812 122.679688 141.753906 122.148438 141.753906 C 121.617188 141.753906 121.203125 141.882812 120.90625 142.148438 C 120.613281 142.414062 120.464844 142.78125 120.464844 143.253906 Z M 120.464844 143.253906 "/>
<path style="fill:none;stroke-width:1.5;stroke-linecap:butt;stroke-linejoin:round;stroke:rgb(100%,0%,0%);stroke-opacity:1;stroke-dasharray:1.5,2.475;stroke-miterlimit:4;" d="M 47.484375 131.221875 L 67.48125 131.221875 " transform="matrix(1.25,0,0,1.25,0,0)"/>
<path style=" stroke:none;fill-rule:nonzero;fill:rgb(0%,0%,0%);fill-opacity:1;" d="M 102.402344 159.992188 L 102.402344 161.289062 C 101.988281 160.902344 101.546875 160.613281 101.074219 160.425781 C 100.605469 160.234375 100.105469 160.136719 99.578125 160.136719 C 98.535156 160.136719 97.738281 160.457031 97.183594 161.09375 C 96.632812 161.730469 96.355469 162.648438 96.355469 163.855469 C 96.355469 165.054688 96.632812 165.972656 97.183594 166.609375 C 97.738281 167.246094 98.535156 167.566406 99.578125 167.566406 C 100.105469 167.566406 100.605469 167.46875 101.074219 167.277344 C 101.546875 167.085938 101.988281 166.796875 102.402344 166.410156 L 102.402344 167.699219 C 101.972656 167.992188 101.515625 168.210938 101.03125 168.359375 C 100.550781 168.503906 100.042969 168.578125 99.503906 168.578125 C 98.125 168.578125 97.039062 168.15625 96.242188 167.3125 C 95.449219 166.46875 95.054688 165.316406 95.054688 163.855469 C 95.054688 162.390625 95.449219 161.234375 96.242188 160.390625 C 97.039062 159.546875 98.125 159.125 99.503906 159.125 C 100.050781 159.125 100.5625 159.195312 101.042969 159.339844 C 101.527344 159.484375 101.980469 159.703125 102.402344 159.992188 Z M 102.402344 159.992188 "/>
<path style=" stroke:none;fill-rule:nonzero;fill:rgb(0%,0%,0%);fill-opacity:1;" d="M 106.90625 162.351562 C 106.304688 162.351562 105.832031 162.585938 105.480469 163.058594 C 105.128906 163.527344 104.953125 164.171875 104.953125 164.988281 C 104.953125 165.804688 105.128906 166.449219 105.476562 166.921875 C 105.824219 167.390625 106.300781 167.625 106.90625 167.625 C 107.507812 167.625 107.980469 167.390625 108.328125 166.917969 C 108.679688 166.445312 108.855469 165.800781 108.855469 164.988281 C 108.855469 164.179688 108.679688 163.535156 108.328125 163.0625 C 107.980469 162.589844 107.507812 162.351562 106.90625 162.351562 Z M 106.90625 161.402344 C 107.882812 161.402344 108.652344 161.71875 109.207031 162.355469 C 109.765625 162.988281 110.046875 163.867188 110.046875 164.988281 C 110.046875 166.105469 109.765625 166.984375 109.207031 167.625 C 108.652344 168.261719 107.882812 168.578125 106.90625 168.578125 C 105.925781 168.578125 105.160156 168.261719 104.601562 167.625 C 104.046875 166.984375 103.769531 166.105469 103.769531 164.988281 C 103.769531 163.867188 104.046875 162.988281 104.601562 162.355469 C 105.160156 161.71875 105.925781 161.402344 106.90625 161.402344 Z M 106.90625 161.402344 "/>
<path style=" stroke:none;fill-rule:nonzero;fill:rgb(0%,0%,0%);fill-opacity:1;" d="M 111.90625 158.902344 L 113.03125 158.902344 L 113.03125 168.402344 L 111.90625 168.402344 Z M 111.90625 158.902344 "/>
<path style=" stroke:none;fill-rule:nonzero;fill:rgb(0%,0%,0%);fill-opacity:1;" d="M 119.546875 168.210938 L 119.546875 167.089844 C 119.859375 167.234375 120.171875 167.347656 120.488281 167.425781 C 120.804688 167.5 121.117188 167.539062 121.421875 167.539062 C 122.238281 167.539062 122.859375 167.265625 123.285156 166.71875 C 123.714844 166.171875 123.960938 165.339844 124.023438 164.226562 C 123.789062 164.574219 123.488281 164.84375 123.125 165.03125 C 122.761719 165.21875 122.363281 165.3125 121.921875 165.3125 C 121.011719 165.3125 120.289062 165.039062 119.757812 164.488281 C 119.226562 163.933594 118.960938 163.179688 118.960938 162.222656 C 118.960938 161.289062 119.238281 160.539062 119.792969 159.972656 C 120.347656 159.40625 121.082031 159.125 122 159.125 C 123.054688 159.125 123.859375 159.527344 124.414062 160.335938 C 124.972656 161.144531 125.25 162.316406 125.25 163.855469 C 125.25 165.289062 124.910156 166.4375 124.226562 167.292969 C 123.546875 168.148438 122.628906 168.578125 121.476562 168.578125 C 121.167969 168.578125 120.855469 168.546875 120.535156 168.488281 C 120.21875 168.425781 119.890625 168.332031 119.546875 168.210938 Z M 122 164.347656 C 122.554688 164.347656 122.992188 164.160156 123.316406 163.78125 C 123.640625 163.402344 123.800781 162.882812 123.800781 162.222656 C 123.800781 161.566406 123.640625 161.050781 123.316406 160.671875 C 122.992188 160.289062 122.554688 160.101562 122 160.101562 C 121.449219 160.101562 121.011719 160.289062 120.6875 160.671875 C 120.363281 161.050781 120.203125 161.566406 120.203125 162.222656 C 120.203125 162.882812 120.363281 163.402344 120.6875 163.78125 C 121.011719 164.160156 121.449219 164.347656 122 164.347656 Z M 122 164.347656 "/>
</g>
</svg>
