<?xml version="1.0" encoding="UTF-8"?>
<svg xmlns="http://www.w3.org/2000/svg" xmlns:xlink="http://www.w3.org/1999/xlink" width="343pt" height="229pt" viewBox="0 0 343 229" version="1.1">
<defs>
<clipPath id="clip1">
  <path d="M 93 17 L 103 17 L 103 182.25 L 93 182.25 Z M 93 17 "/>
</clipPath>
<clipPath id="clip2">
  <path d="M 116 87 L 126 87 L 126 182.25 L 116 182.25 Z M 116 87 "/>
</clipPath>
<clipPath id="clip3">
  <path d="M 138 176 L 149 176 L 149 182.25 L 138 182.25 Z M 138 176 "/>
</clipPath>
<clipPath id="clip4">
  <path d="M 161 181 L 171 181 L 171 182.25 L 161 182.25 Z M 161 181 "/>
</clipPath>
<clipPath id="clip5">
  <path d="M 184 182 L 194 182 L 194 182.25 L 184 182.25 Z M 184 182 "/>
</clipPath>
<clipPath id="clip6">
  <path d="M 206 182 L 216 182 L 216 182.25 L 206 182.25 Z M 206 182 "/>
</clipPath>
<clipPath id="clip7">
  <path d="M 229 182 L 239 182 L 239 182.25 L 229 182.25 Z M 229 182 "/>
</clipPath>
<clipPath id="clip8">
  <path d="M 274 182 L 284 182 L 284 182.25 L 274 182.25 Z M 274 182 "/>
</clipPath>
<clipPath id="clip9">
  <path d="M 102 33 L 112 33 L 112 182.25 L 102 182.25 Z M 102 33 "/>
</clipPath>
<clipPath id="clip10">
  <rect x="0" y="0" width="90" height="90"/>
</clipPath>
<g id="surface5" clip-path="url(#clip10)">
<rect x="0" y="0" width="90" height="90" style="fill:rgb(100%,49.803922%,5.490196%);fill-opacity:1;stroke:none;"/>
<path style="fill-rule:nonzero;fill:rgb(0%,0%,0%);fill-opacity:1;stroke-width:1;stroke-linecap:butt;stroke-linejoin:miter;stroke:rgb(0%,0%,0%);stroke-opacity:1;stroke-miterlimit:4;" d="M -36 36 L 36 -36 M -24 48 L 48 -24 M -12 60 L 60 -12 M 0 72 L 72 0 M 12 84 L 84 12 M 24 96 L 96 24 M 36 108 L 108 36 " transform="matrix(1.25,0,0,1.25,0,0)"/>
</g>
<pattern id="pattern0" patternUnits="userSpaceOnUse" width="90" height="90">
<use xlink:href="#surface5"/>
</pattern>
<clipPath id="clip11">
  <path d="M 125 75 L 135 75 L 135 182.25 L 125 182.25 Z M 125 75 "/>
</clipPath>
<clipPath id="clip12">
  <rect x="0" y="0" width="90" height="90"/>
</clipPath>
<g id="surface8" clip-path="url(#clip12)">
<rect x="0" y="0" width="90" height="90" style="fill:rgb(100%,49.803922%,5.490196%);fill-opacity:1;stroke:none;"/>
<path style="fill-rule:nonzero;fill:rgb(0%,0%,0%);fill-opacity:1;stroke-width:1;stroke-linecap:butt;stroke-linejoin:miter;stroke:rgb(0%,0%,0%);stroke-opacity:1;stroke-miterlimit:4;" d="M -36 36 L 36 -36 M -24 48 L 48 -24 M -12 60 L 60 -12 M 0 72 L 72 0 M 12 84 L 84 12 M 24 96 L 96 24 M 36 108 L 108 36 " transform="matrix(1.25,0,0,1.25,0,0)"/>
</g>
<pattern id="pattern1" patternUnits="userSpaceOnUse" width="90" height="90">
<use xlink:href="#surface8"/>
</pattern>
<clipPath id="clip13">
  <path d="M 148 173 L 158 173 L 158 182.25 L 148 182.25 Z M 148 173 "/>
</clipPath>
<clipPath id="clip14">
  <rect x="0" y="0" width="90" height="90"/>
</clipPath>
<g id="surface11" clip-path="url(#clip14)">
<rect x="0" y="0" width="90" height="90" style="fill:rgb(100%,49.803922%,5.490196%);fill-opacity:1;stroke:none;"/>
<path style="fill-rule:nonzero;fill:rgb(0%,0%,0%);fill-opacity:1;stroke-width:1;stroke-linecap:butt;stroke-linejoin:miter;stroke:rgb(0%,0%,0%);stroke-opacity:1;stroke-miterlimit:4;" d="M -36 36 L 36 -36 M -24 48 L 48 -24 M -12 60 L 60 -12 M 0 72 L 72 0 M 12 84 L 84 12 M 24 96 L 96 24 M 36 108 L 108 36 " transform="matrix(1.25,0,0,1.25,0,0)"/>
</g>
<pattern id="pattern2" patternUnits="userSpaceOnUse" width="90" height="90">
<use xlink:href="#surface11"/>
</pattern>
<clipPath id="clip15">
  <path d="M 170 181 L 180 181 L 180 182.25 L 170 182.25 Z M 170 181 "/>
</clipPath>
<clipPath id="clip16">
  <rect x="0" y="0" width="90" height="90"/>
</clipPath>
<g id="surface14" clip-path="url(#clip16)">
<rect x="0" y="0" width="90" height="90" style="fill:rgb(100%,49.803922%,5.490196%);fill-opacity:1;stroke:none;"/>
<path style="fill-rule:nonzero;fill:rgb(0%,0%,0%);fill-opacity:1;stroke-width:1;stroke-linecap:butt;stroke-linejoin:miter;stroke:rgb(0%,0%,0%);stroke-opacity:1;stroke-miterlimit:4;" d="M -36 36 L 36 -36 M -24 48 L 48 -24 M -12 60 L 60 -12 M 0 72 L 72 0 M 12 84 L 84 12 M 24 96 L 96 24 M 36 108 L 108 36 " transform="matrix(1.25,0,0,1.25,0,0)"/>
</g>
<pattern id="pattern3" patternUnits="userSpaceOnUse" width="90" height="90">
<use xlink:href="#surface14"/>
</pattern>
<clipPath id="clip17">
  <path d="M 193 182 L 203 182 L 203 182.25 L 193 182.25 Z M 193 182 "/>
</clipPath>
<clipPath id="clip18">
  <rect x="0" y="0" width="90" height="90"/>
</clipPath>
<g id="surface17" clip-path="url(#clip18)">
<rect x="0" y="0" width="90" height="90" style="fill:rgb(100%,49.803922%,5.490196%);fill-opacity:1;stroke:none;"/>
<path style="fill-rule:nonzero;fill:rgb(0%,0%,0%);fill-opacity:1;stroke-width:1;stroke-linecap:butt;stroke-linejoin:miter;stroke:rgb(0%,0%,0%);stroke-opacity:1;stroke-miterlimit:4;" d="M -36 36 L 36 -36 M -24 48 L 48 -24 M -12 60 L 60 -12 M 0 72 L 72 0 M 12 84 L 84 12 M 24 96 L 96 24 M 36 108 L 108 36 " transform="matrix(1.25,0,0,1.25,0,0)"/>
</g>
<pattern id="pattern4" patternUnits="userSpaceOnUse" width="90" height="90">
<use xlink:href="#surface17"/>
</pattern>
<clipPath id="clip19">
  <path d="M 215 182 L 226 182 L 226 182.25 L 215 182.25 Z M 215 182 "/>
</clipPath>
<clipPath id="clip20">
  <rect x="0" y="0" width="90" height="90"/>
</clipPath>
<g id="surface20" clip-path="url(#clip20)">
<rect x="0" y="0" width="90" height="90" style="fill:rgb(100%,49.803922%,5.490196%);fill-opacity:1;stroke:none;"/>
<path style="fill-rule:nonzero;fill:rgb(0%,0%,0%);fill-opacity:1;stroke-width:1;stroke-linecap:butt;stroke-linejoin:miter;stroke:rgb(0%,0%,0%);stroke-opacity:1;stroke-miterlimit:4;" d="M -36 36 L 36 -36 M -24 48 L 48 -24 M -12 60 L 60 -12 M 0 72 L 72 0 M 12 84 L 84 12 M 24 96 L 96 24 M 36 108 L 108 36 " transform="matrix(1.25,0,0,1.25,0,0)"/>
</g>
<pattern id="pattern5" patternUnits="userSpaceOnUse" width="90" height="90">
<use xlink:href="#surface20"/>
</pattern>
<clipPath id="clip21">
  <path d="M 238 182 L 248 182 L 248 182.25 L 238 182.25 Z M 238 182 "/>
</clipPath>
<clipPath id="clip22">
  <rect x="0" y="0" width="90" height="90"/>
</clipPath>
<g id="surface23" clip-path="url(#clip22)">
<rect x="0" y="0" width="90" height="90" style="fill:rgb(100%,49.803922%,5.490196%);fill-opacity:1;stroke:none;"/>
<path style="fill-rule:nonzero;fill:rgb(0%,0%,0%);fill-opacity:1;stroke-width:1;stroke-linecap:butt;stroke-linejoin:miter;stroke:rgb(0%,0%,0%);stroke-opacity:1;stroke-miterlimit:4;" d="M -36 36 L 36 -36 M -24 48 L 48 -24 M -12 60 L 60 -12 M 0 72 L 72 0 M 12 84 L 84 12 M 24 96 L 96 24 M 36 108 L 108 36 " transform="matrix(1.25,0,0,1.25,0,0)"/>
</g>
<pattern id="pattern6" patternUnits="userSpaceOnUse" width="90" height="90">
<use xlink:href="#surface23"/>
</pattern>
<clipPath id="clip23">
  <path d="M 261 182 L 271 182 L 271 182.25 L 261 182.25 Z M 261 182 "/>
</clipPath>
<clipPath id="clip24">
  <rect x="0" y="0" width="90" height="90"/>
</clipPath>
<g id="surface26" clip-path="url(#clip24)">
<rect x="0" y="0" width="90" height="90" style="fill:rgb(100%,49.803922%,5.490196%);fill-opacity:1;stroke:none;"/>
<path style="fill-rule:nonzero;fill:rgb(0%,0%,0%);fill-opacity:1;stroke-width:1;stroke-linecap:butt;stroke-linejoin:miter;stroke:rgb(0%,0%,0%);stroke-opacity:1;stroke-miterlimit:4;" d="M -36 36 L 36 -36 M -24 48 L 48 -24 M -12 60 L 60 -12 M 0 72 L 72 0 M 12 84 L 84 12 M 24 96 L 96 24 M 36 108 L 108 36 " transform="matrix(1.25,0,0,1.25,0,0)"/>
</g>
<pattern id="pattern7" patternUnits="userSpaceOnUse" width="90" height="90">
<use xlink:href="#surface26"/>
</pattern>
<clipPath id="clip25">
  <path d="M 283 182 L 293 182 L 293 182.25 L 283 182.25 Z M 283 182 "/>
</clipPath>
<clipPath id="clip26">
  <rect x="0" y="0" width="90" height="90"/>
</clipPath>
<g id="surface29" clip-path="url(#clip26)">
<rect x="0" y="0" width="90" height="90" style="fill:rgb(100%,49.803922%,5.490196%);fill-opacity:1;stroke:none;"/>
<path style="fill-rule:nonzero;fill:rgb(0%,0%,0%);fill-opacity:1;stroke-width:1;stroke-linecap:butt;stroke-linejoin:miter;stroke:rgb(0%,0%,0%);stroke-opacity:1;stroke-miterlimit:4;" d="M -36 36 L 36 -36 M -24 48 L 48 -24 M -12 60 L 60 -12 M 0 72 L 72 0 M 12 84 L 84 12 M 24 96 L 96 24 M 36 108 L 108 36 " transform="matrix(1.25,0,0,1.25,0,0)"/>
</g>
<pattern id="pattern8" patternUnits="userSpaceOnUse" width="90" height="90">
<use xlink:href="#surface29"/>
</pattern>
<clipPath id="clip27">
  <path d="M 306 182 L 316 182 L 316 182.25 L 306 182.25 Z M 306 182 "/>
</clipPath>
<clipPath id="clip28">
  <rect x="0" y="0" width="90" height="90"/>
</clipPath>
<g id="surface32" clip-path="url(#clip28)">
<rect x="0" y="0" width="90" height="90" style="fill:rgb(100%,49.803922%,5.490196%);fill-opacity:1;stroke:none;"/>
<path style="fill-rule:nonzero;fill:rgb(0%,0%,0%);fill-opacity:1;stroke-width:1;stroke-linecap:butt;stroke-linejoin:miter;stroke:rgb(0%,0%,0%);stroke-opacity:1;stroke-miterlimit:4;" d="M -36 36 L 36 -36 M -24 48 L 48 -24 M -12 60 L 60 -12 M 0 72 L 72 0 M 12 84 L 84 12 M 24 96 L 96 24 M 36 108 L 108 36 " transform="matrix(1.25,0,0,1.25,0,0)"/>
</g>
<pattern id="pattern9" patternUnits="userSpaceOnUse" width="90" height="90">
<use xlink:href="#surface32"/>
</pattern>
<filter id="alpha" filterUnits="objectBoundingBox" x="0%" y="0%" width="100%" height="100%">
  <feColorMatrix type="matrix" in="SourceGraphic" values="0 0 0 0 1 0 0 0 0 1 0 0 0 0 1 0 0 0 1 0"/>
</filter>
<mask id="mask0">
  <g filter="url(#alpha)">
<rect x="0" y="0" width="343" height="229" style="fill:rgb(0%,0%,0%);fill-opacity:0.8;stroke:none;"/>
  </g>
</mask>
<clipPath id="clip29">
  <rect x="0" y="0" width="343" height="229"/>
</clipPath>
<g id="surface35" clip-path="url(#clip29)">
<path style="fill-rule:nonzero;fill:rgb(100%,100%,100%);fill-opacity:1;stroke-width:1;stroke-linecap:butt;stroke-linejoin:miter;stroke:rgb(80%,80%,80%);stroke-opacity:1;stroke-miterlimit:4;" d="M 189.15 44.55625 L 254.353125 44.55625 C 255.6875 44.55625 256.353125 43.890625 256.353125 42.55625 L 256.353125 14.2 C 256.353125 12.865625 255.6875 12.2 254.353125 12.2 L 189.15 12.2 C 187.815625 12.2 187.15 12.865625 187.15 14.2 L 187.15 42.55625 C 187.15 43.890625 187.815625 44.55625 189.15 44.55625 Z M 189.15 44.55625 " transform="matrix(1.25,0,0,1.25,0,0)"/>
</g>
<clipPath id="clip30">
  <rect x="0" y="0" width="90" height="90"/>
</clipPath>
<g id="surface38" clip-path="url(#clip30)">
<rect x="0" y="0" width="90" height="90" style="fill:rgb(100%,49.803922%,5.490196%);fill-opacity:1;stroke:none;"/>
<path style="fill-rule:nonzero;fill:rgb(0%,0%,0%);fill-opacity:1;stroke-width:1;stroke-linecap:butt;stroke-linejoin:miter;stroke:rgb(0%,0%,0%);stroke-opacity:1;stroke-miterlimit:4;" d="M -36 36 L 36 -36 M -24 48 L 48 -24 M -12 60 L 60 -12 M 0 72 L 72 0 M 12 84 L 84 12 M 24 96 L 96 24 M 36 108 L 108 36 " transform="matrix(1.25,0,0,1.25,0,0)"/>
</g>
<pattern id="pattern10" patternUnits="userSpaceOnUse" width="90" height="90">
<use xlink:href="#surface38"/>
</pattern>
</defs>
<g id="surface1">
<path style=" stroke:none;fill-rule:nonzero;fill:rgb(100%,100%,100%);fill-opacity:1;" d="M 0 229.195312 L 342.902344 229.195312 L 342.902344 0 L 0 0 Z M 0 229.195312 "/>
<path style=" stroke:none;fill-rule:nonzero;fill:rgb(100%,100%,100%);fill-opacity:1;" d="M 82.566406 182.25 L 326.691406 182.25 L 326.691406 9 L 82.566406 9 Z M 82.566406 182.25 "/>
<g clip-path="url(#clip1)" clip-rule="nonzero">
<path style=" stroke:none;fill-rule:nonzero;fill:rgb(12.156863%,46.666667%,70.588235%);fill-opacity:1;" d="M 93.664062 182.25 L 102.722656 182.25 L 102.722656 17.25 L 93.664062 17.25 Z M 93.664062 182.25 "/>
</g>
<g clip-path="url(#clip2)" clip-rule="nonzero">
<path style=" stroke:none;fill-rule:nonzero;fill:rgb(12.156863%,46.666667%,70.588235%);fill-opacity:1;" d="M 116.308594 182.25 L 125.367188 182.25 L 125.367188 87.929688 L 116.308594 87.929688 Z M 116.308594 182.25 "/>
</g>
<g clip-path="url(#clip3)" clip-rule="nonzero">
<path style=" stroke:none;fill-rule:nonzero;fill:rgb(12.156863%,46.666667%,70.588235%);fill-opacity:1;" d="M 138.957031 182.25 L 148.011719 182.25 L 148.011719 176.464844 L 138.957031 176.464844 Z M 138.957031 182.25 "/>
</g>
<g clip-path="url(#clip4)" clip-rule="nonzero">
<path style=" stroke:none;fill-rule:nonzero;fill:rgb(12.156863%,46.666667%,70.588235%);fill-opacity:1;" d="M 161.601562 182.25 L 170.660156 182.25 L 170.660156 181.679688 L 161.601562 181.679688 Z M 161.601562 182.25 "/>
</g>
<g clip-path="url(#clip5)" clip-rule="nonzero">
<path style=" stroke:none;fill-rule:nonzero;fill:rgb(12.156863%,46.666667%,70.588235%);fill-opacity:1;" d="M 184.246094 182.25 L 193.304688 182.25 L 193.304688 182.179688 L 184.246094 182.179688 Z M 184.246094 182.25 "/>
</g>
<g clip-path="url(#clip6)" clip-rule="nonzero">
<path style=" stroke:none;fill-rule:nonzero;fill:rgb(12.156863%,46.666667%,70.588235%);fill-opacity:1;" d="M 206.894531 182.25 L 215.953125 182.25 L 215.953125 182.230469 L 206.894531 182.230469 Z M 206.894531 182.25 "/>
</g>
<g clip-path="url(#clip7)" clip-rule="nonzero">
<path style=" stroke:none;fill-rule:nonzero;fill:rgb(12.156863%,46.666667%,70.588235%);fill-opacity:1;" d="M 229.539062 182.25 L 238.597656 182.25 L 238.597656 182.242188 L 229.539062 182.242188 Z M 229.539062 182.25 "/>
</g>
<g clip-path="url(#clip8)" clip-rule="nonzero">
<path style=" stroke:none;fill-rule:nonzero;fill:rgb(12.156863%,46.666667%,70.588235%);fill-opacity:1;" d="M 274.832031 182.25 L 283.890625 182.25 L 283.890625 182.246094 L 274.832031 182.246094 Z M 274.832031 182.25 "/>
</g>
<g clip-path="url(#clip9)" clip-rule="nonzero">
<path style=" stroke:none;fill-rule:nonzero;fill:url(#pattern0);" d="M 102.722656 182.25 L 111.78125 182.25 L 111.78125 33.472656 L 102.722656 33.472656 Z M 102.722656 182.25 "/>
</g>
<g clip-path="url(#clip11)" clip-rule="nonzero">
<path style=" stroke:none;fill-rule:nonzero;fill:url(#pattern1);" d="M 125.367188 182.25 L 134.425781 182.25 L 134.425781 75.613281 L 125.367188 75.613281 Z M 125.367188 182.25 "/>
</g>
<g clip-path="url(#clip13)" clip-rule="nonzero">
<path style=" stroke:none;fill-rule:nonzero;fill:url(#pattern2);" d="M 148.011719 182.25 L 157.070312 182.25 L 157.070312 173.253906 L 148.011719 173.253906 Z M 148.011719 182.25 "/>
</g>
<g clip-path="url(#clip15)" clip-rule="nonzero">
<path style=" stroke:none;fill-rule:nonzero;fill:url(#pattern3);" d="M 170.660156 182.25 L 179.71875 182.25 L 179.71875 181.074219 L 170.660156 181.074219 Z M 170.660156 182.25 "/>
</g>
<g clip-path="url(#clip17)" clip-rule="nonzero">
<path style=" stroke:none;fill-rule:nonzero;fill:url(#pattern4);" d="M 193.304688 182.25 L 202.363281 182.25 L 202.363281 182.113281 L 193.304688 182.113281 Z M 193.304688 182.25 "/>
</g>
<g clip-path="url(#clip19)" clip-rule="nonzero">
<path style=" stroke:none;fill-rule:nonzero;fill:url(#pattern5);" d="M 215.953125 182.25 L 225.011719 182.25 L 225.011719 182.199219 L 215.953125 182.199219 Z M 215.953125 182.25 "/>
</g>
<g clip-path="url(#clip21)" clip-rule="nonzero">
<path style=" stroke:none;fill-rule:nonzero;fill:url(#pattern6);" d="M 238.597656 182.25 L 247.65625 182.25 L 247.65625 182.246094 L 238.597656 182.246094 Z M 238.597656 182.25 "/>
</g>
<g clip-path="url(#clip23)" clip-rule="nonzero">
<path style=" stroke:none;fill-rule:nonzero;fill:url(#pattern7);" d="M 261.246094 182.25 L 270.300781 182.25 L 270.300781 182.246094 L 261.246094 182.246094 Z M 261.246094 182.25 "/>
</g>
<g clip-path="url(#clip25)" clip-rule="nonzero">
<path style=" stroke:none;fill-rule:nonzero;fill:url(#pattern8);" d="M 283.890625 182.25 L 292.949219 182.25 L 292.949219 182.246094 L 283.890625 182.246094 Z M 283.890625 182.25 "/>
</g>
<g clip-path="url(#clip27)" clip-rule="nonzero">
<path style=" stroke:none;fill-rule:nonzero;fill:url(#pattern9);" d="M 306.535156 182.25 L 315.59375 182.25 L 315.59375 182.246094 L 306.535156 182.246094 Z M 306.535156 182.25 "/>
</g>
<path style="fill:none;stroke-width:0.8;stroke-linecap:butt;stroke-linejoin:round;stroke:rgb(0%,0%,0%);stroke-opacity:1;stroke-miterlimit:4;" d="M -0.001519 0 L -0.001519 3.5 " transform="matrix(1.25,0,0,1.25,83.310492,182.25)"/>
<path style=" stroke:none;fill-rule:nonzero;fill:rgb(0%,0%,0%);fill-opacity:1;" d="M 83.304688 192.199219 C 82.671875 192.199219 82.195312 192.511719 81.875 193.136719 C 81.554688 193.757812 81.394531 194.699219 81.394531 195.953125 C 81.394531 197.199219 81.554688 198.136719 81.875 198.761719 C 82.195312 199.386719 82.671875 199.699219 83.304688 199.699219 C 83.945312 199.699219 84.425781 199.386719 84.742188 198.761719 C 85.0625 198.136719 85.222656 197.199219 85.222656 195.953125 C 85.222656 194.699219 85.0625 193.757812 84.742188 193.136719 C 84.425781 192.511719 83.945312 192.199219 83.304688 192.199219 Z M 83.304688 191.222656 C 84.328125 191.222656 85.109375 191.625 85.648438 192.433594 C 86.1875 193.242188 86.457031 194.414062 86.457031 195.953125 C 86.457031 197.484375 86.1875 198.65625 85.648438 199.464844 C 85.109375 200.273438 84.328125 200.675781 83.304688 200.675781 C 82.285156 200.675781 81.503906 200.273438 80.964844 199.464844 C 80.425781 198.65625 80.15625 197.484375 80.15625 195.953125 C 80.15625 194.414062 80.425781 193.242188 80.964844 192.433594 C 81.503906 191.625 82.285156 191.222656 83.304688 191.222656 Z M 83.304688 191.222656 "/>
<path style="fill:none;stroke-width:0.8;stroke-linecap:butt;stroke-linejoin:round;stroke:rgb(0%,0%,0%);stroke-opacity:1;stroke-miterlimit:4;" d="M -0.001548 0 L -0.001548 3.5 " transform="matrix(1.25,0,0,1.25,164.189435,182.25)"/>
<path style=" stroke:none;fill-rule:nonzero;fill:rgb(0%,0%,0%);fill-opacity:1;" d="M 158.632812 199.460938 L 162.9375 199.460938 L 162.9375 200.5 L 157.152344 200.5 L 157.152344 199.460938 C 157.621094 198.976562 158.257812 198.328125 159.0625 197.511719 C 159.871094 196.695312 160.378906 196.167969 160.585938 195.933594 C 160.980469 195.488281 161.257812 195.113281 161.414062 194.808594 C 161.570312 194.5 161.648438 194.199219 161.648438 193.902344 C 161.648438 193.417969 161.480469 193.023438 161.140625 192.71875 C 160.800781 192.410156 160.359375 192.257812 159.8125 192.257812 C 159.425781 192.257812 159.015625 192.324219 158.585938 192.460938 C 158.160156 192.59375 157.699219 192.796875 157.210938 193.070312 L 157.210938 191.824219 C 157.707031 191.625 158.171875 191.476562 158.601562 191.375 C 159.035156 191.273438 159.429688 191.222656 159.789062 191.222656 C 160.734375 191.222656 161.484375 191.457031 162.046875 191.929688 C 162.609375 192.402344 162.886719 193.03125 162.886719 193.820312 C 162.886719 194.195312 162.816406 194.550781 162.675781 194.886719 C 162.539062 195.222656 162.28125 195.617188 161.910156 196.074219 C 161.808594 196.191406 161.488281 196.53125 160.941406 197.097656 C 160.398438 197.660156 159.628906 198.449219 158.632812 199.460938 Z M 158.632812 199.460938 "/>
<path style=" stroke:none;fill-rule:nonzero;fill:rgb(0%,0%,0%);fill-opacity:1;" d="M 168.160156 192.199219 C 167.527344 192.199219 167.050781 192.511719 166.730469 193.136719 C 166.410156 193.757812 166.25 194.699219 166.25 195.953125 C 166.25 197.199219 166.410156 198.136719 166.730469 198.761719 C 167.050781 199.386719 167.527344 199.699219 168.160156 199.699219 C 168.800781 199.699219 169.28125 199.386719 169.597656 198.761719 C 169.917969 198.136719 170.078125 197.199219 170.078125 195.953125 C 170.078125 194.699219 169.917969 193.757812 169.597656 193.136719 C 169.28125 192.511719 168.800781 192.199219 168.160156 192.199219 Z M 168.160156 191.222656 C 169.183594 191.222656 169.964844 191.625 170.503906 192.433594 C 171.042969 193.242188 171.3125 194.414062 171.3125 195.953125 C 171.3125 197.484375 171.042969 198.65625 170.503906 199.464844 C 169.964844 200.273438 169.183594 200.675781 168.160156 200.675781 C 167.140625 200.675781 166.359375 200.273438 165.820312 199.464844 C 165.28125 198.65625 165.011719 197.484375 165.011719 195.953125 C 165.011719 194.414062 165.28125 193.242188 165.820312 192.433594 C 166.359375 191.625 167.140625 191.222656 168.160156 191.222656 Z M 168.160156 191.222656 "/>
<path style="fill:none;stroke-width:0.8;stroke-linecap:butt;stroke-linejoin:round;stroke:rgb(0%,0%,0%);stroke-opacity:1;stroke-miterlimit:4;" d="M 0.001548 0 L 0.001548 3.5 " transform="matrix(1.25,0,0,1.25,245.068377,182.25)"/>
<path style=" stroke:none;fill-rule:nonzero;fill:rgb(0%,0%,0%);fill-opacity:1;" d="M 241.839844 192.460938 L 238.726562 197.324219 L 241.839844 197.324219 Z M 241.515625 191.386719 L 243.066406 191.386719 L 243.066406 197.324219 L 244.367188 197.324219 L 244.367188 198.351562 L 243.066406 198.351562 L 243.066406 200.5 L 241.839844 200.5 L 241.839844 198.351562 L 237.726562 198.351562 L 237.726562 197.160156 Z M 241.515625 191.386719 "/>
<path style=" stroke:none;fill-rule:nonzero;fill:rgb(0%,0%,0%);fill-opacity:1;" d="M 249.039062 192.199219 C 248.40625 192.199219 247.929688 192.511719 247.609375 193.136719 C 247.289062 193.757812 247.128906 194.699219 247.128906 195.953125 C 247.128906 197.199219 247.289062 198.136719 247.609375 198.761719 C 247.929688 199.386719 248.40625 199.699219 249.039062 199.699219 C 249.679688 199.699219 250.160156 199.386719 250.476562 198.761719 C 250.796875 198.136719 250.957031 197.199219 250.957031 195.953125 C 250.957031 194.699219 250.796875 193.757812 250.476562 193.136719 C 250.160156 192.511719 249.679688 192.199219 249.039062 192.199219 Z M 249.039062 191.222656 C 250.0625 191.222656 250.84375 191.625 251.382812 192.433594 C 251.921875 193.242188 252.191406 194.414062 252.191406 195.953125 C 252.191406 197.484375 251.921875 198.65625 251.382812 199.464844 C 250.84375 200.273438 250.0625 200.675781 249.039062 200.675781 C 248.019531 200.675781 247.238281 200.273438 246.699219 199.464844 C 246.160156 198.65625 245.890625 197.484375 245.890625 195.953125 C 245.890625 194.414062 246.160156 193.242188 246.699219 192.433594 C 247.238281 191.625 248.019531 191.222656 249.039062 191.222656 Z M 249.039062 191.222656 "/>
<path style="fill:none;stroke-width:0.8;stroke-linecap:butt;stroke-linejoin:round;stroke:rgb(0%,0%,0%);stroke-opacity:1;stroke-miterlimit:4;" d="M 0.001519 0 L 0.001519 3.5 " transform="matrix(1.25,0,0,1.25,325.94732,182.25)"/>
<path style=" stroke:none;fill-rule:nonzero;fill:rgb(0%,0%,0%);fill-opacity:1;" d="M 322.121094 195.453125 C 321.566406 195.453125 321.128906 195.640625 320.804688 196.019531 C 320.480469 196.398438 320.320312 196.914062 320.320312 197.574219 C 320.320312 198.230469 320.480469 198.746094 320.804688 199.128906 C 321.128906 199.507812 321.566406 199.699219 322.121094 199.699219 C 322.675781 199.699219 323.113281 199.507812 323.4375 199.128906 C 323.757812 198.746094 323.921875 198.230469 323.921875 197.574219 C 323.921875 196.914062 323.757812 196.398438 323.4375 196.019531 C 323.113281 195.640625 322.675781 195.453125 322.121094 195.453125 Z M 324.570312 191.585938 L 324.570312 192.710938 C 324.257812 192.5625 323.945312 192.453125 323.632812 192.375 C 323.316406 192.296875 323.003906 192.257812 322.695312 192.257812 C 321.878906 192.257812 321.257812 192.53125 320.828125 193.082031 C 320.398438 193.632812 320.15625 194.460938 320.09375 195.574219 C 320.332031 195.21875 320.632812 194.945312 320.996094 194.757812 C 321.359375 194.570312 321.757812 194.476562 322.195312 194.476562 C 323.109375 194.476562 323.832031 194.753906 324.363281 195.308594 C 324.894531 195.863281 325.160156 196.617188 325.160156 197.574219 C 325.160156 198.511719 324.882812 199.261719 324.332031 199.828125 C 323.777344 200.394531 323.039062 200.675781 322.121094 200.675781 C 321.066406 200.675781 320.261719 200.273438 319.703125 199.464844 C 319.144531 198.65625 318.867188 197.484375 318.867188 195.953125 C 318.867188 194.511719 319.210938 193.363281 319.894531 192.507812 C 320.578125 191.648438 321.492188 191.222656 322.644531 191.222656 C 322.953125 191.222656 323.265625 191.25 323.582031 191.3125 C 323.898438 191.375 324.226562 191.464844 324.570312 191.585938 Z M 324.570312 191.585938 "/>
<path style=" stroke:none;fill-rule:nonzero;fill:rgb(0%,0%,0%);fill-opacity:1;" d="M 329.917969 192.199219 C 329.285156 192.199219 328.808594 192.511719 328.488281 193.136719 C 328.167969 193.757812 328.007812 194.699219 328.007812 195.953125 C 328.007812 197.199219 328.167969 198.136719 328.488281 198.761719 C 328.808594 199.386719 329.285156 199.699219 329.917969 199.699219 C 330.558594 199.699219 331.039062 199.386719 331.355469 198.761719 C 331.675781 198.136719 331.835938 197.199219 331.835938 195.953125 C 331.835938 194.699219 331.675781 193.757812 331.355469 193.136719 C 331.039062 192.511719 330.558594 192.199219 329.917969 192.199219 Z M 329.917969 191.222656 C 330.941406 191.222656 331.722656 191.625 332.261719 192.433594 C 332.800781 193.242188 333.070312 194.414062 333.070312 195.953125 C 333.070312 197.484375 332.800781 198.65625 332.261719 199.464844 C 331.722656 200.273438 330.941406 200.675781 329.917969 200.675781 C 328.898438 200.675781 328.117188 200.273438 327.578125 199.464844 C 327.039062 198.65625 326.769531 197.484375 326.769531 195.953125 C 326.769531 194.414062 327.039062 193.242188 327.578125 192.433594 C 328.117188 191.625 328.898438 191.222656 329.917969 191.222656 Z M 329.917969 191.222656 "/>
<path style=" stroke:none;fill-rule:nonzero;fill:rgb(0%,0%,0%);fill-opacity:1;" d="M 138.589844 212.097656 L 136.816406 212.097656 L 136.300781 214.136719 L 138.089844 214.136719 Z M 137.675781 208.625 L 137.039062 211.15625 L 138.824219 211.15625 L 139.464844 208.625 L 140.441406 208.625 L 139.8125 211.15625 L 141.714844 211.15625 L 141.714844 212.097656 L 139.574219 212.097656 L 139.074219 214.136719 L 141.015625 214.136719 L 141.015625 215.070312 L 138.835938 215.070312 L 138.199219 217.597656 L 137.222656 217.597656 L 137.851562 215.070312 L 136.0625 215.070312 L 135.433594 217.597656 L 134.453125 217.597656 L 135.085938 215.070312 L 133.164062 215.070312 L 133.164062 214.136719 L 135.3125 214.136719 L 135.824219 212.097656 L 133.859375 212.097656 L 133.859375 211.15625 L 136.0625 211.15625 L 136.6875 208.625 Z M 137.675781 208.625 "/>
<path style=" stroke:none;fill-rule:nonzero;fill:rgb(0%,0%,0%);fill-opacity:1;" d="M 148.9375 208.820312 L 148.9375 210.761719 L 151.25 210.761719 L 151.25 211.632812 L 148.9375 211.632812 L 148.9375 215.34375 C 148.9375 215.902344 149.011719 216.257812 149.164062 216.417969 C 149.316406 216.578125 149.628906 216.65625 150.097656 216.65625 L 151.25 216.65625 L 151.25 217.597656 L 150.097656 217.597656 C 149.230469 217.597656 148.632812 217.433594 148.300781 217.113281 C 147.972656 216.789062 147.808594 216.199219 147.808594 215.34375 L 147.808594 211.632812 L 146.984375 211.632812 L 146.984375 210.761719 L 147.808594 210.761719 L 147.808594 208.820312 Z M 148.9375 208.820312 "/>
<path style=" stroke:none;fill-rule:nonzero;fill:rgb(0%,0%,0%);fill-opacity:1;" d="M 155.375 211.546875 C 154.773438 211.546875 154.296875 211.78125 153.949219 212.253906 C 153.597656 212.722656 153.421875 213.367188 153.421875 214.183594 C 153.421875 215 153.597656 215.644531 153.945312 216.117188 C 154.292969 216.585938 154.769531 216.820312 155.375 216.820312 C 155.972656 216.820312 156.449219 216.585938 156.796875 216.113281 C 157.148438 215.640625 157.324219 214.996094 157.324219 214.183594 C 157.324219 213.375 157.148438 212.730469 156.796875 212.257812 C 156.449219 211.785156 155.972656 211.546875 155.375 211.546875 Z M 155.375 210.597656 C 156.351562 210.597656 157.117188 210.914062 157.675781 211.550781 C 158.234375 212.183594 158.515625 213.0625 158.515625 214.183594 C 158.515625 215.300781 158.234375 216.179688 157.675781 216.820312 C 157.117188 217.457031 156.351562 217.773438 155.375 217.773438 C 154.394531 217.773438 153.625 217.457031 153.070312 216.820312 C 152.515625 216.179688 152.238281 215.300781 152.238281 214.183594 C 152.238281 213.0625 152.515625 212.183594 153.070312 211.550781 C 153.625 210.914062 154.394531 210.597656 155.375 210.597656 Z M 155.375 210.597656 "/>
<path style=" stroke:none;fill-rule:nonzero;fill:rgb(0%,0%,0%);fill-opacity:1;" d="M 160.332031 208.097656 L 161.460938 208.097656 L 161.460938 213.707031 L 164.8125 210.761719 L 166.246094 210.761719 L 162.621094 213.957031 L 166.398438 217.597656 L 164.933594 217.597656 L 161.460938 214.257812 L 161.460938 217.597656 L 160.332031 217.597656 Z M 160.332031 208.097656 "/>
<path style=" stroke:none;fill-rule:nonzero;fill:rgb(0%,0%,0%);fill-opacity:1;" d="M 173.007812 213.898438 L 173.007812 214.445312 L 167.84375 214.445312 C 167.894531 215.21875 168.125 215.808594 168.542969 216.214844 C 168.960938 216.617188 169.539062 216.820312 170.285156 216.820312 C 170.714844 216.820312 171.132812 216.769531 171.539062 216.664062 C 171.945312 216.558594 172.347656 216.398438 172.746094 216.1875 L 172.746094 217.25 C 172.34375 217.417969 171.929688 217.550781 171.507812 217.640625 C 171.082031 217.730469 170.652344 217.773438 170.21875 217.773438 C 169.128906 217.773438 168.265625 217.457031 167.628906 216.824219 C 166.992188 216.1875 166.671875 215.328125 166.671875 214.246094 C 166.671875 213.125 166.972656 212.238281 167.578125 211.582031 C 168.183594 210.925781 168.996094 210.597656 170.023438 210.597656 C 170.941406 210.597656 171.671875 210.890625 172.207031 211.484375 C 172.742188 212.074219 173.007812 212.878906 173.007812 213.898438 Z M 171.886719 213.566406 C 171.878906 212.953125 171.707031 212.464844 171.371094 212.097656 C 171.035156 211.730469 170.589844 211.546875 170.035156 211.546875 C 169.410156 211.546875 168.90625 211.722656 168.53125 212.078125 C 168.15625 212.433594 167.9375 212.929688 167.882812 213.574219 Z M 171.886719 213.566406 "/>
<path style=" stroke:none;fill-rule:nonzero;fill:rgb(0%,0%,0%);fill-opacity:1;" d="M 180.535156 213.46875 L 180.535156 217.597656 L 179.410156 217.597656 L 179.410156 213.507812 C 179.410156 212.859375 179.285156 212.375 179.03125 212.054688 C 178.78125 211.734375 178.402344 211.574219 177.898438 211.574219 C 177.289062 211.574219 176.8125 211.765625 176.460938 212.152344 C 176.113281 212.539062 175.9375 213.066406 175.9375 213.734375 L 175.9375 217.597656 L 174.808594 217.597656 L 174.808594 210.761719 L 175.9375 210.761719 L 175.9375 211.824219 C 176.207031 211.410156 176.523438 211.105469 176.886719 210.902344 C 177.25 210.699219 177.671875 210.597656 178.148438 210.597656 C 178.933594 210.597656 179.527344 210.839844 179.929688 211.324219 C 180.332031 211.808594 180.535156 212.523438 180.535156 213.46875 Z M 180.535156 213.46875 "/>
<path style=" stroke:none;fill-rule:nonzero;fill:rgb(0%,0%,0%);fill-opacity:1;" d="M 187.128906 210.960938 L 187.128906 212.023438 C 186.8125 211.859375 186.484375 211.738281 186.140625 211.660156 C 185.800781 211.578125 185.445312 211.535156 185.078125 211.535156 C 184.523438 211.535156 184.105469 211.621094 183.824219 211.792969 C 183.546875 211.960938 183.40625 212.21875 183.40625 212.5625 C 183.40625 212.820312 183.507812 213.027344 183.707031 213.175781 C 183.90625 213.324219 184.308594 213.464844 184.910156 213.597656 L 185.292969 213.683594 C 186.089844 213.855469 186.65625 214.09375 186.992188 214.40625 C 187.328125 214.71875 187.496094 215.152344 187.496094 215.710938 C 187.496094 216.34375 187.246094 216.847656 186.742188 217.21875 C 186.242188 217.589844 185.550781 217.773438 184.671875 217.773438 C 184.304688 217.773438 183.925781 217.738281 183.527344 217.667969 C 183.128906 217.59375 182.710938 217.488281 182.273438 217.347656 L 182.273438 216.1875 C 182.6875 216.402344 183.097656 216.5625 183.5 216.671875 C 183.902344 216.777344 184.300781 216.832031 184.695312 216.832031 C 185.226562 216.832031 185.632812 216.742188 185.914062 216.5625 C 186.199219 216.378906 186.34375 216.125 186.34375 215.796875 C 186.34375 215.492188 186.242188 215.257812 186.035156 215.09375 C 185.832031 214.929688 185.378906 214.773438 184.683594 214.625 L 184.292969 214.53125 C 183.597656 214.386719 183.09375 214.160156 182.785156 213.859375 C 182.476562 213.554688 182.320312 213.136719 182.320312 212.609375 C 182.320312 211.964844 182.550781 211.46875 183.003906 211.121094 C 183.460938 210.769531 184.109375 210.597656 184.945312 210.597656 C 185.359375 210.597656 185.75 210.625 186.117188 210.6875 C 186.484375 210.746094 186.820312 210.839844 187.128906 210.960938 Z M 187.128906 210.960938 "/>
<path style=" stroke:none;fill-rule:nonzero;fill:rgb(0%,0%,0%);fill-opacity:1;" d="M 194.34375 216.570312 L 194.34375 220.195312 L 193.214844 220.195312 L 193.214844 210.761719 L 194.34375 210.761719 L 194.34375 211.796875 C 194.582031 211.390625 194.878906 211.089844 195.238281 210.894531 C 195.601562 210.695312 196.03125 210.597656 196.53125 210.597656 C 197.359375 210.597656 198.035156 210.925781 198.554688 211.585938 C 199.074219 212.242188 199.332031 213.109375 199.332031 214.183594 C 199.332031 215.257812 199.074219 216.125 198.554688 216.785156 C 198.035156 217.445312 197.359375 217.773438 196.53125 217.773438 C 196.03125 217.773438 195.601562 217.675781 195.238281 217.476562 C 194.878906 217.277344 194.582031 216.976562 194.34375 216.570312 Z M 198.167969 214.183594 C 198.167969 213.359375 197.996094 212.710938 197.65625 212.242188 C 197.316406 211.769531 196.851562 211.535156 196.257812 211.535156 C 195.660156 211.535156 195.195312 211.769531 194.855469 212.242188 C 194.515625 212.710938 194.34375 213.359375 194.34375 214.183594 C 194.34375 215.007812 194.515625 215.65625 194.855469 216.128906 C 195.195312 216.597656 195.660156 216.832031 196.257812 216.832031 C 196.851562 216.832031 197.316406 216.597656 197.65625 216.128906 C 197.996094 215.65625 198.167969 215.007812 198.167969 214.183594 Z M 198.167969 214.183594 "/>
<path style=" stroke:none;fill-rule:nonzero;fill:rgb(0%,0%,0%);fill-opacity:1;" d="M 207.042969 213.898438 L 207.042969 214.445312 L 201.878906 214.445312 C 201.925781 215.21875 202.160156 215.808594 202.578125 216.214844 C 202.992188 216.617188 203.574219 216.820312 204.320312 216.820312 C 204.75 216.820312 205.167969 216.769531 205.574219 216.664062 C 205.976562 216.558594 206.378906 216.398438 206.78125 216.1875 L 206.78125 217.25 C 206.375 217.417969 205.960938 217.550781 205.539062 217.640625 C 205.117188 217.730469 204.6875 217.773438 204.253906 217.773438 C 203.160156 217.773438 202.296875 217.457031 201.660156 216.824219 C 201.023438 216.1875 200.707031 215.328125 200.707031 214.246094 C 200.707031 213.125 201.007812 212.238281 201.613281 211.582031 C 202.214844 210.925781 203.03125 210.597656 204.058594 210.597656 C 204.976562 210.597656 205.703125 210.890625 206.238281 211.484375 C 206.773438 212.074219 207.042969 212.878906 207.042969 213.898438 Z M 205.917969 213.566406 C 205.910156 212.953125 205.738281 212.464844 205.402344 212.097656 C 205.066406 211.730469 204.621094 211.546875 204.070312 211.546875 C 203.441406 211.546875 202.941406 211.722656 202.566406 212.078125 C 202.1875 212.433594 201.972656 212.929688 201.914062 213.574219 Z M 205.917969 213.566406 "/>
<path style=" stroke:none;fill-rule:nonzero;fill:rgb(0%,0%,0%);fill-opacity:1;" d="M 212.84375 211.808594 C 212.71875 211.734375 212.582031 211.683594 212.433594 211.648438 C 212.285156 211.613281 212.121094 211.597656 211.941406 211.597656 C 211.308594 211.597656 210.820312 211.800781 210.480469 212.214844 C 210.140625 212.628906 209.96875 213.222656 209.96875 213.996094 L 209.96875 217.597656 L 208.839844 217.597656 L 208.839844 210.761719 L 209.96875 210.761719 L 209.96875 211.824219 C 210.207031 211.40625 210.515625 211.097656 210.890625 210.898438 C 211.269531 210.695312 211.730469 210.597656 212.273438 210.597656 C 212.347656 210.597656 212.433594 210.601562 212.527344 210.613281 C 212.621094 210.621094 212.726562 210.636719 212.839844 210.65625 Z M 212.84375 211.808594 "/>
<path style=" stroke:none;fill-rule:nonzero;fill:rgb(0%,0%,0%);fill-opacity:1;" d="M 222.355469 210.960938 L 222.355469 212.023438 C 222.039062 211.859375 221.707031 211.738281 221.367188 211.660156 C 221.023438 211.578125 220.671875 211.535156 220.304688 211.535156 C 219.746094 211.535156 219.328125 211.621094 219.050781 211.792969 C 218.769531 211.960938 218.632812 212.21875 218.632812 212.5625 C 218.632812 212.820312 218.730469 213.027344 218.929688 213.175781 C 219.128906 213.324219 219.53125 213.464844 220.132812 213.597656 L 220.519531 213.683594 C 221.316406 213.855469 221.882812 214.09375 222.21875 214.40625 C 222.554688 214.71875 222.722656 215.152344 222.722656 215.710938 C 222.722656 216.34375 222.46875 216.847656 221.96875 217.21875 C 221.464844 217.589844 220.773438 217.773438 219.894531 217.773438 C 219.527344 217.773438 219.148438 217.738281 218.75 217.667969 C 218.351562 217.59375 217.933594 217.488281 217.496094 217.347656 L 217.496094 216.1875 C 217.910156 216.402344 218.320312 216.5625 218.722656 216.671875 C 219.125 216.777344 219.523438 216.832031 219.921875 216.832031 C 220.449219 216.832031 220.855469 216.742188 221.140625 216.5625 C 221.425781 216.378906 221.566406 216.125 221.566406 215.796875 C 221.566406 215.492188 221.464844 215.257812 221.257812 215.09375 C 221.054688 214.929688 220.601562 214.773438 219.90625 214.625 L 219.515625 214.53125 C 218.820312 214.386719 218.316406 214.160156 218.007812 213.859375 C 217.699219 213.554688 217.546875 213.136719 217.546875 212.609375 C 217.546875 211.964844 217.773438 211.46875 218.230469 211.121094 C 218.683594 210.769531 219.332031 210.597656 220.171875 210.597656 C 220.585938 210.597656 220.972656 210.625 221.339844 210.6875 C 221.707031 210.746094 222.046875 210.839844 222.355469 210.960938 Z M 222.355469 210.960938 "/>
<path style=" stroke:none;fill-rule:nonzero;fill:rgb(0%,0%,0%);fill-opacity:1;" d="M 230.355469 213.898438 L 230.355469 214.445312 L 225.191406 214.445312 C 225.242188 215.21875 225.476562 215.808594 225.890625 216.214844 C 226.308594 216.617188 226.890625 216.820312 227.632812 216.820312 C 228.066406 216.820312 228.484375 216.769531 228.886719 216.664062 C 229.292969 216.558594 229.695312 216.398438 230.09375 216.1875 L 230.09375 217.25 C 229.691406 217.417969 229.277344 217.550781 228.855469 217.640625 C 228.429688 217.730469 228.003906 217.773438 227.566406 217.773438 C 226.476562 217.773438 225.613281 217.457031 224.976562 216.824219 C 224.339844 216.1875 224.019531 215.328125 224.019531 214.246094 C 224.019531 213.125 224.324219 212.238281 224.925781 211.582031 C 225.53125 210.925781 226.347656 210.597656 227.371094 210.597656 C 228.292969 210.597656 229.019531 210.890625 229.554688 211.484375 C 230.089844 212.074219 230.355469 212.878906 230.355469 213.898438 Z M 229.234375 213.566406 C 229.226562 212.953125 229.054688 212.464844 228.71875 212.097656 C 228.382812 211.730469 227.9375 211.546875 227.382812 211.546875 C 226.757812 211.546875 226.257812 211.722656 225.878906 212.078125 C 225.503906 212.433594 225.285156 212.929688 225.230469 213.574219 Z M 229.234375 213.566406 "/>
<path style=" stroke:none;fill-rule:nonzero;fill:rgb(0%,0%,0%);fill-opacity:1;" d="M 232.871094 214.183594 C 232.871094 215.007812 233.042969 215.65625 233.382812 216.128906 C 233.722656 216.597656 234.1875 216.832031 234.78125 216.832031 C 235.375 216.832031 235.84375 216.597656 236.183594 216.128906 C 236.527344 215.65625 236.699219 215.007812 236.699219 214.183594 C 236.699219 213.359375 236.527344 212.710938 236.183594 212.242188 C 235.84375 211.769531 235.375 211.535156 234.78125 211.535156 C 234.1875 211.535156 233.722656 211.769531 233.382812 212.242188 C 233.042969 212.710938 232.871094 213.359375 232.871094 214.183594 Z M 236.699219 216.570312 C 236.460938 216.976562 236.164062 217.277344 235.804688 217.476562 C 235.445312 217.675781 235.011719 217.773438 234.507812 217.773438 C 233.679688 217.773438 233.007812 217.445312 232.488281 216.785156 C 231.96875 216.125 231.710938 215.257812 231.710938 214.183594 C 231.710938 213.109375 231.96875 212.242188 232.488281 211.585938 C 233.007812 210.925781 233.679688 210.597656 234.507812 210.597656 C 235.011719 210.597656 235.445312 210.695312 235.804688 210.894531 C 236.164062 211.089844 236.460938 211.390625 236.699219 211.796875 L 236.699219 210.761719 L 237.820312 210.761719 L 237.820312 220.195312 L 236.699219 220.195312 Z M 236.699219 216.570312 "/>
<path style=" stroke:none;fill-rule:nonzero;fill:rgb(0%,0%,0%);fill-opacity:1;" d="M 240.019531 214.898438 L 240.019531 210.761719 L 241.140625 210.761719 L 241.140625 214.855469 C 241.140625 215.503906 241.265625 215.988281 241.519531 216.3125 C 241.769531 216.636719 242.148438 216.796875 242.65625 216.796875 C 243.261719 216.796875 243.738281 216.605469 244.089844 216.21875 C 244.445312 215.832031 244.621094 215.304688 244.621094 214.636719 L 244.621094 210.761719 L 245.742188 210.761719 L 245.742188 217.597656 L 244.621094 217.597656 L 244.621094 216.546875 C 244.347656 216.960938 244.03125 217.269531 243.671875 217.472656 C 243.3125 217.671875 242.894531 217.773438 242.417969 217.773438 C 241.632812 217.773438 241.035156 217.53125 240.628906 217.042969 C 240.222656 216.554688 240.019531 215.839844 240.019531 214.898438 Z M 242.84375 210.597656 Z M 242.84375 210.597656 "/>
<path style=" stroke:none;fill-rule:nonzero;fill:rgb(0%,0%,0%);fill-opacity:1;" d="M 253.902344 213.898438 L 253.902344 214.445312 L 248.738281 214.445312 C 248.789062 215.21875 249.023438 215.808594 249.4375 216.214844 C 249.855469 216.617188 250.4375 216.820312 251.179688 216.820312 C 251.613281 216.820312 252.03125 216.769531 252.433594 216.664062 C 252.839844 216.558594 253.242188 216.398438 253.640625 216.1875 L 253.640625 217.25 C 253.238281 217.417969 252.824219 217.550781 252.402344 217.640625 C 251.980469 217.730469 251.550781 217.773438 251.113281 217.773438 C 250.023438 217.773438 249.160156 217.457031 248.523438 216.824219 C 247.886719 216.1875 247.566406 215.328125 247.566406 214.246094 C 247.566406 213.125 247.871094 212.238281 248.472656 211.582031 C 249.078125 210.925781 249.894531 210.597656 250.917969 210.597656 C 251.839844 210.597656 252.566406 210.890625 253.101562 211.484375 C 253.636719 212.074219 253.902344 212.878906 253.902344 213.898438 Z M 252.78125 213.566406 C 252.773438 212.953125 252.601562 212.464844 252.265625 212.097656 C 251.929688 211.730469 251.484375 211.546875 250.929688 211.546875 C 250.304688 211.546875 249.804688 211.722656 249.425781 212.078125 C 249.050781 212.433594 248.835938 212.929688 248.777344 213.574219 Z M 252.78125 213.566406 "/>
<path style=" stroke:none;fill-rule:nonzero;fill:rgb(0%,0%,0%);fill-opacity:1;" d="M 261.429688 213.46875 L 261.429688 217.597656 L 260.308594 217.597656 L 260.308594 213.507812 C 260.308594 212.859375 260.179688 212.375 259.929688 212.054688 C 259.675781 211.734375 259.296875 211.574219 258.792969 211.574219 C 258.1875 211.574219 257.707031 211.765625 257.359375 212.152344 C 257.007812 212.539062 256.832031 213.066406 256.832031 213.734375 L 256.832031 217.597656 L 255.703125 217.597656 L 255.703125 210.761719 L 256.832031 210.761719 L 256.832031 211.824219 C 257.101562 211.410156 257.417969 211.105469 257.78125 210.902344 C 258.148438 210.699219 258.566406 210.597656 259.042969 210.597656 C 259.828125 210.597656 260.421875 210.839844 260.824219 211.324219 C 261.230469 211.808594 261.429688 212.523438 261.429688 213.46875 Z M 261.429688 213.46875 "/>
<path style=" stroke:none;fill-rule:nonzero;fill:rgb(0%,0%,0%);fill-opacity:1;" d="M 268.589844 211.023438 L 268.589844 212.074219 C 268.269531 211.898438 267.953125 211.765625 267.632812 211.679688 C 267.316406 211.589844 266.992188 211.546875 266.667969 211.546875 C 265.9375 211.546875 265.371094 211.777344 264.96875 212.242188 C 264.566406 212.703125 264.363281 213.347656 264.363281 214.183594 C 264.363281 215.019531 264.566406 215.667969 264.96875 216.128906 C 265.371094 216.589844 265.9375 216.820312 266.667969 216.820312 C 266.992188 216.820312 267.316406 216.777344 267.632812 216.691406 C 267.953125 216.601562 268.269531 216.472656 268.589844 216.296875 L 268.589844 217.335938 C 268.273438 217.480469 267.949219 217.589844 267.613281 217.664062 C 267.28125 217.738281 266.921875 217.773438 266.542969 217.773438 C 265.515625 217.773438 264.695312 217.449219 264.089844 216.804688 C 263.484375 216.15625 263.179688 215.28125 263.179688 214.183594 C 263.179688 213.070312 263.488281 212.191406 264.097656 211.554688 C 264.710938 210.914062 265.550781 210.597656 266.617188 210.597656 C 266.964844 210.597656 267.300781 210.632812 267.628906 210.703125 C 267.960938 210.773438 268.277344 210.878906 268.589844 211.023438 Z M 268.589844 211.023438 "/>
<path style=" stroke:none;fill-rule:nonzero;fill:rgb(0%,0%,0%);fill-opacity:1;" d="M 276.390625 213.898438 L 276.390625 214.445312 L 271.226562 214.445312 C 271.273438 215.21875 271.507812 215.808594 271.925781 216.214844 C 272.339844 216.617188 272.921875 216.820312 273.667969 216.820312 C 274.097656 216.820312 274.515625 216.769531 274.921875 216.664062 C 275.324219 216.558594 275.726562 216.398438 276.128906 216.1875 L 276.128906 217.25 C 275.722656 217.417969 275.3125 217.550781 274.886719 217.640625 C 274.464844 217.730469 274.035156 217.773438 273.601562 217.773438 C 272.507812 217.773438 271.644531 217.457031 271.007812 216.824219 C 270.371094 216.1875 270.054688 215.328125 270.054688 214.246094 C 270.054688 213.125 270.355469 212.238281 270.960938 211.582031 C 271.5625 210.925781 272.378906 210.597656 273.40625 210.597656 C 274.324219 210.597656 275.050781 210.890625 275.585938 211.484375 C 276.121094 212.074219 276.390625 212.878906 276.390625 213.898438 Z M 275.265625 213.566406 C 275.257812 212.953125 275.085938 212.464844 274.75 212.097656 C 274.414062 211.730469 273.96875 211.546875 273.417969 211.546875 C 272.789062 211.546875 272.289062 211.722656 271.914062 212.078125 C 271.535156 212.433594 271.320312 212.929688 271.261719 213.574219 Z M 275.265625 213.566406 "/>
<path style="fill:none;stroke-width:0.8;stroke-linecap:butt;stroke-linejoin:round;stroke:rgb(0%,0%,0%);stroke-opacity:1;stroke-miterlimit:4;" d="M 0 0 L -3.5 0 " transform="matrix(1.25,0,0,1.25,82.566406,182.25)"/>
<path style=" stroke:none;fill-rule:nonzero;fill:rgb(0%,0%,0%);fill-opacity:1;" d="M 69.835938 178.699219 C 69.203125 178.699219 68.726562 179.011719 68.40625 179.636719 C 68.085938 180.257812 67.925781 181.199219 67.925781 182.453125 C 67.925781 183.699219 68.085938 184.636719 68.40625 185.261719 C 68.726562 185.886719 69.203125 186.199219 69.835938 186.199219 C 70.476562 186.199219 70.953125 185.886719 71.273438 185.261719 C 71.59375 184.636719 71.753906 183.699219 71.753906 182.453125 C 71.753906 181.199219 71.59375 180.257812 71.273438 179.636719 C 70.953125 179.011719 70.476562 178.699219 69.835938 178.699219 Z M 69.835938 177.722656 C 70.859375 177.722656 71.640625 178.125 72.179688 178.933594 C 72.71875 179.742188 72.984375 180.914062 72.984375 182.453125 C 72.984375 183.984375 72.71875 185.15625 72.179688 185.964844 C 71.640625 186.773438 70.859375 187.175781 69.835938 187.175781 C 68.816406 187.175781 68.035156 186.773438 67.496094 185.964844 C 66.957031 185.15625 66.6875 183.984375 66.6875 182.453125 C 66.6875 180.914062 66.957031 179.742188 67.496094 178.933594 C 68.035156 178.125 68.816406 177.722656 69.835938 177.722656 Z M 69.835938 177.722656 "/>
<path style="fill:none;stroke-width:0.8;stroke-linecap:butt;stroke-linejoin:round;stroke:rgb(0%,0%,0%);stroke-opacity:1;stroke-miterlimit:4;" d="M 0 0.000807 L -3.5 0.000807 " transform="matrix(1.25,0,0,1.25,82.566406,150.444304)"/>
<path style=" stroke:none;fill-rule:nonzero;fill:rgb(0%,0%,0%);fill-opacity:1;" d="M 36.449219 154.15625 L 40.75 154.15625 L 40.75 155.191406 L 34.96875 155.191406 L 34.96875 154.15625 C 35.433594 153.671875 36.070312 153.023438 36.878906 152.207031 C 37.6875 151.390625 38.195312 150.863281 38.402344 150.625 C 38.796875 150.183594 39.070312 149.808594 39.226562 149.5 C 39.386719 149.195312 39.464844 148.890625 39.464844 148.59375 C 39.464844 148.109375 39.296875 147.714844 38.953125 147.410156 C 38.617188 147.105469 38.171875 146.953125 37.625 146.953125 C 37.242188 146.953125 36.832031 147.019531 36.402344 147.152344 C 35.972656 147.289062 35.515625 147.492188 35.027344 147.765625 L 35.027344 146.519531 C 35.523438 146.320312 35.988281 146.167969 36.417969 146.066406 C 36.851562 145.964844 37.246094 145.914062 37.601562 145.914062 C 38.546875 145.914062 39.300781 146.152344 39.859375 146.625 C 40.421875 147.097656 40.703125 147.726562 40.703125 148.515625 C 40.703125 148.890625 40.632812 149.246094 40.492188 149.582031 C 40.351562 149.917969 40.097656 150.3125 39.726562 150.765625 C 39.625 150.886719 39.300781 151.226562 38.757812 151.789062 C 38.210938 152.355469 37.441406 153.144531 36.449219 154.15625 Z M 36.449219 154.15625 "/>
<path style=" stroke:none;fill-rule:nonzero;fill:rgb(0%,0%,0%);fill-opacity:1;" d="M 45.976562 146.890625 C 45.34375 146.890625 44.863281 147.203125 44.542969 147.828125 C 44.226562 148.453125 44.066406 149.390625 44.066406 150.644531 C 44.066406 151.894531 44.226562 152.832031 44.542969 153.457031 C 44.863281 154.082031 45.34375 154.394531 45.976562 154.394531 C 46.617188 154.394531 47.09375 154.082031 47.414062 153.457031 C 47.734375 152.832031 47.894531 151.894531 47.894531 150.644531 C 47.894531 149.390625 47.734375 148.453125 47.414062 147.828125 C 47.09375 147.203125 46.617188 146.890625 45.976562 146.890625 Z M 45.976562 145.914062 C 47 145.914062 47.777344 146.320312 48.316406 147.128906 C 48.855469 147.9375 49.125 149.109375 49.125 150.644531 C 49.125 152.179688 48.855469 153.351562 48.316406 154.160156 C 47.777344 154.96875 47 155.371094 45.976562 155.371094 C 44.957031 155.371094 44.175781 154.96875 43.636719 154.160156 C 43.097656 153.351562 42.828125 152.179688 42.828125 150.644531 C 42.828125 149.109375 43.097656 147.9375 43.636719 147.128906 C 44.175781 146.320312 44.957031 145.914062 45.976562 145.914062 Z M 45.976562 145.914062 "/>
<path style=" stroke:none;fill-rule:nonzero;fill:rgb(0%,0%,0%);fill-opacity:1;" d="M 53.929688 146.890625 C 53.296875 146.890625 52.816406 147.203125 52.496094 147.828125 C 52.179688 148.453125 52.019531 149.390625 52.019531 150.644531 C 52.019531 151.894531 52.179688 152.832031 52.496094 153.457031 C 52.816406 154.082031 53.296875 154.394531 53.929688 154.394531 C 54.570312 154.394531 55.046875 154.082031 55.367188 153.457031 C 55.6875 152.832031 55.847656 151.894531 55.847656 150.644531 C 55.847656 149.390625 55.6875 148.453125 55.367188 147.828125 C 55.046875 147.203125 54.570312 146.890625 53.929688 146.890625 Z M 53.929688 145.914062 C 54.953125 145.914062 55.730469 146.320312 56.269531 147.128906 C 56.808594 147.9375 57.078125 149.109375 57.078125 150.644531 C 57.078125 152.179688 56.808594 153.351562 56.269531 154.160156 C 55.730469 154.96875 54.953125 155.371094 53.929688 155.371094 C 52.910156 155.371094 52.128906 154.96875 51.589844 154.160156 C 51.050781 153.351562 50.78125 152.179688 50.78125 150.644531 C 50.78125 149.109375 51.050781 147.9375 51.589844 147.128906 C 52.128906 146.320312 52.910156 145.914062 53.929688 145.914062 Z M 53.929688 145.914062 "/>
<path style=" stroke:none;fill-rule:nonzero;fill:rgb(0%,0%,0%);fill-opacity:1;" d="M 61.882812 146.890625 C 61.246094 146.890625 60.769531 147.203125 60.449219 147.828125 C 60.132812 148.453125 59.972656 149.390625 59.972656 150.644531 C 59.972656 151.894531 60.132812 152.832031 60.449219 153.457031 C 60.769531 154.082031 61.246094 154.394531 61.882812 154.394531 C 62.519531 154.394531 63 154.082031 63.320312 153.457031 C 63.640625 152.832031 63.800781 151.894531 63.800781 150.644531 C 63.800781 149.390625 63.640625 148.453125 63.320312 147.828125 C 63 147.203125 62.519531 146.890625 61.882812 146.890625 Z M 61.882812 145.914062 C 62.902344 145.914062 63.683594 146.320312 64.222656 147.128906 C 64.761719 147.9375 65.03125 149.109375 65.03125 150.644531 C 65.03125 152.179688 64.761719 153.351562 64.222656 154.160156 C 63.683594 154.96875 62.902344 155.371094 61.882812 155.371094 C 60.859375 155.371094 60.082031 154.96875 59.542969 154.160156 C 59.003906 153.351562 58.734375 152.179688 58.734375 150.644531 C 58.734375 149.109375 59.003906 147.9375 59.542969 147.128906 C 60.082031 146.320312 60.859375 145.914062 61.882812 145.914062 Z M 61.882812 145.914062 "/>
<path style=" stroke:none;fill-rule:nonzero;fill:rgb(0%,0%,0%);fill-opacity:1;" d="M 69.835938 146.890625 C 69.199219 146.890625 68.722656 147.203125 68.402344 147.828125 C 68.085938 148.453125 67.925781 149.390625 67.925781 150.644531 C 67.925781 151.894531 68.085938 152.832031 68.402344 153.457031 C 68.722656 154.082031 69.199219 154.394531 69.835938 154.394531 C 70.472656 154.394531 70.953125 154.082031 71.273438 153.457031 C 71.59375 152.832031 71.753906 151.894531 71.753906 150.644531 C 71.753906 149.390625 71.59375 148.453125 71.273438 147.828125 C 70.953125 147.203125 70.472656 146.890625 69.835938 146.890625 Z M 69.835938 145.914062 C 70.855469 145.914062 71.636719 146.320312 72.175781 147.128906 C 72.714844 147.9375 72.984375 149.109375 72.984375 150.644531 C 72.984375 152.179688 72.714844 153.351562 72.175781 154.160156 C 71.636719 154.96875 70.855469 155.371094 69.835938 155.371094 C 68.8125 155.371094 68.035156 154.96875 67.496094 154.160156 C 66.957031 153.351562 66.6875 152.179688 66.6875 150.644531 C 66.6875 149.109375 66.957031 147.9375 67.496094 147.128906 C 68.035156 146.320312 68.8125 145.914062 69.835938 145.914062 Z M 69.835938 145.914062 "/>
<path style="fill:none;stroke-width:0.8;stroke-linecap:butt;stroke-linejoin:round;stroke:rgb(0%,0%,0%);stroke-opacity:1;stroke-miterlimit:4;" d="M 0 -0.001511 L -3.5 -0.001511 " transform="matrix(1.25,0,0,1.25,82.566406,118.638608)"/>
<path style=" stroke:none;fill-rule:nonzero;fill:rgb(0%,0%,0%);fill-opacity:1;" d="M 38.773438 115.347656 L 35.664062 120.214844 L 38.773438 120.214844 Z M 38.453125 114.273438 L 40 114.273438 L 40 120.214844 L 41.304688 120.214844 L 41.304688 121.238281 L 40 121.238281 L 40 123.386719 L 38.773438 123.386719 L 38.773438 121.238281 L 34.664062 121.238281 L 34.664062 120.050781 Z M 38.453125 114.273438 "/>
<path style=" stroke:none;fill-rule:nonzero;fill:rgb(0%,0%,0%);fill-opacity:1;" d="M 45.976562 115.085938 C 45.34375 115.085938 44.863281 115.398438 44.542969 116.023438 C 44.226562 116.648438 44.066406 117.585938 44.066406 118.839844 C 44.066406 120.089844 44.226562 121.027344 44.542969 121.652344 C 44.863281 122.277344 45.34375 122.589844 45.976562 122.589844 C 46.617188 122.589844 47.09375 122.277344 47.414062 121.652344 C 47.734375 121.027344 47.894531 120.089844 47.894531 118.839844 C 47.894531 117.585938 47.734375 116.648438 47.414062 116.023438 C 47.09375 115.398438 46.617188 115.085938 45.976562 115.085938 Z M 45.976562 114.109375 C 47 114.109375 47.777344 114.515625 48.316406 115.324219 C 48.855469 116.128906 49.125 117.304688 49.125 118.839844 C 49.125 120.375 48.855469 121.546875 48.316406 122.355469 C 47.777344 123.160156 47 123.566406 45.976562 123.566406 C 44.957031 123.566406 44.175781 123.160156 43.636719 122.355469 C 43.097656 121.546875 42.828125 120.375 42.828125 118.839844 C 42.828125 117.304688 43.097656 116.128906 43.636719 115.324219 C 44.175781 114.515625 44.957031 114.109375 45.976562 114.109375 Z M 45.976562 114.109375 "/>
<path style=" stroke:none;fill-rule:nonzero;fill:rgb(0%,0%,0%);fill-opacity:1;" d="M 53.929688 115.085938 C 53.296875 115.085938 52.816406 115.398438 52.496094 116.023438 C 52.179688 116.648438 52.019531 117.585938 52.019531 118.839844 C 52.019531 120.089844 52.179688 121.027344 52.496094 121.652344 C 52.816406 122.277344 53.296875 122.589844 53.929688 122.589844 C 54.570312 122.589844 55.046875 122.277344 55.367188 121.652344 C 55.6875 121.027344 55.847656 120.089844 55.847656 118.839844 C 55.847656 117.585938 55.6875 116.648438 55.367188 116.023438 C 55.046875 115.398438 54.570312 115.085938 53.929688 115.085938 Z M 53.929688 114.109375 C 54.953125 114.109375 55.730469 114.515625 56.269531 115.324219 C 56.808594 116.128906 57.078125 117.304688 57.078125 118.839844 C 57.078125 120.375 56.808594 121.546875 56.269531 122.355469 C 55.730469 123.160156 54.953125 123.566406 53.929688 123.566406 C 52.910156 123.566406 52.128906 123.160156 51.589844 122.355469 C 51.050781 121.546875 50.78125 120.375 50.78125 118.839844 C 50.78125 117.304688 51.050781 116.128906 51.589844 115.324219 C 52.128906 114.515625 52.910156 114.109375 53.929688 114.109375 Z M 53.929688 114.109375 "/>
<path style=" stroke:none;fill-rule:nonzero;fill:rgb(0%,0%,0%);fill-opacity:1;" d="M 61.882812 115.085938 C 61.246094 115.085938 60.769531 115.398438 60.449219 116.023438 C 60.132812 116.648438 59.972656 117.585938 59.972656 118.839844 C 59.972656 120.089844 60.132812 121.027344 60.449219 121.652344 C 60.769531 122.277344 61.246094 122.589844 61.882812 122.589844 C 62.519531 122.589844 63 122.277344 63.320312 121.652344 C 63.640625 121.027344 63.800781 120.089844 63.800781 118.839844 C 63.800781 117.585938 63.640625 116.648438 63.320312 116.023438 C 63 115.398438 62.519531 115.085938 61.882812 115.085938 Z M 61.882812 114.109375 C 62.902344 114.109375 63.683594 114.515625 64.222656 115.324219 C 64.761719 116.128906 65.03125 117.304688 65.03125 118.839844 C 65.03125 120.375 64.761719 121.546875 64.222656 122.355469 C 63.683594 123.160156 62.902344 123.566406 61.882812 123.566406 C 60.859375 123.566406 60.082031 123.160156 59.542969 122.355469 C 59.003906 121.546875 58.734375 120.375 58.734375 118.839844 C 58.734375 117.304688 59.003906 116.128906 59.542969 115.324219 C 60.082031 114.515625 60.859375 114.109375 61.882812 114.109375 Z M 61.882812 114.109375 "/>
<path style=" stroke:none;fill-rule:nonzero;fill:rgb(0%,0%,0%);fill-opacity:1;" d="M 69.835938 115.085938 C 69.199219 115.085938 68.722656 115.398438 68.402344 116.023438 C 68.085938 116.648438 67.925781 117.585938 67.925781 118.839844 C 67.925781 120.089844 68.085938 121.027344 68.402344 121.652344 C 68.722656 122.277344 69.199219 122.589844 69.835938 122.589844 C 70.472656 122.589844 70.953125 122.277344 71.273438 121.652344 C 71.59375 121.027344 71.753906 120.089844 71.753906 118.839844 C 71.753906 117.585938 71.59375 116.648438 71.273438 116.023438 C 70.953125 115.398438 70.472656 115.085938 69.835938 115.085938 Z M 69.835938 114.109375 C 70.855469 114.109375 71.636719 114.515625 72.175781 115.324219 C 72.714844 116.128906 72.984375 117.304688 72.984375 118.839844 C 72.984375 120.375 72.714844 121.546875 72.175781 122.355469 C 71.636719 123.160156 70.855469 123.566406 69.835938 123.566406 C 68.8125 123.566406 68.035156 123.160156 67.496094 122.355469 C 66.957031 121.546875 66.6875 120.375 66.6875 118.839844 C 66.6875 117.304688 66.957031 116.128906 67.496094 115.324219 C 68.035156 114.515625 68.8125 114.109375 69.835938 114.109375 Z M 69.835938 114.109375 "/>
<path style="fill:none;stroke-width:0.8;stroke-linecap:butt;stroke-linejoin:round;stroke:rgb(0%,0%,0%);stroke-opacity:1;stroke-miterlimit:4;" d="M 0 -0.000704 L -3.5 -0.000704 " transform="matrix(1.25,0,0,1.25,82.566406,86.832911)"/>
<path style=" stroke:none;fill-rule:nonzero;fill:rgb(0%,0%,0%);fill-opacity:1;" d="M 38.179688 86.535156 C 37.625 86.535156 37.1875 86.722656 36.859375 87.101562 C 36.539062 87.480469 36.375 88 36.375 88.65625 C 36.375 89.3125 36.539062 89.832031 36.859375 90.210938 C 37.1875 90.59375 37.625 90.78125 38.179688 90.78125 C 38.730469 90.78125 39.167969 90.59375 39.492188 90.210938 C 39.816406 89.832031 39.976562 89.3125 39.976562 88.65625 C 39.976562 88 39.816406 87.480469 39.492188 87.101562 C 39.167969 86.722656 38.730469 86.535156 38.179688 86.535156 Z M 40.625 82.667969 L 40.625 83.792969 C 40.316406 83.648438 40.003906 83.535156 39.6875 83.457031 C 39.371094 83.378906 39.058594 83.339844 38.75 83.339844 C 37.9375 83.339844 37.3125 83.617188 36.882812 84.164062 C 36.457031 84.714844 36.210938 85.546875 36.148438 86.65625 C 36.390625 86.300781 36.691406 86.03125 37.054688 85.839844 C 37.414062 85.652344 37.816406 85.558594 38.25 85.558594 C 39.164062 85.558594 39.890625 85.835938 40.421875 86.390625 C 40.953125 86.945312 41.21875 87.703125 41.21875 88.65625 C 41.21875 89.59375 40.941406 90.34375 40.386719 90.910156 C 39.832031 91.476562 39.097656 91.757812 38.179688 91.757812 C 37.125 91.757812 36.316406 91.355469 35.757812 90.546875 C 35.203125 89.738281 34.921875 88.570312 34.921875 87.035156 C 34.921875 85.59375 35.265625 84.445312 35.949219 83.589844 C 36.632812 82.734375 37.550781 82.304688 38.703125 82.304688 C 39.011719 82.304688 39.324219 82.335938 39.640625 82.394531 C 39.953125 82.457031 40.28125 82.546875 40.625 82.667969 Z M 40.625 82.667969 "/>
<path style=" stroke:none;fill-rule:nonzero;fill:rgb(0%,0%,0%);fill-opacity:1;" d="M 45.976562 83.28125 C 45.34375 83.28125 44.863281 83.59375 44.542969 84.21875 C 44.226562 84.84375 44.066406 85.78125 44.066406 87.035156 C 44.066406 88.285156 44.226562 89.21875 44.542969 89.84375 C 44.863281 90.46875 45.34375 90.78125 45.976562 90.78125 C 46.617188 90.78125 47.09375 90.46875 47.414062 89.84375 C 47.734375 89.21875 47.894531 88.285156 47.894531 87.035156 C 47.894531 85.78125 47.734375 84.84375 47.414062 84.21875 C 47.09375 83.59375 46.617188 83.28125 45.976562 83.28125 Z M 45.976562 82.304688 C 47 82.304688 47.777344 82.707031 48.316406 83.515625 C 48.855469 84.324219 49.125 85.496094 49.125 87.035156 C 49.125 88.570312 48.855469 89.738281 48.316406 90.546875 C 47.777344 91.355469 47 91.757812 45.976562 91.757812 C 44.957031 91.757812 44.175781 91.355469 43.636719 90.546875 C 43.097656 89.738281 42.828125 88.570312 42.828125 87.035156 C 42.828125 85.496094 43.097656 84.324219 43.636719 83.515625 C 44.175781 82.707031 44.957031 82.304688 45.976562 82.304688 Z M 45.976562 82.304688 "/>
<path style=" stroke:none;fill-rule:nonzero;fill:rgb(0%,0%,0%);fill-opacity:1;" d="M 53.929688 83.28125 C 53.296875 83.28125 52.816406 83.59375 52.496094 84.21875 C 52.179688 84.84375 52.019531 85.78125 52.019531 87.035156 C 52.019531 88.285156 52.179688 89.21875 52.496094 89.84375 C 52.816406 90.46875 53.296875 90.78125 53.929688 90.78125 C 54.570312 90.78125 55.046875 90.46875 55.367188 89.84375 C 55.6875 89.21875 55.847656 88.285156 55.847656 87.035156 C 55.847656 85.78125 55.6875 84.84375 55.367188 84.21875 C 55.046875 83.59375 54.570312 83.28125 53.929688 83.28125 Z M 53.929688 82.304688 C 54.953125 82.304688 55.730469 82.707031 56.269531 83.515625 C 56.808594 84.324219 57.078125 85.496094 57.078125 87.035156 C 57.078125 88.570312 56.808594 89.738281 56.269531 90.546875 C 55.730469 91.355469 54.953125 91.757812 53.929688 91.757812 C 52.910156 91.757812 52.128906 91.355469 51.589844 90.546875 C 51.050781 89.738281 50.78125 88.570312 50.78125 87.035156 C 50.78125 85.496094 51.050781 84.324219 51.589844 83.515625 C 52.128906 82.707031 52.910156 82.304688 53.929688 82.304688 Z M 53.929688 82.304688 "/>
<path style=" stroke:none;fill-rule:nonzero;fill:rgb(0%,0%,0%);fill-opacity:1;" d="M 61.882812 83.28125 C 61.246094 83.28125 60.769531 83.59375 60.449219 84.21875 C 60.132812 84.84375 59.972656 85.78125 59.972656 87.035156 C 59.972656 88.285156 60.132812 89.21875 60.449219 89.84375 C 60.769531 90.46875 61.246094 90.78125 61.882812 90.78125 C 62.519531 90.78125 63 90.46875 63.320312 89.84375 C 63.640625 89.21875 63.800781 88.285156 63.800781 87.035156 C 63.800781 85.78125 63.640625 84.84375 63.320312 84.21875 C 63 83.59375 62.519531 83.28125 61.882812 83.28125 Z M 61.882812 82.304688 C 62.902344 82.304688 63.683594 82.707031 64.222656 83.515625 C 64.761719 84.324219 65.03125 85.496094 65.03125 87.035156 C 65.03125 88.570312 64.761719 89.738281 64.222656 90.546875 C 63.683594 91.355469 62.902344 91.757812 61.882812 91.757812 C 60.859375 91.757812 60.082031 91.355469 59.542969 90.546875 C 59.003906 89.738281 58.734375 88.570312 58.734375 87.035156 C 58.734375 85.496094 59.003906 84.324219 59.542969 83.515625 C 60.082031 82.707031 60.859375 82.304688 61.882812 82.304688 Z M 61.882812 82.304688 "/>
<path style=" stroke:none;fill-rule:nonzero;fill:rgb(0%,0%,0%);fill-opacity:1;" d="M 69.835938 83.28125 C 69.199219 83.28125 68.722656 83.59375 68.402344 84.21875 C 68.085938 84.84375 67.925781 85.78125 67.925781 87.035156 C 67.925781 88.285156 68.085938 89.21875 68.402344 89.84375 C 68.722656 90.46875 69.199219 90.78125 69.835938 90.78125 C 70.472656 90.78125 70.953125 90.46875 71.273438 89.84375 C 71.59375 89.21875 71.753906 88.285156 71.753906 87.035156 C 71.753906 85.78125 71.59375 84.84375 71.273438 84.21875 C 70.953125 83.59375 70.472656 83.28125 69.835938 83.28125 Z M 69.835938 82.304688 C 70.855469 82.304688 71.636719 82.707031 72.175781 83.515625 C 72.714844 84.324219 72.984375 85.496094 72.984375 87.035156 C 72.984375 88.570312 72.714844 89.738281 72.175781 90.546875 C 71.636719 91.355469 70.855469 91.757812 69.835938 91.757812 C 68.8125 91.757812 68.035156 91.355469 67.496094 90.546875 C 66.957031 89.738281 66.6875 88.570312 66.6875 87.035156 C 66.6875 85.496094 66.957031 84.324219 67.496094 83.515625 C 68.035156 82.707031 68.8125 82.304688 69.835938 82.304688 Z M 69.835938 82.304688 "/>
<path style="fill:none;stroke-width:0.8;stroke-linecap:butt;stroke-linejoin:round;stroke:rgb(0%,0%,0%);stroke-opacity:1;stroke-miterlimit:4;" d="M 0 0.000103 L -3.5 0.000103 " transform="matrix(1.25,0,0,1.25,82.566406,55.027215)"/>
<path style=" stroke:none;fill-rule:nonzero;fill:rgb(0%,0%,0%);fill-opacity:1;" d="M 38.023438 55.449219 C 37.4375 55.449219 36.976562 55.605469 36.640625 55.917969 C 36.304688 56.234375 36.140625 56.664062 36.140625 57.210938 C 36.140625 57.761719 36.304688 58.191406 36.640625 58.507812 C 36.976562 58.820312 37.4375 58.976562 38.023438 58.976562 C 38.609375 58.976562 39.070312 58.820312 39.40625 58.503906 C 39.746094 58.1875 39.914062 57.757812 39.914062 57.210938 C 39.914062 56.664062 39.75 56.234375 39.414062 55.917969 C 39.078125 55.605469 38.613281 55.449219 38.023438 55.449219 Z M 36.789062 54.925781 C 36.261719 54.792969 35.851562 54.546875 35.554688 54.1875 C 35.261719 53.824219 35.113281 53.382812 35.113281 52.859375 C 35.113281 52.132812 35.371094 51.558594 35.890625 51.132812 C 36.410156 50.710938 37.121094 50.5 38.023438 50.5 C 38.929688 50.5 39.644531 50.710938 40.160156 51.132812 C 40.675781 51.558594 40.9375 52.132812 40.9375 52.859375 C 40.9375 53.382812 40.789062 53.824219 40.492188 54.1875 C 40.199219 54.546875 39.789062 54.792969 39.265625 54.925781 C 39.859375 55.0625 40.320312 55.332031 40.648438 55.738281 C 40.984375 56.140625 41.148438 56.632812 41.148438 57.210938 C 41.148438 58.097656 40.878906 58.773438 40.339844 59.246094 C 39.800781 59.71875 39.027344 59.953125 38.023438 59.953125 C 37.019531 59.953125 36.246094 59.71875 35.707031 59.246094 C 35.167969 58.773438 34.898438 58.097656 34.898438 57.210938 C 34.898438 56.632812 35.066406 56.140625 35.398438 55.738281 C 35.734375 55.332031 36.195312 55.0625 36.789062 54.925781 Z M 36.339844 52.976562 C 36.339844 53.449219 36.488281 53.816406 36.78125 54.082031 C 37.078125 54.34375 37.492188 54.476562 38.023438 54.476562 C 38.554688 54.476562 38.96875 54.34375 39.265625 54.082031 C 39.566406 53.816406 39.714844 53.449219 39.714844 52.976562 C 39.714844 52.503906 39.566406 52.136719 39.265625 51.871094 C 38.96875 51.609375 38.554688 51.476562 38.023438 51.476562 C 37.492188 51.476562 37.078125 51.609375 36.78125 51.871094 C 36.488281 52.136719 36.339844 52.503906 36.339844 52.976562 Z M 36.339844 52.976562 "/>
<path style=" stroke:none;fill-rule:nonzero;fill:rgb(0%,0%,0%);fill-opacity:1;" d="M 45.976562 51.476562 C 45.34375 51.476562 44.863281 51.789062 44.542969 52.414062 C 44.226562 53.035156 44.066406 53.976562 44.066406 55.230469 C 44.066406 56.476562 44.226562 57.414062 44.542969 58.039062 C 44.863281 58.664062 45.34375 58.976562 45.976562 58.976562 C 46.617188 58.976562 47.09375 58.664062 47.414062 58.039062 C 47.734375 57.414062 47.894531 56.476562 47.894531 55.230469 C 47.894531 53.976562 47.734375 53.035156 47.414062 52.414062 C 47.09375 51.789062 46.617188 51.476562 45.976562 51.476562 Z M 45.976562 50.5 C 47 50.5 47.777344 50.902344 48.316406 51.710938 C 48.855469 52.519531 49.125 53.691406 49.125 55.230469 C 49.125 56.761719 48.855469 57.933594 48.316406 58.742188 C 47.777344 59.550781 47 59.953125 45.976562 59.953125 C 44.957031 59.953125 44.175781 59.550781 43.636719 58.742188 C 43.097656 57.933594 42.828125 56.761719 42.828125 55.230469 C 42.828125 53.691406 43.097656 52.519531 43.636719 51.710938 C 44.175781 50.902344 44.957031 50.5 45.976562 50.5 Z M 45.976562 50.5 "/>
<path style=" stroke:none;fill-rule:nonzero;fill:rgb(0%,0%,0%);fill-opacity:1;" d="M 53.929688 51.476562 C 53.296875 51.476562 52.816406 51.789062 52.496094 52.414062 C 52.179688 53.035156 52.019531 53.976562 52.019531 55.230469 C 52.019531 56.476562 52.179688 57.414062 52.496094 58.039062 C 52.816406 58.664062 53.296875 58.976562 53.929688 58.976562 C 54.570312 58.976562 55.046875 58.664062 55.367188 58.039062 C 55.6875 57.414062 55.847656 56.476562 55.847656 55.230469 C 55.847656 53.976562 55.6875 53.035156 55.367188 52.414062 C 55.046875 51.789062 54.570312 51.476562 53.929688 51.476562 Z M 53.929688 50.5 C 54.953125 50.5 55.730469 50.902344 56.269531 51.710938 C 56.808594 52.519531 57.078125 53.691406 57.078125 55.230469 C 57.078125 56.761719 56.808594 57.933594 56.269531 58.742188 C 55.730469 59.550781 54.953125 59.953125 53.929688 59.953125 C 52.910156 59.953125 52.128906 59.550781 51.589844 58.742188 C 51.050781 57.933594 50.78125 56.761719 50.78125 55.230469 C 50.78125 53.691406 51.050781 52.519531 51.589844 51.710938 C 52.128906 50.902344 52.910156 50.5 53.929688 50.5 Z M 53.929688 50.5 "/>
<path style=" stroke:none;fill-rule:nonzero;fill:rgb(0%,0%,0%);fill-opacity:1;" d="M 61.882812 51.476562 C 61.246094 51.476562 60.769531 51.789062 60.449219 52.414062 C 60.132812 53.035156 59.972656 53.976562 59.972656 55.230469 C 59.972656 56.476562 60.132812 57.414062 60.449219 58.039062 C 60.769531 58.664062 61.246094 58.976562 61.882812 58.976562 C 62.519531 58.976562 63 58.664062 63.320312 58.039062 C 63.640625 57.414062 63.800781 56.476562 63.800781 55.230469 C 63.800781 53.976562 63.640625 53.035156 63.320312 52.414062 C 63 51.789062 62.519531 51.476562 61.882812 51.476562 Z M 61.882812 50.5 C 62.902344 50.5 63.683594 50.902344 64.222656 51.710938 C 64.761719 52.519531 65.03125 53.691406 65.03125 55.230469 C 65.03125 56.761719 64.761719 57.933594 64.222656 58.742188 C 63.683594 59.550781 62.902344 59.953125 61.882812 59.953125 C 60.859375 59.953125 60.082031 59.550781 59.542969 58.742188 C 59.003906 57.933594 58.734375 56.761719 58.734375 55.230469 C 58.734375 53.691406 59.003906 52.519531 59.542969 51.710938 C 60.082031 50.902344 60.859375 50.5 61.882812 50.5 Z M 61.882812 50.5 "/>
<path style=" stroke:none;fill-rule:nonzero;fill:rgb(0%,0%,0%);fill-opacity:1;" d="M 69.835938 51.476562 C 69.199219 51.476562 68.722656 51.789062 68.402344 52.414062 C 68.085938 53.035156 67.925781 53.976562 67.925781 55.230469 C 67.925781 56.476562 68.085938 57.414062 68.402344 58.039062 C 68.722656 58.664062 69.199219 58.976562 69.835938 58.976562 C 70.472656 58.976562 70.953125 58.664062 71.273438 58.039062 C 71.59375 57.414062 71.753906 56.476562 71.753906 55.230469 C 71.753906 53.976562 71.59375 53.035156 71.273438 52.414062 C 70.953125 51.789062 70.472656 51.476562 69.835938 51.476562 Z M 69.835938 50.5 C 70.855469 50.5 71.636719 50.902344 72.175781 51.710938 C 72.714844 52.519531 72.984375 53.691406 72.984375 55.230469 C 72.984375 56.761719 72.714844 57.933594 72.175781 58.742188 C 71.636719 59.550781 70.855469 59.953125 69.835938 59.953125 C 68.8125 59.953125 68.035156 59.550781 67.496094 58.742188 C 66.957031 57.933594 66.6875 56.761719 66.6875 55.230469 C 66.6875 53.691406 66.957031 52.519531 67.496094 51.710938 C 68.035156 50.902344 68.8125 50.5 69.835938 50.5 Z M 69.835938 50.5 "/>
<path style="fill:none;stroke-width:0.8;stroke-linecap:butt;stroke-linejoin:round;stroke:rgb(0%,0%,0%);stroke-opacity:1;stroke-miterlimit:4;" d="M 0 0.000909 L -3.5 0.000909 " transform="matrix(1.25,0,0,1.25,82.566406,23.22152)"/>
<path style=" stroke:none;fill-rule:nonzero;fill:rgb(0%,0%,0%);fill-opacity:1;" d="M 27.648438 26.933594 L 29.664062 26.933594 L 29.664062 19.980469 L 27.46875 20.417969 L 27.46875 19.296875 L 29.648438 18.855469 L 30.882812 18.855469 L 30.882812 26.933594 L 32.898438 26.933594 L 32.898438 27.96875 L 27.648438 27.96875 Z M 27.648438 26.933594 "/>
<path style=" stroke:none;fill-rule:nonzero;fill:rgb(0%,0%,0%);fill-opacity:1;" d="M 38.023438 19.667969 C 37.390625 19.667969 36.910156 19.980469 36.589844 20.605469 C 36.273438 21.230469 36.113281 22.167969 36.113281 23.421875 C 36.113281 24.671875 36.273438 25.609375 36.589844 26.234375 C 36.910156 26.859375 37.390625 27.171875 38.023438 27.171875 C 38.664062 27.171875 39.140625 26.859375 39.460938 26.234375 C 39.78125 25.609375 39.941406 24.671875 39.941406 23.421875 C 39.941406 22.167969 39.78125 21.230469 39.460938 20.605469 C 39.140625 19.980469 38.664062 19.667969 38.023438 19.667969 Z M 38.023438 18.691406 C 39.046875 18.691406 39.824219 19.097656 40.363281 19.90625 C 40.902344 20.714844 41.171875 21.886719 41.171875 23.421875 C 41.171875 24.957031 40.902344 26.128906 40.363281 26.9375 C 39.824219 27.746094 39.046875 28.148438 38.023438 28.148438 C 37.003906 28.148438 36.222656 27.746094 35.683594 26.9375 C 35.144531 26.128906 34.875 24.957031 34.875 23.421875 C 34.875 21.886719 35.144531 20.714844 35.683594 19.90625 C 36.222656 19.097656 37.003906 18.691406 38.023438 18.691406 Z M 38.023438 18.691406 "/>
<path style=" stroke:none;fill-rule:nonzero;fill:rgb(0%,0%,0%);fill-opacity:1;" d="M 45.976562 19.667969 C 45.34375 19.667969 44.863281 19.980469 44.542969 20.605469 C 44.226562 21.230469 44.066406 22.167969 44.066406 23.421875 C 44.066406 24.671875 44.226562 25.609375 44.542969 26.234375 C 44.863281 26.859375 45.34375 27.171875 45.976562 27.171875 C 46.617188 27.171875 47.09375 26.859375 47.414062 26.234375 C 47.734375 25.609375 47.894531 24.671875 47.894531 23.421875 C 47.894531 22.167969 47.734375 21.230469 47.414062 20.605469 C 47.09375 19.980469 46.617188 19.667969 45.976562 19.667969 Z M 45.976562 18.691406 C 47 18.691406 47.777344 19.097656 48.316406 19.90625 C 48.855469 20.714844 49.125 21.886719 49.125 23.421875 C 49.125 24.957031 48.855469 26.128906 48.316406 26.9375 C 47.777344 27.746094 47 28.148438 45.976562 28.148438 C 44.957031 28.148438 44.175781 27.746094 43.636719 26.9375 C 43.097656 26.128906 42.828125 24.957031 42.828125 23.421875 C 42.828125 21.886719 43.097656 20.714844 43.636719 19.90625 C 44.175781 19.097656 44.957031 18.691406 45.976562 18.691406 Z M 45.976562 18.691406 "/>
<path style=" stroke:none;fill-rule:nonzero;fill:rgb(0%,0%,0%);fill-opacity:1;" d="M 53.929688 19.667969 C 53.292969 19.667969 52.816406 19.980469 52.496094 20.605469 C 52.179688 21.230469 52.019531 22.167969 52.019531 23.421875 C 52.019531 24.671875 52.179688 25.609375 52.496094 26.234375 C 52.816406 26.859375 53.292969 27.171875 53.929688 27.171875 C 54.566406 27.171875 55.046875 26.859375 55.367188 26.234375 C 55.6875 25.609375 55.847656 24.671875 55.847656 23.421875 C 55.847656 22.167969 55.6875 21.230469 55.367188 20.605469 C 55.046875 19.980469 54.566406 19.667969 53.929688 19.667969 Z M 53.929688 18.691406 C 54.949219 18.691406 55.730469 19.097656 56.269531 19.90625 C 56.808594 20.714844 57.078125 21.886719 57.078125 23.421875 C 57.078125 24.957031 56.808594 26.128906 56.269531 26.9375 C 55.730469 27.746094 54.949219 28.148438 53.929688 28.148438 C 52.90625 28.148438 52.128906 27.746094 51.589844 26.9375 C 51.050781 26.128906 50.78125 24.957031 50.78125 23.421875 C 50.78125 21.886719 51.050781 20.714844 51.589844 19.90625 C 52.128906 19.097656 52.90625 18.691406 53.929688 18.691406 Z M 53.929688 18.691406 "/>
<path style=" stroke:none;fill-rule:nonzero;fill:rgb(0%,0%,0%);fill-opacity:1;" d="M 61.882812 19.667969 C 61.246094 19.667969 60.769531 19.980469 60.449219 20.605469 C 60.132812 21.230469 59.972656 22.167969 59.972656 23.421875 C 59.972656 24.671875 60.132812 25.609375 60.449219 26.234375 C 60.769531 26.859375 61.246094 27.171875 61.882812 27.171875 C 62.519531 27.171875 63 26.859375 63.320312 26.234375 C 63.640625 25.609375 63.800781 24.671875 63.800781 23.421875 C 63.800781 22.167969 63.640625 21.230469 63.320312 20.605469 C 63 19.980469 62.519531 19.667969 61.882812 19.667969 Z M 61.882812 18.691406 C 62.902344 18.691406 63.683594 19.097656 64.222656 19.90625 C 64.761719 20.714844 65.03125 21.886719 65.03125 23.421875 C 65.03125 24.957031 64.761719 26.128906 64.222656 26.9375 C 63.683594 27.746094 62.902344 28.148438 61.882812 28.148438 C 60.859375 28.148438 60.082031 27.746094 59.542969 26.9375 C 59.003906 26.128906 58.734375 24.957031 58.734375 23.421875 C 58.734375 21.886719 59.003906 20.714844 59.542969 19.90625 C 60.082031 19.097656 60.859375 18.691406 61.882812 18.691406 Z M 61.882812 18.691406 "/>
<path style=" stroke:none;fill-rule:nonzero;fill:rgb(0%,0%,0%);fill-opacity:1;" d="M 69.835938 19.667969 C 69.199219 19.667969 68.722656 19.980469 68.402344 20.605469 C 68.085938 21.230469 67.925781 22.167969 67.925781 23.421875 C 67.925781 24.671875 68.085938 25.609375 68.402344 26.234375 C 68.722656 26.859375 69.199219 27.171875 69.835938 27.171875 C 70.472656 27.171875 70.953125 26.859375 71.273438 26.234375 C 71.59375 25.609375 71.753906 24.671875 71.753906 23.421875 C 71.753906 22.167969 71.59375 21.230469 71.273438 20.605469 C 70.953125 19.980469 70.472656 19.667969 69.835938 19.667969 Z M 69.835938 18.691406 C 70.855469 18.691406 71.636719 19.097656 72.175781 19.90625 C 72.714844 20.714844 72.984375 21.886719 72.984375 23.421875 C 72.984375 24.957031 72.714844 26.128906 72.175781 26.9375 C 71.636719 27.746094 70.855469 28.148438 69.835938 28.148438 C 68.8125 28.148438 68.035156 27.746094 67.496094 26.9375 C 66.957031 26.128906 66.6875 24.957031 66.6875 23.421875 C 66.6875 21.886719 66.957031 20.714844 67.496094 19.90625 C 68.035156 19.097656 68.8125 18.691406 69.835938 18.691406 Z M 69.835938 18.691406 "/>
<path style=" stroke:none;fill-rule:nonzero;fill:rgb(0%,0%,0%);fill-opacity:1;" d="M 11.925781 107.160156 L 12.976562 107.160156 C 12.800781 107.476562 12.667969 107.796875 12.582031 108.117188 C 12.492188 108.433594 12.449219 108.757812 12.449219 109.082031 C 12.449219 109.8125 12.679688 110.378906 13.144531 110.78125 C 13.605469 111.183594 14.25 111.382812 15.085938 111.382812 C 15.921875 111.382812 16.570312 111.183594 17.03125 110.78125 C 17.492188 110.378906 17.722656 109.8125 17.722656 109.082031 C 17.722656 108.757812 17.679688 108.433594 17.59375 108.117188 C 17.503906 107.796875 17.375 107.476562 17.199219 107.160156 L 18.238281 107.160156 C 18.382812 107.472656 18.492188 107.796875 18.566406 108.132812 C 18.640625 108.46875 18.675781 108.828125 18.675781 109.203125 C 18.675781 110.234375 18.351562 111.054688 17.707031 111.660156 C 17.058594 112.265625 16.183594 112.570312 15.085938 112.570312 C 13.972656 112.570312 13.09375 112.261719 12.457031 111.648438 C 11.816406 111.039062 11.5 110.195312 11.5 109.132812 C 11.5 108.785156 11.535156 108.449219 11.605469 108.117188 C 11.675781 107.789062 11.78125 107.46875 11.925781 107.160156 Z M 11.925781 107.160156 "/>
<path style=" stroke:none;fill-rule:nonzero;fill:rgb(0%,0%,0%);fill-opacity:1;" d="M 12.449219 102.558594 C 12.449219 103.160156 12.683594 103.636719 13.15625 103.988281 C 13.625 104.335938 14.269531 104.511719 15.085938 104.511719 C 15.902344 104.511719 16.546875 104.339844 17.019531 103.992188 C 17.488281 103.640625 17.722656 103.164062 17.722656 102.558594 C 17.722656 101.960938 17.488281 101.484375 17.015625 101.136719 C 16.542969 100.785156 15.898438 100.613281 15.085938 100.613281 C 14.277344 100.613281 13.632812 100.785156 13.160156 101.136719 C 12.6875 101.484375 12.449219 101.960938 12.449219 102.558594 Z M 11.5 102.558594 C 11.5 101.582031 11.816406 100.816406 12.453125 100.257812 C 13.085938 99.699219 13.964844 99.421875 15.085938 99.421875 C 16.203125 99.421875 17.082031 99.699219 17.722656 100.257812 C 18.359375 100.816406 18.675781 101.582031 18.675781 102.558594 C 18.675781 103.539062 18.359375 104.308594 17.722656 104.863281 C 17.082031 105.417969 16.203125 105.695312 15.085938 105.695312 C 13.964844 105.695312 13.085938 105.417969 12.453125 104.863281 C 11.816406 104.308594 11.5 103.539062 11.5 102.558594 Z M 11.5 102.558594 "/>
<path style=" stroke:none;fill-rule:nonzero;fill:rgb(0%,0%,0%);fill-opacity:1;" d="M 15.800781 97.675781 L 11.664062 97.675781 L 11.664062 96.550781 L 15.757812 96.550781 C 16.40625 96.550781 16.890625 96.425781 17.214844 96.175781 C 17.539062 95.921875 17.699219 95.542969 17.699219 95.039062 C 17.699219 94.433594 17.507812 93.953125 17.121094 93.601562 C 16.734375 93.25 16.207031 93.074219 15.539062 93.074219 L 11.664062 93.074219 L 11.664062 91.949219 L 18.5 91.949219 L 18.5 93.074219 L 17.449219 93.074219 C 17.863281 93.34375 18.171875 93.660156 18.375 94.023438 C 18.574219 94.382812 18.675781 94.800781 18.675781 95.277344 C 18.675781 96.0625 18.433594 96.65625 17.945312 97.066406 C 17.457031 97.472656 16.742188 97.675781 15.800781 97.675781 Z M 11.5 94.847656 Z M 11.5 94.847656 "/>
<path style=" stroke:none;fill-rule:nonzero;fill:rgb(0%,0%,0%);fill-opacity:1;" d="M 14.371094 83.953125 L 18.5 83.953125 L 18.5 85.078125 L 14.410156 85.078125 C 13.761719 85.078125 13.277344 85.203125 12.957031 85.457031 C 12.636719 85.707031 12.476562 86.085938 12.476562 86.589844 C 12.476562 87.199219 12.667969 87.675781 13.054688 88.027344 C 13.441406 88.375 13.96875 88.550781 14.636719 88.550781 L 18.5 88.550781 L 18.5 89.679688 L 11.664062 89.679688 L 11.664062 88.550781 L 12.726562 88.550781 C 12.3125 88.28125 12.007812 87.964844 11.804688 87.601562 C 11.601562 87.238281 11.5 86.816406 11.5 86.339844 C 11.5 85.554688 11.742188 84.960938 12.226562 84.558594 C 12.710938 84.15625 13.425781 83.953125 14.371094 83.953125 Z M 14.371094 83.953125 "/>
<path style=" stroke:none;fill-rule:nonzero;fill:rgb(0%,0%,0%);fill-opacity:1;" d="M 9.722656 80.605469 L 11.664062 80.605469 L 11.664062 78.292969 L 12.535156 78.292969 L 12.535156 80.605469 L 16.246094 80.605469 C 16.804688 80.605469 17.160156 80.527344 17.320312 80.375 C 17.480469 80.222656 17.558594 79.914062 17.558594 79.445312 L 17.558594 78.292969 L 18.5 78.292969 L 18.5 79.445312 C 18.5 80.3125 18.335938 80.910156 18.015625 81.238281 C 17.691406 81.566406 17.101562 81.734375 16.246094 81.734375 L 12.535156 81.734375 L 12.535156 82.558594 L 11.664062 82.558594 L 11.664062 81.734375 L 9.722656 81.734375 Z M 9.722656 80.605469 "/>
<path style="fill:none;stroke-width:0.8;stroke-linecap:square;stroke-linejoin:miter;stroke:rgb(0%,0%,0%);stroke-opacity:1;stroke-miterlimit:4;" d="M 66.053125 145.8 L 66.053125 7.2 " transform="matrix(1.25,0,0,1.25,0,0)"/>
<path style="fill:none;stroke-width:0.8;stroke-linecap:square;stroke-linejoin:miter;stroke:rgb(0%,0%,0%);stroke-opacity:1;stroke-miterlimit:4;" d="M 261.353125 145.8 L 261.353125 7.2 " transform="matrix(1.25,0,0,1.25,0,0)"/>
<path style="fill:none;stroke-width:0.8;stroke-linecap:square;stroke-linejoin:miter;stroke:rgb(0%,0%,0%);stroke-opacity:1;stroke-miterlimit:4;" d="M 66.053125 145.8 L 261.353125 145.8 " transform="matrix(1.25,0,0,1.25,0,0)"/>
<path style="fill:none;stroke-width:0.8;stroke-linecap:square;stroke-linejoin:miter;stroke:rgb(0%,0%,0%);stroke-opacity:1;stroke-miterlimit:4;" d="M 66.053125 7.2 L 261.353125 7.2 " transform="matrix(1.25,0,0,1.25,0,0)"/>
<use xlink:href="#surface35" mask="url(#mask0)"/>
<path style=" stroke:none;fill-rule:nonzero;fill:rgb(12.156863%,46.666667%,70.588235%);fill-opacity:1;" d="M 238.9375 29.75 L 263.9375 29.75 L 263.9375 21 L 238.9375 21 Z M 238.9375 29.75 "/>
<path style=" stroke:none;fill-rule:nonzero;fill:rgb(0%,0%,0%);fill-opacity:1;" d="M 279.472656 23.113281 L 279.472656 24.175781 C 279.15625 24.011719 278.828125 23.890625 278.484375 23.8125 C 278.144531 23.730469 277.789062 23.6875 277.421875 23.6875 C 276.863281 23.6875 276.445312 23.773438 276.167969 23.945312 C 275.890625 24.113281 275.75 24.371094 275.75 24.714844 C 275.75 24.972656 275.851562 25.179688 276.046875 25.328125 C 276.25 25.476562 276.648438 25.617188 277.25 25.75 L 277.636719 25.835938 C 278.433594 26.007812 279 26.246094 279.335938 26.558594 C 279.671875 26.871094 279.839844 27.304688 279.839844 27.863281 C 279.839844 28.496094 279.589844 29 279.085938 29.371094 C 278.582031 29.742188 277.890625 29.925781 277.015625 29.925781 C 276.648438 29.925781 276.265625 29.890625 275.867188 29.820312 C 275.472656 29.746094 275.054688 29.640625 274.617188 29.5 L 274.617188 28.339844 C 275.03125 28.554688 275.4375 28.714844 275.84375 28.824219 C 276.242188 28.929688 276.644531 28.984375 277.039062 28.984375 C 277.566406 28.984375 277.972656 28.894531 278.257812 28.714844 C 278.542969 28.53125 278.6875 28.277344 278.6875 27.949219 C 278.6875 27.644531 278.582031 27.410156 278.375 27.246094 C 278.171875 27.082031 277.722656 26.925781 277.023438 26.777344 L 276.632812 26.683594 C 275.9375 26.539062 275.4375 26.3125 275.125 26.011719 C 274.820312 25.707031 274.664062 25.289062 274.664062 24.761719 C 274.664062 24.117188 274.890625 23.621094 275.347656 23.273438 C 275.804688 22.921875 276.449219 22.75 277.289062 22.75 C 277.703125 22.75 278.09375 22.777344 278.460938 22.839844 C 278.828125 22.898438 279.164062 22.992188 279.472656 23.113281 Z M 279.472656 23.113281 "/>
<path style=" stroke:none;fill-rule:nonzero;fill:rgb(0%,0%,0%);fill-opacity:1;" d="M 284.277344 23.699219 C 283.675781 23.699219 283.199219 23.933594 282.847656 24.40625 C 282.5 24.875 282.324219 25.519531 282.324219 26.335938 C 282.324219 27.152344 282.496094 27.796875 282.84375 28.269531 C 283.195312 28.738281 283.671875 28.972656 284.277344 28.972656 C 284.875 28.972656 285.347656 28.738281 285.699219 28.265625 C 286.046875 27.792969 286.222656 27.148438 286.222656 26.335938 C 286.222656 25.527344 286.046875 24.882812 285.699219 24.410156 C 285.347656 23.9375 284.875 23.699219 284.277344 23.699219 Z M 284.277344 22.75 C 285.253906 22.75 286.019531 23.066406 286.578125 23.703125 C 287.136719 24.335938 287.414062 25.214844 287.414062 26.335938 C 287.414062 27.453125 287.136719 28.332031 286.578125 28.972656 C 286.019531 29.609375 285.253906 29.925781 284.277344 29.925781 C 283.296875 29.925781 282.527344 29.609375 281.972656 28.972656 C 281.417969 28.332031 281.140625 27.453125 281.140625 26.335938 C 281.140625 25.214844 281.417969 24.335938 281.972656 23.703125 C 282.527344 23.066406 283.296875 22.75 284.277344 22.75 Z M 284.277344 22.75 "/>
<path style=" stroke:none;fill-rule:nonzero;fill:rgb(0%,0%,0%);fill-opacity:1;" d="M 289.160156 27.050781 L 289.160156 22.914062 L 290.28125 22.914062 L 290.28125 27.007812 C 290.28125 27.65625 290.410156 28.140625 290.660156 28.464844 C 290.914062 28.789062 291.292969 28.949219 291.796875 28.949219 C 292.402344 28.949219 292.882812 28.757812 293.234375 28.371094 C 293.585938 27.984375 293.761719 27.457031 293.761719 26.789062 L 293.761719 22.914062 L 294.882812 22.914062 L 294.882812 29.75 L 293.761719 29.75 L 293.761719 28.699219 C 293.488281 29.113281 293.171875 29.421875 292.8125 29.625 C 292.453125 29.824219 292.035156 29.925781 291.558594 29.925781 C 290.773438 29.925781 290.175781 29.683594 289.769531 29.195312 C 289.363281 28.707031 289.160156 27.992188 289.160156 27.050781 Z M 291.984375 22.75 Z M 291.984375 22.75 "/>
<path style=" stroke:none;fill-rule:nonzero;fill:rgb(0%,0%,0%);fill-opacity:1;" d="M 301.160156 23.960938 C 301.03125 23.886719 300.894531 23.835938 300.746094 23.800781 C 300.597656 23.765625 300.433594 23.75 300.257812 23.75 C 299.621094 23.75 299.132812 23.953125 298.792969 24.367188 C 298.453125 24.78125 298.285156 25.375 298.285156 26.148438 L 298.285156 29.75 L 297.15625 29.75 L 297.15625 22.914062 L 298.285156 22.914062 L 298.285156 23.976562 C 298.519531 23.558594 298.828125 23.25 299.207031 23.050781 C 299.585938 22.847656 300.042969 22.75 300.585938 22.75 C 300.664062 22.75 300.75 22.753906 300.84375 22.765625 C 300.9375 22.773438 301.039062 22.789062 301.152344 22.808594 Z M 301.160156 23.960938 "/>
<path style=" stroke:none;fill-rule:nonzero;fill:rgb(0%,0%,0%);fill-opacity:1;" d="M 306.976562 23.175781 L 306.976562 24.226562 C 306.65625 24.050781 306.339844 23.917969 306.019531 23.832031 C 305.703125 23.742188 305.378906 23.699219 305.054688 23.699219 C 304.324219 23.699219 303.757812 23.929688 303.355469 24.394531 C 302.953125 24.855469 302.75 25.5 302.75 26.335938 C 302.75 27.171875 302.953125 27.820312 303.355469 28.28125 C 303.757812 28.742188 304.324219 28.972656 305.054688 28.972656 C 305.378906 28.972656 305.703125 28.929688 306.019531 28.84375 C 306.339844 28.753906 306.65625 28.625 306.976562 28.449219 L 306.976562 29.488281 C 306.660156 29.632812 306.335938 29.742188 306 29.816406 C 305.667969 29.890625 305.308594 29.925781 304.929688 29.925781 C 303.902344 29.925781 303.082031 29.601562 302.476562 28.957031 C 301.871094 28.308594 301.566406 27.433594 301.566406 26.335938 C 301.566406 25.222656 301.875 24.34375 302.484375 23.707031 C 303.097656 23.066406 303.9375 22.75 305.003906 22.75 C 305.351562 22.75 305.6875 22.785156 306.015625 22.855469 C 306.347656 22.925781 306.664062 23.03125 306.976562 23.175781 Z M 306.976562 23.175781 "/>
<path style=" stroke:none;fill-rule:nonzero;fill:rgb(0%,0%,0%);fill-opacity:1;" d="M 314.777344 26.050781 L 314.777344 26.597656 L 309.613281 26.597656 C 309.660156 27.371094 309.894531 27.960938 310.3125 28.367188 C 310.726562 28.769531 311.308594 28.972656 312.054688 28.972656 C 312.484375 28.972656 312.902344 28.921875 313.308594 28.816406 C 313.710938 28.710938 314.113281 28.550781 314.515625 28.339844 L 314.515625 29.402344 C 314.109375 29.570312 313.695312 29.703125 313.273438 29.792969 C 312.851562 29.882812 312.421875 29.925781 311.988281 29.925781 C 310.894531 29.925781 310.03125 29.609375 309.394531 28.976562 C 308.757812 28.339844 308.441406 27.480469 308.441406 26.398438 C 308.441406 25.277344 308.742188 24.390625 309.347656 23.734375 C 309.949219 23.078125 310.765625 22.75 311.792969 22.75 C 312.710938 22.75 313.4375 23.042969 313.972656 23.636719 C 314.507812 24.226562 314.777344 25.03125 314.777344 26.050781 Z M 313.652344 25.71875 C 313.644531 25.105469 313.472656 24.617188 313.136719 24.25 C 312.800781 23.882812 312.355469 23.699219 311.804688 23.699219 C 311.175781 23.699219 310.675781 23.875 310.300781 24.230469 C 309.921875 24.585938 309.707031 25.082031 309.648438 25.726562 Z M 313.652344 25.71875 "/>
<path style=" stroke:none;fill-rule:nonzero;fill:url(#pattern10);" d="M 238.9375 48.09375 L 263.9375 48.09375 L 263.9375 39.34375 L 238.9375 39.34375 Z M 238.9375 48.09375 "/>
<path style=" stroke:none;fill-rule:nonzero;fill:rgb(0%,0%,0%);fill-opacity:1;" d="M 276.226562 39.316406 L 276.226562 41.257812 L 278.539062 41.257812 L 278.539062 42.132812 L 276.226562 42.132812 L 276.226562 45.84375 C 276.226562 46.402344 276.304688 46.757812 276.453125 46.917969 C 276.609375 47.078125 276.917969 47.15625 277.386719 47.15625 L 278.539062 47.15625 L 278.539062 48.09375 L 277.386719 48.09375 C 276.519531 48.09375 275.921875 47.933594 275.59375 47.609375 C 275.261719 47.285156 275.097656 46.699219 275.097656 45.84375 L 275.097656 42.132812 L 274.273438 42.132812 L 274.273438 41.257812 L 275.097656 41.257812 L 275.097656 39.316406 Z M 276.226562 39.316406 "/>
<path style=" stroke:none;fill-rule:nonzero;fill:rgb(0%,0%,0%);fill-opacity:1;" d="M 283.125 44.660156 C 282.214844 44.660156 281.585938 44.761719 281.238281 44.96875 C 280.886719 45.175781 280.710938 45.53125 280.710938 46.03125 C 280.710938 46.429688 280.84375 46.746094 281.105469 46.980469 C 281.371094 47.214844 281.726562 47.332031 282.175781 47.332031 C 282.800781 47.332031 283.300781 47.109375 283.675781 46.667969 C 284.054688 46.226562 284.242188 45.640625 284.242188 44.910156 L 284.242188 44.660156 Z M 285.363281 44.195312 L 285.363281 48.09375 L 284.242188 48.09375 L 284.242188 47.058594 C 283.984375 47.472656 283.664062 47.777344 283.28125 47.976562 C 282.898438 48.175781 282.429688 48.273438 281.878906 48.273438 C 281.179688 48.273438 280.621094 48.078125 280.207031 47.683594 C 279.796875 47.289062 279.589844 46.765625 279.589844 46.105469 C 279.589844 45.335938 279.847656 44.757812 280.359375 44.367188 C 280.875 43.976562 281.644531 43.78125 282.664062 43.78125 L 284.242188 43.78125 L 284.242188 43.667969 C 284.242188 43.152344 284.070312 42.753906 283.730469 42.46875 C 283.390625 42.1875 282.914062 42.046875 282.300781 42.046875 C 281.910156 42.046875 281.527344 42.09375 281.15625 42.1875 C 280.789062 42.28125 280.433594 42.421875 280.089844 42.609375 L 280.089844 41.570312 C 280.5 41.410156 280.898438 41.292969 281.285156 41.214844 C 281.671875 41.136719 282.050781 41.09375 282.414062 41.09375 C 283.40625 41.09375 284.144531 41.351562 284.632812 41.863281 C 285.121094 42.375 285.363281 43.152344 285.363281 44.195312 Z M 285.363281 44.195312 "/>
<path style=" stroke:none;fill-rule:nonzero;fill:rgb(0%,0%,0%);fill-opacity:1;" d="M 291.636719 42.308594 C 291.511719 42.234375 291.375 42.183594 291.226562 42.148438 C 291.078125 42.113281 290.914062 42.09375 290.734375 42.09375 C 290.097656 42.09375 289.613281 42.300781 289.273438 42.714844 C 288.933594 43.128906 288.761719 43.71875 288.761719 44.492188 L 288.761719 48.09375 L 287.632812 48.09375 L 287.632812 41.257812 L 288.761719 41.257812 L 288.761719 42.320312 C 289 41.90625 289.304688 41.597656 289.683594 41.398438 C 290.0625 41.195312 290.523438 41.09375 291.066406 41.09375 C 291.140625 41.09375 291.226562 41.101562 291.320312 41.109375 C 291.414062 41.121094 291.519531 41.136719 291.632812 41.15625 Z M 291.636719 42.308594 "/>
<path style=" stroke:none;fill-rule:nonzero;fill:rgb(0%,0%,0%);fill-opacity:1;" d="M 297.09375 44.597656 C 297.09375 43.785156 296.925781 43.152344 296.589844 42.707031 C 296.257812 42.257812 295.785156 42.035156 295.179688 42.035156 C 294.578125 42.035156 294.109375 42.257812 293.773438 42.707031 C 293.4375 43.152344 293.269531 43.785156 293.269531 44.597656 C 293.269531 45.40625 293.4375 46.035156 293.773438 46.484375 C 294.109375 46.933594 294.578125 47.15625 295.179688 47.15625 C 295.785156 47.15625 296.257812 46.933594 296.589844 46.484375 C 296.925781 46.035156 297.09375 45.40625 297.09375 44.597656 Z M 298.21875 47.246094 C 298.21875 48.410156 297.960938 49.277344 297.441406 49.84375 C 296.925781 50.410156 296.136719 50.695312 295.070312 50.695312 C 294.675781 50.695312 294.300781 50.664062 293.953125 50.605469 C 293.601562 50.546875 293.261719 50.457031 292.933594 50.335938 L 292.933594 49.242188 C 293.261719 49.421875 293.585938 49.554688 293.910156 49.636719 C 294.230469 49.722656 294.558594 49.765625 294.890625 49.765625 C 295.628906 49.765625 296.179688 49.574219 296.546875 49.191406 C 296.910156 48.808594 297.09375 48.226562 297.09375 47.449219 L 297.09375 46.890625 C 296.863281 47.296875 296.566406 47.597656 296.203125 47.796875 C 295.84375 47.996094 295.410156 48.09375 294.902344 48.09375 C 294.066406 48.09375 293.390625 47.777344 292.878906 47.136719 C 292.363281 46.5 292.109375 45.652344 292.109375 44.597656 C 292.109375 43.539062 292.363281 42.691406 292.878906 42.054688 C 293.390625 41.414062 294.066406 41.09375 294.902344 41.09375 C 295.410156 41.09375 295.84375 41.195312 296.203125 41.394531 C 296.566406 41.59375 296.863281 41.894531 297.09375 42.296875 L 297.09375 41.257812 L 298.21875 41.257812 Z M 298.21875 47.246094 "/>
<path style=" stroke:none;fill-rule:nonzero;fill:rgb(0%,0%,0%);fill-opacity:1;" d="M 306.378906 44.394531 L 306.378906 44.945312 L 301.214844 44.945312 C 301.265625 45.71875 301.496094 46.308594 301.914062 46.710938 C 302.332031 47.117188 302.910156 47.320312 303.65625 47.320312 C 304.085938 47.320312 304.503906 47.265625 304.910156 47.160156 C 305.316406 47.054688 305.71875 46.898438 306.117188 46.683594 L 306.117188 47.746094 C 305.714844 47.917969 305.300781 48.046875 304.875 48.136719 C 304.453125 48.226562 304.023438 48.273438 303.589844 48.273438 C 302.5 48.273438 301.632812 47.957031 301 47.320312 C 300.359375 46.6875 300.042969 45.828125 300.042969 44.742188 C 300.042969 43.625 300.34375 42.738281 300.949219 42.082031 C 301.554688 41.425781 302.367188 41.09375 303.394531 41.09375 C 304.3125 41.09375 305.039062 41.390625 305.578125 41.984375 C 306.109375 42.574219 306.378906 43.378906 306.378906 44.394531 Z M 305.257812 44.066406 C 305.25 43.453125 305.078125 42.964844 304.742188 42.597656 C 304.40625 42.230469 303.960938 42.046875 303.40625 42.046875 C 302.78125 42.046875 302.277344 42.222656 301.902344 42.578125 C 301.527344 42.933594 301.308594 43.429688 301.25 44.074219 Z M 305.257812 44.066406 "/>
<path style=" stroke:none;fill-rule:nonzero;fill:rgb(0%,0%,0%);fill-opacity:1;" d="M 309.332031 39.316406 L 309.332031 41.257812 L 311.644531 41.257812 L 311.644531 42.132812 L 309.332031 42.132812 L 309.332031 45.84375 C 309.332031 46.402344 309.410156 46.757812 309.5625 46.917969 C 309.714844 47.078125 310.023438 47.15625 310.492188 47.15625 L 311.644531 47.15625 L 311.644531 48.09375 L 310.492188 48.09375 C 309.625 48.09375 309.027344 47.933594 308.699219 47.609375 C 308.367188 47.285156 308.203125 46.699219 308.203125 45.84375 L 308.203125 42.132812 L 307.378906 42.132812 L 307.378906 41.257812 L 308.203125 41.257812 L 308.203125 39.316406 Z M 309.332031 39.316406 "/>
</g>
</svg>
