<?xml version="1.0" encoding="UTF-8"?>
<svg xmlns="http://www.w3.org/2000/svg" xmlns:xlink="http://www.w3.org/1999/xlink" width="328pt" height="229pt" viewBox="0 0 328 229" version="1.1">
<defs>
<clipPath id="clip1">
  <path d="M 102 9 L 105 9 L 105 182.25 L 102 182.25 Z M 102 9 "/>
</clipPath>
<clipPath id="clip2">
  <path d="M 153 9 L 155 9 L 155 182.25 L 153 182.25 Z M 153 9 "/>
</clipPath>
<clipPath id="clip3">
  <path d="M 204 9 L 206 9 L 206 182.25 L 204 182.25 Z M 204 9 "/>
</clipPath>
<clipPath id="clip4">
  <path d="M 255 9 L 257 9 L 257 182.25 L 255 182.25 Z M 255 9 "/>
</clipPath>
<clipPath id="clip5">
  <path d="M 306 9 L 306.804688 9 L 306.804688 182.25 L 306 182.25 Z M 306 9 "/>
</clipPath>
<clipPath id="clip6">
  <path d="M 62.679688 148 L 306.804688 148 L 306.804688 151 L 62.679688 151 Z M 62.679688 148 "/>
</clipPath>
<clipPath id="clip7">
  <path d="M 62.679688 106 L 306.804688 106 L 306.804688 109 L 62.679688 109 Z M 62.679688 106 "/>
</clipPath>
<clipPath id="clip8">
  <path d="M 62.679688 64 L 306.804688 64 L 306.804688 67 L 62.679688 67 Z M 62.679688 64 "/>
</clipPath>
<clipPath id="clip9">
  <path d="M 62.679688 22 L 306.804688 22 L 306.804688 24 L 62.679688 24 Z M 62.679688 22 "/>
</clipPath>
<clipPath id="clip10">
  <path d="M 62.679688 15 L 306.804688 15 L 306.804688 176 L 62.679688 176 Z M 62.679688 15 "/>
</clipPath>
</defs>
<g id="surface1">
<path style=" stroke:none;fill-rule:nonzero;fill:rgb(100%,100%,100%);fill-opacity:1;" d="M 0 229.195312 L 327.734375 229.195312 L 327.734375 0 L 0 0 Z M 0 229.195312 "/>
<path style=" stroke:none;fill-rule:nonzero;fill:rgb(100%,100%,100%);fill-opacity:1;" d="M 62.679688 182.25 L 306.804688 182.25 L 306.804688 9 L 62.679688 9 Z M 62.679688 182.25 "/>
<g clip-path="url(#clip1)" clip-rule="nonzero">
<path style="fill:none;stroke-width:0.8;stroke-linecap:square;stroke-linejoin:round;stroke:rgb(69.019608%,69.019608%,69.019608%);stroke-opacity:1;stroke-miterlimit:4;" d="M 82.69375 145.8 L 82.69375 7.2 " transform="matrix(1.25,0,0,1.25,0,0)"/>
</g>
<path style="fill:none;stroke-width:0.8;stroke-linecap:butt;stroke-linejoin:round;stroke:rgb(0%,0%,0%);stroke-opacity:1;stroke-miterlimit:4;" d="M 0 0 L 0 3.5 " transform="matrix(1.25,0,0,1.25,103.367188,182.25)"/>
<path style=" stroke:none;fill-rule:nonzero;fill:rgb(0%,0%,0%);fill-opacity:1;" d="M 96.765625 191.386719 L 101.601562 191.386719 L 101.601562 192.425781 L 97.890625 192.425781 L 97.890625 194.65625 C 98.070312 194.59375 98.25 194.550781 98.429688 194.519531 C 98.609375 194.488281 98.789062 194.476562 98.96875 194.476562 C 99.984375 194.476562 100.789062 194.753906 101.382812 195.3125 C 101.976562 195.867188 102.273438 196.621094 102.273438 197.574219 C 102.273438 198.554688 101.96875 199.316406 101.359375 199.863281 C 100.75 200.40625 99.886719 200.675781 98.777344 200.675781 C 98.394531 200.675781 98.003906 200.644531 97.609375 200.578125 C 97.210938 200.511719 96.800781 200.414062 96.378906 200.285156 L 96.378906 199.046875 C 96.746094 199.246094 97.125 199.394531 97.515625 199.492188 C 97.90625 199.589844 98.316406 199.636719 98.75 199.636719 C 99.457031 199.636719 100.015625 199.453125 100.421875 199.082031 C 100.835938 198.710938 101.039062 198.210938 101.039062 197.574219 C 101.039062 196.941406 100.835938 196.4375 100.421875 196.070312 C 100.015625 195.699219 99.457031 195.511719 98.75 195.511719 C 98.421875 195.511719 98.09375 195.546875 97.765625 195.621094 C 97.4375 195.695312 97.105469 195.808594 96.765625 195.964844 Z M 96.765625 191.386719 "/>
<path style=" stroke:none;fill-rule:nonzero;fill:rgb(0%,0%,0%);fill-opacity:1;" d="M 107.339844 192.199219 C 106.707031 192.199219 106.226562 192.511719 105.90625 193.136719 C 105.589844 193.757812 105.429688 194.699219 105.429688 195.953125 C 105.429688 197.199219 105.589844 198.136719 105.90625 198.761719 C 106.226562 199.386719 106.707031 199.699219 107.339844 199.699219 C 107.980469 199.699219 108.457031 199.386719 108.777344 198.761719 C 109.097656 198.136719 109.257812 197.199219 109.257812 195.953125 C 109.257812 194.699219 109.097656 193.757812 108.777344 193.136719 C 108.457031 192.511719 107.980469 192.199219 107.339844 192.199219 Z M 107.339844 191.222656 C 108.363281 191.222656 109.140625 191.625 109.679688 192.433594 C 110.21875 193.242188 110.488281 194.414062 110.488281 195.953125 C 110.488281 197.484375 110.21875 198.65625 109.679688 199.464844 C 109.140625 200.273438 108.363281 200.675781 107.339844 200.675781 C 106.320312 200.675781 105.539062 200.273438 105 199.464844 C 104.460938 198.65625 104.191406 197.484375 104.191406 195.953125 C 104.191406 194.414062 104.460938 193.242188 105 192.433594 C 105.539062 191.625 106.320312 191.222656 107.339844 191.222656 Z M 107.339844 191.222656 "/>
<g clip-path="url(#clip2)" clip-rule="nonzero">
<path style="fill:none;stroke-width:0.8;stroke-linecap:square;stroke-linejoin:round;stroke:rgb(69.019608%,69.019608%,69.019608%);stroke-opacity:1;stroke-miterlimit:4;" d="M 123.38125 145.8 L 123.38125 7.2 " transform="matrix(1.25,0,0,1.25,0,0)"/>
</g>
<path style="fill:none;stroke-width:0.8;stroke-linecap:butt;stroke-linejoin:round;stroke:rgb(0%,0%,0%);stroke-opacity:1;stroke-miterlimit:4;" d="M 0 0 L 0 3.5 " transform="matrix(1.25,0,0,1.25,154.226562,182.25)"/>
<path style=" stroke:none;fill-rule:nonzero;fill:rgb(0%,0%,0%);fill-opacity:1;" d="M 143.847656 199.460938 L 145.859375 199.460938 L 145.859375 192.507812 L 143.671875 192.949219 L 143.671875 191.824219 L 145.851562 191.386719 L 147.082031 191.386719 L 147.082031 199.460938 L 149.09375 199.460938 L 149.09375 200.5 L 143.847656 200.5 Z M 143.847656 199.460938 "/>
<path style=" stroke:none;fill-rule:nonzero;fill:rgb(0%,0%,0%);fill-opacity:1;" d="M 154.222656 192.199219 C 153.589844 192.199219 153.109375 192.511719 152.789062 193.136719 C 152.472656 193.757812 152.3125 194.699219 152.3125 195.953125 C 152.3125 197.199219 152.472656 198.136719 152.789062 198.761719 C 153.109375 199.386719 153.589844 199.699219 154.222656 199.699219 C 154.863281 199.699219 155.339844 199.386719 155.660156 198.761719 C 155.980469 198.136719 156.140625 197.199219 156.140625 195.953125 C 156.140625 194.699219 155.980469 193.757812 155.660156 193.136719 C 155.339844 192.511719 154.863281 192.199219 154.222656 192.199219 Z M 154.222656 191.222656 C 155.246094 191.222656 156.023438 191.625 156.5625 192.433594 C 157.101562 193.242188 157.371094 194.414062 157.371094 195.953125 C 157.371094 197.484375 157.101562 198.65625 156.5625 199.464844 C 156.023438 200.273438 155.246094 200.675781 154.222656 200.675781 C 153.203125 200.675781 152.421875 200.273438 151.882812 199.464844 C 151.34375 198.65625 151.074219 197.484375 151.074219 195.953125 C 151.074219 194.414062 151.34375 193.242188 151.882812 192.433594 C 152.421875 191.625 153.203125 191.222656 154.222656 191.222656 Z M 154.222656 191.222656 "/>
<path style=" stroke:none;fill-rule:nonzero;fill:rgb(0%,0%,0%);fill-opacity:1;" d="M 162.175781 192.199219 C 161.542969 192.199219 161.0625 192.511719 160.742188 193.136719 C 160.425781 193.757812 160.265625 194.699219 160.265625 195.953125 C 160.265625 197.199219 160.425781 198.136719 160.742188 198.761719 C 161.0625 199.386719 161.542969 199.699219 162.175781 199.699219 C 162.816406 199.699219 163.292969 199.386719 163.613281 198.761719 C 163.933594 198.136719 164.09375 197.199219 164.09375 195.953125 C 164.09375 194.699219 163.933594 193.757812 163.613281 193.136719 C 163.292969 192.511719 162.816406 192.199219 162.175781 192.199219 Z M 162.175781 191.222656 C 163.199219 191.222656 163.976562 191.625 164.515625 192.433594 C 165.054688 193.242188 165.324219 194.414062 165.324219 195.953125 C 165.324219 197.484375 165.054688 198.65625 164.515625 199.464844 C 163.976562 200.273438 163.199219 200.675781 162.175781 200.675781 C 161.15625 200.675781 160.375 200.273438 159.835938 199.464844 C 159.296875 198.65625 159.027344 197.484375 159.027344 195.953125 C 159.027344 194.414062 159.296875 193.242188 159.835938 192.433594 C 160.375 191.625 161.15625 191.222656 162.175781 191.222656 Z M 162.175781 191.222656 "/>
<g clip-path="url(#clip3)" clip-rule="nonzero">
<path style="fill:none;stroke-width:0.8;stroke-linecap:square;stroke-linejoin:round;stroke:rgb(69.019608%,69.019608%,69.019608%);stroke-opacity:1;stroke-miterlimit:4;" d="M 164.06875 145.8 L 164.06875 7.2 " transform="matrix(1.25,0,0,1.25,0,0)"/>
</g>
<path style="fill:none;stroke-width:0.8;stroke-linecap:butt;stroke-linejoin:round;stroke:rgb(0%,0%,0%);stroke-opacity:1;stroke-miterlimit:4;" d="M 0 0 L 0 3.5 " transform="matrix(1.25,0,0,1.25,205.085938,182.25)"/>
<path style=" stroke:none;fill-rule:nonzero;fill:rgb(0%,0%,0%);fill-opacity:1;" d="M 194.707031 199.460938 L 196.71875 199.460938 L 196.71875 192.507812 L 194.53125 192.949219 L 194.53125 191.824219 L 196.710938 191.386719 L 197.941406 191.386719 L 197.941406 199.460938 L 199.953125 199.460938 L 199.953125 200.5 L 194.707031 200.5 Z M 194.707031 199.460938 "/>
<path style=" stroke:none;fill-rule:nonzero;fill:rgb(0%,0%,0%);fill-opacity:1;" d="M 202.457031 191.386719 L 207.296875 191.386719 L 207.296875 192.425781 L 203.585938 192.425781 L 203.585938 194.65625 C 203.765625 194.59375 203.945312 194.550781 204.121094 194.519531 C 204.300781 194.488281 204.480469 194.476562 204.660156 194.476562 C 205.679688 194.476562 206.484375 194.753906 207.078125 195.3125 C 207.671875 195.867188 207.96875 196.621094 207.96875 197.574219 C 207.96875 198.554688 207.664062 199.316406 207.054688 199.863281 C 206.445312 200.40625 205.582031 200.675781 204.472656 200.675781 C 204.089844 200.675781 203.699219 200.644531 203.300781 200.578125 C 202.90625 200.511719 202.496094 200.414062 202.074219 200.285156 L 202.074219 199.046875 C 202.441406 199.246094 202.816406 199.394531 203.207031 199.492188 C 203.597656 199.589844 204.011719 199.636719 204.445312 199.636719 C 205.152344 199.636719 205.707031 199.453125 206.117188 199.082031 C 206.53125 198.710938 206.734375 198.210938 206.734375 197.574219 C 206.734375 196.941406 206.53125 196.4375 206.117188 196.070312 C 205.707031 195.699219 205.152344 195.511719 204.445312 195.511719 C 204.117188 195.511719 203.789062 195.546875 203.460938 195.621094 C 203.132812 195.695312 202.800781 195.808594 202.457031 195.964844 Z M 202.457031 191.386719 "/>
<path style=" stroke:none;fill-rule:nonzero;fill:rgb(0%,0%,0%);fill-opacity:1;" d="M 213.035156 192.199219 C 212.402344 192.199219 211.921875 192.511719 211.601562 193.136719 C 211.285156 193.757812 211.125 194.699219 211.125 195.953125 C 211.125 197.199219 211.285156 198.136719 211.601562 198.761719 C 211.921875 199.386719 212.402344 199.699219 213.035156 199.699219 C 213.675781 199.699219 214.152344 199.386719 214.472656 198.761719 C 214.792969 198.136719 214.953125 197.199219 214.953125 195.953125 C 214.953125 194.699219 214.792969 193.757812 214.472656 193.136719 C 214.152344 192.511719 213.675781 192.199219 213.035156 192.199219 Z M 213.035156 191.222656 C 214.058594 191.222656 214.835938 191.625 215.375 192.433594 C 215.914062 193.242188 216.183594 194.414062 216.183594 195.953125 C 216.183594 197.484375 215.914062 198.65625 215.375 199.464844 C 214.835938 200.273438 214.058594 200.675781 213.035156 200.675781 C 212.015625 200.675781 211.234375 200.273438 210.695312 199.464844 C 210.15625 198.65625 209.886719 197.484375 209.886719 195.953125 C 209.886719 194.414062 210.15625 193.242188 210.695312 192.433594 C 211.234375 191.625 212.015625 191.222656 213.035156 191.222656 Z M 213.035156 191.222656 "/>
<g clip-path="url(#clip4)" clip-rule="nonzero">
<path style="fill:none;stroke-width:0.8;stroke-linecap:square;stroke-linejoin:round;stroke:rgb(69.019608%,69.019608%,69.019608%);stroke-opacity:1;stroke-miterlimit:4;" d="M 204.75625 145.8 L 204.75625 7.2 " transform="matrix(1.25,0,0,1.25,0,0)"/>
</g>
<path style="fill:none;stroke-width:0.8;stroke-linecap:butt;stroke-linejoin:round;stroke:rgb(0%,0%,0%);stroke-opacity:1;stroke-miterlimit:4;" d="M 0 0 L 0 3.5 " transform="matrix(1.25,0,0,1.25,255.945312,182.25)"/>
<path style=" stroke:none;fill-rule:nonzero;fill:rgb(0%,0%,0%);fill-opacity:1;" d="M 246.414062 199.460938 L 250.71875 199.460938 L 250.71875 200.5 L 244.929688 200.5 L 244.929688 199.460938 C 245.398438 198.976562 246.035156 198.328125 246.84375 197.511719 C 247.652344 196.695312 248.160156 196.167969 248.367188 195.933594 C 248.761719 195.488281 249.039062 195.113281 249.195312 194.808594 C 249.351562 194.5 249.429688 194.199219 249.429688 193.902344 C 249.429688 193.417969 249.257812 193.023438 248.921875 192.71875 C 248.578125 192.410156 248.136719 192.257812 247.59375 192.257812 C 247.203125 192.257812 246.796875 192.324219 246.367188 192.460938 C 245.9375 192.59375 245.480469 192.796875 244.992188 193.070312 L 244.992188 191.824219 C 245.488281 191.625 245.953125 191.476562 246.382812 191.375 C 246.816406 191.273438 247.210938 191.222656 247.570312 191.222656 C 248.511719 191.222656 249.265625 191.457031 249.828125 191.929688 C 250.386719 192.402344 250.667969 193.03125 250.667969 193.820312 C 250.667969 194.195312 250.597656 194.550781 250.457031 194.886719 C 250.316406 195.222656 250.0625 195.617188 249.691406 196.074219 C 249.589844 196.191406 249.265625 196.53125 248.71875 197.097656 C 248.175781 197.660156 247.40625 198.449219 246.414062 199.460938 Z M 246.414062 199.460938 "/>
<path style=" stroke:none;fill-rule:nonzero;fill:rgb(0%,0%,0%);fill-opacity:1;" d="M 255.941406 192.199219 C 255.308594 192.199219 254.828125 192.511719 254.507812 193.136719 C 254.191406 193.757812 254.03125 194.699219 254.03125 195.953125 C 254.03125 197.199219 254.191406 198.136719 254.507812 198.761719 C 254.828125 199.386719 255.308594 199.699219 255.941406 199.699219 C 256.582031 199.699219 257.058594 199.386719 257.378906 198.761719 C 257.699219 198.136719 257.859375 197.199219 257.859375 195.953125 C 257.859375 194.699219 257.699219 193.757812 257.378906 193.136719 C 257.058594 192.511719 256.582031 192.199219 255.941406 192.199219 Z M 255.941406 191.222656 C 256.964844 191.222656 257.742188 191.625 258.28125 192.433594 C 258.820312 193.242188 259.089844 194.414062 259.089844 195.953125 C 259.089844 197.484375 258.820312 198.65625 258.28125 199.464844 C 257.742188 200.273438 256.964844 200.675781 255.941406 200.675781 C 254.921875 200.675781 254.140625 200.273438 253.601562 199.464844 C 253.0625 198.65625 252.792969 197.484375 252.792969 195.953125 C 252.792969 194.414062 253.0625 193.242188 253.601562 192.433594 C 254.140625 191.625 254.921875 191.222656 255.941406 191.222656 Z M 255.941406 191.222656 "/>
<path style=" stroke:none;fill-rule:nonzero;fill:rgb(0%,0%,0%);fill-opacity:1;" d="M 263.894531 192.199219 C 263.261719 192.199219 262.78125 192.511719 262.460938 193.136719 C 262.144531 193.757812 261.984375 194.699219 261.984375 195.953125 C 261.984375 197.199219 262.144531 198.136719 262.460938 198.761719 C 262.78125 199.386719 263.261719 199.699219 263.894531 199.699219 C 264.535156 199.699219 265.011719 199.386719 265.332031 198.761719 C 265.652344 198.136719 265.8125 197.199219 265.8125 195.953125 C 265.8125 194.699219 265.652344 193.757812 265.332031 193.136719 C 265.011719 192.511719 264.535156 192.199219 263.894531 192.199219 Z M 263.894531 191.222656 C 264.917969 191.222656 265.695312 191.625 266.234375 192.433594 C 266.773438 193.242188 267.042969 194.414062 267.042969 195.953125 C 267.042969 197.484375 266.773438 198.65625 266.234375 199.464844 C 265.695312 200.273438 264.917969 200.675781 263.894531 200.675781 C 262.875 200.675781 262.09375 200.273438 261.554688 199.464844 C 261.015625 198.65625 260.746094 197.484375 260.746094 195.953125 C 260.746094 194.414062 261.015625 193.242188 261.554688 192.433594 C 262.09375 191.625 262.875 191.222656 263.894531 191.222656 Z M 263.894531 191.222656 "/>
<g clip-path="url(#clip5)" clip-rule="nonzero">
<path style="fill:none;stroke-width:0.8;stroke-linecap:square;stroke-linejoin:round;stroke:rgb(69.019608%,69.019608%,69.019608%);stroke-opacity:1;stroke-miterlimit:4;" d="M 245.44375 145.8 L 245.44375 7.2 " transform="matrix(1.25,0,0,1.25,0,0)"/>
</g>
<path style="fill:none;stroke-width:0.8;stroke-linecap:butt;stroke-linejoin:round;stroke:rgb(0%,0%,0%);stroke-opacity:1;stroke-miterlimit:4;" d="M 0 0 L 0 3.5 " transform="matrix(1.25,0,0,1.25,306.804688,182.25)"/>
<path style=" stroke:none;fill-rule:nonzero;fill:rgb(0%,0%,0%);fill-opacity:1;" d="M 297.273438 199.460938 L 301.578125 199.460938 L 301.578125 200.5 L 295.789062 200.5 L 295.789062 199.460938 C 296.257812 198.976562 296.894531 198.328125 297.703125 197.511719 C 298.511719 196.695312 299.019531 196.167969 299.226562 195.933594 C 299.621094 195.488281 299.898438 195.113281 300.054688 194.808594 C 300.210938 194.5 300.289062 194.199219 300.289062 193.902344 C 300.289062 193.417969 300.117188 193.023438 299.78125 192.71875 C 299.4375 192.410156 298.996094 192.257812 298.453125 192.257812 C 298.0625 192.257812 297.65625 192.324219 297.226562 192.460938 C 296.796875 192.59375 296.339844 192.796875 295.851562 193.070312 L 295.851562 191.824219 C 296.347656 191.625 296.8125 191.476562 297.242188 191.375 C 297.675781 191.273438 298.070312 191.222656 298.429688 191.222656 C 299.371094 191.222656 300.125 191.457031 300.6875 191.929688 C 301.246094 192.402344 301.527344 193.03125 301.527344 193.820312 C 301.527344 194.195312 301.457031 194.550781 301.316406 194.886719 C 301.175781 195.222656 300.921875 195.617188 300.550781 196.074219 C 300.449219 196.191406 300.125 196.53125 299.578125 197.097656 C 299.035156 197.660156 298.265625 198.449219 297.273438 199.460938 Z M 297.273438 199.460938 "/>
<path style=" stroke:none;fill-rule:nonzero;fill:rgb(0%,0%,0%);fill-opacity:1;" d="M 304.175781 191.386719 L 309.015625 191.386719 L 309.015625 192.425781 L 305.304688 192.425781 L 305.304688 194.65625 C 305.484375 194.59375 305.664062 194.550781 305.839844 194.519531 C 306.019531 194.488281 306.199219 194.476562 306.378906 194.476562 C 307.398438 194.476562 308.203125 194.753906 308.796875 195.3125 C 309.390625 195.867188 309.6875 196.621094 309.6875 197.574219 C 309.6875 198.554688 309.382812 199.316406 308.773438 199.863281 C 308.164062 200.40625 307.300781 200.675781 306.191406 200.675781 C 305.808594 200.675781 305.417969 200.644531 305.019531 200.578125 C 304.625 200.511719 304.214844 200.414062 303.792969 200.285156 L 303.792969 199.046875 C 304.160156 199.246094 304.535156 199.394531 304.925781 199.492188 C 305.316406 199.589844 305.730469 199.636719 306.164062 199.636719 C 306.871094 199.636719 307.425781 199.453125 307.835938 199.082031 C 308.25 198.710938 308.453125 198.210938 308.453125 197.574219 C 308.453125 196.941406 308.25 196.4375 307.835938 196.070312 C 307.425781 195.699219 306.871094 195.511719 306.164062 195.511719 C 305.835938 195.511719 305.507812 195.546875 305.179688 195.621094 C 304.851562 195.695312 304.519531 195.808594 304.175781 195.964844 Z M 304.175781 191.386719 "/>
<path style=" stroke:none;fill-rule:nonzero;fill:rgb(0%,0%,0%);fill-opacity:1;" d="M 314.753906 192.199219 C 314.121094 192.199219 313.640625 192.511719 313.320312 193.136719 C 313.003906 193.757812 312.84375 194.699219 312.84375 195.953125 C 312.84375 197.199219 313.003906 198.136719 313.320312 198.761719 C 313.640625 199.386719 314.121094 199.699219 314.753906 199.699219 C 315.394531 199.699219 315.871094 199.386719 316.191406 198.761719 C 316.511719 198.136719 316.671875 197.199219 316.671875 195.953125 C 316.671875 194.699219 316.511719 193.757812 316.191406 193.136719 C 315.871094 192.511719 315.394531 192.199219 314.753906 192.199219 Z M 314.753906 191.222656 C 315.777344 191.222656 316.554688 191.625 317.09375 192.433594 C 317.632812 193.242188 317.902344 194.414062 317.902344 195.953125 C 317.902344 197.484375 317.632812 198.65625 317.09375 199.464844 C 316.554688 200.273438 315.777344 200.675781 314.753906 200.675781 C 313.734375 200.675781 312.953125 200.273438 312.414062 199.464844 C 311.875 198.65625 311.605469 197.484375 311.605469 195.953125 C 311.605469 194.414062 311.875 193.242188 312.414062 192.433594 C 312.953125 191.625 313.734375 191.222656 314.753906 191.222656 Z M 314.753906 191.222656 "/>
<path style=" stroke:none;fill-rule:nonzero;fill:rgb(0%,0%,0%);fill-opacity:1;" d="M 172.734375 213.898438 L 172.734375 214.445312 L 167.570312 214.445312 C 167.617188 215.21875 167.851562 215.808594 168.265625 216.214844 C 168.683594 216.617188 169.265625 216.820312 170.007812 216.820312 C 170.441406 216.820312 170.859375 216.769531 171.265625 216.664062 C 171.667969 216.558594 172.070312 216.398438 172.46875 216.1875 L 172.46875 217.25 C 172.066406 217.417969 171.652344 217.550781 171.230469 217.640625 C 170.808594 217.730469 170.378906 217.773438 169.945312 217.773438 C 168.851562 217.773438 167.988281 217.457031 167.351562 216.824219 C 166.714844 216.1875 166.398438 215.328125 166.398438 214.246094 C 166.398438 213.125 166.699219 212.238281 167.304688 211.582031 C 167.90625 210.925781 168.722656 210.597656 169.75 210.597656 C 170.667969 210.597656 171.394531 210.890625 171.929688 211.484375 C 172.464844 212.074219 172.734375 212.878906 172.734375 213.898438 Z M 171.609375 213.566406 C 171.601562 212.953125 171.429688 212.464844 171.09375 212.097656 C 170.757812 211.730469 170.3125 211.546875 169.757812 211.546875 C 169.132812 211.546875 168.632812 211.722656 168.257812 212.078125 C 167.878906 212.433594 167.664062 212.929688 167.605469 213.574219 Z M 171.609375 213.566406 "/>
<path style=" stroke:none;fill-rule:nonzero;fill:rgb(0%,0%,0%);fill-opacity:1;" d="M 175.660156 216.570312 L 175.660156 220.195312 L 174.53125 220.195312 L 174.53125 210.761719 L 175.660156 210.761719 L 175.660156 211.796875 C 175.898438 211.390625 176.195312 211.089844 176.554688 210.894531 C 176.917969 210.695312 177.347656 210.597656 177.847656 210.597656 C 178.675781 210.597656 179.351562 210.925781 179.871094 211.585938 C 180.390625 212.242188 180.648438 213.109375 180.648438 214.183594 C 180.648438 215.257812 180.390625 216.125 179.871094 216.785156 C 179.351562 217.445312 178.675781 217.773438 177.847656 217.773438 C 177.347656 217.773438 176.917969 217.675781 176.554688 217.476562 C 176.195312 217.277344 175.898438 216.976562 175.660156 216.570312 Z M 179.484375 214.183594 C 179.484375 213.359375 179.3125 212.710938 178.972656 212.242188 C 178.632812 211.769531 178.167969 211.535156 177.574219 211.535156 C 176.976562 211.535156 176.511719 211.769531 176.171875 212.242188 C 175.832031 212.710938 175.660156 213.359375 175.660156 214.183594 C 175.660156 215.007812 175.832031 215.65625 176.171875 216.128906 C 176.511719 216.597656 176.976562 216.832031 177.574219 216.832031 C 178.167969 216.832031 178.632812 216.597656 178.972656 216.128906 C 179.3125 215.65625 179.484375 215.007812 179.484375 214.183594 Z M 179.484375 214.183594 "/>
<path style=" stroke:none;fill-rule:nonzero;fill:rgb(0%,0%,0%);fill-opacity:1;" d="M 185.15625 211.546875 C 184.554688 211.546875 184.082031 211.78125 183.730469 212.253906 C 183.378906 212.722656 183.203125 213.367188 183.203125 214.183594 C 183.203125 215 183.378906 215.644531 183.726562 216.117188 C 184.074219 216.585938 184.554688 216.820312 185.15625 216.820312 C 185.757812 216.820312 186.230469 216.585938 186.578125 216.113281 C 186.929688 215.640625 187.105469 214.996094 187.105469 214.183594 C 187.105469 213.375 186.929688 212.730469 186.578125 212.257812 C 186.230469 211.785156 185.757812 211.546875 185.15625 211.546875 Z M 185.15625 210.597656 C 186.132812 210.597656 186.902344 210.914062 187.460938 211.550781 C 188.015625 212.183594 188.296875 213.0625 188.296875 214.183594 C 188.296875 215.300781 188.015625 216.179688 187.460938 216.820312 C 186.902344 217.457031 186.132812 217.773438 185.15625 217.773438 C 184.179688 217.773438 183.410156 217.457031 182.851562 216.820312 C 182.296875 216.179688 182.023438 215.300781 182.023438 214.183594 C 182.023438 213.0625 182.296875 212.183594 182.851562 211.550781 C 183.410156 210.914062 184.179688 210.597656 185.15625 210.597656 Z M 185.15625 210.597656 "/>
<path style=" stroke:none;fill-rule:nonzero;fill:rgb(0%,0%,0%);fill-opacity:1;" d="M 195.078125 211.023438 L 195.078125 212.074219 C 194.757812 211.898438 194.441406 211.765625 194.121094 211.679688 C 193.804688 211.589844 193.480469 211.546875 193.15625 211.546875 C 192.425781 211.546875 191.859375 211.777344 191.457031 212.242188 C 191.054688 212.703125 190.851562 213.347656 190.851562 214.183594 C 190.851562 215.019531 191.054688 215.667969 191.457031 216.128906 C 191.859375 216.589844 192.425781 216.820312 193.15625 216.820312 C 193.480469 216.820312 193.804688 216.777344 194.121094 216.691406 C 194.441406 216.601562 194.757812 216.472656 195.078125 216.296875 L 195.078125 217.335938 C 194.761719 217.480469 194.4375 217.589844 194.101562 217.664062 C 193.769531 217.738281 193.410156 217.773438 193.03125 217.773438 C 192.003906 217.773438 191.183594 217.449219 190.578125 216.804688 C 189.972656 216.15625 189.667969 215.28125 189.667969 214.183594 C 189.667969 213.070312 189.976562 212.191406 190.585938 211.554688 C 191.199219 210.914062 192.039062 210.597656 193.105469 210.597656 C 193.453125 210.597656 193.789062 210.632812 194.117188 210.703125 C 194.449219 210.773438 194.765625 210.878906 195.078125 211.023438 Z M 195.078125 211.023438 "/>
<path style=" stroke:none;fill-rule:nonzero;fill:rgb(0%,0%,0%);fill-opacity:1;" d="M 202.714844 213.46875 L 202.714844 217.597656 L 201.589844 217.597656 L 201.589844 213.507812 C 201.589844 212.859375 201.464844 212.375 201.210938 212.054688 C 200.960938 211.734375 200.582031 211.574219 200.078125 211.574219 C 199.46875 211.574219 198.992188 211.765625 198.640625 212.152344 C 198.292969 212.539062 198.117188 213.066406 198.117188 213.734375 L 198.117188 217.597656 L 196.988281 217.597656 L 196.988281 208.097656 L 198.117188 208.097656 L 198.117188 211.824219 C 198.386719 211.410156 198.703125 211.105469 199.066406 210.902344 C 199.429688 210.699219 199.851562 210.597656 200.328125 210.597656 C 201.113281 210.597656 201.707031 210.839844 202.109375 211.324219 C 202.511719 211.808594 202.714844 212.523438 202.714844 213.46875 Z M 202.714844 213.46875 "/>
<g clip-path="url(#clip6)" clip-rule="nonzero">
<path style="fill:none;stroke-width:0.8;stroke-linecap:square;stroke-linejoin:round;stroke:rgb(69.019608%,69.019608%,69.019608%);stroke-opacity:1;stroke-miterlimit:4;" d="M 50.14375 119.621875 L 245.44375 119.621875 " transform="matrix(1.25,0,0,1.25,0,0)"/>
</g>
<path style="fill:none;stroke-width:0.8;stroke-linecap:butt;stroke-linejoin:round;stroke:rgb(0%,0%,0%);stroke-opacity:1;stroke-miterlimit:4;" d="M 0 -0.001487 L -3.5 -0.001487 " transform="matrix(1.25,0,0,1.25,62.679688,149.529202)"/>
<path style=" stroke:none;fill-rule:nonzero;fill:rgb(0%,0%,0%);fill-opacity:1;" d="M 30.070312 145.976562 C 29.4375 145.976562 28.960938 146.289062 28.640625 146.914062 C 28.320312 147.539062 28.160156 148.476562 28.160156 149.730469 C 28.160156 150.980469 28.320312 151.917969 28.640625 152.542969 C 28.960938 153.167969 29.4375 153.480469 30.070312 153.480469 C 30.710938 153.480469 31.1875 153.167969 31.507812 152.542969 C 31.828125 151.917969 31.988281 150.980469 31.988281 149.730469 C 31.988281 148.476562 31.828125 147.539062 31.507812 146.914062 C 31.1875 146.289062 30.710938 145.976562 30.070312 145.976562 Z M 30.070312 145 C 31.09375 145 31.875 145.40625 32.414062 146.214844 C 32.953125 147.019531 33.21875 148.195312 33.21875 149.730469 C 33.21875 151.265625 32.953125 152.4375 32.414062 153.246094 C 31.875 154.050781 31.09375 154.457031 30.070312 154.457031 C 29.050781 154.457031 28.269531 154.050781 27.730469 153.246094 C 27.191406 152.4375 26.921875 151.265625 26.921875 149.730469 C 26.921875 148.195312 27.191406 147.019531 27.730469 146.214844 C 28.269531 145.40625 29.050781 145 30.070312 145 Z M 30.070312 145 "/>
<path style=" stroke:none;fill-rule:nonzero;fill:rgb(0%,0%,0%);fill-opacity:1;" d="M 35.386719 152.726562 L 36.675781 152.726562 L 36.675781 154.277344 L 35.386719 154.277344 Z M 35.386719 152.726562 "/>
<path style=" stroke:none;fill-rule:nonzero;fill:rgb(0%,0%,0%);fill-opacity:1;" d="M 41.996094 145.976562 C 41.363281 145.976562 40.886719 146.289062 40.566406 146.914062 C 40.246094 147.539062 40.085938 148.476562 40.085938 149.730469 C 40.085938 150.980469 40.246094 151.917969 40.566406 152.542969 C 40.886719 153.167969 41.363281 153.480469 41.996094 153.480469 C 42.636719 153.480469 43.113281 153.167969 43.433594 152.542969 C 43.753906 151.917969 43.914062 150.980469 43.914062 149.730469 C 43.914062 148.476562 43.753906 147.539062 43.433594 146.914062 C 43.113281 146.289062 42.636719 145.976562 41.996094 145.976562 Z M 41.996094 145 C 43.019531 145 43.800781 145.40625 44.339844 146.214844 C 44.878906 147.019531 45.148438 148.195312 45.148438 149.730469 C 45.148438 151.265625 44.878906 152.4375 44.339844 153.246094 C 43.800781 154.050781 43.019531 154.457031 41.996094 154.457031 C 40.976562 154.457031 40.195312 154.050781 39.65625 153.246094 C 39.117188 152.4375 38.847656 151.265625 38.847656 149.730469 C 38.847656 148.195312 39.117188 147.019531 39.65625 146.214844 C 40.195312 145.40625 40.976562 145 41.996094 145 Z M 41.996094 145 "/>
<path style=" stroke:none;fill-rule:nonzero;fill:rgb(0%,0%,0%);fill-opacity:1;" d="M 47.328125 145.164062 L 52.167969 145.164062 L 52.167969 146.203125 L 48.457031 146.203125 L 48.457031 148.4375 C 48.632812 148.375 48.8125 148.328125 48.992188 148.300781 C 49.171875 148.269531 49.351562 148.253906 49.53125 148.253906 C 50.546875 148.253906 51.351562 148.535156 51.945312 149.089844 C 52.539062 149.648438 52.839844 150.402344 52.839844 151.355469 C 52.839844 152.335938 52.53125 153.097656 51.921875 153.640625 C 51.3125 154.183594 50.449219 154.457031 49.339844 154.457031 C 48.957031 154.457031 48.566406 154.421875 48.171875 154.359375 C 47.773438 154.292969 47.363281 154.195312 46.941406 154.066406 L 46.941406 152.824219 C 47.308594 153.023438 47.6875 153.171875 48.078125 153.269531 C 48.46875 153.367188 48.878906 153.417969 49.316406 153.417969 C 50.019531 153.417969 50.578125 153.230469 50.988281 152.863281 C 51.398438 152.492188 51.605469 151.988281 51.605469 151.355469 C 51.605469 150.71875 51.398438 150.21875 50.988281 149.847656 C 50.578125 149.476562 50.019531 149.292969 49.316406 149.292969 C 48.984375 149.292969 48.65625 149.328125 48.328125 149.402344 C 48 149.472656 47.667969 149.589844 47.328125 149.742188 Z M 47.328125 145.164062 "/>
<g clip-path="url(#clip7)" clip-rule="nonzero">
<path style="fill:none;stroke-width:0.8;stroke-linecap:square;stroke-linejoin:round;stroke:rgb(69.019608%,69.019608%,69.019608%);stroke-opacity:1;stroke-miterlimit:4;" d="M 50.14375 85.940625 L 245.44375 85.940625 " transform="matrix(1.25,0,0,1.25,0,0)"/>
</g>
<path style="fill:none;stroke-width:0.8;stroke-linecap:butt;stroke-linejoin:round;stroke:rgb(0%,0%,0%);stroke-opacity:1;stroke-miterlimit:4;" d="M 0 0.00026 L -3.5 0.00026 " transform="matrix(1.25,0,0,1.25,62.679688,107.425456)"/>
<path style=" stroke:none;fill-rule:nonzero;fill:rgb(0%,0%,0%);fill-opacity:1;" d="M 30.070312 103.875 C 29.4375 103.875 28.960938 104.1875 28.640625 104.8125 C 28.320312 105.433594 28.160156 106.375 28.160156 107.628906 C 28.160156 108.875 28.320312 109.8125 28.640625 110.4375 C 28.960938 111.0625 29.4375 111.375 30.070312 111.375 C 30.710938 111.375 31.1875 111.0625 31.507812 110.4375 C 31.828125 109.8125 31.988281 108.875 31.988281 107.628906 C 31.988281 106.375 31.828125 105.433594 31.507812 104.8125 C 31.1875 104.1875 30.710938 103.875 30.070312 103.875 Z M 30.070312 102.898438 C 31.09375 102.898438 31.875 103.300781 32.414062 104.109375 C 32.953125 104.917969 33.21875 106.089844 33.21875 107.628906 C 33.21875 109.160156 32.953125 110.332031 32.414062 111.140625 C 31.875 111.949219 31.09375 112.351562 30.070312 112.351562 C 29.050781 112.351562 28.269531 111.949219 27.730469 111.140625 C 27.191406 110.332031 26.921875 109.160156 26.921875 107.628906 C 26.921875 106.089844 27.191406 104.917969 27.730469 104.109375 C 28.269531 103.300781 29.050781 102.898438 30.070312 102.898438 Z M 30.070312 102.898438 "/>
<path style=" stroke:none;fill-rule:nonzero;fill:rgb(0%,0%,0%);fill-opacity:1;" d="M 35.386719 110.625 L 36.675781 110.625 L 36.675781 112.175781 L 35.386719 112.175781 Z M 35.386719 110.625 "/>
<path style=" stroke:none;fill-rule:nonzero;fill:rgb(0%,0%,0%);fill-opacity:1;" d="M 39.574219 111.136719 L 41.589844 111.136719 L 41.589844 104.183594 L 39.398438 104.625 L 39.398438 103.5 L 41.578125 103.0625 L 42.808594 103.0625 L 42.808594 111.136719 L 44.824219 111.136719 L 44.824219 112.175781 L 39.574219 112.175781 Z M 39.574219 111.136719 "/>
<path style=" stroke:none;fill-rule:nonzero;fill:rgb(0%,0%,0%);fill-opacity:1;" d="M 49.949219 103.875 C 49.316406 103.875 48.839844 104.1875 48.519531 104.8125 C 48.199219 105.433594 48.039062 106.375 48.039062 107.628906 C 48.039062 108.875 48.199219 109.8125 48.519531 110.4375 C 48.839844 111.0625 49.316406 111.375 49.949219 111.375 C 50.589844 111.375 51.066406 111.0625 51.386719 110.4375 C 51.707031 109.8125 51.867188 108.875 51.867188 107.628906 C 51.867188 106.375 51.707031 105.433594 51.386719 104.8125 C 51.066406 104.1875 50.589844 103.875 49.949219 103.875 Z M 49.949219 102.898438 C 50.972656 102.898438 51.753906 103.300781 52.292969 104.109375 C 52.832031 104.917969 53.101562 106.089844 53.101562 107.628906 C 53.101562 109.160156 52.832031 110.332031 52.292969 111.140625 C 51.753906 111.949219 50.972656 112.351562 49.949219 112.351562 C 48.929688 112.351562 48.148438 111.949219 47.609375 111.140625 C 47.070312 110.332031 46.800781 109.160156 46.800781 107.628906 C 46.800781 106.089844 47.070312 104.917969 47.609375 104.109375 C 48.148438 103.300781 48.929688 102.898438 49.949219 102.898438 Z M 49.949219 102.898438 "/>
<g clip-path="url(#clip8)" clip-rule="nonzero">
<path style="fill:none;stroke-width:0.8;stroke-linecap:square;stroke-linejoin:round;stroke:rgb(69.019608%,69.019608%,69.019608%);stroke-opacity:1;stroke-miterlimit:4;" d="M 50.14375 52.25625 L 245.44375 52.25625 " transform="matrix(1.25,0,0,1.25,0,0)"/>
</g>
<path style="fill:none;stroke-width:0.8;stroke-linecap:butt;stroke-linejoin:round;stroke:rgb(0%,0%,0%);stroke-opacity:1;stroke-miterlimit:4;" d="M 0 -0.001118 L -3.5 -0.001118 " transform="matrix(1.25,0,0,1.25,62.679688,65.32171)"/>
<path style=" stroke:none;fill-rule:nonzero;fill:rgb(0%,0%,0%);fill-opacity:1;" d="M 30.070312 61.769531 C 29.4375 61.769531 28.960938 62.082031 28.640625 62.707031 C 28.320312 63.332031 28.160156 64.269531 28.160156 65.523438 C 28.160156 66.773438 28.320312 67.710938 28.640625 68.335938 C 28.960938 68.960938 29.4375 69.273438 30.070312 69.273438 C 30.710938 69.273438 31.1875 68.960938 31.507812 68.335938 C 31.828125 67.710938 31.988281 66.773438 31.988281 65.523438 C 31.988281 64.269531 31.828125 63.332031 31.507812 62.707031 C 31.1875 62.082031 30.710938 61.769531 30.070312 61.769531 Z M 30.070312 60.792969 C 31.09375 60.792969 31.875 61.199219 32.414062 62.007812 C 32.953125 62.8125 33.21875 63.984375 33.21875 65.523438 C 33.21875 67.058594 32.953125 68.230469 32.414062 69.039062 C 31.875 69.84375 31.09375 70.25 30.070312 70.25 C 29.050781 70.25 28.269531 69.84375 27.730469 69.039062 C 27.191406 68.230469 26.921875 67.058594 26.921875 65.523438 C 26.921875 63.984375 27.191406 62.8125 27.730469 62.007812 C 28.269531 61.199219 29.050781 60.792969 30.070312 60.792969 Z M 30.070312 60.792969 "/>
<path style=" stroke:none;fill-rule:nonzero;fill:rgb(0%,0%,0%);fill-opacity:1;" d="M 35.386719 68.519531 L 36.675781 68.519531 L 36.675781 70.070312 L 35.386719 70.070312 Z M 35.386719 68.519531 "/>
<path style=" stroke:none;fill-rule:nonzero;fill:rgb(0%,0%,0%);fill-opacity:1;" d="M 39.574219 69.035156 L 41.589844 69.035156 L 41.589844 62.082031 L 39.398438 62.519531 L 39.398438 61.398438 L 41.578125 60.957031 L 42.808594 60.957031 L 42.808594 69.035156 L 44.824219 69.035156 L 44.824219 70.070312 L 39.574219 70.070312 Z M 39.574219 69.035156 "/>
<path style=" stroke:none;fill-rule:nonzero;fill:rgb(0%,0%,0%);fill-opacity:1;" d="M 47.328125 60.957031 L 52.167969 60.957031 L 52.167969 61.996094 L 48.457031 61.996094 L 48.457031 64.230469 C 48.632812 64.167969 48.8125 64.121094 48.992188 64.09375 C 49.171875 64.0625 49.351562 64.046875 49.53125 64.046875 C 50.546875 64.046875 51.351562 64.324219 51.945312 64.882812 C 52.539062 65.441406 52.839844 66.195312 52.839844 67.148438 C 52.839844 68.128906 52.53125 68.890625 51.921875 69.433594 C 51.3125 69.976562 50.449219 70.25 49.339844 70.25 C 48.957031 70.25 48.566406 70.214844 48.171875 70.152344 C 47.773438 70.085938 47.363281 69.988281 46.941406 69.859375 L 46.941406 68.617188 C 47.308594 68.816406 47.6875 68.964844 48.078125 69.0625 C 48.46875 69.160156 48.878906 69.210938 49.316406 69.210938 C 50.019531 69.210938 50.578125 69.023438 50.988281 68.65625 C 51.398438 68.285156 51.605469 67.78125 51.605469 67.148438 C 51.605469 66.511719 51.398438 66.011719 50.988281 65.640625 C 50.578125 65.269531 50.019531 65.085938 49.316406 65.085938 C 48.984375 65.085938 48.65625 65.121094 48.328125 65.195312 C 48 65.265625 47.667969 65.378906 47.328125 65.535156 Z M 47.328125 60.957031 "/>
<g clip-path="url(#clip9)" clip-rule="nonzero">
<path style="fill:none;stroke-width:0.8;stroke-linecap:square;stroke-linejoin:round;stroke:rgb(69.019608%,69.019608%,69.019608%);stroke-opacity:1;stroke-miterlimit:4;" d="M 50.14375 18.575 L 245.44375 18.575 " transform="matrix(1.25,0,0,1.25,0,0)"/>
</g>
<path style="fill:none;stroke-width:0.8;stroke-linecap:butt;stroke-linejoin:round;stroke:rgb(0%,0%,0%);stroke-opacity:1;stroke-miterlimit:4;" d="M 0 0.000629 L -3.5 0.000629 " transform="matrix(1.25,0,0,1.25,62.679688,23.217964)"/>
<path style=" stroke:none;fill-rule:nonzero;fill:rgb(0%,0%,0%);fill-opacity:1;" d="M 30.070312 19.667969 C 29.4375 19.667969 28.960938 19.980469 28.640625 20.605469 C 28.320312 21.226562 28.160156 22.167969 28.160156 23.421875 C 28.160156 24.667969 28.320312 25.605469 28.640625 26.230469 C 28.960938 26.855469 29.4375 27.167969 30.070312 27.167969 C 30.710938 27.167969 31.1875 26.855469 31.507812 26.230469 C 31.828125 25.605469 31.988281 24.667969 31.988281 23.421875 C 31.988281 22.167969 31.828125 21.226562 31.507812 20.605469 C 31.1875 19.980469 30.710938 19.667969 30.070312 19.667969 Z M 30.070312 18.691406 C 31.09375 18.691406 31.875 19.09375 32.414062 19.902344 C 32.953125 20.710938 33.21875 21.882812 33.21875 23.421875 C 33.21875 24.953125 32.953125 26.125 32.414062 26.933594 C 31.875 27.742188 31.09375 28.144531 30.070312 28.144531 C 29.050781 28.144531 28.269531 27.742188 27.730469 26.933594 C 27.191406 26.125 26.921875 24.953125 26.921875 23.421875 C 26.921875 21.882812 27.191406 20.710938 27.730469 19.902344 C 28.269531 19.09375 29.050781 18.691406 30.070312 18.691406 Z M 30.070312 18.691406 "/>
<path style=" stroke:none;fill-rule:nonzero;fill:rgb(0%,0%,0%);fill-opacity:1;" d="M 35.386719 26.417969 L 36.675781 26.417969 L 36.675781 27.96875 L 35.386719 27.96875 Z M 35.386719 26.417969 "/>
<path style=" stroke:none;fill-rule:nonzero;fill:rgb(0%,0%,0%);fill-opacity:1;" d="M 40.421875 26.929688 L 44.726562 26.929688 L 44.726562 27.96875 L 38.941406 27.96875 L 38.941406 26.929688 C 39.40625 26.445312 40.042969 25.796875 40.851562 24.980469 C 41.660156 24.164062 42.167969 23.636719 42.375 23.402344 C 42.769531 22.957031 43.046875 22.582031 43.203125 22.277344 C 43.359375 21.96875 43.4375 21.667969 43.4375 21.371094 C 43.4375 20.886719 43.269531 20.492188 42.929688 20.1875 C 42.589844 19.878906 42.144531 19.726562 41.601562 19.726562 C 41.214844 19.726562 40.804688 19.792969 40.375 19.929688 C 39.945312 20.0625 39.488281 20.265625 39 20.539062 L 39 19.292969 C 39.496094 19.09375 39.960938 18.945312 40.390625 18.84375 C 40.824219 18.742188 41.21875 18.691406 41.578125 18.691406 C 42.519531 18.691406 43.273438 18.925781 43.835938 19.398438 C 44.394531 19.871094 44.675781 20.5 44.675781 21.289062 C 44.675781 21.664062 44.605469 22.019531 44.464844 22.355469 C 44.324219 22.691406 44.070312 23.085938 43.699219 23.542969 C 43.597656 23.660156 43.273438 24 42.730469 24.566406 C 42.183594 25.128906 41.414062 25.917969 40.421875 26.929688 Z M 40.421875 26.929688 "/>
<path style=" stroke:none;fill-rule:nonzero;fill:rgb(0%,0%,0%);fill-opacity:1;" d="M 49.949219 19.667969 C 49.316406 19.667969 48.839844 19.980469 48.519531 20.605469 C 48.199219 21.226562 48.039062 22.167969 48.039062 23.421875 C 48.039062 24.667969 48.199219 25.605469 48.519531 26.230469 C 48.839844 26.855469 49.316406 27.167969 49.949219 27.167969 C 50.589844 27.167969 51.066406 26.855469 51.386719 26.230469 C 51.707031 25.605469 51.867188 24.667969 51.867188 23.421875 C 51.867188 22.167969 51.707031 21.226562 51.386719 20.605469 C 51.066406 19.980469 50.589844 19.667969 49.949219 19.667969 Z M 49.949219 18.691406 C 50.972656 18.691406 51.753906 19.09375 52.292969 19.902344 C 52.832031 20.710938 53.101562 21.882812 53.101562 23.421875 C 53.101562 24.953125 52.832031 26.125 52.292969 26.933594 C 51.753906 27.742188 50.972656 28.144531 49.949219 28.144531 C 48.929688 28.144531 48.148438 27.742188 47.609375 26.933594 C 47.070312 26.125 46.800781 24.953125 46.800781 23.421875 C 46.800781 21.882812 47.070312 20.710938 47.609375 19.902344 C 48.148438 19.09375 48.929688 18.691406 49.949219 18.691406 Z M 49.949219 18.691406 "/>
<path style=" stroke:none;fill-rule:nonzero;fill:rgb(0%,0%,0%);fill-opacity:1;" d="M 9 106.519531 L 9 105.398438 L 18.496094 105.398438 L 18.496094 106.519531 Z M 9 106.519531 "/>
<path style=" stroke:none;fill-rule:nonzero;fill:rgb(0%,0%,0%);fill-opacity:1;" d="M 12.449219 100.398438 C 12.449219 101 12.683594 101.476562 13.152344 101.824219 C 13.625 102.175781 14.269531 102.351562 15.085938 102.351562 C 15.902344 102.351562 16.546875 102.175781 17.015625 101.828125 C 17.488281 101.480469 17.722656 101.003906 17.722656 100.398438 C 17.722656 99.800781 17.488281 99.324219 17.015625 98.976562 C 16.542969 98.625 15.898438 98.449219 15.085938 98.449219 C 14.277344 98.449219 13.632812 98.625 13.160156 98.976562 C 12.6875 99.324219 12.449219 99.800781 12.449219 100.398438 Z M 11.496094 100.398438 C 11.496094 99.421875 11.816406 98.65625 12.449219 98.097656 C 13.085938 97.539062 13.964844 97.257812 15.085938 97.257812 C 16.203125 97.257812 17.082031 97.539062 17.71875 98.097656 C 18.355469 98.65625 18.675781 99.421875 18.675781 100.398438 C 18.675781 101.378906 18.355469 102.148438 17.71875 102.703125 C 17.082031 103.257812 16.203125 103.535156 15.085938 103.535156 C 13.964844 103.535156 13.085938 103.257812 12.449219 102.703125 C 11.816406 102.148438 11.496094 101.378906 11.496094 100.398438 Z M 11.496094 100.398438 "/>
<path style=" stroke:none;fill-rule:nonzero;fill:rgb(0%,0%,0%);fill-opacity:1;" d="M 11.863281 91.042969 L 12.925781 91.042969 C 12.761719 91.359375 12.640625 91.6875 12.558594 92.03125 C 12.476562 92.371094 12.4375 92.726562 12.4375 93.09375 C 12.4375 93.648438 12.523438 94.066406 12.691406 94.347656 C 12.863281 94.625 13.121094 94.765625 13.460938 94.765625 C 13.722656 94.765625 13.925781 94.664062 14.074219 94.464844 C 14.222656 94.265625 14.367188 93.863281 14.5 93.261719 L 14.585938 92.878906 C 14.757812 92.082031 14.996094 91.515625 15.308594 91.179688 C 15.621094 90.84375 16.054688 90.675781 16.609375 90.675781 C 17.246094 90.675781 17.75 90.925781 18.121094 91.429688 C 18.492188 91.929688 18.675781 92.621094 18.675781 93.5 C 18.675781 93.867188 18.640625 94.246094 18.566406 94.644531 C 18.496094 95.042969 18.390625 95.460938 18.246094 95.898438 L 17.085938 95.898438 C 17.304688 95.484375 17.464844 95.074219 17.574219 94.671875 C 17.679688 94.269531 17.734375 93.871094 17.734375 93.476562 C 17.734375 92.945312 17.644531 92.539062 17.460938 92.257812 C 17.28125 91.972656 17.027344 91.828125 16.695312 91.828125 C 16.390625 91.828125 16.160156 91.929688 15.996094 92.136719 C 15.832031 92.339844 15.675781 92.792969 15.523438 93.488281 L 15.433594 93.878906 C 15.289062 94.574219 15.0625 95.078125 14.757812 95.386719 C 14.457031 95.695312 14.039062 95.851562 13.511719 95.851562 C 12.867188 95.851562 12.371094 95.621094 12.023438 95.167969 C 11.671875 94.710938 11.496094 94.0625 11.496094 93.226562 C 11.496094 92.8125 11.527344 92.421875 11.589844 92.054688 C 11.648438 91.6875 11.742188 91.351562 11.863281 91.042969 Z M 11.863281 91.042969 "/>
<path style=" stroke:none;fill-rule:nonzero;fill:rgb(0%,0%,0%);fill-opacity:1;" d="M 11.863281 84.527344 L 12.925781 84.527344 C 12.761719 84.84375 12.640625 85.175781 12.558594 85.515625 C 12.476562 85.859375 12.4375 86.210938 12.4375 86.578125 C 12.4375 87.136719 12.523438 87.554688 12.691406 87.832031 C 12.863281 88.113281 13.121094 88.25 13.460938 88.25 C 13.722656 88.25 13.925781 88.152344 14.074219 87.953125 C 14.222656 87.753906 14.367188 87.351562 14.5 86.75 L 14.585938 86.363281 C 14.757812 85.566406 14.996094 85 15.308594 84.664062 C 15.621094 84.328125 16.054688 84.160156 16.609375 84.160156 C 17.246094 84.160156 17.75 84.414062 18.121094 84.914062 C 18.492188 85.417969 18.675781 86.109375 18.675781 86.988281 C 18.675781 87.355469 18.640625 87.734375 18.566406 88.132812 C 18.496094 88.53125 18.390625 88.949219 18.246094 89.386719 L 17.085938 89.386719 C 17.304688 88.972656 17.464844 88.5625 17.574219 88.160156 C 17.679688 87.757812 17.734375 87.359375 17.734375 86.960938 C 17.734375 86.433594 17.644531 86.027344 17.460938 85.742188 C 17.28125 85.457031 17.027344 85.316406 16.695312 85.316406 C 16.390625 85.316406 16.160156 85.417969 15.996094 85.625 C 15.832031 85.828125 15.675781 86.28125 15.523438 86.976562 L 15.433594 87.367188 C 15.289062 88.0625 15.0625 88.566406 14.757812 88.875 C 14.457031 89.183594 14.039062 89.335938 13.511719 89.335938 C 12.867188 89.335938 12.371094 89.109375 12.023438 88.652344 C 11.671875 88.199219 11.496094 87.550781 11.496094 86.710938 C 11.496094 86.296875 11.527344 85.910156 11.589844 85.542969 C 11.648438 85.175781 11.742188 84.835938 11.863281 84.527344 Z M 11.863281 84.527344 "/>
<g clip-path="url(#clip10)" clip-rule="nonzero">
<path style="fill:none;stroke-width:1.5;stroke-linecap:square;stroke-linejoin:round;stroke:rgb(12.156863%,46.666667%,70.588235%);stroke-opacity:1;stroke-miterlimit:4;" d="M 50.14375 13.5 L 58.28125 55.9 L 66.41875 79.7625 L 74.55625 95.4625 L 82.69375 105.521875 L 90.83125 114.065625 L 98.96875 120.071875 L 107.10625 124.846875 L 115.24375 127.809375 L 123.38125 130.390625 L 131.51875 132.31875 L 139.65625 134.415625 L 147.79375 135.7 L 155.93125 136.115625 L 164.06875 136.7125 L 172.20625 137.159375 L 180.34375 137.809375 L 188.48125 138.5125 L 196.61875 138.85625 L 204.75625 139.003125 L 212.89375 138.91875 L 221.03125 138.590625 L 229.16875 139.45 L 237.30625 139.3 L 245.44375 139.5 " transform="matrix(1.25,0,0,1.25,0,0)"/>
</g>
<path style="fill:none;stroke-width:0.8;stroke-linecap:square;stroke-linejoin:miter;stroke:rgb(0%,0%,0%);stroke-opacity:1;stroke-miterlimit:4;" d="M 50.14375 145.8 L 50.14375 7.2 " transform="matrix(1.25,0,0,1.25,0,0)"/>
<path style="fill:none;stroke-width:0.8;stroke-linecap:square;stroke-linejoin:miter;stroke:rgb(0%,0%,0%);stroke-opacity:1;stroke-miterlimit:4;" d="M 245.44375 145.8 L 245.44375 7.2 " transform="matrix(1.25,0,0,1.25,0,0)"/>
<path style="fill:none;stroke-width:0.8;stroke-linecap:square;stroke-linejoin:miter;stroke:rgb(0%,0%,0%);stroke-opacity:1;stroke-miterlimit:4;" d="M 50.14375 145.8 L 245.44375 145.8 " transform="matrix(1.25,0,0,1.25,0,0)"/>
<path style="fill:none;stroke-width:0.8;stroke-linecap:square;stroke-linejoin:miter;stroke:rgb(0%,0%,0%);stroke-opacity:1;stroke-miterlimit:4;" d="M 50.14375 7.2 L 245.44375 7.2 " transform="matrix(1.25,0,0,1.25,0,0)"/>
</g>
</svg>
