<?xml version="1.0" encoding="UTF-8"?>
<svg xmlns="http://www.w3.org/2000/svg" xmlns:xlink="http://www.w3.org/1999/xlink" width="328pt" height="229pt" viewBox="0 0 328 229" version="1.1">
<defs>
<clipPath id="clip1">
  <path d="M 95 9 L 98 9 L 98 182.25 L 95 182.25 Z M 95 9 "/>
</clipPath>
<clipPath id="clip2">
  <path d="M 137 9 L 140 9 L 140 182.25 L 137 182.25 Z M 137 9 "/>
</clipPath>
<clipPath id="clip3">
  <path d="M 179 9 L 182 9 L 182 182.25 L 179 182.25 Z M 179 9 "/>
</clipPath>
<clipPath id="clip4">
  <path d="M 221 9 L 224 9 L 224 182.25 L 221 182.25 Z M 221 9 "/>
</clipPath>
<clipPath id="clip5">
  <path d="M 264 9 L 266 9 L 266 182.25 L 264 182.25 Z M 264 9 "/>
</clipPath>
<clipPath id="clip6">
  <path d="M 306 9 L 306.804688 9 L 306.804688 182.25 L 306 182.25 Z M 306 9 "/>
</clipPath>
<clipPath id="clip7">
  <path d="M 62.679688 149 L 306.804688 149 L 306.804688 151 L 62.679688 151 Z M 62.679688 149 "/>
</clipPath>
<clipPath id="clip8">
  <path d="M 62.679688 109 L 306.804688 109 L 306.804688 111 L 62.679688 111 Z M 62.679688 109 "/>
</clipPath>
<clipPath id="clip9">
  <path d="M 62.679688 69 L 306.804688 69 L 306.804688 72 L 62.679688 72 Z M 62.679688 69 "/>
</clipPath>
<clipPath id="clip10">
  <path d="M 62.679688 29 L 306.804688 29 L 306.804688 32 L 62.679688 32 Z M 62.679688 29 "/>
</clipPath>
<clipPath id="clip11">
  <path d="M 62.679688 15 L 306.804688 15 L 306.804688 176 L 62.679688 176 Z M 62.679688 15 "/>
</clipPath>
</defs>
<g id="surface1">
<path style=" stroke:none;fill-rule:nonzero;fill:rgb(100%,100%,100%);fill-opacity:1;" d="M 0 229.195312 L 327.734375 229.195312 L 327.734375 0 L 0 0 Z M 0 229.195312 "/>
<path style=" stroke:none;fill-rule:nonzero;fill:rgb(100%,100%,100%);fill-opacity:1;" d="M 62.679688 182.25 L 306.804688 182.25 L 306.804688 9 L 62.679688 9 Z M 62.679688 182.25 "/>
<g clip-path="url(#clip1)" clip-rule="nonzero">
<path style="fill:none;stroke-width:0.8;stroke-linecap:square;stroke-linejoin:round;stroke:rgb(69.019608%,69.019608%,69.019608%);stroke-opacity:1;stroke-miterlimit:4;" d="M 77.08125 145.8 L 77.08125 7.2 " transform="matrix(1.25,0,0,1.25,0,0)"/>
</g>
<path style="fill:none;stroke-width:0.8;stroke-linecap:butt;stroke-linejoin:round;stroke:rgb(0%,0%,0%);stroke-opacity:1;stroke-miterlimit:4;" d="M -0.000431 0 L -0.000431 3.5 " transform="matrix(1.25,0,0,1.25,96.352101,182.25)"/>
<path style=" stroke:none;fill-rule:nonzero;fill:rgb(0%,0%,0%);fill-opacity:1;" d="M 89.75 191.386719 L 94.589844 191.386719 L 94.589844 192.425781 L 90.878906 192.425781 L 90.878906 194.65625 C 91.054688 194.59375 91.234375 194.550781 91.414062 194.519531 C 91.59375 194.488281 91.773438 194.476562 91.953125 194.476562 C 92.96875 194.476562 93.773438 194.753906 94.367188 195.3125 C 94.960938 195.867188 95.261719 196.621094 95.261719 197.574219 C 95.261719 198.554688 94.953125 199.316406 94.34375 199.863281 C 93.734375 200.40625 92.871094 200.675781 91.761719 200.675781 C 91.378906 200.675781 90.988281 200.644531 90.59375 200.578125 C 90.195312 200.511719 89.785156 200.414062 89.363281 200.285156 L 89.363281 199.046875 C 89.730469 199.246094 90.109375 199.394531 90.5 199.492188 C 90.890625 199.589844 91.300781 199.636719 91.738281 199.636719 C 92.441406 199.636719 93 199.453125 93.410156 199.082031 C 93.820312 198.710938 94.027344 198.210938 94.027344 197.574219 C 94.027344 196.941406 93.820312 196.4375 93.410156 196.070312 C 93 195.699219 92.441406 195.511719 91.738281 195.511719 C 91.40625 195.511719 91.078125 195.546875 90.75 195.621094 C 90.421875 195.695312 90.089844 195.808594 89.75 195.964844 Z M 89.75 191.386719 "/>
<path style=" stroke:none;fill-rule:nonzero;fill:rgb(0%,0%,0%);fill-opacity:1;" d="M 100.324219 192.199219 C 99.691406 192.199219 99.214844 192.511719 98.894531 193.136719 C 98.574219 193.757812 98.414062 194.699219 98.414062 195.953125 C 98.414062 197.199219 98.574219 198.136719 98.894531 198.761719 C 99.214844 199.386719 99.691406 199.699219 100.324219 199.699219 C 100.964844 199.699219 101.441406 199.386719 101.761719 198.761719 C 102.082031 198.136719 102.242188 197.199219 102.242188 195.953125 C 102.242188 194.699219 102.082031 193.757812 101.761719 193.136719 C 101.441406 192.511719 100.964844 192.199219 100.324219 192.199219 Z M 100.324219 191.222656 C 101.347656 191.222656 102.128906 191.625 102.667969 192.433594 C 103.207031 193.242188 103.476562 194.414062 103.476562 195.953125 C 103.476562 197.484375 103.207031 198.65625 102.667969 199.464844 C 102.128906 200.273438 101.347656 200.675781 100.324219 200.675781 C 99.304688 200.675781 98.523438 200.273438 97.984375 199.464844 C 97.445312 198.65625 97.175781 197.484375 97.175781 195.953125 C 97.175781 194.414062 97.445312 193.242188 97.984375 192.433594 C 98.523438 191.625 99.304688 191.222656 100.324219 191.222656 Z M 100.324219 191.222656 "/>
<g clip-path="url(#clip2)" clip-rule="nonzero">
<path style="fill:none;stroke-width:0.8;stroke-linecap:square;stroke-linejoin:round;stroke:rgb(69.019608%,69.019608%,69.019608%);stroke-opacity:1;stroke-miterlimit:4;" d="M 110.753125 145.8 L 110.753125 7.2 " transform="matrix(1.25,0,0,1.25,0,0)"/>
</g>
<path style="fill:none;stroke-width:0.8;stroke-linecap:butt;stroke-linejoin:round;stroke:rgb(0%,0%,0%);stroke-opacity:1;stroke-miterlimit:4;" d="M -0.00097 0 L -0.00097 3.5 " transform="matrix(1.25,0,0,1.25,138.442619,182.25)"/>
<path style=" stroke:none;fill-rule:nonzero;fill:rgb(0%,0%,0%);fill-opacity:1;" d="M 128.0625 199.460938 L 130.078125 199.460938 L 130.078125 192.507812 L 127.886719 192.949219 L 127.886719 191.824219 L 130.066406 191.386719 L 131.296875 191.386719 L 131.296875 199.460938 L 133.3125 199.460938 L 133.3125 200.5 L 128.0625 200.5 Z M 128.0625 199.460938 "/>
<path style=" stroke:none;fill-rule:nonzero;fill:rgb(0%,0%,0%);fill-opacity:1;" d="M 138.4375 192.199219 C 137.804688 192.199219 137.328125 192.511719 137.007812 193.136719 C 136.6875 193.757812 136.527344 194.699219 136.527344 195.953125 C 136.527344 197.199219 136.6875 198.136719 137.007812 198.761719 C 137.328125 199.386719 137.804688 199.699219 138.4375 199.699219 C 139.078125 199.699219 139.558594 199.386719 139.875 198.761719 C 140.195312 198.136719 140.355469 197.199219 140.355469 195.953125 C 140.355469 194.699219 140.195312 193.757812 139.875 193.136719 C 139.558594 192.511719 139.078125 192.199219 138.4375 192.199219 Z M 138.4375 191.222656 C 139.460938 191.222656 140.242188 191.625 140.78125 192.433594 C 141.320312 193.242188 141.589844 194.414062 141.589844 195.953125 C 141.589844 197.484375 141.320312 198.65625 140.78125 199.464844 C 140.242188 200.273438 139.460938 200.675781 138.4375 200.675781 C 137.417969 200.675781 136.636719 200.273438 136.097656 199.464844 C 135.558594 198.65625 135.289062 197.484375 135.289062 195.953125 C 135.289062 194.414062 135.558594 193.242188 136.097656 192.433594 C 136.636719 191.625 137.417969 191.222656 138.4375 191.222656 Z M 138.4375 191.222656 "/>
<path style=" stroke:none;fill-rule:nonzero;fill:rgb(0%,0%,0%);fill-opacity:1;" d="M 146.390625 192.199219 C 145.757812 192.199219 145.28125 192.511719 144.960938 193.136719 C 144.640625 193.757812 144.480469 194.699219 144.480469 195.953125 C 144.480469 197.199219 144.640625 198.136719 144.960938 198.761719 C 145.28125 199.386719 145.757812 199.699219 146.390625 199.699219 C 147.03125 199.699219 147.511719 199.386719 147.828125 198.761719 C 148.148438 198.136719 148.308594 197.199219 148.308594 195.953125 C 148.308594 194.699219 148.148438 193.757812 147.828125 193.136719 C 147.511719 192.511719 147.03125 192.199219 146.390625 192.199219 Z M 146.390625 191.222656 C 147.414062 191.222656 148.195312 191.625 148.734375 192.433594 C 149.273438 193.242188 149.542969 194.414062 149.542969 195.953125 C 149.542969 197.484375 149.273438 198.65625 148.734375 199.464844 C 148.195312 200.273438 147.414062 200.675781 146.390625 200.675781 C 145.371094 200.675781 144.589844 200.273438 144.050781 199.464844 C 143.511719 198.65625 143.242188 197.484375 143.242188 195.953125 C 143.242188 194.414062 143.511719 193.242188 144.050781 192.433594 C 144.589844 191.625 145.371094 191.222656 146.390625 191.222656 Z M 146.390625 191.222656 "/>
<g clip-path="url(#clip3)" clip-rule="nonzero">
<path style="fill:none;stroke-width:0.8;stroke-linecap:square;stroke-linejoin:round;stroke:rgb(69.019608%,69.019608%,69.019608%);stroke-opacity:1;stroke-miterlimit:4;" d="M 144.425 145.8 L 144.425 7.2 " transform="matrix(1.25,0,0,1.25,0,0)"/>
</g>
<path style="fill:none;stroke-width:0.8;stroke-linecap:butt;stroke-linejoin:round;stroke:rgb(0%,0%,0%);stroke-opacity:1;stroke-miterlimit:4;" d="M -0.001509 0 L -0.001509 3.5 " transform="matrix(1.25,0,0,1.25,180.533136,182.25)"/>
<path style=" stroke:none;fill-rule:nonzero;fill:rgb(0%,0%,0%);fill-opacity:1;" d="M 170.152344 199.460938 L 172.167969 199.460938 L 172.167969 192.507812 L 169.976562 192.949219 L 169.976562 191.824219 L 172.15625 191.386719 L 173.386719 191.386719 L 173.386719 199.460938 L 175.402344 199.460938 L 175.402344 200.5 L 170.152344 200.5 Z M 170.152344 199.460938 "/>
<path style=" stroke:none;fill-rule:nonzero;fill:rgb(0%,0%,0%);fill-opacity:1;" d="M 177.90625 191.386719 L 182.746094 191.386719 L 182.746094 192.425781 L 179.035156 192.425781 L 179.035156 194.65625 C 179.214844 194.59375 179.390625 194.550781 179.570312 194.519531 C 179.75 194.488281 179.929688 194.476562 180.109375 194.476562 C 181.125 194.476562 181.929688 194.753906 182.523438 195.3125 C 183.121094 195.867188 183.417969 196.621094 183.417969 197.574219 C 183.417969 198.554688 183.113281 199.316406 182.5 199.863281 C 181.890625 200.40625 181.03125 200.675781 179.917969 200.675781 C 179.535156 200.675781 179.148438 200.644531 178.75 200.578125 C 178.355469 200.511719 177.945312 200.414062 177.519531 200.285156 L 177.519531 199.046875 C 177.886719 199.246094 178.265625 199.394531 178.65625 199.492188 C 179.046875 199.589844 179.460938 199.636719 179.894531 199.636719 C 180.597656 199.636719 181.15625 199.453125 181.566406 199.082031 C 181.976562 198.710938 182.183594 198.210938 182.183594 197.574219 C 182.183594 196.941406 181.976562 196.4375 181.566406 196.070312 C 181.15625 195.699219 180.597656 195.511719 179.894531 195.511719 C 179.566406 195.511719 179.234375 195.546875 178.90625 195.621094 C 178.582031 195.695312 178.246094 195.808594 177.90625 195.964844 Z M 177.90625 191.386719 "/>
<path style=" stroke:none;fill-rule:nonzero;fill:rgb(0%,0%,0%);fill-opacity:1;" d="M 188.480469 192.199219 C 187.847656 192.199219 187.371094 192.511719 187.050781 193.136719 C 186.730469 193.757812 186.570312 194.699219 186.570312 195.953125 C 186.570312 197.199219 186.730469 198.136719 187.050781 198.761719 C 187.371094 199.386719 187.847656 199.699219 188.480469 199.699219 C 189.121094 199.699219 189.601562 199.386719 189.917969 198.761719 C 190.238281 198.136719 190.398438 197.199219 190.398438 195.953125 C 190.398438 194.699219 190.238281 193.757812 189.917969 193.136719 C 189.601562 192.511719 189.121094 192.199219 188.480469 192.199219 Z M 188.480469 191.222656 C 189.503906 191.222656 190.285156 191.625 190.824219 192.433594 C 191.363281 193.242188 191.632812 194.414062 191.632812 195.953125 C 191.632812 197.484375 191.363281 198.65625 190.824219 199.464844 C 190.285156 200.273438 189.503906 200.675781 188.480469 200.675781 C 187.460938 200.675781 186.679688 200.273438 186.140625 199.464844 C 185.601562 198.65625 185.332031 197.484375 185.332031 195.953125 C 185.332031 194.414062 185.601562 193.242188 186.140625 192.433594 C 186.679688 191.625 187.460938 191.222656 188.480469 191.222656 Z M 188.480469 191.222656 "/>
<g clip-path="url(#clip4)" clip-rule="nonzero">
<path style="fill:none;stroke-width:0.8;stroke-linecap:square;stroke-linejoin:round;stroke:rgb(69.019608%,69.019608%,69.019608%);stroke-opacity:1;stroke-miterlimit:4;" d="M 178.1 145.8 L 178.1 7.2 " transform="matrix(1.25,0,0,1.25,0,0)"/>
</g>
<path style="fill:none;stroke-width:0.8;stroke-linecap:butt;stroke-linejoin:round;stroke:rgb(0%,0%,0%);stroke-opacity:1;stroke-miterlimit:4;" d="M 0.001078 0 L 0.001078 3.5 " transform="matrix(1.25,0,0,1.25,222.623652,182.25)"/>
<path style=" stroke:none;fill-rule:nonzero;fill:rgb(0%,0%,0%);fill-opacity:1;" d="M 213.09375 199.460938 L 217.394531 199.460938 L 217.394531 200.5 L 211.609375 200.5 L 211.609375 199.460938 C 212.078125 198.976562 212.714844 198.328125 213.523438 197.511719 C 214.332031 196.695312 214.839844 196.167969 215.046875 195.933594 C 215.441406 195.488281 215.714844 195.113281 215.871094 194.808594 C 216.027344 194.5 216.109375 194.199219 216.109375 193.902344 C 216.109375 193.417969 215.9375 193.023438 215.597656 192.71875 C 215.257812 192.410156 214.816406 192.257812 214.269531 192.257812 C 213.882812 192.257812 213.476562 192.324219 213.046875 192.460938 C 212.617188 192.59375 212.160156 192.796875 211.671875 193.070312 L 211.671875 191.824219 C 212.167969 191.625 212.628906 191.476562 213.0625 191.375 C 213.492188 191.273438 213.886719 191.222656 214.246094 191.222656 C 215.191406 191.222656 215.941406 191.457031 216.503906 191.929688 C 217.066406 192.402344 217.347656 193.03125 217.347656 193.820312 C 217.347656 194.195312 217.277344 194.550781 217.136719 194.886719 C 216.996094 195.222656 216.742188 195.617188 216.371094 196.074219 C 216.269531 196.191406 215.945312 196.53125 215.398438 197.097656 C 214.855469 197.660156 214.085938 198.449219 213.09375 199.460938 Z M 213.09375 199.460938 "/>
<path style=" stroke:none;fill-rule:nonzero;fill:rgb(0%,0%,0%);fill-opacity:1;" d="M 222.621094 192.199219 C 221.984375 192.199219 221.507812 192.511719 221.1875 193.136719 C 220.867188 193.757812 220.710938 194.699219 220.710938 195.953125 C 220.710938 197.199219 220.867188 198.136719 221.1875 198.761719 C 221.507812 199.386719 221.984375 199.699219 222.621094 199.699219 C 223.257812 199.699219 223.738281 199.386719 224.058594 198.761719 C 224.378906 198.136719 224.539062 197.199219 224.539062 195.953125 C 224.539062 194.699219 224.378906 193.757812 224.058594 193.136719 C 223.738281 192.511719 223.257812 192.199219 222.621094 192.199219 Z M 222.621094 191.222656 C 223.640625 191.222656 224.421875 191.625 224.960938 192.433594 C 225.5 193.242188 225.769531 194.414062 225.769531 195.953125 C 225.769531 197.484375 225.5 198.65625 224.960938 199.464844 C 224.421875 200.273438 223.640625 200.675781 222.621094 200.675781 C 221.597656 200.675781 220.820312 200.273438 220.28125 199.464844 C 219.742188 198.65625 219.472656 197.484375 219.472656 195.953125 C 219.472656 194.414062 219.742188 193.242188 220.28125 192.433594 C 220.820312 191.625 221.597656 191.222656 222.621094 191.222656 Z M 222.621094 191.222656 "/>
<path style=" stroke:none;fill-rule:nonzero;fill:rgb(0%,0%,0%);fill-opacity:1;" d="M 230.574219 192.199219 C 229.9375 192.199219 229.460938 192.511719 229.140625 193.136719 C 228.820312 193.757812 228.664062 194.699219 228.664062 195.953125 C 228.664062 197.199219 228.820312 198.136719 229.140625 198.761719 C 229.460938 199.386719 229.9375 199.699219 230.574219 199.699219 C 231.210938 199.699219 231.691406 199.386719 232.011719 198.761719 C 232.332031 198.136719 232.492188 197.199219 232.492188 195.953125 C 232.492188 194.699219 232.332031 193.757812 232.011719 193.136719 C 231.691406 192.511719 231.210938 192.199219 230.574219 192.199219 Z M 230.574219 191.222656 C 231.59375 191.222656 232.375 191.625 232.914062 192.433594 C 233.453125 193.242188 233.722656 194.414062 233.722656 195.953125 C 233.722656 197.484375 233.453125 198.65625 232.914062 199.464844 C 232.375 200.273438 231.59375 200.675781 230.574219 200.675781 C 229.550781 200.675781 228.773438 200.273438 228.234375 199.464844 C 227.695312 198.65625 227.425781 197.484375 227.425781 195.953125 C 227.425781 194.414062 227.695312 193.242188 228.234375 192.433594 C 228.773438 191.625 229.550781 191.222656 230.574219 191.222656 Z M 230.574219 191.222656 "/>
<g clip-path="url(#clip5)" clip-rule="nonzero">
<path style="fill:none;stroke-width:0.8;stroke-linecap:square;stroke-linejoin:round;stroke:rgb(69.019608%,69.019608%,69.019608%);stroke-opacity:1;stroke-miterlimit:4;" d="M 211.771875 145.8 L 211.771875 7.2 " transform="matrix(1.25,0,0,1.25,0,0)"/>
</g>
<path style="fill:none;stroke-width:0.8;stroke-linecap:butt;stroke-linejoin:round;stroke:rgb(0%,0%,0%);stroke-opacity:1;stroke-miterlimit:4;" d="M 0.000539 0 L 0.000539 3.5 " transform="matrix(1.25,0,0,1.25,264.71417,182.25)"/>
<path style=" stroke:none;fill-rule:nonzero;fill:rgb(0%,0%,0%);fill-opacity:1;" d="M 255.183594 199.460938 L 259.484375 199.460938 L 259.484375 200.5 L 253.699219 200.5 L 253.699219 199.460938 C 254.167969 198.976562 254.804688 198.328125 255.613281 197.511719 C 256.421875 196.695312 256.929688 196.167969 257.136719 195.933594 C 257.53125 195.488281 257.804688 195.113281 257.960938 194.808594 C 258.121094 194.5 258.199219 194.199219 258.199219 193.902344 C 258.199219 193.417969 258.027344 193.023438 257.6875 192.71875 C 257.347656 192.410156 256.90625 192.257812 256.359375 192.257812 C 255.972656 192.257812 255.566406 192.324219 255.136719 192.460938 C 254.707031 192.59375 254.25 192.796875 253.761719 193.070312 L 253.761719 191.824219 C 254.257812 191.625 254.71875 191.476562 255.152344 191.375 C 255.582031 191.273438 255.980469 191.222656 256.335938 191.222656 C 257.28125 191.222656 258.035156 191.457031 258.59375 191.929688 C 259.15625 192.402344 259.4375 193.03125 259.4375 193.820312 C 259.4375 194.195312 259.367188 194.550781 259.226562 194.886719 C 259.085938 195.222656 258.832031 195.617188 258.460938 196.074219 C 258.359375 196.191406 258.035156 196.53125 257.488281 197.097656 C 256.945312 197.660156 256.175781 198.449219 255.183594 199.460938 Z M 255.183594 199.460938 "/>
<path style=" stroke:none;fill-rule:nonzero;fill:rgb(0%,0%,0%);fill-opacity:1;" d="M 262.085938 191.386719 L 266.925781 191.386719 L 266.925781 192.425781 L 263.214844 192.425781 L 263.214844 194.65625 C 263.394531 194.59375 263.574219 194.550781 263.75 194.519531 C 263.929688 194.488281 264.109375 194.476562 264.289062 194.476562 C 265.308594 194.476562 266.113281 194.753906 266.707031 195.3125 C 267.300781 195.867188 267.597656 196.621094 267.597656 197.574219 C 267.597656 198.554688 267.292969 199.316406 266.683594 199.863281 C 266.070312 200.40625 265.210938 200.675781 264.101562 200.675781 C 263.71875 200.675781 263.328125 200.644531 262.929688 200.578125 C 262.535156 200.511719 262.125 200.414062 261.703125 200.285156 L 261.703125 199.046875 C 262.066406 199.246094 262.445312 199.394531 262.835938 199.492188 C 263.226562 199.589844 263.640625 199.636719 264.074219 199.636719 C 264.78125 199.636719 265.335938 199.453125 265.746094 199.082031 C 266.160156 198.710938 266.363281 198.210938 266.363281 197.574219 C 266.363281 196.941406 266.160156 196.4375 265.746094 196.070312 C 265.335938 195.699219 264.78125 195.511719 264.074219 195.511719 C 263.746094 195.511719 263.417969 195.546875 263.089844 195.621094 C 262.761719 195.695312 262.429688 195.808594 262.085938 195.964844 Z M 262.085938 191.386719 "/>
<path style=" stroke:none;fill-rule:nonzero;fill:rgb(0%,0%,0%);fill-opacity:1;" d="M 272.664062 192.199219 C 272.027344 192.199219 271.550781 192.511719 271.230469 193.136719 C 270.914062 193.757812 270.753906 194.699219 270.753906 195.953125 C 270.753906 197.199219 270.914062 198.136719 271.230469 198.761719 C 271.550781 199.386719 272.027344 199.699219 272.664062 199.699219 C 273.300781 199.699219 273.78125 199.386719 274.101562 198.761719 C 274.421875 198.136719 274.582031 197.199219 274.582031 195.953125 C 274.582031 194.699219 274.421875 193.757812 274.101562 193.136719 C 273.78125 192.511719 273.300781 192.199219 272.664062 192.199219 Z M 272.664062 191.222656 C 273.683594 191.222656 274.464844 191.625 275.003906 192.433594 C 275.542969 193.242188 275.8125 194.414062 275.8125 195.953125 C 275.8125 197.484375 275.542969 198.65625 275.003906 199.464844 C 274.464844 200.273438 273.683594 200.675781 272.664062 200.675781 C 271.640625 200.675781 270.863281 200.273438 270.324219 199.464844 C 269.785156 198.65625 269.515625 197.484375 269.515625 195.953125 C 269.515625 194.414062 269.785156 193.242188 270.324219 192.433594 C 270.863281 191.625 271.640625 191.222656 272.664062 191.222656 Z M 272.664062 191.222656 "/>
<g clip-path="url(#clip6)" clip-rule="nonzero">
<path style="fill:none;stroke-width:0.8;stroke-linecap:square;stroke-linejoin:round;stroke:rgb(69.019608%,69.019608%,69.019608%);stroke-opacity:1;stroke-miterlimit:4;" d="M 245.44375 145.8 L 245.44375 7.2 " transform="matrix(1.25,0,0,1.25,0,0)"/>
</g>
<path style="fill:none;stroke-width:0.8;stroke-linecap:butt;stroke-linejoin:round;stroke:rgb(0%,0%,0%);stroke-opacity:1;stroke-miterlimit:4;" d="M 0 0 L 0 3.5 " transform="matrix(1.25,0,0,1.25,306.804688,182.25)"/>
<path style=" stroke:none;fill-rule:nonzero;fill:rgb(0%,0%,0%);fill-opacity:1;" d="M 299.945312 195.585938 C 300.539062 195.710938 300.996094 195.972656 301.328125 196.375 C 301.660156 196.773438 301.828125 197.265625 301.828125 197.851562 C 301.828125 198.75 301.515625 199.445312 300.898438 199.9375 C 300.28125 200.429688 299.402344 200.675781 298.261719 200.675781 C 297.878906 200.675781 297.488281 200.636719 297.082031 200.5625 C 296.675781 200.488281 296.257812 200.375 295.828125 200.222656 L 295.828125 199.035156 C 296.167969 199.234375 296.542969 199.382812 296.949219 199.484375 C 297.355469 199.585938 297.78125 199.636719 298.226562 199.636719 C 299 199.636719 299.585938 199.484375 299.992188 199.179688 C 300.398438 198.875 300.601562 198.433594 300.601562 197.851562 C 300.601562 197.3125 300.410156 196.890625 300.035156 196.589844 C 299.660156 196.285156 299.136719 196.136719 298.464844 196.136719 L 297.402344 196.136719 L 297.402344 195.121094 L 298.515625 195.121094 C 299.117188 195.121094 299.582031 195 299.90625 194.757812 C 300.226562 194.515625 300.386719 194.167969 300.386719 193.710938 C 300.386719 193.242188 300.21875 192.886719 299.890625 192.636719 C 299.558594 192.382812 299.082031 192.257812 298.464844 192.257812 C 298.125 192.257812 297.765625 192.296875 297.375 192.371094 C 296.992188 192.441406 296.566406 192.554688 296.101562 192.710938 L 296.101562 191.613281 C 296.570312 191.480469 297.007812 191.382812 297.417969 191.320312 C 297.828125 191.253906 298.210938 191.222656 298.574219 191.222656 C 299.511719 191.222656 300.25 191.433594 300.796875 191.859375 C 301.339844 192.285156 301.613281 192.859375 301.613281 193.582031 C 301.613281 194.085938 301.46875 194.515625 301.179688 194.863281 C 300.890625 195.210938 300.480469 195.449219 299.945312 195.585938 Z M 299.945312 195.585938 "/>
<path style=" stroke:none;fill-rule:nonzero;fill:rgb(0%,0%,0%);fill-opacity:1;" d="M 306.800781 192.199219 C 306.167969 192.199219 305.6875 192.511719 305.367188 193.136719 C 305.050781 193.757812 304.890625 194.699219 304.890625 195.953125 C 304.890625 197.199219 305.050781 198.136719 305.367188 198.761719 C 305.6875 199.386719 306.167969 199.699219 306.800781 199.699219 C 307.441406 199.699219 307.917969 199.386719 308.238281 198.761719 C 308.558594 198.136719 308.71875 197.199219 308.71875 195.953125 C 308.71875 194.699219 308.558594 193.757812 308.238281 193.136719 C 307.917969 192.511719 307.441406 192.199219 306.800781 192.199219 Z M 306.800781 191.222656 C 307.824219 191.222656 308.601562 191.625 309.140625 192.433594 C 309.679688 193.242188 309.949219 194.414062 309.949219 195.953125 C 309.949219 197.484375 309.679688 198.65625 309.140625 199.464844 C 308.601562 200.273438 307.824219 200.675781 306.800781 200.675781 C 305.78125 200.675781 305 200.273438 304.460938 199.464844 C 303.921875 198.65625 303.652344 197.484375 303.652344 195.953125 C 303.652344 194.414062 303.921875 193.242188 304.460938 192.433594 C 305 191.625 305.78125 191.222656 306.800781 191.222656 Z M 306.800781 191.222656 "/>
<path style=" stroke:none;fill-rule:nonzero;fill:rgb(0%,0%,0%);fill-opacity:1;" d="M 314.753906 192.199219 C 314.121094 192.199219 313.640625 192.511719 313.320312 193.136719 C 313.003906 193.757812 312.84375 194.699219 312.84375 195.953125 C 312.84375 197.199219 313.003906 198.136719 313.320312 198.761719 C 313.640625 199.386719 314.121094 199.699219 314.753906 199.699219 C 315.394531 199.699219 315.871094 199.386719 316.191406 198.761719 C 316.511719 198.136719 316.671875 197.199219 316.671875 195.953125 C 316.671875 194.699219 316.511719 193.757812 316.191406 193.136719 C 315.871094 192.511719 315.394531 192.199219 314.753906 192.199219 Z M 314.753906 191.222656 C 315.777344 191.222656 316.554688 191.625 317.09375 192.433594 C 317.632812 193.242188 317.902344 194.414062 317.902344 195.953125 C 317.902344 197.484375 317.632812 198.65625 317.09375 199.464844 C 316.554688 200.273438 315.777344 200.675781 314.753906 200.675781 C 313.734375 200.675781 312.953125 200.273438 312.414062 199.464844 C 311.875 198.65625 311.605469 197.484375 311.605469 195.953125 C 311.605469 194.414062 311.875 193.242188 312.414062 192.433594 C 312.953125 191.625 313.734375 191.222656 314.753906 191.222656 Z M 314.753906 191.222656 "/>
<path style=" stroke:none;fill-rule:nonzero;fill:rgb(0%,0%,0%);fill-opacity:1;" d="M 172.734375 213.898438 L 172.734375 214.445312 L 167.570312 214.445312 C 167.617188 215.21875 167.851562 215.808594 168.265625 216.214844 C 168.683594 216.617188 169.265625 216.820312 170.007812 216.820312 C 170.441406 216.820312 170.859375 216.769531 171.265625 216.664062 C 171.667969 216.558594 172.070312 216.398438 172.46875 216.1875 L 172.46875 217.25 C 172.066406 217.417969 171.652344 217.550781 171.230469 217.640625 C 170.808594 217.730469 170.378906 217.773438 169.945312 217.773438 C 168.851562 217.773438 167.988281 217.457031 167.351562 216.824219 C 166.714844 216.1875 166.398438 215.328125 166.398438 214.246094 C 166.398438 213.125 166.699219 212.238281 167.304688 211.582031 C 167.90625 210.925781 168.722656 210.597656 169.75 210.597656 C 170.667969 210.597656 171.394531 210.890625 171.929688 211.484375 C 172.464844 212.074219 172.734375 212.878906 172.734375 213.898438 Z M 171.609375 213.566406 C 171.601562 212.953125 171.429688 212.464844 171.09375 212.097656 C 170.757812 211.730469 170.3125 211.546875 169.757812 211.546875 C 169.132812 211.546875 168.632812 211.722656 168.257812 212.078125 C 167.878906 212.433594 167.664062 212.929688 167.605469 213.574219 Z M 171.609375 213.566406 "/>
<path style=" stroke:none;fill-rule:nonzero;fill:rgb(0%,0%,0%);fill-opacity:1;" d="M 175.660156 216.570312 L 175.660156 220.195312 L 174.53125 220.195312 L 174.53125 210.761719 L 175.660156 210.761719 L 175.660156 211.796875 C 175.898438 211.390625 176.195312 211.089844 176.554688 210.894531 C 176.917969 210.695312 177.347656 210.597656 177.847656 210.597656 C 178.675781 210.597656 179.351562 210.925781 179.871094 211.585938 C 180.390625 212.242188 180.648438 213.109375 180.648438 214.183594 C 180.648438 215.257812 180.390625 216.125 179.871094 216.785156 C 179.351562 217.445312 178.675781 217.773438 177.847656 217.773438 C 177.347656 217.773438 176.917969 217.675781 176.554688 217.476562 C 176.195312 217.277344 175.898438 216.976562 175.660156 216.570312 Z M 179.484375 214.183594 C 179.484375 213.359375 179.3125 212.710938 178.972656 212.242188 C 178.632812 211.769531 178.167969 211.535156 177.574219 211.535156 C 176.976562 211.535156 176.511719 211.769531 176.171875 212.242188 C 175.832031 212.710938 175.660156 213.359375 175.660156 214.183594 C 175.660156 215.007812 175.832031 215.65625 176.171875 216.128906 C 176.511719 216.597656 176.976562 216.832031 177.574219 216.832031 C 178.167969 216.832031 178.632812 216.597656 178.972656 216.128906 C 179.3125 215.65625 179.484375 215.007812 179.484375 214.183594 Z M 179.484375 214.183594 "/>
<path style=" stroke:none;fill-rule:nonzero;fill:rgb(0%,0%,0%);fill-opacity:1;" d="M 185.15625 211.546875 C 184.554688 211.546875 184.082031 211.78125 183.730469 212.253906 C 183.378906 212.722656 183.203125 213.367188 183.203125 214.183594 C 183.203125 215 183.378906 215.644531 183.726562 216.117188 C 184.074219 216.585938 184.554688 216.820312 185.15625 216.820312 C 185.757812 216.820312 186.230469 216.585938 186.578125 216.113281 C 186.929688 215.640625 187.105469 214.996094 187.105469 214.183594 C 187.105469 213.375 186.929688 212.730469 186.578125 212.257812 C 186.230469 211.785156 185.757812 211.546875 185.15625 211.546875 Z M 185.15625 210.597656 C 186.132812 210.597656 186.902344 210.914062 187.460938 211.550781 C 188.015625 212.183594 188.296875 213.0625 188.296875 214.183594 C 188.296875 215.300781 188.015625 216.179688 187.460938 216.820312 C 186.902344 217.457031 186.132812 217.773438 185.15625 217.773438 C 184.179688 217.773438 183.410156 217.457031 182.851562 216.820312 C 182.296875 216.179688 182.023438 215.300781 182.023438 214.183594 C 182.023438 213.0625 182.296875 212.183594 182.851562 211.550781 C 183.410156 210.914062 184.179688 210.597656 185.15625 210.597656 Z M 185.15625 210.597656 "/>
<path style=" stroke:none;fill-rule:nonzero;fill:rgb(0%,0%,0%);fill-opacity:1;" d="M 195.078125 211.023438 L 195.078125 212.074219 C 194.757812 211.898438 194.441406 211.765625 194.121094 211.679688 C 193.804688 211.589844 193.480469 211.546875 193.15625 211.546875 C 192.425781 211.546875 191.859375 211.777344 191.457031 212.242188 C 191.054688 212.703125 190.851562 213.347656 190.851562 214.183594 C 190.851562 215.019531 191.054688 215.667969 191.457031 216.128906 C 191.859375 216.589844 192.425781 216.820312 193.15625 216.820312 C 193.480469 216.820312 193.804688 216.777344 194.121094 216.691406 C 194.441406 216.601562 194.757812 216.472656 195.078125 216.296875 L 195.078125 217.335938 C 194.761719 217.480469 194.4375 217.589844 194.101562 217.664062 C 193.769531 217.738281 193.410156 217.773438 193.03125 217.773438 C 192.003906 217.773438 191.183594 217.449219 190.578125 216.804688 C 189.972656 216.15625 189.667969 215.28125 189.667969 214.183594 C 189.667969 213.070312 189.976562 212.191406 190.585938 211.554688 C 191.199219 210.914062 192.039062 210.597656 193.105469 210.597656 C 193.453125 210.597656 193.789062 210.632812 194.117188 210.703125 C 194.449219 210.773438 194.765625 210.878906 195.078125 211.023438 Z M 195.078125 211.023438 "/>
<path style=" stroke:none;fill-rule:nonzero;fill:rgb(0%,0%,0%);fill-opacity:1;" d="M 202.714844 213.46875 L 202.714844 217.597656 L 201.589844 217.597656 L 201.589844 213.507812 C 201.589844 212.859375 201.464844 212.375 201.210938 212.054688 C 200.960938 211.734375 200.582031 211.574219 200.078125 211.574219 C 199.46875 211.574219 198.992188 211.765625 198.640625 212.152344 C 198.292969 212.539062 198.117188 213.066406 198.117188 213.734375 L 198.117188 217.597656 L 196.988281 217.597656 L 196.988281 208.097656 L 198.117188 208.097656 L 198.117188 211.824219 C 198.386719 211.410156 198.703125 211.105469 199.066406 210.902344 C 199.429688 210.699219 199.851562 210.597656 200.328125 210.597656 C 201.113281 210.597656 201.707031 210.839844 202.109375 211.324219 C 202.511719 211.808594 202.714844 212.523438 202.714844 213.46875 Z M 202.714844 213.46875 "/>
<g clip-path="url(#clip7)" clip-rule="nonzero">
<path style="fill:none;stroke-width:0.8;stroke-linecap:square;stroke-linejoin:round;stroke:rgb(69.019608%,69.019608%,69.019608%);stroke-opacity:1;stroke-miterlimit:4;" d="M 50.14375 119.88125 L 245.44375 119.88125 " transform="matrix(1.25,0,0,1.25,0,0)"/>
</g>
<path style="fill:none;stroke-width:0.8;stroke-linecap:butt;stroke-linejoin:round;stroke:rgb(0%,0%,0%);stroke-opacity:1;stroke-miterlimit:4;" d="M 0 0.000531 L -3.5 0.000531 " transform="matrix(1.25,0,0,1.25,62.679688,149.850899)"/>
<path style=" stroke:none;fill-rule:nonzero;fill:rgb(0%,0%,0%);fill-opacity:1;" d="M 30.070312 146.300781 C 29.4375 146.300781 28.960938 146.613281 28.640625 147.238281 C 28.320312 147.859375 28.160156 148.800781 28.160156 150.054688 C 28.160156 151.300781 28.320312 152.238281 28.640625 152.863281 C 28.960938 153.488281 29.4375 153.800781 30.070312 153.800781 C 30.710938 153.800781 31.1875 153.488281 31.507812 152.863281 C 31.828125 152.238281 31.988281 151.300781 31.988281 150.054688 C 31.988281 148.800781 31.828125 147.859375 31.507812 147.238281 C 31.1875 146.613281 30.710938 146.300781 30.070312 146.300781 Z M 30.070312 145.324219 C 31.09375 145.324219 31.875 145.726562 32.414062 146.535156 C 32.953125 147.34375 33.21875 148.515625 33.21875 150.054688 C 33.21875 151.585938 32.953125 152.757812 32.414062 153.566406 C 31.875 154.375 31.09375 154.777344 30.070312 154.777344 C 29.050781 154.777344 28.269531 154.375 27.730469 153.566406 C 27.191406 152.757812 26.921875 151.585938 26.921875 150.054688 C 26.921875 148.515625 27.191406 147.34375 27.730469 146.535156 C 28.269531 145.726562 29.050781 145.324219 30.070312 145.324219 Z M 30.070312 145.324219 "/>
<path style=" stroke:none;fill-rule:nonzero;fill:rgb(0%,0%,0%);fill-opacity:1;" d="M 35.386719 153.050781 L 36.675781 153.050781 L 36.675781 154.601562 L 35.386719 154.601562 Z M 35.386719 153.050781 "/>
<path style=" stroke:none;fill-rule:nonzero;fill:rgb(0%,0%,0%);fill-opacity:1;" d="M 41.996094 146.300781 C 41.363281 146.300781 40.886719 146.613281 40.566406 147.238281 C 40.246094 147.859375 40.085938 148.800781 40.085938 150.054688 C 40.085938 151.300781 40.246094 152.238281 40.566406 152.863281 C 40.886719 153.488281 41.363281 153.800781 41.996094 153.800781 C 42.636719 153.800781 43.113281 153.488281 43.433594 152.863281 C 43.753906 152.238281 43.914062 151.300781 43.914062 150.054688 C 43.914062 148.800781 43.753906 147.859375 43.433594 147.238281 C 43.113281 146.613281 42.636719 146.300781 41.996094 146.300781 Z M 41.996094 145.324219 C 43.019531 145.324219 43.800781 145.726562 44.339844 146.535156 C 44.878906 147.34375 45.148438 148.515625 45.148438 150.054688 C 45.148438 151.585938 44.878906 152.757812 44.339844 153.566406 C 43.800781 154.375 43.019531 154.777344 41.996094 154.777344 C 40.976562 154.777344 40.195312 154.375 39.65625 153.566406 C 39.117188 152.757812 38.847656 151.585938 38.847656 150.054688 C 38.847656 148.515625 39.117188 147.34375 39.65625 146.535156 C 40.195312 145.726562 40.976562 145.324219 41.996094 145.324219 Z M 41.996094 145.324219 "/>
<path style=" stroke:none;fill-rule:nonzero;fill:rgb(0%,0%,0%);fill-opacity:1;" d="M 47.328125 145.488281 L 52.167969 145.488281 L 52.167969 146.527344 L 48.457031 146.527344 L 48.457031 148.757812 C 48.632812 148.695312 48.8125 148.652344 48.992188 148.621094 C 49.171875 148.589844 49.351562 148.578125 49.53125 148.578125 C 50.546875 148.578125 51.351562 148.855469 51.945312 149.414062 C 52.539062 149.96875 52.839844 150.722656 52.839844 151.675781 C 52.839844 152.65625 52.53125 153.417969 51.921875 153.964844 C 51.3125 154.507812 50.449219 154.777344 49.339844 154.777344 C 48.957031 154.777344 48.566406 154.746094 48.171875 154.679688 C 47.773438 154.613281 47.363281 154.515625 46.941406 154.386719 L 46.941406 153.148438 C 47.308594 153.347656 47.6875 153.496094 48.078125 153.59375 C 48.46875 153.691406 48.878906 153.738281 49.316406 153.738281 C 50.019531 153.738281 50.578125 153.554688 50.988281 153.183594 C 51.398438 152.8125 51.605469 152.3125 51.605469 151.675781 C 51.605469 151.042969 51.398438 150.539062 50.988281 150.171875 C 50.578125 149.800781 50.019531 149.613281 49.316406 149.613281 C 48.984375 149.613281 48.65625 149.648438 48.328125 149.722656 C 48 149.796875 47.667969 149.910156 47.328125 150.066406 Z M 47.328125 145.488281 "/>
<g clip-path="url(#clip8)" clip-rule="nonzero">
<path style="fill:none;stroke-width:0.8;stroke-linecap:square;stroke-linejoin:round;stroke:rgb(69.019608%,69.019608%,69.019608%);stroke-opacity:1;stroke-miterlimit:4;" d="M 50.14375 88.078125 L 245.44375 88.078125 " transform="matrix(1.25,0,0,1.25,0,0)"/>
</g>
<path style="fill:none;stroke-width:0.8;stroke-linecap:butt;stroke-linejoin:round;stroke:rgb(0%,0%,0%);stroke-opacity:1;stroke-miterlimit:4;" d="M 0 -0.001123 L -3.5 -0.001123 " transform="matrix(1.25,0,0,1.25,62.679688,110.09906)"/>
<path style=" stroke:none;fill-rule:nonzero;fill:rgb(0%,0%,0%);fill-opacity:1;" d="M 30.070312 106.546875 C 29.4375 106.546875 28.960938 106.859375 28.640625 107.484375 C 28.320312 108.109375 28.160156 109.046875 28.160156 110.300781 C 28.160156 111.550781 28.320312 112.488281 28.640625 113.113281 C 28.960938 113.738281 29.4375 114.050781 30.070312 114.050781 C 30.710938 114.050781 31.1875 113.738281 31.507812 113.113281 C 31.828125 112.488281 31.988281 111.550781 31.988281 110.300781 C 31.988281 109.046875 31.828125 108.109375 31.507812 107.484375 C 31.1875 106.859375 30.710938 106.546875 30.070312 106.546875 Z M 30.070312 105.570312 C 31.09375 105.570312 31.875 105.976562 32.414062 106.785156 C 32.953125 107.589844 33.21875 108.761719 33.21875 110.300781 C 33.21875 111.835938 32.953125 113.007812 32.414062 113.816406 C 31.875 114.621094 31.09375 115.027344 30.070312 115.027344 C 29.050781 115.027344 28.269531 114.621094 27.730469 113.816406 C 27.191406 113.007812 26.921875 111.835938 26.921875 110.300781 C 26.921875 108.761719 27.191406 107.589844 27.730469 106.785156 C 28.269531 105.976562 29.050781 105.570312 30.070312 105.570312 Z M 30.070312 105.570312 "/>
<path style=" stroke:none;fill-rule:nonzero;fill:rgb(0%,0%,0%);fill-opacity:1;" d="M 35.386719 113.296875 L 36.675781 113.296875 L 36.675781 114.847656 L 35.386719 114.847656 Z M 35.386719 113.296875 "/>
<path style=" stroke:none;fill-rule:nonzero;fill:rgb(0%,0%,0%);fill-opacity:1;" d="M 39.574219 113.8125 L 41.589844 113.8125 L 41.589844 106.859375 L 39.398438 107.296875 L 39.398438 106.175781 L 41.578125 105.734375 L 42.808594 105.734375 L 42.808594 113.8125 L 44.824219 113.8125 L 44.824219 114.847656 L 39.574219 114.847656 Z M 39.574219 113.8125 "/>
<path style=" stroke:none;fill-rule:nonzero;fill:rgb(0%,0%,0%);fill-opacity:1;" d="M 49.949219 106.546875 C 49.316406 106.546875 48.839844 106.859375 48.519531 107.484375 C 48.199219 108.109375 48.039062 109.046875 48.039062 110.300781 C 48.039062 111.550781 48.199219 112.488281 48.519531 113.113281 C 48.839844 113.738281 49.316406 114.050781 49.949219 114.050781 C 50.589844 114.050781 51.066406 113.738281 51.386719 113.113281 C 51.707031 112.488281 51.867188 111.550781 51.867188 110.300781 C 51.867188 109.046875 51.707031 108.109375 51.386719 107.484375 C 51.066406 106.859375 50.589844 106.546875 49.949219 106.546875 Z M 49.949219 105.570312 C 50.972656 105.570312 51.753906 105.976562 52.292969 106.785156 C 52.832031 107.589844 53.101562 108.761719 53.101562 110.300781 C 53.101562 111.835938 52.832031 113.007812 52.292969 113.816406 C 51.753906 114.621094 50.972656 115.027344 49.949219 115.027344 C 48.929688 115.027344 48.148438 114.621094 47.609375 113.816406 C 47.070312 113.007812 46.800781 111.835938 46.800781 110.300781 C 46.800781 108.761719 47.070312 107.589844 47.609375 106.785156 C 48.148438 105.976562 48.929688 105.570312 49.949219 105.570312 Z M 49.949219 105.570312 "/>
<g clip-path="url(#clip9)" clip-rule="nonzero">
<path style="fill:none;stroke-width:0.8;stroke-linecap:square;stroke-linejoin:round;stroke:rgb(69.019608%,69.019608%,69.019608%);stroke-opacity:1;stroke-miterlimit:4;" d="M 50.14375 56.278125 L 245.44375 56.278125 " transform="matrix(1.25,0,0,1.25,0,0)"/>
</g>
<path style="fill:none;stroke-width:0.8;stroke-linecap:butt;stroke-linejoin:round;stroke:rgb(0%,0%,0%);stroke-opacity:1;stroke-miterlimit:4;" d="M 0 0.000348 L -3.5 0.000348 " transform="matrix(1.25,0,0,1.25,62.679688,70.347221)"/>
<path style=" stroke:none;fill-rule:nonzero;fill:rgb(0%,0%,0%);fill-opacity:1;" d="M 30.070312 66.796875 C 29.4375 66.796875 28.960938 67.109375 28.640625 67.734375 C 28.320312 68.355469 28.160156 69.296875 28.160156 70.550781 C 28.160156 71.796875 28.320312 72.734375 28.640625 73.359375 C 28.960938 73.984375 29.4375 74.296875 30.070312 74.296875 C 30.710938 74.296875 31.1875 73.984375 31.507812 73.359375 C 31.828125 72.734375 31.988281 71.796875 31.988281 70.550781 C 31.988281 69.296875 31.828125 68.355469 31.507812 67.734375 C 31.1875 67.109375 30.710938 66.796875 30.070312 66.796875 Z M 30.070312 65.820312 C 31.09375 65.820312 31.875 66.222656 32.414062 67.03125 C 32.953125 67.839844 33.21875 69.011719 33.21875 70.550781 C 33.21875 72.082031 32.953125 73.253906 32.414062 74.0625 C 31.875 74.871094 31.09375 75.273438 30.070312 75.273438 C 29.050781 75.273438 28.269531 74.871094 27.730469 74.0625 C 27.191406 73.253906 26.921875 72.082031 26.921875 70.550781 C 26.921875 69.011719 27.191406 67.839844 27.730469 67.03125 C 28.269531 66.222656 29.050781 65.820312 30.070312 65.820312 Z M 30.070312 65.820312 "/>
<path style=" stroke:none;fill-rule:nonzero;fill:rgb(0%,0%,0%);fill-opacity:1;" d="M 35.386719 73.546875 L 36.675781 73.546875 L 36.675781 75.097656 L 35.386719 75.097656 Z M 35.386719 73.546875 "/>
<path style=" stroke:none;fill-rule:nonzero;fill:rgb(0%,0%,0%);fill-opacity:1;" d="M 39.574219 74.058594 L 41.589844 74.058594 L 41.589844 67.105469 L 39.398438 67.546875 L 39.398438 66.421875 L 41.578125 65.984375 L 42.808594 65.984375 L 42.808594 74.058594 L 44.824219 74.058594 L 44.824219 75.097656 L 39.574219 75.097656 Z M 39.574219 74.058594 "/>
<path style=" stroke:none;fill-rule:nonzero;fill:rgb(0%,0%,0%);fill-opacity:1;" d="M 47.328125 65.984375 L 52.167969 65.984375 L 52.167969 67.023438 L 48.457031 67.023438 L 48.457031 69.253906 C 48.632812 69.191406 48.8125 69.148438 48.992188 69.117188 C 49.171875 69.085938 49.351562 69.074219 49.53125 69.074219 C 50.546875 69.074219 51.351562 69.351562 51.945312 69.910156 C 52.539062 70.464844 52.839844 71.21875 52.839844 72.171875 C 52.839844 73.152344 52.53125 73.914062 51.921875 74.460938 C 51.3125 75.003906 50.449219 75.273438 49.339844 75.273438 C 48.957031 75.273438 48.566406 75.242188 48.171875 75.175781 C 47.773438 75.109375 47.363281 75.011719 46.941406 74.882812 L 46.941406 73.644531 C 47.308594 73.84375 47.6875 73.992188 48.078125 74.089844 C 48.46875 74.1875 48.878906 74.234375 49.316406 74.234375 C 50.019531 74.234375 50.578125 74.050781 50.988281 73.679688 C 51.398438 73.308594 51.605469 72.808594 51.605469 72.171875 C 51.605469 71.539062 51.398438 71.035156 50.988281 70.667969 C 50.578125 70.296875 50.019531 70.109375 49.316406 70.109375 C 48.984375 70.109375 48.65625 70.144531 48.328125 70.21875 C 48 70.292969 47.667969 70.40625 47.328125 70.5625 Z M 47.328125 65.984375 "/>
<g clip-path="url(#clip10)" clip-rule="nonzero">
<path style="fill:none;stroke-width:0.8;stroke-linecap:square;stroke-linejoin:round;stroke:rgb(69.019608%,69.019608%,69.019608%);stroke-opacity:1;stroke-miterlimit:4;" d="M 50.14375 24.475 L 245.44375 24.475 " transform="matrix(1.25,0,0,1.25,0,0)"/>
</g>
<path style="fill:none;stroke-width:0.8;stroke-linecap:butt;stroke-linejoin:round;stroke:rgb(0%,0%,0%);stroke-opacity:1;stroke-miterlimit:4;" d="M 0 -0.001307 L -3.5 -0.001307 " transform="matrix(1.25,0,0,1.25,62.679688,30.595384)"/>
<path style=" stroke:none;fill-rule:nonzero;fill:rgb(0%,0%,0%);fill-opacity:1;" d="M 30.070312 27.042969 C 29.4375 27.042969 28.960938 27.355469 28.640625 27.980469 C 28.320312 28.605469 28.160156 29.542969 28.160156 30.796875 C 28.160156 32.046875 28.320312 32.984375 28.640625 33.609375 C 28.960938 34.234375 29.4375 34.546875 30.070312 34.546875 C 30.710938 34.546875 31.1875 34.234375 31.507812 33.609375 C 31.828125 32.984375 31.988281 32.046875 31.988281 30.796875 C 31.988281 29.542969 31.828125 28.605469 31.507812 27.980469 C 31.1875 27.355469 30.710938 27.042969 30.070312 27.042969 Z M 30.070312 26.066406 C 31.09375 26.066406 31.875 26.472656 32.414062 27.28125 C 32.953125 28.085938 33.21875 29.261719 33.21875 30.796875 C 33.21875 32.332031 32.953125 33.503906 32.414062 34.3125 C 31.875 35.117188 31.09375 35.523438 30.070312 35.523438 C 29.050781 35.523438 28.269531 35.117188 27.730469 34.3125 C 27.191406 33.503906 26.921875 32.332031 26.921875 30.796875 C 26.921875 29.261719 27.191406 28.085938 27.730469 27.28125 C 28.269531 26.472656 29.050781 26.066406 30.070312 26.066406 Z M 30.070312 26.066406 "/>
<path style=" stroke:none;fill-rule:nonzero;fill:rgb(0%,0%,0%);fill-opacity:1;" d="M 35.386719 33.792969 L 36.675781 33.792969 L 36.675781 35.34375 L 35.386719 35.34375 Z M 35.386719 33.792969 "/>
<path style=" stroke:none;fill-rule:nonzero;fill:rgb(0%,0%,0%);fill-opacity:1;" d="M 40.421875 34.308594 L 44.726562 34.308594 L 44.726562 35.34375 L 38.941406 35.34375 L 38.941406 34.308594 C 39.40625 33.824219 40.042969 33.171875 40.851562 32.359375 C 41.660156 31.542969 42.167969 31.015625 42.375 30.777344 C 42.769531 30.335938 43.046875 29.960938 43.203125 29.652344 C 43.359375 29.347656 43.4375 29.042969 43.4375 28.746094 C 43.4375 28.261719 43.269531 27.867188 42.929688 27.5625 C 42.589844 27.257812 42.144531 27.105469 41.601562 27.105469 C 41.214844 27.105469 40.804688 27.171875 40.375 27.304688 C 39.945312 27.441406 39.488281 27.644531 39 27.917969 L 39 26.671875 C 39.496094 26.472656 39.960938 26.320312 40.390625 26.21875 C 40.824219 26.117188 41.21875 26.066406 41.578125 26.066406 C 42.519531 26.066406 43.273438 26.304688 43.835938 26.777344 C 44.394531 27.246094 44.675781 27.878906 44.675781 28.667969 C 44.675781 29.042969 44.605469 29.398438 44.464844 29.734375 C 44.324219 30.066406 44.070312 30.464844 43.699219 30.917969 C 43.597656 31.039062 43.273438 31.378906 42.730469 31.941406 C 42.183594 32.507812 41.414062 33.292969 40.421875 34.308594 Z M 40.421875 34.308594 "/>
<path style=" stroke:none;fill-rule:nonzero;fill:rgb(0%,0%,0%);fill-opacity:1;" d="M 49.949219 27.042969 C 49.316406 27.042969 48.839844 27.355469 48.519531 27.980469 C 48.199219 28.605469 48.039062 29.542969 48.039062 30.796875 C 48.039062 32.046875 48.199219 32.984375 48.519531 33.609375 C 48.839844 34.234375 49.316406 34.546875 49.949219 34.546875 C 50.589844 34.546875 51.066406 34.234375 51.386719 33.609375 C 51.707031 32.984375 51.867188 32.046875 51.867188 30.796875 C 51.867188 29.542969 51.707031 28.605469 51.386719 27.980469 C 51.066406 27.355469 50.589844 27.042969 49.949219 27.042969 Z M 49.949219 26.066406 C 50.972656 26.066406 51.753906 26.472656 52.292969 27.28125 C 52.832031 28.085938 53.101562 29.261719 53.101562 30.796875 C 53.101562 32.332031 52.832031 33.503906 52.292969 34.3125 C 51.753906 35.117188 50.972656 35.523438 49.949219 35.523438 C 48.929688 35.523438 48.148438 35.117188 47.609375 34.3125 C 47.070312 33.503906 46.800781 32.332031 46.800781 30.796875 C 46.800781 29.261719 47.070312 28.085938 47.609375 27.28125 C 48.148438 26.472656 48.929688 26.066406 49.949219 26.066406 Z M 49.949219 26.066406 "/>
<path style=" stroke:none;fill-rule:nonzero;fill:rgb(0%,0%,0%);fill-opacity:1;" d="M 9 106.519531 L 9 105.398438 L 18.496094 105.398438 L 18.496094 106.519531 Z M 9 106.519531 "/>
<path style=" stroke:none;fill-rule:nonzero;fill:rgb(0%,0%,0%);fill-opacity:1;" d="M 12.449219 100.398438 C 12.449219 101 12.683594 101.476562 13.152344 101.824219 C 13.625 102.175781 14.269531 102.351562 15.085938 102.351562 C 15.902344 102.351562 16.546875 102.175781 17.015625 101.828125 C 17.488281 101.480469 17.722656 101.003906 17.722656 100.398438 C 17.722656 99.800781 17.488281 99.324219 17.015625 98.976562 C 16.542969 98.625 15.898438 98.449219 15.085938 98.449219 C 14.277344 98.449219 13.632812 98.625 13.160156 98.976562 C 12.6875 99.324219 12.449219 99.800781 12.449219 100.398438 Z M 11.496094 100.398438 C 11.496094 99.421875 11.816406 98.65625 12.449219 98.097656 C 13.085938 97.539062 13.964844 97.257812 15.085938 97.257812 C 16.203125 97.257812 17.082031 97.539062 17.71875 98.097656 C 18.355469 98.65625 18.675781 99.421875 18.675781 100.398438 C 18.675781 101.378906 18.355469 102.148438 17.71875 102.703125 C 17.082031 103.257812 16.203125 103.535156 15.085938 103.535156 C 13.964844 103.535156 13.085938 103.257812 12.449219 102.703125 C 11.816406 102.148438 11.496094 101.378906 11.496094 100.398438 Z M 11.496094 100.398438 "/>
<path style=" stroke:none;fill-rule:nonzero;fill:rgb(0%,0%,0%);fill-opacity:1;" d="M 11.863281 91.042969 L 12.925781 91.042969 C 12.761719 91.359375 12.640625 91.6875 12.558594 92.03125 C 12.476562 92.371094 12.4375 92.726562 12.4375 93.09375 C 12.4375 93.648438 12.523438 94.066406 12.691406 94.347656 C 12.863281 94.625 13.121094 94.765625 13.460938 94.765625 C 13.722656 94.765625 13.925781 94.664062 14.074219 94.464844 C 14.222656 94.265625 14.367188 93.863281 14.5 93.261719 L 14.585938 92.878906 C 14.757812 92.082031 14.996094 91.515625 15.308594 91.179688 C 15.621094 90.84375 16.054688 90.675781 16.609375 90.675781 C 17.246094 90.675781 17.75 90.925781 18.121094 91.429688 C 18.492188 91.929688 18.675781 92.621094 18.675781 93.5 C 18.675781 93.867188 18.640625 94.246094 18.566406 94.644531 C 18.496094 95.042969 18.390625 95.460938 18.246094 95.898438 L 17.085938 95.898438 C 17.304688 95.484375 17.464844 95.074219 17.574219 94.671875 C 17.679688 94.269531 17.734375 93.871094 17.734375 93.476562 C 17.734375 92.945312 17.644531 92.539062 17.460938 92.257812 C 17.28125 91.972656 17.027344 91.828125 16.695312 91.828125 C 16.390625 91.828125 16.160156 91.929688 15.996094 92.136719 C 15.832031 92.339844 15.675781 92.792969 15.523438 93.488281 L 15.433594 93.878906 C 15.289062 94.574219 15.0625 95.078125 14.757812 95.386719 C 14.457031 95.695312 14.039062 95.851562 13.511719 95.851562 C 12.867188 95.851562 12.371094 95.621094 12.023438 95.167969 C 11.671875 94.710938 11.496094 94.0625 11.496094 93.226562 C 11.496094 92.8125 11.527344 92.421875 11.589844 92.054688 C 11.648438 91.6875 11.742188 91.351562 11.863281 91.042969 Z M 11.863281 91.042969 "/>
<path style=" stroke:none;fill-rule:nonzero;fill:rgb(0%,0%,0%);fill-opacity:1;" d="M 11.863281 84.527344 L 12.925781 84.527344 C 12.761719 84.84375 12.640625 85.175781 12.558594 85.515625 C 12.476562 85.859375 12.4375 86.210938 12.4375 86.578125 C 12.4375 87.136719 12.523438 87.554688 12.691406 87.832031 C 12.863281 88.113281 13.121094 88.25 13.460938 88.25 C 13.722656 88.25 13.925781 88.152344 14.074219 87.953125 C 14.222656 87.753906 14.367188 87.351562 14.5 86.75 L 14.585938 86.363281 C 14.757812 85.566406 14.996094 85 15.308594 84.664062 C 15.621094 84.328125 16.054688 84.160156 16.609375 84.160156 C 17.246094 84.160156 17.75 84.414062 18.121094 84.914062 C 18.492188 85.417969 18.675781 86.109375 18.675781 86.988281 C 18.675781 87.355469 18.640625 87.734375 18.566406 88.132812 C 18.496094 88.53125 18.390625 88.949219 18.246094 89.386719 L 17.085938 89.386719 C 17.304688 88.972656 17.464844 88.5625 17.574219 88.160156 C 17.679688 87.757812 17.734375 87.359375 17.734375 86.960938 C 17.734375 86.433594 17.644531 86.027344 17.460938 85.742188 C 17.28125 85.457031 17.027344 85.316406 16.695312 85.316406 C 16.390625 85.316406 16.160156 85.417969 15.996094 85.625 C 15.832031 85.828125 15.675781 86.28125 15.523438 86.976562 L 15.433594 87.367188 C 15.289062 88.0625 15.0625 88.566406 14.757812 88.875 C 14.457031 89.183594 14.039062 89.335938 13.511719 89.335938 C 12.867188 89.335938 12.371094 89.109375 12.023438 88.652344 C 11.671875 88.199219 11.496094 87.550781 11.496094 86.710938 C 11.496094 86.296875 11.527344 85.910156 11.589844 85.542969 C 11.648438 85.175781 11.742188 84.835938 11.863281 84.527344 Z M 11.863281 84.527344 "/>
<g clip-path="url(#clip11)" clip-rule="nonzero">
<path style="fill:none;stroke-width:1.5;stroke-linecap:square;stroke-linejoin:round;stroke:rgb(12.156863%,46.666667%,70.588235%);stroke-opacity:1;stroke-miterlimit:4;" d="M 50.14375 13.5 L 56.878125 57.15 L 63.6125 84.278125 L 70.346875 101.196875 L 77.08125 112.05625 L 83.815625 119.365625 L 90.55 123.34375 L 97.284375 127.44375 L 104.01875 130.64375 L 110.753125 132.246875 L 117.4875 133.575 L 124.221875 134.5875 L 130.95625 135.5 L 137.690625 136.490625 L 144.425 136.246875 L 151.1625 137.49375 L 157.896875 137.578125 L 164.63125 137.840625 L 171.365625 138.321875 L 178.1 138.515625 L 184.834375 138.6125 L 191.56875 138.86875 L 198.303125 138.89375 L 205.0375 139.45 L 211.771875 139.14375 L 218.50625 139.5 L 225.240625 139.465625 L 231.975 139.05625 L 238.709375 139.15 L 245.44375 139.428125 " transform="matrix(1.25,0,0,1.25,0,0)"/>
</g>
<path style="fill:none;stroke-width:0.8;stroke-linecap:square;stroke-linejoin:miter;stroke:rgb(0%,0%,0%);stroke-opacity:1;stroke-miterlimit:4;" d="M 50.14375 145.8 L 50.14375 7.2 " transform="matrix(1.25,0,0,1.25,0,0)"/>
<path style="fill:none;stroke-width:0.8;stroke-linecap:square;stroke-linejoin:miter;stroke:rgb(0%,0%,0%);stroke-opacity:1;stroke-miterlimit:4;" d="M 245.44375 145.8 L 245.44375 7.2 " transform="matrix(1.25,0,0,1.25,0,0)"/>
<path style="fill:none;stroke-width:0.8;stroke-linecap:square;stroke-linejoin:miter;stroke:rgb(0%,0%,0%);stroke-opacity:1;stroke-miterlimit:4;" d="M 50.14375 145.8 L 245.44375 145.8 " transform="matrix(1.25,0,0,1.25,0,0)"/>
<path style="fill:none;stroke-width:0.8;stroke-linecap:square;stroke-linejoin:miter;stroke:rgb(0%,0%,0%);stroke-opacity:1;stroke-miterlimit:4;" d="M 50.14375 7.2 L 245.44375 7.2 " transform="matrix(1.25,0,0,1.25,0,0)"/>
</g>
</svg>
