<?xml version="1.0" encoding="UTF-8"?>
<svg xmlns="http://www.w3.org/2000/svg" xmlns:xlink="http://www.w3.org/1999/xlink" width="320pt" height="229pt" viewBox="0 0 320 229" version="1.1">
<defs>
<clipPath id="clip1">
  <path d="M 77 168 L 90 168 L 90 182.25 L 77 182.25 Z M 77 168 "/>
</clipPath>
<clipPath id="clip2">
  <path d="M 89 124 L 102 124 L 102 182.25 L 89 182.25 Z M 89 124 "/>
</clipPath>
<clipPath id="clip3">
  <path d="M 101 17 L 113 17 L 113 182.25 L 101 182.25 Z M 101 17 "/>
</clipPath>
<clipPath id="clip4">
  <path d="M 112 65 L 125 65 L 125 182.25 L 112 182.25 Z M 112 65 "/>
</clipPath>
<clipPath id="clip5">
  <path d="M 124 114 L 137 114 L 137 182.25 L 124 182.25 Z M 124 114 "/>
</clipPath>
<clipPath id="clip6">
  <path d="M 136 137 L 148 137 L 148 182.25 L 136 182.25 Z M 136 137 "/>
</clipPath>
<clipPath id="clip7">
  <path d="M 147 148 L 160 148 L 160 182.25 L 147 182.25 Z M 147 148 "/>
</clipPath>
<clipPath id="clip8">
  <path d="M 159 157 L 172 157 L 172 182.25 L 159 182.25 Z M 159 157 "/>
</clipPath>
<clipPath id="clip9">
  <path d="M 171 163 L 183 163 L 183 182.25 L 171 182.25 Z M 171 163 "/>
</clipPath>
<clipPath id="clip10">
  <path d="M 182 168 L 195 168 L 195 182.25 L 182 182.25 Z M 182 168 "/>
</clipPath>
<clipPath id="clip11">
  <path d="M 194 171 L 207 171 L 207 182.25 L 194 182.25 Z M 194 171 "/>
</clipPath>
<clipPath id="clip12">
  <path d="M 206 173 L 218 173 L 218 182.25 L 206 182.25 Z M 206 173 "/>
</clipPath>
<clipPath id="clip13">
  <path d="M 217 176 L 230 176 L 230 182.25 L 217 182.25 Z M 217 176 "/>
</clipPath>
<clipPath id="clip14">
  <path d="M 229 177 L 242 177 L 242 182.25 L 229 182.25 Z M 229 177 "/>
</clipPath>
<clipPath id="clip15">
  <path d="M 241 178 L 253 178 L 253 182.25 L 241 182.25 Z M 241 178 "/>
</clipPath>
<clipPath id="clip16">
  <path d="M 252 179 L 265 179 L 265 182.25 L 252 182.25 Z M 252 179 "/>
</clipPath>
<clipPath id="clip17">
  <path d="M 264 179 L 277 179 L 277 182.25 L 264 182.25 Z M 264 179 "/>
</clipPath>
<clipPath id="clip18">
  <path d="M 276 180 L 289 180 L 289 182.25 L 276 182.25 Z M 276 180 "/>
</clipPath>
<clipPath id="clip19">
  <path d="M 288 180 L 300 180 L 300 182.25 L 288 182.25 Z M 288 180 "/>
</clipPath>
</defs>
<g id="surface1">
<path style=" stroke:none;fill-rule:nonzero;fill:rgb(100%,100%,100%);fill-opacity:1;" d="M 0 229.195312 L 319.785156 229.195312 L 319.785156 0 L 0 0 Z M 0 229.195312 "/>
<path style=" stroke:none;fill-rule:nonzero;fill:rgb(100%,100%,100%);fill-opacity:1;" d="M 66.660156 182.25 L 310.785156 182.25 L 310.785156 9 L 66.660156 9 Z M 66.660156 182.25 "/>
<g clip-path="url(#clip1)" clip-rule="nonzero">
<path style=" stroke:none;fill-rule:nonzero;fill:rgb(12.156863%,46.666667%,70.588235%);fill-opacity:1;" d="M 77.757812 182.25 L 89.4375 182.25 L 89.4375 168.871094 L 77.757812 168.871094 Z M 77.757812 182.25 "/>
</g>
<g clip-path="url(#clip2)" clip-rule="nonzero">
<path style=" stroke:none;fill-rule:nonzero;fill:rgb(12.156863%,46.666667%,70.588235%);fill-opacity:1;" d="M 89.4375 182.25 L 101.117188 182.25 L 101.117188 124.839844 L 89.4375 124.839844 Z M 89.4375 182.25 "/>
</g>
<g clip-path="url(#clip3)" clip-rule="nonzero">
<path style=" stroke:none;fill-rule:nonzero;fill:rgb(12.156863%,46.666667%,70.588235%);fill-opacity:1;" d="M 101.117188 182.25 L 112.796875 182.25 L 112.796875 17.25 L 101.117188 17.25 Z M 101.117188 182.25 "/>
</g>
<g clip-path="url(#clip4)" clip-rule="nonzero">
<path style=" stroke:none;fill-rule:nonzero;fill:rgb(12.156863%,46.666667%,70.588235%);fill-opacity:1;" d="M 112.796875 182.25 L 124.480469 182.25 L 124.480469 65.296875 L 112.796875 65.296875 Z M 112.796875 182.25 "/>
</g>
<g clip-path="url(#clip5)" clip-rule="nonzero">
<path style=" stroke:none;fill-rule:nonzero;fill:rgb(12.156863%,46.666667%,70.588235%);fill-opacity:1;" d="M 124.480469 182.25 L 136.160156 182.25 L 136.160156 114.097656 L 124.480469 114.097656 Z M 124.480469 182.25 "/>
</g>
<g clip-path="url(#clip6)" clip-rule="nonzero">
<path style=" stroke:none;fill-rule:nonzero;fill:rgb(12.156863%,46.666667%,70.588235%);fill-opacity:1;" d="M 136.160156 182.25 L 147.839844 182.25 L 147.839844 137.539062 L 136.160156 137.539062 Z M 136.160156 182.25 "/>
</g>
<g clip-path="url(#clip7)" clip-rule="nonzero">
<path style=" stroke:none;fill-rule:nonzero;fill:rgb(12.156863%,46.666667%,70.588235%);fill-opacity:1;" d="M 147.839844 182.25 L 159.519531 182.25 L 159.519531 148.863281 L 147.839844 148.863281 Z M 147.839844 182.25 "/>
</g>
<g clip-path="url(#clip8)" clip-rule="nonzero">
<path style=" stroke:none;fill-rule:nonzero;fill:rgb(12.156863%,46.666667%,70.588235%);fill-opacity:1;" d="M 159.519531 182.25 L 171.203125 182.25 L 171.203125 157.933594 L 159.519531 157.933594 Z M 159.519531 182.25 "/>
</g>
<g clip-path="url(#clip9)" clip-rule="nonzero">
<path style=" stroke:none;fill-rule:nonzero;fill:rgb(12.156863%,46.666667%,70.588235%);fill-opacity:1;" d="M 171.203125 182.25 L 182.882812 182.25 L 182.882812 163.886719 L 171.203125 163.886719 Z M 171.203125 182.25 "/>
</g>
<g clip-path="url(#clip10)" clip-rule="nonzero">
<path style=" stroke:none;fill-rule:nonzero;fill:rgb(12.156863%,46.666667%,70.588235%);fill-opacity:1;" d="M 182.882812 182.25 L 194.5625 182.25 L 194.5625 168.195312 L 182.882812 168.195312 Z M 182.882812 182.25 "/>
</g>
<g clip-path="url(#clip11)" clip-rule="nonzero">
<path style=" stroke:none;fill-rule:nonzero;fill:rgb(12.156863%,46.666667%,70.588235%);fill-opacity:1;" d="M 194.5625 182.25 L 206.242188 182.25 L 206.242188 171.675781 L 194.5625 171.675781 Z M 194.5625 182.25 "/>
</g>
<g clip-path="url(#clip12)" clip-rule="nonzero">
<path style=" stroke:none;fill-rule:nonzero;fill:rgb(12.156863%,46.666667%,70.588235%);fill-opacity:1;" d="M 206.242188 182.25 L 217.925781 182.25 L 217.925781 173.804688 L 206.242188 173.804688 Z M 206.242188 182.25 "/>
</g>
<g clip-path="url(#clip13)" clip-rule="nonzero">
<path style=" stroke:none;fill-rule:nonzero;fill:rgb(12.156863%,46.666667%,70.588235%);fill-opacity:1;" d="M 217.925781 182.25 L 229.605469 182.25 L 229.605469 176.03125 L 217.925781 176.03125 Z M 217.925781 182.25 "/>
</g>
<g clip-path="url(#clip14)" clip-rule="nonzero">
<path style=" stroke:none;fill-rule:nonzero;fill:rgb(12.156863%,46.666667%,70.588235%);fill-opacity:1;" d="M 229.605469 182.25 L 241.285156 182.25 L 241.285156 177.242188 L 229.605469 177.242188 Z M 229.605469 182.25 "/>
</g>
<g clip-path="url(#clip15)" clip-rule="nonzero">
<path style=" stroke:none;fill-rule:nonzero;fill:rgb(12.156863%,46.666667%,70.588235%);fill-opacity:1;" d="M 241.285156 182.25 L 252.964844 182.25 L 252.964844 178.039062 L 241.285156 178.039062 Z M 241.285156 182.25 "/>
</g>
<g clip-path="url(#clip16)" clip-rule="nonzero">
<path style=" stroke:none;fill-rule:nonzero;fill:rgb(12.156863%,46.666667%,70.588235%);fill-opacity:1;" d="M 252.964844 182.25 L 264.648438 182.25 L 264.648438 179.03125 L 252.964844 179.03125 Z M 252.964844 182.25 "/>
</g>
<g clip-path="url(#clip17)" clip-rule="nonzero">
<path style=" stroke:none;fill-rule:nonzero;fill:rgb(12.156863%,46.666667%,70.588235%);fill-opacity:1;" d="M 264.648438 182.25 L 276.328125 182.25 L 276.328125 179.445312 L 264.648438 179.445312 Z M 264.648438 182.25 "/>
</g>
<g clip-path="url(#clip18)" clip-rule="nonzero">
<path style=" stroke:none;fill-rule:nonzero;fill:rgb(12.156863%,46.666667%,70.588235%);fill-opacity:1;" d="M 276.328125 182.25 L 288.007812 182.25 L 288.007812 180.195312 L 276.328125 180.195312 Z M 276.328125 182.25 "/>
</g>
<g clip-path="url(#clip19)" clip-rule="nonzero">
<path style=" stroke:none;fill-rule:nonzero;fill:rgb(12.156863%,46.666667%,70.588235%);fill-opacity:1;" d="M 288.007812 182.25 L 299.6875 182.25 L 299.6875 180.433594 L 288.007812 180.433594 Z M 288.007812 182.25 "/>
</g>
<path style="fill:none;stroke-width:0.8;stroke-linecap:butt;stroke-linejoin:round;stroke:rgb(0%,0%,0%);stroke-opacity:1;stroke-miterlimit:4;" d="M 0.000852 0 L 0.000852 3.5 " transform="matrix(1.25,0,0,1.25,77.756748,182.25)"/>
<path style=" stroke:none;fill-rule:nonzero;fill:rgb(0%,0%,0%);fill-opacity:1;" d="M 77.753906 192.199219 C 77.117188 192.199219 76.640625 192.511719 76.320312 193.136719 C 76.003906 193.757812 75.84375 194.699219 75.84375 195.953125 C 75.84375 197.199219 76.003906 198.136719 76.320312 198.761719 C 76.640625 199.386719 77.117188 199.699219 77.753906 199.699219 C 78.390625 199.699219 78.871094 199.386719 79.191406 198.761719 C 79.511719 198.136719 79.671875 197.199219 79.671875 195.953125 C 79.671875 194.699219 79.511719 193.757812 79.191406 193.136719 C 78.871094 192.511719 78.390625 192.199219 77.753906 192.199219 Z M 77.753906 191.222656 C 78.773438 191.222656 79.554688 191.625 80.09375 192.433594 C 80.632812 193.242188 80.902344 194.414062 80.902344 195.953125 C 80.902344 197.484375 80.632812 198.65625 80.09375 199.464844 C 79.554688 200.273438 78.773438 200.675781 77.753906 200.675781 C 76.730469 200.675781 75.953125 200.273438 75.414062 199.464844 C 74.875 198.65625 74.605469 197.484375 74.605469 195.953125 C 74.605469 194.414062 74.875 193.242188 75.414062 192.433594 C 75.953125 191.625 76.730469 191.222656 77.753906 191.222656 Z M 77.753906 191.222656 "/>
<path style="fill:none;stroke-width:0.8;stroke-linecap:butt;stroke-linejoin:round;stroke:rgb(0%,0%,0%);stroke-opacity:1;stroke-miterlimit:4;" d="M 0.000987 0 L 0.000987 3.5 " transform="matrix(1.25,0,0,1.25,124.479235,182.25)"/>
<path style=" stroke:none;fill-rule:nonzero;fill:rgb(0%,0%,0%);fill-opacity:1;" d="M 114.949219 199.460938 L 119.25 199.460938 L 119.25 200.5 L 113.464844 200.5 L 113.464844 199.460938 C 113.933594 198.976562 114.570312 198.328125 115.378906 197.511719 C 116.1875 196.695312 116.695312 196.167969 116.902344 195.933594 C 117.296875 195.488281 117.570312 195.113281 117.726562 194.808594 C 117.886719 194.5 117.964844 194.199219 117.964844 193.902344 C 117.964844 193.417969 117.792969 193.023438 117.453125 192.71875 C 117.113281 192.410156 116.671875 192.257812 116.125 192.257812 C 115.738281 192.257812 115.332031 192.324219 114.902344 192.460938 C 114.472656 192.59375 114.015625 192.796875 113.527344 193.070312 L 113.527344 191.824219 C 114.023438 191.625 114.484375 191.476562 114.917969 191.375 C 115.347656 191.273438 115.746094 191.222656 116.101562 191.222656 C 117.046875 191.222656 117.800781 191.457031 118.359375 191.929688 C 118.921875 192.402344 119.203125 193.03125 119.203125 193.820312 C 119.203125 194.195312 119.132812 194.550781 118.992188 194.886719 C 118.851562 195.222656 118.597656 195.617188 118.226562 196.074219 C 118.125 196.191406 117.800781 196.53125 117.253906 197.097656 C 116.710938 197.660156 115.941406 198.449219 114.949219 199.460938 Z M 114.949219 199.460938 "/>
<path style=" stroke:none;fill-rule:nonzero;fill:rgb(0%,0%,0%);fill-opacity:1;" d="M 124.476562 192.199219 C 123.839844 192.199219 123.363281 192.511719 123.042969 193.136719 C 122.722656 193.757812 122.566406 194.699219 122.566406 195.953125 C 122.566406 197.199219 122.722656 198.136719 123.042969 198.761719 C 123.363281 199.386719 123.839844 199.699219 124.476562 199.699219 C 125.113281 199.699219 125.59375 199.386719 125.914062 198.761719 C 126.234375 198.136719 126.394531 197.199219 126.394531 195.953125 C 126.394531 194.699219 126.234375 193.757812 125.914062 193.136719 C 125.59375 192.511719 125.113281 192.199219 124.476562 192.199219 Z M 124.476562 191.222656 C 125.496094 191.222656 126.277344 191.625 126.816406 192.433594 C 127.355469 193.242188 127.625 194.414062 127.625 195.953125 C 127.625 197.484375 127.355469 198.65625 126.816406 199.464844 C 126.277344 200.273438 125.496094 200.675781 124.476562 200.675781 C 123.453125 200.675781 122.675781 200.273438 122.136719 199.464844 C 121.597656 198.65625 121.328125 197.484375 121.328125 195.953125 C 121.328125 194.414062 121.597656 193.242188 122.136719 192.433594 C 122.675781 191.625 123.453125 191.222656 124.476562 191.222656 Z M 124.476562 191.222656 "/>
<path style=" stroke:none;fill-rule:nonzero;fill:rgb(0%,0%,0%);fill-opacity:1;" d="M 132.429688 192.199219 C 131.792969 192.199219 131.316406 192.511719 130.996094 193.136719 C 130.675781 193.757812 130.519531 194.699219 130.519531 195.953125 C 130.519531 197.199219 130.675781 198.136719 130.996094 198.761719 C 131.316406 199.386719 131.792969 199.699219 132.429688 199.699219 C 133.066406 199.699219 133.546875 199.386719 133.867188 198.761719 C 134.1875 198.136719 134.347656 197.199219 134.347656 195.953125 C 134.347656 194.699219 134.1875 193.757812 133.867188 193.136719 C 133.546875 192.511719 133.066406 192.199219 132.429688 192.199219 Z M 132.429688 191.222656 C 133.449219 191.222656 134.230469 191.625 134.769531 192.433594 C 135.308594 193.242188 135.578125 194.414062 135.578125 195.953125 C 135.578125 197.484375 135.308594 198.65625 134.769531 199.464844 C 134.230469 200.273438 133.449219 200.675781 132.429688 200.675781 C 131.40625 200.675781 130.628906 200.273438 130.089844 199.464844 C 129.550781 198.65625 129.28125 197.484375 129.28125 195.953125 C 129.28125 194.414062 129.550781 193.242188 130.089844 192.433594 C 130.628906 191.625 131.40625 191.222656 132.429688 191.222656 Z M 132.429688 191.222656 "/>
<path style="fill:none;stroke-width:0.8;stroke-linecap:butt;stroke-linejoin:round;stroke:rgb(0%,0%,0%);stroke-opacity:1;stroke-miterlimit:4;" d="M 0.001121 0 L 0.001121 3.5 " transform="matrix(1.25,0,0,1.25,171.201724,182.25)"/>
<path style=" stroke:none;fill-rule:nonzero;fill:rgb(0%,0%,0%);fill-opacity:1;" d="M 163.996094 192.460938 L 160.882812 197.324219 L 163.996094 197.324219 Z M 163.671875 191.386719 L 165.222656 191.386719 L 165.222656 197.324219 L 166.523438 197.324219 L 166.523438 198.351562 L 165.222656 198.351562 L 165.222656 200.5 L 163.996094 200.5 L 163.996094 198.351562 L 159.882812 198.351562 L 159.882812 197.160156 Z M 163.671875 191.386719 "/>
<path style=" stroke:none;fill-rule:nonzero;fill:rgb(0%,0%,0%);fill-opacity:1;" d="M 171.199219 192.199219 C 170.5625 192.199219 170.085938 192.511719 169.765625 193.136719 C 169.445312 193.757812 169.289062 194.699219 169.289062 195.953125 C 169.289062 197.199219 169.445312 198.136719 169.765625 198.761719 C 170.085938 199.386719 170.5625 199.699219 171.199219 199.699219 C 171.835938 199.699219 172.316406 199.386719 172.636719 198.761719 C 172.957031 198.136719 173.117188 197.199219 173.117188 195.953125 C 173.117188 194.699219 172.957031 193.757812 172.636719 193.136719 C 172.316406 192.511719 171.835938 192.199219 171.199219 192.199219 Z M 171.199219 191.222656 C 172.21875 191.222656 173 191.625 173.539062 192.433594 C 174.078125 193.242188 174.347656 194.414062 174.347656 195.953125 C 174.347656 197.484375 174.078125 198.65625 173.539062 199.464844 C 173 200.273438 172.21875 200.675781 171.199219 200.675781 C 170.175781 200.675781 169.398438 200.273438 168.859375 199.464844 C 168.320312 198.65625 168.050781 197.484375 168.050781 195.953125 C 168.050781 194.414062 168.320312 193.242188 168.859375 192.433594 C 169.398438 191.625 170.175781 191.222656 171.199219 191.222656 Z M 171.199219 191.222656 "/>
<path style=" stroke:none;fill-rule:nonzero;fill:rgb(0%,0%,0%);fill-opacity:1;" d="M 179.152344 192.199219 C 178.515625 192.199219 178.039062 192.511719 177.71875 193.136719 C 177.398438 193.757812 177.242188 194.699219 177.242188 195.953125 C 177.242188 197.199219 177.398438 198.136719 177.71875 198.761719 C 178.039062 199.386719 178.515625 199.699219 179.152344 199.699219 C 179.789062 199.699219 180.269531 199.386719 180.589844 198.761719 C 180.910156 198.136719 181.070312 197.199219 181.070312 195.953125 C 181.070312 194.699219 180.910156 193.757812 180.589844 193.136719 C 180.269531 192.511719 179.789062 192.199219 179.152344 192.199219 Z M 179.152344 191.222656 C 180.171875 191.222656 180.953125 191.625 181.492188 192.433594 C 182.03125 193.242188 182.300781 194.414062 182.300781 195.953125 C 182.300781 197.484375 182.03125 198.65625 181.492188 199.464844 C 180.953125 200.273438 180.171875 200.675781 179.152344 200.675781 C 178.128906 200.675781 177.351562 200.273438 176.8125 199.464844 C 176.273438 198.65625 176.003906 197.484375 176.003906 195.953125 C 176.003906 194.414062 176.273438 193.242188 176.8125 192.433594 C 177.351562 191.625 178.128906 191.222656 179.152344 191.222656 Z M 179.152344 191.222656 "/>
<path style="fill:none;stroke-width:0.8;stroke-linecap:butt;stroke-linejoin:round;stroke:rgb(0%,0%,0%);stroke-opacity:1;stroke-miterlimit:4;" d="M 0.001256 0 L 0.001256 3.5 " transform="matrix(1.25,0,0,1.25,217.924211,182.25)"/>
<path style=" stroke:none;fill-rule:nonzero;fill:rgb(0%,0%,0%);fill-opacity:1;" d="M 210.121094 195.453125 C 209.566406 195.453125 209.128906 195.640625 208.804688 196.019531 C 208.480469 196.398438 208.320312 196.914062 208.320312 197.574219 C 208.320312 198.230469 208.480469 198.746094 208.804688 199.128906 C 209.128906 199.507812 209.566406 199.699219 210.121094 199.699219 C 210.675781 199.699219 211.113281 199.507812 211.4375 199.128906 C 211.757812 198.746094 211.921875 198.230469 211.921875 197.574219 C 211.921875 196.914062 211.757812 196.398438 211.4375 196.019531 C 211.113281 195.640625 210.675781 195.453125 210.121094 195.453125 Z M 212.570312 191.585938 L 212.570312 192.710938 C 212.257812 192.5625 211.945312 192.453125 211.632812 192.375 C 211.316406 192.296875 211.003906 192.257812 210.695312 192.257812 C 209.878906 192.257812 209.257812 192.53125 208.828125 193.082031 C 208.398438 193.632812 208.15625 194.460938 208.09375 195.574219 C 208.332031 195.21875 208.632812 194.945312 208.996094 194.757812 C 209.359375 194.570312 209.757812 194.476562 210.195312 194.476562 C 211.109375 194.476562 211.832031 194.753906 212.363281 195.308594 C 212.894531 195.863281 213.160156 196.617188 213.160156 197.574219 C 213.160156 198.511719 212.882812 199.261719 212.332031 199.828125 C 211.777344 200.394531 211.039062 200.675781 210.121094 200.675781 C 209.066406 200.675781 208.261719 200.273438 207.703125 199.464844 C 207.144531 198.65625 206.867188 197.484375 206.867188 195.953125 C 206.867188 194.511719 207.210938 193.363281 207.894531 192.507812 C 208.578125 191.648438 209.492188 191.222656 210.644531 191.222656 C 210.953125 191.222656 211.265625 191.25 211.582031 191.3125 C 211.898438 191.375 212.226562 191.464844 212.570312 191.585938 Z M 212.570312 191.585938 "/>
<path style=" stroke:none;fill-rule:nonzero;fill:rgb(0%,0%,0%);fill-opacity:1;" d="M 217.921875 192.199219 C 217.285156 192.199219 216.808594 192.511719 216.488281 193.136719 C 216.167969 193.757812 216.011719 194.699219 216.011719 195.953125 C 216.011719 197.199219 216.167969 198.136719 216.488281 198.761719 C 216.808594 199.386719 217.285156 199.699219 217.921875 199.699219 C 218.558594 199.699219 219.039062 199.386719 219.359375 198.761719 C 219.679688 198.136719 219.839844 197.199219 219.839844 195.953125 C 219.839844 194.699219 219.679688 193.757812 219.359375 193.136719 C 219.039062 192.511719 218.558594 192.199219 217.921875 192.199219 Z M 217.921875 191.222656 C 218.941406 191.222656 219.722656 191.625 220.261719 192.433594 C 220.800781 193.242188 221.070312 194.414062 221.070312 195.953125 C 221.070312 197.484375 220.800781 198.65625 220.261719 199.464844 C 219.722656 200.273438 218.941406 200.675781 217.921875 200.675781 C 216.898438 200.675781 216.121094 200.273438 215.582031 199.464844 C 215.042969 198.65625 214.773438 197.484375 214.773438 195.953125 C 214.773438 194.414062 215.042969 193.242188 215.582031 192.433594 C 216.121094 191.625 216.898438 191.222656 217.921875 191.222656 Z M 217.921875 191.222656 "/>
<path style=" stroke:none;fill-rule:nonzero;fill:rgb(0%,0%,0%);fill-opacity:1;" d="M 225.871094 192.199219 C 225.238281 192.199219 224.761719 192.511719 224.441406 193.136719 C 224.121094 193.757812 223.960938 194.699219 223.960938 195.953125 C 223.960938 197.199219 224.121094 198.136719 224.441406 198.761719 C 224.761719 199.386719 225.238281 199.699219 225.871094 199.699219 C 226.511719 199.699219 226.992188 199.386719 227.308594 198.761719 C 227.628906 198.136719 227.789062 197.199219 227.789062 195.953125 C 227.789062 194.699219 227.628906 193.757812 227.308594 193.136719 C 226.992188 192.511719 226.511719 192.199219 225.871094 192.199219 Z M 225.871094 191.222656 C 226.894531 191.222656 227.675781 191.625 228.214844 192.433594 C 228.753906 193.242188 229.023438 194.414062 229.023438 195.953125 C 229.023438 197.484375 228.753906 198.65625 228.214844 199.464844 C 227.675781 200.273438 226.894531 200.675781 225.871094 200.675781 C 224.851562 200.675781 224.070312 200.273438 223.53125 199.464844 C 222.992188 198.65625 222.722656 197.484375 222.722656 195.953125 C 222.722656 194.414062 222.992188 193.242188 223.53125 192.433594 C 224.070312 191.625 224.851562 191.222656 225.871094 191.222656 Z M 225.871094 191.222656 "/>
<path style="fill:none;stroke-width:0.8;stroke-linecap:butt;stroke-linejoin:round;stroke:rgb(0%,0%,0%);stroke-opacity:1;stroke-miterlimit:4;" d="M 0.001391 0 L 0.001391 3.5 " transform="matrix(1.25,0,0,1.25,264.646699,182.25)"/>
<path style=" stroke:none;fill-rule:nonzero;fill:rgb(0%,0%,0%);fill-opacity:1;" d="M 256.691406 196.171875 C 256.105469 196.171875 255.644531 196.328125 255.308594 196.640625 C 254.972656 196.953125 254.804688 197.386719 254.804688 197.933594 C 254.804688 198.484375 254.972656 198.914062 255.308594 199.230469 C 255.644531 199.542969 256.105469 199.699219 256.691406 199.699219 C 257.277344 199.699219 257.738281 199.542969 258.074219 199.226562 C 258.414062 198.910156 258.582031 198.480469 258.582031 197.933594 C 258.582031 197.386719 258.414062 196.953125 258.078125 196.640625 C 257.742188 196.328125 257.28125 196.171875 256.691406 196.171875 Z M 255.457031 195.648438 C 254.929688 195.515625 254.515625 195.269531 254.222656 194.910156 C 253.925781 194.546875 253.78125 194.101562 253.78125 193.582031 C 253.78125 192.855469 254.039062 192.277344 254.558594 191.855469 C 255.078125 191.433594 255.789062 191.222656 256.691406 191.222656 C 257.597656 191.222656 258.308594 191.433594 258.828125 191.855469 C 259.34375 192.277344 259.601562 192.855469 259.601562 193.582031 C 259.601562 194.101562 259.453125 194.546875 259.160156 194.910156 C 258.863281 195.269531 258.453125 195.515625 257.929688 195.648438 C 258.523438 195.785156 258.984375 196.054688 259.316406 196.460938 C 259.648438 196.863281 259.816406 197.351562 259.816406 197.933594 C 259.816406 198.816406 259.546875 199.496094 259.007812 199.96875 C 258.46875 200.441406 257.695312 200.675781 256.691406 200.675781 C 255.6875 200.675781 254.914062 200.441406 254.375 199.96875 C 253.835938 199.496094 253.566406 198.816406 253.566406 197.933594 C 253.566406 197.351562 253.730469 196.863281 254.066406 196.460938 C 254.398438 196.054688 254.863281 195.785156 255.457031 195.648438 Z M 255.007812 193.699219 C 255.007812 194.171875 255.152344 194.539062 255.449219 194.804688 C 255.742188 195.066406 256.15625 195.199219 256.691406 195.199219 C 257.21875 195.199219 257.632812 195.066406 257.933594 194.804688 C 258.230469 194.539062 258.382812 194.171875 258.382812 193.699219 C 258.382812 193.226562 258.230469 192.859375 257.933594 192.59375 C 257.632812 192.328125 257.21875 192.199219 256.691406 192.199219 C 256.15625 192.199219 255.742188 192.328125 255.449219 192.59375 C 255.152344 192.859375 255.007812 193.226562 255.007812 193.699219 Z M 255.007812 193.699219 "/>
<path style=" stroke:none;fill-rule:nonzero;fill:rgb(0%,0%,0%);fill-opacity:1;" d="M 264.640625 192.199219 C 264.007812 192.199219 263.53125 192.511719 263.210938 193.136719 C 262.890625 193.757812 262.730469 194.699219 262.730469 195.953125 C 262.730469 197.199219 262.890625 198.136719 263.210938 198.761719 C 263.53125 199.386719 264.007812 199.699219 264.640625 199.699219 C 265.28125 199.699219 265.761719 199.386719 266.078125 198.761719 C 266.398438 198.136719 266.558594 197.199219 266.558594 195.953125 C 266.558594 194.699219 266.398438 193.757812 266.078125 193.136719 C 265.761719 192.511719 265.28125 192.199219 264.640625 192.199219 Z M 264.640625 191.222656 C 265.664062 191.222656 266.445312 191.625 266.984375 192.433594 C 267.523438 193.242188 267.792969 194.414062 267.792969 195.953125 C 267.792969 197.484375 267.523438 198.65625 266.984375 199.464844 C 266.445312 200.273438 265.664062 200.675781 264.640625 200.675781 C 263.621094 200.675781 262.839844 200.273438 262.300781 199.464844 C 261.761719 198.65625 261.492188 197.484375 261.492188 195.953125 C 261.492188 194.414062 261.761719 193.242188 262.300781 192.433594 C 262.839844 191.625 263.621094 191.222656 264.640625 191.222656 Z M 264.640625 191.222656 "/>
<path style=" stroke:none;fill-rule:nonzero;fill:rgb(0%,0%,0%);fill-opacity:1;" d="M 272.59375 192.199219 C 271.960938 192.199219 271.484375 192.511719 271.164062 193.136719 C 270.84375 193.757812 270.683594 194.699219 270.683594 195.953125 C 270.683594 197.199219 270.84375 198.136719 271.164062 198.761719 C 271.484375 199.386719 271.960938 199.699219 272.59375 199.699219 C 273.234375 199.699219 273.714844 199.386719 274.03125 198.761719 C 274.351562 198.136719 274.511719 197.199219 274.511719 195.953125 C 274.511719 194.699219 274.351562 193.757812 274.03125 193.136719 C 273.714844 192.511719 273.234375 192.199219 272.59375 192.199219 Z M 272.59375 191.222656 C 273.617188 191.222656 274.398438 191.625 274.9375 192.433594 C 275.476562 193.242188 275.746094 194.414062 275.746094 195.953125 C 275.746094 197.484375 275.476562 198.65625 274.9375 199.464844 C 274.398438 200.273438 273.617188 200.675781 272.59375 200.675781 C 271.574219 200.675781 270.792969 200.273438 270.253906 199.464844 C 269.714844 198.65625 269.445312 197.484375 269.445312 195.953125 C 269.445312 194.414062 269.714844 193.242188 270.253906 192.433594 C 270.792969 191.625 271.574219 191.222656 272.59375 191.222656 Z M 272.59375 191.222656 "/>
<path style=" stroke:none;fill-rule:nonzero;fill:rgb(0%,0%,0%);fill-opacity:1;" d="M 132.136719 212.097656 L 130.363281 212.097656 L 129.847656 214.136719 L 131.636719 214.136719 Z M 131.222656 208.625 L 130.585938 211.15625 L 132.371094 211.15625 L 133.011719 208.625 L 133.988281 208.625 L 133.359375 211.15625 L 135.261719 211.15625 L 135.261719 212.097656 L 133.121094 212.097656 L 132.621094 214.136719 L 134.5625 214.136719 L 134.5625 215.070312 L 132.382812 215.070312 L 131.746094 217.597656 L 130.769531 217.597656 L 131.398438 215.070312 L 129.609375 215.070312 L 128.980469 217.597656 L 128 217.597656 L 128.632812 215.070312 L 126.710938 215.070312 L 126.710938 214.136719 L 128.859375 214.136719 L 129.371094 212.097656 L 127.40625 212.097656 L 127.40625 211.15625 L 129.609375 211.15625 L 130.234375 208.625 Z M 131.222656 208.625 "/>
<path style=" stroke:none;fill-rule:nonzero;fill:rgb(0%,0%,0%);fill-opacity:1;" d="M 142.484375 208.820312 L 142.484375 210.761719 L 144.796875 210.761719 L 144.796875 211.632812 L 142.484375 211.632812 L 142.484375 215.34375 C 142.484375 215.902344 142.558594 216.257812 142.710938 216.417969 C 142.863281 216.578125 143.175781 216.65625 143.644531 216.65625 L 144.796875 216.65625 L 144.796875 217.597656 L 143.644531 217.597656 C 142.777344 217.597656 142.179688 217.433594 141.847656 217.113281 C 141.519531 216.789062 141.355469 216.199219 141.355469 215.34375 L 141.355469 211.632812 L 140.53125 211.632812 L 140.53125 210.761719 L 141.355469 210.761719 L 141.355469 208.820312 Z M 142.484375 208.820312 "/>
<path style=" stroke:none;fill-rule:nonzero;fill:rgb(0%,0%,0%);fill-opacity:1;" d="M 148.921875 211.546875 C 148.320312 211.546875 147.84375 211.78125 147.492188 212.253906 C 147.144531 212.722656 146.96875 213.367188 146.96875 214.183594 C 146.96875 215 147.140625 215.644531 147.488281 216.117188 C 147.839844 216.585938 148.316406 216.820312 148.921875 216.820312 C 149.519531 216.820312 149.996094 216.585938 150.34375 216.113281 C 150.695312 215.640625 150.867188 214.996094 150.867188 214.183594 C 150.867188 213.375 150.695312 212.730469 150.34375 212.257812 C 149.996094 211.785156 149.519531 211.546875 148.921875 211.546875 Z M 148.921875 210.597656 C 149.898438 210.597656 150.664062 210.914062 151.222656 211.550781 C 151.78125 212.183594 152.058594 213.0625 152.058594 214.183594 C 152.058594 215.300781 151.78125 216.179688 151.222656 216.820312 C 150.664062 217.457031 149.898438 217.773438 148.921875 217.773438 C 147.941406 217.773438 147.171875 217.457031 146.617188 216.820312 C 146.0625 216.179688 145.785156 215.300781 145.785156 214.183594 C 145.785156 213.0625 146.0625 212.183594 146.617188 211.550781 C 147.171875 210.914062 147.941406 210.597656 148.921875 210.597656 Z M 148.921875 210.597656 "/>
<path style=" stroke:none;fill-rule:nonzero;fill:rgb(0%,0%,0%);fill-opacity:1;" d="M 153.878906 208.097656 L 155.007812 208.097656 L 155.007812 213.707031 L 158.359375 210.761719 L 159.792969 210.761719 L 156.167969 213.957031 L 159.945312 217.597656 L 158.480469 217.597656 L 155.007812 214.257812 L 155.007812 217.597656 L 153.878906 217.597656 Z M 153.878906 208.097656 "/>
<path style=" stroke:none;fill-rule:nonzero;fill:rgb(0%,0%,0%);fill-opacity:1;" d="M 166.554688 213.898438 L 166.554688 214.445312 L 161.390625 214.445312 C 161.4375 215.21875 161.671875 215.808594 162.089844 216.214844 C 162.503906 216.617188 163.085938 216.820312 163.832031 216.820312 C 164.261719 216.820312 164.679688 216.769531 165.085938 216.664062 C 165.488281 216.558594 165.890625 216.398438 166.292969 216.1875 L 166.292969 217.25 C 165.886719 217.417969 165.476562 217.550781 165.050781 217.640625 C 164.628906 217.730469 164.199219 217.773438 163.765625 217.773438 C 162.671875 217.773438 161.808594 217.457031 161.171875 216.824219 C 160.535156 216.1875 160.21875 215.328125 160.21875 214.246094 C 160.21875 213.125 160.519531 212.238281 161.125 211.582031 C 161.726562 210.925781 162.542969 210.597656 163.570312 210.597656 C 164.488281 210.597656 165.214844 210.890625 165.75 211.484375 C 166.285156 212.074219 166.554688 212.878906 166.554688 213.898438 Z M 165.429688 213.566406 C 165.421875 212.953125 165.25 212.464844 164.914062 212.097656 C 164.578125 211.730469 164.132812 211.546875 163.582031 211.546875 C 162.953125 211.546875 162.453125 211.722656 162.078125 212.078125 C 161.699219 212.433594 161.484375 212.929688 161.425781 213.574219 Z M 165.429688 213.566406 "/>
<path style=" stroke:none;fill-rule:nonzero;fill:rgb(0%,0%,0%);fill-opacity:1;" d="M 174.082031 213.46875 L 174.082031 217.597656 L 172.957031 217.597656 L 172.957031 213.507812 C 172.957031 212.859375 172.832031 212.375 172.578125 212.054688 C 172.324219 211.734375 171.949219 211.574219 171.445312 211.574219 C 170.835938 211.574219 170.359375 211.765625 170.007812 212.152344 C 169.65625 212.539062 169.484375 213.066406 169.484375 213.734375 L 169.484375 217.597656 L 168.355469 217.597656 L 168.355469 210.761719 L 169.484375 210.761719 L 169.484375 211.824219 C 169.753906 211.410156 170.070312 211.105469 170.433594 210.902344 C 170.796875 210.699219 171.21875 210.597656 171.695312 210.597656 C 172.480469 210.597656 173.074219 210.839844 173.476562 211.324219 C 173.878906 211.808594 174.082031 212.523438 174.082031 213.46875 Z M 174.082031 213.46875 "/>
<path style=" stroke:none;fill-rule:nonzero;fill:rgb(0%,0%,0%);fill-opacity:1;" d="M 180.675781 210.960938 L 180.675781 212.023438 C 180.359375 211.859375 180.03125 211.738281 179.6875 211.660156 C 179.347656 211.578125 178.992188 211.535156 178.625 211.535156 C 178.070312 211.535156 177.652344 211.621094 177.371094 211.792969 C 177.09375 211.960938 176.953125 212.21875 176.953125 212.5625 C 176.953125 212.820312 177.054688 213.027344 177.253906 213.175781 C 177.453125 213.324219 177.851562 213.464844 178.457031 213.597656 L 178.839844 213.683594 C 179.636719 213.855469 180.203125 214.09375 180.539062 214.40625 C 180.875 214.71875 181.042969 215.152344 181.042969 215.710938 C 181.042969 216.34375 180.792969 216.847656 180.289062 217.21875 C 179.789062 217.589844 179.097656 217.773438 178.21875 217.773438 C 177.851562 217.773438 177.46875 217.738281 177.074219 217.667969 C 176.675781 217.59375 176.257812 217.488281 175.820312 217.347656 L 175.820312 216.1875 C 176.234375 216.402344 176.644531 216.5625 177.046875 216.671875 C 177.449219 216.777344 177.847656 216.832031 178.242188 216.832031 C 178.773438 216.832031 179.179688 216.742188 179.460938 216.5625 C 179.746094 216.378906 179.890625 216.125 179.890625 215.796875 C 179.890625 215.492188 179.785156 215.257812 179.582031 215.09375 C 179.375 214.929688 178.925781 214.773438 178.230469 214.625 L 177.839844 214.53125 C 177.144531 214.386719 176.640625 214.160156 176.332031 213.859375 C 176.023438 213.554688 175.867188 213.136719 175.867188 212.609375 C 175.867188 211.964844 176.097656 211.46875 176.550781 211.121094 C 177.007812 210.769531 177.65625 210.597656 178.492188 210.597656 C 178.90625 210.597656 179.296875 210.625 179.664062 210.6875 C 180.03125 210.746094 180.367188 210.839844 180.675781 210.960938 Z M 180.675781 210.960938 "/>
<path style=" stroke:none;fill-rule:nonzero;fill:rgb(0%,0%,0%);fill-opacity:1;" d="M 187.890625 216.570312 L 187.890625 220.195312 L 186.761719 220.195312 L 186.761719 210.761719 L 187.890625 210.761719 L 187.890625 211.796875 C 188.128906 211.390625 188.425781 211.089844 188.785156 210.894531 C 189.144531 210.695312 189.578125 210.597656 190.078125 210.597656 C 190.90625 210.597656 191.582031 210.925781 192.101562 211.585938 C 192.621094 212.242188 192.878906 213.109375 192.878906 214.183594 C 192.878906 215.257812 192.621094 216.125 192.101562 216.785156 C 191.582031 217.445312 190.90625 217.773438 190.078125 217.773438 C 189.578125 217.773438 189.144531 217.675781 188.785156 217.476562 C 188.425781 217.277344 188.128906 216.976562 187.890625 216.570312 Z M 191.714844 214.183594 C 191.714844 213.359375 191.542969 212.710938 191.203125 212.242188 C 190.863281 211.769531 190.398438 211.535156 189.804688 211.535156 C 189.207031 211.535156 188.742188 211.769531 188.402344 212.242188 C 188.0625 212.710938 187.890625 213.359375 187.890625 214.183594 C 187.890625 215.007812 188.0625 215.65625 188.402344 216.128906 C 188.742188 216.597656 189.207031 216.832031 189.804688 216.832031 C 190.398438 216.832031 190.863281 216.597656 191.203125 216.128906 C 191.542969 215.65625 191.714844 215.007812 191.714844 214.183594 Z M 191.714844 214.183594 "/>
<path style=" stroke:none;fill-rule:nonzero;fill:rgb(0%,0%,0%);fill-opacity:1;" d="M 200.585938 213.898438 L 200.585938 214.445312 L 195.421875 214.445312 C 195.472656 215.21875 195.707031 215.808594 196.121094 216.214844 C 196.539062 216.617188 197.121094 216.820312 197.863281 216.820312 C 198.296875 216.820312 198.714844 216.769531 199.117188 216.664062 C 199.523438 216.558594 199.925781 216.398438 200.324219 216.1875 L 200.324219 217.25 C 199.921875 217.417969 199.507812 217.550781 199.085938 217.640625 C 198.660156 217.730469 198.234375 217.773438 197.796875 217.773438 C 196.707031 217.773438 195.84375 217.457031 195.207031 216.824219 C 194.570312 216.1875 194.25 215.328125 194.25 214.246094 C 194.25 213.125 194.554688 212.238281 195.15625 211.582031 C 195.761719 210.925781 196.578125 210.597656 197.601562 210.597656 C 198.523438 210.597656 199.25 210.890625 199.785156 211.484375 C 200.320312 212.074219 200.585938 212.878906 200.585938 213.898438 Z M 199.464844 213.566406 C 199.457031 212.953125 199.285156 212.464844 198.949219 212.097656 C 198.613281 211.730469 198.167969 211.546875 197.613281 211.546875 C 196.988281 211.546875 196.488281 211.722656 196.109375 212.078125 C 195.734375 212.433594 195.515625 212.929688 195.460938 213.574219 Z M 199.464844 213.566406 "/>
<path style=" stroke:none;fill-rule:nonzero;fill:rgb(0%,0%,0%);fill-opacity:1;" d="M 206.390625 211.808594 C 206.265625 211.734375 206.128906 211.683594 205.980469 211.648438 C 205.832031 211.613281 205.667969 211.597656 205.488281 211.597656 C 204.851562 211.597656 204.367188 211.800781 204.027344 212.214844 C 203.6875 212.628906 203.515625 213.222656 203.515625 213.996094 L 203.515625 217.597656 L 202.386719 217.597656 L 202.386719 210.761719 L 203.515625 210.761719 L 203.515625 211.824219 C 203.753906 211.40625 204.058594 211.097656 204.4375 210.898438 C 204.816406 210.695312 205.277344 210.597656 205.820312 210.597656 C 205.894531 210.597656 205.980469 210.601562 206.074219 210.613281 C 206.167969 210.621094 206.273438 210.636719 206.386719 210.65625 Z M 206.390625 211.808594 "/>
<path style=" stroke:none;fill-rule:nonzero;fill:rgb(0%,0%,0%);fill-opacity:1;" d="M 215.503906 211.808594 C 215.378906 211.734375 215.238281 211.683594 215.089844 211.648438 C 214.941406 211.613281 214.78125 211.597656 214.601562 211.597656 C 213.964844 211.597656 213.476562 211.800781 213.136719 212.214844 C 212.796875 212.628906 212.628906 213.222656 212.628906 213.996094 L 212.628906 217.597656 L 211.5 217.597656 L 211.5 210.761719 L 212.628906 210.761719 L 212.628906 211.824219 C 212.867188 211.40625 213.171875 211.097656 213.550781 210.898438 C 213.929688 210.695312 214.390625 210.597656 214.929688 210.597656 C 215.007812 210.597656 215.09375 210.601562 215.1875 210.613281 C 215.28125 210.621094 215.382812 210.636719 215.496094 210.65625 Z M 215.503906 211.808594 "/>
<path style=" stroke:none;fill-rule:nonzero;fill:rgb(0%,0%,0%);fill-opacity:1;" d="M 222.246094 213.898438 L 222.246094 214.445312 L 217.082031 214.445312 C 217.132812 215.21875 217.367188 215.808594 217.78125 216.214844 C 218.199219 216.617188 218.78125 216.820312 219.523438 216.820312 C 219.957031 216.820312 220.375 216.769531 220.777344 216.664062 C 221.183594 216.558594 221.585938 216.398438 221.984375 216.1875 L 221.984375 217.25 C 221.582031 217.417969 221.167969 217.550781 220.746094 217.640625 C 220.324219 217.730469 219.894531 217.773438 219.457031 217.773438 C 218.367188 217.773438 217.503906 217.457031 216.867188 216.824219 C 216.230469 216.1875 215.910156 215.328125 215.910156 214.246094 C 215.910156 213.125 216.214844 212.238281 216.816406 211.582031 C 217.421875 210.925781 218.238281 210.597656 219.261719 210.597656 C 220.183594 210.597656 220.910156 210.890625 221.445312 211.484375 C 221.980469 212.074219 222.246094 212.878906 222.246094 213.898438 Z M 221.125 213.566406 C 221.117188 212.953125 220.945312 212.464844 220.609375 212.097656 C 220.273438 211.730469 219.828125 211.546875 219.273438 211.546875 C 218.648438 211.546875 218.148438 211.722656 217.769531 212.078125 C 217.394531 212.433594 217.179688 212.929688 217.121094 213.574219 Z M 221.125 213.566406 "/>
<path style=" stroke:none;fill-rule:nonzero;fill:rgb(0%,0%,0%);fill-opacity:1;" d="M 223.285156 210.761719 L 224.476562 210.761719 L 226.613281 216.496094 L 228.75 210.761719 L 229.9375 210.761719 L 227.375 217.597656 L 225.847656 217.597656 Z M 223.285156 210.761719 "/>
<path style=" stroke:none;fill-rule:nonzero;fill:rgb(0%,0%,0%);fill-opacity:1;" d="M 231.488281 210.761719 L 232.609375 210.761719 L 232.609375 217.597656 L 231.488281 217.597656 Z M 231.488281 208.097656 L 232.609375 208.097656 L 232.609375 209.523438 L 231.488281 209.523438 Z M 231.488281 208.097656 "/>
<path style=" stroke:none;fill-rule:nonzero;fill:rgb(0%,0%,0%);fill-opacity:1;" d="M 240.808594 213.898438 L 240.808594 214.445312 L 235.644531 214.445312 C 235.695312 215.21875 235.925781 215.808594 236.34375 216.214844 C 236.761719 216.617188 237.339844 216.820312 238.085938 216.820312 C 238.515625 216.820312 238.933594 216.769531 239.339844 216.664062 C 239.746094 216.558594 240.148438 216.398438 240.546875 216.1875 L 240.546875 217.25 C 240.144531 217.417969 239.730469 217.550781 239.308594 217.640625 C 238.882812 217.730469 238.453125 217.773438 238.019531 217.773438 C 236.929688 217.773438 236.066406 217.457031 235.429688 216.824219 C 234.792969 216.1875 234.472656 215.328125 234.472656 214.246094 C 234.472656 213.125 234.773438 212.238281 235.378906 211.582031 C 235.984375 210.925781 236.796875 210.597656 237.824219 210.597656 C 238.742188 210.597656 239.472656 210.890625 240.007812 211.484375 C 240.542969 212.074219 240.808594 212.878906 240.808594 213.898438 Z M 239.6875 213.566406 C 239.679688 212.953125 239.507812 212.464844 239.171875 212.097656 C 238.835938 211.730469 238.390625 211.546875 237.835938 211.546875 C 237.210938 211.546875 236.707031 211.722656 236.332031 212.078125 C 235.957031 212.433594 235.738281 212.929688 235.683594 213.574219 Z M 239.6875 213.566406 "/>
<path style=" stroke:none;fill-rule:nonzero;fill:rgb(0%,0%,0%);fill-opacity:1;" d="M 242 210.761719 L 243.121094 210.761719 L 244.527344 216.09375 L 245.921875 210.761719 L 247.246094 210.761719 L 248.652344 216.09375 L 250.050781 210.761719 L 251.171875 210.761719 L 249.382812 217.597656 L 248.058594 217.597656 L 246.589844 211.992188 L 245.113281 217.597656 L 243.785156 217.597656 Z M 242 210.761719 "/>
<path style="fill:none;stroke-width:0.8;stroke-linecap:butt;stroke-linejoin:round;stroke:rgb(0%,0%,0%);stroke-opacity:1;stroke-miterlimit:4;" d="M 0 0 L -3.5 0 " transform="matrix(1.25,0,0,1.25,66.660156,182.25)"/>
<path style=" stroke:none;fill-rule:nonzero;fill:rgb(0%,0%,0%);fill-opacity:1;" d="M 53.929688 178.699219 C 53.296875 178.699219 52.820312 179.011719 52.5 179.636719 C 52.179688 180.257812 52.019531 181.199219 52.019531 182.453125 C 52.019531 183.699219 52.179688 184.636719 52.5 185.261719 C 52.820312 185.886719 53.296875 186.199219 53.929688 186.199219 C 54.570312 186.199219 55.046875 185.886719 55.367188 185.261719 C 55.6875 184.636719 55.847656 183.699219 55.847656 182.453125 C 55.847656 181.199219 55.6875 180.257812 55.367188 179.636719 C 55.046875 179.011719 54.570312 178.699219 53.929688 178.699219 Z M 53.929688 177.722656 C 54.953125 177.722656 55.734375 178.125 56.273438 178.933594 C 56.8125 179.742188 57.078125 180.914062 57.078125 182.453125 C 57.078125 183.984375 56.8125 185.15625 56.273438 185.964844 C 55.734375 186.773438 54.953125 187.175781 53.929688 187.175781 C 52.910156 187.175781 52.128906 186.773438 51.589844 185.964844 C 51.050781 185.15625 50.78125 183.984375 50.78125 182.453125 C 50.78125 180.914062 51.050781 179.742188 51.589844 178.933594 C 52.128906 178.125 52.910156 177.722656 53.929688 177.722656 Z M 53.929688 177.722656 "/>
<path style="fill:none;stroke-width:0.8;stroke-linecap:butt;stroke-linejoin:round;stroke:rgb(0%,0%,0%);stroke-opacity:1;stroke-miterlimit:4;" d="M 0 0.000302 L -3.5 0.000302 " transform="matrix(1.25,0,0,1.25,66.660156,133.862904)"/>
<path style=" stroke:none;fill-rule:nonzero;fill:rgb(0%,0%,0%);fill-opacity:1;" d="M 28.496094 137.574219 L 32.796875 137.574219 L 32.796875 138.613281 L 27.015625 138.613281 L 27.015625 137.574219 C 27.480469 137.089844 28.117188 136.441406 28.925781 135.625 C 29.734375 134.808594 30.242188 134.28125 30.449219 134.046875 C 30.84375 133.601562 31.117188 133.226562 31.273438 132.921875 C 31.433594 132.613281 31.511719 132.3125 31.511719 132.015625 C 31.511719 131.53125 31.34375 131.136719 31 130.832031 C 30.664062 130.523438 30.21875 130.371094 29.671875 130.371094 C 29.289062 130.371094 28.878906 130.4375 28.449219 130.574219 C 28.019531 130.707031 27.5625 130.910156 27.074219 131.183594 L 27.074219 129.9375 C 27.570312 129.738281 28.035156 129.589844 28.464844 129.488281 C 28.898438 129.386719 29.292969 129.335938 29.648438 129.335938 C 30.59375 129.335938 31.347656 129.570312 31.90625 130.042969 C 32.46875 130.515625 32.75 131.144531 32.75 131.933594 C 32.75 132.308594 32.679688 132.664062 32.539062 133 C 32.398438 133.335938 32.144531 133.730469 31.773438 134.1875 C 31.671875 134.304688 31.347656 134.644531 30.804688 135.210938 C 30.257812 135.773438 29.488281 136.5625 28.496094 137.574219 Z M 28.496094 137.574219 "/>
<path style=" stroke:none;fill-rule:nonzero;fill:rgb(0%,0%,0%);fill-opacity:1;" d="M 38.023438 130.3125 C 37.390625 130.3125 36.910156 130.625 36.589844 131.25 C 36.273438 131.871094 36.113281 132.8125 36.113281 134.066406 C 36.113281 135.3125 36.273438 136.25 36.589844 136.875 C 36.910156 137.5 37.390625 137.8125 38.023438 137.8125 C 38.664062 137.8125 39.140625 137.5 39.460938 136.875 C 39.78125 136.25 39.941406 135.3125 39.941406 134.066406 C 39.941406 132.8125 39.78125 131.871094 39.460938 131.25 C 39.140625 130.625 38.664062 130.3125 38.023438 130.3125 Z M 38.023438 129.335938 C 39.046875 129.335938 39.824219 129.738281 40.363281 130.546875 C 40.902344 131.355469 41.171875 132.527344 41.171875 134.066406 C 41.171875 135.597656 40.902344 136.769531 40.363281 137.578125 C 39.824219 138.386719 39.046875 138.789062 38.023438 138.789062 C 37.003906 138.789062 36.222656 138.386719 35.683594 137.578125 C 35.144531 136.769531 34.875 135.597656 34.875 134.066406 C 34.875 132.527344 35.144531 131.355469 35.683594 130.546875 C 36.222656 129.738281 37.003906 129.335938 38.023438 129.335938 Z M 38.023438 129.335938 "/>
<path style=" stroke:none;fill-rule:nonzero;fill:rgb(0%,0%,0%);fill-opacity:1;" d="M 45.976562 130.3125 C 45.34375 130.3125 44.863281 130.625 44.542969 131.25 C 44.226562 131.871094 44.066406 132.8125 44.066406 134.066406 C 44.066406 135.3125 44.226562 136.25 44.542969 136.875 C 44.863281 137.5 45.34375 137.8125 45.976562 137.8125 C 46.617188 137.8125 47.09375 137.5 47.414062 136.875 C 47.734375 136.25 47.894531 135.3125 47.894531 134.066406 C 47.894531 132.8125 47.734375 131.871094 47.414062 131.25 C 47.09375 130.625 46.617188 130.3125 45.976562 130.3125 Z M 45.976562 129.335938 C 47 129.335938 47.777344 129.738281 48.316406 130.546875 C 48.855469 131.355469 49.125 132.527344 49.125 134.066406 C 49.125 135.597656 48.855469 136.769531 48.316406 137.578125 C 47.777344 138.386719 47 138.789062 45.976562 138.789062 C 44.957031 138.789062 44.175781 138.386719 43.636719 137.578125 C 43.097656 136.769531 42.828125 135.597656 42.828125 134.066406 C 42.828125 132.527344 43.097656 131.355469 43.636719 130.546875 C 44.175781 129.738281 44.957031 129.335938 45.976562 129.335938 Z M 45.976562 129.335938 "/>
<path style=" stroke:none;fill-rule:nonzero;fill:rgb(0%,0%,0%);fill-opacity:1;" d="M 53.929688 130.3125 C 53.292969 130.3125 52.816406 130.625 52.496094 131.25 C 52.179688 131.871094 52.019531 132.8125 52.019531 134.066406 C 52.019531 135.3125 52.179688 136.25 52.496094 136.875 C 52.816406 137.5 53.292969 137.8125 53.929688 137.8125 C 54.566406 137.8125 55.046875 137.5 55.367188 136.875 C 55.6875 136.25 55.847656 135.3125 55.847656 134.066406 C 55.847656 132.8125 55.6875 131.871094 55.367188 131.25 C 55.046875 130.625 54.566406 130.3125 53.929688 130.3125 Z M 53.929688 129.335938 C 54.949219 129.335938 55.730469 129.738281 56.269531 130.546875 C 56.808594 131.355469 57.078125 132.527344 57.078125 134.066406 C 57.078125 135.597656 56.808594 136.769531 56.269531 137.578125 C 55.730469 138.386719 54.949219 138.789062 53.929688 138.789062 C 52.90625 138.789062 52.128906 138.386719 51.589844 137.578125 C 51.050781 136.769531 50.78125 135.597656 50.78125 134.066406 C 50.78125 132.527344 51.050781 131.355469 51.589844 130.546875 C 52.128906 129.738281 52.90625 129.335938 53.929688 129.335938 Z M 53.929688 129.335938 "/>
<path style="fill:none;stroke-width:0.8;stroke-linecap:butt;stroke-linejoin:round;stroke:rgb(0%,0%,0%);stroke-opacity:1;stroke-miterlimit:4;" d="M 0 0.000605 L -3.5 0.000605 " transform="matrix(1.25,0,0,1.25,66.660156,85.475806)"/>
<path style=" stroke:none;fill-rule:nonzero;fill:rgb(0%,0%,0%);fill-opacity:1;" d="M 30.820312 82.1875 L 27.710938 87.050781 L 30.820312 87.050781 Z M 30.5 81.113281 L 32.046875 81.113281 L 32.046875 87.050781 L 33.351562 87.050781 L 33.351562 88.078125 L 32.046875 88.078125 L 32.046875 90.226562 L 30.820312 90.226562 L 30.820312 88.078125 L 26.710938 88.078125 L 26.710938 86.886719 Z M 30.5 81.113281 "/>
<path style=" stroke:none;fill-rule:nonzero;fill:rgb(0%,0%,0%);fill-opacity:1;" d="M 38.023438 81.925781 C 37.390625 81.925781 36.910156 82.238281 36.589844 82.863281 C 36.273438 83.484375 36.113281 84.425781 36.113281 85.679688 C 36.113281 86.925781 36.273438 87.863281 36.589844 88.488281 C 36.910156 89.113281 37.390625 89.425781 38.023438 89.425781 C 38.664062 89.425781 39.140625 89.113281 39.460938 88.488281 C 39.78125 87.863281 39.941406 86.925781 39.941406 85.679688 C 39.941406 84.425781 39.78125 83.484375 39.460938 82.863281 C 39.140625 82.238281 38.664062 81.925781 38.023438 81.925781 Z M 38.023438 80.949219 C 39.046875 80.949219 39.824219 81.351562 40.363281 82.160156 C 40.902344 82.96875 41.171875 84.140625 41.171875 85.679688 C 41.171875 87.210938 40.902344 88.382812 40.363281 89.191406 C 39.824219 90 39.046875 90.402344 38.023438 90.402344 C 37.003906 90.402344 36.222656 90 35.683594 89.191406 C 35.144531 88.382812 34.875 87.210938 34.875 85.679688 C 34.875 84.140625 35.144531 82.96875 35.683594 82.160156 C 36.222656 81.351562 37.003906 80.949219 38.023438 80.949219 Z M 38.023438 80.949219 "/>
<path style=" stroke:none;fill-rule:nonzero;fill:rgb(0%,0%,0%);fill-opacity:1;" d="M 45.976562 81.925781 C 45.34375 81.925781 44.863281 82.238281 44.542969 82.863281 C 44.226562 83.484375 44.066406 84.425781 44.066406 85.679688 C 44.066406 86.925781 44.226562 87.863281 44.542969 88.488281 C 44.863281 89.113281 45.34375 89.425781 45.976562 89.425781 C 46.617188 89.425781 47.09375 89.113281 47.414062 88.488281 C 47.734375 87.863281 47.894531 86.925781 47.894531 85.679688 C 47.894531 84.425781 47.734375 83.484375 47.414062 82.863281 C 47.09375 82.238281 46.617188 81.925781 45.976562 81.925781 Z M 45.976562 80.949219 C 47 80.949219 47.777344 81.351562 48.316406 82.160156 C 48.855469 82.96875 49.125 84.140625 49.125 85.679688 C 49.125 87.210938 48.855469 88.382812 48.316406 89.191406 C 47.777344 90 47 90.402344 45.976562 90.402344 C 44.957031 90.402344 44.175781 90 43.636719 89.191406 C 43.097656 88.382812 42.828125 87.210938 42.828125 85.679688 C 42.828125 84.140625 43.097656 82.96875 43.636719 82.160156 C 44.175781 81.351562 44.957031 80.949219 45.976562 80.949219 Z M 45.976562 80.949219 "/>
<path style=" stroke:none;fill-rule:nonzero;fill:rgb(0%,0%,0%);fill-opacity:1;" d="M 53.929688 81.925781 C 53.292969 81.925781 52.816406 82.238281 52.496094 82.863281 C 52.179688 83.484375 52.019531 84.425781 52.019531 85.679688 C 52.019531 86.925781 52.179688 87.863281 52.496094 88.488281 C 52.816406 89.113281 53.292969 89.425781 53.929688 89.425781 C 54.566406 89.425781 55.046875 89.113281 55.367188 88.488281 C 55.6875 87.863281 55.847656 86.925781 55.847656 85.679688 C 55.847656 84.425781 55.6875 83.484375 55.367188 82.863281 C 55.046875 82.238281 54.566406 81.925781 53.929688 81.925781 Z M 53.929688 80.949219 C 54.949219 80.949219 55.730469 81.351562 56.269531 82.160156 C 56.808594 82.96875 57.078125 84.140625 57.078125 85.679688 C 57.078125 87.210938 56.808594 88.382812 56.269531 89.191406 C 55.730469 90 54.949219 90.402344 53.929688 90.402344 C 52.90625 90.402344 52.128906 90 51.589844 89.191406 C 51.050781 88.382812 50.78125 87.210938 50.78125 85.679688 C 50.78125 84.140625 51.050781 82.96875 51.589844 82.160156 C 52.128906 81.351562 52.90625 80.949219 53.929688 80.949219 Z M 53.929688 80.949219 "/>
<path style="fill:none;stroke-width:0.8;stroke-linecap:butt;stroke-linejoin:round;stroke:rgb(0%,0%,0%);stroke-opacity:1;stroke-miterlimit:4;" d="M 0 0.000907 L -3.5 0.000907 " transform="matrix(1.25,0,0,1.25,66.660156,37.08871)"/>
<path style=" stroke:none;fill-rule:nonzero;fill:rgb(0%,0%,0%);fill-opacity:1;" d="M 30.226562 36.789062 C 29.671875 36.789062 29.234375 36.980469 28.90625 37.359375 C 28.585938 37.738281 28.421875 38.253906 28.421875 38.914062 C 28.421875 39.570312 28.585938 40.085938 28.90625 40.46875 C 29.234375 40.847656 29.671875 41.039062 30.226562 41.039062 C 30.777344 41.039062 31.214844 40.847656 31.539062 40.46875 C 31.863281 40.085938 32.023438 39.570312 32.023438 38.914062 C 32.023438 38.253906 31.863281 37.738281 31.539062 37.359375 C 31.214844 36.980469 30.777344 36.789062 30.226562 36.789062 Z M 32.671875 32.925781 L 32.671875 34.046875 C 32.363281 33.902344 32.050781 33.792969 31.734375 33.714844 C 31.417969 33.636719 31.105469 33.597656 30.796875 33.597656 C 29.984375 33.597656 29.359375 33.871094 28.929688 34.421875 C 28.503906 34.972656 28.257812 35.800781 28.195312 36.910156 C 28.4375 36.558594 28.738281 36.285156 29.101562 36.097656 C 29.460938 35.910156 29.863281 35.8125 30.296875 35.8125 C 31.210938 35.8125 31.9375 36.09375 32.46875 36.648438 C 33 37.203125 33.265625 37.957031 33.265625 38.914062 C 33.265625 39.851562 32.988281 40.601562 32.433594 41.167969 C 31.878906 41.734375 31.144531 42.015625 30.226562 42.015625 C 29.171875 42.015625 28.363281 41.613281 27.804688 40.804688 C 27.25 39.996094 26.96875 38.824219 26.96875 37.289062 C 26.96875 35.851562 27.3125 34.703125 27.996094 33.84375 C 28.679688 32.988281 29.597656 32.558594 30.75 32.558594 C 31.058594 32.558594 31.371094 32.589844 31.6875 32.652344 C 32 32.714844 32.328125 32.804688 32.671875 32.925781 Z M 32.671875 32.925781 "/>
<path style=" stroke:none;fill-rule:nonzero;fill:rgb(0%,0%,0%);fill-opacity:1;" d="M 38.023438 33.535156 C 37.390625 33.535156 36.910156 33.847656 36.589844 34.472656 C 36.273438 35.097656 36.113281 36.035156 36.113281 37.289062 C 36.113281 38.539062 36.273438 39.476562 36.589844 40.101562 C 36.910156 40.726562 37.390625 41.039062 38.023438 41.039062 C 38.664062 41.039062 39.140625 40.726562 39.460938 40.101562 C 39.78125 39.476562 39.941406 38.539062 39.941406 37.289062 C 39.941406 36.035156 39.78125 35.097656 39.460938 34.472656 C 39.140625 33.847656 38.664062 33.535156 38.023438 33.535156 Z M 38.023438 32.558594 C 39.046875 32.558594 39.824219 32.964844 40.363281 33.773438 C 40.902344 34.582031 41.171875 35.753906 41.171875 37.289062 C 41.171875 38.824219 40.902344 39.996094 40.363281 40.804688 C 39.824219 41.613281 39.046875 42.015625 38.023438 42.015625 C 37.003906 42.015625 36.222656 41.613281 35.683594 40.804688 C 35.144531 39.996094 34.875 38.824219 34.875 37.289062 C 34.875 35.753906 35.144531 34.582031 35.683594 33.773438 C 36.222656 32.964844 37.003906 32.558594 38.023438 32.558594 Z M 38.023438 32.558594 "/>
<path style=" stroke:none;fill-rule:nonzero;fill:rgb(0%,0%,0%);fill-opacity:1;" d="M 45.976562 33.535156 C 45.34375 33.535156 44.863281 33.847656 44.542969 34.472656 C 44.226562 35.097656 44.066406 36.035156 44.066406 37.289062 C 44.066406 38.539062 44.226562 39.476562 44.542969 40.101562 C 44.863281 40.726562 45.34375 41.039062 45.976562 41.039062 C 46.617188 41.039062 47.09375 40.726562 47.414062 40.101562 C 47.734375 39.476562 47.894531 38.539062 47.894531 37.289062 C 47.894531 36.035156 47.734375 35.097656 47.414062 34.472656 C 47.09375 33.847656 46.617188 33.535156 45.976562 33.535156 Z M 45.976562 32.558594 C 47 32.558594 47.777344 32.964844 48.316406 33.773438 C 48.855469 34.582031 49.125 35.753906 49.125 37.289062 C 49.125 38.824219 48.855469 39.996094 48.316406 40.804688 C 47.777344 41.613281 47 42.015625 45.976562 42.015625 C 44.957031 42.015625 44.175781 41.613281 43.636719 40.804688 C 43.097656 39.996094 42.828125 38.824219 42.828125 37.289062 C 42.828125 35.753906 43.097656 34.582031 43.636719 33.773438 C 44.175781 32.964844 44.957031 32.558594 45.976562 32.558594 Z M 45.976562 32.558594 "/>
<path style=" stroke:none;fill-rule:nonzero;fill:rgb(0%,0%,0%);fill-opacity:1;" d="M 53.929688 33.535156 C 53.292969 33.535156 52.816406 33.847656 52.496094 34.472656 C 52.179688 35.097656 52.019531 36.035156 52.019531 37.289062 C 52.019531 38.539062 52.179688 39.476562 52.496094 40.101562 C 52.816406 40.726562 53.292969 41.039062 53.929688 41.039062 C 54.566406 41.039062 55.046875 40.726562 55.367188 40.101562 C 55.6875 39.476562 55.847656 38.539062 55.847656 37.289062 C 55.847656 36.035156 55.6875 35.097656 55.367188 34.472656 C 55.046875 33.847656 54.566406 33.535156 53.929688 33.535156 Z M 53.929688 32.558594 C 54.949219 32.558594 55.730469 32.964844 56.269531 33.773438 C 56.808594 34.582031 57.078125 35.753906 57.078125 37.289062 C 57.078125 38.824219 56.808594 39.996094 56.269531 40.804688 C 55.730469 41.613281 54.949219 42.015625 53.929688 42.015625 C 52.90625 42.015625 52.128906 41.613281 51.589844 40.804688 C 51.050781 39.996094 50.78125 38.824219 50.78125 37.289062 C 50.78125 35.753906 51.050781 34.582031 51.589844 33.773438 C 52.128906 32.964844 52.90625 32.558594 53.929688 32.558594 Z M 53.929688 32.558594 "/>
<path style=" stroke:none;fill-rule:nonzero;fill:rgb(0%,0%,0%);fill-opacity:1;" d="M 11.921875 107.160156 L 12.972656 107.160156 C 12.796875 107.476562 12.667969 107.796875 12.578125 108.117188 C 12.492188 108.433594 12.449219 108.757812 12.449219 109.082031 C 12.449219 109.8125 12.679688 110.378906 13.140625 110.78125 C 13.601562 111.183594 14.25 111.382812 15.085938 111.382812 C 15.921875 111.382812 16.570312 111.183594 17.03125 110.78125 C 17.492188 110.378906 17.722656 109.8125 17.722656 109.082031 C 17.722656 108.757812 17.679688 108.433594 17.589844 108.117188 C 17.503906 107.796875 17.371094 107.476562 17.195312 107.160156 L 18.234375 107.160156 C 18.382812 107.472656 18.492188 107.796875 18.5625 108.132812 C 18.636719 108.46875 18.675781 108.828125 18.675781 109.203125 C 18.675781 110.234375 18.351562 111.054688 17.703125 111.660156 C 17.058594 112.265625 16.183594 112.570312 15.085938 112.570312 C 13.972656 112.570312 13.09375 112.261719 12.457031 111.648438 C 11.816406 111.039062 11.496094 110.195312 11.496094 109.132812 C 11.496094 108.785156 11.535156 108.449219 11.605469 108.117188 C 11.675781 107.789062 11.78125 107.46875 11.921875 107.160156 Z M 11.921875 107.160156 "/>
<path style=" stroke:none;fill-rule:nonzero;fill:rgb(0%,0%,0%);fill-opacity:1;" d="M 12.449219 102.558594 C 12.449219 103.160156 12.683594 103.636719 13.152344 103.988281 C 13.625 104.335938 14.269531 104.511719 15.085938 104.511719 C 15.902344 104.511719 16.546875 104.339844 17.015625 103.992188 C 17.488281 103.640625 17.722656 103.164062 17.722656 102.558594 C 17.722656 101.960938 17.488281 101.484375 17.015625 101.136719 C 16.542969 100.785156 15.898438 100.613281 15.085938 100.613281 C 14.277344 100.613281 13.632812 100.785156 13.160156 101.136719 C 12.6875 101.484375 12.449219 101.960938 12.449219 102.558594 Z M 11.496094 102.558594 C 11.496094 101.582031 11.816406 100.816406 12.449219 100.257812 C 13.085938 99.699219 13.964844 99.421875 15.085938 99.421875 C 16.203125 99.421875 17.082031 99.699219 17.71875 100.257812 C 18.355469 100.816406 18.675781 101.582031 18.675781 102.558594 C 18.675781 103.539062 18.355469 104.308594 17.71875 104.863281 C 17.082031 105.417969 16.203125 105.695312 15.085938 105.695312 C 13.964844 105.695312 13.085938 105.417969 12.449219 104.863281 C 11.816406 104.308594 11.496094 103.539062 11.496094 102.558594 Z M 11.496094 102.558594 "/>
<path style=" stroke:none;fill-rule:nonzero;fill:rgb(0%,0%,0%);fill-opacity:1;" d="M 15.800781 97.675781 L 11.660156 97.675781 L 11.660156 96.550781 L 15.757812 96.550781 C 16.40625 96.550781 16.890625 96.425781 17.214844 96.175781 C 17.539062 95.921875 17.699219 95.542969 17.699219 95.039062 C 17.699219 94.433594 17.503906 93.953125 17.117188 93.601562 C 16.730469 93.25 16.203125 93.074219 15.535156 93.074219 L 11.660156 93.074219 L 11.660156 91.949219 L 18.496094 91.949219 L 18.496094 93.074219 L 17.445312 93.074219 C 17.863281 93.34375 18.171875 93.660156 18.371094 94.023438 C 18.574219 94.382812 18.675781 94.800781 18.675781 95.277344 C 18.675781 96.0625 18.429688 96.65625 17.941406 97.066406 C 17.453125 97.472656 16.742188 97.675781 15.800781 97.675781 Z M 11.496094 94.847656 Z M 11.496094 94.847656 "/>
<path style=" stroke:none;fill-rule:nonzero;fill:rgb(0%,0%,0%);fill-opacity:1;" d="M 14.371094 83.953125 L 18.496094 83.953125 L 18.496094 85.078125 L 14.40625 85.078125 C 13.761719 85.078125 13.277344 85.203125 12.957031 85.457031 C 12.636719 85.707031 12.472656 86.085938 12.472656 86.589844 C 12.472656 87.199219 12.667969 87.675781 13.054688 88.027344 C 13.441406 88.375 13.964844 88.550781 14.632812 88.550781 L 18.496094 88.550781 L 18.496094 89.679688 L 11.660156 89.679688 L 11.660156 88.550781 L 12.722656 88.550781 C 12.3125 88.28125 12.003906 87.964844 11.800781 87.601562 C 11.597656 87.238281 11.496094 86.816406 11.496094 86.339844 C 11.496094 85.554688 11.742188 84.960938 12.226562 84.558594 C 12.710938 84.15625 13.425781 83.953125 14.371094 83.953125 Z M 14.371094 83.953125 "/>
<path style=" stroke:none;fill-rule:nonzero;fill:rgb(0%,0%,0%);fill-opacity:1;" d="M 9.71875 80.605469 L 11.660156 80.605469 L 11.660156 78.292969 L 12.535156 78.292969 L 12.535156 80.605469 L 16.246094 80.605469 C 16.804688 80.605469 17.160156 80.527344 17.320312 80.375 C 17.480469 80.222656 17.558594 79.914062 17.558594 79.445312 L 17.558594 78.292969 L 18.496094 78.292969 L 18.496094 79.445312 C 18.496094 80.3125 18.335938 80.910156 18.011719 81.238281 C 17.6875 81.566406 17.101562 81.734375 16.246094 81.734375 L 12.535156 81.734375 L 12.535156 82.558594 L 11.660156 82.558594 L 11.660156 81.734375 L 9.71875 81.734375 Z M 9.71875 80.605469 "/>
<path style="fill:none;stroke-width:0.8;stroke-linecap:square;stroke-linejoin:miter;stroke:rgb(0%,0%,0%);stroke-opacity:1;stroke-miterlimit:4;" d="M 53.328125 145.8 L 53.328125 7.2 " transform="matrix(1.25,0,0,1.25,0,0)"/>
<path style="fill:none;stroke-width:0.8;stroke-linecap:square;stroke-linejoin:miter;stroke:rgb(0%,0%,0%);stroke-opacity:1;stroke-miterlimit:4;" d="M 248.628125 145.8 L 248.628125 7.2 " transform="matrix(1.25,0,0,1.25,0,0)"/>
<path style="fill:none;stroke-width:0.8;stroke-linecap:square;stroke-linejoin:miter;stroke:rgb(0%,0%,0%);stroke-opacity:1;stroke-miterlimit:4;" d="M 53.328125 145.8 L 248.628125 145.8 " transform="matrix(1.25,0,0,1.25,0,0)"/>
<path style="fill:none;stroke-width:0.8;stroke-linecap:square;stroke-linejoin:miter;stroke:rgb(0%,0%,0%);stroke-opacity:1;stroke-miterlimit:4;" d="M 53.328125 7.2 L 248.628125 7.2 " transform="matrix(1.25,0,0,1.25,0,0)"/>
</g>
</svg>
