<?xml version="1.0" encoding="UTF-8"?>
<svg xmlns="http://www.w3.org/2000/svg" xmlns:xlink="http://www.w3.org/1999/xlink" width="328pt" height="232pt" viewBox="0 0 328 232" version="1.1">
<defs>
<clipPath id="clip1">
  <path d="M 85 157 L 95 157 L 95 184.648438 L 85 184.648438 Z M 85 157 "/>
</clipPath>
<clipPath id="clip2">
  <path d="M 108 109 L 118 109 L 118 184.648438 L 108 184.648438 Z M 108 109 "/>
</clipPath>
<clipPath id="clip3">
  <path d="M 131 97 L 141 97 L 141 184.648438 L 131 184.648438 Z M 131 97 "/>
</clipPath>
<clipPath id="clip4">
  <path d="M 153 123 L 163 123 L 163 184.648438 L 153 184.648438 Z M 153 123 "/>
</clipPath>
<clipPath id="clip5">
  <path d="M 176 159 L 186 159 L 186 184.648438 L 176 184.648438 Z M 176 159 "/>
</clipPath>
<clipPath id="clip6">
  <path d="M 198 175 L 208 175 L 208 184.648438 L 198 184.648438 Z M 198 175 "/>
</clipPath>
<clipPath id="clip7">
  <path d="M 221 182 L 231 182 L 231 184.648438 L 221 184.648438 Z M 221 182 "/>
</clipPath>
<clipPath id="clip8">
  <path d="M 244 184 L 254 184 L 254 184.648438 L 244 184.648438 Z M 244 184 "/>
</clipPath>
<clipPath id="clip9">
  <path d="M 266 184 L 276 184 L 276 184.648438 L 266 184.648438 Z M 266 184 "/>
</clipPath>
<clipPath id="clip10">
  <path d="M 289 184 L 299 184 L 299 184.648438 L 289 184.648438 Z M 289 184 "/>
</clipPath>
<clipPath id="clip11">
  <path d="M 94 19 L 104 19 L 104 184.648438 L 94 184.648438 Z M 94 19 "/>
</clipPath>
<clipPath id="clip12">
  <rect x="0" y="0" width="90" height="89"/>
</clipPath>
<g id="surface5" clip-path="url(#clip12)">
<rect x="0" y="0" width="90" height="89" style="fill:rgb(100%,49.803922%,5.490196%);fill-opacity:1;stroke:none;"/>
<path style="fill-rule:nonzero;fill:rgb(0%,0%,0%);fill-opacity:1;stroke-width:1;stroke-linecap:butt;stroke-linejoin:miter;stroke:rgb(0%,0%,0%);stroke-opacity:1;stroke-miterlimit:4;" d="M -36 36 L 36 -36 M -24 47.998947 L 48 -24.001053 M -12 60.001053 L 60 -11.998947 M 0 72 L 72 0 M 12 83.998947 L 84 11.998947 M 24 96.001053 L 96 24.001053 M 36 108 L 108 36 " transform="matrix(1.25,0,0,1.236111,0,0)"/>
</g>
<pattern id="pattern0" patternUnits="userSpaceOnUse" width="90" height="89" patternTransform="matrix(1,0,0,1.011236,0,0.000000000000014211)">
<use xlink:href="#surface5"/>
</pattern>
<clipPath id="clip13">
  <path d="M 117 75 L 127 75 L 127 184.648438 L 117 184.648438 Z M 117 75 "/>
</clipPath>
<clipPath id="clip14">
  <rect x="0" y="0" width="90" height="89"/>
</clipPath>
<g id="surface8" clip-path="url(#clip14)">
<rect x="0" y="0" width="90" height="89" style="fill:rgb(100%,49.803922%,5.490196%);fill-opacity:1;stroke:none;"/>
<path style="fill-rule:nonzero;fill:rgb(0%,0%,0%);fill-opacity:1;stroke-width:1;stroke-linecap:butt;stroke-linejoin:miter;stroke:rgb(0%,0%,0%);stroke-opacity:1;stroke-miterlimit:4;" d="M -36 36 L 36 -36 M -24 47.998947 L 48 -24.001053 M -12 60.001053 L 60 -11.998947 M 0 72 L 72 0 M 12 83.998947 L 84 11.998947 M 24 96.001053 L 96 24.001053 M 36 108 L 108 36 " transform="matrix(1.25,0,0,1.236111,0,0)"/>
</g>
<pattern id="pattern1" patternUnits="userSpaceOnUse" width="90" height="89" patternTransform="matrix(1,0,0,1.011236,0,0.000000000000014211)">
<use xlink:href="#surface8"/>
</pattern>
<clipPath id="clip15">
  <path d="M 140 172 L 150 172 L 150 184.648438 L 140 184.648438 Z M 140 172 "/>
</clipPath>
<clipPath id="clip16">
  <rect x="0" y="0" width="90" height="89"/>
</clipPath>
<g id="surface11" clip-path="url(#clip16)">
<rect x="0" y="0" width="90" height="89" style="fill:rgb(100%,49.803922%,5.490196%);fill-opacity:1;stroke:none;"/>
<path style="fill-rule:nonzero;fill:rgb(0%,0%,0%);fill-opacity:1;stroke-width:1;stroke-linecap:butt;stroke-linejoin:miter;stroke:rgb(0%,0%,0%);stroke-opacity:1;stroke-miterlimit:4;" d="M -36 36 L 36 -36 M -24 47.998947 L 48 -24.001053 M -12 60.001053 L 60 -11.998947 M 0 72 L 72 0 M 12 83.998947 L 84 11.998947 M 24 96.001053 L 96 24.001053 M 36 108 L 108 36 " transform="matrix(1.25,0,0,1.236111,0,0)"/>
</g>
<pattern id="pattern2" patternUnits="userSpaceOnUse" width="90" height="89" patternTransform="matrix(1,0,0,1.011236,0,0.000000000000014211)">
<use xlink:href="#surface11"/>
</pattern>
<clipPath id="clip17">
  <path d="M 162 183 L 172 183 L 172 184.648438 L 162 184.648438 Z M 162 183 "/>
</clipPath>
<clipPath id="clip18">
  <rect x="0" y="0" width="90" height="89"/>
</clipPath>
<g id="surface14" clip-path="url(#clip18)">
<rect x="0" y="0" width="90" height="89" style="fill:rgb(100%,49.803922%,5.490196%);fill-opacity:1;stroke:none;"/>
<path style="fill-rule:nonzero;fill:rgb(0%,0%,0%);fill-opacity:1;stroke-width:1;stroke-linecap:butt;stroke-linejoin:miter;stroke:rgb(0%,0%,0%);stroke-opacity:1;stroke-miterlimit:4;" d="M -36 36 L 36 -36 M -24 47.998947 L 48 -24.001053 M -12 60.001053 L 60 -11.998947 M 0 72 L 72 0 M 12 83.998947 L 84 11.998947 M 24 96.001053 L 96 24.001053 M 36 108 L 108 36 " transform="matrix(1.25,0,0,1.236111,0,0)"/>
</g>
<pattern id="pattern3" patternUnits="userSpaceOnUse" width="90" height="89" patternTransform="matrix(1,0,0,1.011236,0,0.000000000000014211)">
<use xlink:href="#surface14"/>
</pattern>
<clipPath id="clip19">
  <path d="M 185 184 L 195 184 L 195 184.648438 L 185 184.648438 Z M 185 184 "/>
</clipPath>
<clipPath id="clip20">
  <rect x="0" y="0" width="90" height="89"/>
</clipPath>
<g id="surface17" clip-path="url(#clip20)">
<rect x="0" y="0" width="90" height="89" style="fill:rgb(100%,49.803922%,5.490196%);fill-opacity:1;stroke:none;"/>
<path style="fill-rule:nonzero;fill:rgb(0%,0%,0%);fill-opacity:1;stroke-width:1;stroke-linecap:butt;stroke-linejoin:miter;stroke:rgb(0%,0%,0%);stroke-opacity:1;stroke-miterlimit:4;" d="M -36 36 L 36 -36 M -24 47.998947 L 48 -24.001053 M -12 60.001053 L 60 -11.998947 M 0 72 L 72 0 M 12 83.998947 L 84 11.998947 M 24 96.001053 L 96 24.001053 M 36 108 L 108 36 " transform="matrix(1.25,0,0,1.236111,0,0)"/>
</g>
<pattern id="pattern4" patternUnits="userSpaceOnUse" width="90" height="89" patternTransform="matrix(1,0,0,1.011236,0,0.000000000000014211)">
<use xlink:href="#surface17"/>
</pattern>
<filter id="alpha" filterUnits="objectBoundingBox" x="0%" y="0%" width="100%" height="100%">
  <feColorMatrix type="matrix" in="SourceGraphic" values="0 0 0 0 1 0 0 0 0 1 0 0 0 0 1 0 0 0 1 0"/>
</filter>
<mask id="mask0">
  <g filter="url(#alpha)">
<rect x="0" y="0" width="328" height="232" style="fill:rgb(0%,0%,0%);fill-opacity:0.8;stroke:none;"/>
  </g>
</mask>
<clipPath id="clip21">
  <rect x="0" y="0" width="328" height="232"/>
</clipPath>
<g id="surface25" clip-path="url(#clip21)">
<path style="fill-rule:nonzero;fill:rgb(100%,100%,100%);fill-opacity:1;stroke-width:1;stroke-linecap:butt;stroke-linejoin:miter;stroke:rgb(80%,80%,80%);stroke-opacity:1;stroke-miterlimit:4;" d="M 155.390625 46.475 L 247.990625 46.475 C 249.325 46.475 249.990625 45.809375 249.990625 44.475 L 249.990625 16.11875 C 249.990625 14.784375 249.325 14.11875 247.990625 14.11875 L 155.390625 14.11875 C 154.05625 14.11875 153.390625 14.784375 153.390625 16.11875 L 153.390625 44.475 C 153.390625 45.809375 154.05625 46.475 155.390625 46.475 Z M 155.390625 46.475 " transform="matrix(1.25,0,0,1.25,0,0.000000000000014211)"/>
</g>
<clipPath id="clip22">
  <rect x="0" y="0" width="90" height="89"/>
</clipPath>
<g id="surface28" clip-path="url(#clip22)">
<rect x="0" y="0" width="90" height="89" style="fill:rgb(100%,49.803922%,5.490196%);fill-opacity:1;stroke:none;"/>
<path style="fill-rule:nonzero;fill:rgb(0%,0%,0%);fill-opacity:1;stroke-width:1;stroke-linecap:butt;stroke-linejoin:miter;stroke:rgb(0%,0%,0%);stroke-opacity:1;stroke-miterlimit:4;" d="M -36 36 L 36 -36 M -24 47.998947 L 48 -24.001053 M -12 60.001053 L 60 -11.998947 M 0 72 L 72 0 M 12 83.998947 L 84 11.998947 M 24 96.001053 L 96 24.001053 M 36 108 L 108 36 " transform="matrix(1.25,0,0,1.236111,0,0)"/>
</g>
<pattern id="pattern5" patternUnits="userSpaceOnUse" width="90" height="89" patternTransform="matrix(1,0,0,1.011236,0,0.000000000000014211)">
<use xlink:href="#surface28"/>
</pattern>
</defs>
<g id="surface1">
<path style=" stroke:none;fill-rule:nonzero;fill:rgb(100%,100%,100%);fill-opacity:1;" d="M 0 231.59375 L 327.738281 231.59375 L 327.738281 0 L 0 0 Z M 0 231.59375 "/>
<path style=" stroke:none;fill-rule:nonzero;fill:rgb(100%,100%,100%);fill-opacity:1;" d="M 74.613281 184.648438 L 318.738281 184.648438 L 318.738281 11.398438 L 74.613281 11.398438 Z M 74.613281 184.648438 "/>
<g clip-path="url(#clip1)" clip-rule="nonzero">
<path style=" stroke:none;fill-rule:nonzero;fill:rgb(12.156863%,46.666667%,70.588235%);fill-opacity:1;" d="M 85.710938 184.648438 L 94.769531 184.648438 L 94.769531 157.542969 L 85.710938 157.542969 Z M 85.710938 184.648438 "/>
</g>
<g clip-path="url(#clip2)" clip-rule="nonzero">
<path style=" stroke:none;fill-rule:nonzero;fill:rgb(12.156863%,46.666667%,70.588235%);fill-opacity:1;" d="M 108.355469 184.648438 L 117.414062 184.648438 L 117.414062 109.5 L 108.355469 109.5 Z M 108.355469 184.648438 "/>
</g>
<g clip-path="url(#clip3)" clip-rule="nonzero">
<path style=" stroke:none;fill-rule:nonzero;fill:rgb(12.156863%,46.666667%,70.588235%);fill-opacity:1;" d="M 131.003906 184.648438 L 140.058594 184.648438 L 140.058594 97.832031 L 131.003906 97.832031 Z M 131.003906 184.648438 "/>
</g>
<g clip-path="url(#clip4)" clip-rule="nonzero">
<path style=" stroke:none;fill-rule:nonzero;fill:rgb(12.156863%,46.666667%,70.588235%);fill-opacity:1;" d="M 153.648438 184.648438 L 162.707031 184.648438 L 162.707031 123.191406 L 153.648438 123.191406 Z M 153.648438 184.648438 "/>
</g>
<g clip-path="url(#clip5)" clip-rule="nonzero">
<path style=" stroke:none;fill-rule:nonzero;fill:rgb(12.156863%,46.666667%,70.588235%);fill-opacity:1;" d="M 176.292969 184.648438 L 185.351562 184.648438 L 185.351562 159.027344 L 176.292969 159.027344 Z M 176.292969 184.648438 "/>
</g>
<g clip-path="url(#clip6)" clip-rule="nonzero">
<path style=" stroke:none;fill-rule:nonzero;fill:rgb(12.156863%,46.666667%,70.588235%);fill-opacity:1;" d="M 198.941406 184.648438 L 208 184.648438 L 208 175.945312 L 198.941406 175.945312 Z M 198.941406 184.648438 "/>
</g>
<g clip-path="url(#clip7)" clip-rule="nonzero">
<path style=" stroke:none;fill-rule:nonzero;fill:rgb(12.156863%,46.666667%,70.588235%);fill-opacity:1;" d="M 221.585938 184.648438 L 230.644531 184.648438 L 230.644531 182.679688 L 221.585938 182.679688 Z M 221.585938 184.648438 "/>
</g>
<g clip-path="url(#clip8)" clip-rule="nonzero">
<path style=" stroke:none;fill-rule:nonzero;fill:rgb(12.156863%,46.666667%,70.588235%);fill-opacity:1;" d="M 244.234375 184.648438 L 253.292969 184.648438 L 253.292969 184.148438 L 244.234375 184.148438 Z M 244.234375 184.648438 "/>
</g>
<g clip-path="url(#clip9)" clip-rule="nonzero">
<path style=" stroke:none;fill-rule:nonzero;fill:rgb(12.156863%,46.666667%,70.588235%);fill-opacity:1;" d="M 266.878906 184.648438 L 275.9375 184.648438 L 275.9375 184.476562 L 266.878906 184.476562 Z M 266.878906 184.648438 "/>
</g>
<g clip-path="url(#clip10)" clip-rule="nonzero">
<path style=" stroke:none;fill-rule:nonzero;fill:rgb(12.156863%,46.666667%,70.588235%);fill-opacity:1;" d="M 289.523438 184.648438 L 298.582031 184.648438 L 298.582031 184.554688 L 289.523438 184.554688 Z M 289.523438 184.648438 "/>
</g>
<g clip-path="url(#clip11)" clip-rule="nonzero">
<path style=" stroke:none;fill-rule:nonzero;fill:url(#pattern0);" d="M 94.769531 184.648438 L 103.828125 184.648438 L 103.828125 19.648438 L 94.769531 19.648438 Z M 94.769531 184.648438 "/>
</g>
<g clip-path="url(#clip13)" clip-rule="nonzero">
<path style=" stroke:none;fill-rule:nonzero;fill:url(#pattern1);" d="M 117.414062 184.648438 L 126.472656 184.648438 L 126.472656 75.410156 L 117.414062 75.410156 Z M 117.414062 184.648438 "/>
</g>
<g clip-path="url(#clip15)" clip-rule="nonzero">
<path style=" stroke:none;fill-rule:nonzero;fill:url(#pattern2);" d="M 140.058594 184.648438 L 149.117188 184.648438 L 149.117188 172.089844 L 140.058594 172.089844 Z M 140.058594 184.648438 "/>
</g>
<g clip-path="url(#clip17)" clip-rule="nonzero">
<path style=" stroke:none;fill-rule:nonzero;fill:url(#pattern3);" d="M 162.707031 184.648438 L 171.765625 184.648438 L 171.765625 183.910156 L 162.707031 183.910156 Z M 162.707031 184.648438 "/>
</g>
<g clip-path="url(#clip19)" clip-rule="nonzero">
<path style=" stroke:none;fill-rule:nonzero;fill:url(#pattern4);" d="M 185.351562 184.648438 L 194.410156 184.648438 L 194.410156 184.601562 L 185.351562 184.601562 Z M 185.351562 184.648438 "/>
</g>
<path style="fill:none;stroke-width:0.8;stroke-linecap:butt;stroke-linejoin:round;stroke:rgb(0%,0%,0%);stroke-opacity:1;stroke-miterlimit:4;" d="M 0.000041 -0.000028 L 0.000041 3.499972 " transform="matrix(1.25,0,0,1.25,83.445261,184.648472)"/>
<path style=" stroke:none;fill-rule:nonzero;fill:rgb(0%,0%,0%);fill-opacity:1;" d="M 83.441406 194.597656 C 82.808594 194.597656 82.328125 194.910156 82.007812 195.535156 C 81.691406 196.15625 81.53125 197.097656 81.53125 198.351562 C 81.53125 199.597656 81.691406 200.535156 82.007812 201.160156 C 82.328125 201.785156 82.808594 202.097656 83.441406 202.097656 C 84.082031 202.097656 84.558594 201.785156 84.878906 201.160156 C 85.199219 200.535156 85.359375 199.597656 85.359375 198.351562 C 85.359375 197.097656 85.199219 196.15625 84.878906 195.535156 C 84.558594 194.910156 84.082031 194.597656 83.441406 194.597656 Z M 83.441406 193.621094 C 84.464844 193.621094 85.242188 194.023438 85.78125 194.832031 C 86.320312 195.640625 86.589844 196.8125 86.589844 198.351562 C 86.589844 199.882812 86.320312 201.054688 85.78125 201.863281 C 85.242188 202.671875 84.464844 203.074219 83.441406 203.074219 C 82.421875 203.074219 81.640625 202.671875 81.101562 201.863281 C 80.5625 201.054688 80.292969 199.882812 80.292969 198.351562 C 80.292969 196.8125 80.5625 195.640625 81.101562 194.832031 C 81.640625 194.023438 82.421875 193.621094 83.441406 193.621094 Z M 83.441406 193.621094 "/>
<path style="fill:none;stroke-width:0.8;stroke-linecap:butt;stroke-linejoin:round;stroke:rgb(0%,0%,0%);stroke-opacity:1;stroke-miterlimit:4;" d="M 0.000021 -0.000028 L 0.000021 3.499972 " transform="matrix(1.25,0,0,1.25,138.679661,184.648472)"/>
<path style=" stroke:none;fill-rule:nonzero;fill:rgb(0%,0%,0%);fill-opacity:1;" d="M 133.125 201.859375 L 137.425781 201.859375 L 137.425781 202.898438 L 131.640625 202.898438 L 131.640625 201.859375 C 132.109375 201.375 132.746094 200.726562 133.554688 199.910156 C 134.363281 199.09375 134.871094 198.566406 135.078125 198.332031 C 135.472656 197.886719 135.746094 197.511719 135.902344 197.207031 C 136.0625 196.898438 136.140625 196.597656 136.140625 196.300781 C 136.140625 195.816406 135.96875 195.421875 135.628906 195.117188 C 135.289062 194.808594 134.847656 194.65625 134.300781 194.65625 C 133.914062 194.65625 133.507812 194.722656 133.078125 194.859375 C 132.648438 194.992188 132.191406 195.195312 131.703125 195.46875 L 131.703125 194.222656 C 132.199219 194.023438 132.664062 193.875 133.09375 193.773438 C 133.527344 193.671875 133.921875 193.621094 134.277344 193.621094 C 135.222656 193.621094 135.976562 193.855469 136.535156 194.328125 C 137.097656 194.800781 137.378906 195.429688 137.378906 196.21875 C 137.378906 196.59375 137.308594 196.949219 137.167969 197.285156 C 137.027344 197.621094 136.773438 198.015625 136.402344 198.472656 C 136.300781 198.589844 135.976562 198.929688 135.429688 199.496094 C 134.886719 200.058594 134.117188 200.847656 133.125 201.859375 Z M 133.125 201.859375 "/>
<path style=" stroke:none;fill-rule:nonzero;fill:rgb(0%,0%,0%);fill-opacity:1;" d="M 142.652344 194.597656 C 142.019531 194.597656 141.539062 194.910156 141.21875 195.535156 C 140.902344 196.15625 140.742188 197.097656 140.742188 198.351562 C 140.742188 199.597656 140.902344 200.535156 141.21875 201.160156 C 141.539062 201.785156 142.019531 202.097656 142.652344 202.097656 C 143.292969 202.097656 143.769531 201.785156 144.089844 201.160156 C 144.410156 200.535156 144.570312 199.597656 144.570312 198.351562 C 144.570312 197.097656 144.410156 196.15625 144.089844 195.535156 C 143.769531 194.910156 143.292969 194.597656 142.652344 194.597656 Z M 142.652344 193.621094 C 143.675781 193.621094 144.453125 194.023438 144.992188 194.832031 C 145.53125 195.640625 145.800781 196.8125 145.800781 198.351562 C 145.800781 199.882812 145.53125 201.054688 144.992188 201.863281 C 144.453125 202.671875 143.675781 203.074219 142.652344 203.074219 C 141.632812 203.074219 140.851562 202.671875 140.3125 201.863281 C 139.773438 201.054688 139.503906 199.882812 139.503906 198.351562 C 139.503906 196.8125 139.773438 195.640625 140.3125 194.832031 C 140.851562 194.023438 141.632812 193.621094 142.652344 193.621094 Z M 142.652344 193.621094 "/>
<path style="fill:none;stroke-width:0.8;stroke-linecap:butt;stroke-linejoin:round;stroke:rgb(0%,0%,0%);stroke-opacity:1;stroke-miterlimit:4;" d="M 0.000001 -0.000028 L 0.000001 3.499972 " transform="matrix(1.25,0,0,1.25,193.914061,184.648472)"/>
<path style=" stroke:none;fill-rule:nonzero;fill:rgb(0%,0%,0%);fill-opacity:1;" d="M 190.683594 194.859375 L 187.570312 199.722656 L 190.683594 199.722656 Z M 190.359375 193.785156 L 191.910156 193.785156 L 191.910156 199.722656 L 193.210938 199.722656 L 193.210938 200.75 L 191.910156 200.75 L 191.910156 202.898438 L 190.683594 202.898438 L 190.683594 200.75 L 186.570312 200.75 L 186.570312 199.558594 Z M 190.359375 193.785156 "/>
<path style=" stroke:none;fill-rule:nonzero;fill:rgb(0%,0%,0%);fill-opacity:1;" d="M 197.886719 194.597656 C 197.253906 194.597656 196.773438 194.910156 196.453125 195.535156 C 196.136719 196.15625 195.976562 197.097656 195.976562 198.351562 C 195.976562 199.597656 196.136719 200.535156 196.453125 201.160156 C 196.773438 201.785156 197.253906 202.097656 197.886719 202.097656 C 198.527344 202.097656 199.003906 201.785156 199.324219 201.160156 C 199.644531 200.535156 199.804688 199.597656 199.804688 198.351562 C 199.804688 197.097656 199.644531 196.15625 199.324219 195.535156 C 199.003906 194.910156 198.527344 194.597656 197.886719 194.597656 Z M 197.886719 193.621094 C 198.910156 193.621094 199.6875 194.023438 200.226562 194.832031 C 200.765625 195.640625 201.035156 196.8125 201.035156 198.351562 C 201.035156 199.882812 200.765625 201.054688 200.226562 201.863281 C 199.6875 202.671875 198.910156 203.074219 197.886719 203.074219 C 196.867188 203.074219 196.085938 202.671875 195.546875 201.863281 C 195.007812 201.054688 194.738281 199.882812 194.738281 198.351562 C 194.738281 196.8125 195.007812 195.640625 195.546875 194.832031 C 196.085938 194.023438 196.867188 193.621094 197.886719 193.621094 Z M 197.886719 193.621094 "/>
<path style="fill:none;stroke-width:0.8;stroke-linecap:butt;stroke-linejoin:round;stroke:rgb(0%,0%,0%);stroke-opacity:1;stroke-miterlimit:4;" d="M -0.000019 -0.000028 L -0.000019 3.499972 " transform="matrix(1.25,0,0,1.25,249.148461,184.648472)"/>
<path style=" stroke:none;fill-rule:nonzero;fill:rgb(0%,0%,0%);fill-opacity:1;" d="M 245.324219 197.851562 C 244.769531 197.851562 244.332031 198.039062 244.007812 198.417969 C 243.683594 198.796875 243.523438 199.3125 243.523438 199.972656 C 243.523438 200.628906 243.683594 201.144531 244.007812 201.527344 C 244.332031 201.90625 244.769531 202.097656 245.324219 202.097656 C 245.875 202.097656 246.3125 201.90625 246.636719 201.527344 C 246.960938 201.144531 247.121094 200.628906 247.121094 199.972656 C 247.121094 199.3125 246.960938 198.796875 246.636719 198.417969 C 246.3125 198.039062 245.875 197.851562 245.324219 197.851562 Z M 247.769531 193.984375 L 247.769531 195.109375 C 247.460938 194.960938 247.148438 194.851562 246.832031 194.773438 C 246.515625 194.695312 246.203125 194.65625 245.894531 194.65625 C 245.082031 194.65625 244.460938 194.929688 244.03125 195.480469 C 243.601562 196.03125 243.355469 196.859375 243.296875 197.972656 C 243.535156 197.617188 243.835938 197.34375 244.199219 197.15625 C 244.5625 196.96875 244.960938 196.875 245.394531 196.875 C 246.308594 196.875 247.035156 197.152344 247.566406 197.707031 C 248.097656 198.261719 248.363281 199.015625 248.363281 199.972656 C 248.363281 200.910156 248.085938 201.660156 247.53125 202.226562 C 246.976562 202.792969 246.242188 203.074219 245.324219 203.074219 C 244.269531 203.074219 243.460938 202.671875 242.90625 201.863281 C 242.347656 201.054688 242.070312 199.882812 242.070312 198.351562 C 242.070312 196.910156 242.410156 195.761719 243.09375 194.90625 C 243.777344 194.046875 244.695312 193.621094 245.847656 193.621094 C 246.15625 193.621094 246.46875 193.648438 246.785156 193.710938 C 247.097656 193.773438 247.425781 193.863281 247.769531 193.984375 Z M 247.769531 193.984375 "/>
<path style=" stroke:none;fill-rule:nonzero;fill:rgb(0%,0%,0%);fill-opacity:1;" d="M 253.121094 194.597656 C 252.488281 194.597656 252.007812 194.910156 251.6875 195.535156 C 251.371094 196.15625 251.210938 197.097656 251.210938 198.351562 C 251.210938 199.597656 251.371094 200.535156 251.6875 201.160156 C 252.007812 201.785156 252.488281 202.097656 253.121094 202.097656 C 253.761719 202.097656 254.238281 201.785156 254.558594 201.160156 C 254.878906 200.535156 255.039062 199.597656 255.039062 198.351562 C 255.039062 197.097656 254.878906 196.15625 254.558594 195.535156 C 254.238281 194.910156 253.761719 194.597656 253.121094 194.597656 Z M 253.121094 193.621094 C 254.144531 193.621094 254.921875 194.023438 255.460938 194.832031 C 256 195.640625 256.269531 196.8125 256.269531 198.351562 C 256.269531 199.882812 256 201.054688 255.460938 201.863281 C 254.921875 202.671875 254.144531 203.074219 253.121094 203.074219 C 252.101562 203.074219 251.320312 202.671875 250.78125 201.863281 C 250.242188 201.054688 249.972656 199.882812 249.972656 198.351562 C 249.972656 196.8125 250.242188 195.640625 250.78125 194.832031 C 251.320312 194.023438 252.101562 193.621094 253.121094 193.621094 Z M 253.121094 193.621094 "/>
<path style="fill:none;stroke-width:0.8;stroke-linecap:butt;stroke-linejoin:round;stroke:rgb(0%,0%,0%);stroke-opacity:1;stroke-miterlimit:4;" d="M -0.000039 -0.000028 L -0.000039 3.499972 " transform="matrix(1.25,0,0,1.25,304.382861,184.648472)"/>
<path style=" stroke:none;fill-rule:nonzero;fill:rgb(0%,0%,0%);fill-opacity:1;" d="M 300.402344 198.570312 C 299.816406 198.570312 299.355469 198.726562 299.019531 199.039062 C 298.683594 199.351562 298.519531 199.785156 298.519531 200.332031 C 298.519531 200.882812 298.683594 201.3125 299.019531 201.628906 C 299.355469 201.941406 299.816406 202.097656 300.402344 202.097656 C 300.988281 202.097656 301.449219 201.941406 301.789062 201.625 C 302.125 201.308594 302.296875 200.878906 302.296875 200.332031 C 302.296875 199.785156 302.128906 199.351562 301.792969 199.039062 C 301.457031 198.726562 300.992188 198.570312 300.402344 198.570312 Z M 299.171875 198.046875 C 298.640625 197.914062 298.230469 197.667969 297.933594 197.308594 C 297.640625 196.945312 297.492188 196.5 297.492188 195.980469 C 297.492188 195.253906 297.75 194.675781 298.269531 194.253906 C 298.789062 193.832031 299.5 193.621094 300.402344 193.621094 C 301.308594 193.621094 302.023438 193.832031 302.539062 194.253906 C 303.054688 194.675781 303.316406 195.253906 303.316406 195.980469 C 303.316406 196.5 303.167969 196.945312 302.871094 197.308594 C 302.578125 197.667969 302.167969 197.914062 301.644531 198.046875 C 302.238281 198.183594 302.699219 198.453125 303.03125 198.859375 C 303.363281 199.261719 303.527344 199.75 303.527344 200.332031 C 303.527344 201.214844 303.257812 201.894531 302.71875 202.367188 C 302.179688 202.839844 301.40625 203.074219 300.402344 203.074219 C 299.398438 203.074219 298.625 202.839844 298.085938 202.367188 C 297.546875 201.894531 297.277344 201.214844 297.277344 200.332031 C 297.277344 199.75 297.445312 199.261719 297.777344 198.859375 C 298.113281 198.453125 298.578125 198.183594 299.171875 198.046875 Z M 298.71875 196.097656 C 298.71875 196.570312 298.867188 196.9375 299.160156 197.203125 C 299.457031 197.464844 299.871094 197.597656 300.402344 197.597656 C 300.933594 197.597656 301.347656 197.464844 301.644531 197.203125 C 301.945312 196.9375 302.09375 196.570312 302.09375 196.097656 C 302.09375 195.625 301.945312 195.257812 301.644531 194.992188 C 301.347656 194.726562 300.933594 194.597656 300.402344 194.597656 C 299.871094 194.597656 299.457031 194.726562 299.160156 194.992188 C 298.867188 195.257812 298.71875 195.625 298.71875 196.097656 Z M 298.71875 196.097656 "/>
<path style=" stroke:none;fill-rule:nonzero;fill:rgb(0%,0%,0%);fill-opacity:1;" d="M 308.355469 194.597656 C 307.722656 194.597656 307.242188 194.910156 306.921875 195.535156 C 306.605469 196.15625 306.445312 197.097656 306.445312 198.351562 C 306.445312 199.597656 306.605469 200.535156 306.921875 201.160156 C 307.242188 201.785156 307.722656 202.097656 308.355469 202.097656 C 308.996094 202.097656 309.472656 201.785156 309.792969 201.160156 C 310.113281 200.535156 310.273438 199.597656 310.273438 198.351562 C 310.273438 197.097656 310.113281 196.15625 309.792969 195.535156 C 309.472656 194.910156 308.996094 194.597656 308.355469 194.597656 Z M 308.355469 193.621094 C 309.378906 193.621094 310.15625 194.023438 310.695312 194.832031 C 311.234375 195.640625 311.503906 196.8125 311.503906 198.351562 C 311.503906 199.882812 311.234375 201.054688 310.695312 201.863281 C 310.15625 202.671875 309.378906 203.074219 308.355469 203.074219 C 307.335938 203.074219 306.554688 202.671875 306.015625 201.863281 C 305.476562 201.054688 305.207031 199.882812 305.207031 198.351562 C 305.207031 196.8125 305.476562 195.640625 306.015625 194.832031 C 306.554688 194.023438 307.335938 193.621094 308.355469 193.621094 Z M 308.355469 193.621094 "/>
<path style=" stroke:none;fill-rule:nonzero;fill:rgb(0%,0%,0%);fill-opacity:1;" d="M 132.15625 214.496094 L 130.382812 214.496094 L 129.867188 216.535156 L 131.65625 216.535156 Z M 131.242188 211.023438 L 130.605469 213.554688 L 132.390625 213.554688 L 133.03125 211.023438 L 134.007812 211.023438 L 133.375 213.554688 L 135.28125 213.554688 L 135.28125 214.496094 L 133.140625 214.496094 L 132.640625 216.535156 L 134.578125 216.535156 L 134.578125 217.46875 L 132.398438 217.46875 L 131.765625 219.996094 L 130.789062 219.996094 L 131.417969 217.46875 L 129.628906 217.46875 L 129 219.996094 L 128.015625 219.996094 L 128.652344 217.46875 L 126.730469 217.46875 L 126.730469 216.535156 L 128.878906 216.535156 L 129.390625 214.496094 L 127.425781 214.496094 L 127.425781 213.554688 L 129.628906 213.554688 L 130.25 211.023438 Z M 131.242188 211.023438 "/>
<path style=" stroke:none;fill-rule:nonzero;fill:rgb(0%,0%,0%);fill-opacity:1;" d="M 142.5 211.21875 L 142.5 213.160156 L 144.8125 213.160156 L 144.8125 214.03125 L 142.5 214.03125 L 142.5 217.742188 C 142.5 218.300781 142.578125 218.65625 142.730469 218.816406 C 142.882812 218.976562 143.191406 219.054688 143.660156 219.054688 L 144.8125 219.054688 L 144.8125 219.996094 L 143.660156 219.996094 C 142.792969 219.996094 142.195312 219.832031 141.867188 219.511719 C 141.539062 219.1875 141.371094 218.597656 141.371094 217.742188 L 141.371094 214.03125 L 140.546875 214.03125 L 140.546875 213.160156 L 141.371094 213.160156 L 141.371094 211.21875 Z M 142.5 211.21875 "/>
<path style=" stroke:none;fill-rule:nonzero;fill:rgb(0%,0%,0%);fill-opacity:1;" d="M 148.941406 213.945312 C 148.339844 213.945312 147.863281 214.179688 147.511719 214.652344 C 147.160156 215.121094 146.988281 215.765625 146.988281 216.582031 C 146.988281 217.398438 147.160156 218.042969 147.507812 218.515625 C 147.855469 218.984375 148.335938 219.21875 148.941406 219.21875 C 149.539062 219.21875 150.011719 218.984375 150.363281 218.511719 C 150.710938 218.039062 150.886719 217.394531 150.886719 216.582031 C 150.886719 215.773438 150.710938 215.128906 150.363281 214.65625 C 150.011719 214.183594 149.539062 213.945312 148.941406 213.945312 Z M 148.941406 212.996094 C 149.917969 212.996094 150.683594 213.3125 151.242188 213.949219 C 151.800781 214.582031 152.078125 215.460938 152.078125 216.582031 C 152.078125 217.699219 151.800781 218.578125 151.242188 219.21875 C 150.683594 219.855469 149.917969 220.171875 148.941406 220.171875 C 147.960938 220.171875 147.191406 219.855469 146.636719 219.21875 C 146.082031 218.578125 145.804688 217.699219 145.804688 216.582031 C 145.804688 215.460938 146.082031 214.582031 146.636719 213.949219 C 147.191406 213.3125 147.960938 212.996094 148.941406 212.996094 Z M 148.941406 212.996094 "/>
<path style=" stroke:none;fill-rule:nonzero;fill:rgb(0%,0%,0%);fill-opacity:1;" d="M 153.894531 210.496094 L 155.023438 210.496094 L 155.023438 216.105469 L 158.375 213.160156 L 159.808594 213.160156 L 156.183594 216.355469 L 159.964844 219.996094 L 158.5 219.996094 L 155.023438 216.65625 L 155.023438 219.996094 L 153.894531 219.996094 Z M 153.894531 210.496094 "/>
<path style=" stroke:none;fill-rule:nonzero;fill:rgb(0%,0%,0%);fill-opacity:1;" d="M 166.574219 216.296875 L 166.574219 216.84375 L 161.410156 216.84375 C 161.457031 217.617188 161.691406 218.207031 162.109375 218.613281 C 162.523438 219.015625 163.105469 219.21875 163.851562 219.21875 C 164.28125 219.21875 164.699219 219.167969 165.105469 219.0625 C 165.507812 218.957031 165.910156 218.796875 166.3125 218.585938 L 166.3125 219.648438 C 165.90625 219.816406 165.492188 219.949219 165.070312 220.039062 C 164.648438 220.128906 164.21875 220.171875 163.785156 220.171875 C 162.691406 220.171875 161.828125 219.855469 161.191406 219.222656 C 160.554688 218.585938 160.238281 217.726562 160.238281 216.644531 C 160.238281 215.523438 160.539062 214.636719 161.144531 213.980469 C 161.746094 213.324219 162.5625 212.996094 163.589844 212.996094 C 164.507812 212.996094 165.234375 213.289062 165.769531 213.882812 C 166.304688 214.472656 166.574219 215.277344 166.574219 216.296875 Z M 165.449219 215.964844 C 165.441406 215.351562 165.269531 214.863281 164.933594 214.496094 C 164.597656 214.128906 164.152344 213.945312 163.601562 213.945312 C 162.972656 213.945312 162.472656 214.121094 162.097656 214.476562 C 161.71875 214.832031 161.503906 215.328125 161.445312 215.972656 Z M 165.449219 215.964844 "/>
<path style=" stroke:none;fill-rule:nonzero;fill:rgb(0%,0%,0%);fill-opacity:1;" d="M 174.097656 215.867188 L 174.097656 219.996094 L 172.976562 219.996094 L 172.976562 215.90625 C 172.976562 215.257812 172.847656 214.773438 172.597656 214.453125 C 172.34375 214.132812 171.964844 213.972656 171.460938 213.972656 C 170.855469 213.972656 170.375 214.164062 170.027344 214.550781 C 169.675781 214.9375 169.5 215.464844 169.5 216.132812 L 169.5 219.996094 L 168.371094 219.996094 L 168.371094 213.160156 L 169.5 213.160156 L 169.5 214.222656 C 169.769531 213.808594 170.085938 213.503906 170.449219 213.300781 C 170.816406 213.097656 171.234375 212.996094 171.710938 212.996094 C 172.496094 212.996094 173.089844 213.238281 173.492188 213.722656 C 173.898438 214.207031 174.097656 214.921875 174.097656 215.867188 Z M 174.097656 215.867188 "/>
<path style=" stroke:none;fill-rule:nonzero;fill:rgb(0%,0%,0%);fill-opacity:1;" d="M 180.695312 213.359375 L 180.695312 214.421875 C 180.378906 214.257812 180.050781 214.136719 179.707031 214.058594 C 179.367188 213.976562 179.011719 213.933594 178.644531 213.933594 C 178.085938 213.933594 177.667969 214.019531 177.390625 214.191406 C 177.113281 214.359375 176.972656 214.617188 176.972656 214.960938 C 176.972656 215.21875 177.070312 215.425781 177.269531 215.574219 C 177.46875 215.722656 177.871094 215.863281 178.472656 215.996094 L 178.859375 216.082031 C 179.65625 216.253906 180.222656 216.492188 180.558594 216.804688 C 180.894531 217.117188 181.0625 217.550781 181.0625 218.109375 C 181.0625 218.742188 180.8125 219.246094 180.308594 219.617188 C 179.804688 219.988281 179.113281 220.171875 178.234375 220.171875 C 177.871094 220.171875 177.488281 220.136719 177.089844 220.066406 C 176.695312 219.992188 176.277344 219.886719 175.835938 219.746094 L 175.835938 218.585938 C 176.253906 218.800781 176.660156 218.960938 177.0625 219.070312 C 177.464844 219.175781 177.867188 219.230469 178.261719 219.230469 C 178.789062 219.230469 179.195312 219.140625 179.480469 218.960938 C 179.765625 218.777344 179.90625 218.523438 179.90625 218.195312 C 179.90625 217.890625 179.804688 217.65625 179.597656 217.492188 C 179.394531 217.328125 178.945312 217.171875 178.246094 217.023438 L 177.855469 216.929688 C 177.160156 216.785156 176.660156 216.558594 176.347656 216.257812 C 176.039062 215.953125 175.886719 215.535156 175.886719 215.007812 C 175.886719 214.363281 176.113281 213.867188 176.570312 213.519531 C 177.027344 213.167969 177.671875 212.996094 178.511719 212.996094 C 178.925781 212.996094 179.316406 213.023438 179.679688 213.085938 C 180.046875 213.144531 180.386719 213.238281 180.695312 213.359375 Z M 180.695312 213.359375 "/>
<path style=" stroke:none;fill-rule:nonzero;fill:rgb(0%,0%,0%);fill-opacity:1;" d="M 187.910156 218.96875 L 187.910156 222.59375 L 186.78125 222.59375 L 186.78125 213.160156 L 187.910156 213.160156 L 187.910156 214.195312 C 188.144531 213.789062 188.445312 213.488281 188.804688 213.292969 C 189.164062 213.09375 189.59375 212.996094 190.09375 212.996094 C 190.925781 212.996094 191.601562 213.324219 192.117188 213.984375 C 192.636719 214.640625 192.898438 215.507812 192.898438 216.582031 C 192.898438 217.65625 192.636719 218.523438 192.117188 219.183594 C 191.601562 219.84375 190.925781 220.171875 190.09375 220.171875 C 189.59375 220.171875 189.164062 220.074219 188.804688 219.875 C 188.445312 219.675781 188.144531 219.375 187.910156 218.96875 Z M 191.730469 216.582031 C 191.730469 215.757812 191.5625 215.109375 191.222656 214.640625 C 190.882812 214.167969 190.414062 213.933594 189.820312 213.933594 C 189.226562 213.933594 188.757812 214.167969 188.417969 214.640625 C 188.078125 215.109375 187.910156 215.757812 187.910156 216.582031 C 187.910156 217.40625 188.078125 218.054688 188.417969 218.527344 C 188.757812 218.996094 189.226562 219.230469 189.820312 219.230469 C 190.414062 219.230469 190.882812 218.996094 191.222656 218.527344 C 191.5625 218.054688 191.730469 217.40625 191.730469 216.582031 Z M 191.730469 216.582031 "/>
<path style=" stroke:none;fill-rule:nonzero;fill:rgb(0%,0%,0%);fill-opacity:1;" d="M 200.605469 216.296875 L 200.605469 216.84375 L 195.441406 216.84375 C 195.492188 217.617188 195.722656 218.207031 196.140625 218.613281 C 196.558594 219.015625 197.136719 219.21875 197.882812 219.21875 C 198.3125 219.21875 198.730469 219.167969 199.136719 219.0625 C 199.542969 218.957031 199.945312 218.796875 200.34375 218.585938 L 200.34375 219.648438 C 199.941406 219.816406 199.527344 219.949219 199.105469 220.039062 C 198.679688 220.128906 198.25 220.171875 197.816406 220.171875 C 196.726562 220.171875 195.863281 219.855469 195.226562 219.222656 C 194.589844 218.585938 194.269531 217.726562 194.269531 216.644531 C 194.269531 215.523438 194.570312 214.636719 195.175781 213.980469 C 195.78125 213.324219 196.59375 212.996094 197.621094 212.996094 C 198.539062 212.996094 199.269531 213.289062 199.804688 213.882812 C 200.339844 214.472656 200.605469 215.277344 200.605469 216.296875 Z M 199.484375 215.964844 C 199.476562 215.351562 199.304688 214.863281 198.96875 214.496094 C 198.632812 214.128906 198.1875 213.945312 197.632812 213.945312 C 197.007812 213.945312 196.503906 214.121094 196.128906 214.476562 C 195.753906 214.832031 195.535156 215.328125 195.480469 215.972656 Z M 199.484375 215.964844 "/>
<path style=" stroke:none;fill-rule:nonzero;fill:rgb(0%,0%,0%);fill-opacity:1;" d="M 206.410156 214.207031 C 206.28125 214.132812 206.144531 214.082031 205.996094 214.046875 C 205.847656 214.011719 205.683594 213.996094 205.507812 213.996094 C 204.871094 213.996094 204.382812 214.199219 204.042969 214.613281 C 203.703125 215.027344 203.535156 215.621094 203.535156 216.394531 L 203.535156 219.996094 L 202.40625 219.996094 L 202.40625 213.160156 L 203.535156 213.160156 L 203.535156 214.222656 C 203.769531 213.804688 204.078125 213.496094 204.457031 213.296875 C 204.835938 213.09375 205.296875 212.996094 205.835938 212.996094 C 205.914062 212.996094 206 213 206.09375 213.011719 C 206.1875 213.019531 206.289062 213.035156 206.402344 213.054688 Z M 206.410156 214.207031 "/>
<path style=" stroke:none;fill-rule:nonzero;fill:rgb(0%,0%,0%);fill-opacity:1;" d="M 215.917969 213.359375 L 215.917969 214.421875 C 215.601562 214.257812 215.273438 214.136719 214.929688 214.058594 C 214.589844 213.976562 214.234375 213.933594 213.867188 213.933594 C 213.308594 213.933594 212.890625 214.019531 212.613281 214.191406 C 212.335938 214.359375 212.195312 214.617188 212.195312 214.960938 C 212.195312 215.21875 212.296875 215.425781 212.496094 215.574219 C 212.695312 215.722656 213.09375 215.863281 213.699219 215.996094 L 214.082031 216.082031 C 214.878906 216.253906 215.445312 216.492188 215.78125 216.804688 C 216.117188 217.117188 216.285156 217.550781 216.285156 218.109375 C 216.285156 218.742188 216.035156 219.246094 215.53125 219.617188 C 215.027344 219.988281 214.339844 220.171875 213.460938 220.171875 C 213.09375 220.171875 212.710938 220.136719 212.316406 220.066406 C 211.917969 219.992188 211.5 219.886719 211.0625 219.746094 L 211.0625 218.585938 C 211.476562 218.800781 211.886719 218.960938 212.289062 219.070312 C 212.691406 219.175781 213.089844 219.230469 213.484375 219.230469 C 214.011719 219.230469 214.417969 219.140625 214.703125 218.960938 C 214.988281 218.777344 215.132812 218.523438 215.132812 218.195312 C 215.132812 217.890625 215.027344 217.65625 214.824219 217.492188 C 214.617188 217.328125 214.167969 217.171875 213.472656 217.023438 L 213.082031 216.929688 C 212.386719 216.785156 211.882812 216.558594 211.574219 216.257812 C 211.265625 215.953125 211.109375 215.535156 211.109375 215.007812 C 211.109375 214.363281 211.335938 213.867188 211.792969 213.519531 C 212.25 213.167969 212.894531 212.996094 213.734375 212.996094 C 214.148438 212.996094 214.539062 213.023438 214.90625 213.085938 C 215.273438 213.144531 215.609375 213.238281 215.917969 213.359375 Z M 215.917969 213.359375 "/>
<path style=" stroke:none;fill-rule:nonzero;fill:rgb(0%,0%,0%);fill-opacity:1;" d="M 223.921875 216.296875 L 223.921875 216.84375 L 218.757812 216.84375 C 218.804688 217.617188 219.039062 218.207031 219.457031 218.613281 C 219.871094 219.015625 220.453125 219.21875 221.199219 219.21875 C 221.628906 219.21875 222.046875 219.167969 222.453125 219.0625 C 222.855469 218.957031 223.257812 218.796875 223.660156 218.585938 L 223.660156 219.648438 C 223.253906 219.816406 222.84375 219.949219 222.417969 220.039062 C 221.996094 220.128906 221.566406 220.171875 221.132812 220.171875 C 220.039062 220.171875 219.175781 219.855469 218.539062 219.222656 C 217.902344 218.585938 217.585938 217.726562 217.585938 216.644531 C 217.585938 215.523438 217.886719 214.636719 218.492188 213.980469 C 219.09375 213.324219 219.910156 212.996094 220.9375 212.996094 C 221.855469 212.996094 222.582031 213.289062 223.117188 213.882812 C 223.652344 214.472656 223.921875 215.277344 223.921875 216.296875 Z M 222.796875 215.964844 C 222.789062 215.351562 222.617188 214.863281 222.28125 214.496094 C 221.945312 214.128906 221.5 213.945312 220.949219 213.945312 C 220.320312 213.945312 219.820312 214.121094 219.445312 214.476562 C 219.066406 214.832031 218.851562 215.328125 218.792969 215.972656 Z M 222.796875 215.964844 "/>
<path style=" stroke:none;fill-rule:nonzero;fill:rgb(0%,0%,0%);fill-opacity:1;" d="M 231.449219 215.867188 L 231.449219 219.996094 L 230.324219 219.996094 L 230.324219 215.90625 C 230.324219 215.257812 230.199219 214.773438 229.945312 214.453125 C 229.691406 214.132812 229.316406 213.972656 228.8125 213.972656 C 228.203125 213.972656 227.726562 214.164062 227.375 214.550781 C 227.023438 214.9375 226.851562 215.464844 226.851562 216.132812 L 226.851562 219.996094 L 225.722656 219.996094 L 225.722656 213.160156 L 226.851562 213.160156 L 226.851562 214.222656 C 227.121094 213.808594 227.4375 213.503906 227.800781 213.300781 C 228.164062 213.097656 228.585938 212.996094 229.0625 212.996094 C 229.847656 212.996094 230.441406 213.238281 230.84375 213.722656 C 231.246094 214.207031 231.449219 214.921875 231.449219 215.867188 Z M 231.449219 215.867188 "/>
<path style=" stroke:none;fill-rule:nonzero;fill:rgb(0%,0%,0%);fill-opacity:1;" d="M 234.796875 211.21875 L 234.796875 213.160156 L 237.109375 213.160156 L 237.109375 214.03125 L 234.796875 214.03125 L 234.796875 217.742188 C 234.796875 218.300781 234.875 218.65625 235.027344 218.816406 C 235.179688 218.976562 235.488281 219.054688 235.957031 219.054688 L 237.109375 219.054688 L 237.109375 219.996094 L 235.957031 219.996094 C 235.089844 219.996094 234.492188 219.832031 234.164062 219.511719 C 233.832031 219.1875 233.667969 218.597656 233.667969 217.742188 L 233.667969 214.03125 L 232.84375 214.03125 L 232.84375 213.160156 L 233.667969 213.160156 L 233.667969 211.21875 Z M 234.796875 211.21875 "/>
<path style=" stroke:none;fill-rule:nonzero;fill:rgb(0%,0%,0%);fill-opacity:1;" d="M 244.433594 216.296875 L 244.433594 216.84375 L 239.269531 216.84375 C 239.320312 217.617188 239.554688 218.207031 239.96875 218.613281 C 240.386719 219.015625 240.96875 219.21875 241.710938 219.21875 C 242.144531 219.21875 242.5625 219.167969 242.964844 219.0625 C 243.371094 218.957031 243.773438 218.796875 244.171875 218.585938 L 244.171875 219.648438 C 243.769531 219.816406 243.355469 219.949219 242.933594 220.039062 C 242.511719 220.128906 242.082031 220.171875 241.644531 220.171875 C 240.554688 220.171875 239.691406 219.855469 239.054688 219.222656 C 238.417969 218.585938 238.097656 217.726562 238.097656 216.644531 C 238.097656 215.523438 238.402344 214.636719 239.003906 213.980469 C 239.609375 213.324219 240.425781 212.996094 241.449219 212.996094 C 242.371094 212.996094 243.097656 213.289062 243.632812 213.882812 C 244.167969 214.472656 244.433594 215.277344 244.433594 216.296875 Z M 243.3125 215.964844 C 243.304688 215.351562 243.132812 214.863281 242.796875 214.496094 C 242.460938 214.128906 242.015625 213.945312 241.460938 213.945312 C 240.835938 213.945312 240.335938 214.121094 239.957031 214.476562 C 239.582031 214.832031 239.367188 215.328125 239.308594 215.972656 Z M 243.3125 215.964844 "/>
<path style=" stroke:none;fill-rule:nonzero;fill:rgb(0%,0%,0%);fill-opacity:1;" d="M 251.960938 215.867188 L 251.960938 219.996094 L 250.839844 219.996094 L 250.839844 215.90625 C 250.839844 215.257812 250.710938 214.773438 250.460938 214.453125 C 250.207031 214.132812 249.828125 213.972656 249.324219 213.972656 C 248.71875 213.972656 248.238281 214.164062 247.890625 214.550781 C 247.539062 214.9375 247.363281 215.464844 247.363281 216.132812 L 247.363281 219.996094 L 246.234375 219.996094 L 246.234375 213.160156 L 247.363281 213.160156 L 247.363281 214.222656 C 247.632812 213.808594 247.949219 213.503906 248.3125 213.300781 C 248.675781 213.097656 249.097656 212.996094 249.574219 212.996094 C 250.359375 212.996094 250.953125 213.238281 251.355469 213.722656 C 251.757812 214.207031 251.960938 214.921875 251.960938 215.867188 Z M 251.960938 215.867188 "/>
<path style=" stroke:none;fill-rule:nonzero;fill:rgb(0%,0%,0%);fill-opacity:1;" d="M 259.121094 213.421875 L 259.121094 214.472656 C 258.800781 214.296875 258.484375 214.164062 258.164062 214.078125 C 257.847656 213.988281 257.523438 213.945312 257.199219 213.945312 C 256.46875 213.945312 255.902344 214.175781 255.5 214.640625 C 255.097656 215.101562 254.894531 215.746094 254.894531 216.582031 C 254.894531 217.417969 255.097656 218.066406 255.5 218.527344 C 255.902344 218.988281 256.46875 219.21875 257.199219 219.21875 C 257.523438 219.21875 257.847656 219.175781 258.164062 219.089844 C 258.484375 219 258.800781 218.871094 259.121094 218.695312 L 259.121094 219.734375 C 258.804688 219.878906 258.480469 219.988281 258.144531 220.0625 C 257.8125 220.136719 257.453125 220.171875 257.074219 220.171875 C 256.046875 220.171875 255.226562 219.847656 254.621094 219.203125 C 254.015625 218.554688 253.710938 217.679688 253.710938 216.582031 C 253.710938 215.46875 254.019531 214.589844 254.628906 213.953125 C 255.242188 213.3125 256.082031 212.996094 257.148438 212.996094 C 257.496094 212.996094 257.832031 213.03125 258.160156 213.101562 C 258.492188 213.171875 258.808594 213.277344 259.121094 213.421875 Z M 259.121094 213.421875 "/>
<path style=" stroke:none;fill-rule:nonzero;fill:rgb(0%,0%,0%);fill-opacity:1;" d="M 266.921875 216.296875 L 266.921875 216.84375 L 261.757812 216.84375 C 261.804688 217.617188 262.039062 218.207031 262.457031 218.613281 C 262.871094 219.015625 263.453125 219.21875 264.199219 219.21875 C 264.628906 219.21875 265.046875 219.167969 265.453125 219.0625 C 265.855469 218.957031 266.257812 218.796875 266.660156 218.585938 L 266.660156 219.648438 C 266.253906 219.816406 265.839844 219.949219 265.417969 220.039062 C 264.996094 220.128906 264.566406 220.171875 264.132812 220.171875 C 263.039062 220.171875 262.175781 219.855469 261.539062 219.222656 C 260.902344 218.585938 260.585938 217.726562 260.585938 216.644531 C 260.585938 215.523438 260.886719 214.636719 261.492188 213.980469 C 262.09375 213.324219 262.910156 212.996094 263.9375 212.996094 C 264.855469 212.996094 265.582031 213.289062 266.117188 213.882812 C 266.652344 214.472656 266.921875 215.277344 266.921875 216.296875 Z M 265.796875 215.964844 C 265.789062 215.351562 265.617188 214.863281 265.28125 214.496094 C 264.945312 214.128906 264.5 213.945312 263.949219 213.945312 C 263.320312 213.945312 262.820312 214.121094 262.445312 214.476562 C 262.066406 214.832031 261.851562 215.328125 261.792969 215.972656 Z M 265.796875 215.964844 "/>
<path style="fill:none;stroke-width:0.8;stroke-linecap:butt;stroke-linejoin:round;stroke:rgb(0%,0%,0%);stroke-opacity:1;stroke-miterlimit:4;" d="M 0 -0.000028 L -3.5 -0.000028 " transform="matrix(1.25,0,0,1.25,74.613281,184.648472)"/>
<path style=" stroke:none;fill-rule:nonzero;fill:rgb(0%,0%,0%);fill-opacity:1;" d="M 61.882812 181.097656 C 61.25 181.097656 60.773438 181.410156 60.453125 182.035156 C 60.132812 182.65625 59.972656 183.597656 59.972656 184.851562 C 59.972656 186.097656 60.132812 187.035156 60.453125 187.660156 C 60.773438 188.285156 61.25 188.597656 61.882812 188.597656 C 62.523438 188.597656 63 188.285156 63.320312 187.660156 C 63.640625 187.035156 63.800781 186.097656 63.800781 184.851562 C 63.800781 183.597656 63.640625 182.65625 63.320312 182.035156 C 63 181.410156 62.523438 181.097656 61.882812 181.097656 Z M 61.882812 180.121094 C 62.90625 180.121094 63.6875 180.523438 64.226562 181.332031 C 64.765625 182.140625 65.03125 183.3125 65.03125 184.851562 C 65.03125 186.382812 64.765625 187.554688 64.226562 188.363281 C 63.6875 189.171875 62.90625 189.574219 61.882812 189.574219 C 60.863281 189.574219 60.082031 189.171875 59.542969 188.363281 C 59.003906 187.554688 58.734375 186.382812 58.734375 184.851562 C 58.734375 183.3125 59.003906 182.140625 59.542969 181.332031 C 60.082031 180.523438 60.863281 180.121094 61.882812 180.121094 Z M 61.882812 180.121094 "/>
<path style="fill:none;stroke-width:0.8;stroke-linecap:butt;stroke-linejoin:round;stroke:rgb(0%,0%,0%);stroke-opacity:1;stroke-miterlimit:4;" d="M 0 0.000134 L -3.5 0.000134 " transform="matrix(1.25,0,0,1.25,74.613281,150.468582)"/>
<path style=" stroke:none;fill-rule:nonzero;fill:rgb(0%,0%,0%);fill-opacity:1;" d="M 35.398438 146.105469 L 40.242188 146.105469 L 40.242188 147.144531 L 36.53125 147.144531 L 36.53125 149.375 C 36.707031 149.316406 36.886719 149.269531 37.0625 149.238281 C 37.242188 149.210938 37.421875 149.195312 37.601562 149.195312 C 38.621094 149.195312 39.425781 149.472656 40.019531 150.03125 C 40.613281 150.585938 40.914062 151.34375 40.914062 152.292969 C 40.914062 153.273438 40.605469 154.035156 39.996094 154.582031 C 39.386719 155.125 38.523438 155.394531 37.414062 155.394531 C 37.03125 155.394531 36.640625 155.363281 36.242188 155.296875 C 35.847656 155.234375 35.4375 155.136719 35.015625 155.003906 L 35.015625 153.765625 C 35.382812 153.964844 35.757812 154.113281 36.148438 154.210938 C 36.539062 154.308594 36.953125 154.355469 37.390625 154.355469 C 38.09375 154.355469 38.648438 154.171875 39.0625 153.800781 C 39.472656 153.433594 39.679688 152.929688 39.679688 152.292969 C 39.679688 151.660156 39.472656 151.15625 39.0625 150.789062 C 38.648438 150.417969 38.09375 150.230469 37.390625 150.230469 C 37.058594 150.230469 36.730469 150.269531 36.402344 150.339844 C 36.074219 150.414062 35.742188 150.527344 35.398438 150.683594 Z M 35.398438 146.105469 "/>
<path style=" stroke:none;fill-rule:nonzero;fill:rgb(0%,0%,0%);fill-opacity:1;" d="M 45.976562 146.917969 C 45.34375 146.917969 44.863281 147.230469 44.542969 147.855469 C 44.226562 148.476562 44.066406 149.417969 44.066406 150.671875 C 44.066406 151.917969 44.226562 152.855469 44.542969 153.480469 C 44.863281 154.105469 45.34375 154.417969 45.976562 154.417969 C 46.617188 154.417969 47.09375 154.105469 47.414062 153.480469 C 47.734375 152.855469 47.894531 151.917969 47.894531 150.671875 C 47.894531 149.417969 47.734375 148.476562 47.414062 147.855469 C 47.09375 147.230469 46.617188 146.917969 45.976562 146.917969 Z M 45.976562 145.941406 C 47 145.941406 47.777344 146.34375 48.316406 147.152344 C 48.855469 147.960938 49.125 149.132812 49.125 150.671875 C 49.125 152.203125 48.855469 153.375 48.316406 154.183594 C 47.777344 154.992188 47 155.394531 45.976562 155.394531 C 44.957031 155.394531 44.175781 154.992188 43.636719 154.183594 C 43.097656 153.375 42.828125 152.203125 42.828125 150.671875 C 42.828125 149.132812 43.097656 147.960938 43.636719 147.152344 C 44.175781 146.34375 44.957031 145.941406 45.976562 145.941406 Z M 45.976562 145.941406 "/>
<path style=" stroke:none;fill-rule:nonzero;fill:rgb(0%,0%,0%);fill-opacity:1;" d="M 53.929688 146.917969 C 53.296875 146.917969 52.816406 147.230469 52.496094 147.855469 C 52.179688 148.476562 52.019531 149.417969 52.019531 150.671875 C 52.019531 151.917969 52.179688 152.855469 52.496094 153.480469 C 52.816406 154.105469 53.296875 154.417969 53.929688 154.417969 C 54.570312 154.417969 55.046875 154.105469 55.367188 153.480469 C 55.6875 152.855469 55.847656 151.917969 55.847656 150.671875 C 55.847656 149.417969 55.6875 148.476562 55.367188 147.855469 C 55.046875 147.230469 54.570312 146.917969 53.929688 146.917969 Z M 53.929688 145.941406 C 54.953125 145.941406 55.730469 146.34375 56.269531 147.152344 C 56.808594 147.960938 57.078125 149.132812 57.078125 150.671875 C 57.078125 152.203125 56.808594 153.375 56.269531 154.183594 C 55.730469 154.992188 54.953125 155.394531 53.929688 155.394531 C 52.910156 155.394531 52.128906 154.992188 51.589844 154.183594 C 51.050781 153.375 50.78125 152.203125 50.78125 150.671875 C 50.78125 149.132812 51.050781 147.960938 51.589844 147.152344 C 52.128906 146.34375 52.910156 145.941406 53.929688 145.941406 Z M 53.929688 145.941406 "/>
<path style=" stroke:none;fill-rule:nonzero;fill:rgb(0%,0%,0%);fill-opacity:1;" d="M 61.882812 146.917969 C 61.246094 146.917969 60.769531 147.230469 60.449219 147.855469 C 60.132812 148.476562 59.972656 149.417969 59.972656 150.671875 C 59.972656 151.917969 60.132812 152.855469 60.449219 153.480469 C 60.769531 154.105469 61.246094 154.417969 61.882812 154.417969 C 62.519531 154.417969 63 154.105469 63.320312 153.480469 C 63.640625 152.855469 63.800781 151.917969 63.800781 150.671875 C 63.800781 149.417969 63.640625 148.476562 63.320312 147.855469 C 63 147.230469 62.519531 146.917969 61.882812 146.917969 Z M 61.882812 145.941406 C 62.902344 145.941406 63.683594 146.34375 64.222656 147.152344 C 64.761719 147.960938 65.03125 149.132812 65.03125 150.671875 C 65.03125 152.203125 64.761719 153.375 64.222656 154.183594 C 63.683594 154.992188 62.902344 155.394531 61.882812 155.394531 C 60.859375 155.394531 60.082031 154.992188 59.542969 154.183594 C 59.003906 153.375 58.734375 152.203125 58.734375 150.671875 C 58.734375 149.132812 59.003906 147.960938 59.542969 147.152344 C 60.082031 146.34375 60.859375 145.941406 61.882812 145.941406 Z M 61.882812 145.941406 "/>
<path style="fill:none;stroke-width:0.8;stroke-linecap:butt;stroke-linejoin:round;stroke:rgb(0%,0%,0%);stroke-opacity:1;stroke-miterlimit:4;" d="M 0 0.000296 L -3.5 0.000296 " transform="matrix(1.25,0,0,1.25,74.613281,116.288692)"/>
<path style=" stroke:none;fill-rule:nonzero;fill:rgb(0%,0%,0%);fill-opacity:1;" d="M 27.648438 120 L 29.664062 120 L 29.664062 113.046875 L 27.46875 113.488281 L 27.46875 112.363281 L 29.648438 111.925781 L 30.882812 111.925781 L 30.882812 120 L 32.898438 120 L 32.898438 121.039062 L 27.648438 121.039062 Z M 27.648438 120 "/>
<path style=" stroke:none;fill-rule:nonzero;fill:rgb(0%,0%,0%);fill-opacity:1;" d="M 38.023438 112.738281 C 37.390625 112.738281 36.910156 113.050781 36.589844 113.675781 C 36.273438 114.296875 36.113281 115.238281 36.113281 116.492188 C 36.113281 117.738281 36.273438 118.675781 36.589844 119.300781 C 36.910156 119.925781 37.390625 120.238281 38.023438 120.238281 C 38.664062 120.238281 39.140625 119.925781 39.460938 119.300781 C 39.78125 118.675781 39.941406 117.738281 39.941406 116.492188 C 39.941406 115.238281 39.78125 114.296875 39.460938 113.675781 C 39.140625 113.050781 38.664062 112.738281 38.023438 112.738281 Z M 38.023438 111.761719 C 39.046875 111.761719 39.824219 112.164062 40.363281 112.972656 C 40.902344 113.78125 41.171875 114.953125 41.171875 116.492188 C 41.171875 118.023438 40.902344 119.195312 40.363281 120.003906 C 39.824219 120.8125 39.046875 121.214844 38.023438 121.214844 C 37.003906 121.214844 36.222656 120.8125 35.683594 120.003906 C 35.144531 119.195312 34.875 118.023438 34.875 116.492188 C 34.875 114.953125 35.144531 113.78125 35.683594 112.972656 C 36.222656 112.164062 37.003906 111.761719 38.023438 111.761719 Z M 38.023438 111.761719 "/>
<path style=" stroke:none;fill-rule:nonzero;fill:rgb(0%,0%,0%);fill-opacity:1;" d="M 45.976562 112.738281 C 45.34375 112.738281 44.863281 113.050781 44.542969 113.675781 C 44.226562 114.296875 44.066406 115.238281 44.066406 116.492188 C 44.066406 117.738281 44.226562 118.675781 44.542969 119.300781 C 44.863281 119.925781 45.34375 120.238281 45.976562 120.238281 C 46.617188 120.238281 47.09375 119.925781 47.414062 119.300781 C 47.734375 118.675781 47.894531 117.738281 47.894531 116.492188 C 47.894531 115.238281 47.734375 114.296875 47.414062 113.675781 C 47.09375 113.050781 46.617188 112.738281 45.976562 112.738281 Z M 45.976562 111.761719 C 47 111.761719 47.777344 112.164062 48.316406 112.972656 C 48.855469 113.78125 49.125 114.953125 49.125 116.492188 C 49.125 118.023438 48.855469 119.195312 48.316406 120.003906 C 47.777344 120.8125 47 121.214844 45.976562 121.214844 C 44.957031 121.214844 44.175781 120.8125 43.636719 120.003906 C 43.097656 119.195312 42.828125 118.023438 42.828125 116.492188 C 42.828125 114.953125 43.097656 113.78125 43.636719 112.972656 C 44.175781 112.164062 44.957031 111.761719 45.976562 111.761719 Z M 45.976562 111.761719 "/>
<path style=" stroke:none;fill-rule:nonzero;fill:rgb(0%,0%,0%);fill-opacity:1;" d="M 53.929688 112.738281 C 53.292969 112.738281 52.816406 113.050781 52.496094 113.675781 C 52.179688 114.296875 52.019531 115.238281 52.019531 116.492188 C 52.019531 117.738281 52.179688 118.675781 52.496094 119.300781 C 52.816406 119.925781 53.292969 120.238281 53.929688 120.238281 C 54.566406 120.238281 55.046875 119.925781 55.367188 119.300781 C 55.6875 118.675781 55.847656 117.738281 55.847656 116.492188 C 55.847656 115.238281 55.6875 114.296875 55.367188 113.675781 C 55.046875 113.050781 54.566406 112.738281 53.929688 112.738281 Z M 53.929688 111.761719 C 54.949219 111.761719 55.730469 112.164062 56.269531 112.972656 C 56.808594 113.78125 57.078125 114.953125 57.078125 116.492188 C 57.078125 118.023438 56.808594 119.195312 56.269531 120.003906 C 55.730469 120.8125 54.949219 121.214844 53.929688 121.214844 C 52.90625 121.214844 52.128906 120.8125 51.589844 120.003906 C 51.050781 119.195312 50.78125 118.023438 50.78125 116.492188 C 50.78125 114.953125 51.050781 113.78125 51.589844 112.972656 C 52.128906 112.164062 52.90625 111.761719 53.929688 111.761719 Z M 53.929688 111.761719 "/>
<path style=" stroke:none;fill-rule:nonzero;fill:rgb(0%,0%,0%);fill-opacity:1;" d="M 61.882812 112.738281 C 61.246094 112.738281 60.769531 113.050781 60.449219 113.675781 C 60.132812 114.296875 59.972656 115.238281 59.972656 116.492188 C 59.972656 117.738281 60.132812 118.675781 60.449219 119.300781 C 60.769531 119.925781 61.246094 120.238281 61.882812 120.238281 C 62.519531 120.238281 63 119.925781 63.320312 119.300781 C 63.640625 118.675781 63.800781 117.738281 63.800781 116.492188 C 63.800781 115.238281 63.640625 114.296875 63.320312 113.675781 C 63 113.050781 62.519531 112.738281 61.882812 112.738281 Z M 61.882812 111.761719 C 62.902344 111.761719 63.683594 112.164062 64.222656 112.972656 C 64.761719 113.78125 65.03125 114.953125 65.03125 116.492188 C 65.03125 118.023438 64.761719 119.195312 64.222656 120.003906 C 63.683594 120.8125 62.902344 121.214844 61.882812 121.214844 C 60.859375 121.214844 60.082031 120.8125 59.542969 120.003906 C 59.003906 119.195312 58.734375 118.023438 58.734375 116.492188 C 58.734375 114.953125 59.003906 113.78125 59.542969 112.972656 C 60.082031 112.164062 60.859375 111.761719 61.882812 111.761719 Z M 61.882812 111.761719 "/>
<path style="fill:none;stroke-width:0.8;stroke-linecap:butt;stroke-linejoin:round;stroke:rgb(0%,0%,0%);stroke-opacity:1;stroke-miterlimit:4;" d="M 0 0.000458 L -3.5 0.000458 " transform="matrix(1.25,0,0,1.25,74.613281,82.108803)"/>
<path style=" stroke:none;fill-rule:nonzero;fill:rgb(0%,0%,0%);fill-opacity:1;" d="M 27.648438 85.820312 L 29.664062 85.820312 L 29.664062 78.867188 L 27.46875 79.308594 L 27.46875 78.183594 L 29.648438 77.746094 L 30.882812 77.746094 L 30.882812 85.820312 L 32.898438 85.820312 L 32.898438 86.859375 L 27.648438 86.859375 Z M 27.648438 85.820312 "/>
<path style=" stroke:none;fill-rule:nonzero;fill:rgb(0%,0%,0%);fill-opacity:1;" d="M 35.398438 77.746094 L 40.238281 77.746094 L 40.238281 78.785156 L 36.527344 78.785156 L 36.527344 81.015625 C 36.707031 80.953125 36.886719 80.910156 37.0625 80.878906 C 37.242188 80.847656 37.421875 80.835938 37.601562 80.835938 C 38.621094 80.835938 39.425781 81.113281 40.019531 81.671875 C 40.613281 82.226562 40.910156 82.980469 40.910156 83.933594 C 40.910156 84.914062 40.605469 85.675781 39.996094 86.222656 C 39.386719 86.765625 38.523438 87.035156 37.414062 87.035156 C 37.03125 87.035156 36.640625 87.003906 36.242188 86.9375 C 35.847656 86.871094 35.4375 86.773438 35.015625 86.644531 L 35.015625 85.40625 C 35.382812 85.605469 35.757812 85.753906 36.148438 85.851562 C 36.539062 85.949219 36.953125 85.996094 37.386719 85.996094 C 38.09375 85.996094 38.648438 85.8125 39.058594 85.441406 C 39.472656 85.070312 39.675781 84.570312 39.675781 83.933594 C 39.675781 83.300781 39.472656 82.796875 39.058594 82.429688 C 38.648438 82.058594 38.09375 81.871094 37.386719 81.871094 C 37.058594 81.871094 36.730469 81.90625 36.402344 81.980469 C 36.074219 82.054688 35.742188 82.167969 35.398438 82.324219 Z M 35.398438 77.746094 "/>
<path style=" stroke:none;fill-rule:nonzero;fill:rgb(0%,0%,0%);fill-opacity:1;" d="M 45.976562 78.558594 C 45.34375 78.558594 44.863281 78.871094 44.542969 79.496094 C 44.226562 80.117188 44.066406 81.058594 44.066406 82.3125 C 44.066406 83.558594 44.226562 84.496094 44.542969 85.121094 C 44.863281 85.746094 45.34375 86.058594 45.976562 86.058594 C 46.617188 86.058594 47.09375 85.746094 47.414062 85.121094 C 47.734375 84.496094 47.894531 83.558594 47.894531 82.3125 C 47.894531 81.058594 47.734375 80.117188 47.414062 79.496094 C 47.09375 78.871094 46.617188 78.558594 45.976562 78.558594 Z M 45.976562 77.582031 C 47 77.582031 47.777344 77.984375 48.316406 78.792969 C 48.855469 79.601562 49.125 80.773438 49.125 82.3125 C 49.125 83.84375 48.855469 85.015625 48.316406 85.824219 C 47.777344 86.632812 47 87.035156 45.976562 87.035156 C 44.957031 87.035156 44.175781 86.632812 43.636719 85.824219 C 43.097656 85.015625 42.828125 83.84375 42.828125 82.3125 C 42.828125 80.773438 43.097656 79.601562 43.636719 78.792969 C 44.175781 77.984375 44.957031 77.582031 45.976562 77.582031 Z M 45.976562 77.582031 "/>
<path style=" stroke:none;fill-rule:nonzero;fill:rgb(0%,0%,0%);fill-opacity:1;" d="M 53.929688 78.558594 C 53.292969 78.558594 52.816406 78.871094 52.496094 79.496094 C 52.179688 80.117188 52.019531 81.058594 52.019531 82.3125 C 52.019531 83.558594 52.179688 84.496094 52.496094 85.121094 C 52.816406 85.746094 53.292969 86.058594 53.929688 86.058594 C 54.566406 86.058594 55.046875 85.746094 55.367188 85.121094 C 55.6875 84.496094 55.847656 83.558594 55.847656 82.3125 C 55.847656 81.058594 55.6875 80.117188 55.367188 79.496094 C 55.046875 78.871094 54.566406 78.558594 53.929688 78.558594 Z M 53.929688 77.582031 C 54.949219 77.582031 55.730469 77.984375 56.269531 78.792969 C 56.808594 79.601562 57.078125 80.773438 57.078125 82.3125 C 57.078125 83.84375 56.808594 85.015625 56.269531 85.824219 C 55.730469 86.632812 54.949219 87.035156 53.929688 87.035156 C 52.90625 87.035156 52.128906 86.632812 51.589844 85.824219 C 51.050781 85.015625 50.78125 83.84375 50.78125 82.3125 C 50.78125 80.773438 51.050781 79.601562 51.589844 78.792969 C 52.128906 77.984375 52.90625 77.582031 53.929688 77.582031 Z M 53.929688 77.582031 "/>
<path style=" stroke:none;fill-rule:nonzero;fill:rgb(0%,0%,0%);fill-opacity:1;" d="M 61.882812 78.558594 C 61.246094 78.558594 60.769531 78.871094 60.449219 79.496094 C 60.132812 80.117188 59.972656 81.058594 59.972656 82.3125 C 59.972656 83.558594 60.132812 84.496094 60.449219 85.121094 C 60.769531 85.746094 61.246094 86.058594 61.882812 86.058594 C 62.519531 86.058594 63 85.746094 63.320312 85.121094 C 63.640625 84.496094 63.800781 83.558594 63.800781 82.3125 C 63.800781 81.058594 63.640625 80.117188 63.320312 79.496094 C 63 78.871094 62.519531 78.558594 61.882812 78.558594 Z M 61.882812 77.582031 C 62.902344 77.582031 63.683594 77.984375 64.222656 78.792969 C 64.761719 79.601562 65.03125 80.773438 65.03125 82.3125 C 65.03125 83.84375 64.761719 85.015625 64.222656 85.824219 C 63.683594 86.632812 62.902344 87.035156 61.882812 87.035156 C 60.859375 87.035156 60.082031 86.632812 59.542969 85.824219 C 59.003906 85.015625 58.734375 83.84375 58.734375 82.3125 C 58.734375 80.773438 59.003906 79.601562 59.542969 78.792969 C 60.082031 77.984375 60.859375 77.582031 61.882812 77.582031 Z M 61.882812 77.582031 "/>
<path style="fill:none;stroke-width:0.8;stroke-linecap:butt;stroke-linejoin:round;stroke:rgb(0%,0%,0%);stroke-opacity:1;stroke-miterlimit:4;" d="M 0 0.000619 L -3.5 0.000619 " transform="matrix(1.25,0,0,1.25,74.613281,47.928914)"/>
<path style=" stroke:none;fill-rule:nonzero;fill:rgb(0%,0%,0%);fill-opacity:1;" d="M 28.496094 51.640625 L 32.796875 51.640625 L 32.796875 52.679688 L 27.015625 52.679688 L 27.015625 51.640625 C 27.480469 51.15625 28.117188 50.507812 28.925781 49.691406 C 29.734375 48.875 30.242188 48.347656 30.449219 48.113281 C 30.84375 47.667969 31.117188 47.292969 31.273438 46.988281 C 31.433594 46.679688 31.511719 46.378906 31.511719 46.082031 C 31.511719 45.597656 31.34375 45.203125 31 44.898438 C 30.664062 44.589844 30.21875 44.4375 29.671875 44.4375 C 29.289062 44.4375 28.878906 44.503906 28.449219 44.640625 C 28.019531 44.773438 27.5625 44.976562 27.074219 45.25 L 27.074219 44.003906 C 27.570312 43.804688 28.035156 43.65625 28.464844 43.554688 C 28.898438 43.453125 29.292969 43.402344 29.648438 43.402344 C 30.59375 43.402344 31.347656 43.636719 31.90625 44.109375 C 32.46875 44.582031 32.75 45.210938 32.75 46 C 32.75 46.375 32.679688 46.730469 32.539062 47.066406 C 32.398438 47.402344 32.144531 47.796875 31.773438 48.253906 C 31.671875 48.371094 31.347656 48.710938 30.804688 49.277344 C 30.257812 49.839844 29.488281 50.628906 28.496094 51.640625 Z M 28.496094 51.640625 "/>
<path style=" stroke:none;fill-rule:nonzero;fill:rgb(0%,0%,0%);fill-opacity:1;" d="M 38.023438 44.378906 C 37.390625 44.378906 36.910156 44.691406 36.589844 45.316406 C 36.273438 45.9375 36.113281 46.878906 36.113281 48.132812 C 36.113281 49.378906 36.273438 50.316406 36.589844 50.941406 C 36.910156 51.566406 37.390625 51.878906 38.023438 51.878906 C 38.664062 51.878906 39.140625 51.566406 39.460938 50.941406 C 39.78125 50.316406 39.941406 49.378906 39.941406 48.132812 C 39.941406 46.878906 39.78125 45.9375 39.460938 45.316406 C 39.140625 44.691406 38.664062 44.378906 38.023438 44.378906 Z M 38.023438 43.402344 C 39.046875 43.402344 39.824219 43.804688 40.363281 44.613281 C 40.902344 45.421875 41.171875 46.59375 41.171875 48.132812 C 41.171875 49.664062 40.902344 50.835938 40.363281 51.644531 C 39.824219 52.453125 39.046875 52.855469 38.023438 52.855469 C 37.003906 52.855469 36.222656 52.453125 35.683594 51.644531 C 35.144531 50.835938 34.875 49.664062 34.875 48.132812 C 34.875 46.59375 35.144531 45.421875 35.683594 44.613281 C 36.222656 43.804688 37.003906 43.402344 38.023438 43.402344 Z M 38.023438 43.402344 "/>
<path style=" stroke:none;fill-rule:nonzero;fill:rgb(0%,0%,0%);fill-opacity:1;" d="M 45.976562 44.378906 C 45.34375 44.378906 44.863281 44.691406 44.542969 45.316406 C 44.226562 45.9375 44.066406 46.878906 44.066406 48.132812 C 44.066406 49.378906 44.226562 50.316406 44.542969 50.941406 C 44.863281 51.566406 45.34375 51.878906 45.976562 51.878906 C 46.617188 51.878906 47.09375 51.566406 47.414062 50.941406 C 47.734375 50.316406 47.894531 49.378906 47.894531 48.132812 C 47.894531 46.878906 47.734375 45.9375 47.414062 45.316406 C 47.09375 44.691406 46.617188 44.378906 45.976562 44.378906 Z M 45.976562 43.402344 C 47 43.402344 47.777344 43.804688 48.316406 44.613281 C 48.855469 45.421875 49.125 46.59375 49.125 48.132812 C 49.125 49.664062 48.855469 50.835938 48.316406 51.644531 C 47.777344 52.453125 47 52.855469 45.976562 52.855469 C 44.957031 52.855469 44.175781 52.453125 43.636719 51.644531 C 43.097656 50.835938 42.828125 49.664062 42.828125 48.132812 C 42.828125 46.59375 43.097656 45.421875 43.636719 44.613281 C 44.175781 43.804688 44.957031 43.402344 45.976562 43.402344 Z M 45.976562 43.402344 "/>
<path style=" stroke:none;fill-rule:nonzero;fill:rgb(0%,0%,0%);fill-opacity:1;" d="M 53.929688 44.378906 C 53.292969 44.378906 52.816406 44.691406 52.496094 45.316406 C 52.179688 45.9375 52.019531 46.878906 52.019531 48.132812 C 52.019531 49.378906 52.179688 50.316406 52.496094 50.941406 C 52.816406 51.566406 53.292969 51.878906 53.929688 51.878906 C 54.566406 51.878906 55.046875 51.566406 55.367188 50.941406 C 55.6875 50.316406 55.847656 49.378906 55.847656 48.132812 C 55.847656 46.878906 55.6875 45.9375 55.367188 45.316406 C 55.046875 44.691406 54.566406 44.378906 53.929688 44.378906 Z M 53.929688 43.402344 C 54.949219 43.402344 55.730469 43.804688 56.269531 44.613281 C 56.808594 45.421875 57.078125 46.59375 57.078125 48.132812 C 57.078125 49.664062 56.808594 50.835938 56.269531 51.644531 C 55.730469 52.453125 54.949219 52.855469 53.929688 52.855469 C 52.90625 52.855469 52.128906 52.453125 51.589844 51.644531 C 51.050781 50.835938 50.78125 49.664062 50.78125 48.132812 C 50.78125 46.59375 51.050781 45.421875 51.589844 44.613281 C 52.128906 43.804688 52.90625 43.402344 53.929688 43.402344 Z M 53.929688 43.402344 "/>
<path style=" stroke:none;fill-rule:nonzero;fill:rgb(0%,0%,0%);fill-opacity:1;" d="M 61.882812 44.378906 C 61.246094 44.378906 60.769531 44.691406 60.449219 45.316406 C 60.132812 45.9375 59.972656 46.878906 59.972656 48.132812 C 59.972656 49.378906 60.132812 50.316406 60.449219 50.941406 C 60.769531 51.566406 61.246094 51.878906 61.882812 51.878906 C 62.519531 51.878906 63 51.566406 63.320312 50.941406 C 63.640625 50.316406 63.800781 49.378906 63.800781 48.132812 C 63.800781 46.878906 63.640625 45.9375 63.320312 45.316406 C 63 44.691406 62.519531 44.378906 61.882812 44.378906 Z M 61.882812 43.402344 C 62.902344 43.402344 63.683594 43.804688 64.222656 44.613281 C 64.761719 45.421875 65.03125 46.59375 65.03125 48.132812 C 65.03125 49.664062 64.761719 50.835938 64.222656 51.644531 C 63.683594 52.453125 62.902344 52.855469 61.882812 52.855469 C 60.859375 52.855469 60.082031 52.453125 59.542969 51.644531 C 59.003906 50.835938 58.734375 49.664062 58.734375 48.132812 C 58.734375 46.59375 59.003906 45.421875 59.542969 44.613281 C 60.082031 43.804688 60.859375 43.402344 61.882812 43.402344 Z M 61.882812 43.402344 "/>
<path style="fill:none;stroke-width:0.8;stroke-linecap:butt;stroke-linejoin:round;stroke:rgb(0%,0%,0%);stroke-opacity:1;stroke-miterlimit:4;" d="M 0 0.000781 L -3.5 0.000781 " transform="matrix(1.25,0,0,1.25,74.613281,13.749024)"/>
<path style=" stroke:none;fill-rule:nonzero;fill:rgb(0%,0%,0%);fill-opacity:1;" d="M 28.496094 17.460938 L 32.796875 17.460938 L 32.796875 18.496094 L 27.015625 18.496094 L 27.015625 17.460938 C 27.480469 16.976562 28.117188 16.328125 28.925781 15.511719 C 29.734375 14.695312 30.242188 14.167969 30.449219 13.929688 C 30.84375 13.488281 31.117188 13.113281 31.273438 12.804688 C 31.433594 12.5 31.511719 12.195312 31.511719 11.898438 C 31.511719 11.414062 31.34375 11.019531 31 10.714844 C 30.664062 10.410156 30.21875 10.257812 29.671875 10.257812 C 29.289062 10.257812 28.878906 10.324219 28.449219 10.457031 C 28.019531 10.59375 27.5625 10.796875 27.074219 11.070312 L 27.074219 9.824219 C 27.570312 9.625 28.035156 9.472656 28.464844 9.371094 C 28.898438 9.269531 29.292969 9.21875 29.648438 9.21875 C 30.59375 9.21875 31.347656 9.457031 31.90625 9.929688 C 32.46875 10.402344 32.75 11.03125 32.75 11.820312 C 32.75 12.195312 32.679688 12.550781 32.539062 12.886719 C 32.398438 13.222656 32.144531 13.617188 31.773438 14.070312 C 31.671875 14.191406 31.347656 14.53125 30.804688 15.09375 C 30.257812 15.660156 29.488281 16.449219 28.496094 17.460938 Z M 28.496094 17.460938 "/>
<path style=" stroke:none;fill-rule:nonzero;fill:rgb(0%,0%,0%);fill-opacity:1;" d="M 35.398438 9.382812 L 40.238281 9.382812 L 40.238281 10.421875 L 36.527344 10.421875 L 36.527344 12.65625 C 36.707031 12.59375 36.886719 12.550781 37.0625 12.519531 C 37.242188 12.488281 37.421875 12.472656 37.601562 12.472656 C 38.621094 12.472656 39.425781 12.753906 40.019531 13.308594 C 40.613281 13.867188 40.910156 14.621094 40.910156 15.574219 C 40.910156 16.554688 40.605469 17.316406 39.996094 17.859375 C 39.386719 18.402344 38.523438 18.675781 37.414062 18.675781 C 37.03125 18.675781 36.640625 18.644531 36.242188 18.578125 C 35.847656 18.511719 35.4375 18.414062 35.015625 18.285156 L 35.015625 17.042969 C 35.382812 17.242188 35.757812 17.390625 36.148438 17.488281 C 36.539062 17.585938 36.953125 17.636719 37.386719 17.636719 C 38.09375 17.636719 38.648438 17.453125 39.058594 17.082031 C 39.472656 16.710938 39.675781 16.210938 39.675781 15.574219 C 39.675781 14.941406 39.472656 14.4375 39.058594 14.066406 C 38.648438 13.695312 38.09375 13.511719 37.386719 13.511719 C 37.058594 13.511719 36.730469 13.546875 36.402344 13.621094 C 36.074219 13.695312 35.742188 13.808594 35.398438 13.960938 Z M 35.398438 9.382812 "/>
<path style=" stroke:none;fill-rule:nonzero;fill:rgb(0%,0%,0%);fill-opacity:1;" d="M 45.976562 10.195312 C 45.34375 10.195312 44.863281 10.507812 44.542969 11.132812 C 44.226562 11.757812 44.066406 12.695312 44.066406 13.949219 C 44.066406 15.199219 44.226562 16.136719 44.542969 16.761719 C 44.863281 17.386719 45.34375 17.699219 45.976562 17.699219 C 46.617188 17.699219 47.09375 17.386719 47.414062 16.761719 C 47.734375 16.136719 47.894531 15.199219 47.894531 13.949219 C 47.894531 12.695312 47.734375 11.757812 47.414062 11.132812 C 47.09375 10.507812 46.617188 10.195312 45.976562 10.195312 Z M 45.976562 9.21875 C 47 9.21875 47.777344 9.625 48.316406 10.433594 C 48.855469 11.242188 49.125 12.414062 49.125 13.949219 C 49.125 15.484375 48.855469 16.65625 48.316406 17.464844 C 47.777344 18.273438 47 18.675781 45.976562 18.675781 C 44.957031 18.675781 44.175781 18.273438 43.636719 17.464844 C 43.097656 16.65625 42.828125 15.484375 42.828125 13.949219 C 42.828125 12.414062 43.097656 11.242188 43.636719 10.433594 C 44.175781 9.625 44.957031 9.21875 45.976562 9.21875 Z M 45.976562 9.21875 "/>
<path style=" stroke:none;fill-rule:nonzero;fill:rgb(0%,0%,0%);fill-opacity:1;" d="M 53.929688 10.195312 C 53.292969 10.195312 52.816406 10.507812 52.496094 11.132812 C 52.179688 11.757812 52.019531 12.695312 52.019531 13.949219 C 52.019531 15.199219 52.179688 16.136719 52.496094 16.761719 C 52.816406 17.386719 53.292969 17.699219 53.929688 17.699219 C 54.566406 17.699219 55.046875 17.386719 55.367188 16.761719 C 55.6875 16.136719 55.847656 15.199219 55.847656 13.949219 C 55.847656 12.695312 55.6875 11.757812 55.367188 11.132812 C 55.046875 10.507812 54.566406 10.195312 53.929688 10.195312 Z M 53.929688 9.21875 C 54.949219 9.21875 55.730469 9.625 56.269531 10.433594 C 56.808594 11.242188 57.078125 12.414062 57.078125 13.949219 C 57.078125 15.484375 56.808594 16.65625 56.269531 17.464844 C 55.730469 18.273438 54.949219 18.675781 53.929688 18.675781 C 52.90625 18.675781 52.128906 18.273438 51.589844 17.464844 C 51.050781 16.65625 50.78125 15.484375 50.78125 13.949219 C 50.78125 12.414062 51.050781 11.242188 51.589844 10.433594 C 52.128906 9.625 52.90625 9.21875 53.929688 9.21875 Z M 53.929688 9.21875 "/>
<path style=" stroke:none;fill-rule:nonzero;fill:rgb(0%,0%,0%);fill-opacity:1;" d="M 61.882812 10.195312 C 61.246094 10.195312 60.769531 10.507812 60.449219 11.132812 C 60.132812 11.757812 59.972656 12.695312 59.972656 13.949219 C 59.972656 15.199219 60.132812 16.136719 60.449219 16.761719 C 60.769531 17.386719 61.246094 17.699219 61.882812 17.699219 C 62.519531 17.699219 63 17.386719 63.320312 16.761719 C 63.640625 16.136719 63.800781 15.199219 63.800781 13.949219 C 63.800781 12.695312 63.640625 11.757812 63.320312 11.132812 C 63 10.507812 62.519531 10.195312 61.882812 10.195312 Z M 61.882812 9.21875 C 62.902344 9.21875 63.683594 9.625 64.222656 10.433594 C 64.761719 11.242188 65.03125 12.414062 65.03125 13.949219 C 65.03125 15.484375 64.761719 16.65625 64.222656 17.464844 C 63.683594 18.273438 62.902344 18.675781 61.882812 18.675781 C 60.859375 18.675781 60.082031 18.273438 59.542969 17.464844 C 59.003906 16.65625 58.734375 15.484375 58.734375 13.949219 C 58.734375 12.414062 59.003906 11.242188 59.542969 10.433594 C 60.082031 9.625 60.859375 9.21875 61.882812 9.21875 Z M 61.882812 9.21875 "/>
<path style=" stroke:none;fill-rule:nonzero;fill:rgb(0%,0%,0%);fill-opacity:1;" d="M 11.925781 109.558594 L 12.976562 109.558594 C 12.800781 109.875 12.667969 110.195312 12.582031 110.515625 C 12.492188 110.832031 12.449219 111.15625 12.449219 111.480469 C 12.449219 112.210938 12.679688 112.777344 13.144531 113.179688 C 13.605469 113.582031 14.25 113.785156 15.085938 113.785156 C 15.921875 113.785156 16.570312 113.582031 17.03125 113.179688 C 17.492188 112.777344 17.722656 112.210938 17.722656 111.480469 C 17.722656 111.15625 17.679688 110.832031 17.59375 110.515625 C 17.503906 110.195312 17.375 109.875 17.199219 109.558594 L 18.238281 109.558594 C 18.382812 109.871094 18.492188 110.199219 18.566406 110.535156 C 18.640625 110.867188 18.675781 111.226562 18.675781 111.605469 C 18.675781 112.632812 18.351562 113.453125 17.707031 114.058594 C 17.058594 114.664062 16.183594 114.96875 15.085938 114.96875 C 13.972656 114.96875 13.09375 114.660156 12.457031 114.050781 C 11.816406 113.4375 11.5 112.597656 11.5 111.53125 C 11.5 111.183594 11.535156 110.847656 11.605469 110.519531 C 11.675781 110.1875 11.78125 109.867188 11.925781 109.558594 Z M 11.925781 109.558594 "/>
<path style=" stroke:none;fill-rule:nonzero;fill:rgb(0%,0%,0%);fill-opacity:1;" d="M 12.449219 104.957031 C 12.449219 105.558594 12.683594 106.035156 13.15625 106.386719 C 13.625 106.734375 14.269531 106.910156 15.085938 106.910156 C 15.902344 106.910156 16.546875 106.738281 17.019531 106.390625 C 17.488281 106.039062 17.722656 105.5625 17.722656 104.957031 C 17.722656 104.359375 17.488281 103.882812 17.015625 103.535156 C 16.542969 103.183594 15.898438 103.011719 15.085938 103.011719 C 14.277344 103.011719 13.632812 103.183594 13.160156 103.535156 C 12.6875 103.882812 12.449219 104.359375 12.449219 104.957031 Z M 11.5 104.957031 C 11.5 103.980469 11.816406 103.214844 12.453125 102.65625 C 13.085938 102.097656 13.964844 101.820312 15.085938 101.820312 C 16.203125 101.820312 17.082031 102.097656 17.722656 102.65625 C 18.359375 103.214844 18.675781 103.980469 18.675781 104.957031 C 18.675781 105.9375 18.359375 106.707031 17.722656 107.261719 C 17.082031 107.816406 16.203125 108.09375 15.085938 108.09375 C 13.964844 108.09375 13.085938 107.816406 12.453125 107.261719 C 11.816406 106.707031 11.5 105.9375 11.5 104.957031 Z M 11.5 104.957031 "/>
<path style=" stroke:none;fill-rule:nonzero;fill:rgb(0%,0%,0%);fill-opacity:1;" d="M 15.800781 100.074219 L 11.664062 100.074219 L 11.664062 98.949219 L 15.757812 98.949219 C 16.40625 98.949219 16.890625 98.824219 17.214844 98.574219 C 17.539062 98.320312 17.699219 97.941406 17.699219 97.4375 C 17.699219 96.832031 17.507812 96.351562 17.121094 96 C 16.734375 95.648438 16.207031 95.472656 15.539062 95.472656 L 11.664062 95.472656 L 11.664062 94.347656 L 18.5 94.347656 L 18.5 95.472656 L 17.449219 95.472656 C 17.863281 95.742188 18.171875 96.058594 18.375 96.421875 C 18.574219 96.78125 18.675781 97.199219 18.675781 97.675781 C 18.675781 98.460938 18.433594 99.054688 17.945312 99.464844 C 17.457031 99.871094 16.742188 100.074219 15.800781 100.074219 Z M 11.5 97.246094 Z M 11.5 97.246094 "/>
<path style=" stroke:none;fill-rule:nonzero;fill:rgb(0%,0%,0%);fill-opacity:1;" d="M 14.371094 86.351562 L 18.5 86.351562 L 18.5 87.476562 L 14.410156 87.476562 C 13.761719 87.476562 13.277344 87.601562 12.957031 87.855469 C 12.636719 88.105469 12.476562 88.484375 12.476562 88.988281 C 12.476562 89.597656 12.667969 90.074219 13.054688 90.425781 C 13.441406 90.773438 13.96875 90.949219 14.636719 90.949219 L 18.5 90.949219 L 18.5 92.078125 L 11.664062 92.078125 L 11.664062 90.949219 L 12.726562 90.949219 C 12.3125 90.679688 12.007812 90.363281 11.804688 90 C 11.601562 89.636719 11.5 89.214844 11.5 88.738281 C 11.5 87.953125 11.742188 87.359375 12.226562 86.957031 C 12.710938 86.554688 13.425781 86.351562 14.371094 86.351562 Z M 14.371094 86.351562 "/>
<path style=" stroke:none;fill-rule:nonzero;fill:rgb(0%,0%,0%);fill-opacity:1;" d="M 9.722656 83.003906 L 11.664062 83.003906 L 11.664062 80.691406 L 12.535156 80.691406 L 12.535156 83.003906 L 16.246094 83.003906 C 16.804688 83.003906 17.160156 82.925781 17.320312 82.773438 C 17.480469 82.621094 17.558594 82.3125 17.558594 81.84375 L 17.558594 80.691406 L 18.5 80.691406 L 18.5 81.84375 C 18.5 82.710938 18.335938 83.308594 18.015625 83.636719 C 17.691406 83.964844 17.101562 84.132812 16.246094 84.132812 L 12.535156 84.132812 L 12.535156 84.957031 L 11.664062 84.957031 L 11.664062 84.132812 L 9.722656 84.132812 Z M 9.722656 83.003906 "/>
<path style="fill:none;stroke-width:0.8;stroke-linecap:square;stroke-linejoin:miter;stroke:rgb(0%,0%,0%);stroke-opacity:1;stroke-miterlimit:4;" d="M 59.690625 147.71875 L 59.690625 9.11875 " transform="matrix(1.25,0,0,1.25,0,0.000000000000014211)"/>
<path style="fill:none;stroke-width:0.8;stroke-linecap:square;stroke-linejoin:miter;stroke:rgb(0%,0%,0%);stroke-opacity:1;stroke-miterlimit:4;" d="M 254.990625 147.71875 L 254.990625 9.11875 " transform="matrix(1.25,0,0,1.25,0,0.000000000000014211)"/>
<path style="fill:none;stroke-width:0.8;stroke-linecap:square;stroke-linejoin:miter;stroke:rgb(0%,0%,0%);stroke-opacity:1;stroke-miterlimit:4;" d="M 59.690625 147.71875 L 254.990625 147.71875 " transform="matrix(1.25,0,0,1.25,0,0.000000000000014211)"/>
<path style="fill:none;stroke-width:0.8;stroke-linecap:square;stroke-linejoin:miter;stroke:rgb(0%,0%,0%);stroke-opacity:1;stroke-miterlimit:4;" d="M 59.690625 9.11875 L 254.990625 9.11875 " transform="matrix(1.25,0,0,1.25,0,0.000000000000014211)"/>
<use xlink:href="#surface25" mask="url(#mask0)"/>
<path style=" stroke:none;fill-rule:nonzero;fill:rgb(12.156863%,46.666667%,70.588235%);fill-opacity:1;" d="M 196.738281 32.148438 L 221.738281 32.148438 L 221.738281 23.398438 L 196.738281 23.398438 Z M 196.738281 32.148438 "/>
<path style=" stroke:none;fill-rule:nonzero;fill:rgb(0%,0%,0%);fill-opacity:1;" d="M 235.5625 26.097656 C 234.960938 26.097656 234.484375 26.332031 234.136719 26.804688 C 233.785156 27.273438 233.609375 27.917969 233.609375 28.734375 C 233.609375 29.550781 233.785156 30.195312 234.132812 30.667969 C 234.480469 31.136719 234.957031 31.371094 235.5625 31.371094 C 236.160156 31.371094 236.636719 31.136719 236.984375 30.664062 C 237.335938 30.191406 237.511719 29.546875 237.511719 28.734375 C 237.511719 27.925781 237.335938 27.28125 236.984375 26.808594 C 236.636719 26.335938 236.160156 26.097656 235.5625 26.097656 Z M 235.5625 25.148438 C 236.539062 25.148438 237.304688 25.464844 237.863281 26.101562 C 238.421875 26.734375 238.703125 27.613281 238.703125 28.734375 C 238.703125 29.851562 238.421875 30.730469 237.863281 31.371094 C 237.304688 32.007812 236.539062 32.324219 235.5625 32.324219 C 234.582031 32.324219 233.8125 32.007812 233.257812 31.371094 C 232.703125 30.730469 232.425781 29.851562 232.425781 28.734375 C 232.425781 27.613281 232.703125 26.734375 233.257812 26.101562 C 233.8125 25.464844 234.582031 25.148438 235.5625 25.148438 Z M 235.5625 25.148438 "/>
<path style=" stroke:none;fill-rule:nonzero;fill:rgb(0%,0%,0%);fill-opacity:1;" d="M 244.523438 26.359375 C 244.394531 26.285156 244.257812 26.234375 244.109375 26.199219 C 243.960938 26.164062 243.796875 26.148438 243.621094 26.148438 C 242.984375 26.148438 242.496094 26.351562 242.15625 26.765625 C 241.816406 27.179688 241.648438 27.773438 241.648438 28.546875 L 241.648438 32.148438 L 240.519531 32.148438 L 240.519531 25.3125 L 241.648438 25.3125 L 241.648438 26.375 C 241.882812 25.957031 242.191406 25.648438 242.570312 25.449219 C 242.949219 25.246094 243.410156 25.148438 243.949219 25.148438 C 244.027344 25.148438 244.113281 25.152344 244.207031 25.164062 C 244.300781 25.171875 244.402344 25.1875 244.515625 25.207031 Z M 244.523438 26.359375 "/>
<path style=" stroke:none;fill-rule:nonzero;fill:rgb(0%,0%,0%);fill-opacity:1;" d="M 245.699219 25.3125 L 246.824219 25.3125 L 246.824219 32.148438 L 245.699219 32.148438 Z M 245.699219 22.648438 L 246.824219 22.648438 L 246.824219 24.074219 L 245.699219 24.074219 Z M 245.699219 22.648438 "/>
<path style=" stroke:none;fill-rule:nonzero;fill:rgb(0%,0%,0%);fill-opacity:1;" d="M 253.671875 28.648438 C 253.671875 27.835938 253.503906 27.203125 253.167969 26.757812 C 252.832031 26.308594 252.363281 26.085938 251.757812 26.085938 C 251.15625 26.085938 250.6875 26.308594 250.351562 26.757812 C 250.015625 27.203125 249.847656 27.835938 249.847656 28.648438 C 249.847656 29.457031 250.015625 30.085938 250.351562 30.535156 C 250.6875 30.984375 251.15625 31.207031 251.757812 31.207031 C 252.363281 31.207031 252.832031 30.984375 253.167969 30.535156 C 253.503906 30.085938 253.671875 29.457031 253.671875 28.648438 Z M 254.796875 31.300781 C 254.796875 32.460938 254.535156 33.328125 254.019531 33.894531 C 253.503906 34.460938 252.714844 34.746094 251.648438 34.746094 C 251.253906 34.746094 250.878906 34.71875 250.53125 34.660156 C 250.179688 34.601562 249.839844 34.507812 249.511719 34.386719 L 249.511719 33.296875 C 249.839844 33.472656 250.164062 33.605469 250.488281 33.691406 C 250.808594 33.777344 251.136719 33.820312 251.46875 33.820312 C 252.207031 33.820312 252.757812 33.625 253.125 33.242188 C 253.488281 32.859375 253.671875 32.277344 253.671875 31.5 L 253.671875 30.945312 C 253.441406 31.347656 253.144531 31.648438 252.78125 31.847656 C 252.417969 32.046875 251.984375 32.148438 251.480469 32.148438 C 250.644531 32.148438 249.96875 31.828125 249.457031 31.191406 C 248.941406 30.550781 248.6875 29.703125 248.6875 28.648438 C 248.6875 27.589844 248.941406 26.742188 249.457031 26.105469 C 249.96875 25.464844 250.644531 25.148438 251.480469 25.148438 C 251.984375 25.148438 252.417969 25.246094 252.78125 25.445312 C 253.144531 25.644531 253.441406 25.945312 253.671875 26.347656 L 253.671875 25.3125 L 254.796875 25.3125 Z M 254.796875 31.300781 "/>
<path style=" stroke:none;fill-rule:nonzero;fill:rgb(0%,0%,0%);fill-opacity:1;" d="M 257.109375 25.3125 L 258.230469 25.3125 L 258.230469 32.148438 L 257.109375 32.148438 Z M 257.109375 22.648438 L 258.230469 22.648438 L 258.230469 24.074219 L 257.109375 24.074219 Z M 257.109375 22.648438 "/>
<path style=" stroke:none;fill-rule:nonzero;fill:rgb(0%,0%,0%);fill-opacity:1;" d="M 266.265625 28.019531 L 266.265625 32.148438 L 265.140625 32.148438 L 265.140625 28.058594 C 265.140625 27.410156 265.015625 26.925781 264.761719 26.605469 C 264.511719 26.285156 264.132812 26.125 263.628906 26.125 C 263.019531 26.125 262.542969 26.316406 262.191406 26.703125 C 261.84375 27.089844 261.667969 27.617188 261.667969 28.285156 L 261.667969 32.148438 L 260.539062 32.148438 L 260.539062 25.3125 L 261.667969 25.3125 L 261.667969 26.375 C 261.9375 25.960938 262.253906 25.65625 262.617188 25.453125 C 262.980469 25.25 263.402344 25.148438 263.878906 25.148438 C 264.664062 25.148438 265.257812 25.390625 265.660156 25.875 C 266.0625 26.359375 266.265625 27.074219 266.265625 28.019531 Z M 266.265625 28.019531 "/>
<path style=" stroke:none;fill-rule:nonzero;fill:url(#pattern5);" d="M 196.738281 50.496094 L 221.738281 50.496094 L 221.738281 41.746094 L 196.738281 41.746094 Z M 196.738281 50.496094 "/>
<path style=" stroke:none;fill-rule:nonzero;fill:rgb(0%,0%,0%);fill-opacity:1;" d="M 237.273438 43.859375 L 237.273438 44.921875 C 236.957031 44.757812 236.625 44.636719 236.285156 44.558594 C 235.941406 44.476562 235.589844 44.433594 235.222656 44.433594 C 234.664062 44.433594 234.246094 44.519531 233.96875 44.691406 C 233.6875 44.859375 233.550781 45.117188 233.550781 45.460938 C 233.550781 45.71875 233.648438 45.925781 233.847656 46.074219 C 234.046875 46.222656 234.449219 46.363281 235.050781 46.496094 L 235.4375 46.582031 C 236.234375 46.753906 236.800781 46.992188 237.136719 47.304688 C 237.472656 47.617188 237.640625 48.050781 237.640625 48.609375 C 237.640625 49.242188 237.386719 49.746094 236.886719 50.117188 C 236.382812 50.488281 235.691406 50.671875 234.8125 50.671875 C 234.445312 50.671875 234.066406 50.636719 233.667969 50.566406 C 233.269531 50.492188 232.851562 50.386719 232.414062 50.246094 L 232.414062 49.085938 C 232.828125 49.300781 233.238281 49.460938 233.640625 49.570312 C 234.042969 49.675781 234.441406 49.730469 234.839844 49.730469 C 235.367188 49.730469 235.773438 49.640625 236.058594 49.460938 C 236.34375 49.277344 236.484375 49.023438 236.484375 48.695312 C 236.484375 48.390625 236.382812 48.15625 236.175781 47.992188 C 235.972656 47.828125 235.519531 47.671875 234.824219 47.523438 L 234.433594 47.429688 C 233.738281 47.285156 233.234375 47.058594 232.925781 46.757812 C 232.617188 46.453125 232.464844 46.035156 232.464844 45.507812 C 232.464844 44.863281 232.691406 44.367188 233.148438 44.019531 C 233.601562 43.667969 234.25 43.496094 235.089844 43.496094 C 235.503906 43.496094 235.890625 43.523438 236.257812 43.585938 C 236.625 43.644531 236.964844 43.738281 237.273438 43.859375 Z M 237.273438 43.859375 "/>
<path style=" stroke:none;fill-rule:nonzero;fill:rgb(0%,0%,0%);fill-opacity:1;" d="M 239.3125 47.796875 L 239.3125 43.660156 L 240.433594 43.660156 L 240.433594 47.753906 C 240.433594 48.402344 240.558594 48.886719 240.8125 49.210938 C 241.0625 49.535156 241.441406 49.695312 241.949219 49.695312 C 242.554688 49.695312 243.03125 49.503906 243.382812 49.117188 C 243.738281 48.730469 243.914062 48.203125 243.914062 47.535156 L 243.914062 43.660156 L 245.035156 43.660156 L 245.035156 50.496094 L 243.914062 50.496094 L 243.914062 49.445312 C 243.640625 49.859375 243.324219 50.167969 242.964844 50.371094 C 242.605469 50.570312 242.1875 50.671875 241.710938 50.671875 C 240.925781 50.671875 240.328125 50.429688 239.921875 49.941406 C 239.515625 49.453125 239.3125 48.738281 239.3125 47.796875 Z M 242.136719 43.496094 Z M 242.136719 43.496094 "/>
<path style=" stroke:none;fill-rule:nonzero;fill:rgb(0%,0%,0%);fill-opacity:1;" d="M 252.257812 47.082031 C 252.257812 46.257812 252.085938 45.609375 251.746094 45.140625 C 251.40625 44.667969 250.941406 44.433594 250.347656 44.433594 C 249.75 44.433594 249.285156 44.667969 248.945312 45.140625 C 248.605469 45.609375 248.433594 46.257812 248.433594 47.082031 C 248.433594 47.90625 248.605469 48.554688 248.945312 49.027344 C 249.285156 49.496094 249.75 49.730469 250.347656 49.730469 C 250.941406 49.730469 251.40625 49.496094 251.746094 49.027344 C 252.085938 48.554688 252.257812 47.90625 252.257812 47.082031 Z M 248.433594 44.695312 C 248.671875 44.289062 248.96875 43.988281 249.328125 43.792969 C 249.691406 43.59375 250.121094 43.496094 250.621094 43.496094 C 251.449219 43.496094 252.125 43.824219 252.644531 44.484375 C 253.164062 45.140625 253.421875 46.007812 253.421875 47.082031 C 253.421875 48.15625 253.164062 49.023438 252.644531 49.683594 C 252.125 50.34375 251.449219 50.671875 250.621094 50.671875 C 250.121094 50.671875 249.691406 50.574219 249.328125 50.375 C 248.96875 50.175781 248.671875 49.875 248.433594 49.46875 L 248.433594 50.496094 L 247.304688 50.496094 L 247.304688 40.996094 L 248.433594 40.996094 Z M 248.433594 44.695312 "/>
<path style=" stroke:none;fill-rule:nonzero;fill:rgb(0%,0%,0%);fill-opacity:1;" d="M 259.640625 43.859375 L 259.640625 44.921875 C 259.324219 44.757812 258.996094 44.636719 258.652344 44.558594 C 258.3125 44.476562 257.957031 44.433594 257.589844 44.433594 C 257.03125 44.433594 256.613281 44.519531 256.335938 44.691406 C 256.058594 44.859375 255.917969 45.117188 255.917969 45.460938 C 255.917969 45.71875 256.019531 45.925781 256.21875 46.074219 C 256.417969 46.222656 256.816406 46.363281 257.421875 46.496094 L 257.804688 46.582031 C 258.601562 46.753906 259.167969 46.992188 259.503906 47.304688 C 259.839844 47.617188 260.007812 48.050781 260.007812 48.609375 C 260.007812 49.242188 259.757812 49.746094 259.253906 50.117188 C 258.75 50.488281 258.0625 50.671875 257.183594 50.671875 C 256.816406 50.671875 256.433594 50.636719 256.039062 50.566406 C 255.640625 50.492188 255.222656 50.386719 254.785156 50.246094 L 254.785156 49.085938 C 255.199219 49.300781 255.609375 49.460938 256.011719 49.570312 C 256.414062 49.675781 256.8125 49.730469 257.207031 49.730469 C 257.734375 49.730469 258.140625 49.640625 258.425781 49.460938 C 258.710938 49.277344 258.855469 49.023438 258.855469 48.695312 C 258.855469 48.390625 258.75 48.15625 258.546875 47.992188 C 258.339844 47.828125 257.890625 47.671875 257.195312 47.523438 L 256.804688 47.429688 C 256.109375 47.285156 255.605469 47.058594 255.296875 46.757812 C 254.988281 46.453125 254.832031 46.035156 254.832031 45.507812 C 254.832031 44.863281 255.058594 44.367188 255.515625 44.019531 C 255.972656 43.667969 256.617188 43.496094 257.457031 43.496094 C 257.871094 43.496094 258.261719 43.523438 258.628906 43.585938 C 258.996094 43.644531 259.332031 43.738281 259.640625 43.859375 Z M 259.640625 43.859375 "/>
<path style=" stroke:none;fill-rule:nonzero;fill:rgb(0%,0%,0%);fill-opacity:1;" d="M 264.902344 47.058594 C 263.996094 47.058594 263.367188 47.164062 263.015625 47.371094 C 262.667969 47.578125 262.492188 47.929688 262.492188 48.433594 C 262.492188 48.832031 262.621094 49.148438 262.886719 49.382812 C 263.148438 49.613281 263.503906 49.730469 263.957031 49.730469 C 264.578125 49.730469 265.078125 49.511719 265.457031 49.070312 C 265.832031 48.628906 266.019531 48.039062 266.019531 47.308594 L 266.019531 47.058594 Z M 267.144531 46.59375 L 267.144531 50.496094 L 266.019531 50.496094 L 266.019531 49.457031 C 265.765625 49.871094 265.445312 50.175781 265.0625 50.375 C 264.679688 50.574219 264.210938 50.671875 263.65625 50.671875 C 262.957031 50.671875 262.402344 50.476562 261.988281 50.082031 C 261.574219 49.6875 261.367188 49.164062 261.367188 48.503906 C 261.367188 47.734375 261.625 47.15625 262.140625 46.765625 C 262.65625 46.375 263.421875 46.179688 264.445312 46.179688 L 266.019531 46.179688 L 266.019531 46.070312 C 266.019531 45.550781 265.851562 45.152344 265.511719 44.871094 C 265.171875 44.585938 264.695312 44.445312 264.078125 44.445312 C 263.6875 44.445312 263.308594 44.492188 262.9375 44.585938 C 262.566406 44.679688 262.210938 44.820312 261.871094 45.007812 L 261.871094 43.96875 C 262.28125 43.808594 262.679688 43.691406 263.066406 43.613281 C 263.453125 43.535156 263.828125 43.496094 264.195312 43.496094 C 265.183594 43.496094 265.921875 43.75 266.410156 44.265625 C 266.898438 44.777344 267.144531 45.550781 267.144531 46.59375 Z M 267.144531 46.59375 "/>
<path style=" stroke:none;fill-rule:nonzero;fill:rgb(0%,0%,0%);fill-opacity:1;" d="M 274.777344 44.972656 C 275.058594 44.464844 275.394531 44.09375 275.785156 43.855469 C 276.175781 43.613281 276.636719 43.496094 277.164062 43.496094 C 277.878906 43.496094 278.425781 43.742188 278.8125 44.242188 C 279.199219 44.738281 279.394531 45.449219 279.394531 46.367188 L 279.394531 50.496094 L 278.265625 50.496094 L 278.265625 46.40625 C 278.265625 45.75 278.148438 45.265625 277.914062 44.949219 C 277.683594 44.628906 277.328125 44.472656 276.855469 44.472656 C 276.273438 44.472656 275.8125 44.664062 275.472656 45.050781 C 275.136719 45.4375 274.96875 45.964844 274.96875 46.632812 L 274.96875 50.496094 L 273.839844 50.496094 L 273.839844 46.40625 C 273.839844 45.746094 273.722656 45.257812 273.492188 44.945312 C 273.257812 44.628906 272.902344 44.472656 272.417969 44.472656 C 271.84375 44.472656 271.386719 44.664062 271.046875 45.054688 C 270.710938 45.441406 270.542969 45.96875 270.542969 46.632812 L 270.542969 50.496094 L 269.414062 50.496094 L 269.414062 43.660156 L 270.542969 43.660156 L 270.542969 44.722656 C 270.796875 44.300781 271.105469 43.992188 271.464844 43.792969 C 271.820312 43.59375 272.246094 43.496094 272.738281 43.496094 C 273.238281 43.496094 273.660156 43.621094 274.007812 43.875 C 274.355469 44.125 274.613281 44.492188 274.777344 44.972656 Z M 274.777344 44.972656 "/>
<path style=" stroke:none;fill-rule:nonzero;fill:rgb(0%,0%,0%);fill-opacity:1;" d="M 282.71875 49.46875 L 282.71875 53.09375 L 281.589844 53.09375 L 281.589844 43.660156 L 282.71875 43.660156 L 282.71875 44.695312 C 282.957031 44.289062 283.253906 43.988281 283.613281 43.792969 C 283.972656 43.59375 284.402344 43.496094 284.902344 43.496094 C 285.734375 43.496094 286.410156 43.824219 286.925781 44.484375 C 287.445312 45.140625 287.707031 46.007812 287.707031 47.082031 C 287.707031 48.15625 287.445312 49.023438 286.925781 49.683594 C 286.410156 50.34375 285.734375 50.671875 284.902344 50.671875 C 284.402344 50.671875 283.972656 50.574219 283.613281 50.375 C 283.253906 50.175781 282.957031 49.875 282.71875 49.46875 Z M 286.539062 47.082031 C 286.539062 46.257812 286.371094 45.609375 286.03125 45.140625 C 285.691406 44.667969 285.222656 44.433594 284.628906 44.433594 C 284.035156 44.433594 283.566406 44.667969 283.226562 45.140625 C 282.886719 45.609375 282.71875 46.257812 282.71875 47.082031 C 282.71875 47.90625 282.886719 48.554688 283.226562 49.027344 C 283.566406 49.496094 284.035156 49.730469 284.628906 49.730469 C 285.222656 49.730469 285.691406 49.496094 286.03125 49.027344 C 286.371094 48.554688 286.539062 47.90625 286.539062 47.082031 Z M 286.539062 47.082031 "/>
<path style=" stroke:none;fill-rule:nonzero;fill:rgb(0%,0%,0%);fill-opacity:1;" d="M 289.566406 40.996094 L 290.691406 40.996094 L 290.691406 50.496094 L 289.566406 50.496094 Z M 289.566406 40.996094 "/>
<path style=" stroke:none;fill-rule:nonzero;fill:rgb(0%,0%,0%);fill-opacity:1;" d="M 298.886719 46.796875 L 298.886719 47.34375 L 293.722656 47.34375 C 293.773438 48.117188 294.007812 48.707031 294.421875 49.113281 C 294.839844 49.515625 295.421875 49.71875 296.164062 49.71875 C 296.597656 49.71875 297.015625 49.667969 297.417969 49.5625 C 297.824219 49.457031 298.226562 49.296875 298.625 49.085938 L 298.625 50.148438 C 298.222656 50.316406 297.808594 50.449219 297.386719 50.539062 C 296.960938 50.628906 296.535156 50.671875 296.097656 50.671875 C 295.007812 50.671875 294.144531 50.355469 293.507812 49.722656 C 292.871094 49.085938 292.550781 48.226562 292.550781 47.144531 C 292.550781 46.023438 292.855469 45.136719 293.457031 44.480469 C 294.0625 43.824219 294.878906 43.496094 295.902344 43.496094 C 296.824219 43.496094 297.550781 43.789062 298.085938 44.382812 C 298.621094 44.972656 298.886719 45.777344 298.886719 46.796875 Z M 297.765625 46.464844 C 297.757812 45.851562 297.585938 45.363281 297.25 44.996094 C 296.914062 44.628906 296.46875 44.445312 295.914062 44.445312 C 295.289062 44.445312 294.789062 44.621094 294.410156 44.976562 C 294.035156 45.332031 293.816406 45.828125 293.761719 46.472656 Z M 297.765625 46.464844 "/>
<path style=" stroke:none;fill-rule:nonzero;fill:rgb(0%,0%,0%);fill-opacity:1;" d="M 305.226562 44.695312 L 305.226562 40.996094 L 306.351562 40.996094 L 306.351562 50.496094 L 305.226562 50.496094 L 305.226562 49.46875 C 304.992188 49.875 304.695312 50.175781 304.332031 50.375 C 303.972656 50.574219 303.542969 50.671875 303.035156 50.671875 C 302.210938 50.671875 301.539062 50.34375 301.019531 49.683594 C 300.5 49.023438 300.242188 48.15625 300.242188 47.082031 C 300.242188 46.007812 300.5 45.140625 301.019531 44.484375 C 301.539062 43.824219 302.210938 43.496094 303.035156 43.496094 C 303.542969 43.496094 303.972656 43.59375 304.332031 43.792969 C 304.695312 43.988281 304.992188 44.289062 305.226562 44.695312 Z M 301.402344 47.082031 C 301.402344 47.90625 301.570312 48.554688 301.910156 49.027344 C 302.25 49.496094 302.71875 49.730469 303.3125 49.730469 C 303.90625 49.730469 304.375 49.496094 304.714844 49.027344 C 305.058594 48.554688 305.226562 47.90625 305.226562 47.082031 C 305.226562 46.257812 305.058594 45.609375 304.714844 45.140625 C 304.375 44.667969 303.90625 44.433594 303.3125 44.433594 C 302.71875 44.433594 302.25 44.667969 301.910156 45.140625 C 301.570312 45.609375 301.402344 46.257812 301.402344 47.082031 Z M 301.402344 47.082031 "/>
</g>
</svg>
