<?xml version="1.0" encoding="UTF-8"?>
<svg xmlns="http://www.w3.org/2000/svg" xmlns:xlink="http://www.w3.org/1999/xlink" width="328pt" height="229pt" viewBox="0 0 328 229" version="1.1">
<defs>
<clipPath id="clip1">
  <path d="M 113 9 L 115 9 L 115 182.25 L 113 182.25 Z M 113 9 "/>
</clipPath>
<clipPath id="clip2">
  <path d="M 177 9 L 180 9 L 180 182.25 L 177 182.25 Z M 177 9 "/>
</clipPath>
<clipPath id="clip3">
  <path d="M 241 9 L 244 9 L 244 182.25 L 241 182.25 Z M 241 9 "/>
</clipPath>
<clipPath id="clip4">
  <path d="M 306 9 L 306.804688 9 L 306.804688 182.25 L 306 182.25 Z M 306 9 "/>
</clipPath>
<clipPath id="clip5">
  <path d="M 62.679688 155 L 306.804688 155 L 306.804688 157 L 62.679688 157 Z M 62.679688 155 "/>
</clipPath>
<clipPath id="clip6">
  <path d="M 62.679688 104 L 306.804688 104 L 306.804688 106 L 62.679688 106 Z M 62.679688 104 "/>
</clipPath>
<clipPath id="clip7">
  <path d="M 62.679688 53 L 306.804688 53 L 306.804688 55 L 62.679688 55 Z M 62.679688 53 "/>
</clipPath>
<clipPath id="clip8">
  <path d="M 62.679688 15 L 306.804688 15 L 306.804688 176 L 62.679688 176 Z M 62.679688 15 "/>
</clipPath>
</defs>
<g id="surface1">
<path style=" stroke:none;fill-rule:nonzero;fill:rgb(100%,100%,100%);fill-opacity:1;" d="M 0 229.195312 L 327.734375 229.195312 L 327.734375 0 L 0 0 Z M 0 229.195312 "/>
<path style=" stroke:none;fill-rule:nonzero;fill:rgb(100%,100%,100%);fill-opacity:1;" d="M 62.679688 182.25 L 306.804688 182.25 L 306.804688 9 L 62.679688 9 Z M 62.679688 182.25 "/>
<g clip-path="url(#clip1)" clip-rule="nonzero">
<path style="fill:none;stroke-width:0.8;stroke-linecap:square;stroke-linejoin:round;stroke:rgb(69.019608%,69.019608%,69.019608%);stroke-opacity:1;stroke-miterlimit:4;" d="M 91.259375 145.8 L 91.259375 7.2 " transform="matrix(1.25,0,0,1.25,0,0)"/>
</g>
<path style="fill:none;stroke-width:0.8;stroke-linecap:butt;stroke-linejoin:round;stroke:rgb(0%,0%,0%);stroke-opacity:1;stroke-miterlimit:4;" d="M -0.000164 0 L -0.000164 3.5 " transform="matrix(1.25,0,0,1.25,114.074424,182.25)"/>
<path style=" stroke:none;fill-rule:nonzero;fill:rgb(0%,0%,0%);fill-opacity:1;" d="M 107.472656 191.386719 L 112.3125 191.386719 L 112.3125 192.425781 L 108.601562 192.425781 L 108.601562 194.65625 C 108.777344 194.59375 108.957031 194.550781 109.136719 194.519531 C 109.316406 194.488281 109.496094 194.476562 109.675781 194.476562 C 110.691406 194.476562 111.496094 194.753906 112.089844 195.3125 C 112.683594 195.867188 112.984375 196.621094 112.984375 197.574219 C 112.984375 198.554688 112.675781 199.316406 112.066406 199.863281 C 111.457031 200.40625 110.59375 200.675781 109.484375 200.675781 C 109.101562 200.675781 108.710938 200.644531 108.316406 200.578125 C 107.917969 200.511719 107.507812 200.414062 107.085938 200.285156 L 107.085938 199.046875 C 107.453125 199.246094 107.832031 199.394531 108.222656 199.492188 C 108.613281 199.589844 109.023438 199.636719 109.460938 199.636719 C 110.164062 199.636719 110.722656 199.453125 111.132812 199.082031 C 111.542969 198.710938 111.75 198.210938 111.75 197.574219 C 111.75 196.941406 111.542969 196.4375 111.132812 196.070312 C 110.722656 195.699219 110.164062 195.511719 109.460938 195.511719 C 109.128906 195.511719 108.800781 195.546875 108.472656 195.621094 C 108.144531 195.695312 107.8125 195.808594 107.472656 195.964844 Z M 107.472656 191.386719 "/>
<path style=" stroke:none;fill-rule:nonzero;fill:rgb(0%,0%,0%);fill-opacity:1;" d="M 118.046875 192.199219 C 117.414062 192.199219 116.933594 192.511719 116.613281 193.136719 C 116.296875 193.757812 116.136719 194.699219 116.136719 195.953125 C 116.136719 197.199219 116.296875 198.136719 116.613281 198.761719 C 116.933594 199.386719 117.414062 199.699219 118.046875 199.699219 C 118.6875 199.699219 119.164062 199.386719 119.484375 198.761719 C 119.804688 198.136719 119.964844 197.199219 119.964844 195.953125 C 119.964844 194.699219 119.804688 193.757812 119.484375 193.136719 C 119.164062 192.511719 118.6875 192.199219 118.046875 192.199219 Z M 118.046875 191.222656 C 119.070312 191.222656 119.847656 191.625 120.386719 192.433594 C 120.925781 193.242188 121.195312 194.414062 121.195312 195.953125 C 121.195312 197.484375 120.925781 198.65625 120.386719 199.464844 C 119.847656 200.273438 119.070312 200.675781 118.046875 200.675781 C 117.027344 200.675781 116.246094 200.273438 115.707031 199.464844 C 115.167969 198.65625 114.898438 197.484375 114.898438 195.953125 C 114.898438 194.414062 115.167969 193.242188 115.707031 192.433594 C 116.246094 191.625 117.027344 191.222656 118.046875 191.222656 Z M 118.046875 191.222656 "/>
<g clip-path="url(#clip2)" clip-rule="nonzero">
<path style="fill:none;stroke-width:0.8;stroke-linecap:square;stroke-linejoin:round;stroke:rgb(69.019608%,69.019608%,69.019608%);stroke-opacity:1;stroke-miterlimit:4;" d="M 142.653125 145.8 L 142.653125 7.2 " transform="matrix(1.25,0,0,1.25,0,0)"/>
</g>
<path style="fill:none;stroke-width:0.8;stroke-linecap:butt;stroke-linejoin:round;stroke:rgb(0%,0%,0%);stroke-opacity:1;stroke-miterlimit:4;" d="M -0.001151 0 L -0.001151 3.5 " transform="matrix(1.25,0,0,1.25,178.317845,182.25)"/>
<path style=" stroke:none;fill-rule:nonzero;fill:rgb(0%,0%,0%);fill-opacity:1;" d="M 167.9375 199.460938 L 169.953125 199.460938 L 169.953125 192.507812 L 167.761719 192.949219 L 167.761719 191.824219 L 169.941406 191.386719 L 171.171875 191.386719 L 171.171875 199.460938 L 173.1875 199.460938 L 173.1875 200.5 L 167.9375 200.5 Z M 167.9375 199.460938 "/>
<path style=" stroke:none;fill-rule:nonzero;fill:rgb(0%,0%,0%);fill-opacity:1;" d="M 178.3125 192.199219 C 177.679688 192.199219 177.203125 192.511719 176.882812 193.136719 C 176.5625 193.757812 176.402344 194.699219 176.402344 195.953125 C 176.402344 197.199219 176.5625 198.136719 176.882812 198.761719 C 177.203125 199.386719 177.679688 199.699219 178.3125 199.699219 C 178.953125 199.699219 179.433594 199.386719 179.75 198.761719 C 180.070312 198.136719 180.230469 197.199219 180.230469 195.953125 C 180.230469 194.699219 180.070312 193.757812 179.75 193.136719 C 179.433594 192.511719 178.953125 192.199219 178.3125 192.199219 Z M 178.3125 191.222656 C 179.335938 191.222656 180.117188 191.625 180.65625 192.433594 C 181.195312 193.242188 181.464844 194.414062 181.464844 195.953125 C 181.464844 197.484375 181.195312 198.65625 180.65625 199.464844 C 180.117188 200.273438 179.335938 200.675781 178.3125 200.675781 C 177.292969 200.675781 176.511719 200.273438 175.972656 199.464844 C 175.433594 198.65625 175.164062 197.484375 175.164062 195.953125 C 175.164062 194.414062 175.433594 193.242188 175.972656 192.433594 C 176.511719 191.625 177.292969 191.222656 178.3125 191.222656 Z M 178.3125 191.222656 "/>
<path style=" stroke:none;fill-rule:nonzero;fill:rgb(0%,0%,0%);fill-opacity:1;" d="M 186.265625 192.199219 C 185.632812 192.199219 185.15625 192.511719 184.835938 193.136719 C 184.515625 193.757812 184.355469 194.699219 184.355469 195.953125 C 184.355469 197.199219 184.515625 198.136719 184.835938 198.761719 C 185.15625 199.386719 185.632812 199.699219 186.265625 199.699219 C 186.90625 199.699219 187.386719 199.386719 187.703125 198.761719 C 188.023438 198.136719 188.183594 197.199219 188.183594 195.953125 C 188.183594 194.699219 188.023438 193.757812 187.703125 193.136719 C 187.386719 192.511719 186.90625 192.199219 186.265625 192.199219 Z M 186.265625 191.222656 C 187.289062 191.222656 188.070312 191.625 188.609375 192.433594 C 189.148438 193.242188 189.417969 194.414062 189.417969 195.953125 C 189.417969 197.484375 189.148438 198.65625 188.609375 199.464844 C 188.070312 200.273438 187.289062 200.675781 186.265625 200.675781 C 185.246094 200.675781 184.464844 200.273438 183.925781 199.464844 C 183.386719 198.65625 183.117188 197.484375 183.117188 195.953125 C 183.117188 194.414062 183.386719 193.242188 183.925781 192.433594 C 184.464844 191.625 185.246094 191.222656 186.265625 191.222656 Z M 186.265625 191.222656 "/>
<g clip-path="url(#clip3)" clip-rule="nonzero">
<path style="fill:none;stroke-width:0.8;stroke-linecap:square;stroke-linejoin:round;stroke:rgb(69.019608%,69.019608%,69.019608%);stroke-opacity:1;stroke-miterlimit:4;" d="M 194.05 145.8 L 194.05 7.2 " transform="matrix(1.25,0,0,1.25,0,0)"/>
</g>
<path style="fill:none;stroke-width:0.8;stroke-linecap:butt;stroke-linejoin:round;stroke:rgb(0%,0%,0%);stroke-opacity:1;stroke-miterlimit:4;" d="M 0.000987 0 L 0.000987 3.5 " transform="matrix(1.25,0,0,1.25,242.561266,182.25)"/>
<path style=" stroke:none;fill-rule:nonzero;fill:rgb(0%,0%,0%);fill-opacity:1;" d="M 232.183594 199.460938 L 234.195312 199.460938 L 234.195312 192.507812 L 232.003906 192.949219 L 232.003906 191.824219 L 234.183594 191.386719 L 235.417969 191.386719 L 235.417969 199.460938 L 237.429688 199.460938 L 237.429688 200.5 L 232.183594 200.5 Z M 232.183594 199.460938 "/>
<path style=" stroke:none;fill-rule:nonzero;fill:rgb(0%,0%,0%);fill-opacity:1;" d="M 239.933594 191.386719 L 244.773438 191.386719 L 244.773438 192.425781 L 241.0625 192.425781 L 241.0625 194.65625 C 241.242188 194.59375 241.417969 194.550781 241.597656 194.519531 C 241.777344 194.488281 241.957031 194.476562 242.136719 194.476562 C 243.152344 194.476562 243.960938 194.753906 244.554688 195.3125 C 245.148438 195.867188 245.445312 196.621094 245.445312 197.574219 C 245.445312 198.554688 245.140625 199.316406 244.53125 199.863281 C 243.917969 200.40625 243.058594 200.675781 241.949219 200.675781 C 241.566406 200.675781 241.175781 200.644531 240.777344 200.578125 C 240.382812 200.511719 239.972656 200.414062 239.550781 200.285156 L 239.550781 199.046875 C 239.914062 199.246094 240.292969 199.394531 240.683594 199.492188 C 241.074219 199.589844 241.488281 199.636719 241.921875 199.636719 C 242.625 199.636719 243.183594 199.453125 243.59375 199.082031 C 244.003906 198.710938 244.210938 198.210938 244.210938 197.574219 C 244.210938 196.941406 244.003906 196.4375 243.59375 196.070312 C 243.183594 195.699219 242.625 195.511719 241.921875 195.511719 C 241.59375 195.511719 241.265625 195.546875 240.9375 195.621094 C 240.609375 195.695312 240.273438 195.808594 239.933594 195.964844 Z M 239.933594 191.386719 "/>
<path style=" stroke:none;fill-rule:nonzero;fill:rgb(0%,0%,0%);fill-opacity:1;" d="M 250.511719 192.199219 C 249.875 192.199219 249.398438 192.511719 249.078125 193.136719 C 248.757812 193.757812 248.601562 194.699219 248.601562 195.953125 C 248.601562 197.199219 248.757812 198.136719 249.078125 198.761719 C 249.398438 199.386719 249.875 199.699219 250.511719 199.699219 C 251.148438 199.699219 251.628906 199.386719 251.949219 198.761719 C 252.269531 198.136719 252.429688 197.199219 252.429688 195.953125 C 252.429688 194.699219 252.269531 193.757812 251.949219 193.136719 C 251.628906 192.511719 251.148438 192.199219 250.511719 192.199219 Z M 250.511719 191.222656 C 251.53125 191.222656 252.3125 191.625 252.851562 192.433594 C 253.390625 193.242188 253.660156 194.414062 253.660156 195.953125 C 253.660156 197.484375 253.390625 198.65625 252.851562 199.464844 C 252.3125 200.273438 251.53125 200.675781 250.511719 200.675781 C 249.488281 200.675781 248.710938 200.273438 248.171875 199.464844 C 247.632812 198.65625 247.363281 197.484375 247.363281 195.953125 C 247.363281 194.414062 247.632812 193.242188 248.171875 192.433594 C 248.710938 191.625 249.488281 191.222656 250.511719 191.222656 Z M 250.511719 191.222656 "/>
<g clip-path="url(#clip4)" clip-rule="nonzero">
<path style="fill:none;stroke-width:0.8;stroke-linecap:square;stroke-linejoin:round;stroke:rgb(69.019608%,69.019608%,69.019608%);stroke-opacity:1;stroke-miterlimit:4;" d="M 245.44375 145.8 L 245.44375 7.2 " transform="matrix(1.25,0,0,1.25,0,0)"/>
</g>
<path style="fill:none;stroke-width:0.8;stroke-linecap:butt;stroke-linejoin:round;stroke:rgb(0%,0%,0%);stroke-opacity:1;stroke-miterlimit:4;" d="M 0 0 L 0 3.5 " transform="matrix(1.25,0,0,1.25,306.804688,182.25)"/>
<path style=" stroke:none;fill-rule:nonzero;fill:rgb(0%,0%,0%);fill-opacity:1;" d="M 297.273438 199.460938 L 301.578125 199.460938 L 301.578125 200.5 L 295.789062 200.5 L 295.789062 199.460938 C 296.257812 198.976562 296.894531 198.328125 297.703125 197.511719 C 298.511719 196.695312 299.019531 196.167969 299.226562 195.933594 C 299.621094 195.488281 299.898438 195.113281 300.054688 194.808594 C 300.210938 194.5 300.289062 194.199219 300.289062 193.902344 C 300.289062 193.417969 300.117188 193.023438 299.78125 192.71875 C 299.4375 192.410156 298.996094 192.257812 298.453125 192.257812 C 298.0625 192.257812 297.65625 192.324219 297.226562 192.460938 C 296.796875 192.59375 296.339844 192.796875 295.851562 193.070312 L 295.851562 191.824219 C 296.347656 191.625 296.8125 191.476562 297.242188 191.375 C 297.675781 191.273438 298.070312 191.222656 298.429688 191.222656 C 299.371094 191.222656 300.125 191.457031 300.6875 191.929688 C 301.246094 192.402344 301.527344 193.03125 301.527344 193.820312 C 301.527344 194.195312 301.457031 194.550781 301.316406 194.886719 C 301.175781 195.222656 300.921875 195.617188 300.550781 196.074219 C 300.449219 196.191406 300.125 196.53125 299.578125 197.097656 C 299.035156 197.660156 298.265625 198.449219 297.273438 199.460938 Z M 297.273438 199.460938 "/>
<path style=" stroke:none;fill-rule:nonzero;fill:rgb(0%,0%,0%);fill-opacity:1;" d="M 306.800781 192.199219 C 306.167969 192.199219 305.6875 192.511719 305.367188 193.136719 C 305.050781 193.757812 304.890625 194.699219 304.890625 195.953125 C 304.890625 197.199219 305.050781 198.136719 305.367188 198.761719 C 305.6875 199.386719 306.167969 199.699219 306.800781 199.699219 C 307.441406 199.699219 307.917969 199.386719 308.238281 198.761719 C 308.558594 198.136719 308.71875 197.199219 308.71875 195.953125 C 308.71875 194.699219 308.558594 193.757812 308.238281 193.136719 C 307.917969 192.511719 307.441406 192.199219 306.800781 192.199219 Z M 306.800781 191.222656 C 307.824219 191.222656 308.601562 191.625 309.140625 192.433594 C 309.679688 193.242188 309.949219 194.414062 309.949219 195.953125 C 309.949219 197.484375 309.679688 198.65625 309.140625 199.464844 C 308.601562 200.273438 307.824219 200.675781 306.800781 200.675781 C 305.78125 200.675781 305 200.273438 304.460938 199.464844 C 303.921875 198.65625 303.652344 197.484375 303.652344 195.953125 C 303.652344 194.414062 303.921875 193.242188 304.460938 192.433594 C 305 191.625 305.78125 191.222656 306.800781 191.222656 Z M 306.800781 191.222656 "/>
<path style=" stroke:none;fill-rule:nonzero;fill:rgb(0%,0%,0%);fill-opacity:1;" d="M 314.753906 192.199219 C 314.121094 192.199219 313.640625 192.511719 313.320312 193.136719 C 313.003906 193.757812 312.84375 194.699219 312.84375 195.953125 C 312.84375 197.199219 313.003906 198.136719 313.320312 198.761719 C 313.640625 199.386719 314.121094 199.699219 314.753906 199.699219 C 315.394531 199.699219 315.871094 199.386719 316.191406 198.761719 C 316.511719 198.136719 316.671875 197.199219 316.671875 195.953125 C 316.671875 194.699219 316.511719 193.757812 316.191406 193.136719 C 315.871094 192.511719 315.394531 192.199219 314.753906 192.199219 Z M 314.753906 191.222656 C 315.777344 191.222656 316.554688 191.625 317.09375 192.433594 C 317.632812 193.242188 317.902344 194.414062 317.902344 195.953125 C 317.902344 197.484375 317.632812 198.65625 317.09375 199.464844 C 316.554688 200.273438 315.777344 200.675781 314.753906 200.675781 C 313.734375 200.675781 312.953125 200.273438 312.414062 199.464844 C 311.875 198.65625 311.605469 197.484375 311.605469 195.953125 C 311.605469 194.414062 311.875 193.242188 312.414062 192.433594 C 312.953125 191.625 313.734375 191.222656 314.753906 191.222656 Z M 314.753906 191.222656 "/>
<path style=" stroke:none;fill-rule:nonzero;fill:rgb(0%,0%,0%);fill-opacity:1;" d="M 172.734375 213.898438 L 172.734375 214.445312 L 167.570312 214.445312 C 167.617188 215.21875 167.851562 215.808594 168.265625 216.214844 C 168.683594 216.617188 169.265625 216.820312 170.007812 216.820312 C 170.441406 216.820312 170.859375 216.769531 171.265625 216.664062 C 171.667969 216.558594 172.070312 216.398438 172.46875 216.1875 L 172.46875 217.25 C 172.066406 217.417969 171.652344 217.550781 171.230469 217.640625 C 170.808594 217.730469 170.378906 217.773438 169.945312 217.773438 C 168.851562 217.773438 167.988281 217.457031 167.351562 216.824219 C 166.714844 216.1875 166.398438 215.328125 166.398438 214.246094 C 166.398438 213.125 166.699219 212.238281 167.304688 211.582031 C 167.90625 210.925781 168.722656 210.597656 169.75 210.597656 C 170.667969 210.597656 171.394531 210.890625 171.929688 211.484375 C 172.464844 212.074219 172.734375 212.878906 172.734375 213.898438 Z M 171.609375 213.566406 C 171.601562 212.953125 171.429688 212.464844 171.09375 212.097656 C 170.757812 211.730469 170.3125 211.546875 169.757812 211.546875 C 169.132812 211.546875 168.632812 211.722656 168.257812 212.078125 C 167.878906 212.433594 167.664062 212.929688 167.605469 213.574219 Z M 171.609375 213.566406 "/>
<path style=" stroke:none;fill-rule:nonzero;fill:rgb(0%,0%,0%);fill-opacity:1;" d="M 175.660156 216.570312 L 175.660156 220.195312 L 174.53125 220.195312 L 174.53125 210.761719 L 175.660156 210.761719 L 175.660156 211.796875 C 175.898438 211.390625 176.195312 211.089844 176.554688 210.894531 C 176.917969 210.695312 177.347656 210.597656 177.847656 210.597656 C 178.675781 210.597656 179.351562 210.925781 179.871094 211.585938 C 180.390625 212.242188 180.648438 213.109375 180.648438 214.183594 C 180.648438 215.257812 180.390625 216.125 179.871094 216.785156 C 179.351562 217.445312 178.675781 217.773438 177.847656 217.773438 C 177.347656 217.773438 176.917969 217.675781 176.554688 217.476562 C 176.195312 217.277344 175.898438 216.976562 175.660156 216.570312 Z M 179.484375 214.183594 C 179.484375 213.359375 179.3125 212.710938 178.972656 212.242188 C 178.632812 211.769531 178.167969 211.535156 177.574219 211.535156 C 176.976562 211.535156 176.511719 211.769531 176.171875 212.242188 C 175.832031 212.710938 175.660156 213.359375 175.660156 214.183594 C 175.660156 215.007812 175.832031 215.65625 176.171875 216.128906 C 176.511719 216.597656 176.976562 216.832031 177.574219 216.832031 C 178.167969 216.832031 178.632812 216.597656 178.972656 216.128906 C 179.3125 215.65625 179.484375 215.007812 179.484375 214.183594 Z M 179.484375 214.183594 "/>
<path style=" stroke:none;fill-rule:nonzero;fill:rgb(0%,0%,0%);fill-opacity:1;" d="M 185.15625 211.546875 C 184.554688 211.546875 184.082031 211.78125 183.730469 212.253906 C 183.378906 212.722656 183.203125 213.367188 183.203125 214.183594 C 183.203125 215 183.378906 215.644531 183.726562 216.117188 C 184.074219 216.585938 184.554688 216.820312 185.15625 216.820312 C 185.757812 216.820312 186.230469 216.585938 186.578125 216.113281 C 186.929688 215.640625 187.105469 214.996094 187.105469 214.183594 C 187.105469 213.375 186.929688 212.730469 186.578125 212.257812 C 186.230469 211.785156 185.757812 211.546875 185.15625 211.546875 Z M 185.15625 210.597656 C 186.132812 210.597656 186.902344 210.914062 187.460938 211.550781 C 188.015625 212.183594 188.296875 213.0625 188.296875 214.183594 C 188.296875 215.300781 188.015625 216.179688 187.460938 216.820312 C 186.902344 217.457031 186.132812 217.773438 185.15625 217.773438 C 184.179688 217.773438 183.410156 217.457031 182.851562 216.820312 C 182.296875 216.179688 182.023438 215.300781 182.023438 214.183594 C 182.023438 213.0625 182.296875 212.183594 182.851562 211.550781 C 183.410156 210.914062 184.179688 210.597656 185.15625 210.597656 Z M 185.15625 210.597656 "/>
<path style=" stroke:none;fill-rule:nonzero;fill:rgb(0%,0%,0%);fill-opacity:1;" d="M 195.078125 211.023438 L 195.078125 212.074219 C 194.757812 211.898438 194.441406 211.765625 194.121094 211.679688 C 193.804688 211.589844 193.480469 211.546875 193.15625 211.546875 C 192.425781 211.546875 191.859375 211.777344 191.457031 212.242188 C 191.054688 212.703125 190.851562 213.347656 190.851562 214.183594 C 190.851562 215.019531 191.054688 215.667969 191.457031 216.128906 C 191.859375 216.589844 192.425781 216.820312 193.15625 216.820312 C 193.480469 216.820312 193.804688 216.777344 194.121094 216.691406 C 194.441406 216.601562 194.757812 216.472656 195.078125 216.296875 L 195.078125 217.335938 C 194.761719 217.480469 194.4375 217.589844 194.101562 217.664062 C 193.769531 217.738281 193.410156 217.773438 193.03125 217.773438 C 192.003906 217.773438 191.183594 217.449219 190.578125 216.804688 C 189.972656 216.15625 189.667969 215.28125 189.667969 214.183594 C 189.667969 213.070312 189.976562 212.191406 190.585938 211.554688 C 191.199219 210.914062 192.039062 210.597656 193.105469 210.597656 C 193.453125 210.597656 193.789062 210.632812 194.117188 210.703125 C 194.449219 210.773438 194.765625 210.878906 195.078125 211.023438 Z M 195.078125 211.023438 "/>
<path style=" stroke:none;fill-rule:nonzero;fill:rgb(0%,0%,0%);fill-opacity:1;" d="M 202.714844 213.46875 L 202.714844 217.597656 L 201.589844 217.597656 L 201.589844 213.507812 C 201.589844 212.859375 201.464844 212.375 201.210938 212.054688 C 200.960938 211.734375 200.582031 211.574219 200.078125 211.574219 C 199.46875 211.574219 198.992188 211.765625 198.640625 212.152344 C 198.292969 212.539062 198.117188 213.066406 198.117188 213.734375 L 198.117188 217.597656 L 196.988281 217.597656 L 196.988281 208.097656 L 198.117188 208.097656 L 198.117188 211.824219 C 198.386719 211.410156 198.703125 211.105469 199.066406 210.902344 C 199.429688 210.699219 199.851562 210.597656 200.328125 210.597656 C 201.113281 210.597656 201.707031 210.839844 202.109375 211.324219 C 202.511719 211.808594 202.714844 212.523438 202.714844 213.46875 Z M 202.714844 213.46875 "/>
<g clip-path="url(#clip5)" clip-rule="nonzero">
<path style="fill:none;stroke-width:0.8;stroke-linecap:square;stroke-linejoin:round;stroke:rgb(69.019608%,69.019608%,69.019608%);stroke-opacity:1;stroke-miterlimit:4;" d="M 50.14375 124.646875 L 245.44375 124.646875 " transform="matrix(1.25,0,0,1.25,0,0)"/>
</g>
<path style="fill:none;stroke-width:0.8;stroke-linecap:butt;stroke-linejoin:round;stroke:rgb(0%,0%,0%);stroke-opacity:1;stroke-miterlimit:4;" d="M 0 0.000612 L -3.5 0.000612 " transform="matrix(1.25,0,0,1.25,62.679688,155.807829)"/>
<path style=" stroke:none;fill-rule:nonzero;fill:rgb(0%,0%,0%);fill-opacity:1;" d="M 30.070312 152.257812 C 29.4375 152.257812 28.960938 152.570312 28.640625 153.195312 C 28.320312 153.816406 28.160156 154.757812 28.160156 156.011719 C 28.160156 157.257812 28.320312 158.195312 28.640625 158.820312 C 28.960938 159.445312 29.4375 159.757812 30.070312 159.757812 C 30.710938 159.757812 31.1875 159.445312 31.507812 158.820312 C 31.828125 158.195312 31.988281 157.257812 31.988281 156.011719 C 31.988281 154.757812 31.828125 153.816406 31.507812 153.195312 C 31.1875 152.570312 30.710938 152.257812 30.070312 152.257812 Z M 30.070312 151.28125 C 31.09375 151.28125 31.875 151.683594 32.414062 152.492188 C 32.953125 153.300781 33.21875 154.472656 33.21875 156.011719 C 33.21875 157.542969 32.953125 158.714844 32.414062 159.523438 C 31.875 160.332031 31.09375 160.734375 30.070312 160.734375 C 29.050781 160.734375 28.269531 160.332031 27.730469 159.523438 C 27.191406 158.714844 26.921875 157.542969 26.921875 156.011719 C 26.921875 154.472656 27.191406 153.300781 27.730469 152.492188 C 28.269531 151.683594 29.050781 151.28125 30.070312 151.28125 Z M 30.070312 151.28125 "/>
<path style=" stroke:none;fill-rule:nonzero;fill:rgb(0%,0%,0%);fill-opacity:1;" d="M 35.386719 159.007812 L 36.675781 159.007812 L 36.675781 160.558594 L 35.386719 160.558594 Z M 35.386719 159.007812 "/>
<path style=" stroke:none;fill-rule:nonzero;fill:rgb(0%,0%,0%);fill-opacity:1;" d="M 41.996094 152.257812 C 41.363281 152.257812 40.886719 152.570312 40.566406 153.195312 C 40.246094 153.816406 40.085938 154.757812 40.085938 156.011719 C 40.085938 157.257812 40.246094 158.195312 40.566406 158.820312 C 40.886719 159.445312 41.363281 159.757812 41.996094 159.757812 C 42.636719 159.757812 43.113281 159.445312 43.433594 158.820312 C 43.753906 158.195312 43.914062 157.257812 43.914062 156.011719 C 43.914062 154.757812 43.753906 153.816406 43.433594 153.195312 C 43.113281 152.570312 42.636719 152.257812 41.996094 152.257812 Z M 41.996094 151.28125 C 43.019531 151.28125 43.800781 151.683594 44.339844 152.492188 C 44.878906 153.300781 45.148438 154.472656 45.148438 156.011719 C 45.148438 157.542969 44.878906 158.714844 44.339844 159.523438 C 43.800781 160.332031 43.019531 160.734375 41.996094 160.734375 C 40.976562 160.734375 40.195312 160.332031 39.65625 159.523438 C 39.117188 158.714844 38.847656 157.542969 38.847656 156.011719 C 38.847656 154.472656 39.117188 153.300781 39.65625 152.492188 C 40.195312 151.683594 40.976562 151.28125 41.996094 151.28125 Z M 41.996094 151.28125 "/>
<path style=" stroke:none;fill-rule:nonzero;fill:rgb(0%,0%,0%);fill-opacity:1;" d="M 47.328125 151.445312 L 52.167969 151.445312 L 52.167969 152.484375 L 48.457031 152.484375 L 48.457031 154.714844 C 48.632812 154.652344 48.8125 154.609375 48.992188 154.578125 C 49.171875 154.546875 49.351562 154.535156 49.53125 154.535156 C 50.546875 154.535156 51.351562 154.8125 51.945312 155.371094 C 52.539062 155.925781 52.839844 156.679688 52.839844 157.632812 C 52.839844 158.613281 52.53125 159.375 51.921875 159.921875 C 51.3125 160.464844 50.449219 160.734375 49.339844 160.734375 C 48.957031 160.734375 48.566406 160.703125 48.171875 160.636719 C 47.773438 160.570312 47.363281 160.472656 46.941406 160.34375 L 46.941406 159.105469 C 47.308594 159.304688 47.6875 159.453125 48.078125 159.550781 C 48.46875 159.648438 48.878906 159.695312 49.316406 159.695312 C 50.019531 159.695312 50.578125 159.511719 50.988281 159.140625 C 51.398438 158.769531 51.605469 158.269531 51.605469 157.632812 C 51.605469 157 51.398438 156.496094 50.988281 156.128906 C 50.578125 155.757812 50.019531 155.570312 49.316406 155.570312 C 48.984375 155.570312 48.65625 155.605469 48.328125 155.679688 C 48 155.753906 47.667969 155.867188 47.328125 156.023438 Z M 47.328125 151.445312 "/>
<g clip-path="url(#clip6)" clip-rule="nonzero">
<path style="fill:none;stroke-width:0.8;stroke-linecap:square;stroke-linejoin:round;stroke:rgb(69.019608%,69.019608%,69.019608%);stroke-opacity:1;stroke-miterlimit:4;" d="M 50.14375 83.996875 L 245.44375 83.996875 " transform="matrix(1.25,0,0,1.25,0,0)"/>
</g>
<path style="fill:none;stroke-width:0.8;stroke-linecap:butt;stroke-linejoin:round;stroke:rgb(0%,0%,0%);stroke-opacity:1;stroke-miterlimit:4;" d="M 0 -0.000775 L -3.5 -0.000775 " transform="matrix(1.25,0,0,1.25,62.679688,104.997062)"/>
<path style=" stroke:none;fill-rule:nonzero;fill:rgb(0%,0%,0%);fill-opacity:1;" d="M 30.070312 101.445312 C 29.4375 101.445312 28.960938 101.757812 28.640625 102.382812 C 28.320312 103.007812 28.160156 103.945312 28.160156 105.199219 C 28.160156 106.449219 28.320312 107.382812 28.640625 108.007812 C 28.960938 108.632812 29.4375 108.945312 30.070312 108.945312 C 30.710938 108.945312 31.1875 108.632812 31.507812 108.007812 C 31.828125 107.382812 31.988281 106.449219 31.988281 105.199219 C 31.988281 103.945312 31.828125 103.007812 31.507812 102.382812 C 31.1875 101.757812 30.710938 101.445312 30.070312 101.445312 Z M 30.070312 100.46875 C 31.09375 100.46875 31.875 100.871094 32.414062 101.679688 C 32.953125 102.488281 33.21875 103.660156 33.21875 105.199219 C 33.21875 106.734375 32.953125 107.902344 32.414062 108.710938 C 31.875 109.519531 31.09375 109.921875 30.070312 109.921875 C 29.050781 109.921875 28.269531 109.519531 27.730469 108.710938 C 27.191406 107.902344 26.921875 106.734375 26.921875 105.199219 C 26.921875 103.660156 27.191406 102.488281 27.730469 101.679688 C 28.269531 100.871094 29.050781 100.46875 30.070312 100.46875 Z M 30.070312 100.46875 "/>
<path style=" stroke:none;fill-rule:nonzero;fill:rgb(0%,0%,0%);fill-opacity:1;" d="M 35.386719 108.195312 L 36.675781 108.195312 L 36.675781 109.746094 L 35.386719 109.746094 Z M 35.386719 108.195312 "/>
<path style=" stroke:none;fill-rule:nonzero;fill:rgb(0%,0%,0%);fill-opacity:1;" d="M 39.574219 108.707031 L 41.589844 108.707031 L 41.589844 101.753906 L 39.398438 102.195312 L 39.398438 101.070312 L 41.578125 100.632812 L 42.808594 100.632812 L 42.808594 108.707031 L 44.824219 108.707031 L 44.824219 109.746094 L 39.574219 109.746094 Z M 39.574219 108.707031 "/>
<path style=" stroke:none;fill-rule:nonzero;fill:rgb(0%,0%,0%);fill-opacity:1;" d="M 49.949219 101.445312 C 49.316406 101.445312 48.839844 101.757812 48.519531 102.382812 C 48.199219 103.007812 48.039062 103.945312 48.039062 105.199219 C 48.039062 106.449219 48.199219 107.382812 48.519531 108.007812 C 48.839844 108.632812 49.316406 108.945312 49.949219 108.945312 C 50.589844 108.945312 51.066406 108.632812 51.386719 108.007812 C 51.707031 107.382812 51.867188 106.449219 51.867188 105.199219 C 51.867188 103.945312 51.707031 103.007812 51.386719 102.382812 C 51.066406 101.757812 50.589844 101.445312 49.949219 101.445312 Z M 49.949219 100.46875 C 50.972656 100.46875 51.753906 100.871094 52.292969 101.679688 C 52.832031 102.488281 53.101562 103.660156 53.101562 105.199219 C 53.101562 106.734375 52.832031 107.902344 52.292969 108.710938 C 51.753906 109.519531 50.972656 109.921875 49.949219 109.921875 C 48.929688 109.921875 48.148438 109.519531 47.609375 108.710938 C 47.070312 107.902344 46.800781 106.734375 46.800781 105.199219 C 46.800781 103.660156 47.070312 102.488281 47.609375 101.679688 C 48.148438 100.871094 48.929688 100.46875 49.949219 100.46875 Z M 49.949219 100.46875 "/>
<g clip-path="url(#clip7)" clip-rule="nonzero">
<path style="fill:none;stroke-width:0.8;stroke-linecap:square;stroke-linejoin:round;stroke:rgb(69.019608%,69.019608%,69.019608%);stroke-opacity:1;stroke-miterlimit:4;" d="M 50.14375 43.35 L 245.44375 43.35 " transform="matrix(1.25,0,0,1.25,0,0)"/>
</g>
<path style="fill:none;stroke-width:0.8;stroke-linecap:butt;stroke-linejoin:round;stroke:rgb(0%,0%,0%);stroke-opacity:1;stroke-miterlimit:4;" d="M 0 0.000963 L -3.5 0.000963 " transform="matrix(1.25,0,0,1.25,62.679688,54.186296)"/>
<path style=" stroke:none;fill-rule:nonzero;fill:rgb(0%,0%,0%);fill-opacity:1;" d="M 30.070312 50.632812 C 29.4375 50.632812 28.960938 50.945312 28.640625 51.570312 C 28.320312 52.195312 28.160156 53.132812 28.160156 54.386719 C 28.160156 55.636719 28.320312 56.574219 28.640625 57.199219 C 28.960938 57.824219 29.4375 58.136719 30.070312 58.136719 C 30.710938 58.136719 31.1875 57.824219 31.507812 57.199219 C 31.828125 56.574219 31.988281 55.636719 31.988281 54.386719 C 31.988281 53.132812 31.828125 52.195312 31.507812 51.570312 C 31.1875 50.945312 30.710938 50.632812 30.070312 50.632812 Z M 30.070312 49.65625 C 31.09375 49.65625 31.875 50.0625 32.414062 50.871094 C 32.953125 51.679688 33.21875 52.851562 33.21875 54.386719 C 33.21875 55.921875 32.953125 57.09375 32.414062 57.902344 C 31.875 58.710938 31.09375 59.113281 30.070312 59.113281 C 29.050781 59.113281 28.269531 58.710938 27.730469 57.902344 C 27.191406 57.09375 26.921875 55.921875 26.921875 54.386719 C 26.921875 52.851562 27.191406 51.679688 27.730469 50.871094 C 28.269531 50.0625 29.050781 49.65625 30.070312 49.65625 Z M 30.070312 49.65625 "/>
<path style=" stroke:none;fill-rule:nonzero;fill:rgb(0%,0%,0%);fill-opacity:1;" d="M 35.386719 57.382812 L 36.675781 57.382812 L 36.675781 58.933594 L 35.386719 58.933594 Z M 35.386719 57.382812 "/>
<path style=" stroke:none;fill-rule:nonzero;fill:rgb(0%,0%,0%);fill-opacity:1;" d="M 39.574219 57.898438 L 41.589844 57.898438 L 41.589844 50.945312 L 39.398438 51.382812 L 39.398438 50.261719 L 41.578125 49.820312 L 42.808594 49.820312 L 42.808594 57.898438 L 44.824219 57.898438 L 44.824219 58.933594 L 39.574219 58.933594 Z M 39.574219 57.898438 "/>
<path style=" stroke:none;fill-rule:nonzero;fill:rgb(0%,0%,0%);fill-opacity:1;" d="M 47.328125 49.820312 L 52.167969 49.820312 L 52.167969 50.859375 L 48.457031 50.859375 L 48.457031 53.09375 C 48.632812 53.03125 48.8125 52.988281 48.992188 52.957031 C 49.171875 52.925781 49.351562 52.910156 49.53125 52.910156 C 50.546875 52.910156 51.351562 53.191406 51.945312 53.746094 C 52.539062 54.304688 52.839844 55.058594 52.839844 56.011719 C 52.839844 56.992188 52.53125 57.753906 51.921875 58.296875 C 51.3125 58.839844 50.449219 59.113281 49.339844 59.113281 C 48.957031 59.113281 48.566406 59.082031 48.171875 59.015625 C 47.773438 58.949219 47.363281 58.851562 46.941406 58.722656 L 46.941406 57.480469 C 47.308594 57.679688 47.6875 57.828125 48.078125 57.925781 C 48.46875 58.023438 48.878906 58.074219 49.316406 58.074219 C 50.019531 58.074219 50.578125 57.890625 50.988281 57.519531 C 51.398438 57.148438 51.605469 56.648438 51.605469 56.011719 C 51.605469 55.378906 51.398438 54.875 50.988281 54.503906 C 50.578125 54.132812 50.019531 53.949219 49.316406 53.949219 C 48.984375 53.949219 48.65625 53.984375 48.328125 54.058594 C 48 54.132812 47.667969 54.246094 47.328125 54.398438 Z M 47.328125 49.820312 "/>
<path style=" stroke:none;fill-rule:nonzero;fill:rgb(0%,0%,0%);fill-opacity:1;" d="M 9 106.519531 L 9 105.398438 L 18.496094 105.398438 L 18.496094 106.519531 Z M 9 106.519531 "/>
<path style=" stroke:none;fill-rule:nonzero;fill:rgb(0%,0%,0%);fill-opacity:1;" d="M 12.449219 100.398438 C 12.449219 101 12.683594 101.476562 13.152344 101.824219 C 13.625 102.175781 14.269531 102.351562 15.085938 102.351562 C 15.902344 102.351562 16.546875 102.175781 17.015625 101.828125 C 17.488281 101.480469 17.722656 101.003906 17.722656 100.398438 C 17.722656 99.800781 17.488281 99.324219 17.015625 98.976562 C 16.542969 98.625 15.898438 98.449219 15.085938 98.449219 C 14.277344 98.449219 13.632812 98.625 13.160156 98.976562 C 12.6875 99.324219 12.449219 99.800781 12.449219 100.398438 Z M 11.496094 100.398438 C 11.496094 99.421875 11.816406 98.65625 12.449219 98.097656 C 13.085938 97.539062 13.964844 97.257812 15.085938 97.257812 C 16.203125 97.257812 17.082031 97.539062 17.71875 98.097656 C 18.355469 98.65625 18.675781 99.421875 18.675781 100.398438 C 18.675781 101.378906 18.355469 102.148438 17.71875 102.703125 C 17.082031 103.257812 16.203125 103.535156 15.085938 103.535156 C 13.964844 103.535156 13.085938 103.257812 12.449219 102.703125 C 11.816406 102.148438 11.496094 101.378906 11.496094 100.398438 Z M 11.496094 100.398438 "/>
<path style=" stroke:none;fill-rule:nonzero;fill:rgb(0%,0%,0%);fill-opacity:1;" d="M 11.863281 91.042969 L 12.925781 91.042969 C 12.761719 91.359375 12.640625 91.6875 12.558594 92.03125 C 12.476562 92.371094 12.4375 92.726562 12.4375 93.09375 C 12.4375 93.648438 12.523438 94.066406 12.691406 94.347656 C 12.863281 94.625 13.121094 94.765625 13.460938 94.765625 C 13.722656 94.765625 13.925781 94.664062 14.074219 94.464844 C 14.222656 94.265625 14.367188 93.863281 14.5 93.261719 L 14.585938 92.878906 C 14.757812 92.082031 14.996094 91.515625 15.308594 91.179688 C 15.621094 90.84375 16.054688 90.675781 16.609375 90.675781 C 17.246094 90.675781 17.75 90.925781 18.121094 91.429688 C 18.492188 91.929688 18.675781 92.621094 18.675781 93.5 C 18.675781 93.867188 18.640625 94.246094 18.566406 94.644531 C 18.496094 95.042969 18.390625 95.460938 18.246094 95.898438 L 17.085938 95.898438 C 17.304688 95.484375 17.464844 95.074219 17.574219 94.671875 C 17.679688 94.269531 17.734375 93.871094 17.734375 93.476562 C 17.734375 92.945312 17.644531 92.539062 17.460938 92.257812 C 17.28125 91.972656 17.027344 91.828125 16.695312 91.828125 C 16.390625 91.828125 16.160156 91.929688 15.996094 92.136719 C 15.832031 92.339844 15.675781 92.792969 15.523438 93.488281 L 15.433594 93.878906 C 15.289062 94.574219 15.0625 95.078125 14.757812 95.386719 C 14.457031 95.695312 14.039062 95.851562 13.511719 95.851562 C 12.867188 95.851562 12.371094 95.621094 12.023438 95.167969 C 11.671875 94.710938 11.496094 94.0625 11.496094 93.226562 C 11.496094 92.8125 11.527344 92.421875 11.589844 92.054688 C 11.648438 91.6875 11.742188 91.351562 11.863281 91.042969 Z M 11.863281 91.042969 "/>
<path style=" stroke:none;fill-rule:nonzero;fill:rgb(0%,0%,0%);fill-opacity:1;" d="M 11.863281 84.527344 L 12.925781 84.527344 C 12.761719 84.84375 12.640625 85.175781 12.558594 85.515625 C 12.476562 85.859375 12.4375 86.210938 12.4375 86.578125 C 12.4375 87.136719 12.523438 87.554688 12.691406 87.832031 C 12.863281 88.113281 13.121094 88.25 13.460938 88.25 C 13.722656 88.25 13.925781 88.152344 14.074219 87.953125 C 14.222656 87.753906 14.367188 87.351562 14.5 86.75 L 14.585938 86.363281 C 14.757812 85.566406 14.996094 85 15.308594 84.664062 C 15.621094 84.328125 16.054688 84.160156 16.609375 84.160156 C 17.246094 84.160156 17.75 84.414062 18.121094 84.914062 C 18.492188 85.417969 18.675781 86.109375 18.675781 86.988281 C 18.675781 87.355469 18.640625 87.734375 18.566406 88.132812 C 18.496094 88.53125 18.390625 88.949219 18.246094 89.386719 L 17.085938 89.386719 C 17.304688 88.972656 17.464844 88.5625 17.574219 88.160156 C 17.679688 87.757812 17.734375 87.359375 17.734375 86.960938 C 17.734375 86.433594 17.644531 86.027344 17.460938 85.742188 C 17.28125 85.457031 17.027344 85.316406 16.695312 85.316406 C 16.390625 85.316406 16.160156 85.417969 15.996094 85.625 C 15.832031 85.828125 15.675781 86.28125 15.523438 86.976562 L 15.433594 87.367188 C 15.289062 88.0625 15.0625 88.566406 14.757812 88.875 C 14.457031 89.183594 14.039062 89.335938 13.511719 89.335938 C 12.867188 89.335938 12.371094 89.109375 12.023438 88.652344 C 11.671875 88.199219 11.496094 87.550781 11.496094 86.710938 C 11.496094 86.296875 11.527344 85.910156 11.589844 85.542969 C 11.648438 85.175781 11.742188 84.835938 11.863281 84.527344 Z M 11.863281 84.527344 "/>
<g clip-path="url(#clip8)" clip-rule="nonzero">
<path style="fill:none;stroke-width:1.5;stroke-linecap:square;stroke-linejoin:round;stroke:rgb(12.156863%,46.666667%,70.588235%);stroke-opacity:1;stroke-miterlimit:4;" d="M 50.14375 13.5 L 60.421875 55.83125 L 70.703125 87 L 80.98125 102.240625 L 91.259375 113.2375 L 101.5375 119.7875 L 111.81875 122.353125 L 122.096875 126.459375 L 132.375 130.696875 L 142.653125 132.3375 L 152.934375 133.215625 L 163.2125 134.415625 L 173.490625 135.75 L 183.76875 137.421875 L 194.05 136.78125 L 204.328125 137.671875 L 214.60625 139.5 L 224.884375 138.55625 L 235.165625 139.296875 L 245.44375 138.984375 " transform="matrix(1.25,0,0,1.25,0,0)"/>
</g>
<path style="fill:none;stroke-width:0.8;stroke-linecap:square;stroke-linejoin:miter;stroke:rgb(0%,0%,0%);stroke-opacity:1;stroke-miterlimit:4;" d="M 50.14375 145.8 L 50.14375 7.2 " transform="matrix(1.25,0,0,1.25,0,0)"/>
<path style="fill:none;stroke-width:0.8;stroke-linecap:square;stroke-linejoin:miter;stroke:rgb(0%,0%,0%);stroke-opacity:1;stroke-miterlimit:4;" d="M 245.44375 145.8 L 245.44375 7.2 " transform="matrix(1.25,0,0,1.25,0,0)"/>
<path style="fill:none;stroke-width:0.8;stroke-linecap:square;stroke-linejoin:miter;stroke:rgb(0%,0%,0%);stroke-opacity:1;stroke-miterlimit:4;" d="M 50.14375 145.8 L 245.44375 145.8 " transform="matrix(1.25,0,0,1.25,0,0)"/>
<path style="fill:none;stroke-width:0.8;stroke-linecap:square;stroke-linejoin:miter;stroke:rgb(0%,0%,0%);stroke-opacity:1;stroke-miterlimit:4;" d="M 50.14375 7.2 L 245.44375 7.2 " transform="matrix(1.25,0,0,1.25,0,0)"/>
</g>
</svg>
