<?xml version="1.0" encoding="UTF-8"?>
<svg xmlns="http://www.w3.org/2000/svg" xmlns:xlink="http://www.w3.org/1999/xlink" width="310pt" height="234pt" viewBox="0 0 310 234" version="1.1">
<defs>
<clipPath id="clip1">
  <path d="M 53.273438 13.75 L 54 13.75 L 54 187 L 53.273438 187 Z M 53.273438 13.75 "/>
</clipPath>
<clipPath id="clip2">
  <path d="M 101 13.75 L 103 13.75 L 103 187 L 101 187 Z M 101 13.75 "/>
</clipPath>
<clipPath id="clip3">
  <path d="M 150 13.75 L 152 13.75 L 152 187 L 150 187 Z M 150 13.75 "/>
</clipPath>
<clipPath id="clip4">
  <path d="M 199 13.75 L 201 13.75 L 201 187 L 199 187 Z M 199 13.75 "/>
</clipPath>
<clipPath id="clip5">
  <path d="M 247 13.75 L 250 13.75 L 250 187 L 247 187 Z M 247 13.75 "/>
</clipPath>
<clipPath id="clip6">
  <path d="M 296 13.75 L 297.398438 13.75 L 297.398438 187 L 296 187 Z M 296 13.75 "/>
</clipPath>
<clipPath id="clip7">
  <path d="M 53.273438 186 L 297.398438 186 L 297.398438 187 L 53.273438 187 Z M 53.273438 186 "/>
</clipPath>
<clipPath id="clip8">
  <path d="M 53.273438 157 L 297.398438 157 L 297.398438 159 L 53.273438 159 Z M 53.273438 157 "/>
</clipPath>
<clipPath id="clip9">
  <path d="M 53.273438 128 L 297.398438 128 L 297.398438 130 L 53.273438 130 Z M 53.273438 128 "/>
</clipPath>
<clipPath id="clip10">
  <path d="M 53.273438 99 L 297.398438 99 L 297.398438 102 L 53.273438 102 Z M 53.273438 99 "/>
</clipPath>
<clipPath id="clip11">
  <path d="M 53.273438 70 L 297.398438 70 L 297.398438 73 L 53.273438 73 Z M 53.273438 70 "/>
</clipPath>
<clipPath id="clip12">
  <path d="M 53.273438 41 L 297.398438 41 L 297.398438 44 L 53.273438 44 Z M 53.273438 41 "/>
</clipPath>
<clipPath id="clip13">
  <path d="M 53.273438 13.75 L 297.398438 13.75 L 297.398438 15 L 53.273438 15 Z M 53.273438 13.75 "/>
</clipPath>
<clipPath id="clip14">
  <path d="M 53.273438 53 L 294 53 L 294 160 L 53.273438 160 Z M 53.273438 53 "/>
</clipPath>
<clipPath id="clip15">
  <path d="M 53.273438 29 L 294 29 L 294 149 L 53.273438 149 Z M 53.273438 29 "/>
</clipPath>
<filter id="alpha" filterUnits="objectBoundingBox" x="0%" y="0%" width="100%" height="100%">
  <feColorMatrix type="matrix" in="SourceGraphic" values="0 0 0 0 1 0 0 0 0 1 0 0 0 0 1 0 0 0 1 0"/>
</filter>
<mask id="mask0">
  <g filter="url(#alpha)">
<rect x="0" y="0" width="310" height="234" style="fill:rgb(0%,0%,0%);fill-opacity:0.8;stroke:none;"/>
  </g>
</mask>
<clipPath id="clip16">
  <rect x="0" y="0" width="310" height="234"/>
</clipPath>
<g id="surface5" clip-path="url(#clip16)">
<path style="fill-rule:nonzero;fill:rgb(100%,100%,100%);fill-opacity:1;stroke-width:1;stroke-linecap:butt;stroke-linejoin:miter;stroke:rgb(80%,80%,80%);stroke-opacity:1;stroke-miterlimit:4;" d="M 111.6 144.6 L 168.940625 144.6 C 170.271875 144.6 170.940625 143.93125 170.940625 142.6 L 170.940625 114.24375 C 170.940625 112.909375 170.271875 112.24375 168.940625 112.24375 L 111.6 112.24375 C 110.26875 112.24375 109.6 112.909375 109.6 114.24375 L 109.6 142.6 C 109.6 143.93125 110.26875 144.6 111.6 144.6 Z M 111.6 144.6 " transform="matrix(1.25,0,0,1.25,0,0)"/>
</g>
</defs>
<g id="surface1">
<path style=" stroke:none;fill-rule:nonzero;fill:rgb(100%,100%,100%);fill-opacity:1;" d="M 0 233.945312 L 310.378906 233.945312 L 310.378906 0 L 0 0 Z M 0 233.945312 "/>
<path style=" stroke:none;fill-rule:nonzero;fill:rgb(100%,100%,100%);fill-opacity:1;" d="M 53.273438 187 L 297.402344 187 L 297.402344 13.75 L 53.273438 13.75 Z M 53.273438 187 "/>
<g clip-path="url(#clip1)" clip-rule="nonzero">
<path style="fill:none;stroke-width:0.8;stroke-linecap:square;stroke-linejoin:round;stroke:rgb(69.019608%,69.019608%,69.019608%);stroke-opacity:1;stroke-miterlimit:4;" d="M 42.61875 149.6 L 42.61875 11 " transform="matrix(1.25,0,0,1.25,0,0)"/>
</g>
<path style="fill:none;stroke-width:0.8;stroke-linecap:butt;stroke-linejoin:round;stroke:rgb(0%,0%,0%);stroke-opacity:1;stroke-miterlimit:4;" d="M -0.001562 0.000781 L -0.001562 3.500781 " transform="matrix(1.25,0,0,1.25,53.27539,186.999024)"/>
<path style=" stroke:none;fill-rule:nonzero;fill:rgb(0%,0%,0%);fill-opacity:1;" d="M 53.269531 196.945312 C 52.636719 196.945312 52.160156 197.257812 51.839844 197.882812 C 51.519531 198.507812 51.359375 199.445312 51.359375 200.699219 C 51.359375 201.949219 51.519531 202.886719 51.839844 203.511719 C 52.160156 204.136719 52.636719 204.449219 53.269531 204.449219 C 53.910156 204.449219 54.390625 204.136719 54.707031 203.511719 C 55.027344 202.886719 55.1875 201.949219 55.1875 200.699219 C 55.1875 199.445312 55.027344 198.507812 54.707031 197.882812 C 54.390625 197.257812 53.910156 196.945312 53.269531 196.945312 Z M 53.269531 195.96875 C 54.292969 195.96875 55.074219 196.375 55.613281 197.183594 C 56.152344 197.988281 56.421875 199.164062 56.421875 200.699219 C 56.421875 202.234375 56.152344 203.40625 55.613281 204.214844 C 55.074219 205.019531 54.292969 205.425781 53.269531 205.425781 C 52.25 205.425781 51.46875 205.019531 50.929688 204.214844 C 50.390625 203.40625 50.121094 202.234375 50.121094 200.699219 C 50.121094 199.164062 50.390625 197.988281 50.929688 197.183594 C 51.46875 196.375 52.25 195.96875 53.269531 195.96875 Z M 53.269531 195.96875 "/>
<g clip-path="url(#clip2)" clip-rule="nonzero">
<path style="fill:none;stroke-width:0.8;stroke-linecap:square;stroke-linejoin:round;stroke:rgb(69.019608%,69.019608%,69.019608%);stroke-opacity:1;stroke-miterlimit:4;" d="M 81.68125 149.6 L 81.68125 11 " transform="matrix(1.25,0,0,1.25,0,0)"/>
</g>
<path style="fill:none;stroke-width:0.8;stroke-linecap:butt;stroke-linejoin:round;stroke:rgb(0%,0%,0%);stroke-opacity:1;stroke-miterlimit:4;" d="M 0.000938 0.000781 L 0.000938 3.500781 " transform="matrix(1.25,0,0,1.25,102.10039,186.999024)"/>
<path style=" stroke:none;fill-rule:nonzero;fill:rgb(0%,0%,0%);fill-opacity:1;" d="M 99.675781 204.210938 L 101.6875 204.210938 L 101.6875 197.257812 L 99.496094 197.695312 L 99.496094 196.574219 L 101.675781 196.132812 L 102.910156 196.132812 L 102.910156 204.210938 L 104.921875 204.210938 L 104.921875 205.246094 L 99.675781 205.246094 Z M 99.675781 204.210938 "/>
<g clip-path="url(#clip3)" clip-rule="nonzero">
<path style="fill:none;stroke-width:0.8;stroke-linecap:square;stroke-linejoin:round;stroke:rgb(69.019608%,69.019608%,69.019608%);stroke-opacity:1;stroke-miterlimit:4;" d="M 120.740625 149.6 L 120.740625 11 " transform="matrix(1.25,0,0,1.25,0,0)"/>
</g>
<path style="fill:none;stroke-width:0.8;stroke-linecap:butt;stroke-linejoin:round;stroke:rgb(0%,0%,0%);stroke-opacity:1;stroke-miterlimit:4;" d="M 0.000312 0.000781 L 0.000312 3.500781 " transform="matrix(1.25,0,0,1.25,150.925391,186.999024)"/>
<path style=" stroke:none;fill-rule:nonzero;fill:rgb(0%,0%,0%);fill-opacity:1;" d="M 149.347656 204.210938 L 153.648438 204.210938 L 153.648438 205.246094 L 147.863281 205.246094 L 147.863281 204.210938 C 148.332031 203.726562 148.96875 203.074219 149.777344 202.261719 C 150.585938 201.445312 151.09375 200.917969 151.300781 200.679688 C 151.695312 200.238281 151.96875 199.863281 152.125 199.554688 C 152.285156 199.25 152.363281 198.945312 152.363281 198.648438 C 152.363281 198.164062 152.191406 197.769531 151.851562 197.464844 C 151.511719 197.160156 151.070312 197.007812 150.523438 197.007812 C 150.136719 197.007812 149.730469 197.074219 149.300781 197.207031 C 148.871094 197.34375 148.414062 197.546875 147.925781 197.820312 L 147.925781 196.574219 C 148.421875 196.375 148.886719 196.222656 149.316406 196.121094 C 149.75 196.019531 150.144531 195.96875 150.5 195.96875 C 151.445312 195.96875 152.199219 196.207031 152.757812 196.679688 C 153.320312 197.148438 153.601562 197.78125 153.601562 198.570312 C 153.601562 198.945312 153.53125 199.300781 153.390625 199.636719 C 153.25 199.96875 152.996094 200.367188 152.625 200.820312 C 152.523438 200.941406 152.199219 201.28125 151.652344 201.84375 C 151.109375 202.410156 150.339844 203.195312 149.347656 204.210938 Z M 149.347656 204.210938 "/>
<g clip-path="url(#clip4)" clip-rule="nonzero">
<path style="fill:none;stroke-width:0.8;stroke-linecap:square;stroke-linejoin:round;stroke:rgb(69.019608%,69.019608%,69.019608%);stroke-opacity:1;stroke-miterlimit:4;" d="M 159.8 149.6 L 159.8 11 " transform="matrix(1.25,0,0,1.25,0,0)"/>
</g>
<path style="fill:none;stroke-width:0.8;stroke-linecap:butt;stroke-linejoin:round;stroke:rgb(0%,0%,0%);stroke-opacity:1;stroke-miterlimit:4;" d="M -0.000313 0.000781 L -0.000313 3.500781 " transform="matrix(1.25,0,0,1.25,199.750391,186.999024)"/>
<path style=" stroke:none;fill-rule:nonzero;fill:rgb(0%,0%,0%);fill-opacity:1;" d="M 200.847656 200.332031 C 201.4375 200.460938 201.894531 200.722656 202.226562 201.121094 C 202.558594 201.519531 202.726562 202.011719 202.726562 202.597656 C 202.726562 203.496094 202.414062 204.191406 201.796875 204.6875 C 201.179688 205.179688 200.300781 205.425781 199.160156 205.425781 C 198.777344 205.425781 198.386719 205.386719 197.980469 205.3125 C 197.574219 205.234375 197.15625 205.121094 196.726562 204.972656 L 196.726562 203.78125 C 197.066406 203.980469 197.441406 204.132812 197.847656 204.234375 C 198.253906 204.335938 198.679688 204.386719 199.125 204.386719 C 199.898438 204.386719 200.484375 204.234375 200.890625 203.929688 C 201.296875 203.625 201.5 203.179688 201.5 202.597656 C 201.5 202.0625 201.308594 201.640625 200.933594 201.339844 C 200.558594 201.035156 200.035156 200.882812 199.363281 200.882812 L 198.300781 200.882812 L 198.300781 199.871094 L 199.414062 199.871094 C 200.019531 199.871094 200.480469 199.75 200.804688 199.507812 C 201.125 199.265625 201.285156 198.914062 201.285156 198.460938 C 201.285156 197.992188 201.121094 197.632812 200.789062 197.382812 C 200.457031 197.132812 199.980469 197.007812 199.363281 197.007812 C 199.023438 197.007812 198.664062 197.042969 198.277344 197.117188 C 197.890625 197.191406 197.464844 197.304688 197 197.457031 L 197 196.359375 C 197.46875 196.230469 197.90625 196.132812 198.316406 196.066406 C 198.726562 196.003906 199.109375 195.96875 199.472656 195.96875 C 200.410156 195.96875 201.148438 196.183594 201.695312 196.609375 C 202.238281 197.03125 202.511719 197.605469 202.511719 198.332031 C 202.511719 198.835938 202.367188 199.261719 202.078125 199.609375 C 201.789062 199.957031 201.378906 200.199219 200.847656 200.332031 Z M 200.847656 200.332031 "/>
<g clip-path="url(#clip5)" clip-rule="nonzero">
<path style="fill:none;stroke-width:0.8;stroke-linecap:square;stroke-linejoin:round;stroke:rgb(69.019608%,69.019608%,69.019608%);stroke-opacity:1;stroke-miterlimit:4;" d="M 198.859375 149.6 L 198.859375 11 " transform="matrix(1.25,0,0,1.25,0,0)"/>
</g>
<path style="fill:none;stroke-width:0.8;stroke-linecap:butt;stroke-linejoin:round;stroke:rgb(0%,0%,0%);stroke-opacity:1;stroke-miterlimit:4;" d="M -0.000938 0.000781 L -0.000938 3.500781 " transform="matrix(1.25,0,0,1.25,248.575391,186.999024)"/>
<path style=" stroke:none;fill-rule:nonzero;fill:rgb(0%,0%,0%);fill-opacity:1;" d="M 249.324219 197.207031 L 246.210938 202.074219 L 249.324219 202.074219 Z M 249 196.132812 L 250.550781 196.132812 L 250.550781 202.074219 L 251.851562 202.074219 L 251.851562 203.097656 L 250.550781 203.097656 L 250.550781 205.246094 L 249.324219 205.246094 L 249.324219 203.097656 L 245.210938 203.097656 L 245.210938 201.910156 Z M 249 196.132812 "/>
<g clip-path="url(#clip6)" clip-rule="nonzero">
<path style="fill:none;stroke-width:0.8;stroke-linecap:square;stroke-linejoin:round;stroke:rgb(69.019608%,69.019608%,69.019608%);stroke-opacity:1;stroke-miterlimit:4;" d="M 237.921875 149.6 L 237.921875 11 " transform="matrix(1.25,0,0,1.25,0,0)"/>
</g>
<path style="fill:none;stroke-width:0.8;stroke-linecap:butt;stroke-linejoin:round;stroke:rgb(0%,0%,0%);stroke-opacity:1;stroke-miterlimit:4;" d="M 0.001562 0.000781 L 0.001562 3.500781 " transform="matrix(1.25,0,0,1.25,297.400391,186.999024)"/>
<path style=" stroke:none;fill-rule:nonzero;fill:rgb(0%,0%,0%);fill-opacity:1;" d="M 294.773438 196.132812 L 299.613281 196.132812 L 299.613281 197.171875 L 295.902344 197.171875 L 295.902344 199.40625 C 296.082031 199.34375 296.257812 199.296875 296.4375 199.269531 C 296.617188 199.238281 296.796875 199.222656 296.976562 199.222656 C 297.992188 199.222656 298.800781 199.503906 299.394531 200.058594 C 299.988281 200.617188 300.285156 201.371094 300.285156 202.324219 C 300.285156 203.304688 299.980469 204.066406 299.371094 204.609375 C 298.757812 205.152344 297.898438 205.425781 296.789062 205.425781 C 296.40625 205.425781 296.015625 205.390625 295.617188 205.328125 C 295.222656 205.261719 294.8125 205.164062 294.390625 205.035156 L 294.390625 203.792969 C 294.753906 203.992188 295.132812 204.140625 295.523438 204.238281 C 295.914062 204.335938 296.328125 204.386719 296.761719 204.386719 C 297.464844 204.386719 298.023438 204.199219 298.433594 203.832031 C 298.84375 203.460938 299.050781 202.957031 299.050781 202.324219 C 299.050781 201.6875 298.84375 201.1875 298.433594 200.816406 C 298.023438 200.445312 297.464844 200.261719 296.761719 200.261719 C 296.433594 200.261719 296.105469 200.296875 295.777344 200.371094 C 295.449219 200.441406 295.113281 200.558594 294.773438 200.710938 Z M 294.773438 196.132812 "/>
<path style=" stroke:none;fill-rule:nonzero;fill:rgb(0%,0%,0%);fill-opacity:1;" d="M 178.5 215.507812 L 176.027344 218.835938 L 178.625 222.34375 L 177.300781 222.34375 L 175.3125 219.660156 L 173.324219 222.34375 L 171.996094 222.34375 L 174.652344 218.769531 L 172.222656 215.507812 L 173.546875 215.507812 L 175.359375 217.945312 L 177.171875 215.507812 Z M 178.5 215.507812 "/>
<g clip-path="url(#clip7)" clip-rule="nonzero">
<path style="fill:none;stroke-width:0.8;stroke-linecap:square;stroke-linejoin:round;stroke:rgb(69.019608%,69.019608%,69.019608%);stroke-opacity:1;stroke-miterlimit:4;" d="M 42.61875 149.6 L 237.921875 149.6 " transform="matrix(1.25,0,0,1.25,0,0)"/>
</g>
<path style="fill:none;stroke-width:0.8;stroke-linecap:butt;stroke-linejoin:round;stroke:rgb(0%,0%,0%);stroke-opacity:1;stroke-miterlimit:4;" d="M -0.001562 0.000781 L -3.501562 0.000781 " transform="matrix(1.25,0,0,1.25,53.27539,186.999024)"/>
<path style=" stroke:none;fill-rule:nonzero;fill:rgb(0%,0%,0%);fill-opacity:1;" d="M 27.421875 187.308594 L 35.246094 187.308594 L 35.246094 188.347656 L 27.421875 188.347656 Z M 27.421875 187.308594 "/>
<path style=" stroke:none;fill-rule:nonzero;fill:rgb(0%,0%,0%);fill-opacity:1;" d="M 38.121094 190.710938 L 40.136719 190.710938 L 40.136719 183.757812 L 37.945312 184.195312 L 37.945312 183.074219 L 40.125 182.632812 L 41.355469 182.632812 L 41.355469 190.710938 L 43.371094 190.710938 L 43.371094 191.746094 L 38.121094 191.746094 Z M 38.121094 190.710938 "/>
<g clip-path="url(#clip8)" clip-rule="nonzero">
<path style="fill:none;stroke-width:0.8;stroke-linecap:square;stroke-linejoin:round;stroke:rgb(69.019608%,69.019608%,69.019608%);stroke-opacity:1;stroke-miterlimit:4;" d="M 42.61875 126.5 L 237.921875 126.5 " transform="matrix(1.25,0,0,1.25,0,0)"/>
</g>
<path style="fill:none;stroke-width:0.8;stroke-linecap:butt;stroke-linejoin:round;stroke:rgb(0%,0%,0%);stroke-opacity:1;stroke-miterlimit:4;" d="M -0.001562 0.000781 L -3.501562 0.000781 " transform="matrix(1.25,0,0,1.25,53.27539,158.124024)"/>
<path style=" stroke:none;fill-rule:nonzero;fill:rgb(0%,0%,0%);fill-opacity:1;" d="M 40.542969 154.570312 C 39.910156 154.570312 39.433594 154.882812 39.113281 155.507812 C 38.792969 156.132812 38.632812 157.070312 38.632812 158.324219 C 38.632812 159.574219 38.792969 160.511719 39.113281 161.136719 C 39.433594 161.761719 39.910156 162.074219 40.542969 162.074219 C 41.183594 162.074219 41.664062 161.761719 41.980469 161.136719 C 42.300781 160.511719 42.460938 159.574219 42.460938 158.324219 C 42.460938 157.070312 42.300781 156.132812 41.980469 155.507812 C 41.664062 154.882812 41.183594 154.570312 40.542969 154.570312 Z M 40.542969 153.59375 C 41.566406 153.59375 42.347656 154 42.886719 154.808594 C 43.425781 155.617188 43.695312 156.789062 43.695312 158.324219 C 43.695312 159.859375 43.425781 161.03125 42.886719 161.839844 C 42.347656 162.648438 41.566406 163.050781 40.542969 163.050781 C 39.523438 163.050781 38.742188 162.648438 38.203125 161.839844 C 37.664062 161.03125 37.394531 159.859375 37.394531 158.324219 C 37.394531 156.789062 37.664062 155.617188 38.203125 154.808594 C 38.742188 154 39.523438 153.59375 40.542969 153.59375 Z M 40.542969 153.59375 "/>
<g clip-path="url(#clip9)" clip-rule="nonzero">
<path style="fill:none;stroke-width:0.8;stroke-linecap:square;stroke-linejoin:round;stroke:rgb(69.019608%,69.019608%,69.019608%);stroke-opacity:1;stroke-miterlimit:4;" d="M 42.61875 103.4 L 237.921875 103.4 " transform="matrix(1.25,0,0,1.25,0,0)"/>
</g>
<path style="fill:none;stroke-width:0.8;stroke-linecap:butt;stroke-linejoin:round;stroke:rgb(0%,0%,0%);stroke-opacity:1;stroke-miterlimit:4;" d="M -0.001562 0.000781 L -3.501562 0.000781 " transform="matrix(1.25,0,0,1.25,53.27539,129.249024)"/>
<path style=" stroke:none;fill-rule:nonzero;fill:rgb(0%,0%,0%);fill-opacity:1;" d="M 38.121094 132.960938 L 40.136719 132.960938 L 40.136719 126.007812 L 37.945312 126.445312 L 37.945312 125.324219 L 40.125 124.882812 L 41.355469 124.882812 L 41.355469 132.960938 L 43.371094 132.960938 L 43.371094 133.996094 L 38.121094 133.996094 Z M 38.121094 132.960938 "/>
<g clip-path="url(#clip10)" clip-rule="nonzero">
<path style="fill:none;stroke-width:0.8;stroke-linecap:square;stroke-linejoin:round;stroke:rgb(69.019608%,69.019608%,69.019608%);stroke-opacity:1;stroke-miterlimit:4;" d="M 42.61875 80.3 L 237.921875 80.3 " transform="matrix(1.25,0,0,1.25,0,0)"/>
</g>
<path style="fill:none;stroke-width:0.8;stroke-linecap:butt;stroke-linejoin:round;stroke:rgb(0%,0%,0%);stroke-opacity:1;stroke-miterlimit:4;" d="M -0.001562 0.000781 L -3.501562 0.000781 " transform="matrix(1.25,0,0,1.25,53.27539,100.374024)"/>
<path style=" stroke:none;fill-rule:nonzero;fill:rgb(0%,0%,0%);fill-opacity:1;" d="M 38.96875 104.085938 L 43.273438 104.085938 L 43.273438 105.121094 L 37.488281 105.121094 L 37.488281 104.085938 C 37.957031 103.601562 38.59375 102.953125 39.398438 102.136719 C 40.207031 101.320312 40.714844 100.792969 40.921875 100.554688 C 41.316406 100.113281 41.59375 99.738281 41.75 99.429688 C 41.90625 99.125 41.984375 98.820312 41.984375 98.523438 C 41.984375 98.039062 41.816406 97.644531 41.476562 97.339844 C 41.136719 97.035156 40.695312 96.882812 40.148438 96.882812 C 39.761719 96.882812 39.351562 96.949219 38.921875 97.082031 C 38.496094 97.21875 38.035156 97.421875 37.546875 97.695312 L 37.546875 96.449219 C 38.042969 96.25 38.507812 96.097656 38.9375 95.996094 C 39.371094 95.894531 39.765625 95.84375 40.125 95.84375 C 41.070312 95.84375 41.820312 96.082031 42.382812 96.554688 C 42.945312 97.027344 43.222656 97.65625 43.222656 98.445312 C 43.222656 98.820312 43.152344 99.175781 43.011719 99.511719 C 42.875 99.847656 42.617188 100.242188 42.246094 100.695312 C 42.144531 100.816406 41.824219 101.15625 41.277344 101.71875 C 40.734375 102.285156 39.964844 103.074219 38.96875 104.085938 Z M 38.96875 104.085938 "/>
<g clip-path="url(#clip11)" clip-rule="nonzero">
<path style="fill:none;stroke-width:0.8;stroke-linecap:square;stroke-linejoin:round;stroke:rgb(69.019608%,69.019608%,69.019608%);stroke-opacity:1;stroke-miterlimit:4;" d="M 42.61875 57.2 L 237.921875 57.2 " transform="matrix(1.25,0,0,1.25,0,0)"/>
</g>
<path style="fill:none;stroke-width:0.8;stroke-linecap:butt;stroke-linejoin:round;stroke:rgb(0%,0%,0%);stroke-opacity:1;stroke-miterlimit:4;" d="M -0.001562 0.000781 L -3.501562 0.000781 " transform="matrix(1.25,0,0,1.25,53.27539,71.499024)"/>
<path style=" stroke:none;fill-rule:nonzero;fill:rgb(0%,0%,0%);fill-opacity:1;" d="M 41.644531 71.332031 C 42.234375 71.460938 42.695312 71.722656 43.023438 72.121094 C 43.355469 72.519531 43.523438 73.011719 43.523438 73.597656 C 43.523438 74.496094 43.214844 75.195312 42.59375 75.6875 C 41.976562 76.179688 41.097656 76.425781 39.957031 76.425781 C 39.578125 76.425781 39.183594 76.386719 38.777344 76.3125 C 38.375 76.238281 37.957031 76.125 37.523438 75.972656 L 37.523438 74.78125 C 37.867188 74.980469 38.238281 75.132812 38.644531 75.234375 C 39.054688 75.335938 39.480469 75.386719 39.921875 75.386719 C 40.695312 75.386719 41.285156 75.234375 41.6875 74.929688 C 42.09375 74.625 42.296875 74.179688 42.296875 73.597656 C 42.296875 73.0625 42.109375 72.640625 41.730469 72.339844 C 41.355469 72.035156 40.832031 71.882812 40.160156 71.882812 L 39.097656 71.882812 L 39.097656 70.871094 L 40.210938 70.871094 C 40.816406 70.871094 41.28125 70.75 41.601562 70.507812 C 41.921875 70.265625 42.082031 69.917969 42.082031 69.460938 C 42.082031 68.992188 41.917969 68.632812 41.585938 68.382812 C 41.253906 68.132812 40.78125 68.007812 40.160156 68.007812 C 39.824219 68.007812 39.460938 68.042969 39.074219 68.117188 C 38.6875 68.191406 38.261719 68.304688 37.796875 68.457031 L 37.796875 67.359375 C 38.265625 67.230469 38.707031 67.132812 39.113281 67.066406 C 39.523438 67.003906 39.910156 66.96875 40.269531 66.96875 C 41.207031 66.96875 41.949219 67.183594 42.492188 67.609375 C 43.039062 68.035156 43.308594 68.609375 43.308594 69.332031 C 43.308594 69.835938 43.164062 70.261719 42.875 70.609375 C 42.585938 70.957031 42.175781 71.199219 41.644531 71.332031 Z M 41.644531 71.332031 "/>
<g clip-path="url(#clip12)" clip-rule="nonzero">
<path style="fill:none;stroke-width:0.8;stroke-linecap:square;stroke-linejoin:round;stroke:rgb(69.019608%,69.019608%,69.019608%);stroke-opacity:1;stroke-miterlimit:4;" d="M 42.61875 34.1 L 237.921875 34.1 " transform="matrix(1.25,0,0,1.25,0,0)"/>
</g>
<path style="fill:none;stroke-width:0.8;stroke-linecap:butt;stroke-linejoin:round;stroke:rgb(0%,0%,0%);stroke-opacity:1;stroke-miterlimit:4;" d="M -0.001562 0.000781 L -3.501562 0.000781 " transform="matrix(1.25,0,0,1.25,53.27539,42.624024)"/>
<path style=" stroke:none;fill-rule:nonzero;fill:rgb(0%,0%,0%);fill-opacity:1;" d="M 41.296875 39.335938 L 38.183594 44.199219 L 41.296875 44.199219 Z M 40.972656 38.261719 L 42.523438 38.261719 L 42.523438 44.199219 L 43.824219 44.199219 L 43.824219 45.226562 L 42.523438 45.226562 L 42.523438 47.375 L 41.296875 47.375 L 41.296875 45.226562 L 37.183594 45.226562 L 37.183594 44.035156 Z M 40.972656 38.261719 "/>
<g clip-path="url(#clip13)" clip-rule="nonzero">
<path style="fill:none;stroke-width:0.8;stroke-linecap:square;stroke-linejoin:round;stroke:rgb(69.019608%,69.019608%,69.019608%);stroke-opacity:1;stroke-miterlimit:4;" d="M 42.61875 11 L 237.921875 11 " transform="matrix(1.25,0,0,1.25,0,0)"/>
</g>
<path style="fill:none;stroke-width:0.8;stroke-linecap:butt;stroke-linejoin:round;stroke:rgb(0%,0%,0%);stroke-opacity:1;stroke-miterlimit:4;" d="M -0.001562 0.000781 L -3.501562 0.000781 " transform="matrix(1.25,0,0,1.25,53.27539,13.749024)"/>
<path style=" stroke:none;fill-rule:nonzero;fill:rgb(0%,0%,0%);fill-opacity:1;" d="M 37.921875 9.382812 L 42.761719 9.382812 L 42.761719 10.421875 L 39.050781 10.421875 L 39.050781 12.65625 C 39.230469 12.59375 39.40625 12.550781 39.585938 12.519531 C 39.765625 12.488281 39.945312 12.472656 40.125 12.472656 C 41.140625 12.472656 41.945312 12.753906 42.539062 13.308594 C 43.136719 13.867188 43.433594 14.621094 43.433594 15.574219 C 43.433594 16.554688 43.128906 17.316406 42.515625 17.859375 C 41.90625 18.402344 41.046875 18.675781 39.933594 18.675781 C 39.550781 18.675781 39.164062 18.644531 38.765625 18.578125 C 38.371094 18.511719 37.960938 18.414062 37.535156 18.285156 L 37.535156 17.042969 C 37.902344 17.242188 38.28125 17.390625 38.671875 17.488281 C 39.0625 17.585938 39.476562 17.636719 39.910156 17.636719 C 40.613281 17.636719 41.171875 17.453125 41.582031 17.082031 C 41.992188 16.710938 42.199219 16.210938 42.199219 15.574219 C 42.199219 14.941406 41.992188 14.4375 41.582031 14.066406 C 41.171875 13.695312 40.613281 13.511719 39.910156 13.511719 C 39.582031 13.511719 39.25 13.546875 38.921875 13.621094 C 38.597656 13.695312 38.261719 13.808594 37.921875 13.960938 Z M 37.921875 9.382812 "/>
<path style=" stroke:none;fill-rule:nonzero;fill:rgb(0%,0%,0%);fill-opacity:1;" d="M 19.132812 100.050781 C 19.945312 100.367188 20.476562 100.675781 20.722656 100.980469 C 20.972656 101.28125 21.097656 101.683594 21.097656 102.1875 L 21.097656 103.085938 L 20.15625 103.085938 L 20.15625 102.425781 C 20.15625 102.117188 20.085938 101.875 19.9375 101.707031 C 19.792969 101.535156 19.445312 101.34375 18.898438 101.136719 L 18.386719 100.9375 L 11.660156 103.699219 L 11.660156 102.511719 L 17.007812 100.375 L 11.660156 98.238281 L 11.660156 97.046875 Z M 19.132812 100.050781 "/>
<g clip-path="url(#clip14)" clip-rule="nonzero">
<path style="fill:none;stroke-width:1.5;stroke-linecap:square;stroke-linejoin:round;stroke:rgb(12.156863%,46.666667%,70.588235%);stroke-opacity:1;stroke-miterlimit:4;" d="M 42.61875 126.5 L 46.525 118.225 L 50.43125 110.946875 L 54.3375 104.028125 L 58.24375 97.409375 L 62.15 91.08125 L 66.05625 85.0625 L 69.9625 79.371875 L 73.86875 74.034375 L 77.775 69.078125 L 81.68125 64.521875 L 85.5875 60.39375 L 89.49375 56.7125 L 93.396875 53.4875 L 97.303125 50.7375 L 101.209375 48.4625 L 105.115625 46.675 L 109.021875 45.36875 L 112.928125 44.540625 L 116.834375 44.178125 L 120.740625 44.26875 L 124.646875 44.8 L 128.553125 45.740625 L 132.459375 47.06875 L 136.365625 48.75625 L 140.26875 50.76875 L 144.175 53.071875 L 148.08125 55.621875 L 151.9875 58.38125 L 155.89375 61.303125 L 159.8 64.35 L 163.70625 67.46875 L 167.6125 70.61875 L 171.51875 73.75 L 175.425 76.815625 L 179.33125 79.775 L 183.2375 82.578125 L 187.14375 85.184375 L 191.046875 87.55625 L 194.953125 89.653125 L 198.859375 91.4375 L 202.765625 92.88125 L 206.671875 93.953125 L 210.578125 94.628125 L 214.484375 94.8875 L 218.390625 94.715625 L 222.296875 94.096875 L 226.203125 93.025 L 230.109375 91.5 L 234.015625 89.51875 " transform="matrix(1.25,0,0,1.25,0,0)"/>
</g>
<g clip-path="url(#clip15)" clip-rule="nonzero">
<path style="fill:none;stroke-width:1.5;stroke-linecap:butt;stroke-linejoin:round;stroke:rgb(74.901961%,0%,74.901961%);stroke-opacity:1;stroke-dasharray:5.55,2.4;stroke-miterlimit:4;" d="M 42.61875 117.68125 L 46.525 117.090625 L 50.43125 118.165625 L 54.3375 106.871875 L 58.24375 101.76875 L 62.15 102.9375 L 66.05625 92.490625 L 69.9625 84.75 L 73.86875 83.115625 L 77.775 79.49375 L 81.68125 70.615625 L 85.5875 67.878125 L 89.49375 64.390625 L 93.396875 47.25625 L 97.303125 47.084375 L 101.209375 60.653125 L 105.115625 63.659375 L 109.021875 44.8375 L 112.928125 23.990625 L 116.834375 50.43125 L 120.740625 51.13125 L 124.646875 35.09375 L 128.553125 57.771875 L 132.459375 58.865625 L 136.365625 47.775 L 140.26875 45.7625 L 144.175 45.7875 L 148.08125 47.69375 L 151.9875 74.334375 L 155.89375 74.334375 L 159.8 74.390625 L 163.70625 76.3625 L 167.6125 67.86875 L 171.51875 40.390625 L 175.425 77.425 L 179.33125 71.078125 L 183.2375 77.25 L 187.14375 79.803125 L 191.046875 86.43125 L 194.953125 89.384375 L 198.859375 96.284375 L 202.765625 103.065625 L 206.671875 104.08125 L 210.578125 87.965625 L 214.484375 99.015625 L 218.390625 96.65 L 222.296875 93.809375 L 226.203125 97.96875 L 230.109375 116.5125 L 234.015625 117.19375 " transform="matrix(1.25,0,0,1.25,0,0)"/>
</g>
<path style="fill-rule:nonzero;fill:rgb(100%,49.803922%,5.490196%);fill-opacity:0.501961;stroke-width:1;stroke-linecap:butt;stroke-linejoin:round;stroke:rgb(100%,49.803922%,5.490196%);stroke-opacity:0.501961;stroke-miterlimit:4;" d="M 0.000274 3.001279 C 0.797149 3.001279 1.559649 2.682529 2.122149 2.120029 C 2.684649 1.557529 3.000274 0.795029 3.000274 0.001279 C 3.000274 -0.795596 2.684649 -1.558096 2.122149 -2.120596 C 1.559649 -2.683096 0.797149 -2.998721 0.000274 -2.998721 C -0.796601 -2.998721 -1.559101 -2.683096 -2.121601 -2.120596 C -2.684101 -1.558096 -2.999726 -0.795596 -2.999726 0.001279 C -2.999726 0.795029 -2.684101 1.557529 -2.121601 2.120029 C -1.559101 2.682529 -0.796601 3.001279 0.000274 3.001279 Z M 0.000274 3.001279 " transform="matrix(1.25,0,0,1.25,59.105126,152.82262)"/>
<path style="fill-rule:nonzero;fill:rgb(100%,49.803922%,5.490196%);fill-opacity:0.501961;stroke-width:1;stroke-linecap:butt;stroke-linejoin:round;stroke:rgb(100%,49.803922%,5.490196%);stroke-opacity:0.501961;stroke-miterlimit:4;" d="M -0.000266 3.001439 C 0.796609 3.001439 1.559109 2.682689 2.121609 2.120189 C 2.684109 1.557689 2.999734 0.795189 2.999734 0.001439 C 2.999734 -0.795436 2.684109 -1.557936 2.121609 -2.120436 C 1.559109 -2.682936 0.796609 -2.998561 -0.000266 -2.998561 C -0.797141 -2.998561 -1.559641 -2.682936 -2.122141 -2.120436 C -2.684641 -1.557936 -3.000266 -0.795436 -3.000266 0.001439 C -3.000266 0.795189 -2.684641 1.557689 -2.122141 2.120189 C -1.559641 2.682689 -0.797141 3.001439 -0.000266 3.001439 Z M -0.000266 3.001439 " transform="matrix(1.25,0,0,1.25,59.508145,138.892732)"/>
<path style="fill-rule:nonzero;fill:rgb(100%,49.803922%,5.490196%);fill-opacity:0.501961;stroke-width:1;stroke-linecap:butt;stroke-linejoin:round;stroke:rgb(100%,49.803922%,5.490196%);stroke-opacity:0.501961;stroke-miterlimit:4;" d="M -0.001435 2.998551 C 0.79544 2.998551 1.55794 2.682926 2.12044 2.120426 C 2.68294 1.557926 2.998565 0.795426 2.998565 -0.001449 C 2.998565 -0.795199 2.68294 -1.557699 2.12044 -2.120199 C 1.55794 -2.682699 0.79544 -3.001449 -0.001435 -3.001449 C -0.795185 -3.001449 -1.557685 -2.682699 -2.120185 -2.120199 C -2.682685 -1.557699 -3.001435 -0.795199 -3.001435 -0.001449 C -3.001435 0.795426 -2.682685 1.557926 -2.120185 2.120426 C -1.557685 2.682926 -0.795185 2.998551 -0.001435 2.998551 Z M -0.001435 2.998551 " transform="matrix(1.25,0,0,1.25,64.658044,153.005717)"/>
<path style="fill-rule:nonzero;fill:rgb(100%,49.803922%,5.490196%);fill-opacity:0.501961;stroke-width:1;stroke-linecap:butt;stroke-linejoin:round;stroke:rgb(100%,49.803922%,5.490196%);stroke-opacity:0.501961;stroke-miterlimit:4;" d="M -0.000861 3.000395 C 0.796014 3.000395 1.558514 2.68477 2.121014 2.12227 C 2.683514 1.55977 2.999139 0.794145 2.999139 0.000395 C 2.999139 -0.79648 2.683514 -1.55898 2.121014 -2.12148 C 1.558514 -2.68398 0.796014 -2.999605 -0.000861 -2.999605 C -0.794611 -2.999605 -1.560236 -2.68398 -2.122736 -2.12148 C -2.685236 -1.55898 -3.000861 -0.79648 -3.000861 0.000395 C -3.000861 0.794145 -2.685236 1.55977 -2.122736 2.12227 C -1.560236 2.68477 -0.794611 3.000395 -0.000861 3.000395 Z M -0.000861 3.000395 " transform="matrix(1.25,0,0,1.25,65.419045,160.737787)"/>
<path style="fill-rule:nonzero;fill:rgb(100%,49.803922%,5.490196%);fill-opacity:0.501961;stroke-width:1;stroke-linecap:butt;stroke-linejoin:round;stroke:rgb(100%,49.803922%,5.490196%);stroke-opacity:0.501961;stroke-miterlimit:4;" d="M 0.001198 2.99966 C 0.794948 2.99966 1.557448 2.684035 2.119948 2.121535 C 2.682448 1.559035 3.001198 0.796535 3.001198 -0.00034 C 3.001198 -0.79409 2.682448 -1.559715 2.119948 -2.122215 C 1.557448 -2.684715 0.794948 -3.00034 0.001198 -3.00034 C -0.795677 -3.00034 -1.558177 -2.684715 -2.120677 -2.122215 C -2.683177 -1.559715 -2.998802 -0.79409 -2.998802 -0.00034 C -2.998802 0.796535 -2.683177 1.559035 -2.120677 2.121535 C -1.558177 2.684035 -0.795677 2.99966 0.001198 2.99966 Z M 0.001198 2.99966 " transform="matrix(1.25,0,0,1.25,66.86569,119.508237)"/>
<path style="fill-rule:nonzero;fill:rgb(100%,49.803922%,5.490196%);fill-opacity:0.501961;stroke-width:1;stroke-linecap:butt;stroke-linejoin:round;stroke:rgb(100%,49.803922%,5.490196%);stroke-opacity:0.501961;stroke-miterlimit:4;" d="M -0.001559 3.00131 C 0.795316 3.00131 1.557816 2.68256 2.120316 2.12006 C 2.682816 1.55756 2.998441 0.79506 2.998441 0.00131 C 2.998441 -0.795565 2.682816 -1.558065 2.120316 -2.120565 C 1.557816 -2.683065 0.795316 -2.99869 -0.001559 -2.99869 C -0.795309 -2.99869 -1.557809 -2.683065 -2.120309 -2.120565 C -2.682809 -1.558065 -3.001559 -0.795565 -3.001559 0.00131 C -3.001559 0.79506 -2.682809 1.55756 -2.120309 2.12006 C -1.557809 2.68256 -0.795309 3.00131 -0.001559 3.00131 Z M -0.001559 3.00131 " transform="matrix(1.25,0,0,1.25,69.373042,118.55305)"/>
<path style="fill-rule:nonzero;fill:rgb(100%,49.803922%,5.490196%);fill-opacity:0.501961;stroke-width:1;stroke-linecap:butt;stroke-linejoin:round;stroke:rgb(100%,49.803922%,5.490196%);stroke-opacity:0.501961;stroke-miterlimit:4;" d="M 0.000665 3.000671 C 0.794415 3.000671 1.56004 2.685046 2.12254 2.122546 C 2.68504 1.560046 3.000665 0.794421 3.000665 0.000671 C 3.000665 -0.796204 2.68504 -1.558704 2.12254 -2.121204 C 1.56004 -2.683704 0.794415 -2.999329 0.000665 -2.999329 C -0.79621 -2.999329 -1.55871 -2.683704 -2.12121 -2.121204 C -2.68371 -1.558704 -2.999335 -0.796204 -2.999335 0.000671 C -2.999335 0.794421 -2.68371 1.560046 -2.12121 2.122546 C -1.55871 2.685046 -0.79621 3.000671 0.000665 3.000671 Z M 0.000665 3.000671 " transform="matrix(1.25,0,0,1.25,73.98745,130.991349)"/>
<path style="fill-rule:nonzero;fill:rgb(100%,49.803922%,5.490196%);fill-opacity:0.501961;stroke-width:1;stroke-linecap:butt;stroke-linejoin:round;stroke:rgb(100%,49.803922%,5.490196%);stroke-opacity:0.501961;stroke-miterlimit:4;" d="M -0.001469 2.999316 C 0.795406 2.999316 1.557906 2.683691 2.120406 2.121191 C 2.682906 1.558691 2.998531 0.796191 2.998531 -0.000684 C 2.998531 -0.794434 2.682906 -1.560059 2.120406 -2.122559 C 1.557906 -2.685059 0.795406 -3.000684 -0.001469 -3.000684 C -0.795219 -3.000684 -1.557719 -2.685059 -2.120219 -2.122559 C -2.682719 -1.560059 -3.001469 -0.794434 -3.001469 -0.000684 C -3.001469 0.796191 -2.682719 1.558691 -2.120219 2.121191 C -1.557719 2.683691 -0.795219 2.999316 -0.001469 2.999316 Z M -0.001469 2.999316 " transform="matrix(1.25,0,0,1.25,83.005742,123.532105)"/>
<path style="fill-rule:nonzero;fill:rgb(100%,49.803922%,5.490196%);fill-opacity:0.501961;stroke-width:1;stroke-linecap:butt;stroke-linejoin:round;stroke:rgb(100%,49.803922%,5.490196%);stroke-opacity:0.501961;stroke-miterlimit:4;" d="M -0.0002 3.000371 C 0.796675 3.000371 1.559175 2.684746 2.121675 2.122246 C 2.684175 1.559746 2.9998 0.794121 2.9998 0.000371 C 2.9998 -0.796504 2.684175 -1.559004 2.121675 -2.121504 C 1.559175 -2.684004 0.796675 -2.999629 -0.0002 -2.999629 C -0.797075 -2.999629 -1.559575 -2.684004 -2.122075 -2.121504 C -2.684575 -1.559004 -3.0002 -0.796504 -3.0002 0.000371 C -3.0002 0.794121 -2.684575 1.559746 -2.122075 2.122246 C -1.559575 2.684746 -0.797075 3.000371 -0.0002 3.000371 Z M -0.0002 3.000371 " transform="matrix(1.25,0,0,1.25,86.422125,94.12063)"/>
<path style="fill-rule:nonzero;fill:rgb(100%,49.803922%,5.490196%);fill-opacity:0.501961;stroke-width:1;stroke-linecap:butt;stroke-linejoin:round;stroke:rgb(100%,49.803922%,5.490196%);stroke-opacity:0.501961;stroke-miterlimit:4;" d="M -0.000241 3.001559 C 0.796634 3.001559 1.559134 2.682809 2.121634 2.120309 C 2.684134 1.557809 2.999759 0.795309 2.999759 0.001559 C 2.999759 -0.795316 2.684134 -1.557816 2.121634 -2.120316 C 1.559134 -2.682816 0.796634 -2.998441 -0.000241 -2.998441 C -0.797116 -2.998441 -1.559616 -2.682816 -2.122116 -2.120316 C -2.684616 -1.557816 -3.000241 -0.795316 -3.000241 0.001559 C -3.000241 0.795309 -2.684616 1.557809 -2.122116 2.120309 C -1.559616 2.682809 -0.797116 3.001559 -0.000241 3.001559 Z M -0.000241 3.001559 " transform="matrix(1.25,0,0,1.25,87.16827,112.314457)"/>
<path style="fill-rule:nonzero;fill:rgb(100%,49.803922%,5.490196%);fill-opacity:0.501961;stroke-width:1;stroke-linecap:butt;stroke-linejoin:round;stroke:rgb(100%,49.803922%,5.490196%);stroke-opacity:0.501961;stroke-miterlimit:4;" d="M -0.001558 2.99861 C 0.795317 2.99861 1.557817 2.682985 2.120317 2.120485 C 2.682817 1.557985 2.998442 0.795485 2.998442 -0.00139 C 2.998442 -0.79514 2.682817 -1.55764 2.120317 -2.12014 C 1.557817 -2.68264 0.795317 -3.00139 -0.001558 -3.00139 C -0.795308 -3.00139 -1.557808 -2.68264 -2.120308 -2.12014 C -2.682808 -1.55764 -3.001558 -0.79514 -3.001558 -0.00139 C -3.001558 0.795485 -2.682808 1.557985 -2.120308 2.120485 C -1.557808 2.682985 -0.795308 2.99861 -0.001558 2.99861 Z M -0.001558 2.99861 " transform="matrix(1.25,0,0,1.25,93.037104,114.82205)"/>
<path style="fill-rule:nonzero;fill:rgb(100%,49.803922%,5.490196%);fill-opacity:0.501961;stroke-width:1;stroke-linecap:butt;stroke-linejoin:round;stroke:rgb(100%,49.803922%,5.490196%);stroke-opacity:0.501961;stroke-miterlimit:4;" d="M 0.001183 2.999882 C 0.794933 2.999882 1.557433 2.684257 2.119933 2.121757 C 2.682433 1.559257 3.001183 0.796757 3.001183 -0.000118 C 3.001183 -0.796993 2.682433 -1.559493 2.119933 -2.121993 C 1.557433 -2.684493 0.794933 -3.000118 0.001183 -3.000118 C -0.795692 -3.000118 -1.558192 -2.684493 -2.120692 -2.121993 C -2.683192 -1.559493 -2.998817 -0.796993 -2.998817 -0.000118 C -2.998817 0.796757 -2.683192 1.559257 -2.120692 2.121757 C -1.558192 2.684257 -0.795692 2.999882 0.001183 2.999882 Z M 0.001183 2.999882 " transform="matrix(1.25,0,0,1.25,94.893052,78.925929)"/>
<path style="fill-rule:nonzero;fill:rgb(100%,49.803922%,5.490196%);fill-opacity:0.501961;stroke-width:1;stroke-linecap:butt;stroke-linejoin:round;stroke:rgb(100%,49.803922%,5.490196%);stroke-opacity:0.501961;stroke-miterlimit:4;" d="M 0.000896 3.001116 C 0.794646 3.001116 1.560271 2.682366 2.122771 2.119866 C 2.685271 1.557366 3.000896 0.794866 3.000896 0.001116 C 3.000896 -0.795759 2.685271 -1.558259 2.122771 -2.120759 C 1.560271 -2.683259 0.794646 -2.998884 0.000896 -2.998884 C -0.795979 -2.998884 -1.558479 -2.683259 -2.120979 -2.120759 C -2.683479 -1.558259 -2.999104 -0.795759 -2.999104 0.001116 C -2.999104 0.794866 -2.683479 1.557366 -2.120979 2.119866 C -1.558479 2.682366 -0.795979 3.001116 0.000896 3.001116 Z M 0.000896 3.001116 " transform="matrix(1.25,0,0,1.25,95.233255,112.068917)"/>
<path style="fill-rule:nonzero;fill:rgb(100%,49.803922%,5.490196%);fill-opacity:0.501961;stroke-width:1;stroke-linecap:butt;stroke-linejoin:round;stroke:rgb(100%,49.803922%,5.490196%);stroke-opacity:0.501961;stroke-miterlimit:4;" d="M 0.001357 2.999441 C 0.795107 2.999441 1.557607 2.683816 2.120107 2.121316 C 2.682607 1.558816 3.001357 0.796316 3.001357 -0.000559 C 3.001357 -0.794309 2.682607 -1.559934 2.120107 -2.122434 C 1.557607 -2.684934 0.795107 -3.000559 0.001357 -3.000559 C -0.795518 -3.000559 -1.558018 -2.684934 -2.120518 -2.122434 C -2.683018 -1.559934 -2.998643 -0.794309 -2.998643 -0.000559 C -2.998643 0.796316 -2.683018 1.558816 -2.120518 2.121316 C -1.558018 2.683816 -0.795518 2.999441 0.001357 2.999441 Z M 0.001357 2.999441 " transform="matrix(1.25,0,0,1.25,106.498304,94.473355)"/>
<path style="fill-rule:nonzero;fill:rgb(100%,49.803922%,5.490196%);fill-opacity:0.501961;stroke-width:1;stroke-linecap:butt;stroke-linejoin:round;stroke:rgb(100%,49.803922%,5.490196%);stroke-opacity:0.501961;stroke-miterlimit:4;" d="M -0.000809 3.001428 C 0.796066 3.001428 1.558566 2.682678 2.121066 2.120178 C 2.683566 1.557678 2.999191 0.795178 2.999191 0.001428 C 2.999191 -0.795447 2.683566 -1.557947 2.121066 -2.120447 C 1.558566 -2.682947 0.796066 -2.998572 -0.000809 -2.998572 C -0.794559 -2.998572 -1.560184 -2.682947 -2.122684 -2.120447 C -2.685184 -1.557947 -3.000809 -0.795447 -3.000809 0.001428 C -3.000809 0.795178 -2.685184 1.557678 -2.122684 2.120178 C -1.560184 2.682678 -0.794559 3.001428 -0.000809 3.001428 Z M -0.000809 3.001428 " transform="matrix(1.25,0,0,1.25,106.848667,74.494309)"/>
<path style="fill-rule:nonzero;fill:rgb(100%,49.803922%,5.490196%);fill-opacity:0.501961;stroke-width:1;stroke-linecap:butt;stroke-linejoin:round;stroke:rgb(100%,49.803922%,5.490196%);stroke-opacity:0.501961;stroke-miterlimit:4;" d="M 0.00105 3.001214 C 0.7948 3.001214 1.5573 2.682464 2.1198 2.119964 C 2.685425 1.557464 3.00105 0.794964 3.00105 0.001214 C 3.00105 -0.795661 2.685425 -1.558161 2.1198 -2.120661 C 1.5573 -2.683161 0.7948 -2.998786 0.00105 -2.998786 C -0.795825 -2.998786 -1.558325 -2.683161 -2.120825 -2.120661 C -2.683325 -1.558161 -2.99895 -0.795661 -2.99895 0.001214 C -2.99895 0.794964 -2.683325 1.557464 -2.120825 2.119964 C -1.558325 2.682464 -0.795825 3.001214 0.00105 3.001214 Z M 0.00105 3.001214 " transform="matrix(1.25,0,0,1.25,107.178375,101.643014)"/>
<path style="fill-rule:nonzero;fill:rgb(100%,49.803922%,5.490196%);fill-opacity:0.501961;stroke-width:1;stroke-linecap:butt;stroke-linejoin:round;stroke:rgb(100%,49.803922%,5.490196%);stroke-opacity:0.501961;stroke-miterlimit:4;" d="M -0.001555 3.001556 C 0.79532 3.001556 1.55782 2.682806 2.12032 2.120306 C 2.68282 1.557806 2.998445 0.795306 2.998445 0.001556 C 2.998445 -0.795319 2.68282 -1.557819 2.12032 -2.120319 C 1.55782 -2.682819 0.79532 -2.998444 -0.001555 -2.998444 C -0.795305 -2.998444 -1.557805 -2.682819 -2.120305 -2.120319 C -2.682805 -1.557819 -3.001555 -0.795319 -3.001555 0.001556 C -3.001555 0.795306 -2.682805 1.557806 -2.120305 2.120306 C -1.557805 2.682806 -0.795305 3.001556 -0.001555 3.001556 Z M -0.001555 3.001556 " transform="matrix(1.25,0,0,1.25,108.208975,65.369149)"/>
<path style="fill-rule:nonzero;fill:rgb(100%,49.803922%,5.490196%);fill-opacity:0.501961;stroke-width:1;stroke-linecap:butt;stroke-linejoin:round;stroke:rgb(100%,49.803922%,5.490196%);stroke-opacity:0.501961;stroke-miterlimit:4;" d="M 0.000727 3.000442 C 0.794477 3.000442 1.560102 2.684817 2.122602 2.122317 C 2.685102 1.559817 3.000727 0.794192 3.000727 0.000442 C 3.000727 -0.796433 2.685102 -1.558933 2.122602 -2.121433 C 1.560102 -2.683933 0.794477 -2.999558 0.000727 -2.999558 C -0.796148 -2.999558 -1.558648 -2.683933 -2.121148 -2.121433 C -2.683648 -1.558933 -2.999273 -0.796433 -2.999273 0.000442 C -2.999273 0.794192 -2.683648 1.559817 -2.121148 2.122317 C -1.558648 2.684817 -0.796148 3.000442 0.000727 3.000442 Z M 0.000727 3.000442 " transform="matrix(1.25,0,0,1.25,109.780341,87.679135)"/>
<path style="fill-rule:nonzero;fill:rgb(100%,49.803922%,5.490196%);fill-opacity:0.501961;stroke-width:1;stroke-linecap:butt;stroke-linejoin:round;stroke:rgb(100%,49.803922%,5.490196%);stroke-opacity:0.501961;stroke-miterlimit:4;" d="M -0.001519 2.99968 C 0.795356 2.99968 1.557856 2.684055 2.120356 2.121555 C 2.682856 1.559055 2.998481 0.796555 2.998481 -0.00032 C 2.998481 -0.79407 2.682856 -1.559695 2.120356 -2.122195 C 1.557856 -2.684695 0.795356 -3.00032 -0.001519 -3.00032 C -0.795269 -3.00032 -1.557769 -2.684695 -2.120269 -2.122195 C -2.682769 -1.559695 -3.001519 -0.79407 -3.001519 -0.00032 C -3.001519 0.796555 -2.682769 1.559055 -2.120269 2.121555 C -1.557769 2.684055 -0.795269 2.99968 -0.001519 2.99968 Z M -0.001519 2.99968 " transform="matrix(1.25,0,0,1.25,116.513617,58.46915)"/>
<path style="fill-rule:nonzero;fill:rgb(100%,49.803922%,5.490196%);fill-opacity:0.501961;stroke-width:1;stroke-linecap:butt;stroke-linejoin:round;stroke:rgb(100%,49.803922%,5.490196%);stroke-opacity:0.501961;stroke-miterlimit:4;" d="M 0.000203 3.000847 C 0.797078 3.000847 1.559578 2.685222 2.122078 2.122722 C 2.684578 1.560222 3.000203 0.794597 3.000203 0.000847 C 3.000203 -0.796028 2.684578 -1.558528 2.122078 -2.121028 C 1.559578 -2.683528 0.797078 -2.999153 0.000203 -2.999153 C -0.796672 -2.999153 -1.559172 -2.683528 -2.121672 -2.121028 C -2.684172 -1.558528 -2.999797 -0.796028 -2.999797 0.000847 C -2.999797 0.794597 -2.684172 1.560222 -2.121672 2.122722 C -1.559172 2.685222 -0.796672 3.000847 0.000203 3.000847 Z M 0.000203 3.000847 " transform="matrix(1.25,0,0,1.25,121.405996,57.57316)"/>
<path style="fill-rule:nonzero;fill:rgb(100%,49.803922%,5.490196%);fill-opacity:0.501961;stroke-width:1;stroke-linecap:butt;stroke-linejoin:round;stroke:rgb(100%,49.803922%,5.490196%);stroke-opacity:0.501961;stroke-miterlimit:4;" d="M -0.001528 3.001269 C 0.795347 3.001269 1.557847 2.682519 2.120347 2.120019 C 2.682847 1.557519 2.998472 0.795019 2.998472 0.001269 C 2.998472 -0.795606 2.682847 -1.558106 2.120347 -2.120606 C 1.557847 -2.683106 0.795347 -2.998731 -0.001528 -2.998731 C -0.795278 -2.998731 -1.557778 -2.683106 -2.120278 -2.120606 C -2.682778 -1.558106 -3.001528 -0.795606 -3.001528 0.001269 C -3.001528 0.795019 -2.682778 1.557519 -2.120278 2.120019 C -1.557778 2.682519 -0.795278 3.001269 -0.001528 3.001269 Z M -0.001528 3.001269 " transform="matrix(1.25,0,0,1.25,127.673785,78.646851)"/>
<path style="fill-rule:nonzero;fill:rgb(100%,49.803922%,5.490196%);fill-opacity:0.501961;stroke-width:1;stroke-linecap:butt;stroke-linejoin:round;stroke:rgb(100%,49.803922%,5.490196%);stroke-opacity:0.501961;stroke-miterlimit:4;" d="M -0.001086 3.001186 C 0.795789 3.001186 1.558289 2.682436 2.120789 2.119936 C 2.683289 1.557436 2.998914 0.794936 2.998914 0.001186 C 2.998914 -0.795689 2.683289 -1.558189 2.120789 -2.120689 C 1.558289 -2.683189 0.795789 -2.998814 -0.001086 -2.998814 C -0.794836 -2.998814 -1.557336 -2.683189 -2.119836 -2.120689 C -2.685461 -1.558189 -3.001086 -0.795689 -3.001086 0.001186 C -3.001086 0.794936 -2.685461 1.557436 -2.119836 2.119936 C -1.557336 2.682436 -0.794836 3.001186 -0.001086 3.001186 Z M -0.001086 3.001186 " transform="matrix(1.25,0,0,1.25,133.817764,81.268049)"/>
<path style="fill-rule:nonzero;fill:rgb(100%,49.803922%,5.490196%);fill-opacity:0.501961;stroke-width:1;stroke-linecap:butt;stroke-linejoin:round;stroke:rgb(100%,49.803922%,5.490196%);stroke-opacity:0.501961;stroke-miterlimit:4;" d="M 0.000497 3.000741 C 0.794247 3.000741 1.559872 2.685116 2.122372 2.122616 C 2.684872 1.560116 3.000497 0.794491 3.000497 0.000741 C 3.000497 -0.796134 2.684872 -1.558634 2.122372 -2.121134 C 1.559872 -2.683634 0.794247 -2.999259 0.000497 -2.999259 C -0.796378 -2.999259 -1.558878 -2.683634 -2.121378 -2.121134 C -2.683878 -1.558634 -2.999503 -0.796134 -2.999503 0.000741 C -2.999503 0.794491 -2.683878 1.560116 -2.121378 2.122616 C -1.558878 2.685116 -0.796378 3.000741 0.000497 3.000741 Z M 0.000497 3.000741 " transform="matrix(1.25,0,0,1.25,138.952504,28.526417)"/>
<path style="fill-rule:nonzero;fill:rgb(100%,49.803922%,5.490196%);fill-opacity:0.501961;stroke-width:1;stroke-linecap:butt;stroke-linejoin:round;stroke:rgb(100%,49.803922%,5.490196%);stroke-opacity:0.501961;stroke-miterlimit:4;" d="M -0.000413 2.999959 C 0.796462 2.999959 1.558962 2.684334 2.121462 2.121834 C 2.683962 1.559334 2.999587 0.796834 2.999587 -0.000041 C 2.999587 -0.796916 2.683962 -1.559416 2.121462 -2.121916 C 1.558962 -2.684416 0.796462 -3.000041 -0.000413 -3.000041 C -0.794163 -3.000041 -1.559788 -2.684416 -2.122288 -2.121916 C -2.684788 -1.559416 -3.000413 -0.796916 -3.000413 -0.000041 C -3.000413 0.796834 -2.684788 1.559334 -2.122288 2.121834 C -1.559788 2.684334 -0.794163 2.999959 -0.000413 2.999959 Z M -0.000413 2.999959 " transform="matrix(1.25,0,0,1.25,150.430204,66.558645)"/>
<path style="fill-rule:nonzero;fill:rgb(100%,49.803922%,5.490196%);fill-opacity:0.501961;stroke-width:1;stroke-linecap:butt;stroke-linejoin:round;stroke:rgb(100%,49.803922%,5.490196%);stroke-opacity:0.501961;stroke-miterlimit:4;" d="M -0.000425 2.999972 C 0.79645 2.999972 1.55895 2.684347 2.12145 2.121847 C 2.68395 1.559347 2.999575 0.796847 2.999575 -0.000028 C 2.999575 -0.796903 2.68395 -1.559403 2.12145 -2.121903 C 1.55895 -2.684403 0.79645 -3.000028 -0.000425 -3.000028 C -0.794175 -3.000028 -1.5598 -2.684403 -2.1223 -2.121903 C -2.6848 -1.559403 -3.000425 -0.796903 -3.000425 -0.000028 C -3.000425 0.796847 -2.6848 1.559347 -2.1223 2.121847 C -1.5598 2.684347 -0.794175 2.999972 -0.000425 2.999972 Z M -0.000425 2.999972 " transform="matrix(1.25,0,0,1.25,156.406781,40.003941)"/>
<path style="fill-rule:nonzero;fill:rgb(100%,49.803922%,5.490196%);fill-opacity:0.501961;stroke-width:1;stroke-linecap:butt;stroke-linejoin:round;stroke:rgb(100%,49.803922%,5.490196%);stroke-opacity:0.501961;stroke-miterlimit:4;" d="M -0.000659 3.000946 C 0.796216 3.000946 1.558716 2.685321 2.121216 2.122821 C 2.683716 1.557196 2.999341 0.794696 2.999341 0.000946 C 2.999341 -0.795929 2.683716 -1.558429 2.121216 -2.120929 C 1.558716 -2.683429 0.796216 -2.999054 -0.000659 -2.999054 C -0.794409 -2.999054 -1.560034 -2.683429 -2.122534 -2.120929 C -2.685034 -1.558429 -3.000659 -0.795929 -3.000659 0.000946 C -3.000659 0.794696 -2.685034 1.557196 -2.122534 2.122821 C -1.560034 2.685321 -0.794409 3.000946 -0.000659 3.000946 Z M -0.000659 3.000946 " transform="matrix(1.25,0,0,1.25,162.778167,81.889442)"/>
<path style="fill-rule:nonzero;fill:rgb(100%,49.803922%,5.490196%);fill-opacity:0.501961;stroke-width:1;stroke-linecap:butt;stroke-linejoin:round;stroke:rgb(100%,49.803922%,5.490196%);stroke-opacity:0.501961;stroke-miterlimit:4;" d="M 0.000926 2.998907 C 0.794676 2.998907 1.560301 2.683282 2.122801 2.120782 C 2.685301 1.558282 3.000926 0.795782 3.000926 -0.001093 C 3.000926 -0.794843 2.685301 -1.557343 2.122801 -2.119843 C 1.560301 -2.682343 0.794676 -3.001093 0.000926 -3.001093 C -0.795949 -3.001093 -1.558449 -2.682343 -2.120949 -2.119843 C -2.683449 -1.557343 -2.999074 -0.794843 -2.999074 -0.001093 C -2.999074 0.795782 -2.683449 1.558282 -2.120949 2.120782 C -1.558449 2.683282 -0.795949 2.998907 0.000926 2.998907 Z M 0.000926 2.998907 " transform="matrix(1.25,0,0,1.25,165.580874,82.032616)"/>
<path style="fill-rule:nonzero;fill:rgb(100%,49.803922%,5.490196%);fill-opacity:0.501961;stroke-width:1;stroke-linecap:butt;stroke-linejoin:round;stroke:rgb(100%,49.803922%,5.490196%);stroke-opacity:0.501961;stroke-miterlimit:4;" d="M -0.000748 2.99889 C 0.796127 2.99889 1.558627 2.683265 2.121127 2.120765 C 2.683627 1.558265 2.999252 0.795765 2.999252 -0.00111 C 2.999252 -0.79486 2.683627 -1.55736 2.121127 -2.11986 C 1.558627 -2.68236 0.796127 -3.00111 -0.000748 -3.00111 C -0.794498 -3.00111 -1.560123 -2.68236 -2.122623 -2.11986 C -2.685123 -1.55736 -3.000748 -0.79486 -3.000748 -0.00111 C -3.000748 0.795765 -2.685123 1.558265 -2.122623 2.120765 C -1.560123 2.683265 -0.794498 2.99889 -0.000748 2.99889 Z M -0.000748 2.99889 " transform="matrix(1.25,0,0,1.25,167.911091,54.087325)"/>
<path style="fill-rule:nonzero;fill:rgb(100%,49.803922%,5.490196%);fill-opacity:0.501961;stroke-width:1;stroke-linecap:butt;stroke-linejoin:round;stroke:rgb(100%,49.803922%,5.490196%);stroke-opacity:0.501961;stroke-miterlimit:4;" d="M 0.001083 2.999801 C 0.794833 2.999801 1.557333 2.684176 2.119833 2.121676 C 2.685458 1.559176 3.001083 0.796676 3.001083 -0.000199 C 3.001083 -0.797074 2.685458 -1.559574 2.119833 -2.122074 C 1.557333 -2.684574 0.794833 -3.000199 0.001083 -3.000199 C -0.795792 -3.000199 -1.558292 -2.684574 -2.120792 -2.122074 C -2.683292 -1.559574 -2.998917 -0.797074 -2.998917 -0.000199 C -2.998917 0.796676 -2.683292 1.559176 -2.120792 2.121676 C -1.558292 2.684176 -0.795792 2.999801 0.001083 2.999801 Z M 0.001083 2.999801 " transform="matrix(1.25,0,0,1.25,174.71349,57.234624)"/>
<path style="fill-rule:nonzero;fill:rgb(100%,49.803922%,5.490196%);fill-opacity:0.501961;stroke-width:1;stroke-linecap:butt;stroke-linejoin:round;stroke:rgb(100%,49.803922%,5.490196%);stroke-opacity:0.501961;stroke-miterlimit:4;" d="M -0.001112 2.999376 C 0.795763 2.999376 1.558263 2.683751 2.120763 2.121251 C 2.683263 1.558751 2.998888 0.796251 2.998888 -0.000624 C 2.998888 -0.794374 2.683263 -1.559999 2.120763 -2.122499 C 1.558263 -2.684999 0.795763 -3.000624 -0.001112 -3.000624 C -0.794862 -3.000624 -1.557362 -2.684999 -2.119862 -2.122499 C -2.682362 -1.559999 -3.001112 -0.794374 -3.001112 -0.000624 C -3.001112 0.796251 -2.682362 1.558751 -2.119862 2.121251 C -1.557362 2.683751 -0.794862 2.999376 -0.001112 2.999376 Z M -0.001112 2.999376 " transform="matrix(1.25,0,0,1.25,197.087327,92.918749)"/>
<path style="fill-rule:nonzero;fill:rgb(100%,49.803922%,5.490196%);fill-opacity:0.501961;stroke-width:1;stroke-linecap:butt;stroke-linejoin:round;stroke:rgb(100%,49.803922%,5.490196%);stroke-opacity:0.501961;stroke-miterlimit:4;" d="M -0.000214 3.001115 C 0.796661 3.001115 1.559161 2.682365 2.121661 2.119865 C 2.684161 1.557365 2.999786 0.794865 2.999786 0.001115 C 2.999786 -0.79576 2.684161 -1.55826 2.121661 -2.12076 C 1.559161 -2.68326 0.796661 -2.998885 -0.000214 -2.998885 C -0.797089 -2.998885 -1.559589 -2.68326 -2.122089 -2.12076 C -2.684589 -1.55826 -3.000214 -0.79576 -3.000214 0.001115 C -3.000214 0.794865 -2.684589 1.557365 -2.122089 2.119865 C -1.559589 2.682365 -0.797089 3.001115 -0.000214 3.001115 Z M -0.000214 3.001115 " transform="matrix(1.25,0,0,1.25,207.265893,95.592356)"/>
<path style="fill-rule:nonzero;fill:rgb(100%,49.803922%,5.490196%);fill-opacity:0.501961;stroke-width:1;stroke-linecap:butt;stroke-linejoin:round;stroke:rgb(100%,49.803922%,5.490196%);stroke-opacity:0.501961;stroke-miterlimit:4;" d="M -0.000697 2.998826 C 0.796178 2.998826 1.558678 2.683201 2.121178 2.120701 C 2.683678 1.558201 2.999303 0.795701 2.999303 -0.001174 C 2.999303 -0.794924 2.683678 -1.557424 2.121178 -2.119924 C 1.558678 -2.682424 0.796178 -3.001174 -0.000697 -3.001174 C -0.794447 -3.001174 -1.560072 -2.682424 -2.122572 -2.119924 C -2.685072 -1.557424 -3.000697 -0.794924 -3.000697 -0.001174 C -3.000697 0.795701 -2.685072 1.558201 -2.122572 2.120701 C -1.560072 2.683201 -0.794447 2.998826 -0.000697 2.998826 Z M -0.000697 2.998826 " transform="matrix(1.25,0,0,1.25,214.399309,41.677249)"/>
<path style="fill-rule:nonzero;fill:rgb(100%,49.803922%,5.490196%);fill-opacity:0.501961;stroke-width:1;stroke-linecap:butt;stroke-linejoin:round;stroke:rgb(100%,49.803922%,5.490196%);stroke-opacity:0.501961;stroke-miterlimit:4;" d="M 0.001398 2.9994 C 0.795148 2.9994 1.557648 2.683775 2.120148 2.121275 C 2.682648 1.558775 3.001398 0.796275 3.001398 -0.0006 C 3.001398 -0.79435 2.682648 -1.559975 2.120148 -2.122475 C 1.557648 -2.684975 0.795148 -3.0006 0.001398 -3.0006 C -0.795477 -3.0006 -1.557977 -2.684975 -2.120477 -2.122475 C -2.682977 -1.559975 -2.998602 -0.79435 -2.998602 -0.0006 C -2.998602 0.796275 -2.682977 1.558775 -2.120477 2.121275 C -1.557977 2.683775 -0.795477 2.9994 0.001398 2.9994 Z M 0.001398 2.9994 " transform="matrix(1.25,0,0,1.25,219.974815,105.407)"/>
<path style="fill-rule:nonzero;fill:rgb(100%,49.803922%,5.490196%);fill-opacity:0.501961;stroke-width:1;stroke-linecap:butt;stroke-linejoin:round;stroke:rgb(100%,49.803922%,5.490196%);stroke-opacity:0.501961;stroke-miterlimit:4;" d="M 0.001302 3.001282 C 0.795052 3.001282 1.557552 2.682532 2.120052 2.120032 C 2.682552 1.557532 3.001302 0.795032 3.001302 0.001282 C 3.001302 -0.795593 2.682552 -1.558093 2.120052 -2.120593 C 1.557552 -2.683093 0.795052 -2.998718 0.001302 -2.998718 C -0.795573 -2.998718 -1.558073 -2.683093 -2.120573 -2.120593 C -2.683073 -1.558093 -2.998698 -0.795593 -2.998698 0.001282 C -2.998698 0.795032 -2.683073 1.557532 -2.120573 2.120032 C -1.558073 2.682532 -0.795573 3.001282 0.001302 3.001282 Z M 0.001302 3.001282 " transform="matrix(1.25,0,0,1.25,221.02181,105.154647)"/>
<path style="fill-rule:nonzero;fill:rgb(100%,49.803922%,5.490196%);fill-opacity:0.501961;stroke-width:1;stroke-linecap:butt;stroke-linejoin:round;stroke:rgb(100%,49.803922%,5.490196%);stroke-opacity:0.501961;stroke-miterlimit:4;" d="M -0.000784 2.998613 C 0.796091 2.998613 1.558591 2.682988 2.121091 2.120488 C 2.683591 1.557988 2.999216 0.795488 2.999216 -0.001387 C 2.999216 -0.795137 2.683591 -1.557637 2.121091 -2.120137 C 1.558591 -2.682637 0.796091 -3.001387 -0.000784 -3.001387 C -0.794534 -3.001387 -1.560159 -2.682637 -2.122659 -2.120137 C -2.685159 -1.557637 -3.000784 -0.795137 -3.000784 -0.001387 C -3.000784 0.795488 -2.685159 1.557988 -2.122659 2.120488 C -1.560159 2.682988 -0.794534 2.998613 -0.000784 2.998613 Z M -0.000784 2.998613 " transform="matrix(1.25,0,0,1.25,223.28223,83.681421)"/>
<path style="fill-rule:nonzero;fill:rgb(100%,49.803922%,5.490196%);fill-opacity:0.501961;stroke-width:1;stroke-linecap:butt;stroke-linejoin:round;stroke:rgb(100%,49.803922%,5.490196%);stroke-opacity:0.501961;stroke-miterlimit:4;" d="M -0.00079 3.000313 C 0.796085 3.000313 1.558585 2.684688 2.121085 2.122188 C 2.683585 1.559688 2.99921 0.794063 2.99921 0.000313 C 2.99921 -0.796562 2.683585 -1.559062 2.121085 -2.121562 C 1.558585 -2.684062 0.796085 -2.999687 -0.00079 -2.999687 C -0.79454 -2.999687 -1.560165 -2.684062 -2.122665 -2.121562 C -2.685165 -1.559062 -3.00079 -0.796562 -3.00079 0.000313 C -3.00079 0.794063 -2.685165 1.559688 -2.122665 2.122188 C -1.560165 2.684688 -0.79454 3.000313 -0.00079 3.000313 Z M -0.00079 3.000313 " transform="matrix(1.25,0,0,1.25,225.590831,96.042577)"/>
<path style="fill-rule:nonzero;fill:rgb(100%,49.803922%,5.490196%);fill-opacity:0.501961;stroke-width:1;stroke-linecap:butt;stroke-linejoin:round;stroke:rgb(100%,49.803922%,5.490196%);stroke-opacity:0.501961;stroke-miterlimit:4;" d="M 0.000399 3.001335 C 0.794149 3.001335 1.559774 2.682585 2.122274 2.120085 C 2.684774 1.557585 3.000399 0.795085 3.000399 0.001335 C 3.000399 -0.79554 2.684774 -1.55804 2.122274 -2.12054 C 1.559774 -2.68304 0.794149 -2.998665 0.000399 -2.998665 C -0.796476 -2.998665 -1.558976 -2.68304 -2.121476 -2.12054 C -2.683976 -1.55804 -2.999601 -0.79554 -2.999601 0.001335 C -2.999601 0.795085 -2.683976 1.557585 -2.121476 2.120085 C -1.558976 2.682585 -0.796476 3.001335 0.000399 3.001335 Z M 0.000399 3.001335 " transform="matrix(1.25,0,0,1.25,225.628407,67.248331)"/>
<path style="fill-rule:nonzero;fill:rgb(100%,49.803922%,5.490196%);fill-opacity:0.501961;stroke-width:1;stroke-linecap:butt;stroke-linejoin:round;stroke:rgb(100%,49.803922%,5.490196%);stroke-opacity:0.501961;stroke-miterlimit:4;" d="M -0.000993 2.998949 C 0.795882 2.998949 1.558382 2.683324 2.120882 2.120824 C 2.683382 1.558324 2.999007 0.795824 2.999007 -0.001051 C 2.999007 -0.794801 2.683382 -1.557301 2.120882 -2.119801 C 1.558382 -2.685426 0.795882 -3.001051 -0.000993 -3.001051 C -0.794743 -3.001051 -1.557243 -2.685426 -2.122868 -2.119801 C -2.685368 -1.557301 -3.000993 -0.794801 -3.000993 -0.001051 C -3.000993 0.795824 -2.685368 1.558324 -2.122868 2.120824 C -1.557243 2.683324 -0.794743 2.998949 -0.000993 2.998949 Z M -0.000993 2.998949 " transform="matrix(1.25,0,0,1.25,228.51296,102.075532)"/>
<path style="fill-rule:nonzero;fill:rgb(100%,49.803922%,5.490196%);fill-opacity:0.501961;stroke-width:1;stroke-linecap:butt;stroke-linejoin:round;stroke:rgb(100%,49.803922%,5.490196%);stroke-opacity:0.501961;stroke-miterlimit:4;" d="M -0.000481 3.001191 C 0.796394 3.001191 1.558894 2.682441 2.121394 2.119941 C 2.683894 1.557441 2.999519 0.794941 2.999519 0.001191 C 2.999519 -0.795684 2.683894 -1.558184 2.121394 -2.120684 C 1.558894 -2.683184 0.796394 -2.998809 -0.000481 -2.998809 C -0.794231 -2.998809 -1.559856 -2.683184 -2.122356 -2.120684 C -2.684856 -1.558184 -3.000481 -0.795684 -3.000481 0.001191 C -3.000481 0.794941 -2.684856 1.557441 -2.122356 2.119941 C -1.559856 2.682441 -0.794231 3.001191 -0.000481 3.001191 Z M -0.000481 3.001191 " transform="matrix(1.25,0,0,1.25,229.871695,105.420386)"/>
<path style="fill-rule:nonzero;fill:rgb(100%,49.803922%,5.490196%);fill-opacity:0.501961;stroke-width:1;stroke-linecap:butt;stroke-linejoin:round;stroke:rgb(100%,49.803922%,5.490196%);stroke-opacity:0.501961;stroke-miterlimit:4;" d="M -0.000412 3.001118 C 0.796463 3.001118 1.558963 2.682368 2.121463 2.119868 C 2.683963 1.557368 2.999588 0.794868 2.999588 0.001118 C 2.999588 -0.795757 2.683963 -1.558257 2.121463 -2.120757 C 1.558963 -2.683257 0.796463 -2.998882 -0.000412 -2.998882 C -0.794162 -2.998882 -1.559787 -2.683257 -2.122287 -2.120757 C -2.684787 -1.558257 -3.000412 -0.795757 -3.000412 0.001118 C -3.000412 0.794868 -2.684787 1.557368 -2.122287 2.119868 C -1.559787 2.682368 -0.794162 3.001118 -0.000412 3.001118 Z M -0.000412 3.001118 " transform="matrix(1.25,0,0,1.25,234.383328,94.361884)"/>
<path style="fill-rule:nonzero;fill:rgb(100%,49.803922%,5.490196%);fill-opacity:0.501961;stroke-width:1;stroke-linecap:butt;stroke-linejoin:round;stroke:rgb(100%,49.803922%,5.490196%);stroke-opacity:0.501961;stroke-miterlimit:4;" d="M -0.000289 2.999447 C 0.796586 2.999447 1.559086 2.683822 2.121586 2.121322 C 2.684086 1.558822 2.999711 0.796322 2.999711 -0.000553 C 2.999711 -0.794303 2.684086 -1.559928 2.121586 -2.122428 C 1.559086 -2.684928 0.796586 -3.000553 -0.000289 -3.000553 C -0.797164 -3.000553 -1.559664 -2.684928 -2.122164 -2.122428 C -2.684664 -1.559928 -3.000289 -0.794303 -3.000289 -0.000553 C -3.000289 0.796322 -2.684664 1.558822 -2.122164 2.121322 C -1.559664 2.683822 -0.797164 2.999447 -0.000289 2.999447 Z M -0.000289 2.999447 " transform="matrix(1.25,0,0,1.25,237.926142,111.453816)"/>
<path style="fill-rule:nonzero;fill:rgb(100%,49.803922%,5.490196%);fill-opacity:0.501961;stroke-width:1;stroke-linecap:butt;stroke-linejoin:round;stroke:rgb(100%,49.803922%,5.490196%);stroke-opacity:0.501961;stroke-miterlimit:4;" d="M -0.001129 3.001388 C 0.795746 3.001388 1.558246 2.682638 2.120746 2.120138 C 2.683246 1.557638 2.998871 0.795138 2.998871 0.001388 C 2.998871 -0.795487 2.683246 -1.557987 2.120746 -2.120487 C 1.558246 -2.682987 0.795746 -2.998612 -0.001129 -2.998612 C -0.794879 -2.998612 -1.557379 -2.682987 -2.119879 -2.120487 C -2.682379 -1.557987 -3.001129 -0.795487 -3.001129 0.001388 C -3.001129 0.795138 -2.682379 1.557638 -2.119879 2.120138 C -1.557379 2.682638 -0.794879 3.001388 -0.001129 3.001388 Z M -0.001129 3.001388 " transform="matrix(1.25,0,0,1.25,251.927192,119.560765)"/>
<path style="fill-rule:nonzero;fill:rgb(100%,49.803922%,5.490196%);fill-opacity:0.501961;stroke-width:1;stroke-linecap:butt;stroke-linejoin:round;stroke:rgb(100%,49.803922%,5.490196%);stroke-opacity:0.501961;stroke-miterlimit:4;" d="M 0.001076 2.999587 C 0.794826 2.999587 1.557326 2.683962 2.119826 2.121462 C 2.685451 1.558962 3.001076 0.796462 3.001076 -0.000413 C 3.001076 -0.794163 2.685451 -1.559788 2.119826 -2.122288 C 1.557326 -2.684788 0.794826 -3.000413 0.001076 -3.000413 C -0.795799 -3.000413 -1.558299 -2.684788 -2.120799 -2.122288 C -2.683299 -1.559788 -2.998924 -0.794163 -2.998924 -0.000413 C -2.998924 0.796462 -2.683299 1.558962 -2.120799 2.121462 C -1.558299 2.683962 -0.795799 2.999587 0.001076 2.999587 Z M 0.001076 2.999587 " transform="matrix(1.25,0,0,1.25,256.037717,141.707547)"/>
<path style="fill-rule:nonzero;fill:rgb(100%,49.803922%,5.490196%);fill-opacity:0.501961;stroke-width:1;stroke-linecap:butt;stroke-linejoin:round;stroke:rgb(100%,49.803922%,5.490196%);stroke-opacity:0.501961;stroke-miterlimit:4;" d="M -0.001214 2.998442 C 0.795661 2.998442 1.558161 2.682817 2.120661 2.120317 C 2.683161 1.557817 2.998786 0.795317 2.998786 -0.001558 C 2.998786 -0.795308 2.683161 -1.557808 2.120661 -2.120308 C 1.558161 -2.682808 0.795661 -3.001558 -0.001214 -3.001558 C -0.794964 -3.001558 -1.557464 -2.682808 -2.119964 -2.120308 C -2.682464 -1.557808 -3.001214 -0.795308 -3.001214 -0.001558 C -3.001214 0.795317 -2.682464 1.557817 -2.119964 2.120317 C -1.557464 2.682817 -0.794964 2.998442 -0.001214 2.998442 Z M -0.001214 2.998442 " transform="matrix(1.25,0,0,1.25,262.157767,108.556635)"/>
<path style="fill-rule:nonzero;fill:rgb(100%,49.803922%,5.490196%);fill-opacity:0.501961;stroke-width:1;stroke-linecap:butt;stroke-linejoin:round;stroke:rgb(100%,49.803922%,5.490196%);stroke-opacity:0.501961;stroke-miterlimit:4;" d="M -0.001335 3.001521 C 0.79554 3.001521 1.55804 2.682771 2.12054 2.120271 C 2.68304 1.557771 2.998665 0.795271 2.998665 0.001521 C 2.998665 -0.795354 2.68304 -1.557854 2.12054 -2.120354 C 1.55804 -2.682854 0.79554 -2.998479 -0.001335 -2.998479 C -0.795085 -2.998479 -1.557585 -2.682854 -2.120085 -2.120354 C -2.682585 -1.557854 -3.001335 -0.795354 -3.001335 0.001521 C -3.001335 0.795271 -2.682585 1.557771 -2.120085 2.120271 C -1.557585 2.682771 -0.795085 3.001521 -0.001335 3.001521 Z M -0.001335 3.001521 " transform="matrix(1.25,0,0,1.25,270.353231,129.369192)"/>
<path style="fill-rule:nonzero;fill:rgb(100%,49.803922%,5.490196%);fill-opacity:0.501961;stroke-width:1;stroke-linecap:butt;stroke-linejoin:round;stroke:rgb(100%,49.803922%,5.490196%);stroke-opacity:0.501961;stroke-miterlimit:4;" d="M -0.000797 3.000092 C 0.796078 3.000092 1.558578 2.684467 2.121078 2.121967 C 2.683578 1.559467 2.999203 0.796967 2.999203 0.000092 C 2.999203 -0.796783 2.683578 -1.559283 2.121078 -2.121783 C 1.558578 -2.684283 0.796078 -2.999908 -0.000797 -2.999908 C -0.794547 -2.999908 -1.560172 -2.684283 -2.122672 -2.121783 C -2.685172 -1.559283 -3.000797 -0.796783 -3.000797 0.000092 C -3.000797 0.796967 -2.685172 1.559467 -2.122672 2.121967 C -1.560172 2.684467 -0.794547 3.000092 -0.000797 3.000092 Z M -0.000797 3.000092 " transform="matrix(1.25,0,0,1.25,271.290059,126.113166)"/>
<path style="fill-rule:nonzero;fill:rgb(100%,49.803922%,5.490196%);fill-opacity:0.501961;stroke-width:1;stroke-linecap:butt;stroke-linejoin:round;stroke:rgb(100%,49.803922%,5.490196%);stroke-opacity:0.501961;stroke-miterlimit:4;" d="M -0.000075 3.000054 C 0.7968 3.000054 1.5593 2.684429 2.1218 2.121929 C 2.6843 1.559429 2.999925 0.796929 2.999925 0.000054 C 2.999925 -0.796821 2.6843 -1.559321 2.1218 -2.121821 C 1.5593 -2.684321 0.7968 -2.999946 -0.000075 -2.999946 C -0.79695 -2.999946 -1.55945 -2.684321 -2.12195 -2.121821 C -2.68445 -1.559321 -3.000075 -0.796821 -3.000075 0.000054 C -3.000075 0.796929 -2.68445 1.559429 -2.12195 2.121929 C -1.55945 2.684429 -0.79695 3.000054 -0.000075 3.000054 Z M -0.000075 3.000054 " transform="matrix(1.25,0,0,1.25,272.121187,111.097589)"/>
<path style="fill-rule:nonzero;fill:rgb(100%,49.803922%,5.490196%);fill-opacity:0.501961;stroke-width:1;stroke-linecap:butt;stroke-linejoin:round;stroke:rgb(100%,49.803922%,5.490196%);stroke-opacity:0.501961;stroke-miterlimit:4;" d="M -0.001546 3.000533 C 0.795329 3.000533 1.557829 2.684908 2.120329 2.122408 C 2.682829 1.559908 2.998454 0.794283 2.998454 0.000533 C 2.998454 -0.796342 2.682829 -1.558842 2.120329 -2.121342 C 1.557829 -2.683842 0.795329 -2.999467 -0.001546 -2.999467 C -0.795296 -2.999467 -1.557796 -2.683842 -2.120296 -2.121342 C -2.682796 -1.558842 -3.001546 -0.796342 -3.001546 0.000533 C -3.001546 0.794283 -2.682796 1.559908 -2.120296 2.122408 C -1.557796 2.684908 -0.795296 3.000533 -0.001546 3.000533 Z M -0.001546 3.000533 " transform="matrix(1.25,0,0,1.25,280.111308,91.995427)"/>
<path style="fill-rule:nonzero;fill:rgb(100%,49.803922%,5.490196%);fill-opacity:0.501961;stroke-width:1;stroke-linecap:butt;stroke-linejoin:round;stroke:rgb(100%,49.803922%,5.490196%);stroke-opacity:0.501961;stroke-miterlimit:4;" d="M -0.00028 2.999485 C 0.796595 2.999485 1.559095 2.68386 2.121595 2.12136 C 2.684095 1.55886 2.99972 0.79636 2.99972 -0.000515 C 2.99972 -0.794265 2.684095 -1.55989 2.121595 -2.12239 C 1.559095 -2.68489 0.796595 -3.000515 -0.00028 -3.000515 C -0.797155 -3.000515 -1.559655 -2.68489 -2.122155 -2.12239 C -2.684655 -1.55989 -3.00028 -0.794265 -3.00028 -0.000515 C -3.00028 0.79636 -2.684655 1.55886 -2.122155 2.12136 C -1.559655 2.68386 -0.797155 2.999485 -0.00028 2.999485 Z M -0.00028 2.999485 " transform="matrix(1.25,0,0,1.25,280.254256,143.727206)"/>
<path style="fill-rule:nonzero;fill:rgb(100%,49.803922%,5.490196%);fill-opacity:0.501961;stroke-width:1;stroke-linecap:butt;stroke-linejoin:round;stroke:rgb(100%,49.803922%,5.490196%);stroke-opacity:0.501961;stroke-miterlimit:4;" d="M 0.000342 3.000221 C 0.794092 3.000221 1.559717 2.684596 2.122217 2.122096 C 2.684717 1.559596 3.000342 0.797096 3.000342 0.000221 C 3.000342 -0.796654 2.684717 -1.559154 2.122217 -2.121654 C 1.559717 -2.684154 0.794092 -2.999779 0.000342 -2.999779 C -0.796533 -2.999779 -1.559033 -2.684154 -2.121533 -2.121654 C -2.684033 -1.559154 -2.999658 -0.796654 -2.999658 0.000221 C -2.999658 0.797096 -2.684033 1.559596 -2.121533 2.122096 C -1.559033 2.684596 -0.796533 3.000221 0.000342 3.000221 Z M 0.000342 3.000221 " transform="matrix(1.25,0,0,1.25,287.425354,146.495817)"/>
<path style="fill:none;stroke-width:0.8;stroke-linecap:square;stroke-linejoin:miter;stroke:rgb(0%,0%,0%);stroke-opacity:1;stroke-miterlimit:4;" d="M 42.61875 149.6 L 42.61875 11 " transform="matrix(1.25,0,0,1.25,0,0)"/>
<path style="fill:none;stroke-width:0.8;stroke-linecap:square;stroke-linejoin:miter;stroke:rgb(0%,0%,0%);stroke-opacity:1;stroke-miterlimit:4;" d="M 237.921875 149.6 L 237.921875 11 " transform="matrix(1.25,0,0,1.25,0,0)"/>
<path style="fill:none;stroke-width:0.8;stroke-linecap:square;stroke-linejoin:miter;stroke:rgb(0%,0%,0%);stroke-opacity:1;stroke-miterlimit:4;" d="M 42.61875 149.6 L 237.921875 149.6 " transform="matrix(1.25,0,0,1.25,0,0)"/>
<path style="fill:none;stroke-width:0.8;stroke-linecap:square;stroke-linejoin:miter;stroke:rgb(0%,0%,0%);stroke-opacity:1;stroke-miterlimit:4;" d="M 42.61875 11 L 237.921875 11 " transform="matrix(1.25,0,0,1.25,0,0)"/>
<use xlink:href="#surface5" mask="url(#mask0)"/>
<path style="fill:none;stroke-width:1.5;stroke-linecap:square;stroke-linejoin:round;stroke:rgb(12.156863%,46.666667%,70.588235%);stroke-opacity:1;stroke-miterlimit:4;" d="M 113.6 120.340625 L 133.6 120.340625 " transform="matrix(1.25,0,0,1.25,0,0)"/>
<path style=" stroke:none;fill-rule:nonzero;fill:rgb(0%,0%,0%);fill-opacity:1;" d="M 176.964844 145.6875 L 184.671875 145.6875 L 184.671875 146.726562 L 181.4375 146.726562 L 181.4375 154.800781 L 180.199219 154.800781 L 180.199219 146.726562 L 176.964844 146.726562 Z M 176.964844 145.6875 "/>
<path style=" stroke:none;fill-rule:nonzero;fill:rgb(0%,0%,0%);fill-opacity:1;" d="M 187.929688 149.015625 C 187.804688 148.941406 187.667969 148.886719 187.519531 148.855469 C 187.371094 148.820312 187.207031 148.800781 187.027344 148.800781 C 186.394531 148.800781 185.90625 149.007812 185.566406 149.421875 C 185.226562 149.832031 185.054688 150.425781 185.054688 151.199219 L 185.054688 154.800781 L 183.925781 154.800781 L 183.925781 147.964844 L 185.054688 147.964844 L 185.054688 149.027344 C 185.292969 148.613281 185.601562 148.304688 185.976562 148.105469 C 186.355469 147.902344 186.816406 147.800781 187.359375 147.800781 C 187.4375 147.800781 187.519531 147.808594 187.613281 147.816406 C 187.707031 147.828125 187.8125 147.839844 187.925781 147.863281 Z M 187.929688 149.015625 "/>
<path style=" stroke:none;fill-rule:nonzero;fill:rgb(0%,0%,0%);fill-opacity:1;" d="M 188.996094 152.105469 L 188.996094 147.964844 L 190.117188 147.964844 L 190.117188 152.0625 C 190.117188 152.707031 190.242188 153.195312 190.496094 153.519531 C 190.746094 153.839844 191.125 154.003906 191.632812 154.003906 C 192.238281 154.003906 192.714844 153.808594 193.066406 153.421875 C 193.417969 153.035156 193.597656 152.507812 193.597656 151.839844 L 193.597656 147.964844 L 194.71875 147.964844 L 194.71875 154.800781 L 193.597656 154.800781 L 193.597656 153.75 C 193.324219 154.167969 193.007812 154.476562 192.648438 154.675781 C 192.289062 154.878906 191.871094 154.980469 191.394531 154.980469 C 190.609375 154.980469 190.011719 154.734375 189.605469 154.246094 C 189.199219 153.757812 188.996094 153.042969 188.996094 152.105469 Z M 191.820312 147.800781 Z M 191.820312 147.800781 "/>
<path style=" stroke:none;fill-rule:nonzero;fill:rgb(0%,0%,0%);fill-opacity:1;" d="M 198.144531 146.023438 L 198.144531 147.964844 L 200.457031 147.964844 L 200.457031 148.839844 L 198.144531 148.839844 L 198.144531 152.550781 C 198.144531 153.105469 198.21875 153.464844 198.371094 153.625 C 198.523438 153.78125 198.835938 153.863281 199.304688 153.863281 L 200.457031 153.863281 L 200.457031 154.800781 L 199.304688 154.800781 C 198.4375 154.800781 197.839844 154.640625 197.507812 154.316406 C 197.179688 153.992188 197.015625 153.402344 197.015625 152.550781 L 197.015625 148.839844 L 196.191406 148.839844 L 196.191406 147.964844 L 197.015625 147.964844 L 197.015625 146.023438 Z M 198.144531 146.023438 "/>
<path style=" stroke:none;fill-rule:nonzero;fill:rgb(0%,0%,0%);fill-opacity:1;" d="M 207.617188 150.675781 L 207.617188 154.800781 L 206.492188 154.800781 L 206.492188 150.710938 C 206.492188 150.066406 206.367188 149.582031 206.113281 149.261719 C 205.863281 148.9375 205.484375 148.777344 204.980469 148.777344 C 204.375 148.777344 203.894531 148.972656 203.542969 149.359375 C 203.195312 149.742188 203.019531 150.269531 203.019531 150.9375 L 203.019531 154.800781 L 201.890625 154.800781 L 201.890625 145.304688 L 203.019531 145.304688 L 203.019531 149.027344 C 203.289062 148.617188 203.605469 148.308594 203.96875 148.105469 C 204.332031 147.902344 204.753906 147.800781 205.230469 147.800781 C 206.015625 147.800781 206.609375 148.042969 207.011719 148.53125 C 207.414062 149.015625 207.617188 149.730469 207.617188 150.675781 Z M 207.617188 150.675781 "/>
<path style="fill:none;stroke-width:1.5;stroke-linecap:butt;stroke-linejoin:round;stroke:rgb(74.901961%,0%,74.901961%);stroke-opacity:1;stroke-dasharray:5.55,2.4;stroke-miterlimit:4;" d="M 113.6 135.01875 L 133.6 135.01875 " transform="matrix(1.25,0,0,1.25,0,0)"/>
<path style=" stroke:none;fill-rule:nonzero;fill:rgb(0%,0%,0%);fill-opacity:1;" d="M 179.460938 165.050781 L 179.460938 168.472656 L 181.011719 168.472656 C 181.585938 168.472656 182.027344 168.324219 182.339844 168.027344 C 182.65625 167.730469 182.8125 167.308594 182.8125 166.757812 C 182.8125 166.214844 182.65625 165.792969 182.339844 165.496094 C 182.027344 165.199219 181.585938 165.050781 181.011719 165.050781 Z M 178.226562 164.035156 L 181.011719 164.035156 C 182.03125 164.035156 182.804688 164.265625 183.328125 164.730469 C 183.851562 165.191406 184.113281 165.867188 184.113281 166.757812 C 184.113281 167.660156 183.851562 168.339844 183.328125 168.796875 C 182.804688 169.257812 182.03125 169.488281 181.011719 169.488281 L 179.460938 169.488281 L 179.460938 173.148438 L 178.226562 173.148438 Z M 178.226562 164.035156 "/>
<path style=" stroke:none;fill-rule:nonzero;fill:rgb(0%,0%,0%);fill-opacity:1;" d="M 189.457031 167.363281 C 189.332031 167.289062 189.195312 167.234375 189.046875 167.203125 C 188.898438 167.167969 188.734375 167.148438 188.554688 167.148438 C 187.921875 167.148438 187.433594 167.355469 187.09375 167.769531 C 186.753906 168.179688 186.582031 168.773438 186.582031 169.546875 L 186.582031 173.148438 L 185.453125 173.148438 L 185.453125 166.3125 L 186.582031 166.3125 L 186.582031 167.375 C 186.820312 166.960938 187.128906 166.652344 187.503906 166.453125 C 187.882812 166.25 188.34375 166.148438 188.886719 166.148438 C 188.964844 166.148438 189.046875 166.15625 189.140625 166.164062 C 189.234375 166.175781 189.339844 166.1875 189.453125 166.210938 Z M 189.457031 167.363281 "/>
<path style=" stroke:none;fill-rule:nonzero;fill:rgb(0%,0%,0%);fill-opacity:1;" d="M 196.203125 169.449219 L 196.203125 170 L 191.039062 170 C 191.089844 170.773438 191.320312 171.363281 191.738281 171.765625 C 192.15625 172.171875 192.734375 172.375 193.480469 172.375 C 193.910156 172.375 194.328125 172.320312 194.734375 172.214844 C 195.140625 172.109375 195.542969 171.953125 195.941406 171.738281 L 195.941406 172.800781 C 195.539062 172.972656 195.125 173.101562 194.703125 173.191406 C 194.277344 173.28125 193.847656 173.328125 193.414062 173.328125 C 192.324219 173.328125 191.460938 173.011719 190.824219 172.375 C 190.1875 171.742188 189.867188 170.882812 189.867188 169.796875 C 189.867188 168.679688 190.167969 167.792969 190.773438 167.136719 C 191.378906 166.476562 192.191406 166.148438 193.21875 166.148438 C 194.136719 166.148438 194.867188 166.445312 195.402344 167.039062 C 195.9375 167.628906 196.203125 168.433594 196.203125 169.449219 Z M 195.082031 169.121094 C 195.074219 168.507812 194.902344 168.015625 194.566406 167.652344 C 194.230469 167.285156 193.785156 167.101562 193.230469 167.101562 C 192.605469 167.101562 192.101562 167.277344 191.726562 167.632812 C 191.351562 167.984375 191.132812 168.484375 191.078125 169.128906 Z M 195.082031 169.121094 "/>
<path style=" stroke:none;fill-rule:nonzero;fill:rgb(0%,0%,0%);fill-opacity:1;" d="M 202.542969 167.351562 L 202.542969 163.652344 L 203.667969 163.652344 L 203.667969 173.148438 L 202.542969 173.148438 L 202.542969 172.125 C 202.308594 172.53125 202.011719 172.832031 201.648438 173.03125 C 201.289062 173.226562 200.859375 173.328125 200.351562 173.328125 C 199.527344 173.328125 198.855469 172.996094 198.335938 172.339844 C 197.816406 171.679688 197.558594 170.8125 197.558594 169.738281 C 197.558594 168.664062 197.816406 167.796875 198.335938 167.136719 C 198.855469 166.480469 199.527344 166.148438 200.351562 166.148438 C 200.859375 166.148438 201.289062 166.25 201.648438 166.445312 C 202.011719 166.644531 202.308594 166.945312 202.542969 167.351562 Z M 198.71875 169.738281 C 198.71875 170.5625 198.886719 171.210938 199.226562 171.679688 C 199.566406 172.152344 200.035156 172.386719 200.628906 172.386719 C 201.222656 172.386719 201.6875 172.152344 202.03125 171.679688 C 202.371094 171.210938 202.542969 170.5625 202.542969 169.738281 C 202.542969 168.910156 202.371094 168.265625 202.03125 167.792969 C 201.6875 167.324219 201.222656 167.089844 200.628906 167.089844 C 200.035156 167.089844 199.566406 167.324219 199.226562 167.792969 C 198.886719 168.265625 198.71875 168.910156 198.71875 169.738281 Z M 198.71875 169.738281 "/>
</g>
</svg>
