<?xml version="1.0" encoding="UTF-8"?>
<svg xmlns="http://www.w3.org/2000/svg" xmlns:xlink="http://www.w3.org/1999/xlink" width="316pt" height="229pt" viewBox="0 0 316 229" version="1.1">
<defs>
<clipPath id="clip1">
  <path d="M 94 9 L 97 9 L 97 182.25 L 94 182.25 Z M 94 9 "/>
</clipPath>
<clipPath id="clip2">
  <path d="M 144 9 L 147 9 L 147 182.25 L 144 182.25 Z M 144 9 "/>
</clipPath>
<clipPath id="clip3">
  <path d="M 194 9 L 196 9 L 196 182.25 L 194 182.25 Z M 194 9 "/>
</clipPath>
<clipPath id="clip4">
  <path d="M 244 9 L 246 9 L 246 182.25 L 244 182.25 Z M 244 9 "/>
</clipPath>
<clipPath id="clip5">
  <path d="M 294 9 L 294.878906 9 L 294.878906 182.25 L 294 182.25 Z M 294 9 "/>
</clipPath>
<clipPath id="clip6">
  <path d="M 50.753906 136 L 294.878906 136 L 294.878906 138 L 50.753906 138 Z M 50.753906 136 "/>
</clipPath>
<clipPath id="clip7">
  <path d="M 50.753906 87 L 294.878906 87 L 294.878906 90 L 50.753906 90 Z M 50.753906 87 "/>
</clipPath>
<clipPath id="clip8">
  <path d="M 50.753906 39 L 294.878906 39 L 294.878906 41 L 50.753906 41 Z M 50.753906 39 "/>
</clipPath>
<clipPath id="clip9">
  <path d="M 50.753906 15 L 294.878906 15 L 294.878906 176 L 50.753906 176 Z M 50.753906 15 "/>
</clipPath>
<filter id="alpha" filterUnits="objectBoundingBox" x="0%" y="0%" width="100%" height="100%">
  <feColorMatrix type="matrix" in="SourceGraphic" values="0 0 0 0 1 0 0 0 0 1 0 0 0 0 1 0 0 0 1 0"/>
</filter>
<mask id="mask0">
  <g filter="url(#alpha)">
<rect x="0" y="0" width="316" height="229" style="fill:rgb(0%,0%,0%);fill-opacity:0.8;stroke:none;"/>
  </g>
</mask>
<clipPath id="clip10">
  <rect x="0" y="0" width="316" height="229"/>
</clipPath>
<g id="surface5" clip-path="url(#clip10)">
<path style="fill-rule:nonzero;fill:rgb(100%,100%,100%);fill-opacity:1;stroke-width:1;stroke-linecap:butt;stroke-linejoin:miter;stroke:rgb(80%,80%,80%);stroke-opacity:1;stroke-miterlimit:4;" d="M 173.628125 29.878125 L 228.903125 29.878125 C 230.2375 29.878125 230.903125 29.2125 230.903125 27.878125 L 230.903125 14.2 C 230.903125 12.865625 230.2375 12.2 228.903125 12.2 L 173.628125 12.2 C 172.29375 12.2 171.628125 12.865625 171.628125 14.2 L 171.628125 27.878125 C 171.628125 29.2125 172.29375 29.878125 173.628125 29.878125 Z M 173.628125 29.878125 " transform="matrix(1.25,0,0,1.25,0,0)"/>
</g>
</defs>
<g id="surface1">
<path style=" stroke:none;fill-rule:nonzero;fill:rgb(100%,100%,100%);fill-opacity:1;" d="M 0 229.195312 L 315.808594 229.195312 L 315.808594 0 L 0 0 Z M 0 229.195312 "/>
<path style=" stroke:none;fill-rule:nonzero;fill:rgb(100%,100%,100%);fill-opacity:1;" d="M 50.753906 182.25 L 294.878906 182.25 L 294.878906 9 L 50.753906 9 Z M 50.753906 182.25 "/>
<g clip-path="url(#clip1)" clip-rule="nonzero">
<path style="fill:none;stroke-width:0.8;stroke-linecap:square;stroke-linejoin:round;stroke:rgb(69.019608%,69.019608%,69.019608%);stroke-opacity:1;stroke-miterlimit:4;" d="M 76.475 145.8 L 76.475 7.2 " transform="matrix(1.25,0,0,1.25,0,0)"/>
</g>
<path style="fill:none;stroke-width:0.8;stroke-linecap:butt;stroke-linejoin:round;stroke:rgb(0%,0%,0%);stroke-opacity:1;stroke-miterlimit:4;" d="M 0.000446 0 L 0.000446 3.5 " transform="matrix(1.25,0,0,1.25,95.593193,182.25)"/>
<path style=" stroke:none;fill-rule:nonzero;fill:rgb(0%,0%,0%);fill-opacity:1;" d="M 85.214844 199.460938 L 87.226562 199.460938 L 87.226562 192.507812 L 85.035156 192.949219 L 85.035156 191.824219 L 87.214844 191.386719 L 88.449219 191.386719 L 88.449219 199.460938 L 90.460938 199.460938 L 90.460938 200.5 L 85.214844 200.5 Z M 85.214844 199.460938 "/>
<path style=" stroke:none;fill-rule:nonzero;fill:rgb(0%,0%,0%);fill-opacity:1;" d="M 95.589844 192.199219 C 94.953125 192.199219 94.476562 192.511719 94.15625 193.136719 C 93.839844 193.757812 93.679688 194.699219 93.679688 195.953125 C 93.679688 197.199219 93.839844 198.136719 94.15625 198.761719 C 94.476562 199.386719 94.953125 199.699219 95.589844 199.699219 C 96.226562 199.699219 96.707031 199.386719 97.027344 198.761719 C 97.347656 198.136719 97.507812 197.199219 97.507812 195.953125 C 97.507812 194.699219 97.347656 193.757812 97.027344 193.136719 C 96.707031 192.511719 96.226562 192.199219 95.589844 192.199219 Z M 95.589844 191.222656 C 96.609375 191.222656 97.390625 191.625 97.929688 192.433594 C 98.46875 193.242188 98.738281 194.414062 98.738281 195.953125 C 98.738281 197.484375 98.46875 198.65625 97.929688 199.464844 C 97.390625 200.273438 96.609375 200.675781 95.589844 200.675781 C 94.566406 200.675781 93.789062 200.273438 93.25 199.464844 C 92.710938 198.65625 92.441406 197.484375 92.441406 195.953125 C 92.441406 194.414062 92.710938 193.242188 93.25 192.433594 C 93.789062 191.625 94.566406 191.222656 95.589844 191.222656 Z M 95.589844 191.222656 "/>
<path style=" stroke:none;fill-rule:nonzero;fill:rgb(0%,0%,0%);fill-opacity:1;" d="M 103.542969 192.199219 C 102.90625 192.199219 102.429688 192.511719 102.109375 193.136719 C 101.792969 193.757812 101.632812 194.699219 101.632812 195.953125 C 101.632812 197.199219 101.792969 198.136719 102.109375 198.761719 C 102.429688 199.386719 102.90625 199.699219 103.542969 199.699219 C 104.179688 199.699219 104.660156 199.386719 104.980469 198.761719 C 105.300781 198.136719 105.460938 197.199219 105.460938 195.953125 C 105.460938 194.699219 105.300781 193.757812 104.980469 193.136719 C 104.660156 192.511719 104.179688 192.199219 103.542969 192.199219 Z M 103.542969 191.222656 C 104.5625 191.222656 105.34375 191.625 105.882812 192.433594 C 106.421875 193.242188 106.691406 194.414062 106.691406 195.953125 C 106.691406 197.484375 106.421875 198.65625 105.882812 199.464844 C 105.34375 200.273438 104.5625 200.675781 103.542969 200.675781 C 102.519531 200.675781 101.742188 200.273438 101.203125 199.464844 C 100.664062 198.65625 100.394531 197.484375 100.394531 195.953125 C 100.394531 194.414062 100.664062 193.242188 101.203125 192.433594 C 101.742188 191.625 102.519531 191.222656 103.542969 191.222656 Z M 103.542969 191.222656 "/>
<g clip-path="url(#clip2)" clip-rule="nonzero">
<path style="fill:none;stroke-width:0.8;stroke-linecap:square;stroke-linejoin:round;stroke:rgb(69.019608%,69.019608%,69.019608%);stroke-opacity:1;stroke-miterlimit:4;" d="M 116.33125 145.8 L 116.33125 7.2 " transform="matrix(1.25,0,0,1.25,0,0)"/>
</g>
<path style="fill:none;stroke-width:0.8;stroke-linecap:butt;stroke-linejoin:round;stroke:rgb(0%,0%,0%);stroke-opacity:1;stroke-miterlimit:4;" d="M -0.000446 0 L -0.000446 3.5 " transform="matrix(1.25,0,0,1.25,145.41462,182.25)"/>
<path style=" stroke:none;fill-rule:nonzero;fill:rgb(0%,0%,0%);fill-opacity:1;" d="M 135.882812 199.460938 L 140.1875 199.460938 L 140.1875 200.5 L 134.402344 200.5 L 134.402344 199.460938 C 134.867188 198.976562 135.503906 198.328125 136.3125 197.511719 C 137.121094 196.695312 137.628906 196.167969 137.835938 195.933594 C 138.230469 195.488281 138.507812 195.113281 138.664062 194.808594 C 138.820312 194.5 138.898438 194.199219 138.898438 193.902344 C 138.898438 193.417969 138.730469 193.023438 138.390625 192.71875 C 138.050781 192.410156 137.605469 192.257812 137.0625 192.257812 C 136.675781 192.257812 136.265625 192.324219 135.835938 192.460938 C 135.40625 192.59375 134.949219 192.796875 134.460938 193.070312 L 134.460938 191.824219 C 134.957031 191.625 135.421875 191.476562 135.851562 191.375 C 136.285156 191.273438 136.679688 191.222656 137.039062 191.222656 C 137.980469 191.222656 138.734375 191.457031 139.296875 191.929688 C 139.855469 192.402344 140.136719 193.03125 140.136719 193.820312 C 140.136719 194.195312 140.066406 194.550781 139.925781 194.886719 C 139.785156 195.222656 139.53125 195.617188 139.160156 196.074219 C 139.058594 196.191406 138.734375 196.53125 138.191406 197.097656 C 137.644531 197.660156 136.875 198.449219 135.882812 199.460938 Z M 135.882812 199.460938 "/>
<path style=" stroke:none;fill-rule:nonzero;fill:rgb(0%,0%,0%);fill-opacity:1;" d="M 145.410156 192.199219 C 144.777344 192.199219 144.300781 192.511719 143.980469 193.136719 C 143.660156 193.757812 143.5 194.699219 143.5 195.953125 C 143.5 197.199219 143.660156 198.136719 143.980469 198.761719 C 144.300781 199.386719 144.777344 199.699219 145.410156 199.699219 C 146.050781 199.699219 146.527344 199.386719 146.847656 198.761719 C 147.167969 198.136719 147.328125 197.199219 147.328125 195.953125 C 147.328125 194.699219 147.167969 193.757812 146.847656 193.136719 C 146.527344 192.511719 146.050781 192.199219 145.410156 192.199219 Z M 145.410156 191.222656 C 146.433594 191.222656 147.214844 191.625 147.753906 192.433594 C 148.292969 193.242188 148.5625 194.414062 148.5625 195.953125 C 148.5625 197.484375 148.292969 198.65625 147.753906 199.464844 C 147.214844 200.273438 146.433594 200.675781 145.410156 200.675781 C 144.390625 200.675781 143.609375 200.273438 143.070312 199.464844 C 142.53125 198.65625 142.261719 197.484375 142.261719 195.953125 C 142.261719 194.414062 142.53125 193.242188 143.070312 192.433594 C 143.609375 191.625 144.390625 191.222656 145.410156 191.222656 Z M 145.410156 191.222656 "/>
<path style=" stroke:none;fill-rule:nonzero;fill:rgb(0%,0%,0%);fill-opacity:1;" d="M 153.363281 192.199219 C 152.730469 192.199219 152.253906 192.511719 151.933594 193.136719 C 151.613281 193.757812 151.453125 194.699219 151.453125 195.953125 C 151.453125 197.199219 151.613281 198.136719 151.933594 198.761719 C 152.253906 199.386719 152.730469 199.699219 153.363281 199.699219 C 154.003906 199.699219 154.480469 199.386719 154.800781 198.761719 C 155.121094 198.136719 155.28125 197.199219 155.28125 195.953125 C 155.28125 194.699219 155.121094 193.757812 154.800781 193.136719 C 154.480469 192.511719 154.003906 192.199219 153.363281 192.199219 Z M 153.363281 191.222656 C 154.386719 191.222656 155.167969 191.625 155.707031 192.433594 C 156.246094 193.242188 156.515625 194.414062 156.515625 195.953125 C 156.515625 197.484375 156.246094 198.65625 155.707031 199.464844 C 155.167969 200.273438 154.386719 200.675781 153.363281 200.675781 C 152.34375 200.675781 151.5625 200.273438 151.023438 199.464844 C 150.484375 198.65625 150.214844 197.484375 150.214844 195.953125 C 150.214844 194.414062 150.484375 193.242188 151.023438 192.433594 C 151.5625 191.625 152.34375 191.222656 153.363281 191.222656 Z M 153.363281 191.222656 "/>
<g clip-path="url(#clip3)" clip-rule="nonzero">
<path style="fill:none;stroke-width:0.8;stroke-linecap:square;stroke-linejoin:round;stroke:rgb(69.019608%,69.019608%,69.019608%);stroke-opacity:1;stroke-miterlimit:4;" d="M 156.1875 145.8 L 156.1875 7.2 " transform="matrix(1.25,0,0,1.25,0,0)"/>
</g>
<path style="fill:none;stroke-width:0.8;stroke-linecap:butt;stroke-linejoin:round;stroke:rgb(0%,0%,0%);stroke-opacity:1;stroke-miterlimit:4;" d="M -0.001339 0 L -0.001339 3.5 " transform="matrix(1.25,0,0,1.25,195.236049,182.25)"/>
<path style=" stroke:none;fill-rule:nonzero;fill:rgb(0%,0%,0%);fill-opacity:1;" d="M 188.378906 195.585938 C 188.96875 195.710938 189.429688 195.972656 189.757812 196.375 C 190.089844 196.773438 190.257812 197.265625 190.257812 197.851562 C 190.257812 198.75 189.949219 199.445312 189.328125 199.9375 C 188.710938 200.429688 187.832031 200.675781 186.691406 200.675781 C 186.3125 200.675781 185.917969 200.636719 185.511719 200.5625 C 185.109375 200.488281 184.691406 200.375 184.257812 200.222656 L 184.257812 199.035156 C 184.601562 199.234375 184.972656 199.382812 185.378906 199.484375 C 185.789062 199.585938 186.214844 199.636719 186.65625 199.636719 C 187.429688 199.636719 188.019531 199.484375 188.421875 199.179688 C 188.828125 198.875 189.03125 198.433594 189.03125 197.851562 C 189.03125 197.3125 188.84375 196.890625 188.464844 196.589844 C 188.089844 196.285156 187.566406 196.136719 186.894531 196.136719 L 185.832031 196.136719 L 185.832031 195.121094 L 186.945312 195.121094 C 187.550781 195.121094 188.015625 195 188.335938 194.757812 C 188.65625 194.515625 188.816406 194.167969 188.816406 193.710938 C 188.816406 193.242188 188.652344 192.886719 188.320312 192.636719 C 187.988281 192.382812 187.515625 192.257812 186.894531 192.257812 C 186.558594 192.257812 186.195312 192.296875 185.808594 192.371094 C 185.421875 192.441406 184.996094 192.554688 184.53125 192.710938 L 184.53125 191.613281 C 185 191.480469 185.441406 191.382812 185.847656 191.320312 C 186.257812 191.253906 186.644531 191.222656 187.003906 191.222656 C 187.941406 191.222656 188.683594 191.433594 189.226562 191.859375 C 189.773438 192.285156 190.042969 192.859375 190.042969 193.582031 C 190.042969 194.085938 189.898438 194.515625 189.609375 194.863281 C 189.320312 195.210938 188.910156 195.449219 188.378906 195.585938 Z M 188.378906 195.585938 "/>
<path style=" stroke:none;fill-rule:nonzero;fill:rgb(0%,0%,0%);fill-opacity:1;" d="M 195.230469 192.199219 C 194.597656 192.199219 194.121094 192.511719 193.800781 193.136719 C 193.480469 193.757812 193.320312 194.699219 193.320312 195.953125 C 193.320312 197.199219 193.480469 198.136719 193.800781 198.761719 C 194.121094 199.386719 194.597656 199.699219 195.230469 199.699219 C 195.871094 199.699219 196.351562 199.386719 196.667969 198.761719 C 196.988281 198.136719 197.148438 197.199219 197.148438 195.953125 C 197.148438 194.699219 196.988281 193.757812 196.667969 193.136719 C 196.351562 192.511719 195.871094 192.199219 195.230469 192.199219 Z M 195.230469 191.222656 C 196.253906 191.222656 197.035156 191.625 197.574219 192.433594 C 198.113281 193.242188 198.382812 194.414062 198.382812 195.953125 C 198.382812 197.484375 198.113281 198.65625 197.574219 199.464844 C 197.035156 200.273438 196.253906 200.675781 195.230469 200.675781 C 194.210938 200.675781 193.429688 200.273438 192.890625 199.464844 C 192.351562 198.65625 192.082031 197.484375 192.082031 195.953125 C 192.082031 194.414062 192.351562 193.242188 192.890625 192.433594 C 193.429688 191.625 194.210938 191.222656 195.230469 191.222656 Z M 195.230469 191.222656 "/>
<path style=" stroke:none;fill-rule:nonzero;fill:rgb(0%,0%,0%);fill-opacity:1;" d="M 203.183594 192.199219 C 202.550781 192.199219 202.074219 192.511719 201.753906 193.136719 C 201.433594 193.757812 201.273438 194.699219 201.273438 195.953125 C 201.273438 197.199219 201.433594 198.136719 201.753906 198.761719 C 202.074219 199.386719 202.550781 199.699219 203.183594 199.699219 C 203.824219 199.699219 204.304688 199.386719 204.621094 198.761719 C 204.941406 198.136719 205.101562 197.199219 205.101562 195.953125 C 205.101562 194.699219 204.941406 193.757812 204.621094 193.136719 C 204.304688 192.511719 203.824219 192.199219 203.183594 192.199219 Z M 203.183594 191.222656 C 204.207031 191.222656 204.988281 191.625 205.527344 192.433594 C 206.066406 193.242188 206.335938 194.414062 206.335938 195.953125 C 206.335938 197.484375 206.066406 198.65625 205.527344 199.464844 C 204.988281 200.273438 204.207031 200.675781 203.183594 200.675781 C 202.164062 200.675781 201.382812 200.273438 200.84375 199.464844 C 200.304688 198.65625 200.035156 197.484375 200.035156 195.953125 C 200.035156 194.414062 200.304688 193.242188 200.84375 192.433594 C 201.382812 191.625 202.164062 191.222656 203.183594 191.222656 Z M 203.183594 191.222656 "/>
<g clip-path="url(#clip4)" clip-rule="nonzero">
<path style="fill:none;stroke-width:0.8;stroke-linecap:square;stroke-linejoin:round;stroke:rgb(69.019608%,69.019608%,69.019608%);stroke-opacity:1;stroke-miterlimit:4;" d="M 196.046875 145.8 L 196.046875 7.2 " transform="matrix(1.25,0,0,1.25,0,0)"/>
</g>
<path style="fill:none;stroke-width:0.8;stroke-linecap:butt;stroke-linejoin:round;stroke:rgb(0%,0%,0%);stroke-opacity:1;stroke-miterlimit:4;" d="M 0.000893 0 L 0.000893 3.5 " transform="matrix(1.25,0,0,1.25,245.057478,182.25)"/>
<path style=" stroke:none;fill-rule:nonzero;fill:rgb(0%,0%,0%);fill-opacity:1;" d="M 237.851562 192.460938 L 234.738281 197.324219 L 237.851562 197.324219 Z M 237.527344 191.386719 L 239.078125 191.386719 L 239.078125 197.324219 L 240.378906 197.324219 L 240.378906 198.351562 L 239.078125 198.351562 L 239.078125 200.5 L 237.851562 200.5 L 237.851562 198.351562 L 233.738281 198.351562 L 233.738281 197.160156 Z M 237.527344 191.386719 "/>
<path style=" stroke:none;fill-rule:nonzero;fill:rgb(0%,0%,0%);fill-opacity:1;" d="M 245.054688 192.199219 C 244.417969 192.199219 243.941406 192.511719 243.621094 193.136719 C 243.300781 193.757812 243.144531 194.699219 243.144531 195.953125 C 243.144531 197.199219 243.300781 198.136719 243.621094 198.761719 C 243.941406 199.386719 244.417969 199.699219 245.054688 199.699219 C 245.691406 199.699219 246.171875 199.386719 246.492188 198.761719 C 246.8125 198.136719 246.972656 197.199219 246.972656 195.953125 C 246.972656 194.699219 246.8125 193.757812 246.492188 193.136719 C 246.171875 192.511719 245.691406 192.199219 245.054688 192.199219 Z M 245.054688 191.222656 C 246.074219 191.222656 246.855469 191.625 247.394531 192.433594 C 247.933594 193.242188 248.203125 194.414062 248.203125 195.953125 C 248.203125 197.484375 247.933594 198.65625 247.394531 199.464844 C 246.855469 200.273438 246.074219 200.675781 245.054688 200.675781 C 244.03125 200.675781 243.253906 200.273438 242.714844 199.464844 C 242.175781 198.65625 241.90625 197.484375 241.90625 195.953125 C 241.90625 194.414062 242.175781 193.242188 242.714844 192.433594 C 243.253906 191.625 244.03125 191.222656 245.054688 191.222656 Z M 245.054688 191.222656 "/>
<path style=" stroke:none;fill-rule:nonzero;fill:rgb(0%,0%,0%);fill-opacity:1;" d="M 253.007812 192.199219 C 252.371094 192.199219 251.894531 192.511719 251.574219 193.136719 C 251.253906 193.757812 251.097656 194.699219 251.097656 195.953125 C 251.097656 197.199219 251.253906 198.136719 251.574219 198.761719 C 251.894531 199.386719 252.371094 199.699219 253.007812 199.699219 C 253.644531 199.699219 254.125 199.386719 254.445312 198.761719 C 254.765625 198.136719 254.925781 197.199219 254.925781 195.953125 C 254.925781 194.699219 254.765625 193.757812 254.445312 193.136719 C 254.125 192.511719 253.644531 192.199219 253.007812 192.199219 Z M 253.007812 191.222656 C 254.027344 191.222656 254.808594 191.625 255.347656 192.433594 C 255.886719 193.242188 256.15625 194.414062 256.15625 195.953125 C 256.15625 197.484375 255.886719 198.65625 255.347656 199.464844 C 254.808594 200.273438 254.027344 200.675781 253.007812 200.675781 C 251.984375 200.675781 251.207031 200.273438 250.667969 199.464844 C 250.128906 198.65625 249.859375 197.484375 249.859375 195.953125 C 249.859375 194.414062 250.128906 193.242188 250.667969 192.433594 C 251.207031 191.625 251.984375 191.222656 253.007812 191.222656 Z M 253.007812 191.222656 "/>
<g clip-path="url(#clip5)" clip-rule="nonzero">
<path style="fill:none;stroke-width:0.8;stroke-linecap:square;stroke-linejoin:round;stroke:rgb(69.019608%,69.019608%,69.019608%);stroke-opacity:1;stroke-miterlimit:4;" d="M 235.903125 145.8 L 235.903125 7.2 " transform="matrix(1.25,0,0,1.25,0,0)"/>
</g>
<path style="fill:none;stroke-width:0.8;stroke-linecap:butt;stroke-linejoin:round;stroke:rgb(0%,0%,0%);stroke-opacity:1;stroke-miterlimit:4;" d="M 0 0 L 0 3.5 " transform="matrix(1.25,0,0,1.25,294.878906,182.25)"/>
<path style=" stroke:none;fill-rule:nonzero;fill:rgb(0%,0%,0%);fill-opacity:1;" d="M 284.296875 191.386719 L 289.140625 191.386719 L 289.140625 192.425781 L 285.429688 192.425781 L 285.429688 194.65625 C 285.605469 194.59375 285.785156 194.550781 285.960938 194.519531 C 286.140625 194.488281 286.320312 194.476562 286.5 194.476562 C 287.519531 194.476562 288.324219 194.753906 288.917969 195.3125 C 289.511719 195.867188 289.8125 196.621094 289.8125 197.574219 C 289.8125 198.554688 289.503906 199.316406 288.894531 199.863281 C 288.285156 200.40625 287.421875 200.675781 286.3125 200.675781 C 285.929688 200.675781 285.539062 200.644531 285.140625 200.578125 C 284.746094 200.511719 284.335938 200.414062 283.914062 200.285156 L 283.914062 199.046875 C 284.28125 199.246094 284.65625 199.394531 285.046875 199.492188 C 285.4375 199.589844 285.851562 199.636719 286.289062 199.636719 C 286.992188 199.636719 287.546875 199.453125 287.960938 199.082031 C 288.371094 198.710938 288.578125 198.210938 288.578125 197.574219 C 288.578125 196.941406 288.371094 196.4375 287.960938 196.070312 C 287.546875 195.699219 286.992188 195.511719 286.289062 195.511719 C 285.957031 195.511719 285.628906 195.546875 285.300781 195.621094 C 284.972656 195.695312 284.640625 195.808594 284.296875 195.964844 Z M 284.296875 191.386719 "/>
<path style=" stroke:none;fill-rule:nonzero;fill:rgb(0%,0%,0%);fill-opacity:1;" d="M 294.875 192.199219 C 294.242188 192.199219 293.761719 192.511719 293.441406 193.136719 C 293.125 193.757812 292.964844 194.699219 292.964844 195.953125 C 292.964844 197.199219 293.125 198.136719 293.441406 198.761719 C 293.761719 199.386719 294.242188 199.699219 294.875 199.699219 C 295.515625 199.699219 295.992188 199.386719 296.3125 198.761719 C 296.632812 198.136719 296.792969 197.199219 296.792969 195.953125 C 296.792969 194.699219 296.632812 193.757812 296.3125 193.136719 C 295.992188 192.511719 295.515625 192.199219 294.875 192.199219 Z M 294.875 191.222656 C 295.898438 191.222656 296.675781 191.625 297.214844 192.433594 C 297.753906 193.242188 298.023438 194.414062 298.023438 195.953125 C 298.023438 197.484375 297.753906 198.65625 297.214844 199.464844 C 296.675781 200.273438 295.898438 200.675781 294.875 200.675781 C 293.855469 200.675781 293.074219 200.273438 292.535156 199.464844 C 291.996094 198.65625 291.726562 197.484375 291.726562 195.953125 C 291.726562 194.414062 291.996094 193.242188 292.535156 192.433594 C 293.074219 191.625 293.855469 191.222656 294.875 191.222656 Z M 294.875 191.222656 "/>
<path style=" stroke:none;fill-rule:nonzero;fill:rgb(0%,0%,0%);fill-opacity:1;" d="M 302.828125 192.199219 C 302.195312 192.199219 301.714844 192.511719 301.394531 193.136719 C 301.078125 193.757812 300.917969 194.699219 300.917969 195.953125 C 300.917969 197.199219 301.078125 198.136719 301.394531 198.761719 C 301.714844 199.386719 302.195312 199.699219 302.828125 199.699219 C 303.46875 199.699219 303.945312 199.386719 304.265625 198.761719 C 304.585938 198.136719 304.746094 197.199219 304.746094 195.953125 C 304.746094 194.699219 304.585938 193.757812 304.265625 193.136719 C 303.945312 192.511719 303.46875 192.199219 302.828125 192.199219 Z M 302.828125 191.222656 C 303.851562 191.222656 304.628906 191.625 305.167969 192.433594 C 305.707031 193.242188 305.976562 194.414062 305.976562 195.953125 C 305.976562 197.484375 305.707031 198.65625 305.167969 199.464844 C 304.628906 200.273438 303.851562 200.675781 302.828125 200.675781 C 301.808594 200.675781 301.027344 200.273438 300.488281 199.464844 C 299.949219 198.65625 299.679688 197.484375 299.679688 195.953125 C 299.679688 194.414062 299.949219 193.242188 300.488281 192.433594 C 301.027344 191.625 301.808594 191.222656 302.828125 191.222656 Z M 302.828125 191.222656 "/>
<path style=" stroke:none;fill-rule:nonzero;fill:rgb(0%,0%,0%);fill-opacity:1;" d="M 160.804688 213.898438 L 160.804688 214.445312 L 155.640625 214.445312 C 155.691406 215.21875 155.925781 215.808594 156.34375 216.214844 C 156.757812 216.617188 157.339844 216.820312 158.085938 216.820312 C 158.515625 216.820312 158.933594 216.769531 159.335938 216.664062 C 159.742188 216.558594 160.144531 216.398438 160.546875 216.1875 L 160.546875 217.25 C 160.140625 217.417969 159.726562 217.550781 159.304688 217.640625 C 158.882812 217.730469 158.453125 217.773438 158.015625 217.773438 C 156.925781 217.773438 156.0625 217.457031 155.425781 216.824219 C 154.789062 216.1875 154.46875 215.328125 154.46875 214.246094 C 154.46875 213.125 154.773438 212.238281 155.375 211.582031 C 155.980469 210.925781 156.796875 210.597656 157.820312 210.597656 C 158.742188 210.597656 159.46875 210.890625 160.003906 211.484375 C 160.539062 212.074219 160.804688 212.878906 160.804688 213.898438 Z M 159.683594 213.566406 C 159.675781 212.953125 159.503906 212.464844 159.167969 212.097656 C 158.832031 211.730469 158.386719 211.546875 157.835938 211.546875 C 157.207031 211.546875 156.707031 211.722656 156.328125 212.078125 C 155.953125 212.433594 155.738281 212.929688 155.679688 213.574219 Z M 159.683594 213.566406 "/>
<path style=" stroke:none;fill-rule:nonzero;fill:rgb(0%,0%,0%);fill-opacity:1;" d="M 163.734375 216.570312 L 163.734375 220.195312 L 162.605469 220.195312 L 162.605469 210.761719 L 163.734375 210.761719 L 163.734375 211.796875 C 163.972656 211.390625 164.269531 211.089844 164.628906 210.894531 C 164.992188 210.695312 165.421875 210.597656 165.921875 210.597656 C 166.75 210.597656 167.425781 210.925781 167.945312 211.585938 C 168.464844 212.242188 168.722656 213.109375 168.722656 214.183594 C 168.722656 215.257812 168.464844 216.125 167.945312 216.785156 C 167.425781 217.445312 166.75 217.773438 165.921875 217.773438 C 165.421875 217.773438 164.992188 217.675781 164.628906 217.476562 C 164.269531 217.277344 163.972656 216.976562 163.734375 216.570312 Z M 167.558594 214.183594 C 167.558594 213.359375 167.386719 212.710938 167.046875 212.242188 C 166.707031 211.769531 166.242188 211.535156 165.648438 211.535156 C 165.050781 211.535156 164.585938 211.769531 164.246094 212.242188 C 163.90625 212.710938 163.734375 213.359375 163.734375 214.183594 C 163.734375 215.007812 163.90625 215.65625 164.246094 216.128906 C 164.585938 216.597656 165.050781 216.832031 165.648438 216.832031 C 166.242188 216.832031 166.707031 216.597656 167.046875 216.128906 C 167.386719 215.65625 167.558594 215.007812 167.558594 214.183594 Z M 167.558594 214.183594 "/>
<path style=" stroke:none;fill-rule:nonzero;fill:rgb(0%,0%,0%);fill-opacity:1;" d="M 173.234375 211.546875 C 172.632812 211.546875 172.15625 211.78125 171.804688 212.253906 C 171.453125 212.722656 171.28125 213.367188 171.28125 214.183594 C 171.28125 215 171.453125 215.644531 171.800781 216.117188 C 172.148438 216.585938 172.625 216.820312 173.234375 216.820312 C 173.832031 216.820312 174.304688 216.585938 174.65625 216.113281 C 175.003906 215.640625 175.179688 214.996094 175.179688 214.183594 C 175.179688 213.375 175.003906 212.730469 174.65625 212.257812 C 174.304688 211.785156 173.832031 211.546875 173.234375 211.546875 Z M 173.234375 210.597656 C 174.210938 210.597656 174.976562 210.914062 175.53125 211.550781 C 176.09375 212.183594 176.371094 213.0625 176.371094 214.183594 C 176.371094 215.300781 176.09375 216.179688 175.53125 216.820312 C 174.976562 217.457031 174.210938 217.773438 173.234375 217.773438 C 172.25 217.773438 171.484375 217.457031 170.929688 216.820312 C 170.375 216.179688 170.09375 215.300781 170.09375 214.183594 C 170.09375 213.0625 170.375 212.183594 170.929688 211.550781 C 171.484375 210.914062 172.25 210.597656 173.234375 210.597656 Z M 173.234375 210.597656 "/>
<path style=" stroke:none;fill-rule:nonzero;fill:rgb(0%,0%,0%);fill-opacity:1;" d="M 183.152344 211.023438 L 183.152344 212.074219 C 182.832031 211.898438 182.515625 211.765625 182.195312 211.679688 C 181.878906 211.589844 181.554688 211.546875 181.230469 211.546875 C 180.5 211.546875 179.933594 211.777344 179.53125 212.242188 C 179.128906 212.703125 178.925781 213.347656 178.925781 214.183594 C 178.925781 215.019531 179.128906 215.667969 179.53125 216.128906 C 179.933594 216.589844 180.5 216.820312 181.230469 216.820312 C 181.554688 216.820312 181.878906 216.777344 182.195312 216.691406 C 182.515625 216.601562 182.832031 216.472656 183.152344 216.296875 L 183.152344 217.335938 C 182.835938 217.480469 182.511719 217.589844 182.175781 217.664062 C 181.84375 217.738281 181.484375 217.773438 181.105469 217.773438 C 180.078125 217.773438 179.257812 217.449219 178.652344 216.804688 C 178.046875 216.15625 177.742188 215.28125 177.742188 214.183594 C 177.742188 213.070312 178.050781 212.191406 178.660156 211.554688 C 179.273438 210.914062 180.113281 210.597656 181.179688 210.597656 C 181.527344 210.597656 181.863281 210.632812 182.191406 210.703125 C 182.523438 210.773438 182.839844 210.878906 183.152344 211.023438 Z M 183.152344 211.023438 "/>
<path style=" stroke:none;fill-rule:nonzero;fill:rgb(0%,0%,0%);fill-opacity:1;" d="M 190.789062 213.46875 L 190.789062 217.597656 L 189.664062 217.597656 L 189.664062 213.507812 C 189.664062 212.859375 189.539062 212.375 189.285156 212.054688 C 189.035156 211.734375 188.65625 211.574219 188.152344 211.574219 C 187.542969 211.574219 187.066406 211.765625 186.714844 212.152344 C 186.367188 212.539062 186.191406 213.066406 186.191406 213.734375 L 186.191406 217.597656 L 185.0625 217.597656 L 185.0625 208.097656 L 186.191406 208.097656 L 186.191406 211.824219 C 186.460938 211.410156 186.777344 211.105469 187.140625 210.902344 C 187.503906 210.699219 187.925781 210.597656 188.402344 210.597656 C 189.1875 210.597656 189.78125 210.839844 190.183594 211.324219 C 190.585938 211.808594 190.789062 212.523438 190.789062 213.46875 Z M 190.789062 213.46875 "/>
<g clip-path="url(#clip6)" clip-rule="nonzero">
<path style="fill:none;stroke-width:0.8;stroke-linecap:square;stroke-linejoin:round;stroke:rgb(69.019608%,69.019608%,69.019608%);stroke-opacity:1;stroke-miterlimit:4;" d="M 40.603125 109.38125 L 235.903125 109.38125 " transform="matrix(1.25,0,0,1.25,0,0)"/>
</g>
<path style="fill:none;stroke-width:0.8;stroke-linecap:butt;stroke-linejoin:round;stroke:rgb(0%,0%,0%);stroke-opacity:1;stroke-miterlimit:4;" d="M 0 -0.000293 L -3.5 -0.000293 " transform="matrix(1.25,0,0,1.25,50.753906,136.726929)"/>
<path style=" stroke:none;fill-rule:nonzero;fill:rgb(0%,0%,0%);fill-opacity:1;" d="M 35.398438 132.363281 L 40.242188 132.363281 L 40.242188 133.402344 L 36.53125 133.402344 L 36.53125 135.632812 C 36.707031 135.574219 36.886719 135.527344 37.0625 135.496094 C 37.242188 135.46875 37.421875 135.453125 37.601562 135.453125 C 38.621094 135.453125 39.425781 135.730469 40.019531 136.289062 C 40.613281 136.847656 40.914062 137.601562 40.914062 138.550781 C 40.914062 139.53125 40.605469 140.296875 39.996094 140.839844 C 39.386719 141.382812 38.523438 141.652344 37.414062 141.652344 C 37.03125 141.652344 36.640625 141.621094 36.242188 141.554688 C 35.847656 141.492188 35.4375 141.394531 35.015625 141.261719 L 35.015625 140.023438 C 35.382812 140.222656 35.757812 140.371094 36.148438 140.46875 C 36.539062 140.566406 36.953125 140.613281 37.390625 140.613281 C 38.09375 140.613281 38.648438 140.429688 39.0625 140.058594 C 39.472656 139.691406 39.679688 139.1875 39.679688 138.550781 C 39.679688 137.917969 39.472656 137.417969 39.0625 137.046875 C 38.648438 136.675781 38.09375 136.488281 37.390625 136.488281 C 37.058594 136.488281 36.730469 136.527344 36.402344 136.597656 C 36.074219 136.671875 35.742188 136.785156 35.398438 136.941406 Z M 35.398438 132.363281 "/>
<g clip-path="url(#clip7)" clip-rule="nonzero">
<path style="fill:none;stroke-width:0.8;stroke-linecap:square;stroke-linejoin:round;stroke:rgb(69.019608%,69.019608%,69.019608%);stroke-opacity:1;stroke-miterlimit:4;" d="M 40.603125 70.759375 L 235.903125 70.759375 " transform="matrix(1.25,0,0,1.25,0,0)"/>
</g>
<path style="fill:none;stroke-width:0.8;stroke-linecap:butt;stroke-linejoin:round;stroke:rgb(0%,0%,0%);stroke-opacity:1;stroke-miterlimit:4;" d="M 0 -0.001437 L -3.5 -0.001437 " transform="matrix(1.25,0,0,1.25,50.753906,88.451015)"/>
<path style=" stroke:none;fill-rule:nonzero;fill:rgb(0%,0%,0%);fill-opacity:1;" d="M 27.648438 92.164062 L 29.664062 92.164062 L 29.664062 85.210938 L 27.46875 85.648438 L 27.46875 84.527344 L 29.648438 84.085938 L 30.882812 84.085938 L 30.882812 92.164062 L 32.898438 92.164062 L 32.898438 93.199219 L 27.648438 93.199219 Z M 27.648438 92.164062 "/>
<path style=" stroke:none;fill-rule:nonzero;fill:rgb(0%,0%,0%);fill-opacity:1;" d="M 38.023438 84.898438 C 37.390625 84.898438 36.910156 85.210938 36.589844 85.835938 C 36.273438 86.460938 36.113281 87.398438 36.113281 88.652344 C 36.113281 89.902344 36.273438 90.839844 36.589844 91.464844 C 36.910156 92.089844 37.390625 92.402344 38.023438 92.402344 C 38.664062 92.402344 39.140625 92.089844 39.460938 91.464844 C 39.78125 90.839844 39.941406 89.902344 39.941406 88.652344 C 39.941406 87.398438 39.78125 86.460938 39.460938 85.835938 C 39.140625 85.210938 38.664062 84.898438 38.023438 84.898438 Z M 38.023438 83.921875 C 39.046875 83.921875 39.824219 84.328125 40.363281 85.136719 C 40.902344 85.941406 41.171875 87.117188 41.171875 88.652344 C 41.171875 90.1875 40.902344 91.359375 40.363281 92.167969 C 39.824219 92.972656 39.046875 93.378906 38.023438 93.378906 C 37.003906 93.378906 36.222656 92.972656 35.683594 92.167969 C 35.144531 91.359375 34.875 90.1875 34.875 88.652344 C 34.875 87.117188 35.144531 85.941406 35.683594 85.136719 C 36.222656 84.328125 37.003906 83.921875 38.023438 83.921875 Z M 38.023438 83.921875 "/>
<g clip-path="url(#clip8)" clip-rule="nonzero">
<path style="fill:none;stroke-width:0.8;stroke-linecap:square;stroke-linejoin:round;stroke:rgb(69.019608%,69.019608%,69.019608%);stroke-opacity:1;stroke-miterlimit:4;" d="M 40.603125 32.140625 L 235.903125 32.140625 " transform="matrix(1.25,0,0,1.25,0,0)"/>
</g>
<path style="fill:none;stroke-width:0.8;stroke-linecap:butt;stroke-linejoin:round;stroke:rgb(0%,0%,0%);stroke-opacity:1;stroke-miterlimit:4;" d="M 0 0.000545 L -3.5 0.000545 " transform="matrix(1.25,0,0,1.25,50.753906,40.1751)"/>
<path style=" stroke:none;fill-rule:nonzero;fill:rgb(0%,0%,0%);fill-opacity:1;" d="M 27.648438 43.886719 L 29.664062 43.886719 L 29.664062 36.933594 L 27.46875 37.375 L 27.46875 36.25 L 29.648438 35.8125 L 30.882812 35.8125 L 30.882812 43.886719 L 32.898438 43.886719 L 32.898438 44.925781 L 27.648438 44.925781 Z M 27.648438 43.886719 "/>
<path style=" stroke:none;fill-rule:nonzero;fill:rgb(0%,0%,0%);fill-opacity:1;" d="M 35.398438 35.8125 L 40.238281 35.8125 L 40.238281 36.851562 L 36.527344 36.851562 L 36.527344 39.082031 C 36.707031 39.019531 36.886719 38.976562 37.0625 38.945312 C 37.242188 38.914062 37.421875 38.902344 37.601562 38.902344 C 38.621094 38.902344 39.425781 39.179688 40.019531 39.738281 C 40.613281 40.292969 40.910156 41.046875 40.910156 42 C 40.910156 42.980469 40.605469 43.742188 39.996094 44.289062 C 39.386719 44.832031 38.523438 45.101562 37.414062 45.101562 C 37.03125 45.101562 36.640625 45.070312 36.242188 45.003906 C 35.847656 44.9375 35.4375 44.839844 35.015625 44.710938 L 35.015625 43.472656 C 35.382812 43.671875 35.757812 43.820312 36.148438 43.917969 C 36.539062 44.015625 36.953125 44.0625 37.386719 44.0625 C 38.09375 44.0625 38.648438 43.878906 39.058594 43.507812 C 39.472656 43.136719 39.675781 42.636719 39.675781 42 C 39.675781 41.367188 39.472656 40.863281 39.058594 40.496094 C 38.648438 40.125 38.09375 39.9375 37.386719 39.9375 C 37.058594 39.9375 36.730469 39.972656 36.402344 40.046875 C 36.074219 40.121094 35.742188 40.234375 35.398438 40.390625 Z M 35.398438 35.8125 "/>
<path style=" stroke:none;fill-rule:nonzero;fill:rgb(0%,0%,0%);fill-opacity:1;" d="M 17.472656 124.769531 L 21.097656 124.769531 L 21.097656 125.898438 L 11.660156 125.898438 L 11.660156 124.769531 L 12.699219 124.769531 C 12.292969 124.53125 11.992188 124.234375 11.792969 123.875 C 11.597656 123.515625 11.496094 123.085938 11.496094 122.585938 C 11.496094 121.753906 11.828125 121.078125 12.484375 120.5625 C 13.144531 120.042969 14.011719 119.78125 15.085938 119.78125 C 16.160156 119.78125 17.027344 120.042969 17.6875 120.5625 C 18.347656 121.078125 18.675781 121.753906 18.675781 122.585938 C 18.675781 123.085938 18.578125 123.515625 18.378906 123.875 C 18.179688 124.234375 17.878906 124.53125 17.472656 124.769531 Z M 15.085938 120.949219 C 14.261719 120.949219 13.613281 121.117188 13.140625 121.457031 C 12.671875 121.796875 12.4375 122.265625 12.4375 122.859375 C 12.4375 123.453125 12.671875 123.921875 13.140625 124.261719 C 13.613281 124.601562 14.261719 124.769531 15.085938 124.769531 C 15.910156 124.769531 16.558594 124.601562 17.027344 124.261719 C 17.5 123.921875 17.734375 123.453125 17.734375 122.859375 C 17.734375 122.265625 17.5 121.796875 17.027344 121.457031 C 16.558594 121.117188 15.910156 120.949219 15.085938 120.949219 Z M 15.085938 120.949219 "/>
<path style=" stroke:none;fill-rule:nonzero;fill:rgb(0%,0%,0%);fill-opacity:1;" d="M 14.796875 112.074219 L 15.347656 112.074219 L 15.347656 117.238281 C 16.121094 117.1875 16.710938 116.953125 17.113281 116.539062 C 17.519531 116.121094 17.722656 115.539062 17.722656 114.796875 C 17.722656 114.363281 17.667969 113.945312 17.5625 113.542969 C 17.457031 113.136719 17.300781 112.734375 17.085938 112.335938 L 18.148438 112.335938 C 18.320312 112.738281 18.449219 113.152344 18.539062 113.574219 C 18.628906 114 18.675781 114.425781 18.675781 114.863281 C 18.675781 115.953125 18.359375 116.816406 17.722656 117.453125 C 17.089844 118.089844 16.230469 118.410156 15.144531 118.410156 C 14.027344 118.410156 13.140625 118.105469 12.484375 117.503906 C 11.828125 116.898438 11.496094 116.082031 11.496094 115.058594 C 11.496094 114.136719 11.792969 113.410156 12.386719 112.875 C 12.976562 112.339844 13.78125 112.074219 14.796875 112.074219 Z M 14.46875 113.195312 C 13.855469 113.203125 13.367188 113.375 13 113.710938 C 12.632812 114.046875 12.449219 114.492188 12.449219 115.046875 C 12.449219 115.671875 12.625 116.171875 12.980469 116.550781 C 13.335938 116.925781 13.832031 117.144531 14.476562 117.199219 Z M 14.46875 113.195312 "/>
<path style=" stroke:none;fill-rule:nonzero;fill:rgb(0%,0%,0%);fill-opacity:1;" d="M 12.710938 106.269531 C 12.636719 106.394531 12.585938 106.535156 12.550781 106.683594 C 12.515625 106.832031 12.496094 106.992188 12.496094 107.171875 C 12.496094 107.808594 12.703125 108.296875 13.117188 108.636719 C 13.53125 108.976562 14.121094 109.144531 14.894531 109.144531 L 18.496094 109.144531 L 18.496094 110.273438 L 11.660156 110.273438 L 11.660156 109.144531 L 12.722656 109.144531 C 12.308594 108.90625 12 108.601562 11.800781 108.222656 C 11.597656 107.84375 11.496094 107.382812 11.496094 106.84375 C 11.496094 106.765625 11.503906 106.679688 11.511719 106.585938 C 11.523438 106.492188 11.539062 106.390625 11.558594 106.277344 Z M 12.710938 106.269531 "/>
<path style=" stroke:none;fill-rule:nonzero;fill:rgb(0%,0%,0%);fill-opacity:1;" d="M 17.472656 104.003906 L 21.097656 104.003906 L 21.097656 105.132812 L 11.660156 105.132812 L 11.660156 104.003906 L 12.699219 104.003906 C 12.292969 103.769531 11.992188 103.46875 11.792969 103.109375 C 11.597656 102.75 11.496094 102.320312 11.496094 101.820312 C 11.496094 100.988281 11.828125 100.316406 12.484375 99.796875 C 13.144531 99.277344 14.011719 99.015625 15.085938 99.015625 C 16.160156 99.015625 17.027344 99.277344 17.6875 99.796875 C 18.347656 100.316406 18.675781 100.988281 18.675781 101.820312 C 18.675781 102.320312 18.578125 102.75 18.378906 103.109375 C 18.179688 103.46875 17.878906 103.769531 17.472656 104.003906 Z M 15.085938 100.183594 C 14.261719 100.183594 13.613281 100.351562 13.140625 100.691406 C 12.671875 101.03125 12.4375 101.5 12.4375 102.09375 C 12.4375 102.6875 12.671875 103.15625 13.140625 103.496094 C 13.613281 103.835938 14.261719 104.003906 15.085938 104.003906 C 15.910156 104.003906 16.558594 103.835938 17.027344 103.496094 C 17.5 103.15625 17.734375 102.6875 17.734375 102.09375 C 17.734375 101.5 17.5 101.03125 17.027344 100.691406 C 16.558594 100.351562 15.910156 100.183594 15.085938 100.183594 Z M 15.085938 100.183594 "/>
<path style=" stroke:none;fill-rule:nonzero;fill:rgb(0%,0%,0%);fill-opacity:1;" d="M 9 97.15625 L 9 96.035156 L 18.496094 96.035156 L 18.496094 97.15625 Z M 9 97.15625 "/>
<path style=" stroke:none;fill-rule:nonzero;fill:rgb(0%,0%,0%);fill-opacity:1;" d="M 14.796875 87.835938 L 15.347656 87.835938 L 15.347656 93 C 16.121094 92.949219 16.710938 92.71875 17.113281 92.300781 C 17.519531 91.882812 17.722656 91.304688 17.722656 90.558594 C 17.722656 90.128906 17.667969 89.710938 17.5625 89.304688 C 17.457031 88.898438 17.300781 88.496094 17.085938 88.097656 L 18.148438 88.097656 C 18.320312 88.5 18.449219 88.914062 18.539062 89.339844 C 18.628906 89.761719 18.675781 90.191406 18.675781 90.625 C 18.675781 91.714844 18.359375 92.582031 17.722656 93.21875 C 17.089844 93.855469 16.230469 94.171875 15.144531 94.171875 C 14.027344 94.171875 13.140625 93.871094 12.484375 93.265625 C 11.828125 92.660156 11.496094 91.847656 11.496094 90.820312 C 11.496094 89.902344 11.792969 89.175781 12.386719 88.640625 C 12.976562 88.105469 13.78125 87.835938 14.796875 87.835938 Z M 14.46875 88.960938 C 13.855469 88.96875 13.367188 89.140625 13 89.476562 C 12.632812 89.8125 12.449219 90.253906 12.449219 90.808594 C 12.449219 91.433594 12.625 91.9375 12.980469 92.3125 C 13.335938 92.6875 13.832031 92.90625 14.476562 92.964844 Z M 14.46875 88.960938 "/>
<path style=" stroke:none;fill-rule:nonzero;fill:rgb(0%,0%,0%);fill-opacity:1;" d="M 11.660156 80.527344 L 14.988281 83 L 18.496094 80.402344 L 18.496094 81.726562 L 15.8125 83.714844 L 18.496094 85.703125 L 18.496094 87.03125 L 14.921875 84.375 L 11.660156 86.804688 L 11.660156 85.480469 L 14.097656 83.667969 L 11.660156 81.855469 Z M 11.660156 80.527344 "/>
<path style=" stroke:none;fill-rule:nonzero;fill:rgb(0%,0%,0%);fill-opacity:1;" d="M 11.660156 78.816406 L 11.660156 77.691406 L 18.496094 77.691406 L 18.496094 78.816406 Z M 9 78.816406 L 9 77.691406 L 10.421875 77.691406 L 10.421875 78.816406 Z M 9 78.816406 "/>
<path style=" stroke:none;fill-rule:nonzero;fill:rgb(0%,0%,0%);fill-opacity:1;" d="M 9.71875 74.230469 L 11.660156 74.230469 L 11.660156 71.917969 L 12.535156 71.917969 L 12.535156 74.230469 L 16.246094 74.230469 C 16.804688 74.230469 17.160156 74.15625 17.320312 74.003906 C 17.480469 73.851562 17.558594 73.539062 17.558594 73.070312 L 17.558594 71.917969 L 18.496094 71.917969 L 18.496094 73.070312 C 18.496094 73.9375 18.335938 74.535156 18.011719 74.867188 C 17.6875 75.195312 17.101562 75.359375 16.246094 75.359375 L 12.535156 75.359375 L 12.535156 76.183594 L 11.660156 76.183594 L 11.660156 75.359375 L 9.71875 75.359375 Z M 9.71875 74.230469 "/>
<path style=" stroke:none;fill-rule:nonzero;fill:rgb(0%,0%,0%);fill-opacity:1;" d="M 19.132812 67.597656 C 19.945312 67.914062 20.476562 68.222656 20.722656 68.523438 C 20.972656 68.824219 21.097656 69.226562 21.097656 69.730469 L 21.097656 70.628906 L 20.15625 70.628906 L 20.15625 69.96875 C 20.15625 69.660156 20.085938 69.421875 19.9375 69.25 C 19.792969 69.078125 19.445312 68.890625 18.898438 68.683594 L 18.386719 68.480469 L 11.660156 71.246094 L 11.660156 70.054688 L 17.007812 67.917969 L 11.660156 65.78125 L 11.660156 64.59375 Z M 19.132812 67.597656 "/>
<g clip-path="url(#clip9)" clip-rule="nonzero">
<path style="fill:none;stroke-width:1.5;stroke-linecap:square;stroke-linejoin:round;stroke:rgb(12.156863%,46.666667%,70.588235%);stroke-opacity:1;stroke-miterlimit:4;" d="M 40.603125 13.5 L 44.5875 15.84375 L 48.575 26.7 L 52.559375 80.828125 L 56.546875 117.115625 L 60.53125 130.375 L 64.51875 135.75625 L 68.503125 136.8375 L 72.4875 137.75 L 76.475 137.9875 L 80.459375 138.328125 L 84.446875 138.4625 L 88.43125 138.571875 L 92.41875 137.684375 L 96.403125 138.590625 L 100.3875 138.759375 L 104.375 138.284375 L 108.359375 138.909375 L 112.346875 138.94375 L 116.33125 138.871875 L 120.31875 139.03125 L 124.303125 139.021875 L 128.2875 139.0625 L 132.275 139.071875 L 136.259375 139.06875 L 140.246875 138.921875 L 144.23125 139.071875 L 148.21875 139.153125 L 152.203125 139.190625 L 156.1875 139.196875 L 160.175 139.13125 L 164.159375 139.165625 L 168.146875 139.175 L 172.13125 139.190625 L 176.11875 139.171875 L 180.103125 139.18125 L 184.0875 139.20625 L 188.075 139.29375 L 192.059375 139.25 L 196.046875 139.3625 L 200.03125 139.375 L 204.01875 139.378125 L 208.003125 139.371875 L 211.9875 139.359375 L 215.975 139.334375 L 219.959375 139.409375 L 223.946875 139.39375 L 227.93125 139.49375 L 231.91875 139.48125 L 235.903125 139.5 " transform="matrix(1.25,0,0,1.25,0,0)"/>
</g>
<path style="fill:none;stroke-width:0.8;stroke-linecap:square;stroke-linejoin:miter;stroke:rgb(0%,0%,0%);stroke-opacity:1;stroke-miterlimit:4;" d="M 40.603125 145.8 L 40.603125 7.2 " transform="matrix(1.25,0,0,1.25,0,0)"/>
<path style="fill:none;stroke-width:0.8;stroke-linecap:square;stroke-linejoin:miter;stroke:rgb(0%,0%,0%);stroke-opacity:1;stroke-miterlimit:4;" d="M 235.903125 145.8 L 235.903125 7.2 " transform="matrix(1.25,0,0,1.25,0,0)"/>
<path style="fill:none;stroke-width:0.8;stroke-linecap:square;stroke-linejoin:miter;stroke:rgb(0%,0%,0%);stroke-opacity:1;stroke-miterlimit:4;" d="M 40.603125 145.8 L 235.903125 145.8 " transform="matrix(1.25,0,0,1.25,0,0)"/>
<path style="fill:none;stroke-width:0.8;stroke-linecap:square;stroke-linejoin:miter;stroke:rgb(0%,0%,0%);stroke-opacity:1;stroke-miterlimit:4;" d="M 40.603125 7.2 L 235.903125 7.2 " transform="matrix(1.25,0,0,1.25,0,0)"/>
<use xlink:href="#surface5" mask="url(#mask0)"/>
<path style="fill:none;stroke-width:1.5;stroke-linecap:square;stroke-linejoin:round;stroke:rgb(12.156863%,46.666667%,70.588235%);stroke-opacity:1;stroke-miterlimit:4;" d="M 175.628125 20.3 L 195.628125 20.3 " transform="matrix(1.25,0,0,1.25,0,0)"/>
<path style=" stroke:none;fill-rule:nonzero;fill:rgb(0%,0%,0%);fill-opacity:1;" d="M 256.824219 20.972656 L 256.824219 22.914062 L 259.136719 22.914062 L 259.136719 23.785156 L 256.824219 23.785156 L 256.824219 27.496094 C 256.824219 28.054688 256.898438 28.410156 257.054688 28.570312 C 257.203125 28.730469 257.515625 28.808594 257.984375 28.808594 L 259.136719 28.808594 L 259.136719 29.75 L 257.984375 29.75 C 257.117188 29.75 256.519531 29.585938 256.1875 29.265625 C 255.859375 28.941406 255.695312 28.351562 255.695312 27.496094 L 255.695312 23.785156 L 254.871094 23.785156 L 254.871094 22.914062 L 255.695312 22.914062 L 255.695312 20.972656 Z M 256.824219 20.972656 "/>
<path style=" stroke:none;fill-rule:nonzero;fill:rgb(0%,0%,0%);fill-opacity:1;" d="M 264.574219 23.960938 C 264.449219 23.886719 264.3125 23.835938 264.164062 23.800781 C 264.015625 23.765625 263.851562 23.75 263.671875 23.75 C 263.039062 23.75 262.550781 23.953125 262.210938 24.367188 C 261.871094 24.78125 261.699219 25.375 261.699219 26.148438 L 261.699219 29.75 L 260.570312 29.75 L 260.570312 22.914062 L 261.699219 22.914062 L 261.699219 23.976562 C 261.9375 23.558594 262.246094 23.25 262.621094 23.050781 C 263 22.847656 263.460938 22.75 264.003906 22.75 C 264.078125 22.75 264.164062 22.753906 264.257812 22.765625 C 264.351562 22.773438 264.457031 22.789062 264.570312 22.808594 Z M 264.574219 23.960938 "/>
<path style=" stroke:none;fill-rule:nonzero;fill:rgb(0%,0%,0%);fill-opacity:1;" d="M 268.859375 26.3125 C 267.953125 26.3125 267.324219 26.417969 266.972656 26.625 C 266.625 26.832031 266.449219 27.183594 266.449219 27.6875 C 266.449219 28.085938 266.578125 28.402344 266.84375 28.636719 C 267.105469 28.867188 267.460938 28.984375 267.914062 28.984375 C 268.535156 28.984375 269.035156 28.765625 269.414062 28.324219 C 269.789062 27.882812 269.976562 27.292969 269.976562 26.5625 L 269.976562 26.3125 Z M 271.101562 25.847656 L 271.101562 29.75 L 269.976562 29.75 L 269.976562 28.710938 C 269.722656 29.125 269.402344 29.429688 269.019531 29.628906 C 268.636719 29.828125 268.167969 29.925781 267.613281 29.925781 C 266.914062 29.925781 266.359375 29.730469 265.945312 29.335938 C 265.53125 28.941406 265.324219 28.417969 265.324219 27.757812 C 265.324219 26.988281 265.582031 26.410156 266.097656 26.019531 C 266.613281 25.628906 267.378906 25.433594 268.402344 25.433594 L 269.976562 25.433594 L 269.976562 25.324219 C 269.976562 24.804688 269.808594 24.40625 269.46875 24.125 C 269.128906 23.839844 268.652344 23.699219 268.035156 23.699219 C 267.644531 23.699219 267.265625 23.746094 266.894531 23.839844 C 266.523438 23.933594 266.167969 24.074219 265.828125 24.261719 L 265.828125 23.222656 C 266.238281 23.0625 266.636719 22.945312 267.023438 22.867188 C 267.410156 22.789062 267.785156 22.75 268.152344 22.75 C 269.140625 22.75 269.878906 23.003906 270.367188 23.519531 C 270.855469 24.03125 271.101562 24.804688 271.101562 25.847656 Z M 271.101562 25.847656 "/>
<path style=" stroke:none;fill-rule:nonzero;fill:rgb(0%,0%,0%);fill-opacity:1;" d="M 273.414062 22.914062 L 274.535156 22.914062 L 274.535156 29.75 L 273.414062 29.75 Z M 273.414062 20.25 L 274.535156 20.25 L 274.535156 21.675781 L 273.414062 21.675781 Z M 273.414062 20.25 "/>
<path style=" stroke:none;fill-rule:nonzero;fill:rgb(0%,0%,0%);fill-opacity:1;" d="M 282.570312 25.621094 L 282.570312 29.75 L 281.445312 29.75 L 281.445312 25.660156 C 281.445312 25.011719 281.320312 24.527344 281.066406 24.207031 C 280.816406 23.886719 280.4375 23.726562 279.933594 23.726562 C 279.324219 23.726562 278.847656 23.917969 278.496094 24.304688 C 278.148438 24.691406 277.972656 25.21875 277.972656 25.886719 L 277.972656 29.75 L 276.84375 29.75 L 276.84375 22.914062 L 277.972656 22.914062 L 277.972656 23.976562 C 278.242188 23.5625 278.558594 23.257812 278.921875 23.054688 C 279.285156 22.851562 279.707031 22.75 280.183594 22.75 C 280.96875 22.75 281.5625 22.992188 281.964844 23.476562 C 282.367188 23.960938 282.570312 24.675781 282.570312 25.621094 Z M 282.570312 25.621094 "/>
</g>
</svg>
